<?xml version="1.0" encoding="UTF-8"?>
<svg xmlns="http://www.w3.org/2000/svg" version="1.1" viewBox="0 0 508.7 500">
  <defs>
    <style>
      .cls-1 {
        fill: #777;
      }

      .cls-2 {
        fill: #3f3f3f;
      }

      .cls-3 {
        fill: #555;
      }

      .cls-4 {
        fill: #565656;
      }

      .cls-5 {
        fill: #2e2e2e;
      }
    </style>
  </defs>
  <!-- Generator: Adobe Illustrator 28.7.2, SVG Export Plug-In . SVG Version: 1.2.0 Build 154)  -->
  <g>
    <g id="Layer_1">
      <path class="cls-5" d="M333.4,348.6c-1.1,5-4.4,7.5-8.2,9.7-5.3,3.1-11,4.8-17.5,5.5-2.5,1-4.7.3-7.2.3-4,0-7-1.3-10.2-3-7.2-3.9-14.8-7.3-22.2-10.9-1.6-.8-3.4-1.4-4.8-3.1-.7-4.3,2.3-7.1,8.6-8.2,3.6-.1,6.4.7,9.2,2.4,5.6,3.4,11.6,5.8,17.5,8.5,5.5,2.6,11.1,1.7,16.4-.9,4.2-2,4.4-5.1.8-8.1-7.8-6.5-16.9-10.5-26.7-13.1-4.1-1.1-8.3-1.5-12.1-3.6-1.3-.8-2.5.4-4.1.6-2.1-1.2-3.5-2.7-5.9-4.3-.8-.7-1-.9-1.2-1.5.2-3.1-2.2-3.6-3.8-4.8-1.5-1.1-3.2-1.7-4.7-3.3.7-5.9,5.1-5,8.4-4.4,10.1,2.1,20.3,3.5,30.2,6.6,6.2,2,12.2,4.6,18,7.3,3.7,1.7,6.5,1.1,9.4-1.8,12-12.2,17.7-26.5,14.1-43.6-2.1-10.1-7.4-18.1-16.7-23.7-8.9-5.4-18.1-10.5-26.5-16.8-3.5-2.6-4.9-2.3-6.2,1.8-3.8,12.6-11.1,23.4-16.6,35.2-3.9,8.4-11.1,14.4-18.4,20.1-3.3,2.6-6.5.9-9.9-.6-.9-2.1-1.4-3.9-2-6.1.7-2.3,2.1-3.7,3.4-5.1,19.9-20.2,28.3-46,35.9-72.3,1.2-4.1,1.8-8.6,4.2-12.2,4-6.3,3.8-12.4,0-18.6-5.2,14.7-8.8,29.8-12.7,44.9-2.4,9.5-5.8,18.7-10.4,27.4-3.8,7.2-7.3,14.6-11.1,21.8-2.4,4.6-5.1,9-9.9,12.3-4.1-1.4-6.7-4.1-8.4-8.2.3-5.6,3.4-9.7,5.7-14.1,8.3-15.4,16.3-31,19.8-48.4.5-2.6,1.6-5.6-1.3-7.3-3.3-1.9-7-3.4-10.9-2.7-2.3.4-2.5,2.8-2.9,4.8-2.1,9.8-3.4,19.7-5,29.5-.7,3.9-1.2,7.9-2.7,11.7-1.9,4.8-5.4,6.7-9.7,5.5-4.2-1.2-6.4-4.8-5.3-9.9,5.2-24.3,7.2-49.1,14-73,.6-2.3.9-4.6-.6-6.7-.7-1-1.7-1.6-3-1.3-1.4.3-1.8,1.5-1.7,2.7,1.1,13.1-1.7,25.9-2.9,38.8-.6,6.1-1.7,12.2-2.3,18.3-.4,4.4-4.4,7.6-8.1,7.3-3.3-.3-6.4-4.1-6.6-8.2-.4-6.5.6-12.9,1.5-19.4,1.7-11.1.4-12.4-10.2-9.7-6.8,1.7-13.7,2.7-20.5,4.5-5.4,1.5-6.7,3.6-4.4,8.8,8.1,18.8,13,38.9,23,56.9,1.4,2.6,1.1,5.1.5,8.1-2.7,2.3-5.5,3.3-9.1,2.9-3.6-1.4-5.5-3.9-7.1-6.9-8-14.7-11.8-31.1-18.4-46.3-5.1-11.7-7.7-24.3-15-35.3-6.1-9.1-6.4-19.9-4.2-30.8,4.9-23.6,18.5-41.3,36.5-56.3,2-1.7,4-3.5,5.9-5.4.9-1,2-2.2.9-3.5-1-1.4-2.5-.6-3.6.1-7.4,4.5-14.9,8.9-21.7,14.2-4.2,3.3-8.7,6.2-13.2,9.1-5.2,3.4-9.1,7.7-12,13.1-3.5,6.5-7.8,11.8-15.2,14.3-3.7,1.2-6.9,4-10.2,6.2-4.6,3.3-6,8.2-3.5,13.2,5.4,10.7,9.8,21.9,16.6,31.9,6.1,8.9,10.8,18.7,15.3,28.6,2,4.3.6,7.9-3.3,10.2-3.2,1.8-7.5.7-10-3-4-5.8-6.6-12.3-9.9-18.5-4.6-8.7-11.1-16.3-14.7-25.5-.6-1.6-1.7-2-3-.5-.3.4-.6.8-.9,1.2-8.1,9.3-8.4,10.1-.6,19.7,11.7,14.3,21.3,30.1,32.2,45,1.5,2,1.6,3.9,1,6.4-3.3,1.8-3.8,6.8-8.7,5.9-9-12.8-17.3-25.6-26.4-37.8-6.6-8.9-12.5-18.4-19.9-26.7-10.4-11.5-11.6-24.4-7.4-38.5,1-3.2,3.4-5.3,5.8-7.3,3.1-2.7,3.5-5.5,2.2-9.3-3.7-11.7-5.9-23.7-7-36.2-.7-1.7-.1-3.2-.5-5-.2-.3-.3-.8-.3-1-.1-.5-.3-.7-.2-1.4.2-.4.2-.8.2-1,.6-4.4,1.2-8.5,1.8-13.1.2-.4.2-.7.2-.9.3-.4.5-.6.9-1.1,4-10.7,14.5-19.1,23.8-18.1,7.1.7,14.3-.6,21.3,1.7,2.4.8,5.1-.2,7.2-1.3,5.6-2.8,10.9-5.4,15.2-10.7,7.6-9.3,16.4-18,28.8-20.2,9.7-1.7,19.1-3.4,28-8.1,5.8-3,13.1-1.9,19.6-.6,3.9.8,7.3.6,11.1-.4,20.9-5.4,39.3.4,55.9,13.3,6,4.7,7.6,12.4,11,18.8,2.1,4,3.4,6.1,8.6,3.3,7.1-3.8,14.2-.4,21,2.4,1.4.6,2.7,1.3,4.4,2,1.4.7,2.6.3,3.9.7.3.2.2.2.2.2,1.3,1,2.9.4,4.6.3,9.6-1.8,19-3.7,28.4-1.2,22.6,6,38.7,19.8,50.3,40,9.2,15.9,8.3,32.7,6.9,49.8-1.1,13.7-3,27.4-2.2,41.7.2.6.3.8.7,1.1.3.6.3,1.1.4,1.8,0,2.7.6,4.9,1.7,7.3.2.3.1.2.2.2.6.7.5,1.5.7,2.6,2,3.6,4.7,6.4,6.1,10.3.5.5.8.8,1.4,1.1.3,0,.7.3.7.4.2.5.3.9.8,1.4,2.9,2.5,3.9,5.9,6.1,8.9.6.8,1.2.8,2,1.2.2.2.2.2.1.1.2.2.5.5.9.9.2.2,0,.2,0,.1.2.2.5.5.9.9.2.2,0,.2,0,.1.2.1.3.3.7.7,7.1,8.3,14.4,16,20.8,24.5,8.1,10.8,13.6,22.8,13.6,36.7,0,3.6-.9,7-2.3,10.1-1.6,3.4-4.3,5.8-8.5,5.9-1.8,0-3.6.5-5.8.9-1.3.7-2,1.4-2.2,2.8-1.9,5,.9,9.3,1.3,13.9.4,4.5.6,8.9-.2,13.4-2.1,12.1-6.7,15.7-20.3,16.9-14.7,1.2-28-4.2-41.6-8.7-12-3.9-24-7.8-36.3-10.7-9.3-2.2-18.8-1.6-27.8,3.3-1.4,1.5-.6,3.2-1.2,5Z"/>
      <path class="cls-1" d="M189.8,271.1c3.3,0,5.9-1.2,8.9-2.6,3.3-3.4,7.3-2.5,10.9-2.4,2.8,0,5.5.7,8.6,1.6,1.4,2,2.6,3.5,4.5,4.8,4.6,3.2,6.7,8.3,7.7,13.6,1.7,9.7-.5,18.5-8,25.4-.2.2-.5.4-.7.7-1.8,2-5.5,3.6-3.7,6.7,2,3.4,5.7,1.8,8.6.8,5.3-1.7,8.7-5.8,12.1-9.9,2-2.4,2.7-6.1,6.9-6.7,3,.7,5.5-.4,8.1,0,3.1.5,6.2.8,7.6,4.9,4,1.9,7.3,3.9,9.1,8.1,0,1.1-.3,2-.8,2.1-6.8.6-12,6.2-19.2,6.1-7.2,0-14.1,2-20.9,4.5-8.2,3.1-13,10.2-18.7,16.1-10.5,10.9-15.8,24.9-21.6,38.6-7.8,18.4-16.5,36.4-29.7,51.7-3,3.5-7.1,5.5-10.5,8.5-13.1,11.8-28.2,18.7-46.3,17.3-4-.3-7.1.7-10.1,3.5-1.6-.7-2.4-2-2.3-3.2.6-9.2-2.3-17.9-3-26.9-.9-10.4,3.7-19.9,6.4-29.5,4.3-15,14.7-27.4,20.4-41.8,6.1-15.3,12.1-30.6,13.3-47.3.5-6.5.9-12.9.9-19.4,0-5.7-2.6-10.5-5-15.2-3.6-7.3-3.4-14,.9-21.2,2.5-2.3,4.8-4.3,7.5-6.4.5-.3.7-.4,1.3-.6,1.9.9,3.1,2.3,5.3,2.6,2.1.3,4.3,1.3,5.7,2.9,7,8.5,15.8,15.8,18,27.5.6,3.1,1.7,6.1,3.7,8.6.8,1,1.8,2.2,3.3,1.6,1.2-.5,1.4-1.7,1.6-2.9.3-3.2.2-6.3-.3-9.4-.3-1.6-.8-3.3.4-5.1,6.2-3.3,11.9-7,19.2-7.6Z"/>
      <path class="cls-4" d="M91.8,466.9c-.1-1.9-.2-3.4-.1-4.8.3-3.1,1.5-4.2,4.9-3.2,14.8,4.3,28.1.6,40.3-8.2,3.4-2.4,6.8-4.7,10.2-7.2,14-10.4,22.4-24.8,30.3-40,7-13.6,11.8-28.2,19-41.7,6.3-11.9,15.6-21.2,25.5-29.7,7.5-6.5,17.6-7.6,27.3-8.3,3.6-.2,6.8-.7,9.8-3,2.9-2.2,6.5-2.3,10.5-2.2.4,0,.4,0,.3,0,.1.3.4.4,1,.1,1.3,1.1,2.4,2.4,3.8,4,3.6,1.1,5.4,3.3,5.6,6.7.3,4.5-.5,8.6-5,11.7-4.6.5-7.2,3.3-10.2,6.2-.2.3-.7.3-.9.4-1.4-.2-2.5.4-4,.7-9.2-1.4-17.7.2-25.3,4.8-8.6,5.3-16.7,11.2-21.9,20.4-4,7.2-7,14.9-10.4,22.4-6.4,14.4-12.6,29-21,42.5-7.2,11.7-16.9,20.3-29.5,25.7-10.5,4.4-20.9,8.9-31.5,13-7.9,3-21.2,1.9-25.6-3.8-1.5-1.9-2.3-4-3.2-6.5Z"/>
      <path class="cls-3" d="M420.1,193.7c-.2,0-.4-.1-.7-.5.2-.1.4,0,.7.5Z"/>
      <path class="cls-4" d="M448.6,314.8c1.9,7.1,5.3,13.4,4.8,20.7-.3,4.2-1.8,6.9-5.7,8.4-8.1,3.3-16.4,3-24.5.8-13.6-3.8-27.1-8.2-40.6-12.4-2.3-.7-4.7-1.3-7.2-2.1,1.2-1.9,2.8-1.2,4.2-1.4,9.5-1.9,15.6-11.6,12.8-20.8-2.3-7.7-6.5-13.9-14.3-16.9-.9-.3-2.1-.6-2-1.8,0-1.1,1.2-1.5,2.1-1.9,5.6-2.7,11.6-4,17.6-5.5,12.2-3.1,24.8-5.3,35.5-12.7,9.1-6.2,9.1-13.9.1-20.3-6.2-4.5-13.1-6.4-20.6-6.5-12.2-.1-23.9,2.1-34.8,7.5-1.4.7-3,2.4-4.5,1-1.3-1.2.2-2.8.8-4.1,8.1-20.5,14.5-41.4,16.5-63.6.8-9.1,1.6-18.2,1.5-27.4,0-7.1,1.5-13.1,8.8-16.5,3.6-1.7,5.7-5.5,8.8-9.2,2,7.7,2.9,14.6,2.2,21.8-1.6,15.4-2.8,30.8-.5,46.3,1.6,10.7,7.2,19.8,13.8,27.9,8.7,10.7,18.4,20.6,27.5,30.9,9.1,10.2,14.9,22,15.9,35.8.4,5.8-.8,7-6.7,6.4-8.4-1-13.2,5.4-11.5,15.6Z"/>
      <path class="cls-4" d="M187.1,269.3c-4.9,4.5-11,6.5-17.3,8.7-2.6.9-3.4-.5-4.4-2.2-2.7-4.9-4.5-10.4-8.4-14.5-5.8-6.3-12.3-11.2-22.1-8.4-.6.2-.8.3-1.3.5-.6.1-.8.2-1.4,0-.5-.3-.6-.5-1.3-1.1-.8-.4-1-.4-1.6-.5-1.8-5.3-5.7-9.1-8.6-13.5-9.5-14.2-19.6-28-29.9-41.7-1-1.3-1.6-2.9-2.6-4.3-1.9-2.5-1.5-4.4,1-6.3,3.9-3,7.1-6.5,8.8-11.2,1-2.7,2.6-3.3,3.8-.3,6,15.3,17.1,27.8,23.4,42.9.8,2,2,3.8,3.3,5.6,1.6,2.2,3.8,3.4,6.5,1.9,2.8-1.6,3.4-4,2-6.8-4.9-10-9.7-20.1-16-29.3-7.1-10.4-11.3-22.2-17.3-33.2-2.6-4.7,1.8-12.7,8.1-16,4.3-2.3,7.9-5.6,13-6.9,4.1-1.1,6.4-5.2,8.3-9,3.8-7.5,9.3-13.1,16.4-17.6,11.6-7.4,22.9-15.5,34.2-23.3,2.5-1.7,5.1-2.1,7.3,0,2.1,2.1,1.1,4.8-.4,6.9-2.5,3.4-5.9,5.9-9.1,8.5-18.8,15.2-31.6,34.1-35.9,58.1-1.7,9.6.5,18.7,5.6,26.8,2.9,4.5,5.3,9.2,7.1,14.2,5.8,15.9,11.5,31.9,17.2,47.8,3,8.3,7.5,16,11.5,24.3Z"/>
      <path class="cls-4" d="M259,306.7c-5.2-2.4-10.5-3-16.4-2.9-1-.4-1.9-.8-1.9-1.3.8-5.2,0-10.7,3-15.7,4,1.3,6.8.1,9.6-2.3,7.7-6.6,13.7-14.3,18.1-23.5,5.5-11.4,11.9-22.3,15-34.7.5-1.8,1.3-4.7,3.8-1.6,5.6,7,13.8,10.3,20.9,15.1,4.4,3,8.9,5.8,13.5,8.5,7.9,4.7,11.9,12.5,13.9,20.6,4.2,17,.8,32.6-11.5,45.7-.8.8-1.6,1.7-2.3,2.6-5.4,6.7-5.5,6.8-13.3,2.8-15-7.8-31.5-10.5-47.8-13.7-1.4-.3-3,.2-4.8.4Z"/>
      <path class="cls-3" d="M215.8,269.3c-6.3-2.8-12.5-2.1-19.2-2.4-.8-5.2-3.8-9.4-6-13.8-6.2-12.2-9.6-25.5-14.5-38.2-2.3-5.9-5.5-11.4-6.8-17.7-.7-3.2,0-4.2,3.4-4.7,11.9-1.7,23.6-4.1,35-7.9,4.9-1.6,5.9-.8,5.4,4.5-.8,7.1-1.7,14.2-2.4,21.3-.2,2.1-.3,4.3-.4,6.5,0,3.5.3,7.2,4.8,7.3,4.1.1,4.9-3.3,5.3-6.6.5-4.3,1.3-8.6,1.5-12.9.7-11.6,3.6-23,3.3-34.8,0-3.4,0-6.7-2.1-9.6-1.2-1.6-1.2-3.4,1-3.9,3.9-1,7.7-.4,11,1.9,3.1,2.2,2.4,5.2,1.6,8.2-7.2,24.7-9.4,50.4-14.6,75.4-.7,3.2.3,5.8,3.6,6.6,3.4.8,5.3-1.4,6.3-4.3,2.5-7.6,3-15.7,4.5-23.5,1.5-7.7,2.8-15.4,3.9-23.1.5-3.3,1.8-3.9,4.7-2.4,4,2.1,8.3,3.5,12.9,3.8,4.3.2,4.6,2.3,3.8,6-5.2,23.6-16.2,44.6-28,65.7-1.3,1.7-2.4,2.8-4.5,2-4.1-1.4-8.5-2.1-13.1-3.4Z"/>
      <path class="cls-3" d="M198.5,55.1c14.4,3.6,24.8,11.8,31.6,24.5,2.7,5.1,5.3,10.3,6.8,16.1.9,3.6,2.9,6.8,5,9.7,5.3,7.1,15.7,5.9,19-2.3,2.4-5.7,1.7-11.4-1.2-16.9-3.8-7.4-7.7-14.8-11.2-22.3-1.5-3.2-3.5-6.8.3-10,3.1-2.6,8.7-2.9,12.7-.3,9.7,6.4,14.5,15.9,15.6,27.2,1,10.3-1,20.6-1.2,30.9,0,2.1-.6,4.4-3.3,5-7.1,1.4-11.7,6.1-15.5,11.8-1.8,2.8-3.5,3.4-4.6-.3-5.7-19.3-29.1-24.9-46.5-17-2,.9-3.9,2-5.9,2.7-4.3,1.6-5.6.6-5-3.9.8-5.3,2.6-10.6,5.5-14.9,4.9-7.3,3.7-14.6,1.6-22.1-1.5-5.1-3.5-10.1-6.5-14.6-.6-.9-2-1.8-1.3-3,.8-1.5,2.4-.5,4-.5Z"/>
      <path class="cls-4" d="M324.4,72.3c6.2,1.3,12.4.7,18.7-.4,11.4-2,22.3-1.4,32.4,5.7,3.6,2.5,8.5,3.8,11.2,7.2,5.7,7.5,10.6,15.6,15.7,23.5.3.5.3,1.4,0,1.9-.4.7-1.1.4-1.8.2-19.4-9.1-35.7-2-51.4,9.5-4.8,3.5-10.1,6.5-15.2,9.5-2.1,1.2-4.7,2.9-7,1.2-2.1-1.6-1.1-4.4-.7-6.6,2.3-14,2.3-28.1.8-42.2-.3-3.2-1.4-6.1-3-9.4Z"/>
      <path class="cls-3" d="M296.3,71.8c3.2-.2,5.5-1.6,7.4-3.5,3-2.9,6.1-2.7,9.8-.9-17.1,8.3-19,23.2-17.8,39.3.3,4.3.8,8.6.6,13-.1,2.7-.8,5.3-3.7,5.8-3.3.5-4.5-2.2-5.4-4.8-1-2.7-.7-5.6-.8-8.4-.2-11.1,2.6-22.2,1.1-33.4-1.9-14.1-8.2-25.5-19.9-33.8-7.2-5.1-17.2-5.1-24.4,0-6.3,4.5-8.3,11.1-5.7,18.6,3.3,9.3,8.7,17.6,12.8,26.5.9,2,2,3.8,1.9,6.1,0,.8-.1,1.7-1.1,2.1-1,.3-1.6-.3-2-1.1-1-2.1-1.9-4.2-2.8-6.4-3.9-10.3-8.2-20.4-16-28.5-10.8-11.3-23.5-18.3-39.6-18.4-1.7,0-4.1,1-4.8-1.3-.5-1.7,1.6-2.7,2.8-3.8,7-7.1,15.3-9.3,24.7-6.4,5.1,1.6,9.6,1.2,14.6-.4,16.3-5.2,30.8-.2,44.5,8.5,3.7,2.3,6,6.2,7.5,10.3,2.1,5.8,5.3,11.1,8.6,16.3,1.7,2.7,4.1,4.3,7.7,4.6Z"/>
      <path class="cls-3" d="M93.8,142.2c-4,4.2-3.8,4.2-5.7-1-5-13.6-7-27.7-8.5-42-.6-5.7-.9-11.7,3-16.7,4.8-6.4,11.7-4.7,18-3.8,4.6.6,9.1,2.1,13.5,3.7,10,3.6,14.1,13.6,9.1,23.2-3.2,6.2-7.2,12.1-13.7,15.5-7.1,3.8-12.4,9-13.6,17.4-.2,1.2-1.2,2.4-2,3.8Z"/>
      <path class="cls-3" d="M323.5,158.9c-5.4-1.5-10.9-9.5-9.6-13.3.6-1.6,1-2.9,3.1-1.7,9.4,5.1,16.5-.1,23.6-5.3,10.1-7.3,20-15.1,31.4-20.1,5.9-2.6,12.6-2.9,19.1-1,3.1.9,5.9,2.2,6.5,5.4.7,3.6-1.6,6.2-4.5,7.6-5.4,2.6-9.1,6.6-11.2,12.1-1.6,4.1-1.7,8.4-1.7,12.8,0,7.3.5,14.7-2.2,21.7-1.1,3-1.8,7.9-6.3,7-4.1-.8-3.4-5.2-3.5-8.4-.1-5-.3-10,.6-14.9.6-3.2,0-6.3-.9-9.4-1.2-4.7-5.3-7.3-10.2-7-5.8.4-10.4,3.3-14.7,6.8-5.6,4.5-11.9,7.2-19.6,7.5Z"/>
      <path class="cls-3" d="M219.7,140.3c4.5-1.4,8.5-3,14.3-1.5-5.3,3.1-9.2,6.1-14.1,7.7-7.3,2.3-10.2,5.9-9.7,11.5.2,2.2,1,4.3,2.3,6,2.2,3.1,1.1,5.3-1.5,7.2-.7.5-1.3,1.1-2.1,1.4-12.6,5.1-25.6,8.2-39.1,9.2-4.7.3-7.2-1.8-8.6-6.4-7.1-22.8.3-47.5,18.9-62.3.9-.7,1.8-1.9,3-1.6,1.7.5.7,2.3,1.2,3.5,2.9,6.9-.7,11.3-5.4,15.7-3.9,3.6-8,7.1-10.8,11.8-.8,1.4-1.9,2.8-2.5,4.3-1.8,4.7-3.7,9.6.5,14,4.1,4.4,8.7,2.5,13.5,1,10.6-3.2,18.5-11.1,28.2-15.8,3.9-1.9,7.5-4.3,12-5.8Z"/>
      <path class="cls-3" d="M405.9,268.7c-9.4,2.4-18.6,4.1-27.4,7.3-4.6,1.6-9,3.7-12.5,7.1-5.4,5.2-4.6,11.6,1.9,15.2,1.7,1,3.6,1.6,5.5,2.2,2.9.9,5,2.6,6.5,5.1,2.1,3.5,3.9,7.4.6,11-3.1,3.4-6.8,1.6-10.1,0-7.7-3.8-14.1-9.3-20.6-14.8-1.6-1.3-1.6-2.7-1.2-4.4.6-2.4,1.6-4.9,1.5-7.3-.4-6.3,1.4-11.4,5.7-16.2,2.7-3,5-5.7,9.1-7.1,5-1.7,9.7-4.4,14.3-7,11.5-6.4,23.9-7.7,36.7-6.6,4,.3,9.1,1.7,9.8,5.6.6,3.4-4.6,4.6-7.6,5.9-3.8,1.6-7.9,2.7-12.2,4.1Z"/>
      <path class="cls-3" d="M342.8,196.5c2.8,6.8,5.4,13.3,6.1,20.4.4,4.5-1,5.9-5,3.9-7.7-3.9-15.2-8.3-22.6-12.6-7.9-4.6-15.8-6-23.8-.4-2.9,2-3.1-.2-3.1-2.1,0-8.9,4.6-15.6,11.5-20.4,4.5-3.2,9-5.9,11.3-11.4,1.4-3.4,11.4-6.2,14.6-4.7.8.4,1.3,1,1.5,1.9,1.9,8.9,7.4,16.3,9.6,25.5Z"/>
      <path class="cls-3" d="M239.9,278.4c4.5-4.9,6.7-10.6,9.6-15.8,11.6-20.8,19.8-42.8,24.5-66.2,1.1-5.5,3.2-10.9,5-16.2.8-2.2,1.6-4.4,1-6.8-.7-2.7.6-4.4,2.9-5.7,3.5-2,4.7-1.4,4.7,2.7,0,4.1.3,8,3,11.3,1,1.1,1,2.4.2,3.7-8.4,12.5-10.3,27.3-15,41.1-5.1,14.9-12.1,28.8-20.9,41.8-3,4.5-7.6,7.9-11.6,12.1-.9,1.4-1.9,1.9-3,1.2-1.1-.6-1.3-1.7-.4-3.3Z"/>
      <path class="cls-2" d="M242.7,279.6c.7,1.3,1.4,2.2,2.9,2.9.6,1.9.9,3.6,1.3,5.7.2,5.9.5,11.4-1.9,17-3.7,4.9-6.5,10-11.1,13.8-4.8,4-10.3,5.4-16.2,4.8-5.3-.6-6.6-4.2-3.3-8.4.9-1.2,2-2.2,3.2-3.2,13.9-11.9,14.5-26.5,1.5-39.5-.3-.3-.5-.8-.8-1.6,6-3.1,11.4.4,17.4,1.5,2.1,2.7,4.3,4.9,7.1,6.9Z"/>
      <path class="cls-3" d="M272.6,337.8c1.5-6.1,4.6-12-.1-18.3,14.1.9,27.5,4.8,39.5,12.8,1.7,1.1,3.2,2.4,4.9,3.4,2.5,1.5,5,3.3,4.8,6.4-.2,3-2.6,5.2-5.2,6.2-7.6,3-15.2,4.3-23-.3-6.6-3.8-13.7-6.8-20.9-10.3Z"/>
      <path class="cls-3" d="M345.3,257.8c-4.5-12.1-14.5-18.2-24.5-24.3-5.1-3.1-10.3-6.1-15.3-9.3-1.8-1.1-4.1-2.2-3.4-4.9.7-2.7,2.6-4.1,5.5-4.3,3.1-.3,5.9.5,8.6,2.1,6.4,3.8,12.9,7.6,19.4,11.3,4.4,2.5,9.1,4,14.1,4.6,6.1.8,7.1,2,5.8,8.2-1.2,6-2.8,11.9-4.2,17.9-.3,1.4,0,3.4-1.8,3.7-1.9.3-2.2-1.7-3-2.9-.4-.5-.6-1.2-1.1-2.1Z"/>
      <path class="cls-3" d="M306.5,115c.2-7.8-1.8-15-.2-22.3.9-4.3,2-8.4,5.3-11.5,2.8-2.6,4.7-1.9,5.5,1.8,1.2,5.4-.1,10.9-.4,16.3-.5,11.4-1.5,22.8-3.5,34.1-.4,2.6-.8,3.6-3.7,2.3-2.3-1.1-6.1-.8-7.2-2.5-1.3-1.8,2.3-3.9,3-6.3,1.1-3.8,1-7.5,1.1-11.8Z"/>
      <path class="cls-3" d="M265.8,171c0,4-.7,8-1.2,12-.4,3.6-2.3,5.1-6,5.2-9.9.2-14.5-4.8-12.9-14.7.4-2.5,1-4.9,1.4-7.4.8-5.1.3-10-3.3-14.1-.9-1.1-2.4-2.2-1.2-3.9,1-1.4,2.6-2.1,4.4-1.9,1.6.2,3.4.9,4.9.6,5.2-.8,4.7,1.5,3,4.9-1.2,2.6-1.8,5.4-1.9,8.2-.5,10.1,2.3,12.6,12.7,11Z"/>
      <path class="cls-3" d="M267.3,150.1c1.2-1.6,2.2-3,3.4-4.1,2.4-2.4,4.7-3.3,7.6-.4,4.4,4.5,9.8,4.3,15.3,2,1.1-.5,2.1-1.1,3.2-1.4,1.5-.4,3.3-1.8,4.4.2.9,1.6-.8,2.6-1.7,3.8-2.5,3.4-5.6,5-10.1,5.1-6.9.3-13.5,3.4-20.6,3.2-1.4,0-3.1,1.3-4.3,0-1.3-1.5,0-3.1.7-4.6.6-1.2,1.2-2.4,2-3.9Z"/>
      <path class="cls-4" d="M332.5,324.2c3.1-3.7,6.6-6.5,9.1-10.3,1.3-2,3.3-2.3,5.2-.8,6.2,5,12.8,9.4,19.8,13.4-1.1,1.7-2.3.7-3.2.6-9.5-1.7-18.8-1.8-28.1,1.3-1.4.4-3,1.6-4.1.1-1.1-1.5.5-2.7,1.3-4.3Z"/>
      <path class="cls-4" d="M370.8,328.7c-.1,0-.2-.1-.3-.2.1,0,.2.1.3.2Z"/>
      <path class="cls-3" d="M266.2,170.9c0,0,.2,0,.2.1,0,0-.1,0-.2-.1Z"/>
      <path class="cls-1" d="M268.2,314.8c0,.2-.3.3-.8.2,0-.1.3-.2.8-.2Z"/>
      <path class="cls-4" d="M324.2,72c0,0,0-.2.1-.2,0,0,0,.1-.1.2Z"/>
      <path class="cls-2" d="M126.3,401.1c9.1-13.4,13.9-28.2,19-43.1,4.1-12.1,9.1-23.9,11.1-36.6.2-1.4.6-2.6,2.3-2.8,2.3-.2,2.7,1.5,3.1,3.2,3.1,11.6,3.8,23.3,2.3,35.1-2,16-8.6,30.8-14.3,45.6-3.5,9.1-11.1,16-19.5,21.3-2.7,1.7-5.3,3.3-7.6,5.6-2.4,2.4-4.4,1.7-6.1-.9-2.8-4.6-2.8-9.2,0-13.6,3-4.6,6.3-9,9.6-13.8Z"/>
      <path class="cls-2" d="M134,253c12.5-2.3,23.1,3.1,29.6,15,2.2,4,4.1,8.3,6.3,12.8,1,5.1,1.5,9.9,1.2,14.7-.2,2.4-.7,4.6-2.1,6.5-1.9,2.6-3.1,3-5.4-.2-3.7-5.1-5.8-10.6-7.5-16.6-2.8-10.2-10.6-17-17.7-24.2-1.2-1.2-3.3-1.7-5-2-2.2-.4-2.8-1.4-2.4-3.7,0-.3-.2-.4-.2-.3.4-.4,1-.5,1.8-.9.2-.2.2-.2.2-.2.3-.3.6-.5,1.1-.9Z"/>
      <path class="cls-1" d="M132,251.1c-.2.3-.7.7-1.5,1,.2-.3.7-.6,1.5-1Z"/>
      <path class="cls-1" d="M133.4,250.1c0,.1-.3.4-.9.8,0-.1.3-.4.9-.8Z"/>
    </g>
  </g>
</svg>