<?xml version="1.0" encoding="UTF-8"?>
<svg id="Layer_1" xmlns="http://www.w3.org/2000/svg" viewBox="0 0 1528 319">
  <defs>
    <style>
      .cls-1 {
        letter-spacing: 0em;
      }

      .cls-2 {
        font-size: 33.3539px;
      }

      .cls-2, .cls-3 {
        font-family: GillSansMT, 'Gill Sans MT';
      }

      .cls-4 {
        letter-spacing: .02em;
      }

      .cls-5 {
        stroke: #b3b3b3;
      }

      .cls-5, .cls-6, .cls-7, .cls-8 {
        fill: #fff;
      }

      .cls-5, .cls-7, .cls-8 {
        stroke-miterlimit: 10;
      }

      .cls-5, .cls-8 {
        stroke-width: .75px;
      }

      .cls-9 {
        letter-spacing: -.0249em;
      }

      .cls-10 {
        fill: #4d4d4d;
      }

      .cls-11 {
        letter-spacing: -.02em;
      }

      .cls-7 {
        stroke: #fff;
        stroke-width: 3px;
      }

      .cls-12 {
        opacity: .25;
      }

      .cls-13 {
        letter-spacing: -.0098em;
      }

      .cls-14 {
        fill: none;
      }

      .cls-15 {
        letter-spacing: -.0098em;
      }

      .cls-16 {
        letter-spacing: -.1001em;
      }

      .cls-17 {
        letter-spacing: 0em;
      }

      .cls-18 {
        fill: #666;
      }

      .cls-19 {
        letter-spacing: 0em;
      }

      .cls-20 {
        letter-spacing: -.0098em;
      }

      .cls-21 {
        letter-spacing: -.02em;
      }

      .cls-8 {
        stroke: #999;
      }

      .cls-3 {
        font-size: 38.9129px;
      }

      .cls-22 {
        opacity: .5;
      }
    </style>
  </defs>
  <g>
    <path class="cls-7" d="M194.8239,249.9396c-1.5904-.7501-3.9973-1.5865-6.5914-1.12-2.7028.4861-3.3798,1.9858-5.9322,2.8-2.9992.9566-4.5492-.3216-9.8871-1.12-7.3544-1.1-14.2112-.1391-15.1602,0-4.7282.6932-6.9084,1.771-9.2279.56-2.2954-1.1984-1.7371-3.0771-3.9548-3.9199-1.7953-.6823-2.9595.2455-9.2279,1.68-3.4711.7943-5.2066,1.1915-6.5914,1.12-2.05-.1058-4.2229-.8172-8.5688-2.24-2.9165-.9548-3.4605-1.2613-4.614-1.12-2.4854.3045-2.6053,2.0517-5.2731,2.8-2.0694.5804-2.9347-.208-7.2505-.56-3.9164-.3194-3.6224.2956-6.5914,0-3.7739-.3758-4.5265-1.3972-11.2053-2.8-2.5486-.5353-4.1118-.7379-5.2731,0-1.2991.8255-.8212,2.0183-1.8518,2.8771-1.8098,1.508-5.4901-.3319-10.6718-1.1971-6.7602-1.1287-6.5972.9842-14.501,0-5.8974-.7343-7.563-2.1068-11.2053-1.12-2.3179.628-3.2717,1.625-5.9322,1.68-2.2986.0475-3.1709-.6639-5.9322-1.12-1.6654-.2751-4.1052-.4717-7.2505,0,.3378-1.3386.8083-3.2679,1.3183-5.5999,1.5607-7.1365,2.3338-10.7707,1.9774-13.9998-.5892-5.3387-2.6872-4.6615-2.6365-8.9599.0609-5.1649,3.0943-6.5083,2.6365-11.7598-.3116-3.5753-1.7284-3.0769-1.9774-6.7199-.3531-5.1656,2.4556-6.7514,1.3183-11.1998-.6933-2.7117-1.8877-2.7118-1.9774-5.0399-.1178-3.0584,1.9015-4.1445,2.6365-7.2799.6992-2.9825-.6207-4.1635-1.3183-7.8399-1.1384-5.9993,1.416-7.9168,1.9774-15.1198.2263-2.9036.1633-7.1082-1.3183-12.3198,10.132,1.5818,18.1901,1.5004,23.7289,1.12,5.881-.4039,7.5408-1.0499,13.8419-1.12,8.1428-.0906,9.6006.9411,18.4558,1.12,10.4428.2109,9.7585-1.1968,16.4784-.56,10.6015,1.0046,11.1537,4.3991,19.115,3.9199,5.2684-.3171,5.7864-1.8494,14.501-2.8,5.057-.5516,4.4156.0153,10.5462-.56,8.8834-.8336,10.6861-2.0667,15.1602-1.12,3.817.8077,3.7419,1.967,7.2505,2.24,4.009.3119,5.1071-1.1239,9.8871-1.12,3.8316.0031,4.3836.9267,7.9096,1.12,2.6462.145,6.4429-.1501,11.2053-2.24-.4559,1.4077-1.0359,3.5341-1.3183,6.1599-.3708,3.4484.2016,3.7604,0,7.2799-.3411,5.9546-2.1083,7.3093-.6591,10.0798.3311.6331,1.3193,1.7287,3.2957,3.9199,2.0806,2.3068,3.2846,3.3519,3.2957,5.0399.0049.7468-.2261,1.2661-.6591,2.24-.8494,1.91-1.8876,2.8138-3.2957,4.4799-2.4278,2.8727-3.6417,4.309-3.2957,5.5999.4279,1.5963,2.4353,1.4419,3.9548,3.3599.3545.4475,1.177,1.632.6591,7.2799-.4273,4.6601-1.1305,5.4164-1.3183,9.5198-.1627,3.5573.356,3.203,0,5.0399-.963,4.9697-4.4326,5.876-3.9548,8.9599.3708,2.3933,2.5106,2.171,3.9548,5.5999.7525,1.7866.4228,2.4433.6591,7.2799.2011,4.1142.4579,4.0134.6591,7.8399.1106,2.1043.1928,5.1752,0,8.9599Z"/>
    <text class="cls-2" transform="translate(66.7949 203.9492) scale(1.0628 1)"><tspan class="cls-20" x="0" y="0">a</tspan><tspan x="13.9081" y="0">pple</tspan></text>
  </g>
  <g>
    <path class="cls-7" d="M357.8027,116.8263c-1.5904-.7501-3.9973-1.5865-6.5914-1.12-2.7028.4861-3.3798,1.9858-5.9322,2.8-2.9992.9566-4.5492-.3216-9.8871-1.12-7.3544-1.1-14.2112-.1391-15.1602,0-4.7282.6932-6.9084,1.771-9.2279.56-2.2954-1.1984-1.7371-3.0771-3.9548-3.9199-1.7953-.6823-2.9595.2455-9.2279,1.68-3.4711.7943-5.2066,1.1915-6.5914,1.12-2.05-.1058-4.2229-.8172-8.5688-2.24-2.9165-.9548-3.4605-1.2613-4.614-1.12-2.4854.3045-2.6053,2.0517-5.2731,2.8-2.0694.5804-2.9347-.208-7.2505-.56-3.9164-.3194-3.6224.2956-6.5914,0-3.7739-.3758-4.5265-1.3972-11.2053-2.8-2.5486-.5353-4.1118-.7379-5.2731,0-1.2991.8255-.8212,2.0183-1.8518,2.8771-1.8098,1.508-5.4901-.3319-10.6718-1.1971-6.7602-1.1287-6.5972.9842-14.501,0-5.8974-.7343-7.563-2.1068-11.2053-1.12-2.3179.628-3.2717,1.625-5.9322,1.68-2.2986.0475-3.1709-.6639-5.9322-1.12-1.6654-.2751-4.1052-.4717-7.2505,0,.3378-1.3386.8083-3.2679,1.3183-5.5999,1.5607-7.1365,2.3338-10.7707,1.9774-13.9998-.5892-5.3387-2.6872-4.6615-2.6365-8.9599.0609-5.1649,3.0943-6.5083,2.6365-11.7598-.3116-3.5753-1.7284-3.0769-1.9774-6.7199-.3531-5.1656,2.4556-6.7514,1.3183-11.1998-.6933-2.7117-1.8877-2.7118-1.9774-5.0399-.1178-3.0584,1.9015-4.1445,2.6365-7.2799.6992-2.9825-.6207-4.1635-1.3183-7.8399-1.1384-5.9993,1.416-7.9168,1.9774-15.1198.2263-2.9036.1633-7.1082-1.3183-12.3198,10.132,1.5818,18.1901,1.5004,23.7289,1.12,5.881-.4039,7.5408-1.0499,13.8419-1.12,8.1428-.0906,9.6006.9411,18.4558,1.12,10.4428.2109,9.7585-1.1968,16.4784-.56,10.6015,1.0046,11.1537,4.3991,19.115,3.9199,5.2684-.3171,5.7864-1.8494,14.501-2.8,5.057-.5516,4.4156.0153,10.5462-.56,8.8834-.8336,10.6861-2.0667,15.1602-1.12,3.817.8077,3.7419,1.967,7.2505,2.24,4.009.3119,5.1071-1.1239,9.8871-1.12,3.8316.0031,4.3836.9267,7.9096,1.12,2.6462.145,6.4429-.1501,11.2053-2.24-.4559,1.4077-1.0359,3.5341-1.3183,6.1599-.3708,3.4484.2016,3.7604,0,7.2799-.3411,5.9546-2.1083,7.3093-.6591,10.0798.3311.6331,1.3193,1.7287,3.2957,3.9199,2.0806,2.3068,3.2846,3.3519,3.2957,5.0399.0049.7468-.2261,1.2661-.6591,2.24-.8494,1.91-1.8876,2.8138-3.2957,4.4799-2.4278,2.8727-3.6417,4.309-3.2957,5.5999.4279,1.5963,2.4353,1.4419,3.9548,3.3599.3545.4475,1.177,1.632.6591,7.2799-.4273,4.6601-1.1305,5.4164-1.3183,9.5198-.1627,3.5573.356,3.203,0,5.0399-.963,4.9697-4.4326,5.876-3.9548,8.9599.3708,2.3933,2.5106,2.171,3.9548,5.5999.7525,1.7866.4228,2.4433.6591,7.2799.2011,4.1142.4579,4.0134.6591,7.8399.1106,2.1043.1928,5.1752,0,8.9599Z"/>
    <text class="cls-2" transform="translate(237.1855 70.8359) scale(1.0628 1)"><tspan x="0" y="0">t</tspan><tspan class="cls-11" x="11.1076" y="0">r</tspan><tspan x="23.6475" y="0">ee</tspan></text>
  </g>
  <g>
    <polygon class="cls-6" points="164.0663 235.9838 164.0663 296.5993 179.5314 279.2934 196.2963 307.8974 212.6708 299.917 196.2963 271.9406 221.8923 271.9406 164.0663 235.9838"/>
    <g id="cursor-click-svgrepo-com">
      <path class="cls-10" d="M184.0265,226.8867l14.0187-6.6092,2.2347,4.5964-14.8205,6.9914-1.4329-4.9785ZM185.0766,204.9699l-4.8781-1.6969-5.3178,14.8541,4.5108,2.7262,5.6851-15.8834ZM137.3872,248.8748l2.2347,4.5964,14.8205-6.9812-3.0365-4.2244-14.0187,6.6092ZM151.9853,208.0987l5.5971,11.5215,4.666-2.1963-5.5971-11.5215-4.666,2.1963ZM150.2161,229.7556l-15.0843-5.2384-1.7174,4.8053,16.1241,5.6053.6777-5.1722ZM228.7259,274.2569h-28.2081l15.6844,30.8241-20.3814,10.0947-16.0672-31.349-17.3087,23.3589v-80.5738l66.281,47.6451ZM192.0808,269.0592h20.728l-45.2426-32.521v54.9168l12.9375-17.4631,17.5518,34.2434,11.1477-5.5238-17.1224-33.6523Z"/>
      <path class="cls-14" d="M115.8884,197.8208h124.1507v122.2977h-124.1507v-122.2977Z"/>
    </g>
  </g>
  <g>
    <path class="cls-7" d="M929.9988,114.8224c-1.5904-.7501-3.9973-1.5865-6.5914-1.12-2.7028.4861-3.3798,1.9858-5.9322,2.8-2.9992.9566-4.5492-.3216-9.8871-1.12-7.3544-1.1-14.2112-.1391-15.1602,0-4.7282.6932-6.9084,1.771-9.2279.56-2.2954-1.1984-1.7371-3.0771-3.9548-3.9199-1.7953-.6823-2.9595.2455-9.2279,1.68-3.4711.7943-5.2066,1.1915-6.5914,1.12-2.05-.1058-4.2229-.8172-8.5688-2.24-2.9165-.9548-3.4605-1.2613-4.614-1.12-2.4854.3045-2.6053,2.0517-5.2731,2.8-2.0694.5804-2.9347-.208-7.2505-.56-3.9164-.3194-3.6224.2956-6.5914,0-3.7739-.3758-4.5265-1.3972-11.2053-2.8-2.5486-.5353-4.1118-.7379-5.2731,0-1.2991.8255-.8212,2.0183-1.8518,2.8771-1.8098,1.508-5.4901-.3319-10.6718-1.1971-6.7602-1.1287-6.5972.9842-14.501,0-5.8974-.7343-7.563-2.1068-11.2053-1.12-2.3179.628-3.2717,1.625-5.9322,1.68-2.2986.0475-3.1709-.6639-5.9322-1.12-1.6654-.2751-4.1052-.4717-7.2505,0,.3378-1.3386.8083-3.2679,1.3183-5.5999,1.5607-7.1365,2.3338-10.7707,1.9774-13.9998-.5892-5.3387-2.6872-4.6615-2.6365-8.9599.0609-5.1649,3.0943-6.5083,2.6365-11.7598-.3116-3.5753-1.7284-3.0769-1.9774-6.7199-.3531-5.1656,2.4556-6.7514,1.3183-11.1998-.6933-2.7117-1.8877-2.7118-1.9774-5.0399-.1178-3.0584,1.9015-4.1445,2.6365-7.2799.6992-2.9825-.6207-4.1635-1.3183-7.8399-1.1384-5.9993,1.416-7.9168,1.9774-15.1198.2263-2.9036.1633-7.1082-1.3183-12.3198,10.132,1.5818,18.1901,1.5004,23.7289,1.12,5.881-.4039,7.5408-1.0499,13.8419-1.12,8.1428-.0906,9.6006.9411,18.4558,1.12,10.4428.2109,9.7585-1.1968,16.4784-.56,10.6015,1.0046,11.1537,4.3991,19.115,3.9199,5.2684-.3171,5.7864-1.8494,14.501-2.8,5.057-.5516,4.4156.0153,10.5462-.56,8.8834-.8336,10.6861-2.0667,15.1602-1.12,3.817.8077,3.7419,1.967,7.2505,2.24,4.009.3119,5.1071-1.1239,9.8871-1.12,3.8316.0031,4.3836.9267,7.9096,1.12,2.6462.145,6.4429-.1501,11.2053-2.24-.4559,1.4077-1.0359,3.5341-1.3183,6.1599-.3708,3.4484.2016,3.7604,0,7.2799-.3411,5.9546-2.1083,7.3093-.6591,10.0798.3311.6331,1.3193,1.7287,3.2957,3.9199,2.0806,2.3068,3.2846,3.3519,3.2957,5.0399.0049.7468-.2261,1.2661-.6591,2.24-.8494,1.91-1.8876,2.8138-3.2957,4.4799-2.4278,2.8727-3.6417,4.309-3.2957,5.5999.4279,1.5963,2.4353,1.4419,3.9548,3.3599.3545.4475,1.177,1.632.6591,7.2799-.4273,4.6601-1.1305,5.4164-1.3183,9.5198-.1627,3.5573.356,3.203,0,5.0399-.963,4.9697-4.4326,5.876-3.9548,8.9599.3708,2.3933,2.5106,2.171,3.9548,5.5999.7525,1.7866.4228,2.4433.6591,7.2799.2011,4.1142.4579,4.0134.6591,7.8399.1106,2.1043.1928,5.1752,0,8.9599Z"/>
    <text class="cls-2" transform="translate(816.7939 66.9785) scale(1.0628 1)"><tspan x="0" y="0">t</tspan><tspan class="cls-11" x="11.1076" y="0">r</tspan><tspan x="23.6475" y="0">ee</tspan></text>
  </g>
  <g class="cls-22">
    <g>
      <path class="cls-8" d="M794.8149,216.4348c-1.5904-.7501-3.9973-1.5865-6.5914-1.12-2.7028.4861-3.3798,1.9858-5.9322,2.8-2.9992.9566-4.5492-.3216-9.8871-1.12-7.3544-1.1-14.2112-.1391-15.1602,0-4.7282.6932-6.9084,1.771-9.2279.56-2.2954-1.1984-1.7371-3.0771-3.9548-3.9199-1.7953-.6823-2.9595.2455-9.2279,1.68-3.4711.7943-5.2066,1.1915-6.5914,1.12-2.05-.1058-4.2229-.8172-8.5688-2.24-2.9165-.9548-3.4605-1.2613-4.614-1.12-2.4854.3045-2.6053,2.0517-5.2731,2.8-2.0694.5804-2.9347-.208-7.2505-.56-3.9164-.3194-3.6224.2956-6.5914,0-3.7739-.3758-4.5265-1.3972-11.2053-2.8-2.5486-.5353-4.1118-.7379-5.2731,0-1.2991.8255-.8212,2.0183-1.8518,2.8771-1.8098,1.508-5.4901-.3319-10.6718-1.1971-6.7602-1.1287-6.5972.9842-14.501,0-5.8974-.7343-7.563-2.1068-11.2053-1.12-2.3179.628-3.2717,1.625-5.9322,1.68-2.2986.0475-3.1709-.6639-5.9322-1.12-1.6654-.2751-4.1052-.4717-7.2505,0,.3378-1.3386.8083-3.2679,1.3183-5.5999,1.5607-7.1365,2.3338-10.7707,1.9774-13.9998-.5892-5.3387-2.6872-4.6615-2.6365-8.9599.0609-5.1649,3.0943-6.5083,2.6365-11.7598-.3116-3.5753-1.7284-3.0769-1.9774-6.7199-.3531-5.1656,2.4556-6.7514,1.3183-11.1998-.6933-2.7117-1.8877-2.7118-1.9774-5.0399-.1178-3.0584,1.9015-4.1445,2.6365-7.2799.6992-2.9825-.6207-4.1635-1.3183-7.8399-1.1384-5.9993,1.416-7.9168,1.9774-15.1198.2263-2.9036.1633-7.1082-1.3183-12.3198,10.132,1.5818,18.1901,1.5004,23.7289,1.12,5.881-.4039,7.5408-1.0499,13.8419-1.12,8.1428-.0906,9.6006.9411,18.4558,1.12,10.4428.2109,9.7585-1.1968,16.4784-.56,10.6015,1.0046,11.1537,4.3991,19.115,3.9199,5.2684-.3171,5.7864-1.8494,14.501-2.8,5.057-.5516,4.4156.0153,10.5462-.56,8.8834-.8336,10.6861-2.0667,15.1602-1.12,3.817.8077,3.7419,1.967,7.2505,2.24,4.009.3119,5.1071-1.1239,9.8871-1.12,3.8316.0031,4.3836.9267,7.9096,1.12,2.6462.145,6.4429-.1501,11.2053-2.24-.4559,1.4077-1.0359,3.5341-1.3183,6.1599-.3708,3.4484.2016,3.7604,0,7.2799-.3411,5.9546-2.1083,7.3093-.6591,10.0798.3311.6331,1.3193,1.7287,3.2957,3.9199,2.0806,2.3068,3.2846,3.3519,3.2957,5.0399.0049.7468-.2261,1.2661-.6591,2.24-.8494,1.91-1.8876,2.8138-3.2957,4.4799-2.4278,2.8727-3.6417,4.309-3.2957,5.5999.4279,1.5963,2.4353,1.4419,3.9548,3.3599.3545.4475,1.177,1.632.6591,7.2799-.4273,4.6601-1.1305,5.4164-1.3183,9.5198-.1627,3.5573.356,3.203,0,5.0399-.963,4.9697-4.4326,5.876-3.9548,8.9599.3708,2.3933,2.5106,2.171,3.9548,5.5999.7525,1.7866.4228,2.4433.6591,7.2799.2011,4.1142.4579,4.0134.6591,7.8399.1106,2.1043.1928,5.1752,0,8.9599Z"/>
      <text class="cls-2" transform="translate(672.3457 170.4443) scale(1.0628 1)"><tspan class="cls-15" x="0" y="0">a</tspan><tspan class="cls-1" x="13.9081" y="0">pple</tspan></text>
    </g>
    <g>
      <polygon class="cls-6" points="767.6849 180.5053 767.6849 243.2192 783.2448 226.2775 801.0276 255.4053 816.5876 249.1637 800.1126 218.0426 823.5599 218.0426 767.6849 180.5053"/>
      <g id="cursor-svgrepo-com">
        <path class="cls-18" d="M811.6695,246.3268l-10.6485,4.8542-16.7659-30.0926-12.3583,15.3464v-48.2602l43.2168,28.5791h-19.7949l16.3508,29.5732ZM830.1699,221.1869l-63.3132-41.87v70.8073l16.5287-20.5275,15.3477,27.5491,19.4688-8.8711-14.9821-27.0879h26.95Z"/>
        <path class="cls-14" d="M732.3169,163.0167h118.5917v107.4737h-118.5917v-107.4737Z"/>
      </g>
    </g>
  </g>
  <g class="cls-12">
    <g>
      <path class="cls-8" d="M750.8232,255.0206c-1.5904-.7501-3.9973-1.5865-6.5914-1.12-2.7028.4861-3.3798,1.9858-5.9322,2.8-2.9992.9566-4.5492-.3216-9.8871-1.12-7.3544-1.1-14.2112-.1391-15.1602,0-4.7282.6932-6.9084,1.771-9.2279.56-2.2954-1.1984-1.7371-3.0771-3.9548-3.9199-1.7953-.6823-2.9595.2455-9.2279,1.68-3.4711.7943-5.2066,1.1915-6.5914,1.12-2.05-.1058-4.2229-.8172-8.5688-2.24-2.9165-.9548-3.4605-1.2613-4.614-1.12-2.4854.3045-2.6053,2.0517-5.2731,2.8-2.0694.5804-2.9347-.208-7.2505-.56-3.9164-.3194-3.6224.2956-6.5914,0-3.7739-.3758-4.5265-1.3972-11.2053-2.8-2.5486-.5353-4.1118-.7379-5.2731,0-1.2991.8255-.8212,2.0183-1.8518,2.8771-1.8098,1.508-5.4901-.3319-10.6718-1.1971-6.7602-1.1287-6.5972.9842-14.501,0-5.8974-.7343-7.563-2.1068-11.2053-1.12-2.3179.628-3.2717,1.625-5.9322,1.68-2.2986.0475-3.1709-.6639-5.9322-1.12-1.6654-.2751-4.1052-.4717-7.2505,0,.3378-1.3386.8083-3.2679,1.3183-5.5999,1.5607-7.1365,2.3338-10.7707,1.9774-13.9998-.5892-5.3387-2.6872-4.6615-2.6365-8.9599.0609-5.1649,3.0943-6.5083,2.6365-11.7598-.3116-3.5753-1.7284-3.0769-1.9774-6.7199-.3531-5.1656,2.4556-6.7514,1.3183-11.1998-.6933-2.7117-1.8877-2.7118-1.9774-5.0399-.1178-3.0584,1.9015-4.1445,2.6365-7.2799.6992-2.9825-.6207-4.1635-1.3183-7.8399-1.1384-5.9993,1.416-7.9168,1.9774-15.1198.2263-2.9036.1633-7.1082-1.3183-12.3198,10.132,1.5818,18.1901,1.5004,23.7289,1.12,5.881-.4039,7.5408-1.0499,13.8419-1.12,8.1428-.0906,9.6006.9411,18.4558,1.12,10.4428.2109,9.7585-1.1968,16.4784-.56,10.6015,1.0046,11.1537,4.3991,19.115,3.9199,5.2684-.3171,5.7864-1.8494,14.501-2.8,5.057-.5516,4.4156.0153,10.5462-.56,8.8834-.8336,10.6861-2.0667,15.1602-1.12,3.817.8077,3.7419,1.967,7.2505,2.24,4.009.3119,5.1071-1.1239,9.8871-1.12,3.8316.0031,4.3836.9267,7.9096,1.12,2.6462.145,6.4429-.1501,11.2053-2.24-.4559,1.4077-1.0359,3.5341-1.3183,6.1599-.3708,3.4484.2016,3.7604,0,7.2799-.3411,5.9546-2.1083,7.3093-.6591,10.0798.3311.6331,1.3193,1.7287,3.2957,3.9199,2.0806,2.3068,3.2846,3.3519,3.2957,5.0399.0049.7468-.2261,1.2661-.6591,2.24-.8494,1.91-1.8876,2.8138-3.2957,4.4799-2.4278,2.8727-3.6417,4.309-3.2957,5.5999.4279,1.5963,2.4353,1.4419,3.9548,3.3599.3545.4475,1.177,1.632.6591,7.2799-.4273,4.6601-1.1305,5.4164-1.3183,9.5198-.1627,3.5573.356,3.203,0,5.0399-.963,4.9697-4.4326,5.876-3.9548,8.9599.3708,2.3933,2.5106,2.171,3.9548,5.5999.7525,1.7866.4228,2.4433.6591,7.2799.2011,4.1142.4579,4.0134.6591,7.8399.1106,2.1043.1928,5.1752,0,8.9599Z"/>
      <text class="cls-2" transform="translate(628.3535 205.3242) scale(1.0628 1)"><tspan class="cls-15" x="0" y="0">a</tspan><tspan class="cls-1" x="13.9081" y="0">pple</tspan></text>
    </g>
    <g>
      <polygon class="cls-6" points="719.9872 217.2381 719.9872 279.952 735.5471 263.0103 753.3299 292.1381 768.8899 285.8965 752.4149 254.7754 775.8622 254.7754 719.9872 217.2381"/>
      <g id="cursor-svgrepo-com-2" data-name="cursor-svgrepo-com">
        <path class="cls-18" d="M763.9718,283.0596l-10.6485,4.8542-16.7659-30.0926-12.3583,15.3464v-48.2602l43.2168,28.5791h-19.7949l16.3508,29.5732ZM782.4721,257.9197l-63.3132-41.87v70.8073l16.5287-20.5275,15.3477,27.5491,19.4688-8.8711-14.9821-27.0879h26.95Z"/>
        <path class="cls-14" d="M684.6192,199.7495h118.5917v107.4737h-118.5917v-107.4737Z"/>
      </g>
    </g>
  </g>
  <g>
    <g>
      <path class="cls-5" d="M854.7521,174.8584c-1.5904-.7501-3.9973-1.5865-6.5914-1.12-2.7028.4861-3.3798,1.9858-5.9322,2.8-2.9992.9566-4.5492-.3216-9.8871-1.12-7.3544-1.1-14.2112-.1391-15.1602,0-4.7282.6932-6.9084,1.771-9.2279.56-2.2954-1.1984-1.7371-3.0771-3.9548-3.9199-1.7953-.6823-2.9595.2455-9.2279,1.68-3.4711.7943-5.2066,1.1915-6.5914,1.12-2.05-.1058-4.2229-.8172-8.5688-2.24-2.9165-.9548-3.4605-1.2613-4.614-1.12-2.4854.3045-2.6053,2.0517-5.2731,2.8-2.0694.5804-2.9347-.208-7.2505-.56-3.9164-.3194-3.6224.2956-6.5914,0-3.7739-.3758-4.5265-1.3972-11.2053-2.8-2.5486-.5353-4.1118-.7379-5.2731,0-1.2991.8255-.8212,2.0183-1.8518,2.8771-1.8098,1.508-5.4901-.3319-10.6718-1.1971-6.7602-1.1287-6.5972.9842-14.501,0-5.8974-.7343-7.563-2.1068-11.2053-1.12-2.3179.628-3.2717,1.625-5.9322,1.68-2.2986.0475-3.1709-.6639-5.9322-1.12-1.6654-.2751-4.1052-.4717-7.2505,0,.3378-1.3386.8083-3.2679,1.3183-5.5999,1.5607-7.1365,2.3338-10.7707,1.9774-13.9998-.5892-5.3387-2.6872-4.6615-2.6365-8.9599.0609-5.1649,3.0943-6.5083,2.6365-11.7598-.3116-3.5753-1.7284-3.0769-1.9774-6.7199-.3531-5.1656,2.4556-6.7514,1.3183-11.1998-.6933-2.7117-1.8877-2.7118-1.9774-5.0399-.1178-3.0584,1.9015-4.1445,2.6365-7.2799.6992-2.9825-.6207-4.1635-1.3183-7.8399-1.1384-5.9993,1.416-7.9168,1.9774-15.1198.2263-2.9036.1633-7.1082-1.3183-12.3198,10.132,1.5818,18.1901,1.5004,23.7289,1.12,5.881-.4039,7.5408-1.0499,13.8419-1.12,8.1428-.0906,9.6006.9411,18.4558,1.12,10.4428.2109,9.7585-1.1968,16.4784-.56,10.6015,1.0046,11.1537,4.3991,19.115,3.9199,5.2684-.3171,5.7864-1.8494,14.501-2.8,5.057-.5516,4.4156.0153,10.5462-.56,8.8834-.8336,10.6861-2.0667,15.1602-1.12,3.817.8077,3.7419,1.967,7.2505,2.24,4.009.3119,5.1071-1.1239,9.8871-1.12,3.8316.0031,4.3836.9267,7.9096,1.12,2.6462.145,6.4429-.1501,11.2053-2.24-.4559,1.4077-1.0359,3.5341-1.3183,6.1599-.3708,3.4484.2016,3.7604,0,7.2799-.3411,5.9546-2.1083,7.3093-.6591,10.0798.3311.6331,1.3193,1.7287,3.2957,3.9199,2.0806,2.3068,3.2846,3.3519,3.2957,5.0399.0049.7468-.2261,1.2661-.6591,2.24-.8494,1.91-1.8876,2.8138-3.2957,4.4799-2.4278,2.8727-3.6417,4.309-3.2957,5.5999.4279,1.5963,2.4353,1.4419,3.9548,3.3599.3545.4475,1.177,1.632.6591,7.2799-.4273,4.6601-1.1305,5.4164-1.3183,9.5198-.1627,3.5573.356,3.203,0,5.0399-.963,4.9697-4.4326,5.876-3.9548,8.9599.3708,2.3933,2.5106,2.171,3.9548,5.5999.7525,1.7866.4228,2.4433.6591,7.2799.2011,4.1142.4579,4.0134.6591,7.8399.1106,2.1043.1928,5.1752,0,8.9599Z"/>
      <text class="cls-2" transform="translate(728.5762 127.0146) scale(1.0628 1)"><tspan class="cls-15" x="0" y="0">a</tspan><tspan class="cls-1" x="13.9081" y="0">pple</tspan></text>
    </g>
    <g>
      <polygon class="cls-6" points="827.6221 138.9289 827.6221 201.6428 843.182 184.7011 860.9648 213.8289 876.5247 207.5873 860.0498 176.4662 883.497 176.4662 827.6221 138.9289"/>
      <g id="cursor-svgrepo-com-3" data-name="cursor-svgrepo-com">
        <path class="cls-18" d="M871.6067,204.7504l-10.6485,4.8542-16.7659-30.0926-12.3583,15.3464v-48.2602l43.2168,28.5791h-19.7949l16.3508,29.5732ZM890.107,179.6105l-63.3132-41.87v70.8073l16.5287-20.5275,15.3477,27.5491,19.4688-8.8711-14.9821-27.0879h26.95Z"/>
        <path class="cls-14" d="M792.254,121.4403h118.5917v107.4737h-118.5917v-107.4737Z"/>
      </g>
    </g>
  </g>
  <g>
    <path class="cls-7" d="M1502.1559,244.1025c-3.0002-1.5039-7.541-3.181-12.4346-2.2456-5.0988.9746-6.376,3.9817-11.1911,5.6141-5.658,1.9181-8.5821-.6449-18.6519-2.2456-13.8741-2.2055-26.8094-.279-28.5995,0-8.9197,1.39-13.0326,3.551-17.4084,1.1228-4.3303-2.4029-3.277-6.1699-7.4607-7.8597-3.3868-1.368-5.583.4923-17.4084,3.3685-6.5482,1.5927-9.8223,2.389-12.4346,2.2456-3.8673-.2122-7.9665-1.6386-16.1649-4.4913-5.5019-1.9144-6.5282-2.529-8.7042-2.2456-4.6888.6105-4.9148,4.1138-9.9477,5.6141-3.9039,1.1637-5.5362-.417-13.678-1.1228-7.3883-.6405-6.8336.5927-12.4346,0-7.1195-.7534-8.5391-2.8014-21.1388-5.6141-4.8078-1.0733-7.7568-1.4795-9.9477,0-2.4508,1.6551-1.5492,4.0469-3.4934,5.7688-3.4141,3.0236-10.357-.6655-20.1323-2.4003-12.753-2.2632-12.4456,1.9733-27.3561,0-11.1254-1.4724-14.2676-4.2242-21.1388-2.2456-4.3727,1.2591-6.1721,3.2582-11.1911,3.3685-4.3362.0953-5.9819-1.3312-11.1911-2.2456-3.1417-.5515-7.7445-.9458-13.678,0,.6373-2.6839,1.5248-6.5524,2.4869-11.2282,2.9443-14.3092,4.4027-21.596,3.7304-28.0705-1.1116-10.7044-5.0694-9.3465-4.9738-17.9651.1149-10.3559,5.8373-13.0495,4.9738-23.5792-.5878-7.1686-3.2606-6.1694-3.7304-13.4738-.6661-10.3574,4.6325-13.537,2.4869-22.4564-1.3079-5.4372-3.5612-5.4373-3.7304-10.1054-.2223-6.1322,3.5871-8.31,4.9738-14.5966,1.3191-5.9802-1.1709-8.3481-2.4869-15.7195-2.1476-12.0291,2.6712-15.8737,3.7304-30.3161.4269-5.8219.308-14.2524-2.4869-24.702,19.114,3.1717,34.3154,3.0083,44.7645,2.2456,11.0945-.8098,14.2256-2.105,26.1126-2.2456,15.3614-.1817,18.1114,1.887,34.8168,2.2456,19.7003.4229,18.4094-2.3996,31.0864-1.1228,19.9996,2.0142,21.0414,8.8205,36.0603,7.8597,9.9389-.6358,10.9159-3.7081,27.3561-5.6141,9.54-1.106,8.33.0307,19.8953-1.1228,16.7584-1.6714,20.1593-4.1439,28.5995-2.2456,7.2007,1.6195,7.0591,3.944,13.678,4.4913,7.5629.6253,9.6346-2.2535,18.6519-2.2456,7.2284.0063,8.2696,1.8582,14.9215,2.2456,4.9921.2908,12.1545-.3009,21.1388-4.4913-.8601,2.8226-1.9542,7.0861-2.4869,12.351-.6995,6.9142.3803,7.5398,0,14.5966-.6434,11.9394-3.9773,14.6556-1.2435,20.2107.6247,1.2693,2.4889,3.4661,6.2173,7.8597,3.925,4.6252,6.1964,6.7207,6.2173,10.1054.0092,1.4974-.4265,2.5386-1.2435,4.4913-1.6024,3.8297-3.5609,5.6418-6.2173,8.9825-4.58,5.7599-6.87,8.6398-6.2173,11.2282.8071,3.2007,4.5942,2.8912,7.4607,6.7369.6688.8972,2.2204,3.2723,1.2435,14.5966-.8061,9.3437-2.1327,10.8602-2.4869,19.0879-.307,7.1326.6715,6.4221,0,10.1054-1.8167,9.9647-8.3621,11.7818-7.4607,17.9651.6994,4.7987,4.7362,4.3529,7.4607,11.2282,1.4196,3.5823.7976,4.899,1.2435,14.5966.3793,8.2492.8639,8.0471,1.2435,15.7195.2087,4.2193.3638,10.3765,0,17.9651Z"/>
    <text class="cls-3" transform="translate(1229.8018 122.2314)"><tspan x="0" y="0">An </tspan><tspan class="cls-13" x="56.2227" y="0">a</tspan><tspan class="cls-17" x="72.4482" y="0">pple </tspan><tspan class="cls-13" x="149.3438" y="0">f</tspan><tspan x="158.6914" y="0">ell</tspan><tspan x="0" y="46.6953">f</tspan><tspan class="cls-9" x="9.7285" y="46.6953">r</tspan><tspan class="cls-19" x="24.1689" y="46.6953">om the t</tspan><tspan class="cls-21" x="161.2754" y="46.6953">r</tspan><tspan x="175.9062" y="46.6953">e</tspan><tspan class="cls-4" x="194.5459" y="46.6953">e</tspan><tspan class="cls-16" x="213.9639" y="46.6953">.</tspan></text>
  </g>
  <path class="cls-7" d="M489.5741,164.0311l-.1026-2.9546c-.1367-3.9394-.2735-7.8789-.4102-11.8183-45.9783,3.165-81.0253,1.4823-82.7685-4.7387-.2079-.7421-.7813-4.544-.895-8.9241-.0966-3.7221.1583-7.1024.3139-7.8185,1.3277-6.1124,36.0599-5.2603,81.6107.7651-.1367-3.9394-.2735-7.8789-.4102-11.8183l-.2051-5.9092c.4751.1499,1.646.5269,3.0972,1.0874,5.001,1.9318,12.721,5.8082,32.4711,24.6964,1.4722,1.4079,2.6293,2.5341,3.1655,3.0571-.5414.5333-1.6032,1.5727-2.9604,2.852-9.525,8.9788-17.9385,16.7593-29.8776,20.6414-1.4345.4664-2.594.7706-3.0288.8823Z"/>
  <path class="cls-7" d="M1096.6365,160.2184l-.1026-2.9546-.4102-11.8183c-45.9783,3.165-81.0253,1.4823-82.7685-4.7387-.2079-.7421-.7813-4.544-.895-8.9241-.0966-3.7221.1583-7.1024.3139-7.8185,1.3277-6.1124,36.0599-5.2603,81.6107.7651l-.4102-11.8183-.2051-5.9092c.4751.1499,1.646.5269,3.0972,1.0874,5.001,1.9318,12.721,5.8082,32.4711,24.6964,1.4722,1.4079,2.6293,2.5341,3.1655,3.0571-.5414.5333-1.6032,1.5727-2.9604,2.852-9.525,8.9788-17.9385,16.7593-29.8776,20.6414-1.4345.4664-2.594.7706-3.0288.8823Z"/>
</svg>