<?xml version="1.0" encoding="UTF-8"?>
<svg id="Layer_1" xmlns="http://www.w3.org/2000/svg" viewBox="0 0 958 287">
  <defs>
    <style>
      .cls-1 {
        stroke-width: .8333px;
      }

      .cls-1, .cls-2, .cls-3, .cls-4, .cls-5, .cls-6, .cls-7, .cls-8, .cls-9, .cls-10 {
        fill: none;
      }

      .cls-1, .cls-2, .cls-3, .cls-5, .cls-6, .cls-7, .cls-8, .cls-9, .cls-10 {
        stroke: #000;
        stroke-linecap: round;
        stroke-linejoin: round;
      }

      .cls-2 {
        stroke-width: .2778px;
      }

      .cls-3 {
        stroke-width: .6481px;
      }

      .cls-11 {
        fill: #4d4d4d;
      }

      .cls-12, .cls-13 {
        fill: #fff;
      }

      .cls-13 {
        stroke: #fff;
        stroke-miterlimit: 10;
        stroke-width: 3px;
      }

      .cls-5 {
        stroke-width: 1.2037px;
      }

      .cls-14 {
        letter-spacing: -.02em;
      }

      .cls-15 {
        font-family: GillSansMT, 'Gill Sans MT';
        font-size: 34.4953px;
      }

      .cls-6 {
        stroke-width: 1.5741px;
      }

      .cls-16 {
        letter-spacing: -.0098em;
      }

      .cls-17 {
        letter-spacing: 0em;
      }

      .cls-7 {
        stroke-width: 1.0185px;
      }

      .cls-8 {
        stroke-width: .5556px;
      }

      .cls-18 {
        font-family: CourierNewPS-BoldMT, 'Courier New';
        font-size: 30.3751px;
        font-weight: 700;
      }

      .cls-9 {
        stroke-width: .9259px;
      }

      .cls-10 {
        stroke-width: .7407px;
      }
    </style>
  </defs>
  <g>
    <path class="cls-13" d="M347.1941,246.3772c-3.0251-1.5291-7.6036-3.2344-12.5378-2.2833-5.1411.991-6.4289,4.0485-11.284,5.7082-5.705,1.9502-8.6533-.6557-18.8067-2.2833-13.9892-2.2425-27.0319-.2836-28.8369,0-8.9937,1.4132-13.1408,3.6105-17.5529,1.1416-4.3663-2.4432-3.3042-6.2733-7.5227-7.9915-3.4149-1.3909-5.6294.5005-17.5529,3.4249-6.6025,1.6193-9.9038,2.429-12.5378,2.2833-3.8994-.2158-8.0326-1.666-16.2991-4.5665-5.5476-1.9465-6.5824-2.5713-8.7764-2.2833-4.7277.6207-4.9556,4.1828-10.0302,5.7082-3.9363,1.1833-5.5822-.424-13.7916-1.1416-7.4496-.6512-6.8903.6026-12.5378,0-7.1786-.766-8.61-2.8484-21.3142-5.7082-4.8478-1.0913-7.8212-1.5043-10.0302,0-2.4712,1.6829-1.5621,4.1147-3.5224,5.8655-3.4425,3.0743-10.4429-.6767-20.2994-2.4405-12.8589-2.3011-12.5489,2.0064-27.5831,0-11.2178-1.4971-14.386-4.295-21.3142-2.2833-4.409,1.2802-6.2233,3.3128-11.284,3.4249-4.3722.0969-6.0316-1.3535-11.284-2.2833-3.1678-.5608-7.8088-.9616-13.7916,0,.6426-2.7289,1.5375-6.6622,2.5076-11.4164,2.9687-14.549,4.4392-21.9579,3.7613-28.5409-1.1208-10.8838-5.1115-9.5032-5.0151-18.2662.1158-10.5295,5.8857-13.2683,5.0151-23.9744-.5927-7.2888-3.2877-6.2728-3.7613-13.6996-.6716-10.531,4.671-13.7639,2.5076-22.8327-1.3188-5.5283-3.5907-5.5284-3.7613-10.2747-.2241-6.235,3.6169-8.4493,5.0151-14.8413,1.3301-6.0804-1.1806-8.488-2.5076-15.9829-2.1654-12.2307,2.6934-16.1397,3.7613-30.8242.4305-5.9194.3105-14.4912-2.5076-25.116,19.2726,3.2248,34.6002,3.0587,45.136,2.2833,11.1866-.8234,14.3436-2.1403,26.3293-2.2833,15.4889-.1847,18.2617,1.9186,35.1058,2.2833,19.8638.43,18.5622-2.4398,31.3444-1.1416,20.1656,2.048,21.216,8.9683,36.3596,7.9915,10.0213-.6465,11.0065-3.7703,27.5831-5.7082,9.6192-1.1246,8.3992.0312,20.0604-1.1416,16.8975-1.6995,20.3266-4.2134,28.8369-2.2833,7.2605,1.6467,7.1177,4.0101,13.7916,4.5665,7.6257.6358,9.7146-2.2912,18.8067-2.2833,7.2883.0064,8.3383,1.8893,15.0453,2.2833,5.0336.2957,12.2554-.3059,21.3142-4.5665-.8673,2.8699-1.9704,7.2049-2.5076,12.558-.7053,7.0301.3835,7.6662,0,14.8413-.6488,12.1395-4.0103,14.9013-1.2538,20.5495.6299,1.2906,2.5095,3.5242,6.2689,7.9915,3.9575,4.7028,6.2478,6.8334,6.2689,10.2747.0093,1.5225-.43,2.5811-1.2538,4.5665-1.6157,3.8939-3.5905,5.7364-6.2689,9.1331-4.618,5.8564-6.927,8.7846-6.2689,11.4164.8138,3.2544,4.6323,2.9396,7.5227,6.8498.6743.9122,2.2388,3.3271,1.2538,14.8413-.8128,9.5003-2.1504,11.0422-2.5076,19.4078-.3095,7.2521.6771,6.5298,0,10.2747-1.8318,10.1317-8.4315,11.9793-7.5227,18.2662.7052,4.8791,4.7755,4.4259,7.5227,11.4164,1.4314,3.6423.8042,4.9811,1.2538,14.8413.3825,8.3875.8711,8.182,1.2538,15.9829.2104,4.29.3668,10.5505,0,18.2662Z"/>
    <text class="cls-18" transform="translate(57.5498 78.9824)"><tspan x="0" y="0">The apple fell</tspan><tspan x="0" y="36.4502">from the tree.</tspan></text>
  </g>
  <g>
    <path class="cls-3" d="M298.9967,220.7692c.5779.021,1.1544-.0148,1.7316-.0403.3513-.0156.7009-.044,1.0512-.0706.3846-.0291.5029-.1692.5175-.594.0383-1.1141.0651-2.2284.082-3.3432.0103-.6825.055-1.3646.056-2.0469.0012-.8496.0354-1.6985.058-2.5467.0186-.6973.0153-1.3955.0454-2.0929.0362-.8407.0422-1.6829.0663-2.5242.0239-.834.0617-1.6676.0792-2.5018.0128-.6132-.0283-.649-.5746-.7054-.8515-.0879-1.7033-.1028-2.5559-.0228-.0756.0071-.1551-.0324-.2267.0232"/>
    <path class="cls-10" d="M304.8298,220.4963c.0429-.1328.1597-.1134.2479-.1334.4874-.1102.9723-.2314,1.441-.4164.1343-.0531.2696-.1083.3955-.1963.2726-.1906.3537-.4556.3754-.7999.0602-.9547.0239-1.9136.1166-2.8661.0015-.015-.0001-.0303.0002-.0455.0137-.5989.0144-1.1986.0441-1.7965.0482-.9699.0604-1.9407.0901-2.9108.0121-.3939-.0077-.7923.0373-1.1821.0475-.411.0095-.8206.0367-1.2289.0569-.8558.0695-1.7126.0848-2.57.012-.6752.0687-1.3493.0964-2.0243.0115-.2805-.0864-.4087-.3278-.429-.3478-.0293-.6896.0461-1.0302.1119-.4473.0864-.8928.1842-1.3405.2684-.0739.0139-.1217.1047-.2056.0716"/>
    <path class="cls-1" d="M293.4727,219.9505c.6734.1511,1.3534.238,2.0406.2492.3169.0052.4053-.0924.4553-.4308.0714-.4829.0723-.9723.0736-1.4559.0118-4.5106.0065-9.0212.0081-13.5318.0001-.2977-.0193-.3376-.3089-.4157-.5372-.1449-1.0811-.1956-1.6297-.2221-.1858-.0089-.3711-.0293-.5566-.0445"/>
    <path class="cls-3" d="M309.5912,198.7317c.119.256.0589.53.0589.796,0,.2502-.0429.5011-.0343.7503.0161.4721-.0338.9402-.0494,1.41-.0247.7436-.0587,1.487-.1112,2.2297-.0218.3088-.0438.6202-.0547.9315-.0246.7057-.0825,1.41-.116,2.1154-.0151.3182-.0284.6378-.0345.9553-.0081.4253-.0337.8501-.0588,1.2728-.0374.6293-.0587,1.2599-.1067,1.889-.042.5512-.061,1.1062-.089,1.6595-.0357.7045-.0514,1.4103-.0863,2.1148-.0245.4933-.0631.986-.1031,1.4782-.0143.1753.0241.3234.1257.455"/>
    <path class="cls-8" d="M303.4901,204.1899c.0275.8271-.0323,1.6526-.0483,2.4788-.0202,1.0461-.0539,2.0923-.0834,3.1384-.0203.7205-.0107,1.4412-.0373,2.1606-.04,1.0839-.0606,2.1679-.0842,3.2522-.0219,1.0083-.0589,2.0163-.0804,3.0248-.0132.6216-.067,1.2421-.0591,1.865.0008.0605-.0127.1213-.0196.1819"/>
    <path class="cls-8" d="M296.8943,204.3718c.0451.439.015.8795.0145,1.3191,0,.0718-.0129.1521-.0131.2274-.002,1.2433.0012,2.4865-.0021,3.7298-.0042,1.6223.0015,3.2449-.0252,4.8668-.017,1.0313-.0023,2.0622-.0157,3.0931-.0118.9097-.0271,1.8194-.0408,2.7291"/>
    <path class="cls-6" d="M310.2714,216.9257c-.3805-.3232-.8025-.3084-1.2364-.1807-.1016.0299-.1435.121-.19.2239-.1375.3042-.174.6279-.1793.9576-.0062.389-.0868.7698-.0926,1.1597-.0015.0995-.0214.213.0133.2931.151.3487.0334.6813-.0546,1.0006-.0824.2992-.3351.4568-.568.6184-.5539.3845-1.1747.5719-1.793.7758-.5357.1767-1.0807.3032-1.6304.3988-.3476.0605-.7009.0868-1.0505.1415-.9364.1465-1.88.1954-2.8235.1766-.7491-.0149-1.4996.0251-2.2463-.0257-.5635-.0384-1.1284-.0749-1.6916-.1405-.5007-.0583-.9967-.1789-1.5038-.1684-.0343.0007-.0783.0155-.1016-.0022-.3109-.2363-.698-.3346-.9534-.6765-.1851-.2477-.4795-.1972-.5906.0891-.0794.2045-.222.3287-.373.4553-.0672.0563-.1381.052-.2072.0414-.2617-.0402-.5222-.0908-.7836-.1333-.0978-.0159-.1757-.0678-.2472-.1375"/>
    <path class="cls-3" d="M308.7873,203.3711c.0583.3805-.0128.7582-.0226,1.1371-.0121.4627-.0365.9251-.0604,1.3873-.0415.8036-.0618,1.6081-.1166,2.4113-.0237.3469-.0294.697-.0459,1.0457-.0334.7047-.0438,1.4109-.0883,2.1146-.036.5684-.0628,1.1364-.0822,1.7059-.0344,1.0088-.08,2.0176-.1456,3.0245-.0335.5155-.0667,1.0318-.109,1.5458-.0312.3802.0034.7614-.0508,1.1382"/>
    <path class="cls-1" d="M308.4987,193.0687c.0344.0379.0655.0805.1036.113.2375.2024.2918.4268.1632.7051-.0229.0494-.0743.0547-.1216.0719-.6823.248-1.3792.4313-2.0825.5894-.5591.1257-1.1244.199-1.6901.2739-.4408.0583-.8784.1482-1.3197.1988-.4243.0486-.8512.0795-1.2776.0916-.7074.0199-1.4167-.0102-2.1226.0334-.8901.0549-1.7731-.0505-2.6592-.08-.159-.0053-.3196-.0268-.4784-.0978-.1014-.0454-.2452.0085-.3664.0365-.1979.0458-.3958.0748-.5982.0664-.1434-.0059-.2764.046-.3687.1609-.2597.3236-.6107.4793-.951.656-.0744.0387-.1058.0877-.1277.1819-.1285.5514-.3522,1.058-.6093,1.5506-.0952.1823-.1911.1992-.3561.1375-.3342-.125-.6447-.3074-.9659-.463-.2928-.1419-.5759-.2823-.9087-.2739-.2748.0069-.4241-.259-.3934-.6089.0437-.499.082-1.0014.0175-1.5-.0319-.2471-.0511-.4836.0018-.7294.034-.1579-.0246-.3175-.0379-.4768-.0109-.1307-.1128-.1129-.1859-.1352-.1952-.0597-.4036.0155-.5977-.0687-.0865-.0375-.1799-.057-.2472-.1371-.3532-.4208-.7685-.3611-1.1949-.1808-.2748.1162-.4858.3342-.678.5699-.1002.1229-.1477.2525-.1178.4545.0664.4478.07.9073.0936,1.3624.0185.356.0209.7132.0449,1.0686.0157.2323.1407.43.2034.6484"/>
    <path class="cls-3" d="M305.6749,190.135c-.0344-.0682-.0803-.1325-.1007-.2055-.0434-.156-.0459-.3025.0781-.4335.1903-.201.2735-.479.2546-.747-.0114-.1617-.0377-.3157-.0067-.4792.073-.3856.138-.7731.2077-1.1595.1162-.6445.2353-1.2884.3473-1.9338.0109-.063.0218-.1362-.0165-.2048-.1596-.2862-.0672-.5953.0112-.859.1338-.45.0645-.8983.0901-1.3463.0146-.2563-.1635-.338-.3288-.4329-.1882-.1081-.3904-.1589-.5983-.1789-.1607-.0154-.2391.1145-.3091.248-.1491.2842-.2506.5909-.3059.9104-.0874.505-.2625.9815-.3718,1.4782-.0877.3985-.1354.8084-.2329,1.2036-.2102.852-.3985,1.7064-.4291,2.5938"/>
    <path class="cls-1" d="M291.3497,211.7859c.135-.1901.1235-.415.1236-.6368.0003-.8415.0169-1.6835-.0048-2.5243-.0204-.7887.009-1.5777-.0202-2.3652-.0244-.6596-.0137-1.3208-.0728-1.9794-.0115-.128-.0584-.1788-.1487-.2285-.2291-.1262-.4781-.1778-.7222-.2483-.2402-.0693-.4798-.142-.722-.2016-.0713-.0175-.1505.0043-.2261.0081"/>
    <path class="cls-1" d="M318.9077,214.5832c-.1711-.2851-.4571-.3348-.7211-.4331-.4467-.1664-.8767-.3808-1.338-.5083-.2995-.0828-.5794.0153-.8677.0179-.2599.0023-.5224.039-.7829.065-.8165.0813-1.6369.0508-2.4536.1265-.3622.0336-.7279.0201-1.0921.0269-.2397.0045-.3695.093-.43.3422-.0849.3495-.2182.6888-.1733,1.0689.0146.1238-.0112.27-.0609.3834-.1492.3402-.1365.6912-.0985,1.0486"/>
    <path class="cls-8" d="M292.236,204.1899c0,1.4025-.0134,2.8051.0054,4.2073.0101.7506-.0056,1.5016.02,2.2514.0145.425.0058.8493.0164,1.2738.0046.1813-.0242.3548-.0831.5231"/>
    <path class="cls-10" d="M280.3224,221.0649c.2611.0152.5221.0339.7833.0438.1121.0042.2067-.0545.2667-.1584.1209-.2094.243-.4188.3494-.6372.1169-.24.2422-.3266.4763-.2945.3595.0492.6718.1829.8452.5687.0555.1234.1333.2355.2295.3142.1602.1311.1808.3169.2018.5047.0329.2943.1407.386.3923.2928.2101-.0779.4128-.1801.6192-.27.2476-.1079.364-.0753.4705.1835.1487.3613.392.6401.6236.929.2582.3222.5716.3813.948.2579.5863-.1923,1.1663-.3946,1.71-.7092.0414-.024.0877-.0266.1446-.0057.5752.2111,1.1481.433,1.7317.612.5123.1572,1.0294.3007,1.5647.3513.4602.0434.9172.1261,1.3813.1097.4603-.0162.9208-.0261,1.3809-.0474.2741-.0127.4039-.2209.4959-.4754.0557-.1543.1226-.3037.1844-.4553"/>
    <path class="cls-10" d="M317.1145,217.9037c.1947-.0687.3813-.0039.5551.0722.4736.2074.987.2837,1.4442.5419.3417-.0697.5763.215.8647.3215.3544.1309.703.2813,1.0518.4301.2998.1279.352.2206.3504.5902-.0013.3071-.0546.6014-.2065.8637-.2477.4277-.4099.4951-.8652.3887-.17-.0397-.3427-.0668-.5151-.0912-.1851-.0262-.35-.081-.4976-.2248-.2078-.2024-.351-.1796-.5328.0416-.0926.1127-.1866.32-.2422.5266-.2778.212-.5407.0526-.8094-.0013-.5107-.1024-1.0084-.2691-1.5244-.3478-.4403-.0671-.8683.0046-1.2759.1496-.6502.2312-1.2749.1288-1.8981-.0799-.7339-.2457-1.4468-.5615-2.1844-.7977-.4941-.1581-.9794-.3514-1.4635-.5449-.2214-.0885-.4398-.0466-.6608-.0419"/>
    <path class="cls-10" d="M303.0366,189.339c.1987.3079.1743.6764.2257,1.0236.0907.6113.228,1.2009.5765,1.7068.0972.1412.1907.1681.354.121.2788-.0804.5562-.1678.8192-.2899.1549-.0719.2844-.0653.4142.011.3266.192.6653.3394,1.0317.4076.2664.0496.5382-.0017.8049.0629.0884.0214.1291-.096.183-.1564.3972-.4449.8326-.8322,1.3434-1.1273.1746.1357.2088.3348.223.5379.0155.2208-.0062.441-.0394.6594-.0169.1111-.0602.2092-.1242.2953-.1111.1495-.2567.2611-.3565.4277-.0517.0862-.1817.0853-.2821.0945-.1595.0147-.3147.0411-.4535.1375-.0897.0624-.1907.0556-.2882.0429-.0565-.0073-.1155-.0516-.1643.0037-.2169.2456-.5139.2348-.7849.2904-.5178.1062-1.0402.1851-1.5658.2312-.4602.0403-.921.0716-1.3809.1153-.6727.0639-1.3503.0429-2.0207.1531-.1534.0252-.3168.0257-.4734-.0178"/>
    <path class="cls-10" d="M320.2269,214.7652c-.4122-.0531-.8244-.1065-1.2367-.1588-.0642-.0081-.1115.0194-.1679.0631-.1336.1034-.2874.1116-.4511.0771-.1616-.034-.3289-.0383-.494-.0486-.1922-.0119-.3847-.0193-.5771-.0218-.0543-.0007-.1091-.017-.1658.0189-.2042.1291-.3856.0504-.5788-.0608-.1899-.1093-.3995-.186-.5999-.2634-.198-.0765-.4351-.0405-.6548-.036-.8933.0184-1.7869.0295-2.6793.0722-.4685.0224-.9346.0607-1.4018-.0058"/>
    <path class="cls-10" d="M288.5877,204.3718c.2368.2309.2455.5547.288.8643.0103.0752.0105.1522.0219.2272.0255.1667.1068.2712.267.2968.3784.0606.6564.3303.946.5709.0495.0411.0328.1247.028.2017-.0366.5931-.2601,1.1282-.4211,1.6813-.1474.5065-.326,1.002-.491,1.5023-.0512.1553-.0742.3135-.0361.4787.2368.0718.4539-.0344.6752-.1144.5297-.1916.6444-.131.9027.502.0876.2146.1285.4526.1894.6803.0563.2103.132.4101.3314.4962.079.0341.1054.1065.1394.1657.1583.2754.4032.4173.6657.5114.0965.0346.1835.0739.242.1482.5433.6902,1.2261,1.1721,1.9385,1.6154.2431.1512.4714.335.6599.5667.1243.1529.2222.3303.1428.5433-.0824.2209-.3568.3689-.5745.344-.1298-.0149-.261.0073-.392-.0212-.0777-.0169-.1414.0226-.1867.1095-.2122.4076-.5363.4255-.9062.3241-.1721-.0472-.3527-.0859-.5353-.0292-.0884.0275-.1554-.0435-.2264-.0888-.1828-.1166-.3762-.1608-.5757-.0655-.0695.0332-.1334.0265-.1852-.006-.1976-.1242-.4054-.1268-.6199-.088"/>
    <path class="cls-10" d="M316.4549,217.4261c-.3026.26-.6515.4496-.9294.7484-.0641.0689-.1485.0832-.2463.0505-.3429-.1147-.698-.0904-1.0504-.0957-.0502-.0008-.0911.0187-.1225.0488-.3296.3153-.6387.6539-.8641,1.0693-.13.2396-.2982.3176-.5389.2493-.9087-.2578-1.8348-.4426-2.7215-.7941-.151-.0598-.2664-.1986-.4319-.2189"/>
    <path class="cls-1" d="M281.8683,217.608c-.1649.2274-.3253.459-.4957.6813-.2459.3208-.3647.7165-.4827,1.0968-.1501.4838-.4608.5938-.856.6105-.2887.0122-.5771.0318-.8658.0437-.0924.0038-.1679.0374-.2265.115-.0968.1283-.2062.2482-.2853.3888-.1027.1825-.2435.3005-.4156.3843"/>
    <path class="cls-10" d="M300.0273,185.8366c.2466-.2297.5472-.2431.8046-.0467.2108.1608.3749.3747.5558.5698.0688.0742.1337.1687.2468.1123.1119-.0558.1565-.1614.1445-.2942-.0202-.2234.0951-.4189.1065-.6366.0024-.0469.0548-.0698.0987-.0941.1652-.0913.3397-.0928.5166-.0882.1243.0032.172.1035.2281.2039.1881.3363.2539.7166.3268,1.093.1044.5394.0619,1.0919.1041,1.6371.0041.0527-.0187.1203.0036.1569.1854.3048.0034.5447-.1058.7984-.0092.0215-.01.0622-.0215.0656-.2782.0811-.4346.393-.7398.4459-.1941.0336-.3101.2663-.385.4477-.2314.5601-.6345.9673-.9779,1.4278-.1231.1651-.1707.3779-.3187.5356-.0696.0742.0112.2652.0519.3976.0977.3178.2344.6193.294.9541.0298.1676.0155.3378.0562.5016"/>
    <path class="cls-10" d="M290.8241,217.9719c-.5393-.379-1.0769-.7613-1.6189-1.1356-.224-.1547-.4553-.2955-.6983-.4149-.1803-.0885-.3567-.0759-.5373-.0404-.423.0829-.7988.3133-1.1939.4815-.2633.112-.5074.1109-.7649-.0034-.5409-.2401-1.0874-.465-1.6269-.709-.3354-.1516-.682-.1597-1.0312-.1295-.1546.0134-.2813.1523-.3206.2943-.0632.2287-.2147.2859-.3806.3493"/>
    <path class="cls-10" d="M296.6469,190.0667c.0011-.3668-.1105-.7125-.1648-1.0689-.0905-.594-.2713-1.1658-.32-1.7729-.0251-.313-.0733-.6422-.2685-.9188-.0579-.082-.0111-.2607-.1132-.3548-.1202-.1107-.2433-.2183-.371-.3182-.1616-.1265-.3478-.222-.4893-.3704-.1958-.2055-.398-.2127-.622-.1062-.0993.0472-.1731.0279-.271-.0195-.2929-.142-.6149-.1632-.9243-.2381-.4489-.1087-.9193-.128-1.3397-.361-.091-.0504-.1602-.0054-.2044.0506-.3289.4173-.7135.7753-1.02,1.2193-.213.3085-.1573.619-.1136.938.0937.6838.1995,1.3658.3097,2.0466.02.1234.0059.2436.0172.3646"/>
    <path class="cls-3" d="M310.6836,192.7276c.0618.2137.2051.3627.3525.4976.3196.2923.398.7024.2377,1.0906-.0901.2181-.043.4048.0111.5939.186.6497.147,1.3164.1353,1.9797-.0032.1826-.0568.376-.2625.4322"/>
    <path class="cls-9" d="M287.0212,209.3979c.1924.0152.3863.0182.5768.0481.3764.0591.597.3567.7799.6822.1551.276.2803.5726.4147.8624.0346.0745.0826.137.1223.2058.1012.1757.2022.2072.3771.0958.1904-.1212.4182-.1151.6352-.0947.0986.0093.1358.0887.1715.1992.1009.3121.1152.6366.1598.9575.0954.6866.1559,1.3804.347,2.0478.0289.1009.0402.2114.0414.3177.004.3477.0729.6806.1922.9985.031.0826.0025.1439-.0086.206-.0849.4744-.0373.9291.149,1.365.126.2948.1193.3835-.0838.6367-.1368.1705-.0341.3535-.0118.5222.0165.125.1534.1293.2595.1389.1103.01.2199.0292.3299.0443"/>
    <path class="cls-1" d="M315.5892,216.4709c-.6252.0379-1.2514.0625-1.8754.1178-.5356.0475-1.0706.0862-1.608.088-.2354.0008-.4708.0134-.6596.2036"/>
    <path class="cls-1" d="M283.5791,221.7472c-.2647.4759-.7003.6536-1.1553.7682-.5608.1413-1.1362.1684-1.7093.2163-.4544.038-.8125-.1264-1.1135-.4842"/>
    <path class="cls-10" d="M293.7819,199.9598c0-.0606-.0066-.1224.0013-.1817.0223-.1688.0419-.3216-.1009-.4594-.1604-.1549-.3436-.2221-.5387-.195-.4133.0575-.8384.0417-1.2361.2029-.1214.0492-.214-.0176-.3091-.0531-.6633-.2477-1.3167-.5242-1.9386-.8833-.3151-.1819-.5015-.4869-.6137-.843-.0576-.1827-.1793-.2254-.3145-.244-.137-.0189-.1938.1167-.2449.2242-.2247.4724-.2202.9887-.2018,1.4996.0073.2034.1373.3777.2657.519.1316.1449.1425.2939.1249.4826-.0217.2325-.0131.4698-.0036.7044.0239.5912.0793,1.181.0596,1.774-.0023.0684.0054.1481-.0229.2029-.2207.4273-.1195.893-.1407,1.3437-.0043.0907-.0006.1819-.0006.2729"/>
    <path class="cls-1" d="M294.6064,185.0406c.001-.1849-.0174-.3654-.0593-.5465-.0894-.3866-.2404-.5532-.6004-.5884-.5335-.0522-1.0617-.1349-1.5876-.2485-.4468-.0966-.6074.0646-.6386.5875-.005.0835-.0135.1668-.0203.2502"/>
    <path class="cls-10" d="M305.2215,198.5042c.0528.2268.2017.2846.3916.2732.1511-.009.3029.0152.4536-.0222.2324-.0577.3665.1136.4473.298.1594.3634.5611.4102.8918.1779.1647-.1157.1879-.267.0832-.4541-.2789-.4984-.464-1.0479-.7014-1.5689-.0801-.1757-.1555-.3551-.2491-.5218-.1388-.2473-.5506-.2842-.7175-.068-.0532.0689-.0581.1596-.0228.2486.1138.2875.2695.5491.4118.8191.0463.0877.0832.1814.1245.2724"/>
    <path class="cls-1" d="M308.7873,193.9102c.2674.2011.5455.345.8867.3274.1368-.0071.2501.0997.2934.2852.0597.2561.0991.5113.0973.7747-.0004.0561.0023.1055-.0374.162-.1533.2182-.1725.4834-.1893.7477-.0182.2883-.0368.5766-.063.8641-.0125.1373-.0425.2728-.122.3868"/>
    <path class="cls-9" d="M278.2406,220.9967c-.0038-.0358.0111-.0926-.0411-.0892-.2078.0138-.4139-.0263-.6231.0779-.1252.0624-.1993.1667-.2122.2631-.0308.23-.0415.4754-.0003.7013.0351.1922.1941.3306.3821.339.4738.0211.9445.1102,1.4225.0549.2572-.0298.4193-.1035.5291-.4082.1189-.3298.2782-.6739.6029-.8505.0164-.0089.015-.0579.0218-.0882"/>
    <path class="cls-10" d="M307.9525,184.2219c.0596.2402.0169.4378-.1025.6664-.2169.4154-.3554.8794-.5496,1.3106-.3404.756-.6596,1.5242-1.0465,2.2543-.0765.1444-.155.2737-.311.3172"/>
    <path class="cls-1" d="M308.7873,196.2755c-.2468-.4773-1.1342-.3152-1.3399.1819-.036.0871-.043.1782-.0419.273.005.4676.3335.9999.7234,1.1328.1646.0561.3423.0651.5141.095.0134.0023.0281-.0026.0411.0007.2823.0727.3386.2672.1441.4996-.0461.0551-.0959.1064-.144.1595"/>
    <path class="cls-3" d="M316.9084,214.8107c.0227.1396.0844.2442.1827.3445.6172.6301,1.2922,1.1822,1.9393,1.7719.1648.1502.3088.3288.4771.4734.2315.1987.2097.4468.1403.7073-.0373.14-.0943.2735-.1424.41"/>
    <path class="cls-1" d="M288.5465,204.3718c-.2371.216-.2135.5336-.2415.8194-.0338.3456-.0789.6814-.2543.9764-.2217.3728-.2503.7568-.0818,1.161.0245.0587.0436.1204.0621.1818.1417.4697-.0006.6977-.4532.7277-.3116.0206-.5425.1713-.5921.4334-.036.1904-.0408.3961-.017.5886.0114.0919.0234.1537-.0286.2299-.1095.1605-.1546.3506-.1868.5448"/>
    <path class="cls-1" d="M290.5871,191.7724c-.1356-.1479-.1766-.3579-.2845-.5263-.0951-.1484-.2096-.1807-.3544-.1555-.1945.0338-.3769.0238-.5152-.1598-.0433-.0574-.106-.0804-.1653-.0882-.1888-.025-.2454-.1873-.2629-.3444-.0576-.5184.1292-.9947.6529-1.1445.342-.0978.6892-.1124,1.0332-.1683.1877-.0305.252.1603.3051.3142.05.145.0664.3037.1077.453.0715.2586.1367.3107.3698.3188.2744.0096.45.1703.4471.4775-.003.3304.1407.4905.3948.6215.2475.1276.4963.207.7648.2501.1361.0219.2327-.0642.3514-.0755"/>
    <path class="cls-10" d="M288.732,199.8006c.3921.0329.737.2201,1.0948.3802.643.2876,1.2647.6367,1.9354.8469.1425.0447.2883.0768.4326.1147"/>
    <path class="cls-3" d="M293.3078,186.9055c.0949.7866.3044,1.546.456,2.3191.0818.4171.1138.8462.2449,1.2514.0197.061.0411.1213.0617.182"/>
    <path class="cls-8" d="M308.0247,184.654c.2862.119.433.3511.4792.6814.0113.0805-.0083.1467-.0295.2039-.2281.6159-.4794,1.2198-.7772,1.7998-.0967.1882-.1628.3952-.2512.589-.0511.1119-.0377.2266-.0396.3421"/>
    <path class="cls-10" d="M287.4953,211.1946c-.1645-.0029-.1747-.1675-.2003-.2746-.0857-.3572-.2791-.6254-.5245-.8657-.3652.0875-.6019.3374-.6937.732-.085.3655-.2519.6872-.3953,1.0224-.2256.5275-.261,1.0903-.2415,1.66.0022.0631.0054.1092-.0261.1597-.0828.1328-.1361.2815-.1859.4318"/>
    <path class="cls-1" d="M292.1948,201.2106c-.0029-.1288.0855-.0903.1443-.0893.1738.003.3577-.0585.4232-.2114.1516-.3539.4304-.3108.6901-.333.2532-.0217.5083-.0148.7624-.0269.2082-.0099.3626-.0758.4421-.3366.0711-.2333.1754-.4471.0509-.6846-.1326-.253-.5791-.2967-.8434-.0921"/>
    <path class="cls-8" d="M289.0824,211.3993c-.0622.6444-.0248,1.2905.0084,1.9326.0291.5618.0649,1.1269.1553,1.6837.0022.0134-.0126.0301-.0195.0453"/>
    <path class="cls-10" d="M302.8717,198.7771c.0344-.215.2017-.3508.2553-.5661.1132-.4544-.0141-.7828-.4205-.9341-.4072-.1517-.8223-.1507-1.2353-.0406-.0837.0223-.1788.0635-.2307.1747-.0945.2025-.0103.3843.23.4308.1925.0372.3875.0542.5778.1123.0696.0212.1285.0527.1839.0961.1397.1095.1404.2143.0222.3416-.1915.2063-.4338.2925-.6819.36-.1879.0511-.3359.1368-.3697.3666-.0259.1763.0843.3302.2454.2894.5227-.1323.9064.1758,1.299.4624.1972.1439.3042.1504.4543-.0014.1759-.178.1747-.3415-.0223-.5897-.1162-.1465-.2391-.2844-.2869-.4792"/>
    <path class="cls-10" d="M292.4009,216.0615c-.0436.2502-.003.5003-.0014.7505.0042.6822-.003,1.3646.0043,2.0468.002.1912-.033.3568-.1471.5004"/>
    <path class="cls-10" d="M305.1184,196.8213c-.2411-.1241-.4054-.077-.5582.1349-.151.2093-.1776.458-.2288.7056-.1042.5035-.2311,1.0013-.3453,1.5023-.0167.0731-.0255.1522-.02.2269.0143.1945.1641.2823.3272.1923.1239-.0684.1951-.1792.2539-.3256.1213-.3018.2249-.6223.468-.8444"/>
    <path class="cls-1" d="M299.9448,197.5263c.0379.7362.1375,1.4674.1451,2.206.0004.038.0053.0803.0212.1129.0523.1072.0416.2765.2256.2537.171-.0211.2291-.1266.2265-.2984-.007-.4624-.0067-.9252-.0235-1.3872-.0091-.2509.016-.5005.0163-.7506.0003-.2145-.0999-.2371-.2206-.2684-.0557-.0144-.1216-.021-.1856.0158-.1427.0819-.2966.0879-.4523.0478"/>
    <path class="cls-10" d="M286.0937,218.0401c.0343.0077.0711-.0154.1037.0221.219.2518.4627.4778.641.772.0364.06.0694.1306.0546.1823-.0592.2067.0648.3337.1493.4789.0669.115.1464.2223.2035.3427.0782.1648.1971.2611.3525.3176.408.1484.6175.4717.6181.9546.0004.3177.0081.6342.0829.9438"/>
    <path class="cls-10" d="M294.359,190.4988c.09-.1999.2322-.3174.4325-.3657.5811-.1403,1.1569-.2838,1.7548-.0751.1433.05.2242.0855.204.2589-.0026.0224-.0086.0515.0009.0673.1991.3318.1977.7217.2703,1.0917.1174.5982.2043,1.2053.3881,1.7861"/>
    <path class="cls-10" d="M309.653,218.495c-.007-.2872.1109-.5312.2283-.7723.1165-.2393.255-.4659.3644-.7087.0374-.0829.0839-.1121.1496-.1328.0399-.0125.0901-.0027.1222-.0257.3023-.2164.5924.0024.8875.0256.0142.0011.0313.0107.0407.0224.3075.3829.7544.3935,1.1556.5196.4226.1328.8625.201,1.2572.4338.116.0684.2159.1521.288.2741"/>
    <path class="cls-1" d="M309.1171,196.2186c-.3071.0387-.5642.2436-.8645.3132-.1656.0384-.2859.2795-.269.4486.0204.2033.163.2756.3098.315.3306.0885.6718.1083,1.0093.1112.3971.0034.4131.0858.4423.4845.0161.2197.017.4648-.0885.6833-.041.0849-.0703.1472-.168.1607-.1049.0145-.2066.0567-.3096.0875-.1496.0447-.2936.037-.4331-.0451-.2229-.1312-.4379-.1511-.6617.0184-.1426.108-.3256.1025-.4923.1403"/>
    <path class="cls-10" d="M308.8285,191.1129c.0324-.2316-.0846-.3636-.2463-.4793-.4156-.2973-.8868-.4693-1.3214-.7235-.0458-.0268-.1087-.0177-.1637-.0253-.2624-.0362-.3927-.1978-.3008-.4742.1295-.3893.291-.7719.5685-1.0726.1125-.1218.2147.006.3064.0348.082.0258.1459.1363.1719.2601.0644.3058.0515.3479.429.386.2397.0242.4813-.0245.7222.0433.247.0695.3129.1576.2671.4359-.0626.38-.0472.3912.3083.5036.2548.0806.516.142.7462.3096.1117.0813.1888.1749.244.3012"/>
    <path class="cls-1" d="M299.2028,197.9811c-.0078-.2835-.0387-.3108-.2885-.3198-.5423-.0194-1.073.0926-1.608.158-.0591.0072-.1106.025-.1652.0463-.2155.0841-.2831.1099-.2248.4302.3276.1365.6769.0966,1.007.0563.2735-.0335.5542-.0652.8275-.1369.1659-.0435.3163-.1016.452-.2114"/>
    <path class="cls-1" d="M288.5465,215.7886c-.1627-.3424-.2869-.7091-.4969-1.0216-.1622-.2414-.3511-.3482-.6608-.2683-.3142.0811-.6576.055-.9854.0305-.2122-.0158-.4284-.0168-.6408-.0766-.1937-.0545-.3568-.148-.4909-.3041-.0272-.0316-.0412-.0897-.0847-.0864-.3832.0287-.7179-.1758-1.0694-.2848-.3046-.0944-.5939-.0226-.8885-.0066-.1299.0071-.2112.1399-.2668.2674-.0414.0948-.0701.1964-.1045.2949"/>
    <path class="cls-10" d="M284.7745,215.4702c-.4461-.2044-.8321-.5302-1.2612-.7646-.2601-.1421-.5086-.3519-.8206-.3482-.3861.0046-.7812-.0618-1.153.0932-.4016.1674-.6919.4864-.8837.9081-.0245.0538-.0869.1294-.0239.2019.1833.211.1192.4386.0656.684-.128.5862-.0892.564.4497.8618.217.1199.4776.168.6525.35.2142.2229.4777.3518.7033.544.1908.1625.4019.2533.6223.3355"/>
    <path class="cls-1" d="M291.5971,215.9478c-.0069.7884.0016,1.5776-.0325,2.3646-.0076.1747.0065.3555-.0194.5217-.0305.1959-.197.335-.296.5042-.234.4003-.4469.8143-.5797,1.2717"/>
    <path class="cls-10" d="M315.0945,219.7458c.1296-.3068.3965-.433.6389-.5914.0809-.0529.1552-.0065.2263.0243.2327.1009.4616.2142.7221.1819.0264-.0033.0637.0038.081.0228.2804.3075.6705.3475,1.0145.4895.2952.1219.5855.2584.8814.3786.1546.0628.2575.2151.3316.3813"/>
    <path class="cls-1" d="M296.6676,190.4306c-.4528.3703-.9505.6433-1.4836.8429-.2733.1023-.5137.0307-.7424-.1378"/>
    <path class="cls-10" d="M299.0173,193.8647c-.1546-.3718-.442-.4771-.7832-.4781-.2585-.0008-.5192.0216-.7641-.11-.042-.0226-.095.0168-.1445.0376-.2566.1078-.5162.2069-.7608.3462-.238.1355-.4832.1152-.7207.0196-.4678-.1884-.9269-.2953-1.406-.0276-.1067.0596-.2576.0228-.3881.0304"/>
    <path class="cls-10" d="M287.753,191.7724c-.1292.3026-.2094.6172-.1741.955.0215.2054.0409.4129.0842.6135.0786.3649.3235.5363.6362.6148"/>
    <path class="cls-10" d="M290.9169,186.2232c.3043.0337.5921.1467.8859.2293.5022.1412.9963.3168,1.5633.4136.3222-.4784.5811-1.0507.8075-1.6435"/>
    <path class="cls-1" d="M299.5738,185.7684c.0756.0076.1511.0208.2267.0216.1469.0015.2436.0438.296.226.0472.164.1729.2985.2358.4594.0699.179.0742.3621.0367.5692-.0461.2543-.0435.5325.0135.792.0338.1538.1811.1814.3046.2042.35.0648.4033.1283.4118.5248.0013.0606-.002.1214.0006.1819q.0107.2502-.2065.2502"/>
    <path class="cls-10" d="M310.8279,190.6353c-.1006.0357-.2066-.092-.3127.0421-.1875.2368-.1968.4176.0264.6143.1415.1246.2885.2407.4096.3901.1704.2102.1785.4401.02.6583-.0698.0961-.1667.1722-.2218.2763-.077.1457-.1839.1001-.2473.0379-.2048-.2008-.45-.3585-.5915-.6318"/>
    <path class="cls-9" d="M301.0785,194.1376c.0062-.1352-.0795-.1036-.1441-.0897-.4159.09-.827.0508-1.2371-.046-.0882-.0208-.1892-.0077-.2659-.0504-.3206-.1786-.5694-.0188-.7804.214-.1645.1814-.3506.1675-.5402.1489-.1372-.0135-.2722-.0613-.4126-.0642-.0483-.001-.0661-.039-.0619-.0899"/>
    <path class="cls-1" d="M300.3158,187.1102c-.0344-.0152-.0755-.0216-.102-.0468-.3393-.3223-.6408-.1287-.9261.0961-.1885.1485-.3202.3479-.2934.6333.013.1382-.0674.2571-.1007.3864"/>
    <path class="cls-10" d="M296.9355,190.0212c.1237-.1668.2572-.3259.3688-.502.1882-.297.4707-.3948.7651-.4749.0488-.0133.0708.0297.106.0633.2007.1914.2846.4599.3826.7118.0824.2118.216.2634.3975.2714.2201.0097.4398.029.6596.0442"/>
    <path class="cls-1" d="M310.1065,195.434c.1384.1257.2184.2826.2732.4758.1189.4191.3153.802.5069,1.1863.0665.1333.2182.1549.271.2938"/>
    <path class="cls-10" d="M306.3139,184.6995c-.2397.1506-.2981.4292-.3425.684-.0758.4348-.1943.8633-.1811,1.3177.0044.1498-.091.3019-.1354.4548-.0928.3196-.1616.645-.2097.9772-.0322.2227-.1737.3847-.3062.5463"/>
    <path class="cls-3" d="M283.4142,221.0421c.2834-.2797.2506-.6414.2032-1.0002-.0211-.1601-.0275-.3121.0452-.4546.0767-.1503.1975-.1534.3091-.0245.091.1053.1444.2319.1833.3654.1149.3944.3019.7508.4784,1.1121.0492.1007.0886.1945.0793.3089"/>
    <path class="cls-9" d="M284.2799,217.1304c-.0893-.0076-.1814-.0026-.2674-.0254-.1654-.0438-.321-.0631-.4762.0454-.077.0538-.1742.0569-.2663.0478-.3112-.0308-.6176.0442-.9275.051-.1632.0036-.2992.1129-.4123.245"/>
    <path class="cls-1" d="M298.0485,200.8695c.0138-.1466-.016-.2777-.0797-.411-.172-.3601-.0888-.7548-.1034-1.1356-.0029-.075.0246-.1516.0389-.2273.0265-.1403.0525-.2838.2266-.2724.2146.014.2857.0974.3109.3177.0398.3486.0567.6983.0163,1.046-.0446.3834-.0304.4158-.3889.4097"/>
    <path class="cls-10" d="M316.1869,214.5605c-.1517.2848-.1809.6248-.3315.9086-.1355.2556-.2054.5301-.2488.8192-.0199.1327.0006.2161.1038.2997.2004.1624.4099.3227.5738.5251.2179.2691.4874.4634.7263.7003.0527.0523.0792.1004.0706.2046-.035.4233-.1356.8219-.2982,1.2037-.0193.0452-.046.0844-.0396.1373"/>
    <path class="cls-9" d="M291.5971,218.7679c.127.0011.2089.0901.2884.1821.1107.1281.2303.2489.3273.3887.1133.1633.1287.3729.1643.567.0537.2929.083.5911.1281.886.0205.134.0538.2656.0813.3982"/>
    <path class="cls-1" d="M302.2327,189.7483c-.0545-.1315-.037-.2716-.0417-.4093-.0079-.2298-.0778-.2442-.2623-.352-.262-.153-.517.0109-.7678-.0574"/>
    <path class="cls-9" d="M289.103,190.8172c-.1649.2502-.3354.4961-.4931.7517-.1485.2407-.3405.3509-.5984.268-.0868-.0279-.1659-.002-.2483-.0077"/>
    <path class="cls-8" d="M306.9529,189.9075c-.0328.1653-.122.2907-.2258.4104-.2945.3397-.5347.7287-.8048,1.0906"/>
    <path class="cls-10" d="M293.5552,191.7042c-.021.191.0387.3521.1434.5011.1205.1712.2341.3483.3514.5222.0795.1178.0988.2374.0673.3881-.034.1622-.0938.3245-.0681.4991.0126.086-.0556.1272-.1038.1562-.4662.2804-.6655.7776-.8643,1.2765"/>
    <path class="cls-10" d="M305.1596,196.8099c-.0095.4325-.1168.8452-.2023,1.2632-.0393.1918.073.3397.2464.402.3757-.2585.8396-.227,1.1927-.5053"/>
    <path class="cls-10" d="M285.4753,213.5371c.2594.0433.4663-.1256.6765-.236.3096-.1627.5656-.1026.8063.124.291.2739.5915.5447.6609.999"/>
    <path class="cls-10" d="M295.8431,186.2915c-.4603.1668-.9207.3336-1.381.5003"/>
    <path class="cls-9" d="M292.7513,199.232c.0206.3336.0492.6669.0582,1.0008.0041.1515.032.2851.1067.4092"/>
    <path class="cls-10" d="M290.2573,218.8361c-.3774.3835-.7435.7795-1.0821,1.2054"/>
    <path class="cls-10" d="M299.1822,189.248c-.0117-.1181.0189-.2187.1032-.2955.1089-.0992.0724-.2018-.0012-.2947-.1055-.1331-.2264-.2522-.3251-.3908-.0436-.0612-.0806-.09-.1478-.0886-.4669.0096-.5307.0161-.6143.5019-.0203.1181-.0475.23-.0865.3403"/>
    <path class="cls-1" d="M303.2839,188.8159c.2049.0022.3991-.0423.5773-.1589.0264-.0173.061-.0505.0814-.0428.3082.1162.6197-.0307.9286.0185.2735.0436.2649-.0305.3515.342.0504.2168.0951.4399.2667.5917"/>
    <path class="cls-8" d="M300.7899,192.0226c.278.1924.4519.4894.6389.7733.0897.1362.1787.2729.268.4093"/>
    <path class="cls-10" d="M306.7673,189.7256c-.1995.0291-.3653.1451-.5366.2488-.0644.039-.1392.0566-.2049.0936-.1175.0661-.3015-.0055-.3642.1171-.1984.3881-.5467.6582-.6864,1.0875-.0087.0269-.0011.0602-.0011.0905"/>
    <path class="cls-10" d="M294.2972,194.7744c.0432.4097.0875.819.3298,1.1599"/>
    <path class="cls-5" d="M294.4209,191.1584c-.1638.3517-.4457.4882-.7833.523-.1215.0125-.1765-.0772-.2042-.1825-.0584-.2221.0714-.5231.2663-.6356.0462-.0267.0971-.0434.1438-.0692.3228-.1785.5168-.0641.5773.3416"/>
    <path class="cls-9" d="M319.4848,220.9967c-.1012.1675-.2014.3334-.3703.4335-.2045.1212-.3952.1187-.5778-.0469"/>
    <path class="cls-7" d="M291.7619,221.8609c.1057-.0392.2156-.0686.2303-.227.0031-.0331.0474-.068.0795-.0903.2465-.1707.4645-.3969.8045-.3269.2544.0524.5376-.064.7614.1666"/>
    <path class="cls-10" d="M286.8563,219.2c-.2564.034-.4983-.0491-.7417-.1153-.0753-.0205-.147-.0559-.2271-.0439"/>
    <path class="cls-10" d="M299.141,189.2366c.3143.1741.5679.4369.8209.6979.0359.037.0614.0613.1066.064"/>
    <path class="cls-1" d="M282.9813,216.5164c.0948.0683.1946.1164.3088.139.2077.0412.3598.1737.4539.3841"/>
    <path class="cls-3" d="M292.1123,192.8186c-.2608.2654-.4617.5988-.7626.8187"/>
    <path class="cls-9" d="M297.6363,194.2286c-.3599.0626-.5537.3207-.6596.6823"/>
    <path class="cls-2" d="M295.1217,190.6808c-.2623-.0318-.4652.1592-.7008.2274"/>
    <path class="cls-2" d="M298.4196,200.5511c.1077.0586.1867.1897.3298.1592"/>
    <path class="cls-2" d="M308.1277,198.2313c.0172.1056-.0394.2228.0412.3184"/>
    <path class="cls-2" d="M290.4222,206.3959c-.0824.0152-.1649.0303-.2473.0455"/>
  </g>
  <g>
    <path d="M177.7504,227.7158c-.5438-1.0206-.9737-2.0624-1.2168-3.1617-.2613-1.1815-.1698-2.3642-.0827-3.5503.1141-1.553.4678-3.0793.6483-4.6254.1774-1.5193.4148-3.0334.641-4.548.2358-1.5788.4433-3.1586.5701-4.7485.1265-1.5869.5657-3.1207,1.352-4.5575.312-.5701.8809-.9985,1.3549-1.4698.9321-.9269,1.9383-1.7912,3.0075-2.6032.5703-.4331,1.0531-.9647,1.5564-1.4645.5518-.5479.5388-1.1077.0399-1.6964-.3626-.4278-.809-.793-1.3318-1.0672-.413-.2167-.552-.1541-.6701.2448-.1239.4185-.1908.8407-.0592,1.2692.0294.0956.0972.1997-.0201.2795-.1304.0887-.2436.0055-.3545-.0509-1.2072-.6138-2.0176-1.5198-2.5125-2.6531-.2949-.6752-.5214-1.3662-.5767-2.094-.1024-1.3495.3471-2.5425,1.3182-3.5838.1304-.1398.2147-.2878.3032-.4476.4824-.8713.8198-1.8055,1.5484-2.5694.9863-1.0339,2.2664-1.5858,3.7125-1.9463,1.0994-.2741,2.1995-.4823,3.3424-.5167.4403-.0132.8713.0416,1.2705.1818,1.0673.375,2.1945.6408,3.1848,1.1582,1.0853.567,1.9323,1.3429,2.6058,2.3172.9336,1.3505,1.3359,2.8321,1.7385,4.3311.1951.7266.5301,1.4163.794,2.1248.47,1.2618.932,2.5183,1.647,3.7033.3844.6371.4593,1.4002.6598,2.1105.4069,1.4412.6127,2.9188,1.2484,4.3213.6275,1.3844.8653,2.8791,1.1582,4.3467.1436.7195.2356,1.454.2575,2.1839.0567,1.8893-.3983,3.7143-.9781,5.5221-.2057.6413-.5075,1.2218-.9315,1.7776-.5438.713-.8391,1.5529-1.3972,2.2653-.465.5937-.8513,1.2502-1.4026,1.773-.8692.8243-1.5109,1.7774-2.2278,2.6898-.1003.1277-.2358.2497-.4314.1808-.2271-.08-.1779-.2494-.1425-.421.1834-.8886.8159-1.6042,1.195-2.4172.1296-.278.3056-.5393.4762-.8358-.3938-.0605-.7165.0138-1.043.104-.1569.0434-.3698.1022-.4583-.0812-.0978-.2028.1302-.2452.2737-.3155.1494-.0733.322-.1148.4498-.2746-.3452-.185-.2745-.4171-.1088-.6879.4163-.6802.5156-1.4002.2635-2.1471-.0488-.1445-.0112-.2774.0372-.4087.1655-.449.5007-.521.8732-.1752.0543-.0335.1124-.0672.1679-.104.1222-.0811.255-.1408.3901-.0385.1187.0899.0587.2057.0252.3173-.294.9799-.6129,1.9503-1.2988,2.7892-.0411.0502-.0686.109-.1164.1863,1.0975-.6329,2.4939-2.908,2.6572-4.3387-.3809.0595-.6877.2534-1.0325.346-.1927.0517-.4135.2112-.5786-.0208-.1443-.2027-.0454-.3898.1296-.5477.6294-.5676,1.1635-1.186,1.4308-1.9605.169-.4896.0982-.6373-.4752-.8332-.2379.1761-.2188.4529-.333.6777-.0797.1569-.0628.456-.3659.3753-.2939-.0783-.1421-.3141-.069-.4854.3975-.9315.6217-1.8923.6524-2.8878.0041-.1334-.037-.3143.1767-.34.2455-.0295.2474.162.2801.3093.0162.0729.0335.1455.0597.2589.2504-.1711.2069-.3984.2528-.5908.0398-.1666-.0239-.4071.2424-.4284.2949-.0236.2333.23.2837.3893.0135.0428.0624.0769.1054.127.2091-.0726.2206-.2251.2502-.3718.2675-1.3261.4241-2.6537.0984-3.9915-.0329-.1353-.0606-.3267.143-.3461.3315-.0317.2791-.2232.2997-.4077.0946-.8497-.2455-1.6389-.584-2.3866-.4143-.915-.5143-1.8556-.6451-2.8038-.0385-.2792-.0829-.5594-.2361-.8026-.5833-.9265-.9776-1.9107-1.2382-2.9418-.1885-.7458-.5526-1.4341-.9356-2.1159-.3658-.6511-.5462-1.3598-.7611-2.054-.2411-.7788-.7111-1.4596-1.0855-2.1828-.6971-1.3465-1.8421-2.4091-2.8276-3.5713-.4184-.4935-.9052-.9486-1.4314-1.3649-.5729-.4533-1.2791-.6294-2.0058-.7353-1.7553-.2559-3.3639.1018-4.8375.9613-.0698.0407-.1297.0945-.1962.1437.0712.1359.1353.2582.2108.4024.3861-.1604.7683-.3292,1.1606-.4775.1783-.0674.4168-.1648.5269.0623.1122.2314-.1327.2966-.3166.3677-.1538.0595-.3305.0871-.4179.2447.5602-.1749.6209-.1548.701.2578.5674-.2261,1.1405-.4208,1.7413-.5435.2287-.0467.4518-.0725.6761.0176.107.043.2223.0758.2291.1991.0079.1438-.1146.1958-.2418.2291-.3607.0943-.6978.2327-1.0318.3844-.3667.1666-.626.4444-.9435.6611-.1685.115-.1471.2595.0507.399.3314-.213.6688-.4241.9988-.6438.2206-.1469.459-.265.7159-.3482.1618-.0524.362-.095.4372.1046.0657.1744-.0994.2412-.251.2975-.5111.1895-.9291.4915-1.3166.8324.8098-.3668,1.5417-.85,2.4042-1.135.8373-.2768,1.6581-.3539,2.4528.051.3676.1873.8279.4015.9784.7058.1653.3342.3755.7031.4114,1.0602.0189.1879-.1716.5235-.4812.6958.3393.2505.7604.3623,1.1179.5678.3873.2226.7629.4577,1.0789.7557.1226.1156.2936.263.0938.4218-.1893.1505-.3014-.0206-.421-.1262-.0663-.0585-.1179-.1434-.3219-.0603.2865.2221.5767.4408.8579.668.1161.0938.2222.1999.3161.3114.0978.1162.2685.2481.0865.3939-.1765.1415-.3187.0003-.4408-.1045-.2525-.2167-.4693-.4711-.876-.6111.1658.4478.5893.6638.8455.9868.222.2798.4655.5476.6534.8467.0904.1439.2851.3354.046.466-.2604.1422-.3214-.1186-.4273-.2537-.2106-.2685-.3222-.6562-.858-.5326-.0928.2158.0748.3574.208.4981.2767.2923.5585.5815.7536.9231.08.1401.2437.2854.1233.4544-.1319.1852-.3544.1178-.5523.0934-.1008.1321.0312.2436.0326.3643.0014.1194-.0024.2403-.1491.2875-.1469.0472-.2337-.0411-.3192-.1375-.3499-.3945-.707-.7842-1.093-1.2105-.0727.2897.5085.4641.1106.7162-.2467.1563-.3435-.1613-.5609-.2085-.0508.1869.0753.3175.148.46.0588.1152.0684.226-.076.2957-.1237.0597-.2232.0023-.302-.0801-.1821-.1905-.3425-.4006-.6472-.5485.1155.3471.4199.5374.5352.8419.0773.2042.4104.1521.5999.0194.3572-.2502.4654-.1129.5879.2025.1174.3024-.0537.5489-.1367.7946-.075.2219-.3937.1759-.5461.0369-.2728-.2488-.5837-.4652-.7396-.8206-.1038-.2367-.3758-.4261-.6504-.5636-.1495.1045-.0747.3475-.3069.3478-.2306.0003-.2829-.1915-.3723-.3304-.3641-.5655-.3729-.5695-.9009-.2231.4352.386.8197.8052,1.1693,1.2483.0272.0345.1088.0742.14.062.3448-.1353.4807.1054.6155.283.4162.5483.7346,1.1457,1.065,1.7359.0599.107.1286.2371.0025.3548-.1311.1224-.2669.0562-.3935-.0028-.1212-.0564-.2538-.0383-.3775-.0643-.3679-.0773-.4819-.3826-.2125-.6119.1359-.1157.1256-.2106.0677-.3344-.0109-.0234-.0236-.0463-.0369-.0687-.2272-.3821-.3332-.8862-1.0344-.765.0906.1244.1983.2676.3003.4139.0807.1158.2196.2494.0397.3653-.2014.1297-.3125-.0406-.4156-.1552-.4111-.4567-.815-.9184-1.2239-1.3767-.0501-.0562-.0799-.1409-.2107-.1329-.0925.1748.056.2786.169.3781.3816.3358.6433.7452.9221,1.1435.085.1215.2346.259.0691.4089-.1594.1444-.3287.0207-.4797-.0291-.2684-.0885-.4259-.2922-.5872-.4879-.0977-.1185-.2037-.2317-.3317-.3316.2316.4905.5567.9318.9132,1.3533.1561.1846.4016.227.6642.1954.502-.0603.8963.0884,1.1621.4794.1237.1819.3065.146.4967.096.4262-.1121,1.03.0909,1.2253.416.1073.1786-.0088.2965-.1983.2664-.4024-.0639-.7935.1414-1.1931.0119-.0962-.0312-.1989-.0064-.284.0548-.1484.1069-.2983.2213-.4889.0606-.2094-.1766-.0278-.3196.0709-.4795-.1346-.1976-.3197-.2179-.5741-.1439.0816.2196.0093.4305.0343.6408.0152.1281-.0224.2334-.1737.2671-.149.0332-.2454-.0498-.3135-.1542-.0715-.1096-.1253-.2288-.2031-.3345-.1258-.171-.2497-.3317-.5437-.2965-.291.0349-.4266-.3611-.8442-.2184.3768.6525.3919,1.4257.9722,2.0142.1869.1895.3716.4003.4753.63.3973.8797.7815,1.7588.9108,2.7176.0878.6517.2481,1.2928.1735,1.9548-.0079.0698.0142.1513.115.1892.1325-.1307.0696-.288.0769-.4343.0063-.1258-.019-.2675.1491-.3274.1906-.0679.3081.0534.3885.1692.2085.3004.5109.3649.8817.3332.3413-.0292.8058.3491.8122.6379.0019.0862-.0414.1463-.1295.1781-.11.0397-.1912-.0147-.2739-.0695-.1377-.0912-.2072-.2977-.4842-.2032-.0148.3224.1993.5867.3303.8689.1685.3629.3712.7135.5492,1.0732.0506.1023.0777.2164.0953.3276.0165.1043-.0084.2069-.1483.2424-.138.035-.2182-.0397-.2793-.1309-.1153-.1721-.2029-.3621-.4311-.494-.1239.1942.0126.3439.0788.4934.0517.1169.1401.2209.2045.334.0663.1164.052.2265-.0829.2967-.1558.081-.2802.0302-.3575-.102-.1977-.3381-.4708-.6324-.7021-.9476-.2735-.3726-.6197-.6115-1.0595-.7984-.1648.1622-.146.3786-.2251.563-.0404.0941-.0669.2067.0518.2757.11.064.2223.0203.3231-.0359.1715-.0957.3673-.2354.5136-.0092.1285.1986.026.3623-.1789.5224-.402.314-.7768.6465-1.3581.6773-.0488.0026-.1103.0423-.139.0805-.4358.5794-.9572,1.1436-.7964,1.9029.1441.6805-.1038,1.3293-.1319,1.9942-.0416.9858-.3942,1.9359-.4448,2.9726.1701-.1142.1905-.2523.2205-.3709.2361-.9332.5241-1.8567.5304-2.827.0023-.3484.1378-.6949.1226-1.0525-.0056-.132.0495-.2651.2183-.291.1874-.0288.2218.1099.2799.2305.0767.1592.0702.3208.0703.4849,0,.1042.0026.2102.1547.235.1759.0287.2401-.0861.2595-.1969.0567-.3244.1019-.6509.1332-.978.0248-.2597.0965-.4519.4362-.5271.4291-.095.6057-.3637.7021-.7571.0922-.3768.377-.7057.3806-1.1294.0016-.1815.2327-.1693.3944-.0324.1627.1378.1706.344.2989.4978.1785-.001.3169-.2444.5058-.0678.1812.1695.037.326-.0441.4867-.1003.1989-.2046.3892-.4223.5151-.1597.0924-.1816.2446-.2056.3997-.1105.7136-.2255,1.4268-.3485,2.1388-.0257.1486-.0851.2939-.1415.4368-.0492.1244-.1275.2463-.3102.1923-.1587-.0469-.2101-.179-.1843-.3106.0561-.286.1413-.5676.1993-.8534.0555-.273.0715-.5485-.0073-.8176-.5952-.049-.6762.0066-.7679.4651-.0845.4227-.1807.8438-.2794,1.2642-.0544.2319-.1857.3848-.4953.3846-.341-.0002-.487.1641-.5432.4697-.1111.6043-.2153,1.2058-.2473,1.9108.4329-.5072.5525-1.0175.728-1.506.0588-.1637.1034-.3547.3484-.3049.3012.0612.1809.2785.1314.4378-.3142,1.0118-.6353,2.0219-.9613,3.0309-.0522.1616-.0842.3245-.0645.487.041.3389-.0363.6441-.2172.9478-.1178.1978-.154.4322-.2361.6475-.0819.215.003.3653.2444.5036.3447-.5004.6886-.9896.8498-1.5564.1394-.4903.2511-.9867.391-1.4768.0428-.1498.0776-.3758.3283-.3298.277.0509.1854.2641.1584.4388-.0374.2419-.2493.509.1199.705.0394.0209.0462.1184.037.1766-.1915,1.2157-.3895,2.448-1.168,3.4914-.5958.7985-1.1781,1.6224-1.9798,2.2906-.0523.0436-.0999.0922-.1563.131-.1374.0945-.289.2105-.4549.0661-.1753-.1527-.027-.2737.0938-.386.4567-.4249.8688-.8798,1.1992-1.3885.078-.12.1595-.2448.1978-.3767.0721-.2479.1589-.4825-.1668-.6958-.2236-.1464-.3011-.4251-.5513-.601-.246-.1729.0787-.41.0848-.6609-.2407.1249-.4669.2432-.6942.3599-.0889.0456-.186.0871-.2831.0285-.1146-.0691-.0966-.1743-.0703-.2758.0399-.1542.1708-.2921.1153-.5144-.2134.1821-.4449.312-.3872.5762.0592.2707.2485.4244.576.4919.5281.1088.7041.4495.434.8542-.4142.6205-.7541,1.2797-1.2407,1.8622-.1144.1369-.2351.3468-.4727.2251-.2361-.1209-.1075-.323-.0088-.47.1457-.2169.3274-.4151.4929-.6217.1423-.1777.2221-.3384-.0171-.5241-.2513-.195-.2842-.4527-.0697-.7456-.6911-.0474-.421-.3826-.3035-.692-.3777.2241-.6204.4818-.8306.7903-.3594.5272-.7027,1.0797-1.323,1.4216-.1493.0823-.3338.2293-.5.0614-.1609-.1625-.0002-.3176.128-.4301.3815-.3345.5204-.7854.7545-1.1882.5426-.9338,1.153-1.8372,1.5386-2.8408.5689-1.4806.9919-2.98.9963-4.5536.0017-.579.2672-1.1371.1738-1.7496-.5233.2725-1.0669.3886-1.641.1307-.0576.0552-.1168.0859-.1285.127-.23.8072-.9496,1.3115-1.5251,1.9026-.4391.451-1.0317.5813-1.6784.5389-.3862-.0253-.5655.0748-.5066.445.0374.2354-.005.4766.1106.7078.2287.4576.2099.4869-.2937.6679-.0303.166.0472.3207.0762.4814.0586.3253.0606.6349-.3158.8383-.1691.0914-.1788.2476-.1783.4043.002.5558.0623,1.1224-.4695,1.5604-.0636.0524-.045.1916-.0463.2908-.0045.342-.0088.6843.0021,1.026.0092.2881-.0581.5221-.3978.6477-.2323.0859-.2257.3075-.292.4821-.1092.2875-.1989.5809-.3154.8659-.0475.1163-.1195.2862-.2214.3135-.4737.127-.416.4826-.5074.7868-.1004.3344-.1444.712-.6137.8488-.0448.0131-.0838.0705-.1044.1149-.365.7879-1.0896,1.3773-1.5178,2.1298-.0714.1255-.171.2141-.3395.1668-.1499-.0421-.182-.1656-.1566-.2813.1263-.5749.0129-1.16.5373-1.6977.7435-.7623,1.4127-1.5988,1.8621-2.5473.6628-1.3989,1.329-2.7888,1.6965-4.2851.2012-.819.4043-1.6248.4009-2.4636-.0008-.1864.027-.382-.1685-.5621-.2316.2195-.4538.4395-.688.6492-.1907.1707-.3872.3381-.5966.4905-.277.2016-.3956.4591-.4019.7651-.0044.2152.0005.4306-.0048.6457-.0129.5234-.1302.585-.669.3443-.0345.3216.0036.616.1555.9203.2646.5302.2418,1.0737-.079,1.5938-.0271.0439-.0631.0874-.0738.1348-.304,1.3565-1.248,2.3903-2.2202,3.4104-.0993.1043-.2122.1909-.3688.1265-.1945-.08-.1196-.2213-.0883-.3617.0533-.2397.2327-.5082-.1878-.7468-.2208,1.5036-.005,2.9409.1457,4.4112-.0989.032-.1912.032-.318.032M184.2723,212.8521c.9763-.1568,1.8219-.4353,2.3222-1.3083.3147-.5492.7287-1.0559.9684-1.6446.079-.194.2296-.2807.4678-.1262.5362.3478,1.1016.2592,1.4301-.2423.5891-.8992,1.1149-1.8324,1.5033-2.8093.5404-1.3592.7302-2.7736.5399-4.2104-.0423-.3196.0351-.6745-.1894-.9828-.3178.1367-.3492.3721-.4029.5908-.2223.9051-.0723,1.8401-.2854,2.7473-.1296.5518-.0336,1.1422-.3678,1.6593-.0633.0979-.1151.2246-.2821.1837-.1776-.0435-.204-.1889-.1643-.3099.1691-.515.1005-1.0507.1944-1.5738.0646-.3601.1703-.7403.0821-1.133-.1698.0525-.163.1351-.1803.2078-.1965.8238-.2347,1.6706-.4941,2.4866-.2389.7516-.3501,1.5344-.7021,2.2583-.0723.1487-.0959.4125-.3686.3379-.2816-.0771-.1211-.2927-.0712-.4536.3039-.9803.5143-1.9695.4025-2.9934-.0341-.3119-.1374-.374-.4219-.2072-.3438.2015-.6266.4737-.7258.8241-.2596.9178-.4625,1.8478-.7178,2.7666-.2188.7874-.5237,1.5519-.9477,2.2749-.0773.1318-.1764.2997-.3932.1907-.1914-.0962-.0893-.236-.0152-.3629.8055-1.3804,1.0384-2.8763,1.1379-4.3975.0146-.2232.0718-.5312-.2063-.6084-.2797-.0776-.4606.1972-.6235.3799-.4962.5568-.7665,1.1984-.9408,1.8862-.3161,1.2471-.807,2.4498-1.2608,3.6617-.2078.555-.1232.6636.5252.8594.0409.0123.0824.0229.1875.0484M187.8662,190.3768c.3437-.5885.3522-.593.8609-.4558.6063.1635.8909.4786.8288.9176-.0714.5047-.2323.673-.6725.6938.0362.3263.0854.6516.1039.9783.0125.2207.1592.5721-.2272.5844-.3499.0112-.1995-.3514-.2649-.5523-.0837-.2569-.0189-.5833-.3955-.7306-.1169.1556-.0599.2917-.0264.4232.0511.2005.0635.4027.0276.6033-.0226.1264-.0845.2553-.2635.2581-.1649.0026-.1914-.1232-.2388-.2312-.0453-.1032-.0085-.252-.1772-.31-.1392.1756-.0071.4089-.2101.5408-.245.1593-.3559-.0959-.5535-.1837.2701.7545.595.9049,1.4014.6841.1372-.0376.257-.0362.3405.0811.0779.1094.0134.192-.0772.2651-.053.0427-.11.0815-.1638.1235-.1082.0843-.1042.176-.0099.2634.0884.0818.1814.0543.2679-.0079.1808-.1301.3082-.2988.4398-.4655.0786-.0995.1863-.17.3297-.0992.1387.0684.1365.1772.0877.2974-.1163.2869-.2464.5673-.4445.8198-.1547.1972-.101.3443.1527.474.4658-.4703.7889-.9827.9043-1.5837.0653-.3399.1207-.6655.6725-.5775-.0404-.3894-.0585-.7437-.1169-1.0928-.1985-1.1872-.7517-2.2353-1.5412-3.2157-1.0263-1.2745-2.3372-2.0993-4.1246-2.2943-.3013-.0329-.5946-.0392-.7786.2012-.8106,1.059-1.1515,2.2472-1.2473,3.4983.3023-.6162.58-1.2388.8694-1.8571.092-.1965.2777-.3281.5117-.2154.2151.1035.0576.2649-.0158.3955-.3038.541-.4127,1.1276-.5338,1.7121.0553-.0625.0878-.1311.1189-.2002.3621-.8057.9711-1.4271,1.8158-1.8695.1556-.0815.3478-.2128.4927-.0225.1314.1725-.0757.2663-.1998.3648-.2024.1607-.4282.303-.6061.4823-.4266.4297-.6688.9388-.7732,1.5058.1513-.0723.2606-.1669.3602-.2689.4076-.417.8947-.7514,1.4206-1.0417.1322-.073.3298-.2057.4433-.0037.0909.1618-.0641.2782-.2299.3533-.3641.1649-.6541.4181-.9423.6615-.2391.202-.4477.4493-.4634.7782.245.0224.2758-.1373.3464-.2519.0958-.1556.1733-.3203.2757-.4723.177-.2626.3852-.3906.6322-.0556.348-.2141.5625-.5404.9663-.6527.1873-.0521.4064-.1896.5385.0188.1492.2353-.1323.3001-.2951.3727-.7802.348-.9108,1.0997-1.3792,1.6461.6825-.3128,1.2507-.7289,1.7626-1.2867M183.4314,206.258c.3812-.272.8917-.3776,1.2274-.6999.7748-.7437,1.4194-1.5596,1.6964-2.5604.0662-.2392.2314-.3514.5144-.3839.3697-.0424.7348-.1196,1.0997-.1904.8842-.1715,1.4553-.7548,2.0406-1.2803.3979-.3573.6445-.8307.5859-1.3827-.0515-.4853-.2341-.8786-.7623-1.0995-.0363-.0152-.0657-.0504-.0889-.0817-.1805-.2433-.4504-.2943-.7823-.2939.2522.175.481.3256.6987.4878.1366.1017.2672.2438.1292.3916-.1528.1636-.3031.0351-.4386-.0671-.1659-.1252-.3234-.2705-.6403-.2964.2772.3397.4994.6278.7718.8867.1094.104.2668.2412.1031.3961-.1526.1443-.3178.0474-.466-.0358-.3443-.1934-.7194-.2934-1.123-.3163-.0844.1919.0731.2736.1628.379.0858.1007.1953.1902.258.3006.0714.1258.1064.2866-.0558.3765-.1838.1019-.2803-.0342-.3737-.1541-.1438-.1848-.3061-.3516-.654-.3981.1506.3352.431.5517.4527.8678.0096.1399.174.314-.0578.3979-.2484.0898-.3165-.1172-.3902-.2611-.1619-.3161-.4361-.4989-.8259-.6104.0249.3312.2344.5486.3749.7937.0881.1537.2162.3556-.0006.4803-.2514.1446-.3594-.0866-.447-.2292-.1839-.2992-.4441-.4843-.8501-.5487.217.2525.4173.4831.6143.7158.0805.0951.1348.2012.0591.3166-.088.1341-.2172.0732-.3439.0512-.2297-.04-.458-.154-.7279-.0334.0911.2768.3391.4787.3892.7558.0263.1456.1379.3149-.076.4027-.2166.089-.3018-.0721-.3798-.2129-.1068-.193-.2655-.3307-.5303-.4222.1027.3472.1873.6404.2769.9324.0317.1032.0552.2043-.0669.2706-.1403.0762-.2374.0024-.3374-.0821-.1541-.1303-.319-.2508-.4794-.3754.036.2477.132.4451.2109.6475.0454.1166.0242.2354-.1258.2857-.1432.048-.2525-.0085-.3168-.1272-.0794-.1465-.139-.3053-.3466-.3921.0166.3247.2752.5635.3172.8635.0147.1049.0493.2037-.0719.2705-.1156.0637-.2164.0204-.3159-.0451-.1226-.0808-.2242-.1989-.4305-.1984-.0052.2257.0538.4544-.055.6688-.0428.0844-.0853.1655-.1998.1784-.1398.0157-.2076-.0676-.2545-.1661-.0526-.1104-.0493-.2567-.26-.2824-.0298.3137-.0604.6233-.0882.933-.0134.1492.0167.3399-.2246.3473-.2033.0062-.219-.1629-.2498-.3029-.0338-.1542-.0435-.3196-.2056-.484-.3045.7003-.394,1.4029-.5654,2.0872-.0358.1429-.1131.3252.0845.409.2171.0921.3966-.0368.5147-.1846.2947-.3691.6572-.7021.7647-1.1721.0636-.2779.2004-.5055.6234-.3862.1975.0557.3931-.0448.638-.1367M180.637,211.9304c.1973-.6637.3584-1.3301.1729-2.0189-.0467-.1734-.1034-.3436-.3261-.3886-.1311.0321-.172.1189-.2045.2-.2873.715-.5792,1.4285-.7316,2.1793-.199.9807-.4082,1.9539-.8166,2.8962-.3024.6976-.5887,1.421-.5922,2.266.7366-.5456.9702-1.2878,1.2922-1.9783.2585.1107.2552.304.365.4311.1055.1221.2677.2358.3743.0576.2937-.4906.7936-.8548,1.009-1.4001.2249-.5691.5556-1.1059.8384-1.6574.0468-.0912.12-.1487.2339-.1275.1309.0244.192.1177.1869.226-.0054.1125-.0356.2249-.0643.3355-.1163.4488-.1982.9043-.3155,1.3551.8275-1.3264,1.1499-2.7716,1.3329-4.2554-.1281.0298-.1973.0758-.2404.1361-.3446.4821-.4856,1.0128-.4805,1.5784.0012.1377.0167.3074-.2085.3143-.2128.0064-.2383-.1555-.2533-.2956-.0396-.3682.0066-.7312.0919-1.0928.0966-.4097.038-.8085-.1175-1.2184-.1974.1057-.2275.2619-.2844.3993-.3049.7356-.6108,1.4704-.8473,2.2271-.0606.1937-.0895.5633-.418.4711-.3695-.1037-.0406-.3791.0034-.6401M191.9507,185.3235c-.7502.2889-1.4402.6504-1.9479,1.2408.7623-.4536,1.6035-.3686,2.4473-.3284.3697.0176.7484-.0495,1.0211-.3181.175-.1724.187-.3422-.0522-.4787-.4436-.2531-.9096-.3661-1.4683-.1155M191.9376,186.9502c.5158.0826.8413.3526.6939.6467-.3389.6763-.8882.3321-1.4168.1039.0053.2472-.0246.4282.1598.5775.3314.2683.8757.2471,1.3969-.0639.4556-.2718.5746-.5629.4173-.9626-.1579-.4013-.5224-.5628-.9499-.6224-.4591-.064-.8938.0256-1.2325.3239-.1147.1011-.1778.2516-.0633.4077.3477-.0977.5392-.4219.9945-.4108M194.3736,190.376c.1062.0771.1833.1975.3502.1869q.078-.2745.7122-.2521c.0316-.1008-.0337-.1736-.1088-.227-.2648-.1884-.5309-.3763-.8088-.5491-.1383-.086-.2858-.1642-.1855-.3258.1009-.1626.2718-.1047.4159-.0387.223.1021.4402.214.6599.3217-.244-.4436-.7497-.5401-1.1818-.7297-.0801-.0351-.1632.0288-.2296.0791-.2372.1796-.474.3595-.7475.567.3696.317.7266.6233,1.1238.9677M193.2668,191.2803c.1243.1586.2289.3369.503.4067-.0194-.2922-.3132-.3915-.4028-.5981-.047-.1084-.1118-.2246.0192-.3096.146-.0948.267-.0298.3624.0873.1033.1268.1981.2676.4579.2732-.1323-.5257-.5668-.8145-.9351-1.1323-.5394-.4654-.6957-.4492-1.2315.0455.4297.368.8523.7436,1.2269,1.2273M190.6967,218.7303c.2135-.4012.3556-.8234.4167-1.2607.0524-.3749-.0922-.6986-.4409-.9849-.1756.3052-.3365.5741-.378.8723-.0237.1701-.1397.4154.1195.5077.3776.1345.2735.3226.1462.5392-.0677.1151-.1301.2326-.2072.3711.1318-.0081.2168-.0134.3437-.0448M179.3203,219.8109c.5881-1.4114.5972-1.4485.455-1.8466-.4156.7433-.5383,1.5694-.9389,2.317l.1171.0456c.1137-.1549.2274-.3098.3668-.5159M201.6362,210.2439c.0242-.1298.1545-.2485.0451-.409-.2781-.0277-.4132.23-.6659.2716-.2609.043-.2152.2593-.158.4007.0746.1845.2569.1619.4288.0756.1402-.0703.26-.1559.35-.339M192.2503,190.8349c-.1946-.1622-.3169-.41-.6586-.4426-.0351.4341-.0044.815.5853,1.1188-.2778-.3371.0497-.449.0733-.6763M191.1726,196.6531c.0658.4833.2926.6247.6455.3987-.1137-.2403-.2439-.4615-.6455-.3987M194.5351,205.8095c-.0225.2167.0795.411.1193.6297.1384-.005.2863.0052.2663-.1351-.0305-.214-.0453-.4572-.3856-.4946M190.1623,195.0932c.2034-.3041.2825-.6352.2798-.9849-.123.3808-.391.7182-.4521,1.1717.0748-.074.1113-.11.1723-.1868M178.7508,218.9621c.0549-.1262.1102-.2525.0604-.3914-.1119-.0442-.2005-.0043-.2819.0449-.142.0858-.0993.1994-.0257.2933.0459.0585.0452.2684.2472.0533Z"/>
    <path d="M193.5489,200.0289c.0772-.2762.282-.238.4854-.1948.1592.0339.3106.1385.5104.0277-.1431-.2547-.4407-.2559-.6778-.3303-.2671-.0838-.5061-.1809-.6218-.4271-.0404-.086-.0615-.1722.0216-.2469.0821-.0739.1848-.072.2783-.0256.4203.2091.9015.2436,1.3492.3727.2962.0854.5969.1524.8511.3464.3057.2334.7057.1496,1.028.05.364-.1125.6466-.1937.8571.1729.0092.0161.0785.0055.1514.0088.0446-.2668-.0946-.4856-.2007-.7082-.0584-.1224-.1244-.2431.0329-.3371.1564-.0935.2726-.0027.3701.0964.1505.1529.2928.3119.4408.4668.2957.3096.9217.2896,1.2065-.0364.1196-.137.0814-.2528-.0441-.3697-.104-.0969-.1889-.2222-.0441-.3297.144-.1069.274.0014.3761.0868.2985.2498.4577.579.5718.9124.0746.2179-.0663.4175-.2915.5485-.3817.2222-1.3193.2266-1.6932.0082q-.4009.498-1.0708.0091c-.3429.3593-.8607.2554-1.3015.3584-.1593.0372-.3019-.1254-.3991-.2553-.1242-.166-.2758-.2881-.5494-.2875-.1241.4078-.4792.5159-.9169.5032-.1165-.0034-.2302-.0002-.3194.0825-.0912.0844-.1925.1737-.3342.097-.1362-.0738-.0924-.1948-.0736-.3087.0141-.0855.0059-.174.0074-.2908Z"/>
    <path d="M184.6705,220.8545c.2609-.081.3478.0337.3418.2407-.0446,1.5587-.4327,2.9978-1.7332,4.1634-.5677.5088-1.2132.93-1.8115,1.4028-.1018.0805-.2229.1446-.349.0628-.1491-.0967-.094-.228-.0174-.3405.066-.0969.1316-.209.2322-.27.5052-.3063.8894-.7055,1.2544-1.1349,1.0051-1.1826,1.7657-2.4514,1.9658-3.9977.0552-.0767.086-.1016.1168-.1266Z"/>
    <path d="M184.669,220.8294c-.0293.0501-.0601.0751-.1117.1208-.6328.9207-1.2452,1.8203-1.8562,2.7208-.0865.1275-.1505.3198-.37.2259-.239-.1022-.1256-.2898-.0351-.427.382-.579.7726-1.1539,1.1699-1.7249,1.0921-1.5696,2.0124-3.206,2.5689-4.9894.0844-.2703.1085-.5463.1768-.8167.0313-.1239.0831-.2611.2786-.2248.1617.03.1673.1528.1646.2719-.0072.3185-.0937.6231-.1844.9299-.4042,1.3672-1.1496,2.611-1.8015,3.9133Z"/>
    <path d="M187.5331,218.7797c-.2125.4749-.4097.9234-.6148,1.3691-.0636.1382-.1332.3269-.3524.2573-.2634-.0835-.1357-.2665-.0607-.4134.9926-1.9442,1.4555-4.0153,1.8879-6.0933.0412-.198.0292-.4043.0636-.6039.0228-.1326.0471-.3046.2704-.2776.1946.0235.1672.1792.1716.3031.0197.5504-.1418,1.0787-.2607,1.6118-.2877,1.29-.5649,2.5824-1.1049,3.8469Z"/>
    <path d="M201.2896,203.4792c-.235-.8226-.4155-1.6302-.9375-2.3331-.0877-.1181-.2388-.2768-.0537-.4033.1961-.134.3392.0175.4668.1423.0279.0273.0652.0472.0976.07.3982-.3313.5122-.3116.705.1216.1929.4335.3983.8633.5704,1.3032.1673.4276.0837.5316-.4102.6006-.0583.1546.0609.2951.0494.4445-.0125.1623.099.4001-.1923.4319-.2504.0274-.2559-.1894-.2957-.3776Z"/>
    <path d="M195.9184,211.4297c-.1002.1362-.1636.3042-.3658.228-.1899-.0715-.1342-.2308-.0954-.366.075-.2612.0726-.5256.0573-.7916-.0066-.1156-.0019-.2324.1261-.304.142-.0795.2416.0026.3432.0761.0549.0397.1192.1111.1711.1058.5832-.059.5414.3002.5245.6157-.0528.9843-.1924,1.9596-.4714,2.9156-.0456.1563-.1354.3061-.2278.4473-.0697.1065-.1919.1561-.3326.0873-.1393-.0681-.1624-.1797-.0918-.2924.4896-.7815.3628-1.6789.612-2.5058.0746-.2474.0315-.2688-.2493-.216Z"/>
    <path d="M198.0443,196.9149c-.1151-.1296-.2174-.2354-.3163-.3436-.0773-.0845-.1187-.1804-.0344-.2759.0845-.0957.2114-.0912.3137-.0401.3883.1939.6197.5153.8357.8423.0528.0799-.0022.1701-.0845.2359-.2538.2027-.2311.4435-.1174.6945.0607.134.1241.2726-.068.3618-.1611.0748-.2619-.0263-.3696-.1169-.4666-.3927-.9383-.7807-1.4081-1.1705-.1172-.0973-.2593-.2068-.116-.3494.143-.1423.3049-.0404.4106.0578.1975.1834.4513.2561.7067.3384.2559.0824.3227.0009.2475-.2342Z"/>
    <path d="M195.9239,203.625c-.4117.1627-.6643-.0329-.8719-.2678-.1391-.1574-.2231-.3528-.3288-.5325-.0648-.1102-.0907-.2246.0586-.2959.1719-.0821.2626.0221.3449.1358.0991.137.1439.3053.2999.4099.4349-.3054.4332-.3014,1.0368-.1044.3034.099.6092.1412.9158-.0147.1528-.0777.345-.141.4337.0644.0776.1796-.1191.2273-.2491.3005-.4254.2393-.9269.0976-1.3759.216-.0805.0212-.1588.0492-.2639.0888Z"/>
    <path d="M200.8743,207.2294c.0208.1076.0424.1829.0402.2576-.0046.1561.0778.3541-.157.4293-.2312.0741-.2483-.1632-.4159-.2685-.3565.3599-.8234.1747-1.2612.1552-.1672-.0075-.3503-.0983-.354-.2794-.0045-.2232.2078-.1929.3768-.2083.1567-.0143.3115-.0572.4678-.0598.4237-.007.6361-.168.6151-.559-.0085-.1584.0092-.3579.2648-.3681.2168-.0086.2769.1579.3124.3091.0434.1847.0682.3727.111.5919Z"/>
    <path d="M194.1003,215.6028c-.0516-.147.0029-.252.0753-.3465.5063-.6614.7492-1.4141.982-2.1707.0224-.0728.0443-.1462.0757-.2161.045-.1001.1194-.1832.2563-.1602.1499.0252.2285.1258.1958.2517-.239.9216-.4333,1.8593-1.147,2.6211-.1275.1361-.257.2077-.4381.0209Z"/>
    <path d="M196.8694,214.4628c.0453-.2359.1489-.4346-.0023-.6486-.0718-.1016.0119-.2279.1198-.2976.1957-.1265.298-.2975.3725-.493.0417-.1093.1169-.2162.2736-.2.1697.0176.2389.1352.247.2688.0264.4335-.0473.8536-.2726,1.2439-.1357.2351-.2892.4622-.4358.6924-.073.1146-.1584.2274-.3337.16-.151-.0581-.1281-.1832-.0989-.2953.0352-.1347.0813-.2671.1303-.4305Z"/>
    <path d="M197.2407,195.9408c-.2234-.0442-.3026-.1567-.2066-.3092.164-.2603.1141-.5089-.0063-.7606-.0609-.1273-.0797-.2469.069-.3341.1511-.0887.2887-.0231.3797.0758.3143.3419.6173.6919.9175,1.0435.089.1042.1501.232.0044.3364-.1615.1157-.2923.0342-.4031-.0805-.0735-.0762-.1422-.1559-.2195-.2411-.1953.1039-.3493.1859-.5352.2698Z"/>
    <path d="M198.8949,196.3962c.136-.2339.2954-.16.4176-.0375.4057.4067.8048.819,1.1901,1.2407.0988.1081.2367.2762.026.392-.1983.109-.2915-.0559-.4021-.1775-.3219-.3536-.6598-.6959-.9891-1.0444-.0991-.1048-.2322-.1923-.2425-.3733Z"/>
    <path d="M196.477,209.5142c-.3368-.2673-.1774-.5948-.154-.8829.0138-.1693.2326-.1372.3528-.0054.1927.2113.0977.7088-.1988.8883Z"/>
    <path d="M180.5094,213.6513c-.1754.3491-.3443.6687-.5194.9858-.0528.0955-.1398.1691-.2728.1408-.1267-.027-.219-.1239-.1767-.2245.1727-.4108.1048-.8829.4164-1.2563.1032-.1236.1541-.3401.4083-.237.2175.0881.2542.2575.1741.4497-.0146.0351-.0175.0739-.0299.1414Z"/>
  </g>
  <g>
    <path d="M60.7359,193.7924c-1.9845-2.0131-4.6404-2.6882-7.1956-3.5445-.4168-.1397-.8459-.2677-1.2296-.4678-.5521-.2879-.9209-.7135-.1739-1.1443.5568-.3211.4229-.9205.4872-1.2531.2303-1.1912,1.2995-1.0486,2.033-1.4292.0809-.042.2882-.0071.2904-.0241.1773-1.3269,1.562-.8379,2.2835-1.3456.5933-.4175,2.5837.3105,2.808.9869.0505.1524.1395.3053.1402.4588.0065,1.4223,1.0079,1.9676,2.2624,2.3093.5886.1603,1.1716.3402,1.7508.5282,1.9472.6319,3.2502.1654,4.3713-1.4945,1.2582-1.8627,3.0817-3.1662,5.0281-4.3351.3115-.1871.6151-.3859.9638-.6053-.3264-.5729-.6464-.9311-1.3729-.615-1.1777.5124-1.6092.4128-2.1862-.6518-.4499-.8301-.8179-1.6422-1.97-1.7897-.416-.0533-.6953-.4294-.4783-.7952.3652-.6155.203-1.3124.5139-1.9444.3308-.6726-.3218-1.2035-.6251-1.7379-1.0781-1.8991-.1292-4.5228,2.0451-5.1711,1.1444-.3412,2.3262-.1274,3.1774.7731,2.3413,2.4771,4.3084,5.1239,5.1057,8.4752.6658,2.7985,1.7114,5.5137,2.345,8.3265.5631,2.4998,1.2351,4.9788,1.6451,7.5246.1101-3.4551.9426-6.7792,2.1871-9.9992,1.7166-4.4418,3.6292-8.8013,7.2068-12.3125.82-.8047,1.7599-1.4391,2.7476-1.9922,1.6921-.9474,3.1281-.173,3.5213,1.6812.2899,1.3669-.1848,2.4754-1.0719,3.4568-.8076.8935-.8303,1.8513-.6039,2.8945.2616,1.2059.0184,1.4752-1.3229,1.4866-.2378.002-.477-.0181-.7133-.0447-.481-.0543-.773.0186-1.0089.5391-.5547,1.2242-.9459,1.3251-2.2963.81-.5264-.2008-.8543-.1408-.9152.4863,1.3935.7715,2.7916,1.2369,4.5215,1.0699,2.7405-.2645,5.485-.6036,8.2542-.567,1.339.0177,2.643.2481,3.958.401.6242.0726,1.1379-.0103,1.6502-.3092.7125-.4157,1.5047-.6253,2.3219-.7215.5885-.0693,1.197-.0923,1.2904.7023.0599.5094.5766.3978.8846.4407,1.338.186.8499,1.2476.9671,1.9105.1275.7214-.6938.551-1.1425.5716-3.3664.155-6.7341-.1106-10.1065.1598-1.7066.1368-3.2501.719-4.8506,1.1621-.4592.1271-.7383.4431-.5073.8787.7172,1.3523,1.7625,2.5673,3.8455,1.9785,1.9591-.5538,3.9551-.9942,5.9466-1.4365.4843-.1076.7715-.3954,1.0861-.6768.6479-.5794,1.3005-1.1545,2.1158-1.5171.6331-.2816,1.1349-.2115,1.2465.5728.6679.0655,1.2959-.2962,2.008-.051.5959.2051.9795.594,1.0456,1.046.0734.501-.152,1.0404-.7095,1.3982-.9863.6331-2.1512.5818-3.2316.8312-.9055.209-1.7281.5056-2.5583.9203-2.4621,1.2299-4.8213,2.7216-7.6902,3.0461-.7622.0862-.9076.6042-.8515,1.2021.1753,1.8687-.0919,3.7046-.485,5.5321-.0607.2824-.0649.6191-.2364.8299-.9724,1.1959-.4709,2.1958.3729,3.1759,1.1179,1.2986,1.7649,2.7473,1.9135,4.4533.0768.882-.0295,1.6534-.6616,2.2162-1.8676,1.6628-2.32,3.9548-3.2541,6.0355-.2301.5126.0623.7294.5125.8254.7281.1553,1.4709.2524,2.1982.4107.704.1532,1.1556.5673,1.1498,1.2774-.0055.6713-.545.8828-1.1274,1.0741-.7319.2404-1.4632.2931-2.2183.1858-.4582-.0651-.9195-.1586-1.4563-.027.2422.889,1.0346.9585,1.6558,1.1433.7728.2298,1.5983.3037,2.3961.4655.7437.1508,1.4252.4474,1.4015,1.2764-.0222.7773-.8106.8938-1.3973,1.0763-1.0001.3111-2.0327-.0058-3.0547.038-1.1286.0484-2.2456.136-3.361.3099-1.735.2705-2.598-.6685-2.079-2.2815.6402-1.9897.7588-4.0373.7224-6.0767-.0272-1.5226-.4428-3.0218-.0149-4.5704.187-.6769-1.1703-1.3764-2.0397-1.1087-1.5276.4703-3.0475.9597-4.6488,1.168-3.1695.4122-6.2503.0118-9.292-.7912-1.5171-.4005-2.8582-1.1919-4.3352-1.676-1.1582-.3796-1.4883-.2362-1.7748.8537-.7434,2.828-.4518,5.5249,1.218,8.02.1446.2161.3004.4275.4226.6547.5437,1.0104.2402,1.705-.9428,2.095-.7054.2326-1.4299.4133-2.167.6233-.0924.6632.3909,1.108.5452,1.6471.3508,1.2261-.1769,2.0597-1.5121,2.0005-2.2622-.1003-4.4772.3437-6.7208.4022-.2048.0053-.4092.0261-.614.0361-.6472.0318-1.0912-.2767-1.1691-.8433-.0795-.5775.4175-.8888.9454-.9646.9594-.1377,1.8694-.3906,2.72-.8197,1.6709-.8428,1.8068-1.2408,1.2043-2.921-.6836-1.9065-1.3678-3.8114-2.3194-5.6172-.6973-1.3231-.6274-2.6391-.0479-3.9939,1.0215-2.3881,2.2411-4.6808,3.6909-6.865.3771-.5681.5396-1.1736.1676-1.723-1.1687-1.7256-1.4648-3.6033-1.2572-5.6011.0324-.312-.0317-.6322-.0573-1.0483-1.8062.1334-2.9372-.9884-4.2372-1.9501M77.3434,182.4471c.301-.0443.664-.1575.7957.2024.1422.3887-.2233.5699-.5102.7358-.5656.3272-1.3898.429-1.1607,1.3603-.6677-.0562-.7846-.496-.8914-.8769-.1802-.6428-.5628-.6598-1.0616-.3578-.7769.4705-1.6227.8807-2.2844,1.47-.9697.8635-2.1801,1.5562-2.7778,2.9187.5395-.0913.8446.1709,1.353.4749.1502-1.2819,1.4653-1.3476,2.1149-2.1125.3395-.3998.7713-.143,1.0825.1075.3439.2769.1452.5858-.0813.8444-.4199.4792-.9573.8355-1.5213,1.138-2.2335,1.1976-4.3319,2.5845-6.3976,4.0169-1.1371.7885-1.6248.8193-2.7508.0506-1.0998-.7508-2.1644-1.5602-3.4499-2.0216-1.0757-.3861-1.8695-1.0087-2.2903-2.0332-.0825-.2008-.2573-.3676-.3821-.5399q-2.133.4823-3.1715,1.5602c.6108.2864,1.2299.7653,1.8942.6014.8007-.1975,1.328.0952,1.8646.4877,1.5822,1.1576,3.149,2.3336,4.7207,3.5037.6025.4485,1.2022.8499,2.011.3476.2202-.1368.5261-.2506.6916.0952.1733.3622.3908.1271.5729.0359.7836-.3927,1.5828-.7644,2.3326-1.2093,2.2528-1.3368,4.7915-2.0348,7.2371-2.9393.3707-.1371.8696-.2368.9851.321.1218.5888-.2987,1.193-.7818,1.1298-.5927-.0776-.8539.2705-1.2738.3805-.8976.2352-1.4411,1.0041-2.2326,1.3022-1.2248.4613-2.5703.6197-3.6484,1.4443-.2754.2107-.6764.3003-1.0353.3859-1.0948.2612-1.3266,1.0005-1.4397,1.9411-.1706,1.4178.4945,2.6174.9214,3.8803.3706,1.0962.5436,1.1078,1.6387.4911.4332-.244.8502-.8042,1.6736-.2587-1.9726,1.4205-3.2417,3.2303-4.3661,5.1815-1.1163,1.9371-2.1981,3.8449-2.3836,6.1052.573.019.5658-.6437,1.0544-.4887.1892.06.2262.2191.2169.3904-.039.7135-.6177.8715-1.2533.9506.5145,2.3469,1.4039,4.4618,2.4171,6.5608.8345,1.7287,1.2284,2.1574-.6783,3.6603-.1197.0943-.2895.184-.1892.4924,1.2615-.1541,2.5409-.3104,3.9302-.4801-.4762-1.2882-1.1944-2.3718-1.135-3.6693.0338-.737-.1624-1.4108-.5259-2.1032-.3453-.6577-.679-1.3151-1.2251-1.8521.6328-.4161.8351.1927,1.2703.2926-.276-.625-.5336-1.1783-.7665-1.7409-.7888-1.9057-.5524-3.6214,1.0731-5.1119.4453-.4083.8205-.6841,1.2798-.1258.8414-.5252,1.1802-1.4815,2.1029-1.772,1.0384-.3269,1.8957-.8442,2.5536-1.673.2409-.3035.5475-.7429.9656-.6088.6193.1986.8782-.1612,1.2214-.4546.2394-.2046.5057-.4122.7931-.1316.2357.2301.0544.4785-.1159.6897-.5758.7142-1.1434,1.4352-1.8444,1.9308.9377,1.4477,1.9833-.2917,2.9382.0373.1879.727-.8318.6275-.7434,1.1709.1171.158.2736.1955.3824.1245.7872-.5133,1.5338.0334,2.2972.0582.3652.0119.4233.279.2204.5563-.144.1968-.5192.2089-.5083.5831.7774.0747,1.3982-.8925,2.1212-.4431.2934.4192-.2039.5188-.1096.8455.7103-.2421,1.3621-.313,2.1194.0328.3562.1626.8362.6339,1.3833.3374,1.0319-.5592,2.2718-.0241,3.3042-.5977.2239-.1244.4383.0395.64.1837.4313.3082.838.4764,1.3343-.0137.519-.5125.333-.8961-.0443-1.3326-1.259-1.4566-2.3907-3.0118-3.8393-4.3224-.2409-.2179-.6972-.4649-.4257-.8696.2275-.3392.5461-.6312,1.0761-.6298,1.0361.0027,1.6881.5532,2.2298,1.2736.2089.2778.2633.741.7151.7248.623-.0223.6816.3582.8468.7611.2021.4929.1577,1.0523.619,1.4844,1.2656,1.1853,1.9607,2.7485,2.9364,4.1273.1284.1814.082.5056.043.7539-.2565,1.6328-.1612,3.2924.0312,4.8867.2424,2.0085.0148,3.8663-.7691,5.7131-.2109.4969-.2925.9734.2896,1.3232q.5478-.6058.4451-1.2948c-.0805-.5403.0943-.703.8174-.6985-.4112.8742-.0999,1.2348.8996,1.2367.4762.0009,1.0312.0178,1.4548.5822.1864-.6047.8221-.5,1.1331-.9418-.3277-.155-.6171-.3138-.9241-.4335-1.8058-.7043-2.2192-1.5099-1.7056-3.281.3889-1.3408,1.1059-2.5595,1.6148-3.8549.7196-1.8318,1.3664-3.7779.6912-5.6333-.8089-2.223-2.0652-4.3011-3.1575-6.4283-.188-.3662-.5725-.6397-.7807-.9999-.3027-.5236-.0772-.9401.4854-1.1667.5962-.2402.6121.2144.7931.5678.3451.6741.6853,1.3665,1.215,1.911.4476-.1131.577-.4153.7544-.6922,1.0463-1.6337,1.5872-3.4158,1.6823-5.2947.0805-1.5898.5692-3.4023-1.7983-4.0464-.0468-.0127-.0718-.1042-.1011-.1616-.3869-.7582-1.5136-1.1041-1.9099-1.0411-1.3838.2198-2.1832-.7664-3.3016-1.0036-1.1573-.2455-1.5402-1.1751-1.9806-2.0253.4599-.4467.8231-.1824,1.2019-.0714,2.118.6206,4.0886,1.5739,6.1434,2.3341.6614.2447,1.4114.6962,2.1333.3436,1.0784-.5267,2.2515-.7512,3.3699-1.1413.2233-.0779.5477-.1599.6926.2543-1.0957.6585-2.5207.6244-3.6768,1.4456,1.0985.6212,2.0403.2231,2.9347-.1023,3.231-1.1755,6.0545-3.2288,9.6316-3.9834-.5611-.2667-.8436-.6006-.2324-1.2429-.8982.2895-1.5033.8077-2.2524.3258-.1868-.1202-.4348.1298-.6014.2917-.2679.2603-.5819.4417-.94.5718-2.3317.8474-4.7897,1.2527-7.1844,1.8784-1.3742.359-2.4577.24-3.6396-.6516-1.625-1.226-3.3108-2.4592-5.4189-2.9683-.3258-.0787-.6798-.2348-.5854-.6571.07-.3134.219-.7752.5571-.72.5993.0978,1.4891.0246,1.7423.2922.6187.6541,1.7658.7287,2.0515,1.6997.0255.0867.2431.0889.5056-.2283-2.6336-2.4171-5.0426-5.1393-9.5523-4.414-.2885.2663-.307.8462-.5231,1.3463-1.9717,4.5631-2.8678,9.2839-2.4988,14.1973.1057,1.408.05,2.8159-.3275,4.2021-.0834.3061-.0198.7111-.5044.6945-.4687-.016-.4267-.4133-.4638-.7265-.128-1.0833-.054-2.168-.0167-3.2536.0779-2.2673-.685-4.4211-1.0929-6.6119-.888-4.77-2.1327-9.4786-3.9087-14.028-.8874-2.2731-1.9185-4.5275-3.6044-6.4075-1.0575-1.1793-2.5359-1.696-3.8512-.3104.7265.2685.7001.5943.1013,1.0045-.2228.1526-.6209.3853-.3671.6865.3925.4659-.1542.7266-.2284,1.0921.5005-.1602.9354-.3412,1.3899-.4344.5905-.1212.9501.1195.8646.7192-.0986.6917-.9113,1.1562-1.7571.9588.4087.9802-.1956,1.8971-.154,2.9145.8109-.1197,1.2326.2549,1.4847.8163.1613-.0336.2674-.037.3547-.0771.3458-.159.7344-.3662,1.0159.0027.3448.452-.1744.552-.4345.7807-.335.2946-.3236.6141.1501.8439.715-.3563,1.2237-.9228,1.7219-1.4862.3852-.4356.5032-1.0842.1002-1.4147-.6035-.495-.5058-.8782-.0345-1.3889-.346-.1084-.5974-.2025-.8575-.2656-.7051-.1712-.6111-.7802-.7419-1.2413-.0867-.3054.1414-.5645.4594-.6712.5177-.1738,1.0194-.1563,1.3999.2737.6395.7226,1.065,1.499.5415,2.4553-.3519.6429.1908,1.2617.5306,1.3069.6538.087.8168.5903,1.2438.7423.0145.4489-.4664.6478-.3813,1.0401,1.0583.6231,1.2734,1.1734.6509,2.0553-.6786-.0294-.7397-.6263-1.0405-1.0206.0336.5013-.0285.9991.2015,1.4508.4538.0042.7569-.1561,1.1404-.491M92.3857,180.3514c-.3434-.2186-.9644-.4127-.4369-.8859.3025-.2714.498-.5713.7456-.8593.382-.4445.9082-.5015,1.478-.2534.3992.1738.4604.9048,1.105.6287.6494-.2781.0615-.8953.3476-1.298.0786-.1107.1287-.2903-.0411-.4372-.2199.257-.3393.7095-.8262.5127-.4311-.1742-.2624-.5305-.1824-.8354.0611-.2331.0762-.4573-.1601-.6016-.271-.1655-.7179-.2353-.5056-.6724.1716-.3534.586-.269.9136-.2981,1.8718-.1661,2.2019-.4699,2.5904-2.1884.1869-.8267-.3896-1.2372-.8818-1.7052-.4999-.4752-1.0211-.1835-1.4976.059-1.1865.6039-2.1588,1.442-3.0235,2.5416.6719-.0083,1.0422.3007,1.1231.8338.0847.5582-.5394.4712-.8142.7069-.2708.2323-.7477.2426-.8392.6551-.0686.3093-.0241.6931-.4853.7374-.5251.0505-.4328-.4836-.8182-.7125.1668,1.2671.0758,2.523-.0144,3.8895.7722-.0207,1.4248.6237,2.2229.1828M98.1229,183.3697c-.2727.019-.5459.0323-.8179.0586-.2988.0289-.666-.015-.7841.3271-.1098.3182.1648.5443.3656.7472.6693.6765,1.7078.9497,2.4844.8217,1.3239-.2183,2.6358-.5522,4.1487-.6483-.957-.2927-1.8967-.0373-2.6128-.6654,1.2185-.1515,2.5463-.281,3.5669.2461.6193.3198,1.1145.4276,1.7374.4173,1.357-.0225,2.716-.3442,4.0714.0118.277.0728.5379-.0132.7546-.273-.0386-.1305-.0845-.2807-.1276-.4317-.3396-1.1867-.6838-1.3363-1.8486-.7423-.6094.3108-1.2348.3686-1.8857.2372-2.9406-.5938-5.8979-.4254-9.0524-.1062M67.9759,211.3358c-.1475.0776-.4272.2175-.4238.224.3929.7437-.4753,1.7922.6228,2.3649.1553.081.1516.2585.1485.4298-.0249,1.3684.1696,2.7219.3942,4.0643.1048.6261-.2146,1.4039.4943,1.8613.8598.5547,1.2658-.5206,1.9742-.562.0309-.0018.056-.1016.1336-.2528-1.5035-1.0664-1.6228-2.6585-1.6535-4.2919-.0126-.6687-.1674-1.2718-.6573-1.8505-.3487-.4118-.4868-1.0733-.2733-1.6519.5544-.0717.349.5295.7269.5859q-.0642-1.3962-1.4866-.921M60.699,189.8236c.975.6457,2.1757.878,3.344,1.3326.2581-.6008,1.1298-.6016,1.9165-.7383-1.7937-.6261-3.5302-1.1559-5.2566-1.7125-.6103-.1968-1.0513-.6275-1.2644-1.1848-.2555-.6681-.6341-1.1654-1.4008-1.3344-.4709,1.0215.7941,2.8054,2.6614,3.6374M98.1299,206.0044c.8055,1.1761,1.1938,2.5352,1.768,3.9236,1.2543-2.1796.1795-3.6646-1.8726-5.9829q-.6719.816-.6813,1.8927c.2271.0252.4541.0503.7858.1667M88.4254,180.3518c-.2086-.219-.4395-.2107-.5711.0422-.2317.4455-.519.8841-.5334,1.4431.5424.1584,1.0151.1307,1.4841-.0688.0706-.4994-.0907-.9075-.3796-1.4165M97.3543,218.7339c-.5949.5175-.0689.6256.3198.6978.846.1571,1.7285-.4123,2.5811.1369-.7692-.8064-1.8386-.607-2.9009-.8347Z"/>
    <path d="M94.5379,214.6004c.0488-1.4653.0972-1.6233.8046-2.326-.0899,1.4747-.1689,2.7694-.2639,4.3262-.7175-.7321-.4321-1.3625-.5407-2.0003Z"/>
    <path d="M62.5867,192.8872c-.8055-.4-1.5493-.7889-2.396-1.2315.9437-.2964,2.4621.3879,2.6523,1.0721.0105.0379-.1263.1129-.2563.1594Z"/>
    <path d="M96.1989,211.2783c.9997-.1334.9339.7913,1.6109,1.1061-.9702.3691-1.3897.0446-1.6109-1.1061Z"/>
    <path d="M71.5873,178.2655c-.1594.3111-.3385.5294-.6599.3816-.381-.1753-.474-.5046-.4258-.9242.5544-.1877,1.0047-.2379,1.0857.5426Z"/>
    <path d="M69.1142,218.873c-.1396-.3285-.1814-.5998.2394-.5904.3387.0075.5267.2564.6009.5542.0575.2308.0126.4868-.2297.5745-.455.1647-.4283-.2689-.6106-.5383Z"/>
  </g>
  <g>
    <polygon class="cls-12" points="93.7182 200.4328 93.7182 254.0091 106.4554 238.7129 120.2631 263.9953 133.7494 256.9416 120.2631 232.214 141.3442 232.214 93.7182 200.4328"/>
    <g id="cursor-click-svgrepo-com">
      <path class="cls-11" d="M110.1576,192.3921l11.5459-5.8417,1.8405,4.0626-12.2063,6.1795-1.1802-4.4004ZM111.0225,173.0204l-4.0176-1.4998-4.3798,13.1291,3.7151,2.4096,4.6823-14.0389ZM71.745,211.8268l1.8405,4.0626,12.2063-6.1705-2.5009-3.7338-11.5459,5.8417ZM83.7681,175.7859l4.6098,10.1835,3.843-1.9412-4.6099-10.1835-3.843,1.9412ZM82.311,194.9278l-12.4236-4.6301-1.4145,4.2473,13.2799,4.9544.5581-4.5715ZM146.9725,234.2613h-23.2324l12.9178,27.2446-16.7863,8.9224-13.2331-27.7085-14.2556,20.6463v-71.217l54.5896,42.1123ZM116.7912,229.6672h17.0718l-37.2622-28.7444v48.5394l10.6555-15.4352,14.4558,30.2668,9.1814-4.8823-14.1022-29.7443Z"/>
      <path class="cls-4" d="M54.0384,166.7015h102.2517v108.0956H54.0384v-108.0956Z"/>
    </g>
  </g>
  <path class="cls-13" d="M443.3053,158.2835l-.0841-2.4216c-.1121-3.2288-.2242-6.4577-.3362-9.6865-37.6848,2.5941-66.41,1.2149-67.8387-3.884-.1704-.6082-.6404-3.7243-.7336-7.3144-.0792-3.0507.1298-5.8213.2572-6.4082,1.0882-5.0098,29.5555-4.3115,66.8898.6271l-.3362-9.6865-.1681-4.8433c.3894.1228,1.3491.4318,2.5385.8913,4.0989,1.5833,10.4264,4.7606,26.614,20.2417,1.2066,1.154,2.1551,2.077,2.5945,2.5057-.4437.4371-1.3141,1.289-2.4264,2.3376-7.8069,7.3592-14.7028,13.7363-24.4883,16.9181-1.1757.3823-2.1261.6316-2.4825.7232Z"/>
  <g>
    <path class="cls-13" d="M717.8517,221.4246c-1.6225-.7757-4.078-1.6408-6.7244-1.1583-2.7574.5027-3.448,2.0538-6.052,2.8958-3.0598.9894-4.6411-.3326-10.0867-1.1583-7.5029-1.1376-14.4981-.1439-15.4662,0-4.8236.7169-7.0479,1.8316-9.4142.5792-2.3418-1.2394-1.7721-3.1824-4.0347-4.0541-1.8315-.7056-3.0192.2539-9.4142,1.7375-3.5412.8215-5.3118,1.2322-6.7244,1.1583-2.0914-.1095-4.3082-.8452-8.7418-2.3166-2.9754-.9875-3.5304-1.3044-4.7071-1.1583-2.5356.3149-2.6578,2.1219-5.3796,2.8958-2.1112.6003-2.9939-.2151-7.3969-.5792-3.9955-.3304-3.6955.3057-6.7244,0-3.8501-.3886-4.6178-1.445-11.4316-2.8958-2.6-.5536-4.1948-.7632-5.3796,0-1.3254.8537-.8378,2.0874-1.8892,2.9756-1.8463,1.5596-5.6009-.3433-10.8872-1.2381-6.8967-1.1674-6.7304,1.0178-14.7938,0-6.0165-.7595-7.7157-2.1789-11.4316-1.1583-2.3647.6495-3.3378,1.6806-6.052,1.7375-2.345.0491-3.2349-.6866-6.052-1.1583-1.699-.2845-4.1881-.4878-7.3969,0,.3446-1.3844.8246-3.3797,1.3449-5.7915,1.5922-7.3808,2.3809-11.1393,2.0173-14.4789-.6011-5.5214-2.7415-4.821-2.6898-9.2665.0621-5.3416,3.1567-6.731,2.6898-12.1622-.3179-3.6976-1.7633-3.1822-2.0173-6.9499-.3602-5.3424,2.5052-6.9824,1.3449-11.5831-.7073-2.8045-1.9258-2.8046-2.0173-5.2124-.1202-3.163,1.9399-4.2864,2.6898-7.529.7134-3.0846-.6332-4.306-1.3449-8.1082-1.1614-6.2046,1.4446-8.1877,2.0173-15.6372.2309-3.0029.1666-7.3514-1.3449-12.7414,10.3366,1.636,18.5573,1.5517,24.208,1.1583,5.9998-.4177,7.693-1.0858,14.1213-1.1583,8.3072-.0937,9.7944.9733,18.8284,1.1583,10.6536.2182,9.9555-1.2377,16.8111-.5792,10.8155,1.0389,11.3789,4.5497,19.5009,4.0541,5.3748-.3279,5.9032-1.9127,14.7938-2.8958,5.1591-.5705,4.5048.0158,10.7591-.5792,9.0627-.8621,10.9019-2.1375,15.4662-1.1583,3.8941.8354,3.8175,2.0343,7.3969,2.3166,4.0899.3225,5.2103-1.1623,10.0867-1.1583,3.909.0032,4.4721.9584,8.0693,1.1583,2.6997.15,6.573-.1552,11.4316-2.3166-.4651,1.4559-1.0568,3.6551-1.3449,6.3707-.3783,3.5664.2057,3.8891,0,7.529-.348,6.1584-2.1508,7.5594-.6724,10.4248.3378.6547,1.346,1.7878,3.3622,4.0541,2.1226,2.3857,3.3509,3.4666,3.3622,5.2124.005.7724-.2306,1.3094-.6724,2.3166-.8665,1.9754-1.9257,2.9101-3.3622,4.6332-2.4768,2.971-3.7152,4.4565-3.3622,5.7915.4365,1.6509,2.4845,1.4913,4.0347,3.4749.3617.4628,1.2007,1.6878.6724,7.529-.4359,4.8195-1.1533,5.6017-1.3449,9.8456-.166,3.679.3631,3.3126,0,5.2124-.9824,5.1398-4.5221,6.0771-4.0347,9.2665.3782,2.4752,2.5613,2.2453,4.0347,5.7915.7677,1.8477.4313,2.5269.6724,7.529.2051,4.255.4672,4.1508.6724,8.1082.1129,2.1763.1967,5.3523,0,9.2665Z"/>
    <text class="cls-15" transform="translate(587.2383 173.8604) scale(1.0484 1)"><tspan class="cls-16" x="0" y="0">a</tspan><tspan x="14.3844" y="0">pple</tspan></text>
  </g>
  <g>
    <path class="cls-13" d="M916.0145,170.3249c-1.6225-.7757-4.078-1.6408-6.7244-1.1583-2.7574.5027-3.448,2.0538-6.052,2.8958-3.0598.9894-4.6411-.3326-10.0867-1.1583-7.5029-1.1376-14.4981-.1439-15.4662,0-4.8236.7169-7.0479,1.8316-9.4142.5792-2.3418-1.2394-1.7721-3.1824-4.0347-4.0541-1.8315-.7056-3.0192.2539-9.4142,1.7375-3.5412.8215-5.3118,1.2322-6.7244,1.1583-2.0914-.1095-4.3082-.8452-8.7418-2.3166-2.9754-.9875-3.5304-1.3044-4.7071-1.1583-2.5356.3149-2.6578,2.1219-5.3796,2.8958-2.1112.6003-2.9939-.2151-7.3969-.5792-3.9955-.3304-3.6955.3057-6.7244,0-3.8501-.3886-4.6178-1.445-11.4316-2.8958-2.6-.5536-4.1948-.7632-5.3796,0-1.3254.8537-.8378,2.0874-1.8892,2.9756-1.8463,1.5596-5.6009-.3433-10.8872-1.2381-6.8967-1.1674-6.7304,1.0178-14.7938,0-6.0165-.7595-7.7157-2.1789-11.4316-1.1583-2.3647.6495-3.3378,1.6806-6.052,1.7375-2.345.0491-3.2349-.6866-6.052-1.1583-1.699-.2845-4.1881-.4878-7.3969,0,.3446-1.3844.8246-3.3797,1.3449-5.7915,1.5922-7.3808,2.3809-11.1393,2.0173-14.4789-.6011-5.5214-2.7415-4.821-2.6898-9.2665.0621-5.3416,3.1567-6.731,2.6898-12.1622-.3179-3.6976-1.7633-3.1822-2.0173-6.9499-.3602-5.3424,2.5052-6.9824,1.3449-11.5831-.7073-2.8045-1.9258-2.8046-2.0173-5.2124-.1202-3.163,1.9399-4.2864,2.6898-7.529.7134-3.0846-.6332-4.306-1.3449-8.1082-1.1614-6.2046,1.4446-8.1877,2.0173-15.6372.2309-3.0029.1666-7.3514-1.3449-12.7414,10.3366,1.636,18.5573,1.5517,24.208,1.1583,5.9998-.4177,7.693-1.0858,14.1213-1.1583,8.3072-.0937,9.7944.9733,18.8284,1.1583,10.6536.2182,9.9555-1.2377,16.8111-.5792,10.8155,1.0389,11.3789,4.5497,19.5009,4.0541,5.3748-.3279,5.9032-1.9127,14.7938-2.8958,5.1591-.5705,4.5048.0158,10.7591-.5792,9.0627-.8621,10.9019-2.1375,15.4662-1.1583,3.8941.8354,3.8175,2.0343,7.3969,2.3166,4.0899.3225,5.2103-1.1623,10.0867-1.1583,3.909.0032,4.4721.9584,8.0693,1.1583,2.6997.15,6.573-.1552,11.4316-2.3166-.4651,1.4559-1.0568,3.6551-1.3449,6.3707-.3783,3.5664.2057,3.8891,0,7.529-.348,6.1584-2.1508,7.5594-.6724,10.4248.3378.6547,1.346,1.7878,3.3622,4.0541,2.1226,2.3857,3.3509,3.4666,3.3622,5.2124.005.7724-.2306,1.3094-.6724,2.3166-.8665,1.9754-1.9257,2.9101-3.3622,4.6332-2.4768,2.971-3.7152,4.4565-3.3622,5.7915.4365,1.6509,2.4845,1.4913,4.0347,3.4749.3617.4628,1.2007,1.6878.6724,7.529-.4359,4.8195-1.1533,5.6017-1.3449,9.8456-.166,3.679.3631,3.3126,0,5.2124-.9824,5.1398-4.5221,6.0771-4.0347,9.2665.3782,2.4752,2.5613,2.2453,4.0347,5.7915.7677,1.8477.4313,2.5269.6724,7.529.2051,4.255.4672,4.1508.6724,8.1082.1129,2.1763.1967,5.3523,0,9.2665Z"/>
    <text class="cls-15" transform="translate(792.9629 122.7598) scale(1.0484 1)"><tspan x="0" y="0">t</tspan><tspan class="cls-14" x="11.4876" y="0">r</tspan><tspan class="cls-17" x="24.4562" y="0">ee</tspan></text>
  </g>
</svg>