<svg version="1.1" id="Layer_1" xmlns="http://www.w3.org/2000/svg" xmlns:xlink="http://www.w3.org/1999/xlink" x="0px" y="0px"
	 width="100%" viewBox="0 0 352 336" enable-background="new 0 0 352 336" xml:space="preserve">
<path fill="#000000" opacity="1.000000" stroke="none" 
	d="
M71.556488,154.450974 
	C62.499588,143.375809 49.773792,139.026276 37.592842,133.769257 
	C35.605911,132.911743 33.555294,132.110489 31.747795,130.950302 
	C29.146830,129.280838 27.478775,126.955299 31.243971,124.959480 
	C34.050289,123.471931 33.578091,120.319878 33.990704,118.615273 
	C35.468468,112.510284 40.630356,113.591225 44.314972,111.851234 
	C44.721371,111.659317 45.719822,111.906143 45.735947,111.818810 
	C46.996380,104.992874 53.590363,107.971573 57.254425,105.568398 
	C60.267612,103.592117 69.737770,108.003670 70.626953,111.583557 
	C70.827324,112.390251 71.214523,113.211739 71.171944,114.008041 
	C70.777420,121.387466 75.488686,124.535599 81.492760,126.708221 
	C84.309868,127.727608 87.093712,128.846878 89.856644,130.006607 
	C99.145622,133.905655 105.627937,131.902054 111.582619,123.650627 
	C118.265182,114.390556 127.531906,108.211723 137.356644,102.770348 
	C138.928955,101.899513 140.466202,100.965324 142.229477,99.938194 
	C140.812225,96.862213 139.361847,94.902512 135.731094,96.309822 
	C129.844833,98.591362 127.774200,97.937233 125.284744,92.230881 
	C123.343674,87.781578 121.795616,83.452225 116.231834,82.319145 
	C114.222900,81.910019 112.975845,79.869942 114.141808,78.041824 
	C116.103691,74.965752 115.523216,71.299484 117.225815,68.120407 
	C119.037636,64.737396 116.020073,61.775349 114.703590,58.906853 
	C110.024803,48.712231 115.429855,35.406670 126.207596,32.738110 
	C131.880402,31.333527 137.568985,32.819817 141.442322,37.762463 
	C152.096649,51.358166 160.878998,65.714455 163.756210,83.351677 
	C166.158768,98.079346 170.434937,112.496857 172.676315,127.288376 
	C174.668365,140.434418 177.196640,153.506912 178.429993,166.842133 
	C180.001083,148.956223 185.049393,131.980469 192.071548,115.676041 
	C201.758041,93.185371 212.373993,71.183723 230.840759,54.114002 
	C235.073105,50.201832 239.838333,47.211296 244.812180,44.658001 
	C253.332626,40.284077 260.090454,44.759335 261.449219,54.502098 
	C262.450928,61.684406 259.807922,67.282639 255.195816,72.089920 
	C250.996964,76.466423 250.599686,81.427467 251.388931,86.910294 
	C252.301285,93.248383 251.036743,94.567879 244.504166,94.198631 
	C243.345886,94.133148 242.187668,93.952629 241.045563,93.738930 
	C238.720596,93.303917 237.277191,93.588707 235.973129,96.213264 
	C232.906143,102.385887 230.972031,102.784294 224.553009,99.681358 
	C222.050705,98.471756 220.436493,98.678551 219.952515,101.911766 
	C226.504272,106.358376 233.170441,109.218506 241.641342,108.904694 
	C255.060364,108.407539 268.521240,107.524826 281.989990,108.598984 
	C288.502380,109.118347 294.781067,110.729477 301.136047,111.942245 
	C304.152466,112.517891 306.678162,112.251976 309.261444,110.865051 
	C312.854218,108.936134 316.773193,108.102257 320.780060,107.864243 
	C323.665192,107.692871 326.634308,107.767853 326.850708,111.918907 
	C326.989471,114.580429 329.538147,114.166512 331.024811,114.487022 
	C337.482025,115.879105 334.788239,121.229332 335.159912,124.705048 
	C335.564423,128.487579 331.617767,127.341393 329.427246,127.305321 
	C312.994141,127.034737 296.681213,124.581696 280.184265,124.907677 
	C271.836273,125.072632 264.148682,127.599480 256.225128,129.387024 
	C253.951630,129.899902 252.498474,131.449585 253.492538,133.782837 
	C256.578430,141.025940 261.302490,147.661560 271.618347,145.272385 
	C281.320404,143.025375 291.168304,141.378098 300.994751,139.719986 
	C303.384552,139.316742 304.868408,137.915558 306.484528,136.556335 
	C309.812042,133.757767 313.160980,130.983521 317.238251,129.363007 
	C320.404297,128.104645 322.825958,128.628143 323.134155,132.731796 
	C326.365845,133.284988 329.530853,131.609329 332.923706,133.108322 
	C335.762665,134.362610 337.513428,136.502121 337.700104,138.867477 
	C337.907104,141.489685 336.648438,144.215164 333.827759,145.893112 
	C328.837219,148.861893 323.181976,148.224060 317.848602,149.172684 
	C313.378387,149.967758 309.285248,151.243530 305.120087,153.129379 
	C292.766754,158.722519 280.836365,165.706573 266.774139,166.474228 
	C263.037933,166.678192 262.175262,169.318329 262.269165,172.437561 
	C262.562714,182.186295 260.711823,191.623505 258.250946,200.976929 
	C257.870697,202.422150 257.749329,204.167236 256.851562,205.206223 
	C251.760132,211.098511 253.901443,216.445038 257.715302,221.798325 
	C262.768066,228.890579 265.483124,236.611404 265.695618,245.507782 
	C265.805420,250.107117 265.056458,254.074356 261.811005,256.791565 
	C252.221939,264.819824 249.333176,276.563751 244.163055,287.057770 
	C242.889359,289.643097 244.247726,290.860840 246.410339,291.502411 
	C249.908203,292.540131 253.494583,293.281036 256.987213,294.334259 
	C260.368195,295.353851 262.442444,297.645538 262.201477,301.326813 
	C261.973663,304.806793 259.284271,305.731567 256.392090,306.538086 
	C252.757401,307.551605 249.181931,307.591064 245.538559,306.793854 
	C243.327881,306.310120 241.110168,305.677582 238.457840,306.189117 
	C239.370346,310.877350 243.206894,311.491180 246.175095,312.647614 
	C249.868195,314.086426 253.863998,314.733185 257.699188,315.826843 
	C261.274139,316.846375 264.502747,318.602509 264.138947,322.894958 
	C263.797852,326.919586 259.925659,327.271942 257.015045,328.031433 
	C252.053635,329.326019 247.122223,327.352234 242.134415,327.253235 
	C236.626465,327.143860 231.162781,327.241791 225.681442,327.787506 
	C217.154877,328.636444 213.235672,323.490784 216.245026,315.290253 
	C219.957230,305.174377 221.148376,294.591919 221.581894,284.001892 
	C221.905548,276.095612 220.331909,268.186859 222.878464,260.291412 
	C223.991547,256.840363 217.594284,252.778809 213.282150,253.889496 
	C205.705246,255.841110 198.160416,257.894531 190.303497,258.463470 
	C174.751755,259.589630 159.875595,256.529541 145.310211,251.393509 
	C138.045654,248.831894 131.754517,244.298721 124.710220,241.316238 
	C119.186195,238.977417 117.536469,239.616104 115.815414,245.177414 
	C111.349464,259.608490 111.961082,273.689758 119.341614,287.164703 
	C119.980888,288.331879 120.675728,289.478180 121.202721,290.695648 
	C123.546349,296.109924 121.861122,299.615662 115.985924,301.261230 
	C112.482483,302.242523 108.901863,302.948242 105.250938,303.802429 
	C104.602600,307.212646 106.821915,309.674103 107.411293,312.519592 
	C108.751678,318.990906 105.933075,323.146240 99.451630,322.412903 
	C88.470085,321.170410 77.555138,322.766083 66.616539,322.353363 
	C65.618080,322.315674 64.616867,322.357941 63.617165,322.344757 
	C60.457348,322.303101 58.388657,320.561127 58.178959,317.597351 
	C57.965221,314.576569 60.477467,313.120575 63.069904,312.895996 
	C67.781189,312.487915 72.286644,311.466705 76.555519,309.512939 
	C84.941536,305.674866 85.722237,303.653778 83.293007,294.746674 
	C80.536514,284.639557 77.777031,274.540924 73.685753,264.871033 
	C70.688042,257.785828 71.422203,250.982407 74.649147,244.140213 
	C80.337067,232.079910 86.960304,220.577362 94.671867,209.710861 
	C96.677673,206.884460 97.650314,203.795685 96.003746,200.827332 
	C90.831940,191.503906 89.953156,181.670135 91.562164,171.373886 
	C91.813446,169.765884 91.597305,168.084808 91.597305,165.918274 
	C82.765533,166.033340 77.595993,159.854080 71.556488,154.450974 
M155.795151,100.906364 
	C157.273682,100.772797 159.074707,100.301430 159.607834,102.210442 
	C160.183594,104.272079 158.350037,105.094963 156.904037,105.864265 
	C154.053024,107.381065 150.010361,107.645889 150.846771,112.549477 
	C147.613495,112.044891 147.176224,109.726372 146.770401,107.716331 
	C146.085602,104.324593 144.228409,104.114227 141.710022,105.521675 
	C137.787170,107.714043 133.547440,109.571861 130.150055,112.416969 
	C125.171333,116.586327 119.071724,119.792511 115.754089,126.668770 
	C118.407463,126.367668 119.814201,127.824638 122.197678,129.563751 
	C123.312889,122.962967 129.734024,123.042000 133.125336,119.281761 
	C134.897751,117.316536 136.922638,118.786064 138.362335,120.184875 
	C139.953445,121.730797 138.893707,123.269753 137.713455,124.538414 
	C135.525772,126.889969 132.803528,128.566467 129.967148,129.955185 
	C118.736259,135.453842 108.106712,141.977509 97.622284,148.747742 
	C91.850906,152.474548 89.467941,152.478500 84.217117,148.131973 
	C79.088570,143.886658 74.148933,139.348541 68.029816,136.544754 
	C62.909332,134.198547 59.232124,130.716248 57.490475,125.267647 
	C57.149097,124.199677 56.348103,123.278633 55.792240,122.345482 
	C45.264874,124.166000 45.264874,124.166000 39.887138,129.425262 
	C42.774513,131.105515 45.644711,133.787155 48.927380,133.149384 
	C52.884056,132.380646 55.363319,134.066879 57.857674,136.274460 
	C65.212440,142.783600 72.486603,149.383896 79.786835,155.954575 
	C82.585220,158.473297 85.383926,160.746796 89.471626,158.399628 
	C90.584686,157.760483 92.107452,157.267639 92.809402,159.114166 
	C93.544624,161.048248 94.673805,159.898361 95.587425,159.483261 
	C99.519592,157.696732 103.521202,156.023590 107.304031,153.955261 
	C118.670334,147.740555 131.237183,144.930527 143.412628,141.020004 
	C145.258347,140.427185 147.716721,140.069519 148.111481,142.999435 
	C148.528198,146.092346 146.299957,149.092010 143.967606,148.609848 
	C141.105728,148.018234 139.730057,149.740356 137.653366,150.176926 
	C133.213928,151.110229 130.337845,154.924789 126.395470,156.218231 
	C120.295143,158.219666 113.698425,158.612183 108.203796,162.544876 
	C106.799881,163.549713 104.821526,163.886627 103.048683,164.216187 
	C97.641212,165.221405 96.291519,168.982086 95.458923,173.824829 
	C94.203987,181.124069 97.081703,187.558716 98.781685,194.245285 
	C100.257301,200.049316 101.096054,200.165039 106.611115,197.315872 
	C108.793007,196.188675 110.990395,193.416290 114.835182,196.508545 
	C104.807869,203.246552 98.087776,212.228836 92.030037,221.990356 
	C86.015991,231.681488 80.178314,241.231689 78.598221,252.896210 
	C81.381836,253.177734 81.545189,249.738022 83.876869,250.698105 
	C84.779800,251.069885 84.912476,251.906845 84.815636,252.792023 
	C84.412132,256.480560 81.547569,257.115265 78.430283,257.322327 
	C80.231773,269.659302 83.927269,280.913208 88.230362,292.123566 
	C91.774345,301.356323 93.563660,303.705902 83.832146,310.892548 
	C83.221329,311.343628 82.368004,311.754761 82.763817,313.386108 
	C88.950760,312.989502 95.225105,312.587280 102.038437,312.150513 
	C100.106407,305.316956 96.935043,299.466980 97.613129,292.756409 
	C97.998306,288.944427 97.245224,285.386749 95.683441,281.679779 
	C94.199730,278.158112 92.772186,274.641846 90.275055,271.681976 
	C93.479828,269.725525 94.282433,272.948242 96.370659,273.605377 
	C95.214272,270.275543 94.126266,267.323212 93.161354,264.331177 
	C89.892464,254.195007 91.557396,245.371353 99.916328,238.159164 
	C102.206017,236.183594 104.115387,234.872635 106.183556,237.915054 
	C110.436478,235.459396 112.372025,230.607590 116.950722,229.395554 
	C122.103256,228.031601 126.431252,225.621887 129.882050,221.533112 
	C131.145691,220.035858 132.769836,217.854553 134.764664,218.683533 
	C137.719482,219.911453 139.087631,218.127579 140.846329,216.715378 
	C142.073044,215.730347 143.431412,214.738602 144.746384,216.286179 
	C145.824539,217.555069 144.867706,218.785477 143.975540,219.826675 
	C140.958923,223.347153 137.980087,226.905777 134.419098,229.252747 
	C138.549957,237.061157 144.160538,228.372665 148.710175,230.384338 
	C149.406967,234.214905 144.473099,233.373383 144.740768,236.220245 
	C145.263245,237.077148 146.014038,237.321411 146.565048,236.988113 
	C150.550720,234.577225 154.020950,237.651077 157.729614,238.023514 
	C159.503586,238.201675 159.706345,239.605881 158.635651,240.979141 
	C157.875793,241.953720 156.045944,241.896713 155.986847,243.841125 
	C159.748505,244.476532 163.060211,239.658279 166.444778,242.219849 
	C167.747162,244.487640 165.296616,244.845612 165.657928,246.570099 
	C169.187912,245.541367 172.382050,245.381454 175.964401,247.416656 
	C177.649460,248.373978 179.844940,250.971466 182.596558,249.608353 
	C187.787048,247.037125 193.662003,250.208603 198.859344,247.563004 
	C199.986542,246.989227 200.980850,247.907867 201.919815,248.720230 
	C203.926697,250.456558 205.856384,251.458572 208.419006,249.075256 
	C211.099106,246.582672 210.308182,244.533539 208.602524,242.149124 
	C202.910370,234.191833 197.867844,225.764420 191.208923,218.504013 
	C190.101776,217.296875 187.954453,215.869934 189.397171,213.857437 
	C190.606262,212.170807 192.244659,210.757736 194.823959,210.934143 
	C199.866379,211.278946 202.875397,214.342361 205.296494,218.251862 
	C206.229965,219.759201 206.356339,222.179306 208.559967,222.239639 
	C211.599350,222.322845 211.770599,224.315201 212.453857,226.457626 
	C213.289734,229.078735 212.906021,231.966110 215.022263,234.354355 
	C220.827850,240.906189 223.742691,249.236328 228.079346,256.699402 
	C228.650070,257.681519 228.326950,259.347839 228.062607,260.623657 
	C226.324799,269.010986 226.291733,277.649261 226.750565,285.980072 
	C227.328613,296.475189 225.664169,306.038757 221.295120,315.367249 
	C220.119522,317.877289 219.579773,320.322784 222.308426,322.322723 
	C225.156525,319.355408 225.156525,319.355408 224.863144,315.748871 
	C224.633072,312.920624 225.532547,312.132874 229.051086,312.387054 
	C226.787704,316.790375 228.194901,318.759918 233.059357,319.088654 
	C235.377182,319.245239 238.073624,319.510071 239.966476,322.572693 
	C241.055145,319.495911 244.118164,320.241547 245.764359,318.049500 
	C244.215897,317.140961 242.854538,316.224854 241.396027,315.505829 
	C232.817200,311.276367 231.045807,306.965973 234.076920,297.943176 
	C236.371536,291.112793 240.227036,285.020447 243.091934,278.464081 
	C247.143265,269.192596 250.874954,259.304718 248.144287,249.465607 
	C244.872650,237.677246 239.380249,226.497345 234.700607,215.115173 
	C233.895020,213.155777 232.105621,211.614609 231.199783,209.679398 
	C229.883362,206.867020 231.105560,204.778824 233.912003,203.782654 
	C236.886154,202.726974 236.827454,205.090317 237.602402,206.981125 
	C239.080521,210.587601 240.528625,214.287476 242.943878,217.280884 
	C245.156677,216.837387 245.877029,215.311218 246.823471,213.931290 
	C252.405838,205.791840 255.572754,196.720688 256.598541,187.005875 
	C257.466492,178.785675 260.388397,169.540176 249.057083,165.443649 
	C248.832932,165.362610 248.738998,164.880264 248.613617,164.573166 
	C246.957565,160.516922 241.576859,158.363281 239.628708,158.563278 
	C232.827057,159.261566 229.231094,153.891235 223.858292,152.303680 
	C218.298553,150.660904 216.713104,145.717117 214.824203,141.166275 
	C217.196838,138.996109 218.885315,140.482712 220.696198,141.179474 
	C230.819931,145.074814 240.126480,150.648117 249.900711,155.247055 
	C253.046738,156.727310 256.562286,159.308456 260.182068,157.710037 
	C265.589325,155.322311 271.366791,154.532593 276.927368,152.866013 
	C278.037872,152.533173 279.641235,152.211533 280.222382,154.406281 
	C274.691345,157.472183 267.765259,156.840012 261.891815,160.730759 
	C267.052887,164.303528 271.756653,162.539246 276.207703,161.137009 
	C292.287079,156.071411 306.646515,146.322876 324.284546,143.550812 
	C321.633392,141.988129 320.358154,140.166306 323.525696,137.030029 
	C319.066711,138.244919 315.966339,140.739777 312.463989,138.000656 
	C311.590881,137.317825 310.308655,138.535217 309.449310,139.321503 
	C308.067444,140.585907 306.484406,141.426575 304.702576,141.987228 
	C293.098511,145.638321 281.012848,146.955490 269.168610,149.436417 
	C262.372131,150.860046 257.133362,149.896896 251.647491,144.894806 
	C244.104599,138.017105 236.268250,131.082367 226.159302,127.769012 
	C224.596970,127.256927 222.920731,126.334000 223.506531,124.174049 
	C223.941269,122.571068 224.804901,120.223122 226.434006,120.617363 
	C229.321762,121.316177 233.675323,121.220268 234.827179,122.689018 
	C237.642609,126.279045 243.204102,127.032135 244.304062,132.159805 
	C244.402267,132.617584 245.460526,132.698715 246.833511,131.136826 
	C234.738052,117.759209 223.827377,102.870117 201.658279,105.192741 
	C200.174347,106.481651 199.910400,109.483627 198.708679,112.008690 
	C187.744141,135.047012 181.967834,159.247025 182.291901,184.849716 
	C182.384766,192.186401 181.691727,199.471481 179.438583,206.540649 
	C178.940979,208.101883 179.129044,210.222626 176.775330,209.981995 
	C174.498611,209.749207 174.821899,207.702118 174.735565,206.065887 
	C174.436890,200.406250 175.122284,194.803833 175.628983,189.184662 
	C176.687225,177.449234 173.619156,166.034531 172.290237,154.540878 
	C169.396774,129.516037 164.748520,104.696373 157.466553,80.532181 
	C153.828171,68.458694 149.484451,56.436150 141.841354,46.147026 
	C137.046890,39.692741 130.005615,36.540730 123.187775,43.307465 
	C126.643532,44.932262 126.417374,46.613701 123.379868,48.549801 
	C122.249496,49.270302 120.242111,50.349983 121.387230,51.993366 
	C123.158340,54.535141 120.418892,55.712666 119.948349,57.584827 
	C122.432709,56.913738 124.603539,56.113892 126.844086,55.775242 
	C129.754715,55.335316 131.433044,56.698517 130.837067,59.781673 
	C130.149643,63.337894 126.054794,65.487885 121.996780,64.193764 
	C123.692650,69.408363 120.476120,73.971306 120.373993,79.261383 
	C124.357246,78.899368 126.297379,80.976860 127.356270,83.969147 
	C128.151642,83.846504 128.669174,83.862625 129.105698,83.682487 
	C130.836456,82.968323 132.790253,82.017570 134.049835,84.020897 
	C135.593018,86.475288 133.035614,86.828102 131.701187,87.931465 
	C129.982452,89.352608 129.942261,91.013199 132.179184,92.356331 
	C135.766434,90.736427 138.412216,87.960411 141.005966,85.197159 
	C143.011551,83.060501 143.780258,79.734474 141.917496,77.891273 
	C139.128159,75.131226 139.718643,73.174858 142.165573,70.676178 
	C140.513718,70.003555 139.318466,69.435318 138.071304,69.024719 
	C134.690506,67.911682 135.330566,64.782806 134.831848,62.349400 
	C134.501480,60.737446 135.689392,59.466736 137.269379,59.014538 
	C139.841446,58.278393 142.278244,58.529209 144.001785,60.881058 
	C146.897995,64.833099 148.736923,68.996078 145.902069,73.789116 
	C143.996292,77.011314 146.452866,80.394203 148.093338,80.737160 
	C151.249832,81.397064 151.892593,84.059952 153.925140,84.984543 
	C153.861374,87.317528 151.460678,88.195709 151.757309,90.257492 
	C156.721863,93.827011 157.604141,96.750175 154.309952,101.125664 
	C151.015717,100.756485 150.896851,97.641029 149.550720,95.499702 
	C149.563934,98.110771 149.112564,100.672874 150.096848,103.089066 
	C152.304428,103.255470 153.828186,102.520958 155.795151,100.906364 
M229.643860,94.838539 
	C228.037659,93.595177 225.072891,92.390007 227.782593,90.104012 
	C229.336441,88.793137 230.378067,87.299911 231.669327,85.884789 
	C233.661896,83.701080 236.240280,83.573715 238.939758,85.042511 
	C240.830826,86.071457 240.909775,89.882393 244.130356,88.656075 
	C247.374557,87.420769 244.698029,84.032021 246.211105,82.034447 
	C246.626968,81.485420 246.924393,80.569923 246.142166,79.753700 
	C244.994583,81.016518 244.278046,83.325333 241.967072,82.149368 
	C239.920715,81.108055 240.848892,79.313904 241.329498,77.757889 
	C241.696945,76.568291 241.837448,75.410049 240.730606,74.586151 
	C239.460846,73.640961 237.306549,73.136581 238.470840,70.936867 
	C239.412094,69.158554 241.403839,69.728523 243.007446,69.682289 
	C252.168488,69.418137 253.866394,67.947739 256.272461,59.158516 
	C257.429932,54.930336 254.746689,52.616768 252.491119,50.032658 
	C250.200317,47.408173 247.575607,48.755024 245.183624,49.860798 
	C239.227448,52.614250 234.243256,56.650909 229.704681,62.078411 
	C232.977951,62.249866 234.687897,63.970654 234.921783,66.761703 
	C235.166672,69.684212 232.154877,69.033577 230.746750,70.168396 
	C229.359116,71.286682 227.034500,71.188179 226.465714,73.298317 
	C226.039230,74.880493 226.140930,76.885468 223.882706,76.968346 
	C221.311447,77.062698 221.921082,74.321999 220.113525,73.011497 
	C220.545792,79.636765 219.726395,86.121849 218.878387,93.180923 
	C222.643158,93.320312 225.627197,96.871056 229.643860,94.838539 
M256.666534,112.325302 
	C255.333557,112.336845 253.999451,112.318344 252.667892,112.368011 
	C251.204651,112.422600 249.430496,112.077583 248.753296,113.814484 
	C248.123367,115.430107 249.392639,116.690369 250.309097,117.806999 
	C253.364441,121.529785 258.337372,123.278282 262.156281,122.861969 
	C268.666229,122.152321 275.151947,120.839500 282.545074,120.823517 
	C277.974243,118.999657 273.323761,120.024658 270.026215,116.538078 
	C276.002686,116.141174 282.504883,115.893539 287.315186,118.953156 
	C290.233765,120.809547 292.612274,121.526924 295.647369,121.672134 
	C302.259491,121.988472 308.971222,120.754089 315.461945,123.032974 
	C316.788696,123.498787 318.084045,123.136086 319.216675,121.857895 
	C319.067657,121.168839 318.889679,120.374870 318.724640,119.578217 
	C317.426941,113.314690 315.796448,112.428917 309.948700,115.137856 
	C306.889160,116.555161 303.827759,116.655495 300.698578,115.765961 
	C286.562744,111.747520 272.117188,111.676491 256.666534,112.325302 
M101.542404,247.756592 
	C100.801132,248.112137 99.397743,248.748566 99.412521,248.783371 
	C101.102150,252.766296 96.562073,257.927399 101.735374,261.248322 
	C102.467010,261.717987 102.395798,262.637421 102.329315,263.524872 
	C101.798225,270.614655 102.339310,277.697052 103.030548,284.731781 
	C103.352936,288.012726 101.565163,291.945038 104.878937,294.543732 
	C108.897888,297.695435 111.196426,292.247650 114.656937,292.258881 
	C114.807663,292.259369 114.960052,291.749542 115.383202,290.990082 
	C108.384193,284.978851 108.280373,276.682648 108.620499,268.200806 
	C108.759750,264.728180 108.186806,261.550629 105.975357,258.392944 
	C104.401566,256.145782 103.927223,252.670532 105.139824,249.737381 
	C107.860062,249.542389 106.679855,252.595154 108.502518,253.008362 
	C108.608452,245.746124 108.608452,245.746124 101.542404,247.756592 
M72.565804,133.853897 
	C77.118500,137.514252 82.893311,139.102310 88.443802,141.833344 
	C89.879990,138.799606 94.123604,139.073471 97.993927,138.615921 
	C89.450569,134.795929 81.156540,131.493759 72.919380,128.055328 
	C70.007568,126.839859 67.990173,124.464745 67.119743,121.506111 
	C66.076340,117.959473 64.382393,115.258827 60.700912,114.137642 
	C58.102596,119.285797 63.725719,128.942169 72.565804,133.853897 
M249.919373,229.730118 
	C253.488022,236.087646 254.970779,243.261017 257.350128,250.645447 
	C264.108673,239.740753 259.321533,231.695114 250.027405,219.015213 
	C246.512161,223.033386 246.512161,223.033386 246.144180,228.614639 
	C247.241852,228.817627 248.339508,229.020630 249.919373,229.730118 
M210.366486,93.576141 
	C209.416458,92.373795 208.290131,92.342773 207.574081,93.612488 
	C206.312607,95.849388 204.782776,98.032700 204.545380,100.927567 
	C207.138245,101.922348 209.447388,101.929794 211.789871,101.044350 
	C212.283173,98.476395 211.620041,96.308525 210.366486,93.576141 
M242.330582,295.507965 
	C239.279968,298.002502 241.807556,298.730896 243.678284,299.229462 
	C247.749084,300.314484 252.215591,297.642731 256.201263,300.763336 
	C252.698410,296.335297 247.433517,297.027954 242.330582,295.507965 
z"/>
<path fill="#000000" opacity="1.000000" stroke="none" 
	d="
M229.859711,273.169312 
	C230.536194,265.584625 230.819077,264.780548 234.472916,261.361786 
	C233.593292,268.982117 232.821014,275.672394 231.892410,283.717041 
	C228.619278,279.690674 230.197433,276.512146 229.859711,273.169312 
z"/>
<path fill="#000000" opacity="1.000000" stroke="none" 
	d="
M80.836960,150.346680 
	C77.035721,148.014648 73.531693,145.760315 69.542946,143.194122 
	C74.225380,141.957977 81.411186,145.992020 82.132278,149.601700 
	C82.172180,149.801483 81.483650,150.146790 80.836960,150.346680 
z"/>
<path fill="#000000" opacity="1.000000" stroke="none" 
	d="
M238.939880,256.468567 
	C243.846008,256.095825 243.248550,260.870880 246.449661,262.719788 
	C241.616669,264.324524 239.671753,262.507538 238.939880,256.468567 
z"/>
<path fill="#000000" opacity="1.000000" stroke="none" 
	d="
M129.029388,77.379578 
	C128.160034,78.942436 127.222908,80.017563 125.702873,79.148094 
	C123.901016,78.117432 123.546776,76.379410 123.907043,74.218620 
	C126.661659,73.422211 128.868698,73.305237 129.029388,77.379578 
z"/>
<path fill="#000000" opacity="1.000000" stroke="none" 
	d="
M104.825363,287.214417 
	C104.244072,285.466003 104.122200,284.045654 106.167519,284.228455 
	C107.813812,284.375549 108.654335,285.726349 108.926521,287.294678 
	C109.137444,288.509979 108.842003,289.823395 107.636070,290.201202 
	C105.372131,290.910400 105.632057,288.669647 104.825363,287.214417 
z"/>
</svg>