<?xml version="1.0" encoding="UTF-8"?>
<svg id="Layer_1" xmlns="http://www.w3.org/2000/svg" xmlns:xlink="http://www.w3.org/1999/xlink" viewBox="0 0 1541.75 286">
  <defs>
    <style>
      .cls-1 {
        stroke-width: .8333px;
      }

      .cls-1, .cls-2, .cls-3, .cls-4, .cls-5, .cls-6, .cls-7, .cls-8, .cls-9, .cls-10 {
        fill: none;
      }

      .cls-1, .cls-2, .cls-3, .cls-5, .cls-6, .cls-7, .cls-8, .cls-9, .cls-10 {
        stroke: #000;
        stroke-linecap: round;
        stroke-linejoin: round;
      }

      .cls-2 {
        stroke-width: .2778px;
      }

      .cls-3 {
        stroke-width: .6481px;
      }

      .cls-11 {
        fill: #4d4d4d;
      }

      .cls-12, .cls-13, .cls-14 {
        fill: #fff;
      }

      .cls-13 {
        stroke: #fff;
        stroke-miterlimit: 10;
        stroke-width: 3px;
      }

      .cls-15 {
        fill: #424242;
      }

      .cls-5 {
        stroke-width: 1.2037px;
      }

      .cls-14 {
        font-family: FranklinGothic-Heavy, 'Franklin Gothic Heavy';
        font-size: 33.554px;
        font-weight: 800;
      }

      .cls-6 {
        stroke-width: 1.5741px;
      }

      .cls-16 {
        letter-spacing: -.0298em;
      }

      .cls-17 {
        font-family: GillSansMT, 'Gill Sans MT';
      }

      .cls-17, .cls-18 {
        font-size: 44.7386px;
      }

      .cls-18 {
        font-family: CourierNewPS-BoldMT, 'Courier New';
        font-weight: 700;
      }

      .cls-19 {
        letter-spacing: -.0098em;
      }

      .cls-7 {
        stroke-width: 1.0185px;
      }

      .cls-20 {
        letter-spacing: 0em;
      }

      .cls-8 {
        stroke-width: .5556px;
      }

      .cls-9 {
        stroke-width: .9259px;
      }

      .cls-10 {
        stroke-width: .7407px;
      }

      .cls-21 {
        clip-path: url(#clippath);
      }

      .cls-22 {
        letter-spacing: -.0151em;
      }
    </style>
    <clipPath id="clippath">
      <rect class="cls-4" x="770.8546" y="51.4755" width="20.5052" height="57.7874"/>
    </clipPath>
  </defs>
  <path class="cls-13" d="M351.0652,247.5687c-3.0182-1.5129-7.5862-3.2001-12.5091-2.2591-5.1294.9805-6.4142,4.0056-11.2582,5.6478-5.692,1.9296-8.6336-.6487-18.7637-2.2591-13.9573-2.2188-26.9702-.2806-28.771,0-8.9732,1.3983-13.1108,3.5723-17.5128,1.1296-4.3563-2.4173-3.2966-6.2069-7.5055-7.9069-3.4071-1.3762-5.6165.4952-17.5128,3.3887-6.5875,1.6022-9.8812,2.4033-12.5091,2.2591-3.8905-.2135-8.0143-1.6484-16.2619-4.5182-5.5349-1.9259-6.5674-2.5441-8.7564-2.2591-4.7169.6142-4.9443,4.1385-10.0073,5.6478-3.9273,1.1707-5.5694-.4195-13.7601-1.1296-7.4326-.6444-6.8746.5963-12.5091,0-7.1622-.7579-8.5903-2.8182-21.2656-5.6478-4.8367-1.0797-7.8034-1.4884-10.0073,0-2.4655,1.665-1.5585,4.0712-3.5144,5.8034-3.4346,3.0418-10.4191-.6695-20.253-2.4147-12.8295-2.2768-12.5203,1.9851-27.5201,0-11.1922-1.4812-14.3532-4.2495-21.2656-2.2591-4.3989,1.2667-6.2091,3.2777-11.2582,3.3887-4.3622.0958-6.0178-1.3392-11.2582-2.2591-3.1606-.5548-7.791-.9514-13.7601,0,.6411-2.7,1.5339-6.5917,2.5018-11.2955,2.962-14.395,4.4291-21.7255,3.7527-28.2388-1.1182-10.7686-5.0998-9.4026-5.0037-18.0728.1156-10.418,5.8723-13.1278,5.0037-23.7206-.5914-7.2116-3.2802-6.2064-3.7527-13.5546-.6701-10.4196,4.6603-13.6182,2.5018-22.591-1.3158-5.4698-3.5825-5.4699-3.7527-10.166-.2236-6.169,3.6086-8.3599,5.0037-14.6842,1.327-6.016-1.1779-8.3982-2.5018-15.8137-2.1604-12.1012,2.6872-15.9689,3.7527-30.4979.4295-5.8568.3098-14.3378-2.5018-24.8501,19.2286,3.1907,34.5212,3.0264,45.0329,2.2591,11.1611-.8146,14.3109-2.1177,26.2692-2.2591,15.4535-.1828,18.22,1.8983,35.0256,2.2591,19.8185.4255,18.5198-2.414,31.2729-1.1296,20.1195,2.0263,21.1676,8.8734,36.2765,7.9069,9.9985-.6396,10.9814-3.7303,27.5201-5.6478,9.5972-1.1127,8.38.0309,20.0146-1.1296,16.8589-1.6815,20.2802-4.1688,28.771-2.2591,7.2439,1.6292,7.1014,3.9677,13.7601,4.5182,7.6083.6291,9.6924-2.267,18.7637-2.2591,7.2717.0063,8.3192,1.8693,15.011,2.2591,5.0221.2925,12.2274-.3027,21.2656-4.5182-.8653,2.8395-1.9659,7.1286-2.5018,12.4251-.7037,6.9557.3826,7.585,0,14.6842-.6473,12.011-4.0011,14.7435-1.2509,20.3319.6284,1.277,2.5038,3.4869,6.2546,7.9069,3.9485,4.653,6.2336,6.761,6.2546,10.166.0092,1.5064-.429,2.5538-1.2509,4.5182-1.612,3.8526-3.5823,5.6757-6.2546,9.0364-4.6075,5.7944-6.9112,8.6917-6.2546,11.2955.812,3.2199,4.6218,2.9085,7.5055,6.7773.6728.9026,2.2337,3.2919,1.2509,14.6842-.8109,9.3997-2.1455,10.9254-2.5018,19.2024-.3088,7.1754.6755,6.4606,0,10.166-1.8276,10.0244-8.4122,11.8525-7.5055,18.0728.7036,4.8275,4.7646,4.379,7.5055,11.2955,1.4281,3.6037.8024,4.9284,1.2509,14.6842.3816,8.2987.8691,8.0954,1.2509,15.8137.21,4.2446.3659,10.4388,0,18.0728Z"/>
  <text class="cls-17" transform="translate(99.4473 151.0645)"><tspan x="0" y="0">Noteca</tspan><tspan class="cls-22" x="134.6309" y="0">r</tspan><tspan x="151.6699" y="0">d</tspan></text>
  <rect class="cls-11" x="312.2837" y="180.099" width="67.1079" height="41.0104" rx="3.0217" ry="3.0217"/>
  <g>
    <polygon class="cls-12" points="269.4092 197.9857 269.4092 258.9647 284.967 241.555 301.8325 270.3306 318.3052 262.3023 301.8325 234.1582 327.582 234.1582 269.4092 197.9857"/>
    <g id="cursor-click-svgrepo-com">
      <path class="cls-11" d="M289.4891,188.834l14.1028-6.6488,2.2481,4.6239-14.9094,7.0333-1.4415-5.0084ZM290.5455,166.7858l-4.9073-1.7071-5.3497,14.9432,4.5379,2.7426,5.7192-15.9787ZM242.5701,210.954l2.2481,4.6239,14.9094-7.023-3.0547-4.2497-14.1028,6.6488ZM257.2557,169.9333l5.6307,11.5906,4.694-2.2094-5.6307-11.5906-4.694,2.2094ZM255.4759,191.7201l-15.1748-5.2698-1.7277,4.8341,16.2208,5.6389.6817-5.2032ZM334.4566,236.4883h-28.3773l15.7784,31.009-20.5036,10.1552-16.1635-31.537-17.4125,23.499v-81.0571l66.6785,47.9309ZM297.5917,231.2595h20.8523l-45.5139-32.716v55.2461l13.0151-17.5678,17.6571,34.4487,11.2146-5.5569-17.2251-33.8541Z"/>
      <path class="cls-4" d="M220.9424,159.5938h124.8953v123.0312h-124.8953v-123.0312Z"/>
    </g>
  </g>
  <text class="cls-14" transform="translate(325.8594 212.1543)"><tspan x="0" y="0">2X</tspan></text>
  <path class="cls-13" d="M487.4741,167.2137l-.1032-2.9723-.4127-11.8892c-46.2541,3.184-81.5113,1.4912-83.2649-4.7671-.2092-.7465-.786-4.5712-.9004-8.9776-.0972-3.7445.1593-7.145.3157-7.8654,1.3356-6.149,36.2762-5.2919,82.1002.7697l-.4127-11.8892-.2063-5.9446c.478.1508,1.6559.53,3.1157,1.0939,5.031,1.9434,12.7973,5.8431,32.6658,24.8445,1.481,1.4164,2.6451,2.5493,3.1845,3.0755-.5446.5365-1.6129,1.5821-2.9782,2.8691-9.5821,9.0326-18.0461,16.8599-30.0568,20.7652-1.4431.4692-2.6096.7752-3.0469.8876Z"/>
  <g>
    <path class="cls-13" d="M942.2333,261.2343c-3.4451-1.7124-8.6593-3.6221-14.2787-2.557-5.855,1.1097-7.3216,4.5338-12.8508,6.3924-6.4971,2.184-9.8549-.7343-21.418-2.557-15.9317-2.5113-30.7854-.3176-32.841,0-10.2425,1.5827-14.9654,4.0433-19.9902,1.2785-4.9725-2.7361-3.763-7.0252-8.5672-8.9494-3.8891-1.5576-6.411.5605-19.9902,3.8355-7.5193,1.8135-11.279,2.7202-14.2787,2.557-4.4408-.2416-9.148-1.8657-18.5623-5.1139-6.3179-2.1799-7.4964-2.8796-9.9951-2.557-5.3841.6952-5.6437,4.6841-11.4229,6.3924-4.4828,1.3251-6.3573-.4748-15.7066-1.2785-8.484-.7293-7.8471.6749-14.2787,0-8.1754-.8579-9.8055-3.1898-24.2738-6.3924-5.5209-1.2221-8.9072-1.6847-11.4229,0-2.8143,1.8846-1.779,4.608-4.0115,6.5685-3.9205,3.4428-11.893-.7578-23.118-2.7331-14.6444-2.577-14.2914,2.2469-31.4131,0-12.7754-1.6765-16.3836-4.8098-24.2738-2.557-5.0212,1.4337-7.0874,3.7099-12.8508,3.8355-4.9793.1085-6.8691-1.5157-12.8508-2.557-3.6077-.628-8.8931-1.0769-15.7066,0,.7318-3.056,1.7509-7.4608,2.8557-12.7848,3.3809-16.293,5.0556-24.59,4.2836-31.9621-1.2764-12.1885-5.8212-10.6423-5.7115-20.4557.1319-11.7916,6.703-14.8587,5.7115-26.8482-.675-8.1625-3.7442-7.0247-4.2836-15.3418-.7649-11.7934,5.3196-15.4138,2.8557-25.5697-1.5019-6.191-4.0893-6.1911-4.2836-11.5064-.2552-6.9824,4.1191-9.4621,5.7115-16.6203,1.5148-6.8093-1.3446-9.5055-2.8557-17.8988-2.466-13.6967,3.0674-18.0744,4.2836-34.5191.4903-6.629.3537-16.2283-2.8557-28.1267,21.9487,3.6114,39.4046,3.4254,51.4033,2.557,12.7399-.9221,16.3353-2.3969,29.9852-2.557,17.6395-.2069,20.7974,2.1486,39.9803,2.557,22.622.4816,21.1396-2.7322,35.6967-1.2785,22.9656,2.2935,24.162,10.0434,41.4082,8.9494,11.4128-.7239,12.5348-4.2222,31.4131-6.3924,10.9549-1.2594,9.5654.0349,22.8459-1.2785,19.2438-1.9032,23.149-4.7184,32.841-2.557,8.2686,1.844,8.106,4.4908,15.7066,5.1139,8.6845.712,11.0635-2.5659,21.418-2.557,8.3004.0071,9.4961,2.1158,17.1344,2.557,5.7325.3311,13.9571-.3426,24.2738-5.1139-.9877,3.2139-2.244,8.0685-2.8557,14.0633-.8033,7.8728.4367,8.5851,0,16.6203-.7389,13.5947-4.5671,16.6875-1.4279,23.0127.7173,1.4453,2.858,3.9467,7.1393,8.9494,4.5071,5.2665,7.1154,7.6525,7.1393,11.5064.0105,1.705-.4897,2.8905-1.4279,5.1139-1.84,4.3606-4.089,6.424-7.1393,10.2279-5.2593,6.5584-7.8888,9.8377-7.1393,12.7848.9268,3.6445,5.2755,3.292,8.5672,7.6709.768,1.0216,2.5497,3.7259,1.4279,16.6203-.9256,10.6391-2.449,12.3659-2.8557,21.7342-.3525,8.1214.7711,7.3125,0,11.5064-2.0861,11.3461-9.6022,13.4152-8.5672,20.4557.8032,5.464,5.4386,4.9564,8.5672,12.7848,1.6301,4.0789.9159,5.5782,1.4279,16.6203.4356,9.3929.992,9.1628,1.4279,17.8988.2397,4.8042.4177,11.8151,0,20.4557Z"/>
    <text class="cls-18" transform="translate(616.7217 95.0371)"><tspan x="0" y="0">Noteca</tspan></text>
  </g>
  <g id="typing">
    <g class="cls-21">
      <polygon class="cls-15" points="770.8546 51.4759 770.8546 56.0939 778.9422 56.0939 778.9422 104.6452 770.8546 104.6452 770.8546 109.2633 791.3599 109.2633 791.3599 104.6452 783.2723 104.6452 783.2723 56.0939 791.3599 56.0939 791.3599 51.4759 770.8546 51.4759"/>
    </g>
  </g>
  <g>
    <path class="cls-13" d="M1518.3218,249.0681c-3.0182-1.5129-7.5862-3.2001-12.5091-2.2591-5.1294.9805-6.4142,4.0056-11.2582,5.6478-5.692,1.9296-8.6336-.6487-18.7637-2.2591-13.9573-2.2188-26.9702-.2806-28.771,0-8.9732,1.3983-13.1108,3.5723-17.5128,1.1296-4.3563-2.4173-3.2966-6.2069-7.5055-7.9069-3.4071-1.3762-5.6165.4952-17.5128,3.3887-6.5875,1.6022-9.8812,2.4033-12.5091,2.2591-3.8905-.2135-8.0143-1.6484-16.2619-4.5182-5.5349-1.9259-6.5674-2.5441-8.7564-2.2591-4.7169.6142-4.9443,4.1385-10.0073,5.6478-3.9273,1.1707-5.5694-.4195-13.7601-1.1296-7.4326-.6444-6.8746.5963-12.5091,0-7.1622-.7579-8.5903-2.8182-21.2656-5.6478-4.8367-1.0797-7.8034-1.4884-10.0073,0-2.4655,1.665-1.5585,4.0712-3.5144,5.8034-3.4346,3.0418-10.4191-.6695-20.253-2.4147-12.8295-2.2768-12.5203,1.9851-27.5201,0-11.1922-1.4812-14.3532-4.2495-21.2656-2.2591-4.3989,1.2667-6.2091,3.2777-11.2582,3.3887-4.3622.0958-6.0178-1.3392-11.2582-2.2591-3.1606-.5548-7.791-.9514-13.7601,0,.6411-2.7,1.5339-6.5917,2.5018-11.2955,2.962-14.395,4.4291-21.7255,3.7527-28.2388-1.1182-10.7686-5.0998-9.4026-5.0037-18.0728.1156-10.418,5.8723-13.1278,5.0037-23.7206-.5914-7.2116-3.2802-6.2064-3.7527-13.5546-.6701-10.4196,4.6603-13.6182,2.5018-22.591-1.3158-5.4698-3.5825-5.4699-3.7527-10.166-.2236-6.169,3.6086-8.3599,5.0037-14.6842,1.327-6.016-1.1779-8.3982-2.5018-15.8137-2.1604-12.1012,2.6872-15.9689,3.7527-30.4979.4295-5.8568.3098-14.3378-2.5018-24.8501,19.2286,3.1907,34.5212,3.0264,45.0329,2.2591,11.1611-.8146,14.3109-2.1177,26.2692-2.2591,15.4535-.1828,18.22,1.8983,35.0256,2.2591,19.8185.4255,18.5198-2.414,31.2729-1.1296,20.1195,2.0263,21.1676,8.8734,36.2765,7.9069,9.9985-.6396,10.9814-3.7303,27.5201-5.6478,9.5972-1.1127,8.38.0309,20.0146-1.1296,16.8589-1.6815,20.2802-4.1688,28.771-2.2591,7.2439,1.6292,7.1014,3.9677,13.7601,4.5182,7.6083.6291,9.6924-2.267,18.7637-2.2591,7.2717.0063,8.3192,1.8693,15.011,2.2591,5.0221.2925,12.2274-.3027,21.2656-4.5182-.8653,2.8395-1.9659,7.1286-2.5018,12.4251-.7037,6.9557.3826,7.585,0,14.6842-.6473,12.011-4.0011,14.7435-1.2509,20.3319.6284,1.277,2.5038,3.4869,6.2546,7.9069,3.9485,4.653,6.2336,6.761,6.2546,10.166.0092,1.5064-.429,2.5538-1.2509,4.5182-1.612,3.8526-3.5823,5.6757-6.2546,9.0364-4.6075,5.7944-6.9112,8.6917-6.2546,11.2955.812,3.2199,4.6218,2.9085,7.5055,6.7773.6728.9026,2.2337,3.2919,1.2509,14.6842-.8109,9.3997-2.1455,10.9254-2.5018,19.2024-.3088,7.1754.6755,6.4606,0,10.166-1.8276,10.0244-8.4122,11.8525-7.5055,18.0728.7036,4.8275,4.7646,4.379,7.5055,11.2955,1.4281,3.6037.8024,4.9284,1.2509,14.6842.3816,8.2987.8691,8.0954,1.2509,15.8137.21,4.2446.3659,10.4388,0,18.0728Z"/>
    <text class="cls-17" transform="translate(1272.2969 150.6992)"><tspan x="0" y="0">Nabo</tspan><tspan class="cls-16" x="101.0771" y="0">k</tspan><tspan class="cls-19" x="121.1748" y="0">o</tspan><tspan class="cls-20" x="145.4219" y="0">v</tspan></text>
  </g>
  <path class="cls-13" d="M1093.1475,165.3901l-.1032-2.9723c-.1376-3.9631-.2751-7.9261-.4127-11.8892-46.2541,3.184-81.5113,1.4912-83.2649-4.7671-.2092-.7465-.786-4.5712-.9004-8.9776-.0972-3.7445.1593-7.145.3157-7.8654,1.3356-6.149,36.2762-5.2919,82.1002.7697l-.4127-11.8892-.2063-5.9446c.478.1508,1.6559.53,3.1157,1.0939,5.031,1.9434,12.7973,5.8431,32.6658,24.8445,1.481,1.4164,2.6451,2.5493,3.1845,3.0755-.5446.5365-1.6129,1.5821-2.9782,2.8691-9.5821,9.0326-18.0461,16.8599-30.0568,20.7652-1.4431.4692-2.6096.7752-3.0469.8876Z"/>
  <g>
    <path class="cls-3" d="M872.8833,240.4109c.6106.0206,1.2198-.0144,1.8297-.0395.3711-.0152.7406-.0431,1.1107-.069.4064-.0285.5314-.1656.5468-.5811.0405-1.09.0688-2.1801.0866-3.2708.0109-.6677.0581-1.335.0591-2.0025.0013-.8312.0374-1.6617.0613-2.4916.0196-.6822.0162-1.3653.0479-2.0476.0383-.8224.0446-1.6464.0701-2.4695.0253-.8159.0652-1.6315.0836-2.4476.0135-.5999-.0299-.635-.6071-.6901-.8997-.086-1.7998-.1006-2.7007-.0223-.0799.0069-.1639-.0317-.2395.0227"/>
    <path class="cls-10" d="M879.0469,240.1439c.0453-.1299.1687-.111.262-.1305.515-.1078,1.0274-.2263,1.5226-.4074.142-.0519.2849-.1059.4179-.192.2881-.1864.3737-.4458.3966-.7826.0636-.934.0252-1.8721.1232-2.804.0015-.0147-.0001-.0297.0002-.0445.0145-.5859.0152-1.1726.0466-1.7576.0509-.9489.0638-1.8986.0952-2.8478.0127-.3854-.0081-.7751.0394-1.1564.0501-.4021.0101-.8028.0387-1.2022.0601-.8372.0735-1.6754.0896-2.5143.0127-.6605.0726-1.32.1019-1.9804.0122-.2744-.0913-.3998-.3464-.4197-.3675-.0287-.7286.0451-1.0886.1095-.4727.0845-.9434.1802-1.4164.2626-.0781.0136-.1286.1024-.2172.0701"/>
    <path class="cls-1" d="M867.0465,239.6099c.7115.1478,1.4301.2329,2.1562.2438.3349.0051.4282-.0904.4811-.4215.0754-.4725.0764-.9512.0778-1.4243.0125-4.4128.0069-8.8257.0086-13.2386.0001-.2912-.0204-.3303-.3264-.4067-.5676-.1417-1.1423-.1914-1.722-.2172-.1963-.0088-.3921-.0287-.5881-.0435"/>
    <path class="cls-3" d="M884.0779,218.8509c.1257.2505.0622.5185.0622.7787,0,.2447-.0453.4902-.0363.7341.0171.4619-.0357.9198-.0522,1.3795-.0261.7275-.062,1.4548-.1175,2.1813-.0231.3021-.0463.6068-.0578.9113-.026.6904-.0872,1.3794-.1226,2.0696-.016.3114-.03.624-.0364.9346-.0086.4161-.0356.8317-.0622,1.2452-.0395.6156-.0621,1.2326-.1127,1.8481-.0444.5393-.0644,1.0822-.0941,1.6236-.0377.6892-.0543,1.3797-.0912,2.069-.0259.4827-.0667.9646-.109,1.4461-.0151.1715.0255.3164.1328.4452"/>
    <path class="cls-8" d="M877.6312,224.1909c.029.8092-.0342,1.6168-.051,2.4251-.0213,1.0235-.057,2.047-.0881,3.0704-.0214.7049-.0114,1.41-.0394,2.1138-.0423,1.0604-.0641,2.1209-.0889,3.1817-.0231.9864-.0622,1.9726-.0849,2.9593-.014.6082-.0708,1.2152-.0625,1.8246.0008.0592-.0134.1186-.0207.178"/>
    <path class="cls-8" d="M870.6618,224.3689c.0477.4294.0159.8604.0153,1.2905,0,.0703-.0137.1488-.0138.2225-.0021,1.2163.0012,2.4326-.0022,3.6489-.0045,1.5872.0016,3.1746-.0267,4.7613-.018,1.0089-.0024,2.0175-.0166,3.0261-.0125.89-.0286,1.78-.0431,2.67"/>
    <path class="cls-6" d="M884.7966,236.6507c-.4021-.3162-.8479-.3017-1.3064-.1768-.1074.0293-.1517.1184-.2008.219-.1453.2976-.1839.6143-.1894.9368-.0065.3806-.0917.7531-.0978,1.1346-.0016.0974-.0226.2083.014.2867.1596.3412.0352.6665-.0577.9789-.0871.2927-.3541.4469-.6001.605-.5853.3761-1.2413.5595-1.8946.759-.5661.1729-1.1419.2966-1.7227.3902-.3672.0592-.7406.0849-1.11.1384-.9895.1433-1.9865.1912-2.9835.1728-.7915-.0146-1.5845.0246-2.3735-.0252-.5954-.0375-1.1924-.0733-1.7874-.1374-.5291-.057-1.0532-.175-1.589-.1647-.0363.0007-.0827.0151-.1074-.0022-.3286-.2311-.7375-.3274-1.0074-.6618-.1956-.2424-.5067-.1929-.624.0871-.0839.2001-.2346.3216-.3941.4454-.071.0551-.146.0509-.2189.0405-.2766-.0394-.5517-.0888-.828-.1305-.1034-.0156-.1857-.0663-.2612-.1345"/>
    <path class="cls-3" d="M883.2285,223.3899c.0616.3722-.0135.7418-.0239,1.1124-.0128.4527-.0386.905-.0638,1.3573-.0438.7861-.0653,1.5733-.1232,2.359-.025.3394-.031.6819-.0485,1.0231-.0353.6894-.0462,1.3804-.0933,2.0688-.038.5561-.0663,1.1118-.0869,1.6689-.0364.987-.0846,1.9739-.1538,2.959-.0354.5043-.0705,1.0094-.1151,1.5123-.033.372.0036.7449-.0537,1.1136"/>
    <path class="cls-1" d="M882.9236,213.3108c.0363.0371.0692.0787.1095.1105.251.198.3084.4175.1724.6898-.0241.0484-.0785.0535-.1285.0703-.721.2426-1.4574.4219-2.2004.5766-.5907.1229-1.1881.1947-1.7859.2679-.4658.057-.9281.145-1.3945.1944-.4483.0475-.8995.0778-1.35.0896-.7475.0195-1.497-.01-2.2428.0326-.9405.0537-1.8735-.0494-2.8098-.0783-.168-.0052-.3377-.0262-.5055-.0957-.1072-.0444-.2591.0083-.3871.0357-.2091.0448-.4182.0731-.6321.065-.1515-.0058-.292.045-.3895.1574-.2744.3166-.6453.4689-1.0049.6418-.0786.0378-.1118.0858-.135.1779-.1358.5394-.3721,1.0351-.6438,1.517-.1005.1784-.2019.1949-.3762.1345-.3531-.1223-.6812-.3007-1.0206-.453-.3094-.1388-.6085-.2762-.9602-.268-.2904.0068-.4481-.2534-.4157-.5957.0462-.4882.0866-.9797.0185-1.4675-.0337-.2418-.054-.4731.0019-.7136.0359-.1545-.026-.3106-.04-.4664-.0115-.1279-.1192-.1104-.1965-.1323-.2063-.0584-.4264.0151-.6316-.0672-.0914-.0367-.1901-.0557-.2612-.1341-.3732-.4116-.8121-.3533-1.2626-.1769-.2904.1137-.5134.327-.7164.5576-.1059.1202-.1561.247-.1245.4446.0702.4381.074.8877.0989,1.3329.0195.3483.0221.6977.0474,1.0455.0165.2272.1487.4207.215.6343"/>
    <path class="cls-3" d="M879.9398,210.4405c-.0363-.0667-.0849-.1296-.1064-.201-.0459-.1526-.0485-.296.0826-.4241.2011-.1967.289-.4686.269-.7308-.0121-.1582-.0398-.3089-.0071-.4688.0771-.3773.1458-.7563.2194-1.1344.1227-.6305.2486-1.2605.3669-1.8919.0115-.0617.023-.1332-.0174-.2004-.1686-.28-.071-.5824.0118-.8404.1413-.4402.0682-.8788.0952-1.3171.0155-.2508-.1727-.3307-.3474-.4235-.1989-.1057-.4125-.1555-.6322-.175-.1698-.0151-.2526.1121-.3266.2426-.1575.2781-.2648.5781-.3232.8907-.0923.4941-.2774.9602-.3928,1.4462-.0927.3899-.1431.7909-.2461,1.1775-.2222.8335-.4211,1.6695-.4534,2.5376"/>
    <path class="cls-1" d="M864.8032,231.6223c.1427-.186.1305-.406.1306-.623.0003-.8232.0179-1.647-.0051-2.4696-.0215-.7716.0095-1.5435-.0213-2.3139-.0258-.6453-.0145-1.2922-.077-1.9365-.0121-.1252-.0617-.1749-.1571-.2235-.2421-.1234-.5052-.174-.7631-.2429-.2538-.0678-.507-.1389-.7629-.1973-.0753-.0172-.159.0042-.2389.0079"/>
    <path class="cls-1" d="M893.9221,234.359c-.1808-.2789-.483-.3276-.7619-.4237-.472-.1628-.9263-.3725-1.4138-.4973-.3164-.081-.6122.015-.9168.0175-.2746.0022-.552.0382-.8272.0636-.8628.0796-1.7297.0497-2.5926.1238-.3827.0328-.7692.0197-1.154.0263-.2533.0044-.3904.091-.4544.3348-.0897.3419-.2305.6738-.1831,1.0457.0155.1211-.0118.2642-.0643.3751-.1576.3329-.1442.6762-.104,1.0259"/>
    <path class="cls-8" d="M865.7397,224.1909c0,1.3721-.0142,2.7443.0057,4.1161.0107.7344-.006,1.4691.0211,2.2026.0153.4158.0061.8309.0174,1.2462.0048.1774-.0256.3471-.0878.5118"/>
    <path class="cls-10" d="M853.1513,240.7002c.2759.0148.5516.0332.8277.0429.1184.0042.2184-.0534.2818-.1549.1277-.2049.2568-.4097.3692-.6234.1236-.2348.2559-.3195.5033-.2881.3799.0481.7098.1789.893.5564.0586.1207.1408.2304.2425.3074.1693.1283.1911.31.2132.4938.0347.2879.1487.3777.4145.2864.222-.0762.4361-.1761.6543-.2642.2616-.1056.3846-.0737.4972.1795.1572.3535.4142.6263.6589.9089.2729.3152.604.3731,1.0017.2523.6195-.1881,1.2324-.3861,1.8069-.6938.0438-.0234.0927-.026.1528-.0056.6078.2065,1.2131.4236,1.8298.5988.5413.1538,1.0877.2942,1.6533.3437.4862.0425.9692.1234,1.4596.1074.4864-.0159.973-.0255,1.4591-.0464.2896-.0124.4268-.2161.524-.4651.0589-.151.1295-.2971.1948-.4455"/>
    <path class="cls-10" d="M892.0273,237.6074c.2057-.0672.4029-.0039.5865.0706.5004.2029,1.0429.2775,1.526.5301.361-.0682.609.2103.9137.3146.3745.1281.7428.2752,1.1113.4208.3168.1251.3719.2158.3703.5774-.0014.3005-.0577.5884-.2182.845-.2617.4184-.4331.4844-.9143.3802-.1796-.0389-.3621-.0654-.5443-.0893-.1956-.0256-.3698-.0792-.5258-.2199-.2196-.198-.3708-.1757-.563.0407-.0979.1102-.1971.3131-.2559.5152-.2935.2074-.5713.0515-.8552-.0012-.5396-.1002-1.0655-.2633-1.6107-.3402-.4653-.0657-.9175.0045-1.3482.1463-.687.2262-1.3471.126-2.0056-.0781-.7754-.2404-1.5287-.5494-2.3082-.7804-.5221-.1547-1.0349-.3437-1.5463-.5331-.234-.0866-.4647-.0456-.6982-.041"/>
    <path class="cls-10" d="M877.1521,209.6618c.2099.3013.1841.6618.2385,1.0014.0958.598.2409,1.1749.6092,1.6698.1028.1381.2015.1645.3741.1184.2946-.0787.5877-.1641.8656-.2836.1637-.0704.3006-.0639.4376.0108.3451.1879.703.3321,1.0902.3987.2815.0485.5687-.0017.8505.0615.0934.0209.1364-.0939.1934-.153.4197-.4353.8797-.8142,1.4194-1.1029.1845.1328.2206.3275.2357.5262.0164.2161-.0066.4314-.0416.6451-.0178.1087-.0637.2047-.1312.2889-.1174.1463-.2713.2555-.3767.4185-.0546.0844-.1919.0835-.2981.0925-.1686.0143-.3325.0402-.4791.1345-.0948.061-.2015.0544-.3045.042-.0597-.0072-.122-.0505-.1736.0036-.2292.2403-.543.2297-.8293.2841-.5471.1039-1.0991.1811-1.6545.2262-.4862.0395-.9732.0701-1.4591.1128-.7108.0625-1.4268.042-2.1352.1498-.1621.0247-.3347.0252-.5002-.0174"/>
    <path class="cls-10" d="M895.316,234.537c-.4356-.0519-.8711-.1042-1.3068-.1554-.0679-.008-.1178.019-.1774.0617-.1411.1011-.3037.1091-.4767.0755-.1708-.0333-.3475-.0375-.522-.0475-.203-.0117-.4065-.0188-.6098-.0213-.0574-.0007-.1153-.0166-.1752.0185-.2158.1263-.4074.0493-.6116-.0595-.2006-.107-.4221-.182-.6339-.2577-.2092-.0748-.4598-.0396-.6919-.0352-.9438.018-1.8882.0289-2.8311.0706-.495.0219-.9876.0594-1.4812-.0056"/>
    <path class="cls-10" d="M861.8848,224.3689c.2502.2259.2594.5427.3044.8456.0109.0736.011.1489.0231.2223.0269.1631.1128.2653.2822.2904.3998.0593.6936.3231.9996.5585.0523.0402.0346.1219.0296.1973-.0386.5803-.2749,1.1038-.4449,1.6448-.1557.4956-.3445.9803-.5188,1.4698-.0541.152-.0784.3067-.0381.4683.2503.0702.4796-.0336.7134-.112.5597-.1875.6808-.1282.9539.4911.0926.21.1357.4428.2001.6656.0594.2058.1394.4012.3502.4854.0835.0334.1114.1042.1473.1621.1672.2694.4261.4083.7035.5003.102.0338.1939.0723.2557.145.5741.6752,1.2956,1.1467,2.0483,1.5804.2568.148.4981.3277.6973.5544.1314.1495.2348.3231.1509.5315-.087.2161-.377.3609-.607.3365-.1371-.0145-.2758.0071-.4142-.0207-.0821-.0165-.1495.0222-.1972.1071-.2243.3987-.5667.4163-.9576.3171-.1818-.0461-.3727-.0841-.5656-.0286-.0934.0269-.1642-.0426-.2393-.0869-.1932-.1141-.3975-.1573-.6083-.0641-.0734.0325-.1409.026-.1957-.0059-.2088-.1215-.4284-.124-.655-.0861"/>
    <path class="cls-10" d="M891.3304,237.1402c-.3198.2544-.6884.4398-.982.7322-.0677.0674-.1569.0814-.2603.0494-.3623-.1123-.7375-.0884-1.1099-.0937-.053-.0007-.0963.0183-.1295.0477-.3483.3085-.6748.6398-.913,1.0461-.1374.2344-.3151.3107-.5694.2439-.9602-.2522-1.9387-.433-2.8756-.7769-.1595-.0585-.2815-.1943-.4564-.2142"/>
    <path class="cls-1" d="M854.7847,237.3182c-.1742.2225-.3438.4491-.5238.6665-.2599.3138-.3853.701-.51,1.073-.1586.4733-.4869.581-.9045.5973-.305.0119-.6098.0311-.9148.0428-.0977.0037-.1774.0365-.2394.1126-.1023.1255-.2179.2428-.3015.3804-.1085.1785-.2573.294-.4392.376"/>
    <path class="cls-10" d="M873.9723,206.2354c.2606-.2247.5782-.2378.8502-.0456.2227.1574.3962.3666.5872.5574.0727.0726.1413.165.2608.1098.1182-.0546.1653-.1579.1527-.2878-.0213-.2186.1005-.4098.1125-.6228.0026-.0459.0579-.0683.1043-.092.1745-.0893.3589-.0908.5459-.0863.1314.0032.1817.1012.241.1995.1987.329.2683.701.3453,1.0693.1103.5277.0654,1.0682.11,1.6017.0043.0515-.0197.1177.0038.1535.1959.2982.0035.5329-.1118.7811-.0098.021-.0106.0609-.0227.0642-.2939.0794-.4592.3844-.7817.4362-.2051.0329-.3277.2606-.4068.438-.2445.548-.6704.9463-1.0333,1.3969-.1301.1615-.1804.3697-.3367.524-.0735.0726.0118.2594.0549.389.1032.311.2476.6059.3106.9334.0315.1639.0163.3305.0593.4907"/>
    <path class="cls-10" d="M864.2478,237.6742c-.5699-.3708-1.1379-.7448-1.7106-1.111-.2367-.1513-.4811-.2891-.7379-.4059-.1905-.0866-.3769-.0742-.5678-.0396-.4469.0811-.844.3066-1.2616.471-.2783.1096-.5362.1085-.8083-.0033-.5716-.2349-1.149-.455-1.719-.6936-.3544-.1484-.7206-.1563-1.0896-.1267-.1633.0131-.2973.149-.3387.2879-.0668.2237-.2268.2797-.4021.3417"/>
    <path class="cls-10" d="M870.4005,210.3738c.0012-.3589-.1168-.6971-.1742-1.0458-.0956-.5811-.2866-1.1406-.3381-1.7344-.0266-.3063-.0774-.6283-.2837-.8989-.0612-.0803-.0117-.2551-.1196-.3471-.127-.1083-.2571-.2136-.392-.3113-.1707-.1237-.3675-.2172-.517-.3624-.2069-.201-.4205-.2081-.6573-.1039-.1049.0462-.1829.0273-.2864-.0191-.3095-.1389-.6497-.1597-.9767-.233-.4743-.1063-.9714-.1252-1.4156-.3532-.0961-.0493-.1693-.0053-.2159.0495-.3476.4083-.7539.7585-1.0778,1.1929-.225.3018-.1662.6056-.12.9177.099.669.2108,1.3362.3272,2.0023.0211.1208.0062.2383.0182.3567"/>
    <path class="cls-3" d="M885.2322,212.977c.0653.2091.2167.3549.3725.4868.3377.286.4206.6872.2512,1.067-.0952.2134-.0455.396.0117.581.1965.6356.1553,1.2879.1429,1.9368-.0034.1786-.06.3679-.2773.4229"/>
    <path class="cls-9" d="M860.2296,229.2861c.2033.0148.4082.0178.6095.047.3977.0578.6308.349.8241.6674.1639.27.2961.5602.4382.8437.0365.0729.0873.134.1292.2014.1069.1718.2136.2027.3985.0937.2012-.1186.4419-.1126.6712-.0926.1042.0091.1435.0868.1812.1949.1066.3053.1217.6228.1688.9367.1008.6717.1647,1.3505.3667,2.0034.0305.0987.0424.2068.0437.3108.0042.3402.0771.6658.2031.9769.0327.0808.0027.1408-.0091.2015-.0897.4641-.0394.909.1574,1.3354.1331.2884.1261.3752-.0885.6229-.1445.1668-.036.3458-.0124.5109.0175.1223.1621.1265.2742.1359.1166.0098.2324.0285.3486.0434"/>
    <path class="cls-1" d="M890.4156,236.2057c-.6606.0371-1.3223.0611-1.9816.1152-.566.0464-1.1313.0844-1.6991.0861-.2487.0008-.4975.0132-.6969.1992"/>
    <path class="cls-1" d="M856.5924,241.3676c-.2797.4656-.74.6394-1.2207.7516-.5926.1382-1.2006.1647-1.8061.2116-.4801.0372-.8585-.1237-1.1766-.4737"/>
    <path class="cls-10" d="M867.3732,220.0524c0-.0593-.007-.1197.0013-.1778.0236-.1652.0442-.3146-.1066-.4494-.1695-.1515-.363-.2173-.5692-.1908-.4367.0562-.8859.0408-1.3061.1985-.1283.0481-.2261-.0172-.3267-.052-.7009-.2423-1.3913-.5128-2.0484-.8641-.3329-.178-.5299-.4764-.6484-.8247-.0608-.1788-.1894-.2205-.3323-.2387-.1448-.0185-.2048.1142-.2588.2194-.2374.4622-.2327.9673-.2132,1.4671.0077.199.1451.3695.2807.5077.1391.1417.1506.2875.132.4721-.023.2275-.0139.4596-.0038.6891.0253.5784.0838,1.1555.063,1.7355-.0024.0669.0057.1449-.0242.1985-.2332.4181-.1263.8737-.1487,1.3146-.0045.0888-.0007.178-.0007.267"/>
    <path class="cls-1" d="M868.2443,205.4566c.0011-.1809-.0184-.3575-.0627-.5347-.0944-.3782-.2541-.5412-.6345-.5757-.5637-.051-1.1218-.1319-1.6775-.2431-.4721-.0945-.6419.0632-.6747.5747-.0053.0817-.0142.1632-.0215.2448"/>
    <path class="cls-10" d="M879.4607,218.6284c.0558.2219.2131.2784.4138.2673.1596-.0089.3201.0149.4793-.0217.2456-.0565.3872.1112.4727.2915.1684.3556.5929.4013.9423.174.174-.1132.1985-.2612.0879-.4443-.2947-.4876-.4903-1.0252-.7411-1.5349-.0846-.1719-.1643-.3474-.2632-.5105-.1467-.2419-.5818-.278-.7581-.0665-.0562.0674-.0613.1561-.0241.2432.1202.2813.2847.5372.4351.8013.0489.0858.088.1775.1315.2665"/>
    <path class="cls-1" d="M883.2285,214.134c.2826.1967.5764.3375.9369.3203.1445-.0069.2643.0976.31.279.0631.2506.1047.5002.1028.7579-.0004.0548.0024.1032-.0395.1585-.162.2135-.1823.4729-.2.7315-.0193.282-.0389.5641-.0665.8453-.0132.1344-.0449.2669-.1289.3784"/>
    <path class="cls-9" d="M850.9516,240.6334c-.0041-.035.0118-.0906-.0435-.0872-.2196.0135-.4374-.0257-.6584.0762-.1323.061-.2106.1631-.2242.2574-.0325.225-.0438.4651-.0003.6861.0371.188.2051.3234.4038.3316.5006.0206.998.1078,1.5031.0537.2718-.0291.443-.1013.559-.3993.1256-.3227.2939-.6593.637-.8321.0174-.0087.0158-.0566.0231-.0863"/>
    <path class="cls-10" d="M882.3464,204.6556c.063.235.0179.4283-.1083.652-.2292.4064-.3756.8604-.5807,1.2822-.3596.7396-.697,1.4912-1.1058,2.2054-.0809.1413-.1637.2678-.3287.3103"/>
    <path class="cls-1" d="M883.2285,216.448c-.2607-.467-1.1984-.3084-1.4157.178-.0381.0852-.0454.1743-.0443.2671.0053.4574.3524.9783.7644,1.1083.1739.0549.3617.0637.5433.0929.0142.0023.0296-.0026.0434.0007.2983.0711.3578.2614.1522.4888-.0487.0539-.1013.1041-.1521.156"/>
    <path class="cls-3" d="M891.8095,234.5815c.0239.1366.0891.2389.193.3371.6522.6164,1.3654,1.1566,2.0492,1.7335.1741.1469.3262.3217.5041.4631.2446.1944.2215.4372.1483.6919-.0394.1369-.0996.2676-.1504.4011"/>
    <path class="cls-1" d="M861.8412,224.3689c-.2505.2114-.2256.522-.2552.8017-.0357.3381-.0834.6666-.2687.9552-.2342.3648-.2644.7404-.0865,1.1358.0258.0574.046.1178.0656.1778.1497.4596-.0006.6826-.4788.7119-.3293.0201-.5732.1675-.6256.424-.038.1863-.0431.3875-.018.5758.012.0899.0247.1503-.0302.2249-.1157.157-.1633.343-.1974.5329"/>
    <path class="cls-1" d="M863.9974,212.0425c-.1433-.1447-.1866-.3501-.3006-.5149-.1005-.1452-.2215-.1768-.3745-.1522-.2056.033-.3982.0233-.5444-.1563-.0457-.0562-.112-.0786-.1747-.0863-.1995-.0244-.2593-.1833-.2778-.337-.0609-.5072.1366-.9731.6899-1.1197.3613-.0957.7283-.11,1.0917-.1647.1983-.0298.2663.1568.3223.3074.0528.1419.0702.2971.1138.4432.0755.253.1444.304.3907.3119.2899.0094.4755.1666.4725.4672-.0032.3233.1487.4799.4172.608.2615.1248.5244.2026.8081.2447.1438.0214.2459-.0628.3713-.0739"/>
    <path class="cls-10" d="M862.0372,219.8967c.4143.0322.7787.2154,1.1568.372.6795.2814,1.3364.6229,2.045.8286.1506.0437.3046.0751.4571.1122"/>
    <path class="cls-3" d="M866.8722,207.2811c.1003.7696.3217,1.5125.4818,2.2689.0864.408.1203.8279.2588,1.2243.0208.0597.0434.1187.0652.178"/>
    <path class="cls-8" d="M882.4226,205.0784c.3024.1164.4576.3435.5063.6666.0119.0788-.0088.1435-.0312.1994-.2411.6025-.5065,1.1934-.8213,1.7608-.1021.1841-.172.3866-.2655.5762-.054.1095-.0398.2217-.0418.3346"/>
    <path class="cls-10" d="M860.7305,231.0438c-.1738-.0029-.1846-.1639-.2117-.2686-.0905-.3494-.2949-.6119-.5542-.8469-.3859.0856-.636.3301-.733.7161-.0898.3575-.2662.6723-.4177,1.0002-.2384.516-.2758,1.0667-.2552,1.624.0023.0617.0057.1068-.0276.1563-.0875.13-.1438.2754-.1964.4225"/>
    <path class="cls-1" d="M865.6962,221.2762c-.003-.126.0904-.0884.1524-.0874.1837.003.378-.0572.4472-.2068.1602-.3462.4548-.304.7291-.3258.2676-.0213.5371-.0144.8056-.0263.22-.0097.3831-.0741.4671-.3293.0751-.2282.1854-.4374.0538-.6698-.1401-.2475-.6119-.2903-.8912-.0901"/>
    <path class="cls-8" d="M862.4075,231.244c-.0657.6304-.0262,1.2625.0089,1.8907.0307.5496.0686,1.1024.1641,1.6472.0023.0131-.0133.0294-.0206.0443"/>
    <path class="cls-10" d="M876.9778,218.8954c.0363-.2103.2131-.3432.2698-.5539.1197-.4446-.0149-.7658-.4443-.9139-.4303-.1484-.8689-.1474-1.3052-.0397-.0885.0218-.1889.0621-.2438.171-.0999.1981-.0108.376.243.4215.2034.0364.4095.053.6105.1098.0735.0208.1358.0515.1943.094.1476.1071.1483.2097.0235.3342-.2023.2018-.4584.2861-.7205.3522-.1986.05-.355.1338-.3907.3587-.0274.1724.089.323.2593.2831.5523-.1294.9578.172,1.3726.4523.2083.1408.3215.1472.48-.0013.1859-.1741.1846-.3341-.0235-.5769-.1228-.1433-.2526-.2783-.3032-.4688"/>
    <path class="cls-10" d="M865.9139,235.8052c-.046.2447-.0031.4894-.0015.7343.0044.6675-.0032,1.335.0045,2.0024.0022.1871-.0349.349-.1555.4895"/>
    <path class="cls-10" d="M879.3518,216.982c-.2547-.1214-.4283-.0754-.5899.132-.1595.2048-.1876.4481-.2417.6903-.1101.4926-.2441.9796-.3648,1.4698-.0176.0715-.0269.1489-.0211.222.0151.1902.1734.2762.3458.1881.131-.0669.2062-.1753.2683-.3185.1281-.2952.2376-.6088.4945-.8261"/>
    <path class="cls-1" d="M873.8852,217.6717c.04.7202.1453,1.4356.1533,2.1582.0004.0372.0056.0786.0224.1105.0552.1049.0439.2705.2384.2483.1807-.0207.2421-.1239.2393-.2919-.0074-.4524-.0071-.9051-.0248-1.3571-.0096-.2454.0169-.4897.0173-.7343.0003-.2098-.1056-.232-.2331-.2626-.0588-.0141-.1285-.0205-.1962.0155-.1508.0801-.3134.086-.478.0468"/>
    <path class="cls-10" d="M859.2495,237.7409c.0363.0075.0751-.0151.1096.0216.2314.2463.4889.4674.6773.7553.0384.0587.0733.1277.0577.1783-.0626.2022.0685.3264.1577.4686.0707.1125.1547.2175.215.3353.0826.1612.2083.2555.3725.3108.4311.1452.6525.4615.6531.9339.0004.3109.0086.6205.0876.9234"/>
    <path class="cls-10" d="M867.983,210.7965c.0951-.1956.2453-.3105.457-.3578.614-.1372,1.2224-.2777,1.8542-.0734.1514.049.2369.0837.2156.2533-.0028.0219-.0091.0504.0009.0658.2104.3246.2089.706.2856,1.068.1241.5853.2159,1.1791.41,1.7474"/>
    <path class="cls-10" d="M884.1432,238.1859c-.0074-.281.1172-.5197.2412-.7556.1231-.2341.2694-.4558.385-.6934.0395-.0811.0887-.1097.1581-.1299.0422-.0123.0952-.0027.1291-.0252.3194-.2117.626.0023.9377.0251.015.0011.0331.0104.043.022.325.3746.7971.385,1.221.5084.4465.13.9113.1966,1.3284.4244.1226.0669.2282.1488.3043.2682"/>
    <path class="cls-1" d="M883.5769,216.3923c-.3245.0378-.5962.2383-.9135.3065-.175.0376-.3021.2735-.2842.4389.0215.1989.1723.2697.3273.3081.3493.0866.7099.106,1.0664.1088.4195.0033.4365.0839.4673.474.017.215.018.4547-.0935.6685-.0433.0831-.0743.144-.1775.1572-.1108.0142-.2183.0555-.3271.0856-.158.0437-.3102.0362-.4576-.0441-.2355-.1284-.4627-.1478-.6992.018-.1507.1057-.3441.1003-.5202.1373"/>
    <path class="cls-10" d="M883.272,211.3973c.0342-.2266-.0894-.3557-.2603-.4689-.4391-.2909-.937-.4591-1.3962-.7078-.0483-.0262-.1148-.0173-.1729-.0248-.2773-.0354-.415-.1935-.3178-.4639.1368-.3808.3074-.7552.6007-1.0493.1188-.1192.2269.0059.3237.034.0866.0252.1541.1334.1816.2545.068.2992.0544.3404.4533.3776.2533.0237.5085-.0239.7631.0424.261.068.3307.1542.2822.4265-.0662.3717-.0499.3827.3258.4927.2692.0788.5452.1389.7885.3029.1181.0796.1995.1711.2578.2947"/>
    <path class="cls-1" d="M873.1011,218.1167c-.0083-.2774-.0409-.3041-.3049-.3128-.573-.019-1.1338.0906-1.6991.1546-.0625.0071-.1168.0245-.1745.0453-.2278.0823-.2991.1075-.2375.4209.3462.1335.7152.0946,1.064.055.289-.0327.5856-.0638.8743-.134.1753-.0426.3342-.0994.4776-.2068"/>
    <path class="cls-1" d="M861.8412,235.5382c-.1719-.335-.3032-.6937-.5251-.9994-.1714-.2361-.3709-.3407-.6982-.2624-.332.0794-.6948.0538-1.0412.0299-.2242-.0155-.4526-.0164-.6771-.075-.2047-.0534-.377-.1448-.5187-.2975-.0287-.0309-.0436-.0877-.0895-.0846-.4049.028-.7585-.172-1.13-.2786-.3219-.0924-.6275-.0222-.9389-.0065-.1373.0069-.2231.1369-.282.2616-.0438.0927-.0741.1921-.1104.2885"/>
    <path class="cls-10" d="M857.8556,235.2267c-.4713-.2-.8792-.5187-1.3326-.748-.2748-.139-.5374-.3443-.8671-.3407-.4079.0045-.8255-.0605-1.2183.0911-.4243.1638-.7311.4758-.9338.8884-.0259.0526-.0919.1266-.0253.1975.1937.2064.1259.4291.0693.6692-.1352.5735-.0942.5517.4752.8431.2293.1173.5047.1643.6895.3424.2263.2181.5047.3442.7431.5322.2016.159.4247.2479.6576.3282"/>
    <path class="cls-1" d="M865.0646,235.694c-.0073.7713.0017,1.5434-.0343,2.3134-.008.1709.0069.3478-.0205.5104-.0323.1916-.2082.3277-.3127.4933-.2473.3916-.4722.7967-.6126,1.2442"/>
    <path class="cls-10" d="M889.8929,239.4097c.137-.3001.4189-.4236.6751-.5786.0855-.0517.1639-.0064.2391.0238.2459.0987.4878.2095.763.178.0279-.0032.0673.0038.0856.0223.2963.3008.7084.34,1.0719.4789.3119.1192.6186.2528.9313.3703.1633.0614.2721.2105.3503.373"/>
    <path class="cls-1" d="M870.4223,210.7298c-.4785.3623-1.0043.6294-1.5677.8246-.2887.1-.5428.0301-.7845-.1348"/>
    <path class="cls-10" d="M872.9051,214.0895c-.1634-.3637-.467-.4667-.8276-.4677-.2731-.0007-.5486.0211-.8073-.1076-.0443-.0221-.1004.0165-.1527.0368-.2711.1055-.5454.2024-.8039.3387-.2515.1326-.5106.1127-.7615.0191-.4943-.1843-.9794-.2889-1.4857-.027-.1127.0583-.2722.0223-.4101.0297"/>
    <path class="cls-10" d="M861.0027,212.0425c-.1365.296-.2213.6038-.184.9344.0227.201.0433.4039.0889.6002.0831.357.3418.5247.6722.6015"/>
    <path class="cls-10" d="M864.3458,206.6136c.3215.033.6256.1435.9361.2243.5306.1381,1.0528.3099,1.6518.4046.3404-.4681.614-1.0279.8532-1.6079"/>
    <path class="cls-1" d="M873.4931,206.1686c.0799.0074.1597.0203.2396.0211.1552.0015.2574.0428.3128.2211.0498.1604.1827.292.2491.4495.0739.1751.0784.3543.0388.5569-.0487.2488-.046.5209.0142.7749.0357.1505.1914.1775.3218.1998.3698.0634.4261.1255.4351.5135.0014.0593-.0021.1188.0006.178q.0113.2448-.2182.2448"/>
    <path class="cls-10" d="M885.3846,210.93c-.1063.0349-.2183-.09-.3304.0412-.1981.2317-.208.4085.0279.601.1495.1219.3048.2355.4328.3817.18.2057.1886.4306.0211.644-.0737.094-.1761.1684-.2343.2703-.0814.1425-.1943.0979-.2613.0371-.2165-.1965-.4754-.3508-.625-.6181"/>
    <path class="cls-9" d="M875.083,214.3565c.0065-.1322-.084-.1014-.1522-.0877-.4395.0881-.8739.0497-1.3072-.045-.0932-.0204-.1999-.0075-.281-.0493-.3388-.1748-.6016-.0184-.8246.2093-.1738.1774-.3705.1639-.5708.1457-.145-.0132-.2876-.0599-.436-.0628-.0511-.001-.0699-.0382-.0654-.088"/>
    <path class="cls-1" d="M874.2772,207.4813c-.0363-.0148-.0798-.0211-.1078-.0458-.3585-.3153-.6771-.1259-.9786.094-.1992.1453-.3383.3404-.31.6196.0137.1352-.0713.2515-.1064.378"/>
    <path class="cls-10" d="M870.7054,210.3293c.1307-.1632.2718-.3189.3897-.4912.1988-.2906.4974-.3863.8084-.4647.0516-.013.0748.0291.112.0619.212.1873.3007.4499.4043.6964.087.2072.2283.2577.42.2655.2325.0095.4647.0284.697.0432"/>
    <path class="cls-1" d="M884.6223,215.6247c.1462.1229.2308.2764.2887.4655.1257.41.3331.7846.5356,1.1606.0703.1304.2306.1516.2864.2874"/>
    <path class="cls-10" d="M880.615,205.1229c-.2533.1473-.3149.4199-.3619.6691-.0801.4254-.2053.8446-.1913,1.2891.0046.1465-.0961.2953-.1431.4449-.0981.3127-.1708.631-.2216.956-.0341.2179-.1835.3764-.3235.5345"/>
    <path class="cls-3" d="M856.4182,240.6779c.2994-.2737.2648-.6275.2147-.9785-.0223-.1567-.029-.3054.0478-.4448.081-.147.2087-.1501.3266-.0239.0962.103.1526.2269.1936.3574.1214.3858.319.7345.5055,1.088.052.0985.0936.1903.0838.3022"/>
    <path class="cls-9" d="M857.3329,236.851c-.0944-.0074-.1916-.0026-.2825-.0249-.1748-.0428-.3392-.0617-.5032.0444-.0814.0527-.1841.0557-.2814.0468-.3288-.0301-.6525.0433-.98.0499-.1725.0035-.3162.1104-.4357.2397"/>
    <path class="cls-1" d="M871.8815,220.9424c.0146-.1434-.0169-.2717-.0842-.4021-.1818-.3523-.0939-.7384-.1093-1.111-.003-.0734.026-.1483.0411-.2224.028-.1373.0554-.2776.2394-.2665.2268.0137.3019.0953.3285.3108.042.3411.06.6831.0172,1.0233-.0472.3751-.0321.4068-.411.4009"/>
    <path class="cls-10" d="M891.0472,234.3367c-.1603.2786-.1912.6113-.3502.8889-.1432.25-.217.5186-.2629.8015-.021.1298.0006.2114.1097.2932.2117.1588.4332.3157.6063.5137.2302.2632.515.4534.7675.6852.0557.0511.0837.0982.0746.2002-.0369.4141-.1433.8041-.3151,1.1776-.0203.0442-.0486.0826-.0419.1343"/>
    <path class="cls-9" d="M865.0646,238.4529c.1342.0011.2207.0881.3047.1782.1169.1253.2433.2435.3458.3803.1197.1598.136.3648.1736.5547.0567.2865.0878.5783.1354.8668.0216.1311.0568.2598.0859.3896"/>
    <path class="cls-1" d="M876.3027,210.0623c-.0576-.1286-.0391-.2657-.0441-.4005-.0083-.2248-.0822-.239-.2771-.3444-.2768-.1497-.5463.0106-.8113-.0562"/>
    <path class="cls-9" d="M862.4293,211.108c-.1742.2447-.3544.4854-.521.7354-.1569.2355-.3598.3433-.6323.2622-.0917-.0273-.1753-.002-.2624-.0075"/>
    <path class="cls-8" d="M881.2901,210.2181c-.0346.1617-.1289.2844-.2385.4015-.3111.3323-.5649.7129-.8504,1.067"/>
    <path class="cls-10" d="M867.1336,211.9758c-.0222.1869.0408.3445.1516.4902.1273.1675.2473.3408.3713.5109.084.1153.1044.2323.0711.3797-.0359.1587-.0991.3175-.072.4882.0133.0841-.0588.1244-.1096.1528-.4926.2743-.7032.7608-.9132,1.2488"/>
    <path class="cls-10" d="M879.3953,216.9708c-.0101.4231-.1234.8268-.2138,1.2358-.0415.1876.0772.3323.2603.3933.397-.2529.8871-.2221,1.2602-.4944"/>
    <path class="cls-10" d="M858.5961,233.3355c.2741.0423.4928-.1229.7148-.2309.3271-.1592.5976-.1004.852.1213.3074.2679.625.5329.6983.9774"/>
    <path class="cls-10" d="M869.5511,206.6803c-.4864.1632-.9728.3263-1.4592.4895"/>
    <path class="cls-9" d="M866.2842,219.3404c.0218.3263.052.6524.0615.9791.0043.1482.0338.279.1127.4004"/>
    <path class="cls-10" d="M863.6489,238.5197c-.3988.3752-.7856.7626-1.1434,1.1792"/>
    <path class="cls-10" d="M873.0793,209.5728c-.0123-.1155.0199-.2139.109-.2891.115-.097.0765-.1974-.0013-.2883-.1115-.1302-.2392-.2467-.3436-.3823-.0461-.0599-.0851-.0881-.1562-.0867-.4934.0094-.5608.0158-.6491.491-.0215.1156-.0502.225-.0914.3329"/>
    <path class="cls-1" d="M877.4134,209.1501c.2165.0022.4217-.0414.61-.1555.0279-.0169.0644-.0494.086-.0419.3257.1136.6548-.03.9812.0181.289.0426.2799-.0298.3714.3346.0532.2121.1005.4304.2818.5788"/>
    <path class="cls-8" d="M874.7781,212.2873c.2937.1882.4775.4788.6751.7565.0948.1332.1888.2669.2832.4004"/>
    <path class="cls-10" d="M881.0941,210.0401c-.2108.0284-.386.142-.567.2434-.0681.0381-.1471.0554-.2165.0915-.1241.0647-.3186-.0054-.3849.1146-.2096.3797-.5776.644-.7253,1.064-.0092.0263-.0012.0589-.0012.0886"/>
    <path class="cls-10" d="M867.9176,214.9795c.0456.4009.0925.8013.3485,1.1347"/>
    <path class="cls-5" d="M868.0483,211.4418c-.1731.3441-.471.4776-.8276.5117-.1284.0123-.1865-.0755-.2157-.1785-.0617-.2173.0754-.5117.2814-.6218.0488-.0261.1026-.0425.152-.0677.3411-.1747.546-.0628.61.3342"/>
    <path class="cls-9" d="M894.5319,240.6334c-.107.1639-.2128.3262-.3913.4241-.2161.1186-.4176.1162-.6106-.0459"/>
    <path class="cls-7" d="M865.2388,241.4789c.1117-.0383.2278-.0671.2433-.2221.0032-.0324.0501-.0666.084-.0883.2604-.167.4908-.3883.85-.3198.2688.0513.5681-.0627.8045.163"/>
    <path class="cls-10" d="M860.0553,238.8757c-.2709.0333-.5265-.048-.7837-.1128-.0796-.0201-.1554-.0547-.24-.0429"/>
    <path class="cls-10" d="M873.0358,209.5617c.3321.1704.6001.4274.8674.6827.0379.0362.0649.06.1127.0626"/>
    <path class="cls-1" d="M855.9608,236.2502c.1002.0668.2056.1139.3262.136.2195.0403.3802.1699.4796.3757"/>
    <path class="cls-3" d="M865.609,213.066c-.2756.2597-.4879.5858-.8058.801"/>
    <path class="cls-9" d="M871.4459,214.4455c-.3803.0612-.5851.3138-.6969.6675"/>
    <path class="cls-2" d="M868.7888,210.9745c-.2771-.0311-.4915.1557-.7405.2225"/>
    <path class="cls-2" d="M872.2735,220.6309c.1138.0573.1973.1855.3485.1557"/>
    <path class="cls-2" d="M882.5315,218.3614c.0182.1033-.0416.218.0436.3115"/>
    <path class="cls-2" d="M863.8231,226.3491c-.0871.0148-.1742.0297-.2614.0445"/>
  </g>
  <g>
    <path d="M744.7695,247.2069c-.5746-.9985-1.0288-2.0177-1.2857-3.0932-.2761-1.1559-.1795-2.3129-.0873-3.4733.1206-1.5194.4943-3.0126.6851-4.5252.1875-1.4864.4383-2.9676.6773-4.4494.2491-1.5446.4684-3.0902.6023-4.6456.1337-1.5525.5977-3.053,1.4286-4.4587.3297-.5577.9308-.9769,1.4316-1.438.9849-.9068,2.0481-1.7524,3.1779-2.5468.6026-.4237,1.1128-.9438,1.6446-1.4327.583-.536.5693-1.0837.0422-1.6596-.3831-.4185-.8549-.7758-1.4072-1.0441-.4364-.212-.5833-.1507-.708.2395-.1309.4094-.2016.8225-.0625,1.2417.031.0935.1027.1954-.0212.2735-.1378.0868-.2574.0054-.3746-.0498-1.2755-.6005-2.1319-1.4869-2.6548-2.5956-.3116-.6606-.551-1.3366-.6094-2.0486-.1082-1.3202.3668-2.4874,1.3929-3.5061.1378-.1368.2268-.2816.3203-.4379.5098-.8524.8663-1.7664,1.6361-2.5137,1.0421-1.0115,2.3948-1.5515,3.9227-1.9041,1.1617-.2681,2.3241-.4719,3.5318-.5055.4652-.0129.9207.0407,1.3425.1779,1.1278.3669,2.3188.6269,3.3652,1.1331,1.1467.5547,2.0417,1.3138,2.7534,2.267.9865,1.3213,1.4116,2.7707,1.8369,4.2373.2062.7109.5601,1.3856.839,2.0788.4966,1.2345.9848,2.4637,1.7403,3.6231.4061.6233.4853,1.3698.6972,2.0647.4299,1.41.6474,2.8555,1.3191,4.2277.6631,1.3544.9144,2.8167,1.2239,4.2525.1517.7039.2489,1.4225.2721,2.1366.0599,1.8483-.4208,3.6338-1.0335,5.4025-.2173.6274-.5363,1.1953-.9842,1.7391-.5746.6975-.8866,1.5193-1.4763,2.2163-.4914.5808-.8996,1.2232-1.482,1.7346-.9184.8064-1.5965,1.7389-2.354,2.6315-.106.1249-.2492.2443-.4558.1769-.24-.0783-.188-.244-.1506-.4119.1938-.8693.8622-1.5694,1.2627-2.3648.137-.272.3229-.5276.5032-.8177-.4161-.0592-.7571.0135-1.1021.1018-.1658.0424-.3908.1-.4843-.0794-.1034-.1984.1376-.2399.2892-.3087.1579-.0717.3403-.1123.4753-.2687-.3647-.181-.2901-.408-.1149-.673.4399-.6655.5448-1.3699.2785-2.1006-.0515-.1414-.0118-.2713.0393-.3998.1749-.4392.529-.5097.9226-.1714.0574-.0328.1188-.0657.1774-.1017.1292-.0794.2695-.1378.4122-.0377.1254.0879.062.2013.0267.3104-.3107.9586-.6476,1.908-1.3724,2.7287-.0434.0491-.0725.1066-.123.1823,1.1597-.6192,2.6351-2.845,2.8077-4.2446-.4025.0582-.7267.2479-1.091.3385-.2036.0506-.4369.2066-.6114-.0203-.1524-.1983-.048-.3814.137-.5358.665-.5553,1.2294-1.1603,1.5119-1.9181.1785-.479.1038-.6235-.5021-.8152-.2514.1723-.2312.4431-.3518.663-.0842.1535-.0664.4461-.3866.3672-.3106-.0766-.1501-.3073-.0729-.4749.42-.9113.657-1.8513.6894-2.8252.0043-.1305-.0391-.3075.1867-.3326.2594-.0289.2614.1585.296.3026.0171.0713.0354.1424.0631.2533.2646-.1674.2186-.3898.2672-.578.042-.163-.0253-.3983.2561-.4191.3116-.0231.2465.225.2997.3808.0143.0418.0659.0752.1113.1243.221-.071.2331-.2202.2643-.3637.2826-1.2973.4481-2.5962.104-3.905-.0348-.1323-.0641-.3196.1511-.3386.3503-.031.2949-.2183.3167-.3989.1-.8313-.2594-1.6034-.6171-2.3349-.4378-.8952-.5435-1.8154-.6816-2.7431-.0407-.2731-.0876-.5473-.2494-.7853-.6164-.9064-1.033-1.8693-1.3083-2.878-.1992-.7297-.5838-1.403-.9886-2.07-.3865-.637-.5771-1.3303-.8042-2.0095-.2547-.7619-.7514-1.4279-1.147-2.1355-.7366-1.3173-1.9464-2.3569-2.9877-3.4939-.4421-.4828-.9564-.9281-1.5124-1.3354-.6054-.4435-1.3515-.6157-2.1194-.7194-1.8547-.2503-3.5544.0996-5.1115.9404-.0737.0398-.137.0925-.2073.1405.0752.133.1429.2526.2227.3936.4079-.1569.8118-.3221,1.2263-.4672.1884-.0659.4404-.1612.5568.061.1185.2264-.1402.2901-.3345.3598-.1625.0582-.3492.0852-.4415.2394.5919-.1711.6561-.1515.7407.2522.5996-.2212,1.2051-.4117,1.8399-.5318.2416-.0457.4774-.071.7144.0172.1131.042.2349.0742.242.1948.0084.1406-.1211.1916-.2555.2241-.3812.0923-.7374.2277-1.0903.3761-.3875.1629-.6614.4348-.997.6468-.1781.1125-.1555.2539.0535.3903.3502-.2083.7067-.4149,1.0554-.6298.2331-.1437.4849-.2592.7565-.3406.1709-.0513.3825-.093.4619.1024.0694.1706-.105.236-.2652.291-.54.1854-.9818.4809-1.3912.8143.8557-.3588,1.6291-.8315,2.5404-1.1104.8847-.2708,1.7521-.3462,2.5917.0499.3885.1833.8747.3928,1.0338.6905.1747.327.3967.6878.4347,1.0372.02.1838-.1814.5121-.5085.6807.3585.2451.8034.3545,1.1812.5555.4092.2178.8061.4478,1.14.7394.1295.1131.3103.2573.0991.4127-.2.1472-.3185-.0201-.4448-.1234-.07-.0572-.1246-.1403-.3402-.059.3028.2173.6094.4312.9065.6535.1227.0918.2348.1956.334.3047.1034.1137.2837.2427.0914.3854-.1865.1384-.3368.0003-.4658-.1022-.2668-.212-.4959-.4609-.9256-.5978.1751.4381.6226.6495.8934.9654.2346.2737.4919.5358.6904.8284.0955.1408.3012.3282.0486.4559-.2752.1392-.3396-.1161-.4515-.2482-.2226-.2627-.3405-.6419-.9066-.521-.0981.2112.079.3496.2197.4873.2924.286.5901.5689.7963.9031.0845.1371.2575.2792.1303.4446-.1394.1812-.3745.1152-.5835.0914-.1066.1293.033.2384.0345.3564.0014.1169-.0025.2351-.1576.2812-.1552.0462-.2469-.0402-.3372-.1345-.3697-.386-.747-.7672-1.1549-1.1842-.0768.2834.5373.4541.1169.7007-.2607.1529-.3629-.1578-.5927-.204-.0536.1829.0795.3106.1564.45.0622.1127.0723.2211-.0803.2893-.1307.0584-.2359.0022-.3191-.0783-.1924-.1863-.3618-.392-.6838-.5366.122.3395.4437.5257.5655.8236.0817.1998.4337.1488.6339.0189.3774-.2448.4918-.1104.6212.1981.1241.2958-.0567.537-.1445.7774-.0793.2171-.416.1721-.5771.0361-.2883-.2434-.6167-.4552-.7814-.8028-.1097-.2315-.397-.4169-.6872-.5514-.1579.1023-.0789.34-.3243.3402-.2437.0003-.2989-.1874-.3934-.3232-.3847-.5533-.3941-.5571-.9519-.2183.4598.3776.8661.7877,1.2355,1.2213.0287.0337.115.0726.1479.0606.3643-.1324.508.1031.6503.2768.4397.5364.7762,1.1209,1.1253,1.6983.0633.1047.1359.2319.0027.3471-.1386.1198-.282.055-.4158-.0027-.1281-.0552-.2681-.0375-.3988-.0629-.3888-.0757-.5092-.3743-.2246-.5986.1436-.1132.1327-.2061.0715-.3272-.0116-.0229-.0249-.0453-.039-.0672-.2401-.3738-.3521-.867-1.093-.7484.0957.1217.2095.2618.3173.4049.0853.1133.2321.244.042.3574-.2128.1269-.3302-.0398-.4391-.1518-.4344-.4468-.8612-.8985-1.2932-1.3468-.0529-.0549-.0844-.1379-.2226-.1301-.0977.171.0592.2726.1786.3699.4032.3286.6797.7291.9743,1.1188.0899.1189.2479.2534.073.4001-.1684.1413-.3473.0203-.5069-.0285-.2836-.0866-.45-.2858-.6204-.4774-.1032-.116-.2153-.2267-.3505-.3244.2447.4799.5883.9116.9649,1.324.1649.1806.4244.2221.7018.1912.5304-.059.947.0865,1.2279.469.1307.178.3239.1428.5248.0939.4503-.1096,1.0884.0889,1.2947.407.1134.1748-.0093.2901-.2096.2606-.4251-.0625-.8385.1384-1.2607.0117-.1017-.0305-.2102-.0063-.3001.0537-.1568.1045-.3152.2165-.5166.0593-.2212-.1728-.0294-.3126.0749-.4691-.1422-.1933-.3378-.2132-.6066-.1408.0862.2149.0099.4211.0363.6269.0161.1254-.0237.2283-.1835.2613-.1575.0325-.2593-.0487-.3313-.1509-.0756-.1073-.1324-.2238-.2146-.3273-.1329-.1673-.2638-.3245-.5745-.2901-.3075.0341-.4508-.3533-.892-.2137.3982.6383.4141,1.3948,1.0272,1.9705.1974.1854.3926.3916.5022.6163.4198.8606.8258,1.7207.9623,2.6587.0928.6376.2621,1.2648.1833,1.9124-.0083.0683.015.148.1215.1851.14-.1279.0736-.2818.0813-.4249.0066-.1231-.0201-.2617.1575-.3203.2013-.0664.3256.0522.4105.1656.2203.2939.5398.357.9316.3259.3606-.0285.8514.3415.8582.624.002.0843-.0438.1432-.1368.1743-.1162.0388-.202-.0144-.2894-.068-.1455-.0892-.219-.2912-.5116-.1988-.0156.3154.2106.574.349.8501.178.3551.3922.698.5803,1.0499.0535.1001.0821.2117.1007.3205.0175.102-.0089.2024-.1567.2371-.1458.0342-.2305-.0388-.2951-.1281-.1219-.1684-.2144-.3542-.4555-.4833-.1309.19.0134.3365.0832.4827.0546.1144.148.2161.2161.3267.0701.1138.055.2216-.0876.2902-.1646.0793-.2961.0295-.3778-.0998-.2089-.3307-.4974-.6187-.7419-.9271-.289-.3645-.6548-.5982-1.1195-.7811-.1742.1586-.1542.3704-.2378.5508-.0427.092-.0706.2022.0548.2698.1163.0626.2349.0199.3413-.0351.1812-.0936.3881-.2303.5427-.009.1358.1943.0275.3544-.1891.511-.4247.3072-.8208.6325-1.435.6626-.0515.0025-.1166.0414-.1469.0787-.4605.5669-1.0114,1.1188-.8415,1.8616.1523.6657-.1097,1.3005-.1394,1.951-.044.9644-.4166,1.8939-.4699,2.9082.1798-.1117.2012-.2469.233-.3629.2495-.913.5538-1.8165.5605-2.7658.0024-.3409.1456-.6799.1296-1.0297-.0059-.1291.0523-.2593.2307-.2847.198-.0282.2343.1075.2958.2255.0811.1558.0741.3138.0743.4744,0,.1019.0027.2056.1635.2299.1859.0281.2537-.0842.2742-.1927.06-.3174.1077-.6368.1407-.9568.0263-.2541.1019-.4421.4609-.5157.4534-.0929.6401-.3558.7418-.7407.0975-.3687.3983-.6904.4021-1.1049.0016-.1776.2459-.1656.4167-.0317.1719.1348.1803.3365.3158.487.1886-.001.3348-.2391.5344-.0663.1915.1658.0391.319-.0466.4762-.106.1946-.2162.3808-.4462.5039-.1687.0904-.1919.2393-.2173.391-.1168.6982-.2383,1.3959-.3683,2.0925-.0271.1454-.0899.2875-.1496.4273-.052.1217-.1347.2409-.3277.1881-.1677-.0459-.222-.1751-.1948-.3038.0593-.2798.1493-.5553.2106-.8349.0586-.2671.0755-.5366-.0077-.7998-.6289-.0479-.7145.0065-.8114.455-.0893.4136-.1909.8255-.2952,1.2368-.0575.2269-.1962.3764-.5233.3763-.3603-.0002-.5146.1605-.574.4595-.1174.5912-.2275,1.1797-.2613,1.8694.4574-.4962.5838-.9954.7693-1.4733.0622-.1602.1093-.347.3682-.2983.3183.0599.1911.2725.1389.4283-.332.9899-.6713,1.9781-1.0158,2.9652-.0552.1581-.0889.3175-.0681.4765.0433.3315-.0384.6302-.2295.9272-.1245.1935-.1627.4229-.2494.6335-.0865.2103.0032.3574.2583.4927.3642-.4895.7276-.9681.8979-1.5227.1473-.4797.2653-.9653.4132-1.4448.0452-.1465.082-.3677.3469-.3226.2927.0498.1959.2584.1674.4292-.0395.2367-.2635.498.1267.6897.0416.0205.0488.1158.0391.1727-.2023,1.1893-.4115,2.3949-1.2342,3.4157-.6296.7812-1.2448,1.5872-2.0919,2.2409-.0552.0426-.1055.0902-.1652.1282-.1452.0925-.3054.2059-.4806.0646-.1852-.1493-.0285-.2678.0991-.3777.4826-.4157.918-.8607,1.2671-1.3584.0824-.1174.1685-.2395.209-.3686.0761-.2425.1679-.472-.1762-.6807-.2363-.1433-.3181-.4159-.5825-.5879-.26-.1692.0832-.4011.0896-.6465-.2543.1222-.4933.238-.7335.3521-.094.0447-.1966.0852-.2992.0279-.1211-.0676-.1021-.1705-.0743-.2698.0422-.1508.1805-.2857.1218-.5032-.2254.1781-.4701.3052-.4091.5637.0625.2649.2626.4152.6087.4812.558.1064.744.4398.4586.8357-.4376.607-.7968,1.252-1.3109,1.8218-.1208.1339-.2484.3393-.4995.2202-.2495-.1182-.1136-.316-.0093-.4598.154-.2122.3459-.4061.5209-.6082.1504-.1738.2347-.3311-.0181-.5127-.2655-.1908-.3003-.4429-.0737-.7295-.7302-.0464-.4448-.3743-.3207-.677-.3991.2192-.6555.4713-.8777.7732-.3797.5158-.7425,1.0563-1.3979,1.3908-.1578.0805-.3527.2243-.5283.0601-.17-.159-.0002-.3107.1353-.4207.4031-.3273.5499-.7684.7972-1.1624.5734-.9136,1.2183-1.7974,1.6258-2.7792.6011-1.4485,1.048-2.9154,1.0528-4.4549.0017-.5665.2824-1.1125.1837-1.7117-.5529.2666-1.1273.3802-1.7339.1278-.0608.054-.1234.084-.1358.1242-.243.7897-1.0034,1.2831-1.6115,1.8614-.464.4413-1.0901.5687-1.7735.5272-.408-.0248-.5975.0731-.5353.4354.0395.2303-.0053.4663.1168.6924.2417.4476.2218.4763-.3103.6535-.032.1624.0499.3137.0805.4709.062.3183.064.6211-.3337.8201-.1787.0894-.189.2423-.1883.3956.0021.5437.0658,1.0981-.4961,1.5266-.0672.0512-.0475.1875-.0489.2845-.0047.3346-.0093.6694.0022,1.0038.0097.2818-.0614.5108-.4203.6337-.2455.0841-.2385.3009-.3085.4716-.1154.2813-.2102.5683-.3332.8472-.0502.1138-.1263.28-.2339.3067-.5005.1242-.4396.4722-.5361.7698-.1061.3271-.1525.6966-.6484.8304-.0474.0128-.0886.069-.1103.1124-.3856.7708-1.1513,1.3475-1.6038,2.0836-.0755.1228-.1807.2094-.3587.1632-.1584-.0412-.1923-.162-.1654-.2752.1335-.5624.0136-1.1349.5677-1.6609.7856-.7457,1.4928-1.5642,1.9676-2.4921.7004-1.3686,1.4043-2.7284,1.7926-4.1923.2125-.8012.4272-1.5896.4236-2.4102-.0008-.1823.0285-.3737-.178-.5499-.2447.2148-.4795.43-.727.6351-.2015.167-.4091.3308-.6304.4799-.2927.1973-.4181.4491-.4247.7485-.0046.2105.0005.4212-.0051.6317-.0136.5121-.1376.5723-.7069.3369-.0365.3146.0039.6026.1643.9003.2795.5187.2555,1.0504-.0835,1.5593-.0286.043-.0667.0855-.0779.1319-.3212,1.3271-1.3187,2.3385-2.3459,3.3365-.105.102-.2243.1868-.3897.1237-.2055-.0783-.1264-.2165-.0934-.3539.0564-.2345.2459-.4972-.1984-.7307-.2333,1.471-.0053,2.8772.1539,4.3156-.1045.0313-.202.0313-.336.0313M751.6608,232.6654c1.0316-.1534,1.9251-.4259,2.4537-1.28.3326-.5373.7699-1.033,1.0233-1.609.0835-.1898.2426-.2746.4943-.1234.5666.3403,1.164.2536,1.5111-.2371.6225-.8797,1.178-1.7927,1.5885-2.7484.571-1.3297.7716-2.7135.5704-4.1192-.0447-.3127.0371-.6599-.2002-.9615-.3358.1337-.369.3641-.4258.578-.2349.8855-.0764,1.8002-.3015,2.6878-.1369.5398-.0355,1.1175-.3886,1.6234-.0669.0958-.1217.2197-.2981.1797-.1876-.0426-.2156-.1849-.1737-.3031.1787-.5038.1061-1.028.2054-1.5397.0683-.3523.1799-.7242.0867-1.1085-.1794.0513-.1722.1321-.1905.2033-.2077.8059-.248,1.6344-.5221,2.4327-.2524.7353-.37,1.5012-.7419,2.2094-.0764.1454-.1013.4035-.3894.3305-.2976-.0754-.128-.2863-.0752-.4438.3211-.9591.5434-1.9268.4253-2.9285-.036-.3051-.1451-.3659-.4458-.2027-.3633.1972-.6621.4634-.7669.8062-.2743.8979-.4887,1.8078-.7584,2.7067-.2312.7704-.5533,1.5183-1.0014,2.2256-.0817.1289-.1864.2932-.4155.1865-.2022-.0941-.0943-.2309-.0161-.355.8512-1.3505,1.0973-2.8139,1.2024-4.3022.0154-.2184.0759-.5197-.218-.5952-.2955-.0759-.4867.1929-.6588.3717-.5244.5447-.8099,1.1724-.9941,1.8453-.334,1.2201-.8527,2.3967-1.3322,3.5824-.2196.5429-.1302.6493.555.8407.0432.0121.0871.0224.1982.0474M755.4582,210.6772c.3632-.5758.3722-.5802.9096-.4459.6406.16.9414.4683.8758.8977-.0755.4938-.2455.6584-.7106.6788.0382.3192.0903.6375.1098.9571.0132.2159.1682.5597-.24.5718-.3697.0109-.2108-.3438-.2799-.5403-.0884-.2513-.0199-.5706-.4179-.7148-.1235.1523-.0633.2854-.0279.414.054.1961.0671.394.0292.5902-.0239.1236-.0892.2498-.2784.2525-.1742.0025-.2023-.1205-.2523-.2262-.0478-.101-.009-.2465-.1872-.3033-.147.1718-.0075.4-.222.5291-.2589.1558-.3761-.0938-.5848-.1797.2854.7382.6287.8853,1.4808.6693.1449-.0368.2715-.0354.3598.0794.0823.107.0142.1878-.0816.2594-.056.0418-.1162.0798-.1731.1208-.1143.0825-.1101.1722-.0104.2577.0934.0801.1917.0531.2831-.0078.1911-.1273.3256-.2924.4647-.4554.083-.0973.1968-.1663.3483-.0971.1465.0669.1442.1734.0927.291-.1229.2807-.2604.555-.4697.802-.1634.1929-.1067.3368.1613.4638.4922-.4602.8336-.9614.9556-1.5493.069-.3325.1276-.6511.7106-.565-.0427-.3809-.0618-.7276-.1235-1.0691-.2098-1.1614-.7943-2.1869-1.6285-3.146-1.0844-1.2469-2.4696-2.0538-4.3582-2.2446-.3184-.0322-.6283-.0383-.8227.1968-.8566,1.0361-1.2167,2.1985-1.3179,3.4225.3194-.6029.6129-1.2119.9186-1.8169.0972-.1923.2934-.3209.5407-.2108.2273.1013.0608.2591-.0167.3869-.3211.5293-.4361,1.1031-.564,1.675.0584-.0612.0928-.1283.1256-.1959.3826-.7882,1.0261-1.3962,1.9186-1.8289.1644-.0797.3675-.2082.5206-.022.1388.1688-.08.2605-.2111.3569-.2139.1572-.4524.2965-.6405.4718-.4508.4203-.7067.9185-.817,1.4732.1598-.0707.2753-.1633.3806-.2631.4307-.408.9454-.7351,1.501-1.0191.1397-.0714.3485-.2013.4685-.0036.096.1582-.0677.2722-.2429.3457-.3847.1613-.6911.409-.9957.6472-.2526.1976-.473.4396-.4897.7613.2589.0219.2914-.1343.366-.2465.1012-.1522.1831-.3134.2914-.462.187-.2569.4071-.3821.668-.0544.3677-.2094.5944-.5287,1.021-.6385.1979-.051.4294-.1855.569.0184.1577.2302-.1398.2936-.3118.3646-.8244.3404-.9623,1.0758-1.4573,1.6105.7211-.306,1.3215-.7131,1.8625-1.2588M750.7723,226.2141c.4028-.2661.9422-.3695,1.2969-.6847.8187-.7276,1.4998-1.5258,1.7925-2.5049.07-.2341.2445-.3438.5435-.3756.3907-.0415.7764-.117,1.162-.1862.9343-.1678,1.5378-.7385,2.1562-1.2525.4205-.3495.681-.8127.619-1.3527-.0545-.4748-.2473-.8596-.8055-1.0756-.0384-.0149-.0694-.0493-.0939-.0799-.1908-.2381-.4759-.2879-.8266-.2876.2665.1712.5082.3186.7383.4772.1444.0995.2824.2385.1365.3831-.1615.1601-.3202.0344-.4635-.0657-.1753-.1224-.3417-.2646-.6766-.29.293.3323.5277.6142.8155.8675.1156.1017.282.236.1089.3875-.1612.1412-.3358.0464-.4924-.035-.3638-.1892-.7601-.2871-1.1866-.3094-.0892.1877.0772.2676.172.3707.0907.0985.2064.1861.2726.2941.0754.123.1124.2804-.059.3683-.1942.0997-.2962-.0335-.3948-.1508-.152-.1808-.3234-.344-.6911-.3895.1591.3279.4554.5398.4783.849.0102.1369.1839.3072-.0611.3893-.2624.0879-.3345-.1147-.4123-.2555-.1711-.3093-.4608-.4881-.8727-.5971.0263.324.2477.5367.3962.7765.0931.1504.2285.3479-.0006.4699-.2657.1415-.3797-.0847-.4723-.2242-.1943-.2927-.4693-.4738-.8982-.5369.2293.247.4409.4726.6491.7003.0851.0931.1424.1968.0624.3097-.093.1312-.2295.0717-.3634.0501-.2427-.0391-.4839-.1506-.7691-.0326.0962.2708.3583.4683.4112.7394.0278.1425.1457.308-.0803.394-.2289.087-.3189-.0705-.4013-.2083-.1129-.1888-.2806-.3235-.5603-.4131.1085.3396.1979.6265.2926.9122.0335.101.0583.1998-.0707.2647-.1483.0746-.2508.0024-.3565-.0804-.1628-.1275-.3371-.2453-.5065-.3673.038.2424.1395.4354.2228.6335.048.114.0255.2303-.133.2795-.1513.047-.2668-.0083-.3348-.1244-.0839-.1433-.1469-.2987-.3663-.3836.0175.3177.2908.5513.3352.8448.0155.1026.0521.1992-.076.2646-.1221.0624-.2287.02-.3338-.0442-.1295-.079-.2369-.1946-.4549-.1941-.0055.2208.0568.4446-.0581.6543-.0452.0825-.0901.1619-.2111.1745-.1477.0154-.2193-.0662-.2689-.1625-.0556-.108-.0521-.2511-.2747-.2763-.0315.3069-.0638.6097-.0932.9127-.0141.146.0176.3326-.2373.3397-.2148.006-.2314-.1594-.2639-.2963-.0358-.1508-.0459-.3127-.2173-.4735-.3218.6852-.4163,1.3725-.5974,2.042-.0378.1398-.1195.3182.0893.4002.2294.0901.4191-.036.5439-.1806.3114-.3611.6944-.6868.8081-1.1467.0672-.2719.2117-.4946.6587-.3778.2087.0545.4154-.0438.6742-.1337M747.8196,231.7637c.2085-.6494.3787-1.3013.1827-1.9751-.0494-.1697-.1093-.3362-.3446-.3802-.1385.0314-.1817.1164-.2161.1956-.3036.6995-.6121,1.3975-.773,2.1321-.2102.9595-.4313,1.9116-.8629,2.8334-.3196.6825-.622,1.3902-.6258,2.2169.7783-.5337,1.0252-1.2599,1.3653-1.9355.2732.1083.2696.2974.3856.4217.1114.1194.2828.2307.3955.0564.3104-.4799.8385-.8363,1.0662-1.3697.2376-.5568.5871-1.0819.8859-1.6215.0494-.0893.1268-.1455.2472-.1247.1383.0239.2029.1151.1975.2211-.0057.11-.0377.22-.0679.3282-.1229.439-.2094.8847-.3334,1.3257.8744-1.2976,1.215-2.7116,1.4084-4.1632-.1354.0292-.2084.0742-.254.1332-.3641.4716-.5131.9909-.5077,1.5442.0013.1347.0176.3008-.2203.3074-.2248.0063-.2518-.1522-.2677-.2892-.0419-.3603.007-.7153.0971-1.0691.1021-.4008.0401-.7909-.1242-1.1919-.2086.1034-.2403.2562-.3005.3907-.3222.7197-.6454,1.4386-.8953,2.1788-.064.1895-.0946.5511-.4416.4609-.3904-.1015-.0429-.3708.0036-.6262M759.7742,205.7334c-.7927.2827-1.5218.6363-2.0582,1.2139.8055-.4437,1.6944-.3606,2.5859-.3213.3906.0172.7908-.0484,1.0789-.3112.1849-.1687.1976-.3348-.0551-.4683-.4687-.2476-.9611-.3581-1.5515-.113M759.7603,207.3248c.545.0808.889.345.7332.6326-.3581.6616-.9385.3249-1.497.1016.0056.2418-.026.419.1688.565.3502.2625.9253.2417,1.476-.0625.4814-.2659.6072-.5507.441-.9417-.1669-.3926-.552-.5506-1.0037-.6089-.4851-.0626-.9444.0251-1.3023.3169-.1212.0989-.1878.2461-.0669.3989.3674-.0956.5698-.4128,1.0508-.4019M762.3343,210.6763c.1122.0754.1937.1933.37.1828q.0824-.2685.7526-.2466c.0334-.0986-.0356-.1698-.115-.2221-.2798-.1843-.561-.3682-.8547-.5372-.1462-.0841-.302-.1606-.196-.3188.1067-.1591.2871-.1024.4395-.0378.2356.0999.4652.2093.6973.3147-.2578-.434-.7922-.5284-1.2487-.7139-.0846-.0344-.1724.0281-.2426.0773-.2506.1757-.5009.3518-.7898.5548.3905.3102.7678.6098,1.1874.9467M761.1647,211.5611c.1313.1552.2418.3296.5315.3979-.0205-.2859-.3309-.383-.4256-.5851-.0497-.106-.1181-.2197.0203-.3029.1543-.0927.2821-.0292.383.0854.1092.1241.2093.2618.4839.2673-.1398-.5143-.5989-.7968-.9881-1.1077-.5699-.4553-.7351-.4394-1.3012.0445.454.36.9006.7275,1.2964,1.2007M758.4491,238.4162c.2256-.3925.3757-.8056.4403-1.2334.0554-.3667-.0974-.6834-.4659-.9635-.1855.2986-.3556.5616-.3995.8534-.025.1664-.1476.4063.1263.4967.399.1316.289.3156.1545.5275-.0715.1126-.1375.2276-.2189.3631.1393-.008.2291-.0131.3632-.0438M746.4283,239.4734c.6214-1.3808.6311-1.4171.4808-1.8066-.4391.7272-.5688,1.5354-.9921,2.2667l.1237.0446c.1201-.1515.2403-.3031.3876-.5048M770.0083,230.1136c.0255-.1269.1633-.2431.0477-.4001-.2938-.0271-.4366.225-.7036.2658-.2757.042-.2274.2537-.167.392.0788.1805.2714.1584.4531.074.1481-.0688.2747-.1525.3699-.3316M760.0907,211.1253c-.2057-.1586-.3349-.4011-.6959-.433-.0371.4247-.0046.7974.6185,1.0946-.2935-.3298.0526-.4392.0774-.6616M758.9519,216.8174c.0695.4728.3091.6111.682.3901-.1202-.235-.2577-.4515-.682-.3901M762.5049,225.7754c-.0238.212.084.4021.1261.6161.1463-.0049.3025.0051.2814-.1322-.0322-.2094-.0479-.4473-.4074-.4839M757.8845,215.2913c.2149-.2975.2985-.6214.2957-.9635-.13.3726-.4131.7026-.4778,1.1463.0791-.0724.1177-.1077.1821-.1828M745.8266,238.6429c.058-.1235.1165-.247.0639-.383-.1182-.0432-.2118-.0042-.2979.0439-.1501.084-.1049.1951-.0271.2869.0485.0573.0477.2626.2612.0521Z"/>
    <path d="M761.4628,220.1201c.0816-.2702.298-.2329.5129-.1905.1683.0331.3282.1355.5393.0271-.1512-.2491-.4657-.2503-.7162-.3231-.2822-.082-.5348-.177-.657-.4178-.0427-.0841-.0649-.1685.0229-.2416.0868-.0723.1953-.0705.294-.025.4441.2046.9526.2383,1.4256.3646.313.0836.6307.1491.8993.3389.323.2283.7456.1464,1.0862.0489.3846-.1101.6832-.1895.9056.1692.0098.0157.083.0054.16.0086.0472-.261-.0999-.4751-.2121-.6929-.0617-.1197-.1314-.2378.0347-.3298.1653-.0915.288-.0027.3911.0943.159.1496.3094.3052.4657.4567.3125.3029.9739.2834,1.2748-.0356.1264-.134.086-.2473-.0466-.3617-.1099-.0948-.1996-.2173-.0466-.3225.1522-.1046.2895.0013.3974.0849.3155.2444.4836.5665.6042.8926.0788.2132-.0701.4084-.308.5366-.4034.2174-1.3941.2217-1.7891.008q-.4236.4872-1.1315.0089c-.3623.3515-.9095.2498-1.3752.3506-.1683.0364-.319-.1227-.4217-.2497-.1313-.1624-.2914-.2819-.5805-.2812-.1311.399-.5063.5048-.9688.4923-.1231-.0033-.2432-.0002-.3375.0807-.0963.0826-.2034.17-.3531.0949-.1439-.0722-.0976-.1906-.0777-.302.0149-.0837.0063-.1702.0078-.2845Z"/>
    <path d="M752.0816,240.4943c.2757-.0793.3675.033.3612.2355-.0472,1.5249-.4572,2.9328-1.8314,4.0732-.5998.4978-1.2819.9099-1.9141,1.3724-.1076.0787-.2355.1414-.3688.0614-.1575-.0946-.0994-.223-.0183-.3331.0697-.0948.1391-.2045.2454-.2642.5339-.2996.9398-.6902,1.3255-1.1103,1.0621-1.157,1.8657-2.3982,2.0771-3.9111.0583-.075.0909-.0994.1234-.1239Z"/>
    <path d="M752.08,240.4697c-.0309.049-.0635.0735-.118.1182-.6686.9007-1.3158,1.7809-1.9613,2.6618-.0914.1247-.159.3129-.391.221-.2526-.1-.1327-.2835-.0371-.4177.4037-.5665.8164-1.1289,1.2362-1.6875,1.154-1.5356,2.1264-3.1365,2.7144-4.8813.0891-.2645.1147-.5345.1868-.799.0331-.1212.0878-.2554.2944-.2199.1709.0294.1768.1495.174.266-.0076.3116-.099.6096-.1949.9098-.4271,1.3376-1.2147,2.5544-1.9035,3.8285Z"/>
    <path d="M755.1063,238.4645c-.2245.4646-.4329.9034-.6496,1.3394-.0672.1352-.1407.3198-.3724.2518-.2784-.0817-.1434-.2607-.0642-.4045,1.0489-1.902,1.538-3.9283,1.9948-5.9612.0435-.1937.0309-.3955.0672-.5908.0241-.1297.0497-.298.2857-.2716.2056.023.1767.1753.1813.2966.0208.5385-.1498,1.0553-.2755,1.5769-.304,1.262-.5969,2.5264-1.1675,3.7635Z"/>
    <path d="M769.642,223.4956c-.2483-.8048-.4391-1.5948-.9906-2.2826-.0927-.1155-.2523-.2708-.0567-.3945.2073-.1311.3584.0171.4933.1392.0295.0267.0689.0461.1031.0685.4208-.3242.5412-.3049.745.119.2039.4241.4209.8446.6027,1.2749.1768.4184.0884.5201-.4334.5876-.0616.1513.0644.2887.0522.4348-.0132.1588.1047.3914-.2032.4226-.2645.0268-.2704-.1852-.3124-.3694Z"/>
    <path d="M763.9666,231.2738c-.1058.1333-.1729.2976-.3865.223-.2007-.07-.1418-.2258-.1008-.3581.0792-.2555.0767-.5142.0605-.7744-.007-.1131-.002-.2274.1332-.2974.1501-.0777.2553.0026.3626.0745.058.0388.126.1087.1808.1036.6162-.0578.5721.2937.5542.6023-.0558.963-.2033,1.9171-.4981,2.8524-.0482.1529-.1431.2995-.2407.4376-.0736.1042-.2028.1527-.3515.0854-.1472-.0666-.1716-.1758-.097-.2861.5173-.7646.3833-1.6425.6467-2.4515.0788-.242.0333-.263-.2634-.2113Z"/>
    <path d="M766.2129,217.0736c-.1216-.1268-.2297-.2303-.3342-.3361-.0817-.0827-.1254-.1765-.0363-.2699.0893-.0936.2234-.0892.3315-.0392.4103.1897.6548.5042.883.8241.0558.0782-.0023.1664-.0893.2307-.2682.1983-.2442.4339-.1241.6795.0641.1311.1311.2667-.0719.3539-.1702.0731-.2767-.0257-.3905-.1144-.493-.3842-.9915-.7638-1.4878-1.1451-.1239-.0952-.274-.2023-.1226-.3418.151-.1392.3221-.0395.4339.0565.2087.1794.4769.2505.7468.331.2704.0806.341.0009.2615-.2291Z"/>
    <path d="M763.9724,223.6383c-.435.1592-.702-.0322-.9213-.262-.147-.154-.2357-.3451-.3474-.5209-.0685-.1078-.0958-.2198.062-.2895.1816-.0803.2775.0216.3644.1329.1047.134.1521.2986.3169.401.4595-.2988.4577-.2948,1.0955-.1022.3205.0968.6437.1381.9677-.0144.1615-.076.3645-.1379.4582.063.082.1757-.1258.2224-.2632.294-.4494.2341-.9794.0955-1.4539.2113-.0851.0208-.1678.0482-.2789.0868Z"/>
    <path d="M769.2032,227.1645c.022.1053.0448.1789.0425.2521-.0049.1527.0822.3465-.1659.42-.2443.0724-.2624-.1596-.4395-.2627-.3766.3521-.8701.1709-1.3326.1518-.1766-.0073-.3702-.0961-.3741-.2733-.0048-.2184.2196-.1887.3982-.2038.1656-.014.3292-.056.4943-.0585.4477-.0069.6722-.1644.65-.5469-.009-.1549.0097-.3502.2798-.3602.229-.0084.2925.1544.3301.3024.0459.1807.072.3647.1173.579Z"/>
    <path d="M762.0455,235.3564c-.0545-.1439.0031-.2465.0796-.339.5349-.6471.7916-1.3835,1.0376-2.1237.0237-.0712.0468-.1431.08-.2115.0476-.098.1261-.1793.2708-.1568.1584.0247.2414.123.2069.2462-.2525.9016-.4579,1.819-1.212,2.5642-.1347.1331-.2716.2032-.4629.0204Z"/>
    <path d="M764.9714,234.2412c.0479-.2308.1573-.4252-.0024-.6346-.0758-.0994.0126-.2229.1266-.2911.2068-.1237.3149-.2911.3936-.4823.044-.1069.1236-.2115.2891-.1956.1793.0172.2524.1323.261.2629.0279.4241-.05.8351-.288,1.2169-.1434.23-.3056.4522-.4605.6774-.0771.1121-.1674.2225-.3526.1565-.1595-.0568-.1354-.1792-.1045-.2889.0372-.1317.0859-.2613.1377-.4212Z"/>
    <path d="M765.3637,216.1206c-.2361-.0433-.3197-.1533-.2182-.3025.1733-.2547.1205-.4979-.0066-.7441-.0643-.1246-.0842-.2415.0729-.3269.1597-.0868.3051-.0226.4012.0742.3321.3344.6523.6769.9695,1.0209.094.1019.1586.227.0046.3291-.1707.1132-.3089.0334-.4259-.0788-.0777-.0745-.1503-.1525-.2319-.2359-.2064.1017-.3691.1818-.5655.2639Z"/>
    <path d="M767.1116,216.5661c.1437-.2288.3122-.1565.4412-.0367.4287.3979.8504.8013,1.2575,1.2138.1044.1058.2502.2702.0275.3835-.2095.1066-.308-.0547-.4249-.1736-.3401-.346-.6972-.6809-1.0451-1.0218-.1047-.1026-.2453-.1882-.2562-.3652Z"/>
    <path d="M764.5568,229.3998c-.3559-.2615-.1875-.582-.1627-.8638.0146-.1656.2458-.1342.3728-.0053.2037.2067.1033.6935-.2101.8691Z"/>
    <path d="M747.6847,233.4473c-.1854.3415-.3639.6543-.5488.9644-.0557.0935-.1477.1655-.2883.1378-.1339-.0264-.2315-.1212-.1867-.2196.1825-.4019.1107-.8637.44-1.229.109-.1209.1628-.3327.4315-.2319.2298.0862.2686.2519.1839.44-.0154.0343-.0184.0723-.0316.1384Z"/>
  </g>
  <g>
    <path d="M623.606,213.6007c-1.7435-1.6672-4.075-2.2282-6.3182-2.9391-.3659-.1159-.7427-.2223-1.0795-.3882-.4848-.2387-.8089-.5911-.1537-.9467.4883-.265.3703-.7611.4264-1.0361.201-.9851,1.1395-.8661,1.7829-1.1803.071-.0346.2529-.0056.2549-.0197.1544-1.0975,1.3701-.6916,2.0028-1.1109.5203-.3448,2.2677.2594,2.4652.8191.0445.1261.1227.2527.1235.3797.007,1.1766.8864,1.6286,1.9876,1.9125.5167.1332,1.0285.2826,1.537.4386,1.7095.5246,2.8526.14,3.835-1.232,1.1025-1.5397,2.7017-2.6161,4.4089-3.5811.2732-.1544.5394-.3186.8453-.4998-.287-.4743-.5682-.7708-1.2054-.5101-1.0331.4227-1.4119.3399-1.9192-.5414-.3956-.6871-.7193-1.3592-1.7305-1.4824-.3651-.0445-.6106-.3559-.4205-.6583.3199-.5088.177-1.0854.4492-1.608.2897-.5561-.2835-.9959-.5502-1.4382-.9479-1.572-.1174-3.7414,1.7901-4.2756,1.004-.2812,2.0414-.1031,2.7892.6426,2.057,2.0514,3.7858,4.2427,4.4886,7.0157.5869,2.3156,1.507,4.5627,2.0655,6.89.4964,2.0684,1.0884,4.1197,1.4506,6.226.0935-2.858.8211-5.6069,1.9104-8.2693,1.5025-3.6726,3.1771-7.277,6.3137-10.178.7189-.6649,1.5432-1.1887,2.4096-1.6453,1.4842-.7821,2.7451-.14,3.0919,1.3941.2557,1.131-.16,2.0475-.9376,2.8585-.708.7383-.727,1.5306-.5274,2.3938.2307.9977.0175,1.2203-1.1597,1.2284-.2087.0014-.4186-.0154-.626-.0377-.4222-.0454-.6784.0146-.8849.445-.4857,1.0121-.8289,1.0952-2.0145.6678-.4622-.1666-.7499-.1173-.8027.4014,1.2236.6396,2.4511,1.0259,3.9692.8895,2.4049-.2161,4.8132-.494,7.2436-.4609,1.1751.016,2.3198.2078,3.474.3355.5478.0606.9987-.0074,1.448-.2542.6249-.3432,1.32-.5158,2.0371-.5945.5164-.0567,1.0504-.0751,1.1331.5822.053.4215.5064.3297.7768.3654,1.1744.1552.747,1.0328.8505,1.5813.1126.5969-.6084.4551-1.0022.4718-2.9543.125-5.91-.0981-8.8695.1223-1.4976.1115-2.8517.5916-4.2559.9566-.4029.1047-.6476.3658-.4444.7264.6306,1.1193,1.5491,2.1254,3.3767,1.6404,1.7188-.4562,3.4702-.8186,5.2176-1.1825.425-.0885.6767-.3263.9526-.5588.5681-.4787,1.1403-.9537,1.8555-1.2529.5554-.2323.9958-.1739,1.0945.475.5863.0549,1.137-.2437,1.7622-.0402.5231.1703.8601.4923.9186.8663.0648.4145-.1325.8605-.6214,1.1559-.865.5227-1.8874.4792-2.8353.6844-.7945.172-1.5162.4166-2.2444.7588-2.1597,1.015-4.2288,2.2466-6.7463,2.5123-.6689.0706-.796.4989-.7462.9936.1556,1.546-.0773,3.0644-.4206,4.5758-.053.2335-.0564.512-.2067.6863-.8523.9883-.4113,1.8159.3302,2.6275.9823,1.0753,1.5514,2.2743,1.6834,3.6857.0682.7297-.0244,1.3677-.5787,1.8326-1.6375,1.3736-2.0325,3.2692-2.8504,4.9894-.2015.4238.0553.6034.4505.6833.6392.1291,1.2911.2102,1.9295.3419.618.1275,1.0147.4704,1.0103,1.0578-.0042.5553-.4775.7297-.9884.8874-.6421.1982-1.2839.241-1.9466.1516-.4021-.0543-.8071-.1321-1.2781-.0237.2133.7356.9089.7939,1.4542.9473.6785.1909,1.403.2528,2.1033.3874.6528.1255,1.2512.3715,1.2312,1.0573-.0188.643-.7106.7385-1.2253.889-.8774.2564-1.784-.0068-2.6808.0284-.9904.0389-1.9707.1103-2.9494.253-1.5225.222-2.2806-.5555-1.8266-1.8893.56-1.6453.6623-3.3389.6285-5.026-.0253-1.2596-.3913-2.5001-.0172-3.7807.1635-.5597-1.0283-1.1397-1.7911-.9191-1.3403.3875-2.6737.7909-4.0788.9616-2.7813.3379-5.4854.0037-8.1555-.6635-1.3318-.3328-2.5095-.9888-3.8061-1.3907-1.0168-.3152-1.3064-.1968-1.5568.7044-.6499,2.3386-.3915,4.5698,1.0762,6.6354.1271.1789.264.354.3715.542.478.8363.2123,1.4106-.8255,1.7321-.6189.1917-1.2545.3405-1.9012.5135-.0805.5485.3441.9169.48,1.363.309,1.0145-.1534,1.7036-1.3252,1.6533-1.9854-.0852-3.929.2799-5.8979.3261-.1797.0042-.3591.0212-.5388.0293-.568.0257-.9579-.23-1.0268-.6987-.0703-.4778.3656-.7348.8288-.797.8419-.113,1.6403-.3213,2.3864-.6754,1.4657-.6955,1.5846-1.0247,1.0543-2.4151-.6017-1.5778-1.2038-3.1542-2.0406-4.6488-.6131-1.0951-.553-2.1837-.0456-3.3038.8944-1.9744,1.9626-3.8698,3.233-5.6752.3304-.4696.4725-.9703.1455-1.4251-1.0272-1.4286-1.2888-2.9821-1.1084-4.6345.0282-.2581-.0284-.523-.0512-.8672-1.585.1085-2.5787-.8205-3.7204-1.6172M638.1708,204.232c.2641-.0363.5826-.1296.6985.1682.1252.3217-.1955.4712-.4471.6082-.4961.2701-1.2193.3535-1.0174,1.1241-.586-.0471-.689-.4111-.7831-.7263-.1588-.5319-.4945-.5464-.932-.297-.6814.3884-1.4233.727-2.0035,1.2138-.8502.7134-1.9119,1.2851-2.4352,2.4116.4734-.075.7414.1422,1.1878.3941.1307-1.0602,1.2848-1.1133,1.8542-1.7454.2976-.3304.6768-.1176.9501.09.3021.2294.128.4847-.0706.6984-.3681.396-.8394.6902-1.3341.9399-1.9591.9885-3.7994,2.1337-5.611,3.3166-.9973.6511-1.4252.6761-2.4141.0392-.9659-.6221-1.9009-1.2927-3.0295-1.6757-.9444-.3205-1.6416-.8362-2.0119-1.6841-.0726-.1662-.2262-.3044-.3358-.447q-1.8716.3969-2.7819,1.2875c.5363.2375,1.0801.6342,1.6629.4993.7025-.1626,1.1656.08,1.6369.4053,1.3896.9591,2.7657,1.9335,4.1462,2.9029.5292.3716,1.0558.7042,1.7652.2895.1932-.1129.4615-.2068.607.0794.1525.2998.3431.1055.5028.0303.6874-.3241,1.3884-.6308,2.046-.9981,1.9759-1.1036,4.2033-1.6786,6.3488-2.4243.3252-.1131.763-.195.8648.2665.1075.4872-.2611.9866-.6851.9338-.5202-.0648-.7492.2229-1.1175.3135-.7875.1937-1.2638.8292-1.9582,1.075-1.0745.3804-2.2552.5101-3.2006,1.1912-.2415.174-.5933.2478-.9082.3182-.9606.215-1.1633.8263-1.2618,1.6043-.1484,1.1726.4363,2.1656.8122,3.2107.3262.9071.4781.917,1.4386.4079.38-.2014.7454-.6644,1.4686-.2123-1.7299,1.1731-2.8421,2.669-3.8271,4.2819-.9779,1.6013-1.9257,3.1784-2.0864,5.048.5029.0163.496-.5319.9249-.4032.1661.0498.1987.1815.1907.3231-.0336.5902-.5414.7203-1.099.7851.4537,1.9418,1.2361,3.6922,2.1272,5.4295.7339,1.4308,1.0801,1.7858-.592,3.0272-.1049.0779-.2539.152-.1656.4071,1.107-.1262,2.2297-.2543,3.4488-.3933-.4191-1.0661-1.0504-1.9632-.9994-3.0363.029-.6096-.1438-1.1672-.4634-1.7403-.3036-.5444-.5971-1.0885-1.0768-1.5333.555-.3436.7331.1602,1.1151.2433-.2428-.5173-.4694-.9753-.6742-1.4408-.694-1.5772-.4881-2.9962.9371-4.2276.3904-.3373.7195-.5651,1.123-.1028.7379-.4337,1.0344-1.2243,1.844-1.4637.911-.2694,1.6629-.6965,2.2396-1.3814.2112-.2508.4799-.614.8469-.5027.5436.1649.7706-.1325,1.0715-.3749.2099-.1691.4434-.3405.6959-.1081.207.1906.0482.3959-.1011.5704-.5047.5902-1.0021,1.1861-1.6169,1.5954.8243,1.1985,1.7403-.2394,2.5787.0337.1656.6015-.7295.5182-.6514.9678.1029.1308.2403.162.3357.1034.6904-.4238,1.3461.0291,2.0161.0504.3205.0102.3717.2312.1939.4604-.1262.1626-.4554.1723-.4455.4818.6823.0625,1.2263-.7369,1.8612-.3645.2578.347-.1785.4289-.0954.6993.6231-.1995,1.1951-.2576,1.86.0292.3127.1349.7345.5252,1.2143.2805.9051-.4616,1.9937-.0177,2.8993-.4912.1964-.1027.3847.0331.5619.1526.3788.2554.7359.3949,1.171-.01.4551-.4234.2914-.741-.0401-1.1024-1.1063-1.2062-2.1008-2.4937-3.3734-3.5793-.2116-.1805-.6123-.3853-.3744-.7198.1994-.2803.4787-.5216.9438-.52.9093.0033,1.482.4593,1.9581,1.0557.1836.23.2318.6132.6282.6003.5468-.0178.5985.297.7439.6304.1778.4079.1393.8706.5446,1.2285,1.1118.9817,1.7232,2.2755,2.5808,3.417.1129.1502.0724.4183.0384.6237-.2236,1.3504-.1385,2.7233.0318,4.0424.2145,1.6617.0165,3.1983-.6698,4.7252-.1847.4108-.2558.8049.2554,1.0948q.4802-.5006.3895-1.0706c-.0712-.447.0821-.5814.7167-.577-.3601.7228-.0866,1.0213.7906,1.0239.4179.0012.905.0157,1.2773.483.1631-.5.7211-.4128.9936-.778-.2877-.1285-.5419-.2602-.8114-.3595-1.5854-.5844-1.949-1.2511-1.4998-2.7158.3401-1.1087.9683-2.1162,1.4137-3.1872.6298-1.5146,1.1958-3.1238.6015-4.6593-.7119-1.8396-1.8163-3.5599-2.7769-5.3206-.1654-.3031-.503-.5297-.6861-.8279-.2661-.4334-.0686-.7777.4249-.9647.523-.1981.5374.178.6965.4705.3035.5579.6026,1.131,1.068,1.582.3927-.0931.506-.3429.6615-.5719.9168-1.3503,1.3899-2.8241,1.4716-4.3781.0692-1.315.4964-2.8139-1.5819-3.349-.0411-.0106-.0631-.0863-.0888-.1338-.3402-.6276-1.3293-.9148-1.6771-.8631-1.2142.1805-1.9167-.6361-2.8985-.8334-1.0159-.2042-1.3528-.9735-1.74-1.6773.4032-.3691.7222-.1501,1.0548-.0579,1.8594.5155,3.5896,1.3059,5.3936,1.9368.5807.203,1.2393.5772,1.8726.2863.946-.4347,1.9753-.6192,2.9564-.9408.1959-.0642.4805-.1317.608.2111-.9611.5437-2.2117.514-3.2255,1.1923.9646.5149,1.7908.1865,2.5755-.0818,2.8345-.9692,5.3107-2.6649,8.4493-3.2857-.4926-.2212-.7409-.4976-.2051-1.0283-.788.2386-1.3186.6667-1.9765.2673-.164-.0996-.3815.107-.5275.2407-.2349.215-.5103.3648-.8244.4721-2.0456.6987-4.2024,1.0315-6.3035,1.5468-1.2057.2957-2.1567.1962-3.1948-.5426-1.4273-1.0157-2.9079-2.0375-4.7584-2.4607-.286-.0654-.5968-.1949-.5144-.5441.0612-.2591.1915-.641.4883-.595.526.0815,1.3069.0218,1.5293.2434.5435.5417,1.5503.6045,1.802,1.408.0225.0717.2134.0738.4435-.1884-2.3135-2.002-4.4302-4.2562-8.3873-3.6606-.2529.22-.2687.6997-.4579,1.1131-1.7263,3.7727-2.5084,7.6769-2.1802,11.7417.0941,1.1648.0464,2.3294-.2837,3.4757-.0729.2532-.0168.5882-.442.574-.4114-.0137-.3749-.3423-.4077-.6014-.1133-.8962-.0493-1.7934-.0176-2.6914.0663-1.8755-.6052-3.6578-.9651-5.4705-.7836-3.9467-1.8803-7.8428-3.4431-11.6079-.7808-1.8812-1.6878-3.7471-3.1691-5.3038-.9292-.9765-2.2271-1.4054-3.3802-.2605.6378.2228.6149.4923.0898.831-.1954.126-.5446.3181-.3216.5675.3449.3858-.1347.6009-.1994.9031.4391-.132.8206-.2813,1.2194-.358.5181-.0996.8339.0998.7594.5958-.086.5721-.7987.9555-1.5412.7914.3596.8112-.17,1.5691-.1325,2.4107.7116-.0982,1.082.212,1.3037.6767.1416-.0276.2347-.0303.3112-.0634.3033-.1312.6442-.3022.8916.0032.3031.3742-.1525.4564-.3806.6454-.2937.2434-.2834.5076.1325.6982.6272-.2941,1.0731-.7622,1.5098-1.2277.3377-.36.4407-.8963.0866-1.1702-.5301-.41-.4447-.7269-.0316-1.149-.3038-.09-.5244-.1681-.7528-.2206-.6189-.1423-.537-.646-.6522-1.0275-.0763-.2528.1236-.4668.4026-.5548.4542-.1433.8945-.1283,1.2289.2278.5619.5983.936,1.241.4775,2.0316-.3083.5315.1686,1.0439.4669,1.0816.5739.0726.7174.4891,1.0922.6153.0132.3713-.4088.5354-.3337.86.9293.5164,1.1186.9719.5731,1.7008-.5956-.025-.6498-.5188-.9141-.8453.0299.4147-.0241.8265.1781,1.2003.3982.0039.6642-.1284,1.0004-.4051M651.3703,202.5131c-.3016-.1811-.8468-.3423-.3842-.7333.2652-.2242.4366-.4721.6536-.7101.3348-.3673.7966-.4139,1.2969-.2081.3505.1442.4049.7489.9704.5211.5696-.2294.0532-.7405.3039-1.0734.0689-.0915.1127-.24-.0364-.3617-.1928.2124-.2971.5866-.7246.4233-.3785-.1445-.2307-.4391-.1608-.6913.0534-.1928.0665-.3782-.141-.4978-.238-.1372-.6303-.1953-.4444-.5567.1503-.2922.514-.222.8016-.2457,1.6426-.1356,1.932-.3866,2.2714-1.8077.1633-.6837-.343-1.0238-.7754-1.4114-.4391-.3936-.8963-.1528-1.3143.0474-1.0407.4984-1.8933,1.1907-2.6512,2.0995.5897-.0062.915.2497.9864.6908.0748.4619-.473.3893-.7139.584-.2374.1919-.656.2-.7359.5411-.0599.2558-.0205.5733-.4252.6095-.4608.0413-.3802-.4004-.7187-.5902.1475,1.0483.0688,2.0871-.0091,3.2174.6776-.0163,1.251.5174,1.951.1534M656.4081,205.0154c-.2393.0155-.4791.0262-.7177.0477-.2622.0236-.5845-.0131-.6878.2698-.0961.2631.1452.4504.3215.6185.588.5603,1.4996.7873,2.1811.6821,1.1617-.1793,2.3127-.4542,3.6404-.5323-.8402-.2431-1.6646-.0327-2.2936-.553,1.0692-.1241,2.2344-.2299,3.1306.207.5438.2651.9785.3548,1.5252.3469,1.1909-.0173,2.3833-.282,3.5731.0137.2432.0605.472-.0104.662-.2251-.034-.108-.0744-.2323-.1124-.3572-.2991-.982-.6013-1.106-1.623-.6158-.5346.2565-1.0833.3037-1.6547.1943-2.5812-.494-5.1765-.3577-7.9446-.0967M629.9758,228.1198c-.1294.0641-.3747.1795-.3717.1849.3455.6156-.4155,1.482.5487,1.9568.1364.0671.1333.214.1307.3557-.0206,1.1319.1513,2.2517.3496,3.3624.0925.518-.1871,1.1611.4355,1.5402.7551.4597,1.1104-.4294,1.7321-.463.0271-.0015.0491-.084.1171-.209-1.3205-.8836-1.4266-2.2008-1.455-3.5519-.0116-.5532-.148-1.0522-.5785-1.5314-.3064-.341-.4282-.8883-.2414-1.3668.4865-.0588.3067.4383.6385.4854q-.0576-1.155-1.3055-.7633M623.57,210.3177c.8563.5351,1.9102.7284,2.9359,1.1056.2259-.4967.991-.4966,1.6813-.6088-1.5747-.5197-3.0992-.9596-4.6149-1.4217-.5358-.1634-.9232-.5201-1.1107-.9813-.2248-.5529-.5575-.9647-1.2306-1.1052-.4124.8446.6994,2.3214,2.339,3.0115M656.4347,223.7391c.708.9737,1.05,2.0983,1.5552,3.2473,1.0988-1.8017.1542-3.0312-1.6488-4.951q-.589.6744-.5962,1.565c.1993.021.3986.0421.6898.1387M647.8947,202.5095c-.1833-.1813-.3859-.1748-.5011.0343-.203.3683-.4547.7309-.4668,1.1933.4762.1316.891.1091,1.3024-.0555.0615-.4131-.0805-.7508-.3344-1.1721M655.7656,234.2683c-.5216.4275-.0599.5174.2813.5775.7426.1308,1.5166-.3394,2.2654.1157-.6758-.6678-1.6141-.5039-2.5467-.6933Z"/>
    <path d="M653.2901,230.8463c.0415-1.2121.0838-1.3427.704-1.9233-.0776,1.2198-.1457,2.2907-.2277,3.5785-.6303-.6063-.3804-1.1275-.4763-1.6552Z"/>
    <path d="M625.2295,212.8537c-.7073-.3317-1.3604-.6541-2.1039-1.0211.8279-.2443,2.1611.3233,2.3287.8895.0093.0313-.1107.0932-.2248.1316Z"/>
    <path d="M654.7448,228.0999c.8772-.1094.8203.6555,1.4147.9165-.8511.3044-1.2196.0355-1.4147-.9165Z"/>
    <path d="M633.1154,200.7673c-.1397.2572-.2966.4376-.5788.315-.3345-.1453-.4164-.4179-.3745-.7649.4863-.1547.8815-.1958.9533.4499Z"/>
    <path d="M630.9816,234.3558c-.1228-.2719-.1597-.4963.2096-.4882.2972.0065.4624.2126.5279.459.0507.1909.0115.4027-.2011.475-.3991.1358-.3761-.2229-.5363-.4459Z"/>
  </g>
</svg>