<?xml version="1.0" encoding="UTF-8"?>
<svg id="Layer_1" xmlns="http://www.w3.org/2000/svg" viewBox="0 0 100 68">
  <defs>
    <style>
      .cls-1 {
        fill: #fff;
      }
    </style>
  </defs>
  <g>
    <path class="cls-1" d="M5.14,63.57l19.15-9.04c1.65-.78,4.13-1.44,5.42-1.44l66.15.25-19.14,9.04c-1.65.78-4.13,1.44-5.42,1.44l-66.16-.25Z"/>
    <path d="M29.7,52.09v2s61.73.23,61.73.23l-15.15,7.15c-1.67.79-3.97,1.34-5,1.34l-61.72-.23,15.15-7.15c1.67-.79,3.97-1.34,4.99-1.34v-2M29.7,52.09c-1.44,0-4.05.68-5.84,1.53L3.98,63.01c-1.8.85-2.1,1.55-.67,1.55l67.97.26s.01,0,.02,0c1.44,0,4.05-.68,5.84-1.53l19.88-9.39c1.8-.85,2.1-1.55.67-1.55l-67.97-.26s-.01,0-.02,0h0Z"/>
  </g>
  <g>
    <path class="cls-1" d="M5.54,58.65l19.15-9.04c1.65-.78,4.13-1.44,5.42-1.44l66.16.25-19.15,9.04c-1.65.78-4.13,1.44-5.42,1.44l-66.16-.25Z"/>
    <path d="M30.1,47.17v2s61.73.23,61.73.23l-15.15,7.15c-1.67.79-3.97,1.34-5,1.34l-61.72-.23,15.15-7.15c1.67-.79,3.97-1.34,4.99-1.34v-2M30.1,47.17c-1.44,0-4.05.68-5.84,1.53l-19.88,9.39c-1.8.85-2.1,1.55-.67,1.55l67.97.26s.01,0,.02,0c1.44,0,4.05-.68,5.84-1.53l19.88-9.39c1.8-.85,2.1-1.55.67-1.55l-67.97-.26s-.01,0-.02,0h0Z"/>
  </g>
  <g>
    <path class="cls-1" d="M5.54,53.65l19.15-9.04c1.65-.78,4.13-1.44,5.42-1.44l66.16.25-19.15,9.04c-1.65.78-4.13,1.44-5.42,1.44l-66.16-.25Z"/>
    <path d="M30.1,42.17v2s61.73.23,61.73.23l-15.15,7.15c-1.67.79-3.97,1.34-5,1.34l-61.72-.23,15.15-7.15c1.67-.79,3.97-1.34,4.99-1.34v-2M30.1,42.17c-1.44,0-4.05.68-5.84,1.53l-19.88,9.39c-1.8.85-2.1,1.55-.67,1.55l67.97.26s.01,0,.02,0c1.44,0,4.05-.68,5.84-1.53l19.88-9.39c1.8-.85,2.1-1.55.67-1.55l-67.97-.26s-.01,0-.02,0h0Z"/>
  </g>
  <g>
    <path class="cls-1" d="M4.54,48.65l19.15-9.04c1.65-.78,4.13-1.44,5.42-1.44l66.16.25-19.15,9.04c-1.65.78-4.13,1.44-5.42,1.44l-66.16-.25Z"/>
    <path d="M29.1,37.17v2s61.73.23,61.73.23l-15.15,7.15c-1.67.79-3.97,1.34-5,1.34l-61.72-.23,15.15-7.15c1.67-.79,3.97-1.34,4.99-1.34v-2M29.1,37.17c-1.44,0-4.05.68-5.84,1.53L3.38,48.09c-1.8.85-2.1,1.55-.67,1.55l67.97.26s.01,0,.02,0c1.44,0,4.05-.68,5.84-1.53l19.88-9.39c1.8-.85,2.1-1.55.67-1.55l-67.97-.26s-.01,0-.02,0h0Z"/>
  </g>
  <g>
    <path class="cls-1" d="M4.57,34.65c1.27-.55,2.72-1.07,4.24-1.62,3.96-1.43,8.46-3.05,11.24-5.76,5.38-5.25,5.2-15.58,4.94-17.4-.06-.4-.17-1.43,0-2.73.14-1.07.25-1.91.75-2.46.57-.63,1.52-.76,2.21-.76.3,0,.61.03.89.07h.08s.08.01.08.01c12.98-.02,24.53-.03,33.85-.03,14,0,22.54.02,24.14.03.44,0,1.6.01,2.3.71.48.48.72,1.25.71,2.28.09,1.36.09,2.66,0,3.94-.19,2.84-.86,5.85-1.94,8.71-1.09,2.9-2.44,6.48-5.75,9.63-.71.67-2.85,2.71-5.67,3.79-.65.25-1.83.64-2.93.98-1.04.31-2.1.6-3.15.85l-65.99-.25Z"/>
    <path d="M27.95,4.91c.33,0,.59.04.72.06l.17.03h.17c12.95-.02,24.48-.03,33.79-.03,14.01,0,22.58.02,24.19.03.33,0,1.19,0,1.6.41.27.27.42.83.41,1.57v.08s0,.08,0,.08c.08,1.24.08,2.5,0,3.73-.18,2.74-.83,5.65-1.89,8.46-1.1,2.92-2.35,6.24-5.49,9.23-.67.63-2.7,2.57-5.34,3.58-.62.24-1.79.63-2.86.95-.98.3-1.98.57-2.98.81l-60.47-.23c3.85-1.39,8.03-3.02,10.77-5.69,5.68-5.54,5.5-16.36,5.23-18.27-.04-.27-.15-1.24,0-2.45.13-.99.22-1.61.49-1.91.36-.39,1.15-.43,1.47-.43M27.95,2.91c-.89,0-2.13.19-2.95,1.09-.71.78-.84,1.8-1,3-.21,1.6-.02,2.84,0,3,.29,2.07.22,11.79-4.65,16.54-3.85,3.76-11.32,5.35-15.98,7.54-1.8.85-2.1,1.55-.67,1.55l67.97.26c.82-.19,1.97-.49,3.32-.9,1.08-.33,2.31-.73,3-1,3.01-1.16,5.24-3.28,6-4,3.49-3.31,4.88-7.01,6-10,1.6-4.25,1.91-7.7,2-9,.11-1.62.07-2.99,0-4,0-.81-.11-2.11-1-3-.97-.97-2.39-1-3-1-1.72-.01-10.6-.03-24.21-.03-9.31,0-20.84,0-33.79.03-.14-.02-.54-.09-1.05-.09h0Z"/>
  </g>
</svg>