<?xml version="1.0" encoding="UTF-8"?>
<svg id="Layer_1" xmlns="http://www.w3.org/2000/svg" viewBox="0 0 100 49">
  <defs>
    <style>
      .cls-1 {
        fill: #fff;
      }
    </style>
  </defs>
  <g>
    <path class="cls-1" d="M4.56,46.07l19.15-9.04c1.65-.78,4.13-1.44,5.42-1.44l66.15.25-19.14,9.04c-1.65.78-4.13,1.44-5.42,1.44l-66.16-.25Z"/>
    <path d="M29.12,34.6v2s61.73.23,61.73.23l-15.15,7.15c-1.67.79-3.97,1.34-5,1.34l-61.72-.23,15.15-7.15c1.67-.79,3.97-1.34,4.99-1.34v-2M29.12,34.6c-1.44,0-4.05.68-5.84,1.53L3.4,45.52c-1.8.85-2.1,1.55-.67,1.55l67.97.26s.01,0,.02,0c1.44,0,4.05-.68,5.84-1.53l19.88-9.39c1.8-.85,2.1-1.55.67-1.55l-67.97-.26s-.01,0-.02,0h0Z"/>
  </g>
  <g>
    <path class="cls-1" d="M4.95,41.15l19.15-9.04c1.65-.78,4.13-1.44,5.42-1.44l66.16.25-19.15,9.04c-1.65.78-4.13,1.44-5.42,1.44l-66.16-.25Z"/>
    <path d="M29.52,29.67v2s61.73.23,61.73.23l-15.15,7.15c-1.67.79-3.97,1.34-5,1.34l-61.72-.23,15.15-7.15c1.67-.79,3.97-1.34,4.99-1.34v-2M29.52,29.67c-1.44,0-4.05.68-5.84,1.53L3.8,40.59c-1.8.85-2.1,1.55-.67,1.55l67.97.26s.01,0,.02,0c1.44,0,4.05-.68,5.84-1.53l19.88-9.39c1.8-.85,2.1-1.55.67-1.55l-67.97-.26s-.01,0-.02,0h0Z"/>
  </g>
  <g>
    <path class="cls-1" d="M4.95,36.15l19.15-9.04c1.65-.78,4.13-1.44,5.42-1.44l66.16.25-19.15,9.04c-1.65.78-4.13,1.44-5.42,1.44l-66.16-.25Z"/>
    <path d="M29.52,24.67v2s61.73.23,61.73.23l-15.15,7.15c-1.67.79-3.97,1.34-5,1.34l-61.72-.23,15.15-7.15c1.67-.79,3.97-1.34,4.99-1.34v-2M29.52,24.67c-1.44,0-4.05.68-5.84,1.53L3.8,35.59c-1.8.85-2.1,1.55-.67,1.55l67.97.26s.01,0,.02,0c1.44,0,4.05-.68,5.84-1.53l19.88-9.39c1.8-.85,2.1-1.55.67-1.55l-67.97-.26s-.01,0-.02,0h0Z"/>
  </g>
  <g>
    <path class="cls-1" d="M3.95,31.15l19.15-9.04c1.65-.78,4.13-1.44,5.42-1.44l66.16.25-19.15,9.04c-1.65.78-4.13,1.44-5.42,1.44l-66.16-.25Z"/>
    <path d="M28.52,19.67v2s61.73.23,61.73.23l-15.15,7.15c-1.67.79-3.97,1.34-5,1.34l-61.72-.23,15.15-7.15c1.67-.79,3.97-1.34,4.99-1.34v-2M28.52,19.67c-1.44,0-4.05.68-5.84,1.53L2.8,30.59c-1.8.85-2.1,1.55-.67,1.55l67.97.26s.01,0,.02,0c1.44,0,4.05-.68,5.84-1.53l19.88-9.39c1.8-.85,2.1-1.55.67-1.55l-67.97-.26s-.01,0-.02,0h0Z"/>
  </g>
  <g>
    <path class="cls-1" d="M3.95,17.15l19.15-9.04c1.65-.78,4.13-1.44,5.42-1.44l66.16.25-19.15,9.04c-1.65.78-4.13,1.44-5.42,1.44l-66.16-.25Z"/>
    <path d="M28.52,5.67v2s61.73.23,61.73.23l-15.15,7.15c-1.67.79-3.97,1.34-5,1.34l-61.72-.23,15.15-7.15c1.67-.79,3.97-1.34,4.99-1.34v-2M28.52,5.67c-1.44,0-4.05.68-5.84,1.53L2.8,16.59c-1.8.85-2.1,1.55-.67,1.55l67.97.26s.01,0,.02,0c1.44,0,4.05-.68,5.84-1.53l19.88-9.39c1.8-.85,2.1-1.55.67-1.55l-67.97-.26s-.01,0-.02,0h0Z"/>
  </g>
</svg>