<svg version="1.1" id="Layer_1" xmlns="http://www.w3.org/2000/svg" xmlns:xlink="http://www.w3.org/1999/xlink" x="0px" y="0px"
	 width="100%" viewBox="0 0 432 624" enable-background="new 0 0 432 624" xml:space="preserve">
<path fill="#000000" opacity="1.000000" stroke="none" 
	d="
M64.399994,625.000000 
	C58.111794,611.573547 53.140892,597.868286 50.329453,583.406616 
	C47.307892,567.864075 48.365467,552.305237 49.373550,536.701660 
	C50.693489,516.271118 54.782761,496.192596 56.870663,475.852814 
	C58.922329,455.866058 61.667488,435.947723 64.283234,416.022369 
	C67.009773,395.253052 69.408989,374.469543 70.875114,353.554108 
	C72.338470,332.678162 77.416054,312.500763 86.509125,293.598511 
	C90.116722,286.099182 96.695053,280.462921 102.176392,274.262207 
	C112.954803,262.069183 124.589775,250.698135 136.954041,240.016510 
	C143.549255,234.318848 149.131897,227.325180 154.951950,220.750992 
	C161.332413,213.543839 161.182404,206.178253 155.413406,198.434891 
	C151.220474,192.806976 146.058105,188.002518 140.013443,184.394958 
	C135.237473,181.544571 133.630234,182.367996 132.264862,187.614792 
	C130.832123,193.120438 130.058243,198.674957 131.580399,204.311951 
	C131.920029,205.569717 132.704407,206.939468 131.347931,207.989120 
	C129.839737,209.156158 128.531052,208.061417 127.248444,207.319473 
	C113.289421,199.244705 103.917976,187.325546 98.195061,172.417603 
	C94.785156,163.534943 92.165329,154.445282 91.526405,144.870712 
	C90.341774,127.118149 95.540611,111.423225 106.769707,97.724991 
	C108.277634,95.885483 109.251923,93.938797 110.275230,91.836281 
	C115.853813,80.374489 119.755409,68.083702 128.180664,58.035374 
	C139.585449,44.433548 154.388779,37.173275 171.109985,32.430725 
	C183.822998,28.824999 196.544601,26.085680 209.760590,25.633839 
	C214.851898,25.459772 219.835999,26.180578 224.452011,28.025875 
	C236.793777,32.959599 249.828812,36.456173 261.279510,43.262306 
	C273.829041,50.721584 283.623505,60.928375 291.412079,73.746193 
	C302.207733,91.512764 306.859955,111.003624 311.514862,130.723587 
	C313.771240,140.282440 317.644836,149.355484 320.696411,158.676636 
	C326.130859,175.276337 331.473969,191.805481 339.741394,207.394928 
	C344.185852,215.775681 345.052704,225.814667 347.371490,235.158737 
	C352.076447,254.118317 354.456207,273.556366 361.807648,292.007538 
	C369.064056,310.220245 371.814087,329.883148 375.201111,349.189423 
	C376.861725,358.654999 377.925201,368.317749 378.178436,377.919769 
	C378.833893,402.774017 373.572937,426.782471 366.868134,450.565491 
	C364.489685,459.002289 360.999481,466.638855 356.097015,473.950958 
	C349.808258,483.330688 346.393921,494.380310 339.940979,503.752350 
	C334.563599,511.562347 330.096527,520.199768 323.722351,527.076721 
	C313.671753,537.920288 306.251007,550.459229 297.960724,562.462219 
	C296.800873,564.141541 295.233948,565.747192 292.972778,564.841248 
	C290.346375,563.788940 290.915222,561.559692 291.324768,559.302734 
	C293.446045,547.613403 300.759888,538.199097 305.142914,527.504089 
	C306.641754,523.846741 308.676727,520.409119 310.649902,516.509094 
	C306.096130,515.712769 302.364471,516.690979 298.588898,517.877563 
	C296.774017,518.447998 294.312286,519.222595 293.289276,516.809570 
	C292.158142,514.141418 294.794586,513.584351 296.453949,512.658630 
	C298.182098,511.694580 300.177582,511.148468 301.655426,509.045746 
	C297.663910,506.611664 298.480804,503.558868 300.397614,499.996033 
	C305.211761,491.047821 306.359344,481.575500 303.444977,471.750122 
	C302.881195,469.849243 303.315460,468.101410 303.875458,466.373505 
	C305.789612,460.467407 309.665222,459.519653 313.972412,464.068634 
	C314.600677,463.627960 315.272705,463.185028 315.913757,462.701050 
	C317.327179,461.633911 318.862671,460.848145 320.424622,462.193939 
	C321.797058,463.376434 321.103363,464.900482 320.716339,466.367615 
	C317.316101,479.258026 313.629578,492.024017 305.697174,503.060394 
	C305.222290,503.721069 304.903564,504.494019 304.351196,505.511230 
	C317.042542,497.185272 333.189362,467.255249 335.077972,448.434479 
	C330.673309,449.217163 327.125671,451.767914 323.138336,452.986328 
	C320.910339,453.667114 318.356781,455.764679 316.447632,452.713165 
	C314.779449,450.046722 315.922363,447.585205 317.946411,445.508575 
	C325.224335,438.041504 331.400818,429.906647 334.491699,419.716949 
	C336.445557,413.275787 335.627625,411.332764 328.996338,408.755768 
	C326.245148,411.072327 326.466583,414.713959 325.146149,417.671204 
	C324.224548,419.735229 324.419739,423.669769 320.915588,422.608307 
	C317.516968,421.578857 319.272430,418.475922 320.117737,416.222290 
	C324.714203,403.967773 327.307251,391.328186 327.661865,378.232697 
	C327.709381,376.478241 327.233612,374.097565 329.705109,373.759766 
	C332.543640,373.371735 332.565826,375.890839 332.944397,377.828949 
	C333.131622,378.787384 333.332153,379.743225 333.635223,381.234436 
	C336.530670,378.983521 336.027802,375.992737 336.558990,373.462341 
	C337.018982,371.271149 336.282227,368.107117 339.361542,367.826477 
	C342.772095,367.515564 342.059509,370.851593 342.641632,372.947662 
	C342.797882,373.510345 343.363251,373.959412 343.859863,374.618622 
	C346.278076,373.663971 346.410583,371.657227 346.752747,369.727417 
	C349.845764,352.282440 351.656586,334.817535 347.890808,317.217987 
	C347.510010,315.438385 347.189545,312.920593 349.544617,312.664520 
	C353.377716,312.247742 352.772369,309.728607 353.009979,307.301086 
	C354.104309,296.122467 350.171417,285.740875 346.256348,275.904022 
	C341.465485,263.866699 340.308655,251.492966 338.796814,239.018768 
	C338.351715,235.346390 337.838165,231.659912 336.067078,228.459656 
	C329.321869,216.271347 324.762756,203.324127 321.749084,189.759354 
	C319.569244,179.947647 315.359619,170.893234 310.930328,161.924332 
	C306.700287,153.358810 304.614319,144.036240 302.129059,134.902863 
	C299.341431,124.658127 293.905884,115.701767 289.576416,106.187759 
	C281.515625,88.474121 268.275604,74.495323 256.879639,59.205860 
	C252.040924,52.713982 246.412827,46.726467 240.328079,41.249504 
	C233.703308,35.286476 225.537323,32.969948 217.133560,31.576387 
	C196.836136,28.210552 178.235367,32.915462 161.195236,44.222343 
	C160.388184,44.757851 159.695450,45.465626 158.926849,46.112228 
	C159.750092,47.900223 160.490967,49.509296 161.364029,51.405479 
	C165.828491,49.295795 170.248169,47.074245 174.784332,45.123554 
	C176.845795,44.237068 179.603989,42.955669 180.877396,45.943756 
	C182.174561,48.987602 179.343307,49.845093 177.216370,50.781322 
	C175.438339,51.563980 173.394699,51.927418 172.384354,53.999805 
	C178.862183,51.698730 179.564514,51.963120 180.490112,57.391666 
	C187.051529,54.416878 193.678299,51.855583 200.625687,50.241241 
	C203.270081,49.626770 205.850616,49.287170 208.444382,50.472446 
	C209.681702,51.037857 211.014572,51.470158 211.093048,53.092178 
	C211.184570,54.983425 209.767868,55.668083 208.296967,56.105568 
	C204.125534,57.346268 200.227371,59.167419 196.365356,61.163017 
	C192.124893,63.354164 189.127060,67.009712 185.454803,69.859947 
	C183.506226,71.372330 183.753479,73.274055 186.040543,75.108711 
	C189.872635,72.307274 193.774017,69.529701 197.589996,66.639359 
	C200.140549,64.707489 202.897095,63.153820 205.868378,62.059116 
	C207.739044,61.369907 210.053833,60.808914 210.923416,63.435753 
	C211.683044,65.730408 209.774384,66.609421 208.020599,67.349121 
	C202.110901,69.841660 197.276321,73.815521 192.795563,78.299232 
	C202.159790,73.474205 210.623596,67.117706 220.596405,63.367290 
	C230.278046,59.726372 239.770462,58.711956 248.959000,64.038391 
	C253.210098,66.502663 258.531921,69.320328 260.272522,73.323753 
	C262.184296,77.720802 264.614319,82.572800 265.029480,87.270561 
	C265.247986,89.742729 263.044800,94.157211 259.464722,96.423531 
	C263.387848,99.718857 268.257294,101.189941 272.391907,103.893517 
	C276.869934,106.821625 281.213470,109.914749 284.868195,113.835571 
	C286.285767,115.356346 288.263489,117.294907 285.952698,119.384995 
	C283.763885,121.364761 282.467285,119.114113 281.084473,117.725151 
	C280.318146,116.955414 279.721405,115.838036 277.361847,116.931885 
	C280.675354,119.853897 284.030548,122.730591 287.282349,125.719742 
	C288.624756,126.953712 289.852081,128.350037 290.937256,129.816452 
	C292.068359,131.344910 294.041870,133.079651 291.937408,134.998230 
	C289.896088,136.859238 288.252014,135.002136 286.839661,133.623566 
	C283.919739,130.773392 281.412689,127.425606 276.710510,125.584854 
	C278.627289,131.475342 283.524597,134.317993 286.487701,138.566483 
	C289.054718,142.247101 291.870941,145.770996 294.043701,149.705658 
	C295.089294,151.599167 297.340118,154.118561 294.576080,155.836105 
	C291.564545,157.707443 290.859985,154.275482 289.635376,152.499237 
	C287.199677,148.966461 285.909576,143.867126 279.713623,145.492905 
	C278.640350,148.332428 280.578247,150.194366 282.118408,152.045486 
	C285.318115,155.891098 288.576721,159.694870 290.832458,164.188675 
	C291.757629,166.031876 293.650513,167.943192 292.257904,170.166946 
	C290.732178,172.603241 288.159821,171.716385 285.871765,171.395386 
	C284.705688,173.133392 286.232971,174.600525 286.248993,176.188156 
	C286.264832,177.759445 286.221130,179.349731 284.524536,179.969727 
	C282.825592,180.590591 281.822510,179.428528 280.833862,178.160522 
	C276.787445,172.970596 272.658813,167.844711 268.195282,162.236404 
	C267.354797,166.046997 274.075043,168.342178 269.474487,171.657974 
	C266.621338,173.714325 265.502472,169.536423 262.988220,168.914505 
	C262.401123,171.373688 263.858582,173.091019 264.700104,174.965561 
	C265.380432,176.481018 265.491180,177.938248 263.821167,178.856079 
	C262.391174,179.641983 261.239807,178.885895 260.329529,177.802826 
	C258.223511,175.297073 256.369568,172.532318 252.845749,170.586670 
	C254.181122,175.152451 257.701019,177.656097 259.034027,181.661987 
	C259.927887,184.348099 263.780273,183.662598 265.971100,181.916687 
	C270.101318,178.625259 271.352966,180.432083 272.769287,184.580261 
	C274.127350,188.557938 272.148804,191.801392 271.188354,195.033325 
	C270.320770,197.952652 266.636200,197.347229 264.872955,195.518265 
	C261.717865,192.245682 258.123749,189.397827 256.321106,184.723068 
	C255.120544,181.609695 251.976059,179.116989 248.800552,177.308975 
	C247.072189,178.684265 247.936813,181.880219 245.251160,181.883972 
	C242.584152,181.887711 241.979691,179.364609 240.945816,177.537674 
	C236.735641,170.097916 236.633270,170.046356 230.528641,174.602905 
	C235.560776,179.680588 240.007233,185.195206 244.049652,191.025223 
	C244.364166,191.478851 245.307739,192.001633 245.668015,191.840759 
	C249.655075,190.060455 251.226898,193.227768 252.784866,195.563095 
	C257.597107,202.776535 261.279755,210.635010 265.099915,218.399261 
	C265.792786,219.807480 266.587494,221.517883 265.129059,223.067276 
	C263.612793,224.678040 262.042572,223.806549 260.578552,223.030884 
	C259.176971,222.288284 257.644196,222.526718 256.213837,222.184708 
	C251.959137,221.167419 250.641586,217.151764 253.756073,214.135437 
	C255.327713,212.613312 255.208588,211.364349 254.538788,209.735992 
	C254.412216,209.428284 254.266159,209.127441 254.111954,208.832397 
	C251.484802,203.805542 250.259079,197.173660 242.150864,198.768402 
	C243.198151,200.404648 244.444016,202.288528 245.623123,204.213303 
	C246.556625,205.737076 248.162659,207.494873 246.082672,209.019150 
	C243.753799,210.725815 242.469345,208.484543 241.276932,206.977341 
	C236.523392,200.968887 231.852051,194.895462 227.123993,188.866714 
	C226.544647,188.128006 226.200607,187.012909 224.688095,187.117889 
	C223.618408,189.417862 225.335571,190.783585 226.642380,192.091980 
	C231.055054,196.510132 234.081360,201.895447 237.305206,207.135712 
	C238.288666,208.734299 240.018127,210.542587 238.104279,212.515442 
	C236.260818,214.415726 234.303268,212.787872 232.557236,212.132629 
	C229.453690,210.967987 227.632690,208.289230 225.767288,205.713486 
	C224.638000,204.154221 223.411530,202.665359 221.931076,201.350815 
	C224.608826,207.804047 228.368881,213.608841 232.490417,219.154007 
	C234.295578,221.582672 237.134781,222.140137 240.171158,221.724899 
	C245.975769,220.931061 250.535385,222.887909 253.608887,228.031647 
	C255.038910,230.424896 257.153381,229.951981 259.352234,229.294128 
	C264.280273,227.819855 271.262939,230.489716 273.520844,234.766739 
	C274.761444,237.116745 273.419464,238.667084 271.227417,238.270859 
	C266.574799,237.429871 262.051300,240.131531 257.430939,238.427536 
	C256.318146,238.017136 255.130615,238.343369 254.147034,239.148956 
	C252.430756,240.554626 250.697052,242.060486 248.493607,239.946304 
	C246.072586,237.623337 248.172073,235.742203 249.313431,233.638367 
	C247.757095,231.039108 245.616333,230.771942 242.674515,231.745499 
	C243.618042,234.634949 242.782455,237.408508 243.071396,240.174850 
	C243.247482,241.860641 242.811844,243.244888 241.063217,243.688339 
	C239.339859,244.125397 238.225281,243.033478 237.437531,241.659180 
	C236.610703,240.216705 235.988251,238.649368 235.088608,237.258102 
	C233.634262,235.008942 232.201340,232.894196 228.800934,233.357697 
	C225.435883,233.816376 223.867706,228.607376 219.039230,230.484467 
	C223.396637,239.068192 223.570847,249.239990 230.280945,256.981445 
	C232.441742,259.474365 234.577881,262.247559 235.777328,265.268890 
	C240.371735,276.841797 244.814774,288.406403 246.308960,301.019653 
	C247.324585,309.592957 249.177460,318.027374 248.315369,326.735565 
	C248.224472,327.653778 248.479355,328.725983 249.644760,329.224060 
	C251.176544,327.504883 250.449905,325.435242 250.534164,323.510468 
	C250.606628,321.855225 250.314178,319.991180 252.257904,319.203705 
	C254.461380,318.311066 255.820816,319.906250 256.750549,321.429871 
	C259.161804,325.381470 262.658234,326.229767 266.945984,325.812714 
	C270.892151,325.428925 276.263336,330.405334 276.337921,334.203857 
	C276.360168,335.337891 275.858887,336.129059 274.840790,336.547150 
	C273.569275,337.069336 272.630127,336.353821 271.673370,335.633301 
	C270.080841,334.434052 269.276947,331.717316 266.074829,332.960266 
	C265.903992,337.201294 268.379913,340.678833 269.894684,344.391235 
	C271.842865,349.165771 274.186646,353.777527 276.245087,358.509399 
	C276.830414,359.854889 277.143433,361.356598 277.347473,362.819275 
	C277.538788,364.190979 277.250580,365.541382 275.633087,366.007874 
	C274.037048,366.468109 273.110107,365.485535 272.403503,364.285522 
	C271.069977,362.020844 270.057526,359.522369 267.418182,357.787292 
	C265.985657,360.342194 267.564453,362.312042 268.328888,364.277771 
	C268.926941,365.815674 269.948425,367.183533 270.693542,368.671143 
	C271.460266,370.201813 271.295258,371.650391 269.734619,372.573944 
	C267.933441,373.639801 266.494476,372.970795 265.600616,371.231873 
	C263.314514,366.784485 260.156830,362.911865 257.481903,358.765564 
	C254.319550,353.863800 250.316162,350.721649 245.230026,348.262085 
	C243.323975,350.395325 243.542252,353.242157 242.627487,355.668030 
	C242.160721,356.905792 241.854446,358.387238 243.227020,359.295410 
	C244.499481,360.137329 245.797516,359.562561 246.962646,358.822968 
	C248.946045,357.563934 251.209549,355.726349 252.901550,358.701477 
	C254.387726,361.314636 253.202087,363.467224 250.832260,365.573273 
	C246.183929,369.704254 241.850159,374.078796 235.127563,374.483704 
	C234.563660,374.517700 233.851761,375.040680 233.520081,375.542419 
	C228.480850,383.164978 222.451157,390.587189 224.310745,400.575348 
	C225.977386,409.527161 223.109985,418.062561 222.785461,426.810181 
	C222.304321,439.778839 218.226532,452.277069 217.642563,465.915710 
	C219.609802,464.413513 219.844971,462.596069 220.191925,461.036011 
	C222.922409,448.759460 226.252487,436.610046 226.325653,423.845459 
	C226.351913,419.261810 227.919495,414.703674 227.743530,409.998901 
	C227.678589,408.262329 228.315781,406.511871 230.268311,406.170410 
	C232.435104,405.791473 232.832733,407.615845 233.505005,409.203247 
	C234.392044,411.297821 234.316452,413.423218 234.317993,415.582336 
	C234.318985,416.953156 234.348053,418.347473 236.107071,418.674011 
	C238.141403,419.051727 238.883957,417.541504 239.108231,416.083069 
	C239.764450,411.815552 240.286591,407.519745 240.648331,403.217072 
	C240.935623,399.800110 241.763931,397.272339 245.691849,396.282959 
	C250.653503,395.033264 252.696442,391.498901 253.810242,386.322449 
	C254.876892,381.365234 258.169189,377.039185 258.211182,371.464600 
	C258.229156,369.077057 260.902405,369.237427 262.771362,371.037994 
	C264.652893,372.850708 264.744415,375.562836 266.227570,377.587036 
	C268.291504,377.573700 269.891693,374.371552 272.076202,376.695282 
	C274.171875,378.924469 272.504028,380.984497 271.566742,383.098206 
	C270.406494,385.714691 269.200531,388.218719 266.684021,389.874542 
	C264.837555,391.089508 264.584106,393.092468 264.306396,395.132812 
	C263.028625,404.520874 261.698334,413.902557 260.276001,423.269653 
	C259.979218,425.224457 259.292389,427.135498 258.639282,429.016052 
	C258.070709,430.653168 257.165100,432.255890 255.052765,431.545990 
	C253.217178,430.929077 252.623108,429.190887 252.921326,427.460388 
	C253.569794,423.697571 254.554840,419.993317 255.226425,416.233704 
	C255.867935,412.642395 256.052979,409.018616 255.142242,405.478516 
	C248.259766,404.834045 247.322708,405.565979 246.262650,411.597260 
	C245.285217,417.158539 244.173141,422.697571 243.032257,428.228210 
	C242.402969,431.278687 240.884781,433.290100 237.304932,433.287750 
	C233.361694,433.285126 231.672943,435.446167 231.023071,439.467010 
	C229.738235,447.416656 228.533005,455.329773 228.163681,464.604340 
	C233.169342,457.931519 234.552261,451.219086 236.582489,444.792725 
	C237.263000,442.638672 237.778336,440.126068 240.611725,440.781158 
	C244.094589,441.586426 242.703140,444.445496 242.131317,446.540131 
	C238.497696,459.850525 234.784439,473.139526 231.015030,486.412231 
	C230.411072,488.538757 230.041916,490.681244 230.269318,492.819153 
	C230.743484,497.277069 229.849380,501.293030 227.758255,505.287476 
	C226.396210,507.889252 225.977234,510.973724 225.028641,513.806091 
	C224.081528,516.634033 225.063477,518.612366 227.854889,520.431030 
	C231.840729,513.848694 235.818069,507.413055 237.681366,499.956085 
	C239.293060,493.506165 240.584808,486.976196 242.203003,480.528046 
	C242.697540,478.557434 243.100845,475.583771 245.998886,476.190063 
	C249.201859,476.860138 248.142868,479.664276 247.830780,481.962067 
	C247.398499,485.144897 244.947632,488.658569 249.217819,491.236664 
	C249.673355,491.511658 249.752029,492.794128 249.646057,493.559448 
	C247.431702,509.552155 245.142410,525.763184 236.139526,539.489746 
	C229.249634,549.994690 222.516602,560.832825 213.246231,569.622925 
	C212.641754,570.196045 212.091125,570.835938 211.438599,571.346558 
	C209.849609,572.590027 208.096207,574.115906 206.178696,572.215698 
	C204.152161,570.207458 205.866608,568.615295 207.263275,567.137146 
	C212.544235,561.547974 217.310135,555.562988 221.130463,548.871460 
	C222.031876,547.292603 222.974380,545.650940 223.417801,543.915466 
	C224.251099,540.654053 225.255127,537.568237 221.489304,534.762634 
	C218.903442,532.836121 218.007645,529.170410 215.114426,526.856873 
	C212.269379,524.581726 216.024796,521.463379 216.095001,518.163086 
	C213.311966,519.806458 210.696228,521.363037 208.067551,522.897339 
	C207.038986,523.497742 205.916321,524.042786 204.793411,523.272278 
	C203.468643,522.363159 203.676498,520.979736 203.980362,519.643860 
	C204.441666,517.615845 205.955383,515.801453 205.313538,512.877136 
	C202.846283,515.272522 200.168854,516.981445 200.836563,520.456787 
	C201.520828,524.018433 203.710144,526.039795 207.497711,526.927246 
	C213.604401,528.358154 215.639862,532.841125 212.516373,538.164795 
	C207.727173,546.327332 203.796814,555.000244 198.169968,562.662292 
	C196.847549,564.462952 195.451477,567.224121 192.703461,565.623840 
	C189.973465,564.033997 191.460068,561.374329 192.601761,559.441162 
	C194.286804,556.587952 196.387497,553.980774 198.301941,551.262268 
	C199.947815,548.925049 200.870682,546.809998 198.104126,544.367737 
	C195.198120,541.802490 194.818268,538.411682 197.297882,534.558716 
	C189.306290,533.934937 192.429886,529.525024 193.788239,525.455627 
	C189.420227,528.403625 186.614594,531.793518 184.182999,535.852234 
	C180.027618,542.788147 176.057007,550.056030 168.884598,554.553711 
	C167.158173,555.636353 165.025024,557.569885 163.103119,555.361572 
	C161.242371,553.223511 163.100449,551.183716 164.583557,549.703979 
	C168.994644,545.302979 170.601349,539.371399 173.307877,534.072815 
	C179.582825,521.788452 186.640717,509.904205 191.099792,496.700989 
	C197.677887,477.223602 202.569168,457.497803 202.621048,436.796875 
	C202.640137,429.179901 205.711029,421.837952 204.631271,413.780609 
	C198.580475,417.365662 192.294266,418.893219 185.655441,415.499695 
	C184.989548,416.225616 184.305161,416.629120 184.169693,417.170044 
	C181.510345,427.788727 173.188843,434.423157 166.533615,442.199829 
	C161.455643,448.133453 154.603531,449.847351 147.125092,449.288940 
	C142.659531,448.955475 140.585953,450.272308 141.266556,455.143402 
	C141.699173,458.239746 141.208496,461.413239 142.544968,464.454590 
	C145.190063,470.473907 144.972366,470.859863 139.149002,473.241455 
	C138.798782,475.424835 139.694778,477.460144 140.029648,479.573792 
	C140.707703,483.853668 140.730026,487.925842 136.377350,490.601959 
	C134.422012,491.804138 134.309525,493.859467 134.316116,495.921143 
	C134.339447,503.232758 135.036499,510.687317 128.887192,516.449036 
	C128.152039,517.137878 128.366913,518.969971 128.351898,520.274536 
	C128.300156,524.773499 128.250290,529.276123 128.375839,533.772400 
	C128.481659,537.561829 127.703941,540.640869 123.775780,542.293762 
	C121.089233,543.424194 121.165756,546.339478 120.399345,548.635315 
	C119.136810,552.417297 118.099388,556.277039 116.752716,560.026978 
	C116.203316,561.556885 115.370667,563.791931 114.192642,564.151184 
	C108.715416,565.821655 109.381783,570.500427 108.325523,574.502014 
	C107.164436,578.900696 106.656212,583.868591 101.229210,585.667908 
	C100.710648,585.839783 100.260101,586.595276 100.022308,587.179321 
	C95.801987,597.543884 87.422386,605.298279 82.471176,615.197510 
	C81.645393,616.848511 80.493279,618.013550 78.545601,617.391357 
	C76.812508,616.837891 76.441093,615.213257 76.735100,613.691101 
	C78.195892,606.128418 76.883835,598.430359 82.948059,591.357483 
	C91.545807,581.329651 99.284325,570.324524 104.480927,557.847351 
	C112.145584,539.444397 119.848671,521.159180 124.098412,501.474976 
	C126.424469,490.700989 128.773880,480.099884 128.733795,469.066071 
	C128.724884,466.614075 129.046066,464.040894 126.785522,461.671997 
	C124.107346,464.559753 121.537727,467.454102 118.829300,470.212128 
	C116.624100,472.457733 114.351936,474.659943 111.930511,476.665314 
	C108.727531,479.317963 107.355484,482.704437 107.283188,486.730286 
	C107.232346,489.561279 107.289139,492.394318 107.227882,495.224945 
	C107.078835,502.111053 105.722343,502.920197 99.492027,499.754944 
	C99.093071,503.985870 99.534225,507.858154 101.290085,511.861725 
	C104.349251,518.837158 104.086395,525.986694 100.376678,532.829285 
	C100.063385,533.407166 99.646484,533.979431 99.523705,534.602722 
	C96.008507,552.448547 85.091988,566.047607 73.850578,579.468201 
	C72.701775,580.839722 71.396324,581.979736 69.585640,581.132080 
	C67.336533,580.079224 68.202560,578.221008 68.564026,576.373291 
	C69.180862,573.220276 71.254707,569.687134 66.392754,566.548340 
	C63.839321,586.328369 66.334435,605.236938 68.077362,624.579407 
	C66.933327,625.000000 65.866661,625.000000 64.399994,625.000000 
M139.816574,429.463409 
	C151.106049,427.400604 160.884552,423.737091 166.669647,412.251801 
	C170.309006,405.026520 175.095673,398.361206 177.868103,390.616455 
	C178.781815,388.063965 180.523071,386.924377 183.277100,388.956757 
	C189.477264,393.532288 196.015060,392.366577 199.814194,385.769073 
	C206.626221,373.939453 212.705978,361.663513 217.197754,348.811493 
	C223.447128,330.930664 225.641754,312.323547 223.440399,293.422119 
	C222.950745,289.217804 223.846375,284.548981 221.249832,280.492859 
	C217.574539,282.291351 217.211533,285.388611 216.590454,288.264740 
	C214.019348,300.171661 215.754181,312.471893 213.290619,324.406860 
	C211.792282,331.665680 212.901764,339.433228 209.037888,346.235779 
	C208.306015,347.524261 207.706345,349.190674 205.775818,348.652710 
	C203.722443,348.080536 203.416428,346.167053 203.875443,344.576508 
	C205.830566,337.801941 205.037048,330.753601 206.122833,323.872284 
	C206.870377,319.134827 208.091568,314.133575 207.071625,308.967102 
	C205.108124,309.657501 205.187012,310.743744 204.986374,311.700531 
	C202.713867,322.537781 202.271988,333.678192 199.272797,344.412445 
	C196.510147,354.300079 195.223984,364.598541 191.153671,374.121338 
	C190.317795,376.076965 190.044983,379.547485 186.891708,378.565918 
	C183.635376,377.552277 185.491165,374.716003 186.068283,372.598206 
	C189.582657,359.701965 192.015106,346.689178 190.722198,333.218842 
	C190.328369,329.115601 189.133774,328.299194 185.843491,330.493256 
	C181.867676,333.144470 178.597290,336.724487 177.451141,341.333984 
	C174.449081,353.407349 172.102798,365.642975 169.151016,377.729889 
	C166.621231,388.088776 163.095398,398.145691 158.192490,407.656738 
	C157.298645,409.390686 156.152908,411.599609 153.645309,410.165161 
	C151.432571,408.899414 152.613037,407.060699 153.469131,405.391724 
	C162.784088,387.232452 165.477249,367.553467 166.627594,347.540863 
	C166.796402,344.604126 167.457886,340.552704 164.242386,339.537720 
	C161.008514,338.516907 158.916153,342.131622 157.032669,344.535919 
	C151.294296,351.860962 148.169724,360.300995 146.153519,369.349792 
	C142.497940,385.756256 136.822052,401.577179 131.574417,417.521301 
	C129.171570,424.821991 130.149994,426.251740 137.648071,428.826630 
	C138.120636,428.988892 138.601181,429.127930 139.816574,429.463409 
M181.374161,133.793335 
	C185.348907,126.051315 185.447174,125.992111 191.328964,127.796814 
	C198.339691,129.947906 201.631088,134.093491 200.912918,139.867981 
	C200.087128,146.507797 198.226440,148.721832 193.135910,148.994995 
	C193.554291,153.287094 194.123749,157.567474 194.337372,161.865509 
	C194.481689,164.768784 196.178207,169.391693 191.710495,169.553726 
	C187.664658,169.700439 189.403961,164.930420 188.647049,162.287872 
	C187.679108,158.908585 188.428970,154.614700 184.073959,152.676178 
	C182.722610,154.723572 183.381577,156.513229 183.768936,158.243546 
	C184.359360,160.880997 184.502884,163.541046 184.088272,166.180115 
	C183.827118,167.842377 183.111588,169.538574 181.041382,169.575302 
	C179.134460,169.609177 178.827667,167.954956 178.279770,166.533768 
	C177.756439,165.176300 178.181519,163.219025 176.230865,162.455246 
	C174.621689,164.765457 176.148392,167.833817 173.800842,169.570175 
	C170.967560,171.665802 169.684875,168.309036 167.400635,167.153473 
	C170.523636,177.079773 174.281403,179.058182 183.606079,176.152985 
	C185.192352,175.658752 186.577560,175.677322 187.543106,177.220474 
	C188.443787,178.659943 187.698517,179.746170 186.650543,180.708267 
	C186.038132,181.270477 185.378571,181.780975 184.756271,182.332825 
	C183.505447,183.442017 183.550995,184.648376 184.641968,185.797775 
	C185.663971,186.874481 186.739594,186.512222 187.739853,185.693420 
	C189.831024,183.981628 191.303635,181.762161 192.825638,179.570053 
	C193.734344,178.261246 194.979752,177.333847 196.637772,178.264511 
	C198.241440,179.164658 198.216110,180.595825 197.652451,182.177048 
	C196.307098,185.951019 194.803024,189.639969 192.512283,192.961990 
	C190.723831,195.555603 191.344498,197.491211 194.277603,199.198105 
	C199.664215,193.010498 203.399872,186.269730 204.735046,178.364502 
	C205.490311,173.892792 206.131104,169.609741 212.511276,170.767044 
	C212.043869,165.644958 211.835068,160.983490 211.159912,156.390594 
	C208.864090,140.772873 202.467117,126.984123 193.337921,114.086555 
	C181.470139,97.319977 166.311569,86.469475 145.642654,83.903656 
	C142.158463,83.471130 138.767227,83.388023 136.639725,86.549965 
	C127.265732,100.481796 123.324165,116.112511 122.216911,132.571106 
	C125.712250,124.464134 128.924179,116.274727 132.269852,108.140327 
	C133.333145,105.555183 135.480972,103.824661 138.186981,105.306320 
	C140.674347,106.668259 138.852890,108.790512 138.004395,110.509293 
	C134.490906,117.626305 133.231873,125.342743 131.831818,133.033188 
	C132.471176,132.210434 132.847473,131.308197 133.206604,130.399185 
	C137.393829,119.800369 144.436035,111.625107 154.203461,105.805779 
	C156.002258,104.734085 158.225067,103.005722 159.900986,105.509422 
	C161.420410,107.779335 159.025589,109.012390 157.590607,110.308022 
	C155.249756,112.421570 152.639313,114.294540 150.581619,116.652184 
	C145.648499,122.304382 142.848129,129.002975 141.640823,136.461655 
	C143.389969,135.510361 144.654053,134.265411 145.806229,132.924316 
	C150.519516,127.438286 156.152466,123.039040 162.232986,119.220146 
	C163.761612,118.260101 166.046738,116.513451 167.359634,119.171494 
	C168.410690,121.299431 166.618530,122.831627 164.701660,123.819443 
	C160.491653,125.988991 157.138489,129.319382 153.805313,132.522354 
	C151.040604,135.179092 148.628418,138.433578 148.446564,142.759247 
	C151.279419,143.053314 151.635986,140.952850 152.452240,139.444977 
	C153.560272,137.398056 154.456528,135.230896 155.640793,133.232132 
	C157.687347,129.778076 160.095627,128.093475 162.950867,132.500687 
	C166.975098,129.684280 169.455765,125.391708 174.124634,123.914688 
	C176.290894,123.229378 178.823975,121.420670 180.352051,124.162201 
	C182.077423,127.257629 178.821854,128.110672 176.940216,129.065353 
	C167.918289,133.642761 166.408661,143.531662 160.991684,150.720703 
	C168.883621,146.606125 175.454102,141.131363 181.374161,133.793335 
M130.092590,342.715057 
	C134.501190,339.136993 140.403442,337.747131 144.285278,333.508209 
	C153.244598,323.724701 160.698639,312.991486 163.902176,299.825836 
	C164.667999,296.678497 166.578018,295.203003 169.850479,294.775574 
	C174.125900,294.217194 178.347397,293.202179 182.567307,292.271179 
	C192.792267,290.015350 199.396286,282.341248 206.164017,275.428955 
	C210.765579,270.729126 213.616531,264.501099 212.938583,257.239410 
	C212.342499,250.854492 210.231659,245.680847 204.123184,242.775757 
	C203.703049,242.575974 203.363968,242.112869 203.095657,241.701477 
	C201.007935,238.500183 197.887817,237.829727 194.049347,237.834641 
	C196.965393,240.136414 199.611176,242.118332 202.129074,244.251205 
	C203.709061,245.589569 205.219269,247.458206 203.623428,249.402237 
	C201.856552,251.554611 200.119034,249.864319 198.551483,248.518921 
	C196.633072,246.872406 194.811935,244.960815 191.147003,244.619461 
	C194.352982,249.088181 196.922028,252.877899 200.071442,256.284058 
	C201.336441,257.652191 203.157089,259.457184 201.263443,261.494537 
	C199.498947,263.392944 197.589081,262.118744 195.874619,261.023376 
	C191.893127,258.479584 187.556290,257.163361 182.888321,256.862610 
	C181.912537,259.386871 183.733078,260.461578 184.771164,261.847931 
	C185.763275,263.172913 187.029404,264.350403 187.753998,265.802765 
	C188.579407,267.457214 188.984283,269.572998 187.108856,270.755829 
	C184.983261,272.096466 183.867111,270.305450 182.788025,268.728271 
	C181.124893,266.297424 179.248901,264.102875 175.225052,263.491425 
	C176.966095,267.900665 180.208984,270.749420 180.459946,274.907166 
	C180.571045,276.748077 182.472443,279.038116 179.791016,280.141388 
	C176.919022,281.323090 176.130875,278.599091 175.278564,276.706085 
	C173.406189,272.547485 170.235794,270.143311 165.728256,268.676697 
	C166.016113,273.033630 168.439133,275.893158 170.063812,279.117981 
	C171.082474,281.139954 172.564407,283.795502 170.056961,285.436279 
	C167.149628,287.338684 165.901154,284.296692 164.887817,282.420868 
	C162.761368,278.484589 159.752380,276.049469 155.058029,275.201904 
	C157.567444,278.523224 159.883133,281.556763 162.161148,284.618408 
	C163.092331,285.869873 163.719879,287.265289 162.844284,288.783081 
	C161.826309,290.547607 160.332245,289.746613 158.867157,289.456573 
	C156.211304,288.930756 153.571014,287.431061 150.450439,289.017578 
	C151.503754,292.658844 154.371872,295.315186 154.951019,298.960297 
	C155.255432,300.876251 156.545792,303.102295 154.072479,304.257782 
	C151.567398,305.428131 150.582230,303.309692 149.680420,301.456512 
	C148.444977,298.917755 146.610046,297.106079 143.548599,295.901855 
	C144.735733,300.468842 145.713959,304.326508 146.750366,308.168488 
	C147.116638,309.526276 147.388168,310.855713 145.976730,311.728088 
	C144.354034,312.731018 143.231598,311.759949 142.075455,310.647491 
	C140.293518,308.932953 138.386261,307.348663 136.532166,305.709106 
	C136.948212,308.968079 138.058319,311.563904 138.970886,314.227417 
	C139.496246,315.760773 139.250183,317.323822 137.515732,317.986023 
	C135.859985,318.618103 134.596176,317.874329 133.852097,316.312683 
	C132.933914,314.385651 132.244659,312.296692 129.843918,311.154816 
	C130.035919,315.426636 133.026230,318.568420 133.511810,322.514618 
	C133.681564,323.894165 134.081711,325.193848 132.680435,326.072662 
	C131.343750,326.911072 130.178116,326.341370 129.027878,325.478790 
	C127.610687,324.416077 126.435020,322.862701 124.049667,322.869202 
	C123.989548,325.838837 124.671776,328.847412 123.413940,331.667267 
	C122.918892,332.777039 122.427994,333.844360 121.103867,334.013733 
	C119.487396,334.220459 118.703445,333.123962 118.160728,331.828339 
	C117.552177,330.375519 117.590752,328.451202 115.154114,328.112854 
	C114.809311,332.240234 114.455833,336.311951 114.134552,340.386200 
	C113.979767,342.349060 114.327141,344.858185 111.537094,344.954529 
	C109.186760,345.035675 109.004402,342.811157 108.649078,340.969818 
	C108.257652,338.941437 108.146400,336.765167 106.271553,334.603119 
	C102.750221,343.816254 101.715439,353.058655 99.734039,362.061035 
	C99.320312,363.940765 98.426636,366.339233 100.710785,367.442108 
	C103.221169,368.654175 105.297264,366.958160 106.662567,365.013092 
	C110.070839,360.157593 114.261894,355.777252 115.505684,349.594025 
	C116.241096,345.938080 117.822449,342.943604 122.714485,344.513367 
	C124.998222,345.246185 127.260216,343.923981 130.092590,342.715057 
M97.779076,417.337982 
	C100.060806,408.606262 101.923317,399.839661 99.778229,390.779022 
	C99.238152,388.497742 98.582306,386.258789 96.007347,385.666260 
	C94.491913,386.088745 94.018692,387.231049 93.642265,388.296814 
	C90.319931,397.703308 86.944077,407.089111 85.182678,416.966705 
	C82.882034,429.868256 80.462982,442.670929 75.739441,455.066864 
	C72.242241,464.244476 68.932404,473.760559 68.891312,484.877258 
	C77.408524,477.700134 80.110596,467.936279 83.833282,458.851685 
	C86.823036,460.307922 86.783989,462.850250 88.053551,464.522461 
	C89.273033,466.128662 91.148827,467.623993 92.382278,465.280457 
	C95.778984,458.826843 101.559036,454.035461 104.050423,446.861755 
	C106.650612,439.374725 110.475220,432.313721 113.745132,425.057739 
	C114.286011,423.857544 115.133110,423.101318 116.450020,423.380524 
	C117.963661,423.701447 118.670731,424.928589 118.611000,426.353180 
	C118.548950,427.832886 118.198830,429.311951 117.867477,430.766907 
	C116.522995,436.670532 115.575470,442.663300 114.219170,448.593079 
	C123.788383,431.143951 127.515694,412.131439 129.632645,392.611206 
	C128.150864,393.003571 127.351715,393.608307 126.853065,394.401886 
	C122.867981,400.743958 121.237892,407.725952 121.297005,415.166840 
	C121.311401,416.977753 121.489929,419.211426 118.885994,419.300964 
	C116.425529,419.385620 116.130836,417.254669 115.956551,415.412659 
	C115.498192,410.568237 116.032867,405.794067 117.018822,401.037109 
	C118.135933,395.647339 117.457825,390.401581 115.659874,385.009277 
	C113.377052,386.399994 113.029625,388.454895 112.371109,390.262390 
	C108.845482,399.939606 105.308472,409.606506 102.573257,419.560303 
	C101.873047,422.108429 101.538452,426.971130 97.740082,425.758118 
	C93.467590,424.393738 97.270065,420.771576 97.779076,417.337982 
M228.606323,67.315094 
	C219.931183,71.115982 211.952621,75.871635 206.081589,83.637970 
	C214.896866,77.671318 224.624252,78.788757 234.381058,79.317238 
	C238.655594,79.548767 243.035522,78.666374 246.188461,75.132301 
	C248.211731,72.864494 248.350739,70.630234 245.585098,68.835182 
	C240.455627,65.505882 235.066696,64.019394 228.606323,67.315094 
M228.454407,88.714676 
	C234.418686,89.801437 238.182846,93.353477 236.478745,97.221756 
	C232.559357,106.118645 226.208557,101.590195 220.095520,98.588371 
	C220.156708,101.840294 219.811081,104.221947 221.943253,106.185272 
	C225.775848,109.714394 232.068985,109.435799 238.096527,105.345078 
	C243.364532,101.769806 244.741272,97.940369 242.922546,92.682045 
	C241.096359,87.402176 236.882004,85.278862 231.938507,84.494469 
	C226.629333,83.652061 221.602859,84.831665 217.686813,88.755356 
	C216.359909,90.084862 215.631195,92.065193 216.954926,94.119171 
	C220.976120,92.834305 223.190430,88.568550 228.454407,88.714676 
M256.623535,133.781784 
	C257.851685,134.795731 258.743347,136.380371 260.672974,136.240219 
	C261.574921,132.629395 261.574921,132.629395 268.909058,132.924255 
	C269.274506,131.598129 268.519409,130.640732 267.650787,129.937805 
	C264.588470,127.459778 261.511841,124.986954 258.297729,122.714302 
	C256.698242,121.583328 254.992813,120.554825 256.153046,118.428101 
	C257.320251,116.288635 259.295502,117.051132 260.962524,117.919495 
	C263.541229,119.262733 266.053101,120.734222 268.593323,122.151329 
	C265.772095,116.315498 259.923584,115.045647 254.927612,112.552094 
	C254.001587,112.089897 253.040771,112.930504 252.272537,113.592163 
	C249.529556,115.954628 246.790909,118.322105 243.628891,121.051773 
	C247.902786,125.222496 252.031357,129.251404 256.623535,133.781784 
M243.824493,145.679184 
	C245.261398,147.765762 246.470917,150.111526 249.640640,151.029648 
	C249.416779,147.185165 246.018967,145.879822 244.982681,143.161911 
	C244.439194,141.736450 243.690109,140.206985 245.205017,139.088364 
	C246.893661,137.841461 248.292755,138.695831 249.396011,140.236328 
	C250.590820,141.904663 251.686935,143.756805 254.691208,143.830002 
	C253.160889,136.914505 248.136826,133.115402 243.877579,128.934662 
	C237.640411,122.812462 235.832550,123.025818 229.637100,129.533295 
	C234.606003,134.374252 239.493179,139.316162 243.824493,145.679184 
M214.104965,506.792786 
	C216.574188,501.515106 218.216446,495.960419 218.923569,490.208038 
	C219.529785,485.276489 217.857346,481.018311 213.824982,477.251465 
	C211.794449,481.266937 209.933884,484.803589 209.453430,488.726837 
	C209.179337,490.964813 207.838562,494.190918 210.835526,495.405731 
	C215.202118,497.175690 213.998367,499.649414 212.526138,502.499512 
	C211.743851,504.013947 211.021851,505.559570 210.130432,507.381805 
	C211.654999,507.274750 212.637268,507.205780 214.104965,506.792786 
M82.553482,521.009033 
	C89.354057,502.441193 89.459641,501.953339 87.814720,496.716644 
	C83.009308,506.494537 81.589966,517.363281 76.957993,527.197021 
	C77.409264,527.396851 77.860535,527.596680 78.311806,527.796509 
	C79.626427,525.758667 80.941048,523.720764 82.553482,521.009033 
M340.605255,395.150757 
	C340.884705,393.443756 342.392181,391.881317 341.126801,389.770264 
	C337.911407,389.406189 336.348236,392.796326 333.426392,393.343842 
	C330.409149,393.909210 330.937653,396.754913 331.598969,398.615051 
	C332.461761,401.042114 334.569153,400.744812 336.557465,399.609894 
	C338.178131,398.684753 339.564209,397.559235 340.605255,395.150757 
M232.069946,139.819611 
	C229.819183,137.686417 228.404953,134.425552 224.454391,133.997620 
	C224.048874,139.708038 224.403503,144.719421 231.222855,148.716263 
	C228.010468,144.282181 231.798126,142.809860 232.069946,139.819611 
M219.608047,216.359512 
	C220.368576,222.716843 222.991135,224.577423 227.072067,221.604538 
	C225.756866,218.443878 224.251984,215.532867 219.608047,216.359512 
M258.490936,336.815155 
	C258.230652,339.665833 259.410370,342.222015 259.870575,345.099487 
	C261.471466,345.033691 263.180969,345.167633 262.949799,343.321838 
	C262.597137,340.506165 262.425751,337.306824 258.490936,336.815155 
M207.925903,195.838821 
	C210.277420,191.838120 211.192368,187.482788 211.161789,182.882248 
	C209.739655,187.891998 206.640945,192.329758 205.933350,198.296844 
	C206.798859,197.323730 207.220947,196.849182 207.925903,195.838821 
M75.968590,509.841736 
	C76.603233,508.180878 77.243225,506.520630 76.667404,504.692108 
	C75.373413,504.110565 74.349319,504.635101 73.407112,505.282776 
	C71.764732,506.411743 72.259331,507.906433 73.110420,509.140991 
	C73.641182,509.910980 73.632729,512.672058 75.968590,509.841736 
z"/>
<path fill="#000000" opacity="1.000000" stroke="none" 
	d="
M247.086411,260.769531 
	C247.979675,257.136017 250.347305,257.638031 252.699463,258.207306 
	C254.540771,258.652924 256.291138,260.029266 258.600952,258.572327 
	C256.946289,255.222153 253.504593,255.206223 250.763458,254.227539 
	C247.675003,253.124878 244.911255,251.848099 243.573746,248.608978 
	C243.106812,247.478149 242.863083,246.343613 243.824020,245.360596 
	C244.773911,244.388870 245.961243,244.412872 247.041595,245.024384 
	C251.901672,247.775345 257.466400,248.228989 262.642883,249.927643 
	C266.068390,251.051727 269.545471,251.932297 272.484802,254.485291 
	C276.019958,257.555786 280.644806,256.453705 284.372040,255.143066 
	C288.580994,253.663040 291.848541,252.595505 294.282654,257.418182 
	C294.389496,257.629883 295.190674,257.491150 296.033234,257.534393 
	C296.549469,254.024551 294.939636,251.145996 293.711914,248.217194 
	C293.037018,246.607132 292.273743,245.019623 294.091797,243.782974 
	C295.900818,242.552460 297.243561,243.746872 298.371521,245.050720 
	C300.111511,247.062073 301.757751,249.154129 303.468201,251.191452 
	C306.887604,255.264404 314.126434,255.001709 317.419495,250.712570 
	C318.802917,248.910690 318.360535,247.387253 316.909607,245.849472 
	C315.706482,244.574326 314.724792,242.926910 316.400024,241.512466 
	C318.065552,240.106201 319.568756,241.530487 320.749298,242.654221 
	C324.201508,245.940338 326.042145,250.271561 327.361542,254.656494 
	C328.224152,257.523224 326.594666,260.148468 323.991150,261.872253 
	C319.576904,264.794952 308.734924,264.853729 304.411407,261.980286 
	C299.775421,268.531525 299.775421,268.531525 292.028656,262.099487 
	C288.063599,266.825836 282.075409,265.459045 276.979248,266.813873 
	C275.137421,267.303558 273.487885,265.164337 272.364014,263.455963 
	C270.927551,261.272400 269.175049,259.665985 266.011414,259.674255 
	C264.576508,265.039032 260.470551,266.461639 255.409119,266.293884 
	C254.061722,266.249207 252.747696,266.291748 251.715485,267.379395 
	C250.661316,268.490204 249.489258,269.664948 247.851273,268.655762 
	C246.275970,267.685150 246.783142,266.092560 247.000702,264.595032 
	C247.164215,263.469604 247.069427,262.306641 247.086411,260.769531 
z"/>
<path fill="#000000" opacity="1.000000" stroke="none" 
	d="
M144.421570,534.737427 
	C147.438553,533.671448 148.443054,535.180847 148.374512,537.904541 
	C147.858337,558.409912 143.370575,577.341614 128.332611,592.676025 
	C121.768379,599.369690 114.303772,604.911133 107.385597,611.130554 
	C106.208122,612.189148 104.807823,613.032593 103.349609,611.956482 
	C101.625732,610.684326 102.262192,608.957642 103.148811,607.477234 
	C103.912003,606.203003 104.670677,604.727539 105.834152,603.925049 
	C111.676529,599.895752 116.118828,594.644043 120.339546,588.994629 
	C131.962601,573.437317 140.756775,556.746216 143.070679,536.403076 
	C143.709015,535.394714 144.065292,535.066040 144.421570,534.737427 
z"/>
<path fill="#000000" opacity="1.000000" stroke="none" 
	d="
M144.403900,534.406616 
	C144.065292,535.066040 143.709015,535.394714 143.112061,535.996338 
	C135.794861,548.108032 128.712601,559.943237 121.648216,571.789124 
	C120.648170,573.466064 119.908112,575.996094 117.369766,574.761353 
	C114.605713,573.416870 115.917412,570.948608 116.963615,569.144653 
	C121.381409,561.527405 125.897789,553.965271 130.492355,546.452881 
	C143.121094,525.804321 153.763245,504.276794 160.197906,480.815521 
	C161.173340,477.259003 161.452988,473.628174 162.242447,470.071960 
	C162.604218,468.442383 163.203293,466.637634 165.464294,467.115173 
	C167.334656,467.510223 167.399338,469.125702 167.368118,470.691803 
	C167.284592,474.881561 166.284592,478.888855 165.235504,482.925415 
	C160.561050,500.911346 151.942123,517.273926 144.403900,534.406616 
z"/>
<path fill="#000000" opacity="1.000000" stroke="none" 
	d="
M177.522461,507.443237 
	C175.065491,513.690735 172.785019,519.590637 170.413635,525.453735 
	C169.678528,527.271240 168.873611,529.753906 166.338104,528.839111 
	C163.291718,527.740051 164.768387,525.333374 165.636047,523.400085 
	C177.114487,497.823761 182.466934,470.577332 187.466766,443.240631 
	C187.943237,440.635468 187.804901,437.922028 188.202347,435.296753 
	C188.466431,433.552338 188.746521,431.290161 191.329224,431.644714 
	C193.579269,431.953583 193.262543,434.002228 193.313736,435.632660 
	C193.541168,442.873962 191.674240,449.822968 190.299088,456.836456 
	C186.971756,473.806213 183.766922,490.808838 177.522461,507.443237 
z"/>
<path fill="#000000" opacity="1.000000" stroke="none" 
	d="
M336.596985,306.159760 
	C333.879303,295.337860 331.792145,284.714264 325.756683,275.466553 
	C324.742676,273.912903 322.995453,271.824707 325.136292,270.161194 
	C327.404419,268.398804 329.058472,270.391602 330.534485,272.032806 
	C330.857300,272.391754 331.288605,272.653137 331.662903,272.953796 
	C336.267792,268.594849 337.585724,268.854279 339.815613,274.553558 
	C342.046753,280.256104 344.421814,285.910583 346.411621,291.696960 
	C348.346100,297.322540 347.379272,298.690033 341.668518,299.598480 
	C340.994324,301.632629 342.373016,303.480072 342.239929,305.445496 
	C342.095428,307.580292 343.385193,310.708435 340.015930,311.127594 
	C337.120972,311.487762 337.057068,308.636627 336.596985,306.159760 
z"/>
<path fill="#000000" opacity="1.000000" stroke="none" 
	d="
M274.486847,410.750427 
	C273.328522,412.542480 272.595215,414.751678 270.256775,413.749420 
	C268.060760,412.808197 268.704712,410.713043 269.153473,408.934326 
	C270.020416,405.498474 269.992706,402.019531 269.816101,398.521088 
	C269.739319,396.999939 269.794617,395.463348 271.273895,394.521637 
	C272.916077,393.476227 274.067596,394.556091 275.242371,395.522797 
	C275.877106,396.045074 276.620850,396.984344 277.220947,396.915222 
	C283.964996,396.138550 283.481537,400.864532 283.285919,405.014374 
	C282.675476,417.963196 281.061279,430.793213 277.834381,443.370422 
	C277.306824,445.426666 276.268616,447.397461 275.200165,449.254547 
	C274.394226,450.655334 272.980865,451.308075 271.353943,450.402954 
	C269.743439,449.506989 269.475891,448.038727 270.292236,446.556213 
	C275.953400,436.275085 274.487488,424.470337 277.369324,413.591766 
	C278.231537,410.337006 277.733826,410.055939 274.486847,410.750427 
z"/>
<path fill="#000000" opacity="1.000000" stroke="none" 
	d="
M299.069763,219.803879 
	C297.739166,218.098541 296.555603,216.707230 295.411835,215.283966 
	C294.517975,214.171707 294.039124,212.910828 295.014191,211.654480 
	C295.990967,210.395844 297.459137,210.455231 298.641602,211.127151 
	C303.131470,213.678375 305.807220,217.906540 308.305267,222.208084 
	C308.915863,223.259476 308.279663,224.445892 307.327972,225.310806 
	C304.393311,227.977722 304.655151,231.145294 305.970215,234.447281 
	C306.672058,236.209610 307.404755,238.033997 305.183563,239.206558 
	C303.320435,240.190094 302.155060,238.860626 300.910095,237.668396 
	C295.514954,232.501877 290.059875,227.397949 284.627869,222.269897 
	C283.272247,220.990128 281.629211,219.549911 283.286560,217.673325 
	C284.939575,215.801636 286.811920,217.141586 288.035126,218.433533 
	C290.319458,220.846176 293.254089,221.802521 296.207520,222.884827 
	C299.166565,223.969208 299.939636,222.896667 299.069763,219.803879 
z"/>
<path fill="#000000" opacity="1.000000" stroke="none" 
	d="
M274.550964,308.077881 
	C269.789917,310.218323 266.868927,307.644562 264.468231,304.555084 
	C262.859467,302.484833 261.888550,299.914307 260.666199,297.550049 
	C259.916840,296.100647 259.617371,294.595001 261.344269,293.656952 
	C263.331787,292.577362 264.380798,293.947388 265.332550,295.443848 
	C266.478546,297.245728 266.996735,299.459686 268.800385,300.836578 
	C273.829315,296.818329 273.809418,296.871918 280.789124,299.462524 
	C284.296936,300.764557 287.833466,301.319977 291.379272,299.269501 
	C293.146606,298.247467 295.368500,297.415009 296.393951,300.116272 
	C297.291077,302.479492 295.017242,303.106964 293.513611,304.069244 
	C288.594971,307.217010 282.795105,305.353851 277.603027,306.910339 
	C276.671753,307.189545 275.767212,307.558167 274.550964,308.077881 
z"/>
<path fill="#000000" opacity="1.000000" stroke="none" 
	d="
M331.795227,355.494049 
	C332.036194,356.909485 332.285706,357.900116 332.259949,358.883514 
	C332.206268,360.937225 333.159424,363.542419 330.444733,364.531708 
	C327.771423,365.505890 327.572998,362.385406 325.634918,360.999359 
	C321.513000,365.733521 316.113129,363.297333 311.051514,363.040619 
	C309.118500,362.942596 307.000580,361.748016 306.957947,359.365082 
	C306.905457,356.428650 309.361328,356.827484 311.315186,356.624817 
	C313.127075,356.436890 314.917480,355.871857 316.724243,355.837830 
	C321.624207,355.745453 324.080078,353.627808 323.837189,348.484375 
	C323.738800,346.400879 323.943329,343.775543 326.898773,343.641510 
	C329.405273,343.527893 330.100342,345.718140 330.511261,347.707764 
	C331.013031,350.137268 331.299500,352.611206 331.795227,355.494049 
z"/>
<path fill="#000000" opacity="1.000000" stroke="none" 
	d="
M253.462891,465.648865 
	C252.866638,463.714447 253.496994,462.333649 254.333572,461.090210 
	C260.187866,452.388885 262.996948,442.486908 265.689087,432.533508 
	C265.948029,431.576233 266.201233,430.609802 266.564667,429.690125 
	C267.085266,428.372772 267.945099,427.279510 269.528259,427.582214 
	C271.261993,427.913727 272.170044,429.236816 271.792511,430.893188 
	C269.029053,443.016968 266.781616,455.352386 258.528839,465.374023 
	C257.054596,467.164276 255.556564,468.106689 253.462891,465.648865 
z"/>
<path fill="#000000" opacity="1.000000" stroke="none" 
	d="
M285.483856,450.652832 
	C286.007599,447.549774 287.205566,444.935516 285.457397,442.119720 
	C284.627380,440.782837 285.595398,439.122040 286.842682,438.205139 
	C289.105652,436.541565 290.288788,434.291199 291.150391,431.719391 
	C291.632080,430.281464 292.502563,428.875336 294.313873,429.088898 
	C296.276367,429.320282 297.075989,430.867584 297.169891,432.624573 
	C297.474731,438.327026 296.623169,443.853729 294.018066,448.988129 
	C292.449066,452.080475 290.673706,455.068451 288.978851,458.096466 
	C288.135223,459.603729 287.147064,461.088257 285.119843,460.201538 
	C283.373840,459.437805 283.638092,457.791412 283.976715,456.316711 
	C284.383453,454.545258 284.917206,452.802948 285.483856,450.652832 
z"/>
<path fill="#000000" opacity="1.000000" stroke="none" 
	d="
M289.777100,206.989532 
	C287.193512,206.407547 286.278259,204.927628 287.388641,202.922272 
	C289.284943,199.497543 288.707794,196.227600 287.316345,192.916733 
	C286.612427,191.241791 286.395050,189.669235 288.113770,188.520905 
	C289.861053,187.353455 291.452606,188.216995 292.504364,189.518463 
	C296.138702,194.015671 299.642639,198.620361 303.114197,203.245712 
	C304.142853,204.616226 304.850372,206.297882 303.164886,207.671509 
	C301.297302,209.193558 299.784454,208.120911 298.504120,206.612381 
	C297.653870,205.610550 296.859436,204.561340 295.965881,203.440369 
	C293.707062,204.807785 291.927032,205.885376 289.777100,206.989532 
z"/>
<path fill="#000000" opacity="1.000000" stroke="none" 
	d="
M308.905273,212.980011 
	C310.477417,209.903275 312.321655,210.875504 313.733765,212.486176 
	C318.425018,217.837082 323.039917,223.260910 327.495361,228.808334 
	C328.638000,230.230988 330.232971,232.441559 327.795959,233.965759 
	C325.503052,235.399826 324.425751,233.230057 323.146240,231.630981 
	C319.423889,226.979034 315.516418,222.475601 311.709229,217.890961 
	C310.563812,216.511627 309.024475,215.360641 308.905273,212.980011 
z"/>
<path fill="#000000" opacity="1.000000" stroke="none" 
	d="
M280.946075,385.552246 
	C277.051453,382.036285 278.894440,377.726837 279.165863,373.937469 
	C279.325378,371.710663 281.855682,372.132782 283.245392,373.866180 
	C285.474121,376.646149 284.375580,383.190918 280.946075,385.552246 
z"/>
<path fill="#000000" opacity="1.000000" stroke="none" 
	d="
M96.303352,439.977173 
	C94.274719,444.569183 92.321472,448.774719 90.297020,452.945740 
	C89.686913,454.202728 88.680428,455.170898 87.142395,454.798035 
	C85.676811,454.442749 84.609421,453.168732 85.098846,451.844635 
	C87.096359,446.440582 86.310135,440.230377 89.914490,435.318024 
	C91.107681,433.691772 91.696060,430.844330 94.636238,432.200195 
	C97.150757,433.359772 97.575302,435.587158 96.648895,438.116638 
	C96.479912,438.578003 96.447105,439.089264 96.303352,439.977173 
z"/>
</svg>