<svg version="1.1" id="Layer_1" xmlns="http://www.w3.org/2000/svg" xmlns:xlink="http://www.w3.org/1999/xlink" x="0px" y="0px"
	 width="100%" viewBox="0 0 1024 1024" enable-background="new 0 0 1024 1024" xml:space="preserve">
<path fill="#000000" opacity="1.000000" stroke="none" 
	d="
M620.063477,325.721497 
	C639.686829,327.926514 658.855347,330.091248 678.152100,330.913635 
	C682.021118,331.078491 684.772095,330.019653 687.107971,326.811432 
	C691.669800,320.546265 697.682861,315.791260 704.074585,311.464325 
	C706.942322,309.523041 709.951294,309.101654 713.123230,309.909943 
	C728.123291,313.732391 743.100281,317.645508 758.083313,321.534882 
	C759.202759,321.825500 760.395386,322.038239 761.062927,323.635223 
	C758.797974,328.755188 753.546570,332.057129 750.912659,337.420166 
	C754.249146,339.717804 757.908875,338.845154 761.244751,339.184998 
	C774.815552,340.567413 788.427124,341.545227 802.007996,342.836639 
	C805.612183,343.179352 807.866272,342.207581 809.549133,338.784973 
	C812.931946,331.905090 818.797668,327.445068 825.660889,324.453674 
	C840.014893,318.197510 854.339050,311.834595 868.934875,306.185699 
	C878.551575,302.463837 888.847900,300.793579 898.953430,298.740631 
	C904.324341,297.649506 909.544800,298.905090 914.222900,302.018005 
	C921.604675,306.930145 928.755310,312.140289 934.089783,319.338104 
	C936.447510,322.519348 938.516785,322.514801 941.489136,320.253662 
	C945.461426,317.231903 949.645630,314.477051 953.841003,311.765717 
	C955.701721,310.563141 958.094543,309.661530 959.621704,311.980743 
	C961.070251,314.180725 959.073425,315.657806 957.494751,316.884033 
	C953.417725,320.050598 949.269775,323.125824 945.185974,326.283752 
	C943.937134,327.249481 941.780518,328.116425 942.924316,330.123749 
	C947.141296,337.524506 948.117004,345.789062 949.176697,354.096802 
	C950.288208,354.096802 951.028198,354.319672 951.518433,354.063904 
	C961.442688,348.885773 970.654968,342.609863 979.485962,335.757690 
	C980.576050,334.911926 981.411377,333.925568 981.017578,332.355621 
	C979.195312,325.090210 977.576050,317.763214 974.775024,310.787262 
	C974.213867,309.389648 973.153076,308.269775 971.382507,307.710663 
	C968.880859,309.142242 966.418152,313.496643 963.167358,310.247131 
	C960.581177,307.662018 965.186768,306.513947 966.195068,304.243378 
	C962.723267,300.965637 958.399048,299.206268 954.278259,297.167664 
	C946.047791,293.095856 937.400146,290.059479 928.704102,287.160095 
	C922.202698,284.992371 916.617615,281.446991 912.755554,275.705719 
	C910.594666,272.493286 907.411316,271.782532 904.102661,271.556793 
	C885.658875,270.298492 867.205139,269.186890 848.754089,268.035614 
	C847.600830,267.963684 846.413025,267.821899 845.108276,268.881805 
	C847.400330,272.837128 844.525513,273.853485 841.486694,275.470398 
	C829.582581,281.804504 817.896362,284.251678 804.628784,278.521851 
	C796.353271,274.947876 786.858521,274.458832 777.770508,273.360809 
	C775.810181,273.123962 773.848389,272.902496 771.869568,271.139435 
	C775.242310,267.127167 780.170715,265.766785 784.934692,262.936859 
	C781.952820,261.791840 779.343384,261.542969 776.672241,261.307770 
	C755.302551,259.426361 733.939758,257.466705 712.572021,255.562134 
	C710.418213,255.370148 708.245972,255.384094 706.082275,255.302673 
	C698.145691,255.003967 698.004395,255.230042 697.327026,263.407593 
	C696.764587,270.196838 695.940796,276.964294 695.246033,283.742767 
	C694.868164,287.429413 692.677979,289.086792 689.156616,288.846405 
	C662.079712,286.997833 634.879272,287.447784 607.862000,284.405396 
	C603.437561,283.907166 601.800110,281.734863 601.676575,277.600891 
	C601.413025,268.780579 600.802551,259.964294 600.790955,251.145798 
	C600.786133,247.467911 599.357178,245.935806 596.031555,245.644577 
	C590.727783,245.180099 585.425903,244.608780 580.110474,244.377121 
	C554.495178,243.260742 528.874268,242.273590 503.257812,241.182251 
	C472.153381,239.857147 441.048889,238.528351 409.950806,237.064911 
	C404.357391,236.801682 398.720764,236.528488 393.009521,234.839325 
	C393.009521,242.670044 393.092194,250.139847 392.987122,257.607025 
	C392.873901,265.657837 391.353302,266.746857 383.363953,266.066742 
	C363.478668,264.374023 343.577667,262.866333 323.682892,261.285065 
	C323.516846,261.271851 323.349945,261.269958 323.183563,261.260010 
	C307.349792,260.313019 306.628113,259.565155 306.669434,243.860382 
	C306.688293,236.694077 306.680481,229.526047 306.838837,222.362228 
	C306.976044,216.154221 308.341400,214.902649 314.600403,214.670151 
	C320.591522,214.447586 321.120209,214.092026 321.175781,209.964554 
	C317.005249,209.965012 313.616180,212.273422 310.058594,213.803665 
	C305.346130,215.830643 300.901245,215.996063 296.037323,214.218445 
	C284.413971,209.970459 272.173920,208.341492 260.033081,206.348389 
	C257.458496,205.925720 254.863327,205.580673 251.951843,203.242477 
	C258.638031,200.197906 264.609650,197.427582 270.625732,194.757416 
	C274.583710,193.000732 278.738617,191.644028 282.568787,189.653183 
	C288.725769,186.452942 294.611023,186.663284 300.720398,189.725311 
	C305.631439,192.186737 310.738464,194.254639 315.731964,196.554855 
	C318.732910,197.937195 320.476471,197.426498 320.702606,193.776901 
	C323.003845,156.632080 343.421814,130.577576 372.810303,110.637016 
	C402.332397,90.605782 435.290222,79.968750 470.817474,76.380211 
	C507.192993,72.705994 542.996216,74.561447 578.127258,84.927940 
	C611.060425,94.645859 641.124817,109.592590 664.721008,135.340256 
	C687.858154,160.587036 697.588501,189.732651 689.122070,223.753952 
	C687.932312,228.534821 686.093140,233.154068 684.514954,237.969116 
	C687.806030,239.595383 690.843689,238.854355 693.752563,238.908951 
	C696.738342,238.964996 698.504272,239.871246 698.512573,243.170456 
	C698.523499,247.520096 701.044067,249.023926 705.151550,249.326904 
	C718.587952,250.318054 732.002686,251.597519 745.432983,252.677139 
	C761.683105,253.983429 777.940552,255.200058 794.195068,256.451050 
	C795.190491,256.527649 796.289551,256.868683 797.170959,256.576111 
	C812.620544,251.447403 827.274963,259.230133 842.467407,259.387878 
	C864.428162,259.615875 886.289124,264.562378 908.217163,263.707092 
	C932.334839,262.766388 955.988708,266.327362 979.825134,267.994080 
	C991.363220,268.800842 1002.127075,273.561249 1011.911621,279.795013 
	C1020.119141,285.023956 1020.842651,294.079987 1022.348755,302.626129 
	C1026.570557,326.582520 1022.042175,350.013428 1018.148071,373.478271 
	C1017.884094,375.068909 1017.372131,377.116516 1016.236877,377.976471 
	C1011.786499,381.347412 1012.377319,385.972931 1012.289734,390.611267 
	C1011.581726,428.087616 1010.853516,465.563751 1010.019043,503.037445 
	C1009.529663,525.015198 1008.825378,546.988159 1008.234741,568.963684 
	C1007.183044,608.092590 1006.258362,647.225342 1005.057739,686.349670 
	C1004.312012,710.652283 1003.479431,734.961304 1002.047913,759.229858 
	C1001.328308,771.429382 1004.968140,782.949036 1005.852783,794.855103 
	C1007.450562,816.357483 1010.884583,837.810547 1004.393372,859.252380 
	C1000.606567,871.761353 994.871948,882.828796 984.703491,890.981567 
	C978.681396,895.809814 971.079468,898.319702 964.812500,903.104553 
	C956.348999,909.566528 947.398621,915.414978 938.454224,921.213745 
	C933.255066,924.584412 931.629211,928.949890 932.682312,934.845093 
	C935.820923,952.414795 928.381409,969.321045 913.448669,978.799988 
	C906.372986,983.291565 898.167114,984.356140 890.245178,986.170105 
	C887.966370,986.691895 886.319092,987.164368 885.242920,989.472595 
	C883.130737,994.003113 879.036255,995.670166 874.345276,996.309143 
	C863.728027,997.755554 853.054932,997.191467 842.399353,997.278015 
	C837.403564,997.318542 833.861938,994.957581 832.884460,990.134521 
	C831.789795,984.732788 828.426147,983.119141 823.542603,982.245850 
	C816.344666,980.958557 809.263062,979.020020 802.132690,977.355408 
	C797.854980,976.356873 793.873779,974.784058 790.703674,971.576416 
	C788.284668,969.128723 784.996338,968.840515 781.902100,968.523865 
	C772.466003,967.558228 762.995850,966.929321 753.554077,966.013306 
	C750.019775,965.670410 747.143738,966.469116 744.386536,968.830688 
	C732.126221,979.331909 717.834900,982.090027 702.273621,979.211487 
	C691.954651,977.302673 684.430481,971.064819 679.015198,962.476074 
	C676.108521,957.865906 672.339478,955.932129 667.240234,955.359436 
	C643.623840,952.707031 620.011169,950.016724 596.419861,947.152893 
	C593.706177,946.823486 588.903198,947.162537 589.295044,943.478149 
	C589.739990,939.294678 594.347778,940.899719 597.253601,941.183533 
	C618.770081,943.284851 640.266907,945.586914 661.780762,947.716064 
	C671.329956,948.661072 671.247864,948.567078 669.098389,939.174927 
	C665.396362,922.998718 664.683472,906.535828 664.644104,890.018188 
	C664.629028,883.685852 664.436096,877.350525 664.582947,871.022461 
	C664.690552,866.383484 663.313843,864.265381 658.088074,864.045227 
	C648.479736,863.640442 638.883484,862.879150 629.282593,861.738892 
	C599.194702,858.165283 587.701843,826.537781 607.555420,802.274597 
	C618.725830,788.623169 633.644470,783.967163 650.911682,786.206604 
	C651.239441,786.249023 651.551941,786.401123 651.879395,786.454041 
	C663.828918,788.385071 664.734802,787.631348 664.765503,775.748535 
	C664.872131,734.416504 664.619812,693.079407 665.197754,651.753967 
	C665.670898,617.924988 665.522034,584.098877 665.768250,550.272278 
	C665.817627,543.479614 665.580383,543.055664 658.815002,543.245544 
	C650.262817,543.485535 641.873535,542.408081 633.471741,541.124573 
	C606.330261,536.977966 595.325745,506.255280 613.041748,483.495056 
	C622.374207,471.505341 634.880615,465.266754 650.183472,464.961456 
	C653.848633,464.888306 657.519409,464.847443 661.181946,464.965210 
	C664.502197,465.071960 666.000061,463.768677 666.064026,460.311249 
	C666.479736,437.831451 667.799316,415.342224 665.603516,392.888977 
	C664.186829,378.402283 666.995178,364.735199 672.929382,351.586029 
	C674.966980,347.071136 676.982300,342.546173 679.162292,337.681244 
	C669.180969,335.341797 659.511902,335.270538 649.962341,334.418121 
	C632.073608,332.821259 614.145569,331.665314 596.237000,330.286438 
	C595.095032,330.198517 593.973816,329.792480 592.852478,329.498383 
	C591.233826,329.073792 590.039612,327.999115 590.124939,326.358917 
	C590.233765,324.267975 591.992188,323.861298 593.759949,323.740234 
	C600.791199,323.258728 607.706238,324.505707 614.661499,325.148163 
	C616.313965,325.300781 617.960449,325.517548 620.063477,325.721497 
M887.729980,738.500000 
	C887.769653,708.672607 888.043762,678.849426 888.651733,649.026062 
	C889.283508,618.042358 889.523743,587.050659 889.939087,556.062561 
	C889.954712,554.896240 890.014160,553.730591 890.047852,552.564514 
	C890.852783,524.757996 891.733521,496.953796 891.822510,469.130737 
	C891.832764,465.918304 890.747070,464.368103 887.674927,463.442139 
	C866.011292,456.912323 848.580811,443.743866 832.848206,428.019470 
	C817.962341,413.141296 808.429199,394.836365 799.911621,375.925171 
	C797.920532,371.504364 798.071777,366.794312 799.489380,362.235474 
	C800.274902,359.709412 801.580811,357.341064 802.701538,354.924500 
	C804.110046,351.887360 802.896240,350.649475 799.829956,350.357117 
	C782.946899,348.747559 766.068054,347.093231 749.189514,345.436615 
	C746.279541,345.151031 743.822388,345.891357 742.437561,348.619995 
	C736.215942,360.878754 730.830139,373.627869 730.513428,387.463043 
	C729.937561,412.615387 730.403198,437.790771 730.322327,462.956177 
	C730.311401,466.348846 731.505066,467.511810 734.929932,467.811127 
	C747.524475,468.911713 760.114746,470.156189 772.656372,471.743744 
	C790.418640,473.992096 805.977356,490.534454 807.288879,508.128235 
	C808.727722,527.429932 793.032776,544.511230 773.259094,544.962219 
	C760.925781,545.243591 748.613953,544.436157 736.311279,543.654236 
	C730.603394,543.291443 729.457153,544.195129 729.381042,549.826233 
	C728.687378,601.143311 728.001892,652.460510 727.321472,703.777771 
	C726.976868,729.769531 726.779175,755.764587 726.193787,781.750854 
	C726.084290,786.609619 727.928833,788.326294 732.294983,788.614868 
	C736.442444,788.889099 740.609985,789.118896 744.714600,789.731018 
	C754.728699,791.224182 764.993164,791.113525 774.695801,794.639404 
	C789.203552,799.911438 801.536621,817.393311 800.984985,832.149658 
	C800.349670,849.143127 785.390198,864.414978 768.058716,865.256653 
	C756.414307,865.822205 744.757996,865.322144 733.117432,864.426880 
	C726.388550,863.909424 725.442993,864.874817 725.392273,871.506897 
	C725.271118,887.338562 725.077148,903.174561 725.324585,919.002380 
	C725.500793,930.273743 727.894409,941.129944 733.440979,951.133179 
	C734.879944,953.728333 736.554443,955.919250 739.709839,956.303040 
	C755.077942,958.172241 770.457031,959.952637 785.815674,961.895508 
	C789.962097,962.419983 792.151672,960.784973 793.852356,957.029114 
	C799.112610,945.411865 806.303284,934.992432 814.833435,925.538574 
	C833.017517,905.385559 855.589111,891.881653 880.964355,882.978699 
	C886.353027,881.088074 887.873230,878.549561 887.843811,872.994446 
	C887.608032,828.497314 887.721741,783.998413 887.729980,738.500000 
M983.127136,348.369293 
	C982.489929,346.907227 983.296021,344.967163 981.667847,343.806366 
	C979.498474,343.934845 977.963440,345.314667 976.322144,346.389984 
	C968.796936,351.320007 961.363770,356.392517 953.786499,361.240356 
	C950.461731,363.367462 948.569031,366.111176 947.918640,370.021790 
	C946.307617,379.708130 944.286011,389.328766 942.798157,399.032379 
	C940.233704,415.757202 931.159851,430.161194 926.390137,446.054199 
	C923.078796,457.087921 916.516174,463.902008 905.315735,466.214111 
	C901.269714,467.049347 900.259399,469.377350 900.249268,473.343567 
	C900.193176,495.333405 900.071960,517.319763 899.528992,539.312195 
	C898.780640,569.619812 899.304993,599.948975 898.460815,630.270874 
	C897.700500,657.577637 898.187561,684.906555 897.544983,712.232300 
	C896.761719,745.537964 897.293640,778.869629 896.422302,812.187805 
	C895.873474,833.172791 896.169067,854.178711 895.851379,875.171753 
	C895.797241,878.746338 896.818298,879.749512 900.290527,879.793335 
	C907.944763,879.889954 915.240540,881.363159 920.531006,887.671204 
	C922.087708,889.527283 923.529480,889.042725 925.317261,888.001892 
	C937.410828,880.961060 949.517334,873.940979 961.695129,867.047363 
	C964.705261,865.343384 965.721497,863.055908 965.677307,859.700684 
	C965.545715,849.704285 965.472229,839.700378 965.716492,829.707764 
	C965.981140,818.885315 968.839722,808.687500 974.314575,799.304688 
	C978.364075,792.364685 983.472351,786.179321 988.833923,780.256470 
	C992.535400,776.167419 994.201111,771.787354 994.030640,766.239014 
	C993.662231,754.251648 994.233032,742.261230 994.488647,730.269775 
	C995.560669,679.979370 996.783936,629.696594 998.625366,579.426819 
	C999.655640,551.301025 999.902405,523.145081 1001.069641,495.026337 
	C1001.504822,484.541199 1001.585632,474.053192 1002.010620,463.571045 
	C1003.055847,437.788910 1003.810608,411.995056 1004.765991,386.209045 
	C1004.882019,383.078247 1003.777649,381.270660 1000.784058,380.225739 
	C994.531738,378.043335 990.836914,373.180054 988.179810,367.413239 
	C985.508789,361.615906 984.218628,355.433380 983.127136,348.369293 
M403.030914,161.543869 
	C394.910187,166.948685 387.835632,173.448151 382.334656,181.550247 
	C375.675262,191.358566 372.371094,202.121719 373.093384,214.063248 
	C373.270538,216.992203 374.066559,218.830704 377.419891,218.779724 
	C378.886841,218.757416 380.353027,219.344955 381.834839,219.538788 
	C391.782684,220.840012 391.780273,220.830093 392.461060,230.769150 
	C392.479248,231.034454 392.799896,231.279037 393.190460,231.831985 
	C396.854553,229.427902 401.017426,229.884109 405.155151,230.083344 
	C437.222198,231.627335 469.290222,233.151291 501.356537,234.710861 
	C516.973083,235.470367 532.587830,236.269394 548.201111,237.093216 
	C563.809265,237.916794 579.415039,238.786011 595.020752,239.654312 
	C597.740479,239.805618 599.785034,239.175568 601.005249,236.331375 
	C602.174866,233.605225 604.774475,232.735229 607.621887,232.712219 
	C610.952148,232.685287 614.282898,232.713669 617.613220,232.686798 
	C625.173645,232.625778 625.847656,232.005463 625.811890,224.512161 
	C625.744751,210.434860 619.481628,198.799805 610.823853,188.360657 
	C594.785889,169.022888 573.603882,157.444031 550.247192,149.477432 
	C524.051575,140.542496 497.128143,137.650345 469.546692,140.083908 
	C445.953033,142.165619 423.819031,148.544708 403.030914,161.543869 
M649.551575,252.145187 
	C643.413330,251.708374 637.257874,251.431686 631.143555,250.773087 
	C627.622925,250.393875 624.323975,248.835602 624.750671,244.577744 
	C625.274719,239.348572 622.840759,237.765808 618.184998,237.838715 
	C616.035461,237.872391 613.869202,237.638718 611.730164,237.369629 
	C607.164612,236.795273 605.779175,238.921646 606.372375,243.176346 
	C607.687927,252.612671 607.383362,262.126190 607.236694,271.603058 
	C607.167908,276.041412 608.402405,277.597321 613.062256,277.841461 
	C636.486511,279.068848 659.893738,280.638245 683.298218,282.215576 
	C689.861328,282.657898 690.314087,282.402100 690.672241,275.810028 
	C691.186157,266.348999 691.780457,256.892303 692.372009,247.435745 
	C692.446106,246.250259 692.582703,245.176910 691.478577,244.287323 
	C688.538086,241.918167 681.273621,243.370407 679.957214,247.021774 
	C678.836792,250.129913 676.796509,250.859238 673.962830,251.219315 
	C666.174744,252.209015 658.364929,252.336121 649.551575,252.145187 
M328.584808,254.669250 
	C335.701691,255.243637 342.816193,255.850159 349.936066,256.384796 
	C360.367432,257.168121 370.805817,257.860321 381.234528,258.676392 
	C384.647888,258.943451 386.073608,257.624756 385.999786,254.143082 
	C385.858704,247.490204 386.026672,240.831390 385.952881,234.176315 
	C385.825714,222.707840 387.079681,224.842270 376.089050,223.912994 
	C375.814178,223.889755 375.513092,224.176010 374.952362,224.451508 
	C374.952362,224.961639 374.915375,225.594818 374.958008,226.222580 
	C375.439606,233.312012 375.442932,233.297424 368.157410,233.283844 
	C358.173706,233.265244 348.189911,233.276810 338.206177,233.264832 
	C328.267883,233.252899 328.273682,233.244888 324.704529,224.008926 
	C322.836639,219.175400 318.710754,221.915512 315.612030,221.455994 
	C313.009949,221.070099 312.316986,223.028152 312.326691,225.334076 
	C312.360962,233.487762 312.363312,241.641769 312.331268,249.795471 
	C312.321960,252.158890 313.128418,253.539566 315.735718,253.682205 
	C319.713989,253.899826 323.680969,254.323471 328.584808,254.669250 
M863.687744,322.104431 
	C856.457642,328.550659 857.233276,334.180969 866.338440,337.569519 
	C879.448730,342.448578 891.461487,338.644257 902.688904,331.586456 
	C905.437622,329.858551 906.931396,326.959808 906.053528,323.383545 
	C905.204529,319.924591 902.924805,317.838776 899.565918,317.286835 
	C887.393250,315.286560 875.477783,315.740265 863.687744,322.104431 
M966.192871,877.449829 
	C965.601257,876.308533 966.110474,874.726685 964.770691,873.855286 
	C964.444519,873.855286 964.051392,873.733093 963.809937,873.872864 
	C952.288147,880.545410 940.776611,887.235657 929.274109,893.941528 
	C928.212524,894.560486 927.324036,895.485352 927.744873,896.792786 
	C929.749268,903.020447 930.731934,909.616394 934.097229,916.107971 
	C942.196045,910.346375 949.371033,904.265137 957.429749,899.767151 
	C966.604858,894.645935 970.283936,888.265869 966.192871,877.449829 
M482.254761,91.639915 
	C520.939392,86.478928 557.734741,96.145393 594.508423,106.480675 
	C592.553955,103.192169 589.348267,102.743195 586.495972,101.780449 
	C570.278259,96.306442 554.476562,89.578171 537.313110,87.079590 
	C515.142578,83.852104 493.079437,86.424522 470.992737,87.575653 
	C462.626801,88.011673 454.686493,90.802696 447.063934,94.289680 
	C445.817261,94.859978 444.111053,95.111130 443.984528,97.737785 
	C456.520050,95.294548 468.723694,92.089386 482.254761,91.639915 
M1007.924622,317.447693 
	C997.849792,322.196350 992.789612,335.531158 996.399719,347.920746 
	C997.463501,351.571625 999.070190,354.821289 1003.322815,355.609680 
	C1007.888367,356.456024 1011.036743,354.193695 1013.446533,350.688385 
	C1018.090271,343.933868 1019.703186,336.394470 1018.520508,328.346313 
	C1017.622803,322.237335 1013.956177,318.387238 1007.924622,317.447693 
M937.393860,392.973358 
	C938.354431,386.913483 939.360352,380.860229 940.250366,374.789978 
	C940.549927,372.746826 941.815308,370.205811 939.656311,368.784332 
	C937.536926,367.389008 935.127197,368.617981 933.122375,369.848297 
	C931.577271,370.796448 929.997803,371.835175 928.786438,373.156921 
	C920.353638,382.358429 918.124268,393.173523 921.188293,405.061066 
	C922.476624,410.059265 925.456238,413.921783 931.227478,415.458801 
	C934.160522,408.294647 935.441528,400.978363 937.393860,392.973358 
M950.220459,269.864960 
	C947.635742,269.344116 945.029541,269.216064 943.828491,272.113831 
	C942.684082,274.875092 944.569641,276.860229 946.339539,278.634247 
	C947.135925,279.432495 948.189331,280.115143 949.253174,280.483398 
	C957.526917,283.347687 966.049011,284.651733 974.767029,283.593506 
	C979.724121,282.991760 983.443665,280.529999 984.448059,274.438599 
	C973.386353,271.607880 962.084229,271.598633 950.220459,269.864960 
M827.759949,351.541046 
	C842.416687,353.664886 857.057068,356.017517 871.973206,354.747498 
	C853.926880,349.310883 835.480774,347.438690 816.771301,347.588501 
	C819.257385,352.114746 823.584106,350.341400 827.759949,351.541046 
M701.219910,468.280731 
	C691.780273,467.947418 682.326416,466.143158 671.984070,467.629395 
	C677.445740,473.073151 707.553101,474.513062 714.498535,470.376617 
	C710.377991,468.825653 706.136597,469.226257 701.219910,468.280731 
M904.236145,387.114685 
	C904.500793,388.902740 903.729126,390.925110 905.761169,393.297638 
	C908.330139,381.604736 909.501587,370.818298 906.225098,358.698822 
	C903.473145,361.874268 903.285339,364.302643 903.384583,366.786133 
	C903.643250,373.263031 903.944458,379.738281 904.236145,387.114685 
M679.691406,791.973450 
	C692.674927,791.973450 705.658508,791.973450 718.020691,791.973450 
	C705.192566,790.798340 691.691650,789.522949 678.179993,788.374634 
	C676.561157,788.237061 674.366028,787.716431 673.832703,790.349548 
	C675.093445,792.299561 677.064697,791.801208 679.691406,791.973450 
M678.460327,542.279480 
	C687.788574,543.042297 697.105530,543.416016 706.377991,541.436340 
	C695.325867,539.613892 684.267456,538.703857 672.219482,539.280945 
	C674.294250,541.908203 676.116516,541.625427 678.460327,542.279480 
M889.691406,929.360962 
	C889.922974,929.740784 890.055847,930.339783 890.696960,929.861328 
	C890.812561,929.774963 890.889648,929.583679 890.909973,929.430908 
	C892.233643,919.492065 891.863525,909.520386 891.401062,899.553162 
	C891.382019,899.144287 890.494751,898.775696 889.094299,897.651978 
	C887.053650,908.623535 889.431885,918.700378 889.691406,929.360962 
M892.342468,357.738159 
	C905.385193,357.557861 912.646790,348.293701 920.552490,340.059570 
	C918.360046,341.238831 916.070679,342.499268 914.517822,344.370819 
	C907.919678,352.322998 899.728882,355.856201 889.393799,354.446106 
	C887.600342,354.201416 885.326965,353.887817 884.296692,356.410767 
	C886.461243,358.461487 889.091370,357.470612 892.342468,357.738159 
M860.503479,988.681702 
	C865.404358,988.522461 870.387329,989.467346 875.199341,987.823242 
	C864.223694,987.075989 853.365356,984.157227 842.303955,986.545227 
	C847.738037,989.807251 853.751709,988.225159 860.503479,988.681702 
M613.811462,117.670082 
	C616.197815,118.608833 618.164429,121.299561 621.341309,119.680473 
	C618.975891,115.089302 611.564575,110.834274 607.375610,111.659561 
	C607.988647,114.959770 611.114441,115.610764 613.811462,117.670082 
M706.375977,865.004333 
	C708.749756,865.004333 711.123535,865.004333 713.497314,865.004333 
	C704.213257,861.274902 697.970825,861.289978 694.305786,865.002258 
	C698.615784,865.002258 702.025513,865.002258 706.375977,865.004333 
M984.409302,298.863617 
	C982.668457,300.261536 980.758240,301.510376 980.166016,304.047760 
	C986.349304,301.852173 990.629944,297.049377 995.544434,293.113708 
	C991.652649,294.267303 988.165955,296.078674 984.409302,298.863617 
z"/>
<path fill="#000000" opacity="1.000000" stroke="none" 
	d="
M208.311768,629.002502 
	C207.970520,657.992310 207.717880,686.484314 207.199234,714.971436 
	C207.115158,719.589478 208.610840,720.921875 213.137909,721.065247 
	C225.122375,721.444763 237.060104,722.798706 248.817795,725.158142 
	C267.383087,728.883545 281.372375,745.907532 281.328949,764.222168 
	C281.285217,782.659851 265.474548,797.842346 245.690933,798.046143 
	C234.541153,798.160950 223.416763,796.882202 212.240555,797.049072 
	C207.751862,797.116150 206.152161,798.541260 206.139542,803.143799 
	C206.098907,817.967102 205.457001,832.788574 205.404266,847.612061 
	C205.361053,859.755188 208.152618,871.296265 213.520691,882.288696 
	C215.990677,887.346619 219.619431,889.867126 225.014587,890.575378 
	C263.278290,895.598267 301.555634,900.525146 339.786255,905.790161 
	C370.587219,910.031982 401.318359,914.778381 432.099915,919.164185 
	C459.778870,923.107849 487.484558,926.863586 515.177917,930.706482 
	C525.873169,932.190613 536.577698,933.614258 547.252380,935.234558 
	C549.496948,935.575256 553.149475,935.244568 552.666138,938.867188 
	C552.198608,942.371460 548.773193,941.390930 546.486816,941.082397 
	C534.791016,939.504456 523.130737,937.664673 511.441803,936.033203 
	C483.108002,932.078430 454.759796,928.226868 426.427643,924.260620 
	C401.407928,920.758057 376.405243,917.133972 351.389191,913.605225 
	C324.538330,909.817810 297.679474,906.087402 270.826447,902.315674 
	C256.519226,900.306091 242.216888,898.262024 226.996323,896.103760 
	C228.545395,900.651550 225.433075,902.307068 222.703644,904.138245 
	C208.620377,913.586792 193.462463,915.540894 177.416138,910.275696 
	C169.604767,907.712646 164.118011,902.091431 159.839523,895.365234 
	C157.210373,891.231995 153.984940,889.116150 148.994339,888.670715 
	C135.909531,887.502930 122.862000,885.906555 109.809654,884.394287 
	C106.787170,884.044128 105.595596,885.681335 104.900963,888.171021 
	C103.633186,892.714966 100.631531,894.449768 95.949051,894.338318 
	C87.957130,894.148010 79.962074,894.353149 71.984734,895.121094 
	C67.281128,895.573914 62.310322,894.616272 59.878162,890.629395 
	C55.031155,882.684021 47.470005,882.147339 39.635284,881.254761 
	C34.033211,880.616455 28.460939,879.568420 22.940273,878.397278 
	C13.790600,876.456360 8.807541,870.304749 7.834177,861.350830 
	C5.799571,842.634705 4.868941,823.833862 4.629940,805.002930 
	C4.522134,796.508789 4.256022,788.016296 4.198508,779.522156 
	C4.176020,776.200928 4.100276,772.657898 6.148355,769.871094 
	C9.330778,765.540894 9.653890,760.727539 9.662104,755.655579 
	C9.730937,713.156799 9.442241,670.651428 10.107443,628.161255 
	C10.916196,576.501709 10.160825,524.835388 11.151173,473.186127 
	C11.678417,445.688965 11.427827,418.197968 11.746731,390.706146 
	C11.784139,387.481262 11.776766,384.578430 8.633701,382.356201 
	C6.256612,380.675568 5.731929,377.578369 5.093194,374.809113 
	C3.104398,366.186523 2.003506,357.424683 1.870284,348.597443 
	C1.636407,333.100708 1.590428,317.598816 1.676645,302.100281 
	C1.735492,291.521851 3.931733,281.296997 7.690418,271.409271 
	C10.597166,263.762726 16.200886,258.994019 23.567862,255.735764 
	C46.948200,245.395065 71.307152,238.103210 95.994583,231.692810 
	C109.882751,228.086563 122.928658,221.992828 136.367371,217.054703 
	C149.621490,212.184402 162.631638,206.292358 176.988190,205.227005 
	C190.429459,204.229538 203.542770,206.532501 216.542267,209.626419 
	C218.642532,210.126297 220.295517,211.449371 219.858139,213.875977 
	C219.454010,216.118103 217.548203,216.305542 215.587936,216.422821 
	C195.819870,217.605652 176.052963,218.812164 156.292953,220.120773 
	C154.004333,220.272339 151.680313,220.858398 149.507095,221.624329 
	C136.156815,226.329422 122.906891,231.328430 109.487305,235.822754 
	C104.784370,237.397812 103.676590,239.468277 105.085381,244.239639 
	C107.902763,253.781662 108.042183,263.600403 106.591248,273.448029 
	C105.416191,281.423157 105.710892,281.596069 113.497391,282.014984 
	C121.141769,282.426270 128.771942,283.109802 136.405350,283.711945 
	C138.769699,283.898438 141.568604,284.097412 141.382828,287.283203 
	C141.219727,290.080566 138.639832,290.936005 136.227158,291.058411 
	C127.233994,291.514801 118.236374,291.390350 109.263863,290.606903 
	C105.935638,290.316284 103.501038,290.929016 102.178452,294.484467 
	C91.248520,323.866943 71.482941,346.426239 47.058109,365.303680 
	C39.679146,371.006714 32.256847,376.695374 24.483759,381.829498 
	C20.466949,384.482574 19.259275,387.449219 19.259085,392.086548 
	C19.256363,457.917786 19.472639,523.753235 18.779005,589.578613 
	C18.385662,626.906494 18.971184,664.239990 18.030434,701.556030 
	C17.539024,721.048462 17.587273,740.541443 17.137325,760.026672 
	C17.001560,765.906006 19.006054,768.812195 24.340883,771.384827 
	C58.225876,787.724976 84.966087,811.658813 101.214317,846.164062 
	C105.608994,855.496704 109.353638,865.165100 110.252930,875.591492 
	C110.512077,878.596008 112.348763,879.229370 114.538963,879.398376 
	C125.153702,880.217041 135.777695,880.919128 146.401642,881.613037 
	C150.201340,881.861206 152.126328,880.388794 151.039673,876.271301 
	C144.664963,852.116699 145.575912,827.419250 145.725342,802.795593 
	C145.750473,798.652710 144.294876,797.184875 140.210861,797.241333 
	C129.532288,797.389099 118.953072,796.216248 108.438225,794.338440 
	C78.308800,788.957764 71.243042,760.222778 86.001465,738.595093 
	C95.141243,725.201233 108.155029,718.236267 124.658600,718.570984 
	C129.321945,718.665588 133.990997,718.790955 138.641327,719.125854 
	C143.039520,719.442566 144.674454,717.966125 144.797791,713.218384 
	C145.905838,670.567566 145.345673,627.901855 146.100113,585.253052 
	C146.630737,555.256958 146.609619,525.265930 146.602020,495.271515 
	C146.600784,490.447723 146.047760,485.624969 146.018127,480.800049 
	C145.996475,477.274689 144.297943,476.364838 141.061310,476.208435 
	C131.425079,475.742798 121.896431,474.434814 112.341728,472.930817 
	C91.979149,469.725494 78.897179,448.370605 88.467682,426.100525 
	C96.436264,407.558044 111.170418,398.470703 131.176102,397.711151 
	C134.837494,397.572144 138.519531,397.502167 142.171616,397.729126 
	C145.649277,397.945160 147.035126,396.202606 147.336655,393.122162 
	C147.514847,391.301941 147.626038,389.467407 147.629059,387.639069 
	C147.656647,370.973114 147.723572,354.306671 147.624817,337.641327 
	C147.586411,331.159546 146.342224,324.737122 146.631363,318.210999 
	C147.968231,288.037598 159.686203,263.216125 184.089066,244.821457 
	C186.782898,242.790848 189.650772,241.746109 192.948013,242.502075 
	C209.019073,246.186707 224.946030,250.425980 240.747971,255.131470 
	C241.174011,255.258331 241.494049,255.741196 242.382950,256.503479 
	C234.307846,267.988342 223.031540,277.465332 218.751419,291.629944 
	C224.936737,294.773315 231.298874,293.836945 237.284943,294.368164 
	C258.846191,296.281555 280.477631,297.387573 302.068542,298.987122 
	C325.306732,300.708740 348.527283,302.666870 371.759186,304.474823 
	C386.189331,305.597778 400.633392,306.546844 415.058380,307.730042 
	C433.289154,309.225433 451.503418,310.921112 469.731232,312.453644 
	C488.135498,314.001007 506.551910,315.405731 524.951782,317.002136 
	C527.688843,317.239624 532.120239,316.484222 531.772522,320.743500 
	C531.459229,324.581879 527.279114,323.375183 524.698547,323.211395 
	C501.613037,321.746521 478.537415,320.125580 455.459930,318.535065 
	C440.023895,317.471222 424.584503,316.448883 409.155853,315.285950 
	C393.236023,314.085999 377.333405,312.656281 361.412292,311.475586 
	C340.498535,309.924652 319.564453,308.642151 298.656769,307.016998 
	C276.752350,305.314392 254.868805,303.342651 232.976089,301.488861 
	C228.668198,301.124115 224.354080,300.820190 220.054230,300.377411 
	C216.840576,300.046539 215.086411,301.453369 214.222595,304.489410 
	C212.527481,310.447113 211.351959,316.497589 211.335495,322.686523 
	C211.272491,346.352295 211.304184,370.018433 211.341812,393.684326 
	C211.352173,400.207886 211.758118,400.512238 218.052490,400.671753 
	C231.046844,401.001007 243.933304,402.663025 256.669098,405.000732 
	C276.476624,408.636505 291.002777,429.596008 287.607513,448.728607 
	C284.681580,465.216736 270.452057,477.266327 253.293869,477.242432 
	C241.139969,477.225494 228.976273,476.780060 216.838837,476.121948 
	C212.105484,475.865295 210.517288,477.840179 210.477982,482.065033 
	C210.459396,484.064362 210.356491,486.062866 210.333954,488.062195 
	C209.926437,524.218689 209.559174,560.375610 209.102020,596.531433 
	C208.967255,607.190247 208.582245,617.845947 208.311768,629.002502 
M77.737244,250.626678 
	C70.449425,249.612457 63.431316,250.181641 57.310768,254.726471 
	C51.398663,259.116516 52.131069,265.620941 58.665455,268.904419 
	C66.148300,272.664490 73.513824,271.532715 80.634544,268.205719 
	C84.865013,266.229126 89.163475,263.536713 88.667358,257.946777 
	C88.170097,252.344101 83.096039,252.141602 79.050674,250.925323 
	C78.892044,250.877625 78.728409,250.846603 77.737244,250.626678 
M155.933578,400.583588 
	C155.150238,401.010254 153.813263,400.506805 153.485046,402.786896 
	C167.821045,405.513916 182.110992,406.531830 196.548599,404.142700 
	C183.508698,399.627777 170.139755,399.408905 155.933578,400.583588 
M59.366997,280.307678 
	C52.382187,280.589294 45.255070,279.308990 38.473236,282.257507 
	C54.010674,285.851532 69.637306,285.007385 85.296249,283.814606 
	C77.127106,281.170258 68.696930,280.985260 59.366997,280.307678 
M153.050674,472.129364 
	C152.263992,474.603973 154.467957,474.390686 155.571548,474.533844 
	C161.831924,475.345947 168.108231,476.299866 174.401703,476.501831 
	C178.821381,476.643646 183.277039,475.663727 187.716629,475.184723 
	C176.462540,471.392609 165.110886,470.665344 153.050674,472.129364 
M70.894890,886.950745 
	C78.213326,886.905396 85.532555,886.906738 92.849617,886.781189 
	C94.629456,886.750732 96.948326,887.257446 97.577019,883.204468 
	C86.460945,884.491211 75.683716,880.009460 64.715034,884.007324 
	C65.913658,887.026367 68.060089,886.776611 70.894890,886.950745 
M190.467346,724.902954 
	C191.190735,724.837097 191.914108,724.771240 192.637497,724.705383 
	C180.165924,722.937988 167.727417,721.295288 155.144226,722.681519 
	C166.512741,726.050354 178.122849,725.385132 190.467346,724.902954 
M13.017964,283.221741 
	C13.238314,284.760925 12.626338,286.548645 14.817883,288.049133 
	C17.750757,281.717621 19.732054,275.328979 20.663076,268.540314 
	C14.062300,271.030518 13.978401,276.949066 13.017964,283.221741 
M196.253006,796.870361 
	C188.667709,794.835815 180.973831,795.072693 173.310867,794.662964 
	C173.260178,795.488525 173.209488,796.314087 173.158813,797.139648 
	C180.781418,797.871704 188.422531,798.348145 196.253006,796.870361 
z"/>
<path fill="#000000" opacity="1.000000" stroke="none" 
	d="
M401.233093,268.586121 
	C400.613647,265.963165 402.497406,265.059143 403.777222,263.862549 
	C406.088440,261.701752 408.827911,259.917175 410.809174,257.500519 
	C416.916992,250.050613 424.791595,249.120804 433.743500,249.836212 
	C453.638000,251.426178 473.588928,252.297714 493.493622,253.775238 
	C518.540710,255.634521 543.681274,256.034851 568.673706,258.693573 
	C569.315247,258.761841 569.939697,258.990173 570.450317,259.114258 
	C571.202209,260.555145 570.529724,261.634583 569.809937,262.475677 
	C561.143433,272.602234 551.371460,280.148071 536.777405,278.224915 
	C528.384216,277.118896 519.874695,276.801331 511.404877,276.387238 
	C476.818085,274.696167 442.226959,273.092651 407.635345,271.502136 
	C405.182312,271.389343 403.037628,270.851624 401.233093,268.586121 
M461.428894,262.999329 
	C474.213409,263.572845 486.992950,264.365662 499.783905,264.657562 
	C512.321350,264.943634 524.870483,264.719879 531.741333,264.719879 
	C500.116791,261.384644 462.646393,261.158386 425.255951,259.078705 
	C425.212158,259.900482 425.168335,260.722260 425.124512,261.544037 
	C436.785034,263.674957 448.674438,262.478546 461.428894,262.999329 
z"/>
<path fill="#000000" opacity="1.000000" stroke="none" 
	d="
M26.089127,681.409546 
	C26.061440,604.539307 26.052036,528.106934 26.047028,451.674561 
	C26.046787,447.999939 26.430439,444.363617 27.405670,440.814056 
	C27.711069,439.702484 28.105047,438.430389 29.591032,438.499023 
	C30.875843,438.558380 31.816008,439.461151 32.088955,440.635803 
	C32.537144,442.564636 32.938240,444.553619 32.968475,446.523224 
	C34.144131,523.111572 34.126148,599.705017 33.869907,676.299133 
	C33.861568,678.791260 33.554935,681.281311 33.427856,683.774414 
	C33.331200,685.670593 33.160877,687.685547 30.958443,688.161011 
	C28.418329,688.709351 27.544014,686.594116 26.752579,684.758911 
	C26.365984,683.862488 26.312523,682.822388 26.089127,681.409546 
z"/>
<path fill="#000000" opacity="1.000000" stroke="none" 
	d="
M807.545776,284.230530 
	C809.564392,284.952637 811.653259,284.621246 812.786682,286.870300 
	C809.982544,290.209747 805.481567,291.258850 802.337280,294.062866 
	C791.790222,303.468414 780.265564,303.965027 767.812866,298.576965 
	C765.281921,297.481812 762.496033,297.656219 763.186096,293.227692 
	C763.669434,290.125244 760.453857,290.114990 758.574890,291.527252 
	C751.067993,297.169617 744.070740,292.827759 737.022766,291.228210 
	C736.591980,289.483948 737.640747,289.018951 738.429810,288.559174 
	C744.322510,285.125488 750.145752,281.551239 756.193115,278.410461 
	C762.163025,275.309906 768.585510,274.874603 775.138123,276.450378 
	C785.810242,279.016846 796.488159,281.559174 807.545776,284.230530 
z"/>
<path fill="#000000" opacity="1.000000" stroke="none" 
	d="
M238.760590,210.633209 
	C242.661209,208.179688 246.402802,207.748688 250.554199,208.740173 
	C263.483704,211.828171 276.458649,214.726059 289.420502,217.677780 
	C290.740997,217.978470 291.997925,218.310257 292.759338,219.582047 
	C292.896149,221.306992 291.431793,221.738480 290.374878,222.420929 
	C287.720123,224.135056 285.032898,225.801285 282.322327,227.426056 
	C266.200439,237.089874 265.219574,237.170776 247.536926,231.069122 
	C245.474716,230.357498 244.083878,229.359558 243.831818,226.973099 
	C243.487076,223.709183 241.195740,223.646545 239.129959,224.980453 
	C231.582901,229.853699 224.538834,226.291367 215.987183,224.177719 
	C223.667770,218.458481 231.268188,214.984772 238.760590,210.633209 
z"/>
<path fill="#000000" opacity="1.000000" stroke="none" 
	d="
M589.213806,295.863586 
	C606.894226,291.540222 623.542969,293.627472 639.566040,301.115540 
	C643.051575,302.744385 645.698303,305.371674 645.202454,309.659485 
	C644.749634,313.575226 641.598694,315.267151 638.361511,316.084442 
	C620.699707,320.543671 603.798767,318.400421 587.839172,309.555542 
	C584.992188,307.977692 582.592468,305.672729 582.920593,302.066223 
	C583.231567,298.647552 585.912354,297.097992 589.213806,295.863586 
M620.289062,299.696320 
	C609.853088,297.848236 599.494934,296.703613 589.273438,302.753174 
	C592.592285,306.402588 596.124573,308.075928 600.172546,308.909454 
	C600.875977,307.292786 602.138000,305.833832 601.929871,304.628723 
	C600.856689,298.413269 604.966003,299.472168 608.254822,300.155151 
	C612.590027,301.055328 616.789795,300.927704 621.323059,300.587952 
	C621.854187,302.767578 621.126648,304.776123 620.579102,306.935699 
	C614.832336,308.515442 608.426575,305.103973 602.694946,309.106476 
	C612.554016,314.497528 632.950806,313.502441 638.814758,307.617950 
	C634.803223,303.397980 629.899353,301.299377 620.289062,299.696320 
z"/>
<path fill="#000000" opacity="1.000000" stroke="none" 
	d="
M215.752487,243.401520 
	C209.101044,241.374176 202.412933,240.816284 196.362000,237.793503 
	C202.928955,228.222061 216.471832,225.430847 226.077896,231.143356 
	C228.521606,232.596573 227.146896,235.615143 229.496399,237.383408 
	C240.122116,231.206848 249.583328,238.580002 259.930511,239.961456 
	C256.468475,247.753098 248.955719,251.685608 241.778809,249.896652 
	C233.235794,247.767181 224.698746,245.613876 215.752487,243.401520 
z"/>
<path fill="#000000" opacity="1.000000" stroke="none" 
	d="
M735.754395,310.387207 
	C728.941833,308.745819 722.536011,307.177277 715.193665,305.379425 
	C719.220642,299.684357 723.933838,296.248260 729.612976,295.364594 
	C737.225525,294.180145 745.474487,298.687042 748.273438,304.651184 
	C759.124084,298.672760 768.831238,305.528809 779.443604,306.891327 
	C774.744995,315.495636 768.205444,318.484467 759.857971,316.386932 
	C751.961182,314.402588 744.060242,312.434998 735.754395,310.387207 
z"/>
<path fill="#000000" opacity="1.000000" stroke="none" 
	d="
M321.196594,290.234802 
	C314.065155,289.632538 307.533630,288.384674 301.193909,286.268066 
	C298.994904,285.533844 296.778442,284.689270 294.790985,283.519592 
	C291.198914,281.405487 287.211243,279.202698 287.809296,274.158630 
	C288.392853,269.236298 292.772186,268.082153 296.586456,267.228882 
	C312.736237,263.616150 328.326080,265.810028 343.318329,272.581757 
	C344.795380,273.248932 346.127777,274.398621 347.296844,275.556976 
	C351.958588,280.176086 350.937927,285.203674 344.813446,287.672333 
	C337.355804,290.678314 329.517151,290.571777 321.196594,290.234802 
M298.481018,272.678406 
	C297.126343,273.415833 295.104187,273.312561 294.867371,275.466003 
	C303.495148,284.727264 335.882782,287.543549 343.669922,279.126831 
	C329.669373,270.162201 314.729980,269.485474 298.481018,272.678406 
z"/>
<path fill="#000000" opacity="1.000000" stroke="none" 
	d="
M29.809090,695.158203 
	C34.285507,700.309509 33.898552,711.665466 29.467709,716.690857 
	C25.965282,711.571228 25.936535,698.750732 29.809090,695.158203 
z"/>
<path fill="#000000" opacity="1.000000" stroke="none" 
	d="
M549.163879,325.274963 
	C546.077393,324.707733 543.139526,324.852875 541.246460,322.323059 
	C544.393372,318.905487 551.975891,317.522308 555.778076,319.512573 
	C556.705261,319.997894 557.465027,320.635040 557.616333,321.672577 
	C557.810181,323.001953 556.960510,323.810181 555.883545,324.382385 
	C553.902954,325.434692 551.739136,325.298706 549.163879,325.274963 
z"/>
<path fill="#000000" opacity="1.000000" stroke="none" 
	d="
M576.673218,940.784851 
	C577.613953,942.169861 577.174194,942.983887 576.059204,943.351013 
	C570.921936,945.041992 566.124268,944.256531 561.306580,941.696899 
	C564.307434,937.815125 569.482056,937.575562 576.673218,940.784851 
z"/>
<path fill="#000000" opacity="1.000000" stroke="none" 
	d="
M870.951172,729.993896 
	C871.256897,717.185120 869.956238,704.848877 871.540710,692.561401 
	C871.688538,691.414795 871.879944,690.236389 872.303589,689.173401 
	C872.722900,688.121338 873.331055,686.965088 874.795166,687.161682 
	C875.889038,687.308472 876.684265,688.150330 876.890930,689.095398 
	C877.457397,691.685242 878.164429,694.324219 878.169495,696.945068 
	C878.270569,749.107300 878.280334,801.269775 878.306580,853.432190 
	C878.306824,853.931885 878.315735,854.435791 878.258972,854.930603 
	C878.045349,856.790894 877.801880,858.958862 875.443604,858.954285 
	C873.085876,858.949707 872.765015,856.881653 872.708191,854.937012 
	C872.489380,847.445007 872.129395,839.954346 872.065857,832.461121 
	C871.875122,809.963867 871.857056,787.465088 871.654419,764.968079 
	C871.550903,753.475098 871.196777,741.984436 870.951172,729.993896 
z"/>
<path fill="#000000" opacity="1.000000" stroke="none" 
	d="
M871.015747,659.241943 
	C874.641357,664.474243 874.723083,669.877686 872.631653,675.424438 
	C872.220154,676.516113 871.550781,677.606995 870.265198,677.732178 
	C868.895630,677.865479 868.305725,676.755371 867.765259,675.692993 
	C865.619080,671.474792 867.156433,662.583862 871.015747,659.241943 
z"/>
<path fill="#000000" opacity="1.000000" stroke="none" 
	d="
M873.914490,642.022461 
	C874.123901,642.699585 874.225769,643.016052 874.271484,643.340515 
	C874.609375,645.734741 874.413269,648.059448 872.312134,649.585632 
	C870.886414,650.621277 869.799866,649.393188 869.019592,648.358398 
	C867.218262,645.969482 866.278625,643.066711 868.000732,640.538208 
	C870.278381,637.194031 872.346802,638.684204 873.914490,642.022461 
z"/>
<path fill="#000000" opacity="1.000000" stroke="none" 
	d="
M940.314087,632.015747 
	C939.876587,671.156433 939.515137,709.800842 938.979370,748.442932 
	C938.529175,780.914734 937.877808,813.383728 937.306824,845.853882 
	C937.286438,847.016113 937.315857,848.207458 937.072083,849.331055 
	C936.683411,851.122925 935.556519,852.368225 933.606689,852.308960 
	C931.764709,852.253052 931.117065,850.783447 930.864990,849.255310 
	C930.649963,847.951721 930.665771,846.600098 930.676697,845.270569 
	C931.128174,790.464966 931.257690,735.653809 932.196472,680.856445 
	C932.644592,654.702698 932.130737,628.546509 932.898621,602.406128 
	C933.764465,572.928528 933.188477,543.435425 933.972778,513.967651 
	C934.610352,490.010590 934.768555,466.026672 936.454041,442.101471 
	C936.581726,440.290039 936.362244,438.451721 936.527100,436.646240 
	C936.638489,435.425354 937.419922,434.356750 938.772217,434.370789 
	C940.089539,434.384399 940.879944,435.379303 941.062866,436.629089 
	C941.254700,437.939301 941.286743,439.281921 941.284424,440.610199 
	C941.184692,497.756287 941.092834,554.902405 940.936462,612.048340 
	C940.918762,618.538879 940.530884,625.028442 940.314087,632.015747 
z"/>
<path fill="#000000" opacity="1.000000" stroke="none" 
	d="
M925.340088,646.086853 
	C924.066711,649.212097 923.200195,652.144104 921.640564,654.643616 
	C918.253540,660.071472 911.020874,659.768066 908.476196,653.935791 
	C903.785278,643.184448 904.635803,632.564392 910.577698,622.440796 
	C912.011536,619.997864 914.332703,618.566162 917.245667,618.904968 
	C920.265381,619.256226 922.574646,620.950195 923.539978,623.885925 
	C925.876160,630.990234 928.276917,638.127991 925.340088,646.086853 
M917.351379,647.467163 
	C912.679565,651.655212 914.557678,644.700745 912.260254,644.332520 
	C912.042664,647.389221 912.158691,650.045471 914.599609,652.008118 
	C919.091003,649.141541 920.327087,646.142700 918.861206,641.174805 
	C918.412292,643.357239 918.056091,645.088623 917.351379,647.467163 
M914.532898,626.295349 
	C912.782898,628.736633 911.951172,631.376038 912.520691,635.456482 
	C914.468811,632.099976 912.478760,627.796997 916.080078,626.935425 
	C919.276306,626.170654 917.953186,630.489624 919.883850,631.722717 
	C920.131226,629.749634 919.584900,628.037231 918.789734,626.407959 
	C917.853577,624.489624 916.584534,624.014465 914.532898,626.295349 
z"/>
<path fill="#000000" opacity="1.000000" stroke="none" 
	d="
M325.282745,273.354889 
	C326.559998,277.775482 324.877960,279.514954 320.697632,279.383636 
	C316.097015,279.239136 311.488342,279.350677 306.699463,279.350677 
	C306.699463,276.996521 306.699463,275.226440 306.699463,272.827789 
	C312.836365,272.608582 318.876617,272.220306 325.282745,273.354889 
z"/>
</svg>