<svg version="1.1" id="Layer_1" xmlns="http://www.w3.org/2000/svg" xmlns:xlink="http://www.w3.org/1999/xlink" x="0px" y="0px"
	 width="100%" viewBox="0 0 1080 1080" enable-background="new 0 0 1080 1080" xml:space="preserve">
<path fill="none" opacity="1.000000" stroke="#000000" stroke-linecap="round" stroke-linejoin="round" stroke-width="7.000000"
	d="
M531.500000,940.000000 
	C545.518921,940.461853 559.503174,939.675354 573.504517,939.112915 
	C582.025208,938.770630 590.506287,938.144958 599.004211,937.561523 
	C608.334412,936.921021 611.203247,933.841125 611.557556,924.502197 
	C612.486877,900.007507 613.136902,875.509583 613.546143,851.000793 
	C613.796631,835.996582 614.879761,821.000610 614.903625,805.999817 
	C614.933289,787.321228 615.761963,768.656921 616.309875,750.009094 
	C616.760193,734.679077 616.681396,719.328125 617.410278,703.995728 
	C618.289001,685.513733 618.433289,666.997864 619.018921,648.500610 
	C619.599426,630.164551 620.516785,611.837524 620.939087,593.498596 
	C621.249573,580.017883 620.252014,579.229797 607.000916,577.990417 
	C586.345337,576.058594 565.682861,575.729553 544.999084,577.489563 
	C543.164368,577.645691 541.237366,576.777771 539.500000,578.000000 
"/>
<path fill="none" opacity="1.000000" stroke="#000000" stroke-linecap="round" stroke-linejoin="round" stroke-width="8.000000"
	d="
M673.000000,934.000000 
	C674.040649,931.081299 676.873840,931.506287 679.013916,931.067932 
	C690.836609,928.645935 702.599670,925.981506 713.968872,921.912964 
	C717.227722,920.746643 720.509155,919.532227 723.562073,917.598022 
	C730.175476,913.408325 732.141052,907.580994 732.667480,900.011658 
	C734.126953,879.022888 733.246277,857.940369 735.495544,836.999512 
	C735.530945,836.669983 735.492615,836.333130 735.500977,836.000000 
	C735.833069,822.833313 735.850769,809.649353 736.571777,796.503967 
	C737.741272,775.180054 738.037170,753.838379 738.757446,732.508667 
	C739.049927,723.847778 738.571045,715.090881 739.662842,706.520752 
	C740.813965,697.485352 739.894165,688.480774 740.552185,679.503845 
	C741.931396,660.689209 742.238831,641.853027 742.608887,623.002136 
	C742.900269,608.158203 744.276184,593.338257 744.947449,578.497620 
	C745.226440,572.330750 742.850525,569.512756 736.994995,569.065063 
	C728.558777,568.419983 720.267029,570.078918 712.004333,571.524841 
	C701.153320,573.423645 690.346191,575.575134 679.487305,577.425598 
	C677.693726,577.731201 676.534668,579.726685 674.500000,579.000000 
"/>
<path fill="none" opacity="1.000000" stroke="#000000" stroke-linecap="round" stroke-linejoin="round" stroke-width="9.000000"
	d="
M397.500000,922.000000 
	C413.834564,925.322327 430.330566,927.232727 447.000305,927.478882 
	C454.688171,927.592468 456.831268,925.448059 458.044678,918.007263 
	C459.776154,907.389526 459.799561,896.630859 459.830292,885.999512 
	C460.116821,786.833679 459.987915,687.666687 460.027496,588.500000 
	C460.030121,581.955566 459.559967,581.077759 452.534119,579.360352 
	C439.502258,576.174988 426.310059,575.059204 413.000946,574.478333 
	C408.494995,574.281677 404.000000,573.833313 399.500000,573.500000 
"/>
<path fill="none" opacity="1.000000" stroke="#000000" stroke-linecap="round" stroke-linejoin="round" stroke-width="7.000000"
	d="
M788.500000,455.500000 
	C791.386902,461.128754 789.928528,467.151062 789.928528,473.000000 
	C789.928589,478.500000 788.888733,484.016785 789.095520,489.496399 
	C789.487122,499.876221 788.276001,510.166779 787.897278,520.496216 
	C787.298035,536.844666 786.473389,553.188660 785.199158,569.515564 
	C784.669434,576.304199 784.136047,583.150574 783.872925,589.995117 
	C783.276611,605.510620 781.870972,620.993225 781.058411,636.503052 
	C780.691772,643.499817 780.369507,650.525818 780.222656,657.504700 
	C780.025757,666.856079 779.405212,676.195190 778.795776,685.486633 
	C777.888306,699.321350 777.370850,713.185303 776.207764,727.017456 
	C775.188721,739.135681 774.728210,751.336487 774.048218,763.502686 
	C773.182495,778.991577 772.801941,794.507385 771.953796,809.997498 
	C771.359863,820.843872 770.423340,831.674744 769.451721,842.495667 
	C769.105591,846.350220 770.036865,849.605591 772.500000,852.500000 
"/>
<path fill="none" opacity="1.000000" stroke="#000000" stroke-linecap="round" stroke-linejoin="round" stroke-width="6.000000"
	d="
M640.500000,575.500000 
	C641.165894,593.684998 639.715515,611.833191 639.328735,629.996338 
	C638.838867,652.996033 638.020081,675.996948 637.306213,698.993958 
	C636.814575,714.834045 637.045532,730.679504 636.400879,746.495972 
	C635.429565,770.325623 634.930298,794.158081 634.359131,817.996643 
	C633.828064,840.163330 632.930115,862.324585 632.409546,884.497864 
	C632.088684,898.164734 630.784302,911.806335 630.975220,925.500366 
	C630.993774,926.831055 630.666626,928.166687 630.500000,929.500000 
"/>
<path fill="none" opacity="1.000000" stroke="#000000" stroke-linecap="round" stroke-linejoin="round" stroke-width="6.000000"
	d="
M480.500000,579.500000 
	C481.595032,589.150635 480.864685,598.835510 480.851440,608.499817 
	C480.849274,610.078674 480.537628,611.843262 480.534668,613.500061 
	C480.485901,640.833313 480.563049,668.166870 480.484344,695.499939 
	C480.381653,731.166809 480.520813,766.839783 479.871857,802.497681 
	C479.459259,825.169922 479.815613,847.834656 479.490326,870.499878 
	C479.203278,890.500549 478.833344,910.500000 478.500000,930.500000 
"/>
<path fill="none" opacity="1.000000" stroke="#000000" stroke-linecap="round" stroke-linejoin="round" stroke-width="17.000000"
	d="
M805.000000,855.500000 
	C795.769653,848.394348 785.533691,848.719238 775.007263,851.527283 
	C772.542419,852.184814 771.525513,854.187073 770.397217,856.448730 
	C767.060730,863.137024 766.176086,870.253174 766.048645,877.500854 
	C765.898315,886.053955 763.942810,894.425476 763.802795,902.996765 
	C763.767090,905.184937 763.283203,907.678528 764.124939,909.440308 
	C767.788269,917.107544 764.933960,924.417969 762.799255,931.438965 
	C760.799255,938.017090 754.670898,941.481018 749.021851,945.034729 
	C735.585022,953.487549 720.525391,957.607056 705.527222,962.091064 
	C692.531189,965.976501 679.311829,968.756531 665.977844,970.859314 
	C657.546814,972.188904 648.976440,972.767761 640.495728,973.969910 
	C617.779907,977.189819 594.891479,978.265991 572.002625,977.853149 
	C553.830994,977.525513 535.625793,978.405823 517.513123,977.287842 
	C503.844177,976.444153 490.139618,975.641113 476.478943,974.199463 
	C464.332489,972.917664 452.300964,970.267334 439.999969,970.497925 
	C439.166901,970.513550 438.100464,970.838135 437.535217,970.448853 
	C429.992493,965.254517 420.604248,963.091797 414.407288,955.576477 
	C409.916321,950.130005 402.775055,951.241699 400.080750,957.534546 
	C398.155426,962.031250 394.694489,964.761658 391.032959,967.543396 
	C389.403442,968.781494 387.682251,968.687134 386.006470,968.453552 
	C379.657074,967.568787 373.339661,966.457092 366.996765,965.522034 
	C364.623474,965.172241 362.733765,964.032471 361.000000,962.500000 
"/>
<path fill="none" opacity="1.000000" stroke="#000000" stroke-linecap="round" stroke-linejoin="round" stroke-width="7.000000"
	d="
M769.000000,557.500000 
	C770.415222,565.864990 768.690552,574.168823 768.450684,582.498596 
	C768.157715,592.671204 767.564514,602.836975 766.985718,612.999207 
	C765.979431,630.665527 765.486389,648.354553 764.156616,666.011780 
	C763.582275,673.638245 763.444519,681.336365 763.043152,689.002258 
	C762.231873,704.494690 761.981689,720.022034 760.900879,735.493103 
	C760.027832,747.990112 759.378113,760.477966 758.906982,772.996521 
	C758.072144,795.175659 756.965332,817.354736 755.375977,839.491089 
	C754.562256,850.824646 753.757141,862.174866 752.732727,873.475769 
	C751.974915,881.835327 752.814758,890.215576 751.500000,898.500000 
"/>
<path fill="none" opacity="1.000000" stroke="#000000" stroke-linecap="round" stroke-linejoin="round" stroke-width="9.000000"
	d="
M762.000000,331.000000 
	C762.833313,331.833313 763.587769,332.768860 764.512878,333.483307 
	C770.274963,337.933167 771.591919,342.866028 768.470947,348.985199 
	C767.916626,350.072021 766.668640,350.187988 765.521667,350.565857 
	C748.969666,356.018677 732.064026,360.047607 715.004700,363.523041 
	C701.443115,366.285889 687.728699,367.899017 674.005249,369.543701 
	C663.312378,370.825165 652.698059,372.802307 641.991028,373.913269 
	C631.699341,374.981201 621.341675,375.661652 610.998108,375.926025 
	C593.838379,376.364594 576.631348,375.701508 559.508911,376.659271 
	C537.916931,377.867096 516.498108,375.548462 495.003052,374.899414 
	C491.146301,374.782928 487.250732,374.311157 483.398926,372.749268 
	C480.938629,371.751648 477.451721,372.936218 474.510956,373.552277 
	C469.709442,374.558105 464.910370,375.195892 459.999542,375.012177 
	C456.521973,374.882050 453.295074,376.022980 451.056793,378.550293 
	C444.756165,385.664429 436.241333,389.087006 427.987183,392.972748 
	C426.181946,393.822601 425.421661,394.900665 424.888977,396.971436 
	C421.770813,409.093384 416.345367,420.232056 410.108887,431.062714 
	C407.800537,435.071564 405.474030,435.441681 401.471283,434.084686 
	C393.364502,431.336334 385.831696,427.326843 378.041626,423.905212 
	C370.939148,420.785614 364.072632,417.698120 355.997314,417.882690 
	C349.331512,418.035034 345.709595,412.188843 346.453552,404.495514 
	C347.514496,393.523926 348.441803,382.479309 346.878754,371.517273 
	C346.104095,366.084442 345.637970,360.885101 346.921661,355.481384 
	C347.746277,352.010040 346.323914,348.500885 346.002686,344.999756 
	C345.739105,342.126556 343.266602,342.518494 341.492523,342.026978 
	C336.756958,340.715027 331.702820,342.367401 326.993225,340.517212 
	C324.894562,339.692749 322.628326,339.264557 320.996704,337.503052 
	C312.428223,328.252533 302.353851,329.564514 292.010437,333.527222 
	C285.343231,336.081512 280.225037,340.875061 275.563141,346.056793 
	C273.132812,348.758118 271.979340,351.607086 272.705933,356.048096 
	C274.316711,365.893646 274.404816,375.995911 274.977081,386.001312 
	C275.424744,393.828125 275.483856,401.680267 276.065094,409.495148 
	C276.444824,414.601349 279.477783,418.949310 281.000000,423.750000 
"/>
<path fill="none" opacity="1.000000" stroke="#000000" stroke-linecap="round" stroke-linejoin="round" stroke-width="7.000000"
	d="
M693.500000,266.500000 
	C692.666626,265.000000 691.551025,263.586700 691.058289,261.982086 
	C690.004883,258.551819 689.944946,255.331009 692.953491,252.451385 
	C697.570679,248.032013 699.589111,241.920868 699.129639,236.028885 
	C698.852295,232.473038 698.215942,229.087997 698.966675,225.493042 
	C700.737305,217.014755 702.314697,208.496292 704.004211,200.000839 
	C706.822144,185.831100 709.712097,171.675369 712.428162,157.486252 
	C712.693298,156.100800 712.956299,154.492493 712.027771,152.982910 
	C708.156982,146.690140 710.397156,139.894226 712.298462,134.097916 
	C715.543518,124.205521 713.864075,114.349213 714.484802,104.499039 
	C714.839905,98.863708 710.519348,97.067841 706.509888,94.981003 
	C701.944214,92.604675 697.039246,91.486557 691.995850,91.047310 
	C688.096924,90.707748 686.196106,93.565704 684.498779,96.499290 
	C680.882996,102.748390 678.418701,109.490448 677.078003,116.514893 
	C674.958984,127.617401 670.710632,138.092941 668.059326,149.014404 
	C665.932251,157.776443 664.774841,166.786865 662.409119,175.475266 
	C657.308899,194.206512 652.741516,212.991852 652.000000,232.500000 
"/>
<path fill="none" opacity="1.000000" stroke="#000000" stroke-linecap="round" stroke-linejoin="round" stroke-width="9.000000"
	d="
M346.000000,742.500000 
	C349.275543,738.320923 348.995850,733.377014 348.997498,728.500000 
	C349.003754,710.000000 349.408539,691.488342 348.881317,673.003357 
	C348.386719,655.662720 349.099915,638.318298 348.392517,621.004395 
	C347.800018,606.503662 348.060516,591.966614 346.625702,577.487549 
	C346.346893,574.674011 345.208466,573.557129 343.017975,572.463928 
	C337.460144,569.690308 331.419983,568.554504 325.498596,567.005371 
	C319.671661,565.480957 313.859406,563.883240 307.983887,562.572205 
	C306.255219,562.186462 304.333344,562.666687 302.500000,562.750000 
"/>
<path fill="none" opacity="1.000000" stroke="#000000" stroke-linecap="round" stroke-linejoin="round" stroke-width="9.000000"
	d="
M1014.500000,804.000000 
	C1010.349731,797.732971 1003.411743,796.639160 997.007568,794.477478 
	C986.171326,790.819824 975.741150,786.106018 964.549744,783.301453 
	C957.285522,781.481018 950.494873,783.638855 943.501526,783.693909 
	C937.197998,783.743469 930.829895,784.551697 924.511047,785.122253 
	C904.704224,786.910706 884.802063,786.239075 864.991882,787.903625 
	C856.206604,788.641785 847.333557,788.346252 838.499939,788.495361 
	C832.684692,788.593567 829.536682,790.540466 828.069092,796.018494 
	C826.010620,803.701660 822.776550,811.160950 823.865662,819.517517 
	C824.220398,822.239441 823.594177,825.454163 822.388550,827.946106 
	C818.769714,835.426025 819.078308,843.142578 820.000000,851.000000 
"/>
<path fill="none" opacity="1.000000" stroke="#000000" stroke-linecap="round" stroke-linejoin="round" stroke-width="6.000000"
	d="
M367.500000,575.500000 
	C367.500000,606.333313 367.173950,637.171509 367.631470,667.998047 
	C367.876434,684.500732 367.494843,701.011658 368.116547,717.495605 
	C368.468903,726.838440 368.256165,736.168396 368.515137,745.499573 
	C368.625824,749.486328 367.927185,753.298950 366.500000,757.000000 
"/>
<path fill="none" opacity="1.000000" stroke="#000000" stroke-linecap="round" stroke-linejoin="round" stroke-width="8.000000"
	d="
M78.500000,946.500000 
	C84.833336,946.833313 91.163956,947.245483 97.501266,947.463013 
	C100.220009,947.556335 102.516335,946.263977 103.970451,943.981201 
	C106.902847,939.377625 109.865219,934.773438 112.446663,929.971313 
	C115.283386,924.694458 118.321701,922.791992 124.000435,923.496460 
	C132.721207,924.578369 140.296265,927.516479 144.502182,935.998901 
	C145.847305,938.711731 147.735413,941.176941 150.068619,942.907471 
	C153.954758,945.790100 154.455429,949.874817 154.964157,954.004395 
	C155.761124,960.473755 158.378342,962.491455 164.480194,960.441040 
	C169.576736,958.728333 174.493134,956.482605 179.501770,954.504456 
	C185.507629,952.132446 188.332184,952.848877 190.916138,958.538086 
	C194.524185,966.482239 200.425781,972.611328 206.042694,978.962219 
	C212.307053,986.045044 219.908508,987.345581 229.039139,984.631714 
	C243.261353,980.404480 257.331970,975.956177 270.521271,969.040588 
	C271.526062,968.513794 272.648560,968.455200 274.028534,968.914185 
	C287.981720,973.554932 301.879517,978.433350 316.036255,982.369568 
	C328.463989,985.825134 341.006989,988.981384 353.992096,990.092346 
	C365.154572,991.047424 376.242035,992.864319 387.500153,992.504944 
	C398.666077,992.148499 409.837494,991.931946 420.998444,991.462952 
	C427.647827,991.183594 430.796143,986.607178 433.027130,981.010803 
	C434.379425,977.618591 435.999969,974.333313 437.499969,971.000000 
"/>
<path fill="none" opacity="1.000000" stroke="#000000" stroke-linecap="round" stroke-linejoin="round" stroke-width="8.000000"
	d="
M971.000000,877.000000 
	C975.723450,875.489197 980.249756,876.913269 984.465576,878.586731 
	C995.953796,883.146973 1008.408203,884.823242 1019.500000,890.500000 
	C1027.788818,888.966858 1033.480347,895.226746 1040.476929,897.568848 
	C1049.073608,900.446716 1057.530640,903.754089 1065.990723,907.024109 
	C1073.263306,909.835266 1074.529175,911.873657 1074.490845,919.999939 
	C1074.458984,926.752075 1073.166504,933.222900 1069.481934,938.988464 
	C1063.473389,948.390564 1059.538574,949.873108 1048.492920,947.533386 
	C1044.370117,946.660034 1040.179688,946.064575 1035.996460,945.527710 
	C1031.506592,944.951538 1027.506592,943.746887 1023.924866,940.585083 
	C1018.883423,936.134644 1015.411438,936.635986 1010.999939,941.499939 
	C1008.752991,943.977356 1006.474243,948.534973 1005.125366,953.077881 
	C998.387024,957.739624 992.009094,954.234802 985.490906,953.050232 
	C973.103455,950.799011 961.029175,947.133423 948.513184,945.404419 
	C937.831604,943.928711 927.449951,945.506042 917.562256,948.693176 
	C901.790466,953.776794 886.636841,951.524231 871.519043,946.937195 
	C853.716980,941.535706 836.422913,934.591736 818.528870,929.400513 
	C806.543823,925.923584 794.769531,921.675964 783.028564,917.421082 
	C777.657043,915.474426 772.360596,916.397095 767.000000,916.500000 
"/>
<path fill="none" opacity="1.000000" stroke="#000000" stroke-linecap="round" stroke-linejoin="round" stroke-width="8.000000"
	d="
M629.500000,249.000000 
	C634.319702,255.770004 633.727295,263.871674 634.976196,271.503876 
	C637.175293,284.942932 640.507568,297.905457 648.962036,309.028839 
	C651.321045,312.132660 653.588440,312.725128 657.549622,311.689819 
	C664.312622,309.922241 671.042297,308.001068 677.422485,305.315887 
	C681.180115,303.734436 684.322571,303.880737 687.469360,305.557495 
	C695.392822,309.779449 703.609253,313.019562 712.496948,314.518127 
	C718.960022,315.607849 725.553284,314.480621 732.021851,315.900482 
	C734.166077,316.371124 735.152771,313.789734 736.460999,312.461609 
	C746.095703,302.680206 756.657654,294.164948 769.048035,287.677734 
	C773.283203,290.661652 774.112366,295.037354 774.458191,299.503235 
	C774.834167,304.358490 774.307129,309.198730 773.502625,314.000427 
	C773.093201,316.444061 772.041199,318.599457 770.489929,320.491760 
	C767.794800,323.779358 764.262634,326.233124 761.841980,329.895569 
	C760.588745,331.791718 757.435364,331.770996 754.997803,331.973907 
	C751.127808,332.296082 747.363647,332.876770 743.997925,334.996735 
	C741.821350,336.367676 739.371887,336.218597 737.006958,335.940674 
	C735.635315,335.779510 734.205750,334.806610 733.022034,336.021454 
	C727.760742,341.420715 720.555420,341.183838 713.982483,342.405609 
	C701.421326,344.740479 688.749329,346.476135 675.999146,347.488861 
	C664.836670,348.375488 653.657837,349.063965 642.502075,350.024292 
	C626.184387,351.428986 609.747070,350.968048 593.483704,353.390625 
	C589.761902,353.945038 585.799011,353.955902 582.000000,353.000000 
"/>
<path fill="none" opacity="1.000000" stroke="#000000" stroke-linecap="round" stroke-linejoin="round" stroke-width="8.000000"
	d="
M1046.500000,808.000000 
	C1036.500000,806.833313 1026.500977,805.658569 1016.499023,804.508423 
	C1014.940613,804.329285 1013.793579,804.935791 1012.426208,805.894775 
	C1009.186157,808.167053 1005.454895,808.347595 1001.482788,807.590393 
	C997.561707,806.842957 993.504822,806.747986 989.498718,806.522339 
	C984.837463,806.259949 980.167480,806.098816 975.499512,806.043396 
	C974.182251,806.027771 972.852722,805.670349 971.476440,806.458923 
	C966.523193,809.296997 962.123352,807.567871 957.436401,805.121887 
	C952.830444,802.718445 947.745483,801.031921 942.884216,799.330933 
	C938.080811,797.649963 932.329102,798.440247 927.000732,798.539734 
	C905.332275,798.944275 883.653198,799.189209 862.005493,800.126892 
	C850.641052,800.619080 839.333313,801.462463 828.000000,800.000000 
"/>
<path fill="none" opacity="1.000000" stroke="#000000" stroke-linecap="round" stroke-linejoin="round" stroke-width="8.000000"
	d="
M279.000000,579.500000 
	C284.744293,584.576660 284.954803,591.695862 285.987457,598.501892 
	C286.238403,600.155823 286.241028,601.848877 286.518768,603.496826 
	C287.136536,607.162292 289.109222,609.459167 292.996643,610.023071 
	C302.175568,611.354553 308.919403,617.284607 315.944061,622.574280 
	C317.144501,623.478210 316.739471,625.314758 316.624237,627.008423 
	C315.736969,640.048584 310.313934,651.812134 306.409943,663.971069 
	C302.834320,675.107361 298.501465,686.000488 294.499146,696.999695 
	C293.256561,700.414612 292.698792,703.891968 293.623871,707.523743 
	C299.369049,709.102356 304.634705,706.767700 310.002533,705.007690 
	C322.851379,700.794983 325.633148,702.127563 331.900970,716.044617 
	C334.026031,720.763123 335.017303,725.994873 336.494965,731.001465 
	C337.859589,735.625366 339.695923,740.017090 344.535065,741.910339 
	C346.451172,742.659973 347.092438,744.252686 347.916718,745.552795 
	C351.755585,751.607727 357.698700,754.727173 364.066284,756.795959 
	C366.407440,757.556641 368.518402,758.421692 369.936920,760.054810 
	C383.116974,775.228943 399.680023,785.823853 416.961029,795.569092 
	C422.857239,798.894104 428.396149,802.933350 432.968781,808.028015 
	C435.985077,811.388672 438.359314,815.289307 436.432404,819.972168 
	C434.434509,824.827637 427.778290,828.082947 422.496399,827.534790 
	C419.347839,827.208008 416.165283,827.695374 412.986359,827.069275 
	C411.102051,826.698242 409.555328,827.567078 408.458405,829.476074 
	C403.310120,838.436157 395.447906,838.830811 386.474670,836.601990 
	C382.300140,835.565125 377.919037,834.713013 373.488708,835.959900 
	C371.343475,836.563538 369.719025,835.003662 367.995667,834.007507 
	C363.560608,831.444031 358.870026,830.471985 354.029480,832.568054 
	C352.344543,833.297729 350.793884,833.151611 349.536560,832.435791 
	C344.742279,829.705933 339.702454,829.648315 334.500000,830.500000 
"/>
<path fill="none" opacity="1.000000" stroke="#000000" stroke-linecap="round" stroke-linejoin="round" stroke-width="8.000000"
	d="
M955.000000,866.500000 
	C947.658813,872.216614 939.196106,876.383850 932.455872,882.954712 
	C930.901123,884.470398 928.853760,884.784302 926.480469,884.064453 
	C918.163391,881.541931 909.548523,882.077209 901.000549,881.959839 
	C899.783447,881.943176 898.790405,882.370667 898.027771,883.031982 
	C890.032410,889.964233 882.535400,897.408936 877.066833,906.540039 
	C873.912109,911.807556 869.833618,913.522278 863.994568,912.021057 
	C841.950195,906.353394 819.487122,902.290710 797.977234,894.563293 
	C794.314453,893.247559 791.514526,890.195984 787.500000,889.750000 
"/>
<path fill="none" opacity="1.000000" stroke="#000000" stroke-linecap="round" stroke-linejoin="round" stroke-width="9.000000"
	d="
M116.000023,870.500000 
	C112.000023,875.500000 108.108177,880.591492 103.974251,885.478210 
	C98.008553,892.530212 95.128036,901.230591 92.265419,909.590881 
	C88.623672,920.226624 81.087738,922.646301 71.500488,923.012878 
	C64.497986,923.280579 57.501671,923.711060 50.499031,923.974121 
	C48.256496,924.058350 46.425987,924.795471 45.004082,926.503418 
	C42.655663,929.324219 40.001743,931.960754 38.082569,935.051270 
	C35.591301,939.063049 32.176697,941.658875 28.000000,943.500000 
"/>
<path fill="none" opacity="1.000000" stroke="#000000" stroke-linecap="round" stroke-linejoin="round" stroke-width="8.000000"
	d="
M556.500000,172.000000 
	C562.481873,166.950836 569.773926,166.656143 576.017761,170.974304 
	C581.130981,174.510574 585.112610,179.211792 589.499268,183.500732 
	C591.168884,185.133087 592.743591,187.209229 595.486084,185.969238 
	C598.199951,184.742218 599.281372,182.419952 598.990723,179.500931 
	C598.501648,174.588684 601.298584,170.290771 601.573792,165.504242 
	C601.633057,164.473145 602.902161,163.970047 603.968079,163.436218 
	C607.974548,161.429672 612.208130,161.395599 616.500061,161.496643 
	C619.516357,161.567657 620.671448,163.771652 622.033630,165.979233 
	C626.595520,173.372620 628.192871,181.733276 629.960510,190.008438 
	C632.493713,201.868057 631.461060,214.014145 632.486816,226.001129 
	C632.585938,227.159317 632.033630,228.646362 632.573486,229.450684 
	C637.070557,236.150894 632.654968,241.425491 630.007568,247.003601 
	C629.783264,247.476227 629.764954,248.371735 629.485657,248.445587 
	C622.737549,250.229614 618.942627,257.085022 611.539001,258.248138 
	C606.830383,258.987854 604.016724,264.103302 602.199280,268.090851 
	C596.586426,280.405823 586.807800,289.357239 578.477295,299.481293 
	C575.491089,303.110443 574.335449,307.788940 570.747253,311.255920 
	C569.059814,312.886414 571.019287,317.085907 572.006714,319.997711 
	C574.376526,326.985687 577.691711,333.613617 579.137695,340.972961 
	C579.861450,344.656616 579.512756,348.399780 580.500000,352.000000 
"/>
<path fill="none" opacity="1.000000" stroke="#000000" stroke-linecap="round" stroke-linejoin="round" stroke-width="8.000000"
	d="
M333.250000,878.500000 
	C320.166656,870.166687 307.127533,861.762695 293.978729,853.533997 
	C288.544128,850.132935 282.934418,847.036438 277.038849,844.412720 
	C272.666077,842.466675 268.386932,842.744873 264.004242,843.523804 
	C253.744232,845.347168 244.627823,850.412842 235.042023,854.109009 
	C228.653854,856.572266 222.732681,856.546936 216.486313,854.034058 
	C203.364746,848.755310 190.107849,843.810181 177.021606,838.447266 
	C168.886154,835.113281 160.477448,834.935669 152.007889,835.600586 
	C148.257919,835.894897 145.183365,838.949646 144.231857,842.070679 
	C142.699280,847.097595 139.024338,848.356201 135.000000,849.750000 
"/>
<path fill="none" opacity="1.000000" stroke="#000000" stroke-linecap="round" stroke-linejoin="round" stroke-width="8.000000"
	d="
M474.500000,265.000000 
	C474.527191,256.935089 471.819122,249.335739 470.501923,241.499680 
	C468.306854,228.440872 463.921600,215.868927 462.739471,202.523071 
	C462.129883,195.640778 460.961578,188.404663 456.226379,182.323715 
	C454.821777,180.519913 455.956635,176.591888 453.480164,174.523758 
	C450.564789,172.089096 447.577362,169.724258 444.480530,167.527466 
	C440.561127,164.747162 436.042603,162.647552 432.610779,159.383530 
	C427.860901,154.865906 422.956543,154.708069 417.521271,157.049362 
	C415.113495,158.086533 413.321686,157.663162 410.947296,156.619934 
	C403.843018,153.498520 396.031403,153.031403 388.525421,151.384186 
	C377.635956,148.994461 366.224762,148.569946 356.026337,143.447571 
	C353.819214,142.339020 352.140656,143.328201 351.069183,144.560181 
	C343.089996,153.735107 333.762115,161.605118 326.325500,171.367050 
	C321.159210,178.148773 322.509735,184.976044 323.569794,191.989456 
	C325.842194,207.023849 328.410034,222.016068 331.082489,236.985275 
	C331.566986,239.699249 331.224945,242.340103 331.500000,245.000000 
"/>
<path fill="none" opacity="1.000000" stroke="#000000" stroke-linecap="round" stroke-linejoin="round" stroke-width="7.000000"
	d="
M815.000000,323.500000 
	C816.498596,328.198059 819.974487,331.475067 823.550598,334.438934 
	C831.303833,340.864868 833.205444,349.881744 829.317261,358.416748 
	C827.132690,363.212250 828.273132,367.316223 829.585876,371.472870 
	C834.096802,385.756470 833.152222,400.414307 832.866821,414.997406 
	C832.788330,419.010864 831.489380,423.264679 826.500000,424.500000 
"/>
<path fill="none" opacity="1.000000" stroke="#000000" stroke-linecap="round" stroke-linejoin="round" stroke-width="10.000000"
	d="
M241.000000,690.000000 
	C245.666672,690.333313 250.371353,690.399353 254.991943,691.056702 
	C264.122955,692.355591 269.472961,698.898865 273.911407,706.054932 
	C277.674316,712.121826 280.709900,718.644531 283.970306,725.015198 
	C284.808746,726.653564 285.974365,728.027283 286.936188,729.540588 
	C289.390686,733.402344 291.840698,734.095337 296.084625,731.646667 
	C300.704010,728.981262 306.228790,729.115601 311.494415,729.565247 
	C313.886017,729.769470 314.788177,731.515808 315.654480,733.944885 
	C318.101532,740.806152 318.448608,747.940857 319.530151,754.995361 
	C321.844208,770.089905 323.312042,785.344238 327.948853,800.016174 
	C328.649567,802.233398 328.923279,804.663452 328.952881,807.000610 
	C329.049805,814.645020 330.721832,821.963257 333.614502,828.952637 
	C334.365631,830.767517 333.675720,832.116577 333.406128,833.481445 
	C331.345886,843.911682 332.502258,853.908691 337.019745,863.490723 
	C340.075684,869.972778 339.913757,871.922302 334.987976,877.489380 
	C331.670624,881.238647 334.160736,885.260559 334.702209,888.970459 
	C335.103210,891.718079 338.423096,891.813599 340.997925,892.025269 
	C343.673889,892.245300 346.333344,892.666687 349.000000,893.000061 
"/>
<path fill="none" opacity="1.000000" stroke="#000000" stroke-linecap="round" stroke-linejoin="round" stroke-width="9.000000"
	d="
M934.000000,845.500000 
	C918.833313,846.333374 903.643188,846.873840 888.507141,848.089050 
	C875.513977,849.132263 862.535950,849.985046 849.500061,850.024536 
	C843.790283,850.041809 838.079590,850.320129 833.500000,854.500000 
"/>
<path fill="none" opacity="1.000000" stroke="#000000" stroke-linecap="round" stroke-linejoin="round" stroke-width="9.000000"
	d="
M157.500000,961.500000 
	C151.078491,971.962646 140.512466,975.869446 129.474792,978.389587 
	C115.871010,981.495544 101.912384,982.091431 88.011024,983.145447 
	C76.989273,983.981079 68.302177,980.365845 61.000000,972.500000 
"/>
<path fill="none" opacity="1.000000" stroke="#000000" stroke-linecap="round" stroke-linejoin="round" stroke-width="8.000000"
	d="
M405.000000,482.500000 
	C405.000000,481.166656 404.839874,479.809967 405.030396,478.504425 
	C405.572083,474.793030 406.045624,471.434540 402.583099,468.405029 
	C398.690948,464.999634 394.249115,463.521332 389.514862,464.118011 
	C379.488708,465.381744 369.176544,465.035248 359.529205,468.579468 
	C356.583954,469.661499 354.339203,468.192963 352.029968,467.411469 
	C335.938721,461.965698 320.089020,455.887726 305.003815,447.992706 
	C297.361115,443.992767 292.839142,437.287628 290.117371,429.459198 
	C288.720612,425.441803 285.768646,424.504059 282.488190,424.094666 
	C279.164673,423.679871 277.787048,426.661377 276.546936,429.024628 
	C271.096802,439.410767 271.205139,450.761688 271.652069,461.993958 
	C271.829956,466.465149 274.983765,470.298553 278.096344,473.403412 
	C281.289246,476.588348 281.553619,479.863983 281.125916,484.012970 
	C280.598938,489.125305 280.807495,494.341949 281.037842,499.498322 
	C281.618469,512.495911 282.961304,525.463867 282.484802,538.499451 
	C282.429810,540.003540 282.614929,541.755432 281.928894,542.959473 
	C276.576294,552.354187 279.030182,562.592346 278.514984,572.500793 
	C278.411285,574.495361 278.500000,576.500000 278.500000,578.500000 
"/>
<path fill="none" opacity="1.000000" stroke="#000000" stroke-linecap="round" stroke-linejoin="round" stroke-width="9.000000"
	d="
M425.000000,154.500000 
	C425.024231,150.434479 424.577118,146.466583 423.561462,142.484314 
	C421.393951,133.985611 417.728851,130.321396 408.995789,129.547470 
	C396.054443,128.400650 383.240845,126.582275 370.483612,124.083702 
	C359.645447,121.960976 355.748260,125.504288 354.993530,136.999573 
	C354.872986,138.835922 354.666687,140.666672 354.500031,142.500000 
"/>
<path fill="none" opacity="1.000000" stroke="#000000" stroke-linecap="round" stroke-linejoin="round" stroke-width="8.000000"
	d="
M682.500000,450.500000 
	C683.780884,455.485779 687.392090,456.757263 692.000366,456.507233 
	C695.665222,456.308350 699.349243,456.841980 703.004272,456.019043 
	C708.642334,454.749573 711.893982,458.517273 713.855286,462.570038 
	C717.722046,470.560181 727.465698,471.588745 735.487732,466.480774 
	C739.481934,463.937531 740.045593,460.610748 737.505615,456.496552 
	C730.741089,445.539581 726.249634,433.458923 720.490784,422.004639 
	C718.548828,418.142151 716.719055,414.197662 714.448425,410.531952 
	C711.080566,405.094879 701.092041,404.284302 697.044495,409.037872 
	C695.754578,410.552734 695.636169,412.546814 696.490784,414.504028 
	C699.251099,420.825287 703.027527,426.576416 706.480774,432.511200 
	C707.603088,434.440033 708.500000,436.500000 709.500000,438.500000 
"/>
<path fill="none" opacity="1.000000" stroke="#000000" stroke-linecap="round" stroke-linejoin="round" stroke-width="9.000000"
	d="
M769.000000,349.500000 
	C775.487244,353.920135 782.233276,357.085052 790.509277,356.697723 
	C793.826660,356.542511 796.576538,358.890289 797.625610,362.967682 
	C799.074524,368.598999 800.029724,374.209106 799.985901,379.999908 
	C799.976562,381.232330 800.040771,382.319000 799.078247,383.560638 
	C795.358948,388.358582 794.892578,394.188110 794.486938,399.999084 
	C794.044495,406.336456 793.593628,412.676056 792.959290,418.995911 
	C792.656250,422.015442 791.927551,424.994049 790.000000,427.500000 
"/>
<path fill="none" opacity="1.000000" stroke="#000000" stroke-linecap="round" stroke-linejoin="round" stroke-width="10.000000"
	d="
M28.000000,945.000000 
	C27.906641,944.213318 28.270433,942.963806 27.002401,943.039978 
	C21.961037,943.343018 16.960835,942.462646 11.887959,944.751709 
	C8.849990,946.122620 7.053931,948.415894 6.740871,950.535583 
	C5.994060,955.591980 5.734304,960.987488 6.734205,965.952820 
	C7.585081,970.178101 11.442242,973.220947 16.003834,973.404968 
	C27.496790,973.868774 38.914848,975.827576 50.511665,974.611206 
	C56.751606,973.956726 60.682163,972.334900 63.345787,965.637512 
	C66.229881,958.385803 70.093170,950.822205 77.970154,946.939453 
	C78.368637,946.743103 78.333321,945.666687 78.499992,945.000000 
"/>
<path fill="none" opacity="1.000000" stroke="#000000" stroke-linecap="round" stroke-linejoin="round" stroke-width="8.000000"
	d="
M748.750000,136.500000 
	C750.196228,141.781464 749.159851,146.125092 746.263428,151.151779 
	C741.001648,160.283447 737.641174,170.486267 732.932007,179.966232 
	C724.675537,196.587204 716.931335,213.476089 707.545044,229.526337 
	C705.688477,232.701050 703.785950,235.544479 700.000000,236.500000 
"/>
<path fill="none" opacity="1.000000" stroke="#000000" stroke-linecap="round" stroke-linejoin="round" stroke-width="9.000000"
	d="
M769.000000,401.500000 
	C763.013977,391.005432 741.486633,394.570007 736.497803,405.498993 
	C735.623962,407.413391 735.455688,409.416229 735.480225,411.500244 
	C735.601379,421.780121 743.569580,433.484314 753.029114,436.405670 
	C757.020996,437.638489 761.332764,437.836823 765.501038,438.493256 
	C765.826294,438.544464 766.181702,438.435730 766.497803,438.509491 
	C773.345276,440.107208 774.711243,444.383728 769.992920,449.493439 
	C768.874451,450.704620 767.666687,451.833344 766.500000,453.000000 
"/>
<path fill="none" opacity="1.000000" stroke="#000000" stroke-linecap="round" stroke-linejoin="round" stroke-width="7.000000"
	d="
M966.000000,809.000000 
	C966.549805,812.070129 968.046631,814.368591 970.431030,816.574524 
	C985.404175,830.427246 1001.778259,842.566162 1017.475403,855.529785 
	C1021.472778,858.831116 1024.965088,862.759033 1029.048950,865.937073 
	C1034.663940,870.306396 1034.134644,875.761108 1032.453247,881.486267 
	C1031.549561,884.563477 1030.166748,887.500000 1029.000000,890.500000 
"/>
<path fill="none" opacity="1.000000" stroke="#000000" stroke-linecap="round" stroke-linejoin="round" stroke-width="9.000000"
	d="
M278.000000,579.500000 
	C272.248657,584.249573 272.819824,591.230286 272.141052,597.515259 
	C271.320557,605.112854 270.226471,612.496216 265.972260,618.981812 
	C260.595428,627.178772 259.901550,635.619995 263.987061,644.505981 
	C264.580353,645.796387 265.043640,647.152161 265.493042,648.502319 
	C268.930481,658.829468 265.479675,663.842468 254.500000,664.499939 
	C246.940857,664.952698 241.340485,668.265137 240.138031,674.028809 
	C239.264725,678.214661 239.147949,682.737488 239.725662,686.969177 
	C240.001602,688.990356 240.292847,690.347412 239.031311,692.023560 
	C236.376083,695.551453 235.281784,699.730652 234.500000,704.000000 
"/>
<path fill="none" opacity="1.000000" stroke="#000000" stroke-linecap="round" stroke-linejoin="round" stroke-width="9.000000"
	d="
M327.500000,302.500000 
	C324.211151,299.248291 323.216980,294.632324 320.599182,290.929871 
	C318.292633,287.667725 315.513611,286.957642 312.001587,287.510162 
	C307.282562,288.252533 302.859344,288.032959 299.503632,283.996979 
	C298.454285,282.734924 296.932312,282.230377 295.493073,282.057922 
	C290.913177,281.509186 289.539490,277.939575 289.115936,274.485779 
	C287.718170,263.087891 292.251190,252.618149 304.954376,249.324051 
	C313.249512,247.173019 321.673767,246.853134 330.018250,245.623993 
	C334.571472,244.953308 336.131622,249.148575 337.418488,252.531006 
	C338.631683,255.719833 339.029694,259.208435 340.030426,262.490723 
	C341.763794,268.176117 343.346283,269.321320 349.000000,269.500000 
	C355.655975,269.710358 359.915497,273.243195 359.846832,279.998444 
	C359.772980,287.262848 363.260406,290.782135 369.424591,293.661407 
	C375.428680,296.465973 381.463776,298.213348 387.976624,299.160736 
	C391.278870,299.641113 393.622467,297.749573 396.500000,297.500000 
"/>
<path fill="none" opacity="1.000000" stroke="#000000" stroke-linecap="round" stroke-linejoin="round" stroke-width="8.000000"
	d="
M282.500000,479.000000 
	C292.010345,479.722687 300.377197,483.839722 309.057343,487.358551 
	C324.656311,493.682159 339.737000,501.355896 356.006165,505.978333 
	C359.463806,506.960724 363.000000,507.666687 366.500000,508.500031 
"/>
<path fill="none" opacity="1.000000" stroke="#000000" stroke-linecap="round" stroke-linejoin="round" stroke-width="7.000000"
	d="
M393.500000,195.500000 
	C395.802002,212.794342 400.884613,229.489029 404.562012,246.486588 
	C406.545837,255.656143 407.323181,265.090454 410.502991,273.998932 
	C410.981598,275.339905 411.500000,276.666656 412.000000,278.000000 
"/>
<path fill="none" opacity="1.000000" stroke="#000000" stroke-linecap="round" stroke-linejoin="round" stroke-width="6.000000"
	d="
M750.500000,146.000000 
	C757.443420,148.615616 761.004517,153.718262 762.124329,160.980835 
	C762.397339,162.751205 761.922119,164.205658 761.408386,165.462540 
	C755.874023,179.002914 749.780212,192.280685 742.554199,205.030716 
	C740.209106,209.168472 738.604431,213.719208 736.459900,217.979813 
	C735.221313,220.440811 735.546204,222.961716 735.500000,225.500000 
"/>
<path fill="none" opacity="1.000000" stroke="#000000" stroke-linecap="round" stroke-linejoin="round" stroke-width="8.000000"
	d="
M252.500000,729.500000 
	C248.510422,729.435730 248.263046,725.817566 247.639954,723.462952 
	C245.561890,715.610168 240.869888,709.712769 234.916779,704.430298 
	C226.058258,706.353577 220.315048,711.849182 218.088440,720.522705 
	C216.025818,728.557495 211.976913,735.631104 208.499588,742.999817 
	C203.027191,754.596130 202.167343,766.970215 202.641678,779.494629 
	C202.694244,780.882202 202.772476,781.895386 202.008743,783.006042 
	C200.000504,785.926392 198.706772,789.194458 197.500000,792.500000 
"/>
<path fill="none" opacity="1.000000" stroke="#000000" stroke-linecap="round" stroke-linejoin="round" stroke-width="9.000000"
	d="
M366.500000,510.000000 
	C366.430115,507.169373 368.574738,508.014099 369.999420,508.036682 
	C374.216370,508.103394 378.677094,506.750916 380.265991,503.389404 
	C383.943695,495.608856 390.706451,496.557434 397.005249,496.067596 
	C403.147736,495.589905 409.336639,495.743011 415.498962,495.476196 
	C420.549988,495.257507 424.294342,493.809906 426.223450,488.075165 
	C427.948639,482.946594 430.478699,478.245361 427.458801,473.023834 
	C424.242249,467.462097 413.410065,466.501190 407.000000,471.000000 
"/>
<path fill="none" opacity="1.000000" stroke="#000000" stroke-linecap="round" stroke-linejoin="round" stroke-width="6.000000"
	d="
M291.000000,734.000000 
	C289.491028,748.166687 290.398529,762.372070 291.204529,776.488342 
	C291.909790,788.839600 292.778564,801.262390 294.972351,813.504944 
	C295.025085,813.799011 294.666687,814.166687 294.500031,814.500000 
"/>
<path fill="none" opacity="1.000000" stroke="#000000" stroke-linecap="round" stroke-linejoin="round" stroke-width="8.000000"
	d="
M625.500000,456.500000 
	C626.334473,451.773865 630.392395,448.786865 631.693848,444.053314 
	C634.440857,434.062225 631.351074,426.843994 621.494568,423.516144 
	C611.616943,420.181091 601.546936,420.203796 591.529846,422.623627 
	C589.498657,423.114349 587.192566,424.019775 585.932617,426.465271 
	C583.639160,430.916534 585.683655,434.914856 591.511108,435.936615 
	C596.181396,436.755463 600.911682,437.128387 605.526367,438.404724 
	C607.214417,438.871613 608.643433,439.562286 609.987915,440.516998 
	C613.377319,442.923767 613.392944,445.229126 610.527161,448.027832 
	C605.882629,452.563721 600.002991,454.458069 593.985718,455.941986 
	C589.426636,457.066254 585.836426,458.949768 585.016968,464.002747 
	C584.388550,467.877655 587.060974,471.261444 590.968994,470.364960 
	C603.648132,467.456421 612.957031,474.229828 622.479980,480.530243 
	C627.262695,483.694519 629.860352,483.837494 633.500000,480.499969 
	C637.767273,476.586945 637.737854,472.992950 632.960144,467.534882 
	C630.140381,464.313599 627.160400,461.281921 626.000000,457.000000 
"/>
<path fill="none" opacity="1.000000" stroke="#000000" stroke-linecap="round" stroke-linejoin="round" stroke-width="8.000000"
	d="
M371.500000,836.500000 
	C370.443542,842.000000 371.428070,847.498779 371.465179,853.000244 
	C371.566437,867.999573 371.392029,883.001282 371.569305,897.999207 
	C371.619019,902.202881 370.768219,905.842896 368.000000,909.000000 
"/>
<path fill="none" opacity="1.000000" stroke="#000000" stroke-linecap="round" stroke-linejoin="round" stroke-width="8.000000"
	d="
M680.000000,413.500000 
	C674.151855,410.771515 670.166809,411.806702 666.458374,416.466888 
	C662.796448,421.068695 662.150879,426.535889 660.908386,431.979095 
	C658.381409,443.049011 655.303467,453.992493 652.532959,465.008270 
	C652.128723,466.615204 651.915527,468.353729 652.048889,469.996033 
	C652.396179,474.271301 656.028687,476.202881 659.986511,474.223022 
	C662.992981,472.719025 664.720154,470.282715 666.146790,467.065063 
	C669.088257,460.430969 671.601929,453.383209 677.500000,448.500000 
"/>
<path fill="none" opacity="1.000000" stroke="#000000" stroke-linecap="round" stroke-linejoin="round" stroke-width="9.000000"
	d="
M554.500000,429.000000 
	C555.419189,445.184540 557.834900,461.260651 558.020264,477.499756 
	C558.029785,478.334900 558.148865,479.265808 558.533813,479.981812 
	C559.801331,482.339447 559.541809,486.060913 564.006775,485.560547 
	C568.154968,485.095734 569.564087,482.776733 569.501038,478.999969 
	C569.331421,468.833374 569.338196,458.659790 568.931396,448.502747 
	C568.710449,442.987335 569.318359,437.498199 569.327515,432.000549 
	C569.335388,427.284821 566.903931,426.787720 563.976440,426.100372 
	C562.626465,425.783417 561.027283,425.639587 559.472961,426.448059 
	C556.011169,428.248627 552.277039,428.380920 548.500000,427.500000 
"/>
<path fill="none" opacity="1.000000" stroke="#000000" stroke-linecap="round" stroke-linejoin="round" stroke-width="8.000000"
	d="
M218.500000,880.000000 
	C219.333023,880.168213 220.224762,879.661682 221.015244,880.485352 
	C226.327621,886.020569 232.238815,890.989136 236.563553,897.457520 
	C237.445404,898.776489 238.247147,900.327698 237.887741,901.464478 
	C236.450958,906.008911 239.459579,908.799927 241.508942,911.994263 
	C243.131149,914.522766 245.059372,916.881714 246.444992,919.528809 
	C248.341492,923.151794 251.227234,925.269531 254.995972,926.512207 
	C264.892914,929.775696 269.975403,936.882446 269.988861,947.500000 
	C269.997711,954.485657 270.186096,961.443909 272.000000,968.250000 
"/>
<path fill="none" opacity="1.000000" stroke="#000000" stroke-linecap="round" stroke-linejoin="round" stroke-width="8.000000"
	d="
M419.000000,274.500000 
	C421.182526,270.104156 424.632568,267.522827 429.491241,266.459991 
	C443.587463,263.376404 457.555084,260.219940 472.060120,264.809998 
	C475.536346,265.910034 477.499603,266.690002 477.008667,270.501129 
	C476.945312,270.992950 476.799408,271.632812 477.029541,271.980438 
	C481.858795,279.274628 481.824707,287.846344 483.586304,295.981323 
	C486.434357,309.133575 488.541931,322.479248 493.000000,335.250000 
"/>
<path fill="none" opacity="1.000000" stroke="#000000" stroke-linecap="round" stroke-linejoin="round" stroke-width="8.000000"
	d="
M790.000000,890.000000 
	C789.831177,883.685608 792.689819,878.321838 795.538086,873.020447 
	C798.364136,867.760315 801.722717,862.777344 804.376953,857.438782 
	C805.283203,855.615967 806.413086,854.973572 808.005737,854.520203 
	C808.974670,854.244324 810.190491,854.460205 810.970398,853.954346 
	C818.303223,849.197449 825.341187,854.006897 832.498718,854.518250 
	C832.842163,854.542786 833.257568,854.752808 833.486877,855.011597 
	C840.947205,863.430054 851.786743,863.663391 861.518250,866.435913 
	C871.769287,869.356262 882.440063,870.854736 892.014160,875.973450 
	C894.827942,877.477844 897.252380,879.316711 899.000000,882.000000 
"/>
<path fill="none" opacity="1.000000" stroke="#000000" stroke-linecap="round" stroke-linejoin="round" stroke-width="9.000000"
	d="
M777.000000,400.250000 
	C769.550110,401.100311 763.313538,405.605713 756.028748,407.136841 
	C752.011414,407.981201 749.092651,413.282776 749.503418,416.999634 
	C749.997253,421.468597 753.458557,423.059723 757.018433,423.923950 
	C765.037415,425.870605 773.315613,426.305939 781.501038,426.368927 
	C791.132690,426.443085 791.520935,428.254211 792.229980,437.021820 
	C792.620605,441.852631 792.642883,447.240417 790.083984,452.044739 
	C789.089355,453.912231 788.378845,455.280914 786.009827,455.578369 
	C783.466248,455.897736 780.997925,456.825684 778.500488,457.501831 
	C774.872620,458.484100 771.378113,458.314911 767.994629,456.510010 
	C762.587097,453.625305 757.372498,453.188904 751.942078,456.915588 
	C748.482483,459.289795 744.042480,459.169861 740.000000,460.000000 
"/>
<path fill="none" opacity="1.000000" stroke="#000000" stroke-linecap="round" stroke-linejoin="round" stroke-width="8.000000"
	d="
M770.000000,288.000000 
	C770.786011,282.907990 767.948608,280.007019 764.024231,277.462616 
	C753.942566,270.926025 742.512024,267.144928 731.969971,261.556702 
	C730.860107,260.968414 729.333313,261.166809 728.000000,261.000000 
	C721.633728,260.203522 718.472900,256.651611 720.703247,250.574600 
	C723.844421,242.016235 727.761169,233.604034 734.494080,226.994003 
	C737.222290,224.315582 739.703247,227.125946 741.926331,227.758789 
	C743.915344,228.325012 745.464355,230.755875 746.096558,233.477570 
	C747.658325,240.201202 747.344910,241.126831 756.503296,241.964111 
	C762.318665,242.495758 768.178223,241.426453 774.021240,242.916702 
	C780.012573,244.444794 781.612488,246.381714 780.499939,252.499985 
	C778.981079,260.853271 779.354919,261.099670 787.979492,263.571625 
	C794.160339,265.343170 800.495911,266.693573 806.080627,270.377747 
	C808.790894,272.165619 810.661682,274.222534 812.000000,277.000000 
"/>
<path fill="none" opacity="1.000000" stroke="#000000" stroke-linecap="round" stroke-linejoin="round" stroke-width="9.000000"
	d="
M536.500000,439.000000 
	C536.309875,432.766144 535.560852,432.167023 529.500977,431.970123 
	C516.346069,431.542664 503.471527,434.006653 490.493866,435.444519 
	C489.059692,435.603394 487.812042,435.994141 486.486847,436.462830 
	C481.258118,438.312103 479.620636,438.878510 481.034180,445.920288 
	C488.981842,448.920898 497.454285,448.045105 505.461945,447.156982 
	C512.096497,446.421143 518.905945,445.722870 525.534912,444.146729 
	C529.559998,443.189697 533.207092,441.913635 536.500000,439.500000 
"/>
<path fill="none" opacity="1.000000" stroke="#000000" stroke-linecap="round" stroke-linejoin="round" stroke-width="9.000000"
	d="
M278.000000,830.500000 
	C274.053802,822.971313 271.039948,814.910095 265.945374,808.040527 
	C262.009949,802.734009 257.429260,800.384644 249.916443,802.142944 
	C242.294891,803.926697 233.964859,803.352539 226.012573,802.814209 
	C220.865448,802.465820 215.621643,802.444702 210.466965,801.129456 
	C205.767792,799.930420 201.811417,797.875305 198.558243,794.444763 
	C197.899155,793.749695 197.557709,792.472961 196.503006,792.544373 
	C187.206543,793.174561 179.089371,788.679932 170.560684,786.283997 
	C163.170624,784.207886 156.153687,785.786133 149.006805,786.138245 
	C145.854645,786.293579 143.884613,789.214294 142.533752,792.016296 
	C141.529007,794.100342 140.833328,796.333313 140.000000,798.500000 
"/>
<path fill="none" opacity="1.000000" stroke="#000000" stroke-linecap="round" stroke-linejoin="round" stroke-width="8.000000"
	d="
M186.500000,823.500000 
	C175.679657,819.006104 166.315277,811.843018 155.905960,806.689941 
	C149.596786,803.566650 143.569489,798.952576 136.000381,799.034607 
	C126.635429,799.136047 117.049728,797.675598 108.031303,801.082825 
	C98.289276,804.763489 91.247017,811.775696 86.594429,821.047363 
	C86.000740,822.230469 84.485207,823.892090 86.013924,825.486633 
	C90.461464,830.125671 88.905014,835.129333 87.605507,840.525391 
	C84.501678,853.413391 85.442284,852.924377 98.514076,859.471924 
	C103.777939,862.108459 110.100822,863.165222 114.343346,867.166138 
	C119.539719,872.066589 125.930183,874.900818 131.403488,879.125061 
	C136.032196,882.697388 141.152588,884.694824 146.500000,886.500000 
"/>
<path fill="none" opacity="1.000000" stroke="#000000" stroke-linecap="round" stroke-linejoin="round" stroke-width="9.000000"
	d="
M352.000000,834.000000 
	C351.833313,851.333313 352.038605,868.684448 351.212067,885.986267 
	C351.028595,889.827271 351.370605,893.803040 350.742218,897.455627 
	C350.001434,901.761475 345.963165,904.819824 343.562988,908.540649 
	C337.886414,917.340576 332.721680,926.444153 329.500000,936.500000 
"/>
<path fill="none" opacity="1.000000" stroke="#000000" stroke-linecap="round" stroke-linejoin="round" stroke-width="8.000000"
	d="
M922.000000,917.500000 
	C925.144226,910.755310 931.617310,907.980652 937.498840,904.497986 
	C939.461914,903.335632 941.262634,904.354126 942.987427,905.031982 
	C948.632385,907.250671 954.185608,909.740295 960.503601,909.031982 
	C961.143555,908.960205 962.049011,909.116272 962.467773,909.532349 
	C969.270325,916.292847 978.731628,917.172180 987.076843,920.294556 
	C994.236938,922.973511 1001.279053,925.976074 1008.456909,928.617065 
	C1012.206787,929.996765 1014.704346,933.346924 1016.500000,937.000000 
"/>
<path fill="none" opacity="1.000000" stroke="#000000" stroke-linecap="round" stroke-linejoin="round" stroke-width="9.000000"
	d="
M475.000000,273.000000 
	C464.014984,281.141785 451.943268,287.144043 439.010254,291.530273 
	C432.381500,293.778412 426.548981,292.206146 421.000000,288.500000 
"/>
<path fill="none" opacity="1.000000" stroke="#000000" stroke-linecap="round" stroke-linejoin="round" stroke-width="8.000000"
	d="
M532.000000,348.500000 
	C528.249512,340.326233 521.278931,338.011475 513.000000,337.989471 
	C506.730011,337.972839 500.404572,338.464264 494.465607,335.570587 
	C493.447845,335.074646 492.160248,335.940765 490.960999,336.397583 
	C484.736572,338.768463 478.438812,340.946594 472.504639,344.008972 
	C466.731476,346.988312 460.783325,346.541504 455.022217,344.439117 
	C443.674896,340.298096 432.538025,337.946594 420.915039,343.832245 
	C418.327484,345.142517 414.666656,344.333313 411.500000,344.499969 
"/>
<path fill="none" opacity="1.000000" stroke="#000000" stroke-linecap="round" stroke-linejoin="round" stroke-width="8.000000"
	d="
M258.750000,302.500000 
	C255.616821,309.152618 253.669739,316.068207 254.526840,323.496918 
	C255.047974,328.013702 255.520065,332.574463 256.568268,336.983765 
	C258.475647,345.007019 264.416046,348.775391 272.000000,350.500000 
"/>
<path fill="none" opacity="1.000000" stroke="#000000" stroke-linecap="round" stroke-linejoin="round" stroke-width="8.000000"
	d="
M335.500000,180.500000 
	C342.881775,181.241745 349.862640,183.724518 356.989777,185.540161 
	C369.172089,188.643600 381.158722,192.504166 394.911682,194.633179 
	C402.727417,184.114853 409.006989,171.533691 414.500000,158.500000 
"/>
<path fill="none" opacity="1.000000" stroke="#000000" stroke-linecap="round" stroke-linejoin="round" stroke-width="9.000000"
	d="
M545.500000,170.500000 
	C547.333313,170.666672 549.165527,170.956329 551.000244,170.973801 
	C554.562927,171.007751 556.909058,171.936020 558.180542,175.942703 
	C559.324524,179.547699 562.374451,182.505203 563.899963,186.043152 
	C565.596497,189.977753 565.700867,194.004974 564.791077,198.558167 
	C563.673767,204.149460 563.735596,210.264832 565.118164,215.971375 
	C565.937439,219.352997 569.511414,219.959473 572.506409,220.461685 
	C580.996582,221.885315 582.288513,223.281403 582.495544,232.000107 
	C582.527222,233.332687 582.446655,234.669189 582.509277,235.999557 
	C582.768250,241.500610 582.781189,241.500000 577.500000,241.500000 
"/>
<path fill="none" opacity="1.000000" stroke="#000000" stroke-linecap="round" stroke-linejoin="round" stroke-width="8.000000"
	d="
M818.500000,277.500000 
	C816.060242,278.284973 813.487549,275.478271 810.913818,278.424744 
	C806.365845,283.631317 806.138916,287.605194 811.555359,291.930725 
	C814.986816,294.671051 818.553223,297.222565 821.490967,300.508087 
	C825.623718,305.130219 825.820312,310.184082 821.976379,314.981079 
	C820.283508,317.093597 817.932495,318.766205 816.596680,321.056396 
	C814.728821,324.258820 812.136169,323.257385 810.597534,321.890228 
	C805.628296,317.474854 799.682373,314.007843 796.250000,308.000000 
"/>
<path fill="none" opacity="1.000000" stroke="#000000" stroke-linecap="round" stroke-linejoin="round" stroke-width="10.000000"
	d="
M582.000000,354.500000 
	C582.150330,351.528625 580.070862,352.221619 578.505615,352.528687 
	C568.415649,354.508331 558.443665,353.646454 548.496094,351.518188 
	C546.356079,351.060303 543.905945,351.349670 542.045410,350.410065 
	C534.268250,346.482422 528.233337,349.997345 523.113770,355.113831 
	C519.124329,359.100891 514.607971,358.797028 510.009918,358.388336 
	C506.680969,358.092468 503.407471,357.041687 500.000427,356.977325 
	C498.828369,356.955200 498.396332,356.119415 498.500000,355.000000 
"/>
<path fill="none" opacity="1.000000" stroke="#000000" stroke-linecap="round" stroke-linejoin="round" stroke-width="9.000000"
	d="
M563.500000,200.000000 
	C562.666687,199.666672 561.668396,199.524887 561.025024,198.970947 
	C552.794128,191.885147 545.480347,196.141266 538.559387,201.083145 
	C533.987183,204.347916 530.791870,208.732101 531.442505,215.005966 
	C531.757690,218.044662 529.806763,220.658844 529.000000,223.500000 
"/>
<path fill="none" opacity="1.000000" stroke="#000000" stroke-linecap="round" stroke-linejoin="round" stroke-width="8.000000"
	d="
M481.500000,264.000000 
	C484.500000,260.333313 487.739624,256.834167 490.446289,252.962448 
	C495.011353,246.432465 501.864777,244.281693 509.005096,242.520630 
	C510.189606,242.228485 510.721863,243.173904 511.575836,243.912292 
	C516.443726,248.121292 518.479187,254.023117 520.856445,259.561615 
	C522.854736,264.217316 526.096741,265.353363 530.498840,265.528687 
	C535.836975,265.741241 541.166687,266.166687 546.500000,266.500000 
"/>
<path fill="none" opacity="1.000000" stroke="#000000" stroke-linecap="round" stroke-linejoin="round" stroke-width="9.000000"
	d="
M801.000000,383.000000 
	C804.357544,385.762787 806.297852,389.212280 807.628052,393.459900 
	C810.513184,402.673065 815.275452,411.092010 819.925171,419.541168 
	C821.538391,422.472595 825.219421,422.947266 826.500000,426.000000 
"/>
<path fill="none" opacity="1.000000" stroke="#000000" stroke-linecap="round" stroke-linejoin="round" stroke-width="8.000000"
	d="
M709.000000,147.000000 
	C703.184448,150.310074 701.769714,156.436646 700.692200,162.036987 
	C698.853027,171.595886 695.977966,181.017303 696.299561,191.006454 
	C696.405579,194.298828 694.092590,197.642929 693.015442,201.004959 
	C690.764404,208.031235 689.094177,215.185120 687.927490,222.488419 
	C687.145325,227.384705 683.714233,230.946396 680.500000,234.500000 
"/>
<path fill="none" opacity="1.000000" stroke="#000000" stroke-linecap="round" stroke-linejoin="round" stroke-width="7.000000"
	d="
M153.500000,946.000000 
	C160.373947,939.850159 159.578735,931.899536 158.429428,924.010254 
	C157.916550,920.489746 157.763443,917.148071 159.526627,914.014954 
	C161.386017,910.710876 164.318085,910.641357 167.023895,913.477234 
	C169.232117,915.791626 170.526505,918.576538 171.469254,921.509888 
	C174.255981,930.180481 178.793488,938.016602 183.075241,945.959412 
	C184.268692,948.173279 185.223846,950.236145 185.000000,952.750000 
"/>
<path fill="none" opacity="1.000000" stroke="#000000" stroke-linecap="round" stroke-linejoin="round" stroke-width="10.000000"
	d="
M174.500000,859.999939 
	C172.333328,859.833313 170.100616,859.941833 168.014145,859.440979 
	C164.002029,858.478088 160.227737,858.053711 156.461594,860.439392 
	C154.593033,861.622986 152.234863,861.691101 150.000839,861.490723 
	C142.452637,860.813538 135.019974,862.463074 127.502251,862.612915 
	C123.542809,862.691833 120.243698,865.094604 117.500000,868.000000 
"/>
<path fill="none" opacity="1.000000" stroke="#000000" stroke-linecap="round" stroke-linejoin="round" stroke-width="9.000000"
	d="
M508.500000,502.500000 
	C508.834503,499.277527 508.110992,496.395264 506.566437,493.464966 
	C502.393585,485.548462 504.411591,476.871582 504.058105,468.497559 
	C503.988434,466.847900 504.655518,465.164337 505.002411,463.500488 
	C505.645569,460.415466 506.275208,457.261932 510.499359,457.511108 
	C515.705811,457.818237 517.430603,459.651733 518.040405,464.494904 
	C519.005676,472.160004 519.416992,479.846130 518.434998,487.491638 
	C517.352234,495.921478 517.697083,496.632446 509.000000,496.500000 
"/>
<path fill="none" opacity="1.000000" stroke="#000000" stroke-linecap="round" stroke-linejoin="round" stroke-width="8.000000"
	d="
M948.500000,803.500000 
	C944.819702,809.761230 944.110779,817.236206 940.459595,823.476379 
	C937.171814,829.095337 935.477112,835.130737 934.424438,841.487488 
	C933.941528,844.404236 934.439026,846.237976 936.943298,848.077209 
	C941.803650,851.646851 946.887390,855.171692 950.863464,859.622009 
	C956.148865,865.537598 962.687378,869.810303 968.482849,875.019104 
	C969.761292,876.168213 970.403687,877.226685 970.194946,879.517761 
	C969.346802,888.824463 966.905151,897.587830 962.961548,905.981934 
	C962.494568,906.975952 961.844971,907.837219 962.000000,909.000000 
"/>
<path fill="none" opacity="1.000000" stroke="#000000" stroke-linecap="round" stroke-linejoin="round" stroke-width="10.000000"
	d="
M352.000000,896.000000 
	C355.081329,896.024353 357.067047,897.980530 358.995575,900.004211 
	C361.679779,902.820862 364.581940,905.476257 366.935181,908.549622 
	C369.683960,912.139587 370.058380,916.747620 370.921295,921.015930 
	C372.223083,927.454895 372.935852,934.010803 374.028900,940.495117 
	C374.525391,943.440491 375.333313,946.333313 375.999969,949.250000 
"/>
<path fill="none" opacity="1.000000" stroke="#000000" stroke-linecap="round" stroke-linejoin="round" stroke-width="9.000000"
	d="
M610.000000,258.000000 
	C608.677979,255.109848 609.102234,252.029633 608.987854,249.000458 
	C608.797302,243.948975 607.100464,243.630615 602.626099,241.261826 
	C596.271179,237.897491 590.085510,241.500961 584.000000,240.000000 
"/>
<path fill="none" opacity="1.000000" stroke="#000000" stroke-linecap="round" stroke-linejoin="round" stroke-width="10.000000"
	d="
M291.500000,281.500000 
	C287.500000,287.000000 283.364716,292.407898 279.539185,298.026672 
	C275.936493,303.318085 271.278412,305.740814 265.023712,303.918610 
	C262.917358,303.304932 260.998291,303.874084 259.000000,303.750000 
"/>
<path fill="none" opacity="1.000000" stroke="#000000" stroke-linecap="round" stroke-linejoin="round" stroke-width="6.000000"
	d="
M724.500000,261.500000 
	C723.705383,265.134766 721.541687,267.890045 719.023621,270.522583 
	C711.880493,277.990356 706.054077,286.543945 699.500000,294.500000 
"/>
<path fill="none" opacity="1.000000" stroke="#000000" stroke-linecap="round" stroke-linejoin="round" stroke-width="8.000000"
	d="
M399.500000,301.000000 
	C398.990234,305.200073 400.437622,308.741547 402.979401,312.015991 
	C405.901489,315.780426 408.657501,319.673492 411.503204,323.497620 
	C413.431122,326.088440 413.900970,328.717194 413.134613,332.031128 
	C412.309967,335.597015 410.860321,339.165466 411.482269,343.002869 
	C411.788727,344.893890 410.133057,345.799377 408.965118,346.435974 
	C397.655426,352.600098 392.821045,363.532440 388.000000,374.500000 
"/>
<path fill="none" opacity="1.000000" stroke="#000000" stroke-linecap="round" stroke-linejoin="round" stroke-width="8.000000"
	d="
M681.000000,413.250000 
	C680.769165,422.758698 678.167847,431.830902 676.091858,441.020752 
	C675.139465,445.236847 677.863220,448.488983 682.068542,449.859406 
	C691.181763,444.177063 702.434631,444.867706 711.000000,438.750000 
"/>
<path fill="none" opacity="1.000000" stroke="#000000" stroke-linecap="round" stroke-linejoin="round" stroke-width="8.000000"
	d="
M203.500000,781.000000 
	C209.793350,781.951355 214.812469,778.238525 219.909714,775.810425 
	C227.419266,772.233337 233.629257,773.554260 239.469101,778.536194 
	C246.527161,784.557251 253.818512,790.510803 255.500000,800.500000 
"/>
<path fill="none" opacity="1.000000" stroke="#000000" stroke-linecap="round" stroke-linejoin="round" stroke-width="8.000000"
	d="
M455.000000,182.000000 
	C443.833344,185.666656 432.666656,189.333328 421.500000,193.000000 
"/>
<path fill="none" opacity="1.000000" stroke="#000000" stroke-linecap="round" stroke-linejoin="round" stroke-width="10.000000"
	d="
M380.000000,466.500000 
	C380.500000,473.833344 381.193542,481.160889 381.412842,488.502594 
	C381.512360,491.833801 382.189026,494.771576 384.000000,497.500000 
"/>
<path fill="none" opacity="1.000000" stroke="#000000" stroke-linecap="round" stroke-linejoin="round" stroke-width="8.000000"
	d="
M319.500000,897.500000 
	C310.344086,905.931213 301.464722,914.636414 293.250000,924.000000 
"/>
<path fill="none" opacity="1.000000" stroke="#000000" stroke-linecap="round" stroke-linejoin="round" stroke-width="8.000000"
	d="
M536.000000,247.000000 
	C535.716858,244.403931 536.457825,242.192307 538.502869,240.503464 
	C541.143677,238.322617 540.259460,236.066833 538.472717,234.023849 
	C535.913025,231.096985 532.980591,228.479630 530.585388,225.432877 
	C529.527588,224.087326 528.631226,223.454010 526.999695,223.484375 
	C515.673462,223.695236 514.125244,223.838791 512.097961,234.518600 
	C511.605011,237.115524 510.945282,239.574295 510.000000,242.000000 
"/>
<path fill="none" opacity="1.000000" stroke="#000000" stroke-linecap="round" stroke-linejoin="round" stroke-width="9.000000"
	d="
M635.500000,237.500000 
	C640.470520,237.548859 645.182190,236.570053 649.503784,234.006409 
	C650.143188,233.627090 650.982544,232.896439 651.477600,233.065521 
	C658.954773,235.619247 666.509888,232.391098 674.003906,233.472931 
	C680.638550,234.430710 680.430542,232.802734 682.530090,240.992279 
	C683.751831,245.757751 684.837708,250.664474 689.000000,254.000000 
"/>
<path fill="none" opacity="1.000000" stroke="#000000" stroke-linecap="round" stroke-linejoin="round" stroke-width="6.000000"
	d="
M575.000000,308.000000 
	C581.743408,312.229065 585.963196,318.759674 590.498535,325.001099 
	C592.673828,327.994751 594.833313,331.000000 597.000000,334.000000 
"/>
<path fill="none" opacity="1.000000" stroke="#000000" stroke-linecap="round" stroke-linejoin="round" stroke-width="8.000000"
	d="
M720.000000,257.500000 
	C715.161438,258.139191 711.139465,260.690674 706.983154,262.969238 
	C705.420593,263.825867 703.605713,264.213837 702.013367,265.026245 
	C699.164124,266.479950 694.698608,264.904449 693.178101,267.600464 
	C688.366150,276.133026 679.917358,282.071960 676.527527,291.509888 
	C676.315430,292.100372 676.500000,292.833344 676.500000,293.500000 
"/>
<path fill="none" opacity="1.000000" stroke="#000000" stroke-linecap="round" stroke-linejoin="round" stroke-width="8.000000"
	d="
M417.500000,368.500000 
	C418.547180,377.508057 419.623749,386.506927 425.500000,394.000000 
"/>
<path fill="none" opacity="1.000000" stroke="#000000" stroke-linecap="round" stroke-linejoin="round" stroke-width="13.000000"
	d="
M420.500000,289.000000 
	C416.526703,296.732513 409.687897,299.732819 401.499878,300.498749 
	C398.553070,300.774414 397.218140,298.801666 396.546906,296.486389 
	C395.131256,291.603363 398.279022,284.986359 403.006714,282.512817 
	C404.128021,281.926178 405.362579,281.558319 406.495270,280.990601 
	C414.325806,277.065826 419.031158,279.580383 420.500000,288.500000 
"/>
<path fill="none" opacity="1.000000" stroke="#000000" stroke-linecap="round" stroke-linejoin="round" stroke-width="10.000000"
	d="
M1028.500000,945.000000 
	C1026.044556,948.682617 1023.614868,952.329590 1019.516785,954.531311 
	C1014.555481,957.196960 1009.930359,957.141724 1005.500000,953.500000 
"/>
<path fill="none" opacity="1.000000" stroke="#000000" stroke-linecap="round" stroke-linejoin="round" stroke-width="11.000000"
	d="
M356.000000,964.000000 
	C358.565247,963.138428 361.230347,962.492126 361.586090,959.008789 
	C361.660370,958.281616 362.736877,957.513000 363.515320,957.024414 
	C369.494049,953.272156 374.782410,948.297424 383.030243,949.838074 
	C389.201538,950.990723 396.071777,948.430115 401.500000,953.500000 
"/>
<path fill="none" opacity="1.000000" stroke="#000000" stroke-linecap="round" stroke-linejoin="round" stroke-width="8.000000"
	d="
M237.000000,905.500000 
	C230.780426,906.247620 224.911942,904.420410 219.008881,902.964050 
	C217.181885,902.513245 215.441971,901.735840 213.500000,902.000000 
"/>
<path fill="none" opacity="1.000000" stroke="#000000" stroke-linecap="round" stroke-linejoin="round" stroke-width="8.000000"
	d="
M535.000000,246.750000 
	C542.623718,250.578201 548.776062,256.354553 554.913330,262.092682 
	C555.783203,262.906006 556.402466,263.440338 557.500000,263.500000 
"/>
<path fill="none" opacity="1.000000" stroke="#000000" stroke-linecap="round" stroke-linejoin="round" stroke-width="9.000000"
	d="
M143.000000,846.500000 
	C145.299698,848.000732 147.719742,849.058594 150.489914,849.556152 
	C155.529083,850.461365 159.218231,853.374451 161.500000,858.000000 
"/>
<path fill="none" opacity="1.000000" stroke="#000000" stroke-linecap="round" stroke-linejoin="round" stroke-width="7.000000"
	d="
M364.500000,325.500000 
	C358.173157,331.335358 353.300079,338.664917 346.000000,343.500000 
"/>
<path fill="none" opacity="1.000000" stroke="#000000" stroke-linecap="round" stroke-linejoin="round" stroke-width="10.000000"
	d="
M498.500000,356.500000 
	C489.768402,357.875183 485.068604,363.550934 482.500000,371.500000 
"/>
<path fill="none" opacity="1.000000" stroke="#000000" stroke-linecap="round" stroke-linejoin="round" stroke-width="3.000000"
	d="
M437.500000,278.500000 
	C431.137756,277.801727 426.215698,282.000000 420.500000,283.500000 
"/>
<path fill="none" opacity="1.000000" stroke="#000000" stroke-linecap="round" stroke-linejoin="round" stroke-width="3.000000"
	d="
M517.500000,495.500000 
	C520.113403,496.788452 522.029968,499.669586 525.500000,499.000000 
"/>
<path fill="none" opacity="1.000000" stroke="#000000" stroke-linecap="round" stroke-linejoin="round" stroke-width="3.000000"
	d="
M753.000000,444.500000 
	C753.418030,446.821228 752.044189,449.398468 754.000000,451.500000 
"/>
<path fill="none" opacity="1.000000" stroke="#000000" stroke-linecap="round" stroke-linejoin="round" stroke-width="3.000000"
	d="
M323.500000,623.999939 
	C321.500000,624.333313 319.500000,624.666626 317.500000,624.999939 
"/>
</svg>