<?xml version="1.0" encoding="UTF-8"?>
<svg id="Layer_1" xmlns="http://www.w3.org/2000/svg" viewBox="0 0 221 144">
  <defs>
    <style>
      .cls-1 {
        font-family: GillSansMT, 'Gill Sans MT';
        font-size: 24px;
      }

      .cls-2 {
        letter-spacing: -.0151em;
      }

      .cls-3 {
        fill: #4d4d4d;
      }

      .cls-4, .cls-5, .cls-6 {
        fill: #fff;
      }

      .cls-5 {
        stroke: #fff;
        stroke-miterlimit: 10;
        stroke-width: 3px;
      }

      .cls-7 {
        fill: none;
      }

      .cls-6 {
        font-family: FranklinGothic-Heavy, 'Franklin Gothic Heavy';
        font-size: 18px;
        font-weight: 800;
      }
    </style>
  </defs>
  <path class="cls-5" d="M195.9779,125.004c-1.6191-.8116-4.0696-1.7167-6.7105-1.2119-2.7517.526-3.4409,2.1488-6.0395,3.0297-3.0534,1.0351-4.6315-.348-10.0658-1.2119-7.4874-1.1903-14.4681-.1505-15.4342,0-4.8136.7501-7.0333,1.9163-9.3947.6059-2.3369-1.2968-1.7685-3.3297-4.0263-4.2416-1.8277-.7382-3.013.2657-9.3947,1.8178-3.5338.8595-5.3008,1.2892-6.7105,1.2119-2.087-.1145-4.2993-.8843-8.7237-2.4238-2.9692-1.0332-3.5231-1.3648-4.6974-1.2119-2.5304.3295-2.6523,2.2201-5.3684,3.0297-2.1068.628-2.9877-.225-7.3816-.6059-3.9872-.3457-3.6879.3199-6.7105,0-3.8422-.4066-4.6083-1.5118-11.4079-3.0297-2.5946-.5792-4.1861-.7985-5.3684,0-1.3226.8932-.8361,2.184-1.8853,3.1132-1.8425,1.6318-5.5893-.3592-10.8647-1.2954-6.8824-1.2214-6.7165,1.0649-14.7632,0-6.004-.7946-7.6998-2.2797-11.4079-1.2119-2.3598.6795-3.3309,1.7583-6.0395,1.8178-2.3401.0514-3.2283-.7184-6.0395-1.2119-1.6955-.2976-4.1795-.5104-7.3816,0,.3439-1.4484.8229-3.5361,1.3421-6.0595,1.5889-7.7222,2.376-11.6546,2.0132-15.1487-.5999-5.7768-2.7358-5.044-2.6842-9.6952.062-5.5887,3.1502-7.0424,2.6842-12.7249-.3172-3.8687-1.7596-3.3294-2.0132-7.2714-.3595-5.5896,2.5-7.3055,1.3421-12.1189-.7058-2.9343-1.9218-2.9343-2.0132-5.4535-.1199-3.3094,1.9358-4.4847,2.6842-7.8773.7119-3.2273-.6319-4.5052-1.3421-8.4833-1.159-6.4917,1.4416-8.5665,2.0132-16.3606.2304-3.1419.1662-7.6915-1.3421-13.3308,10.3152,1.7116,18.5189,1.6235,24.1579,1.2119,5.9874-.437,7.6771-1.136,14.0921-1.2119,8.29-.0981,9.7741,1.0183,18.7895,1.2119,10.6316.2283,9.9349-1.295,16.7763-.6059,10.7931,1.087,11.3553,4.7601,19.4605,4.2416,5.3637-.3431,5.891-2.0011,14.7632-3.0297,5.1484-.5969,4.4954.0166,10.7368-.6059,9.044-.902,10.8793-2.2363,15.4342-1.2119,3.886.874,3.8096,2.1284,7.3816,2.4238,4.0814.3375,5.1995-1.2161,10.0658-1.2119,3.9009.0034,4.4628,1.0028,8.0526,1.2119,2.6941.1569,6.5594-.1624,11.4079-2.4238-.4642,1.5232-1.0546,3.8241-1.3421,6.6654-.3775,3.7314.2052,4.069,0,7.8773-.3472,6.4433-2.1464,7.9092-.6711,10.9071.3371.685,1.3432,1.8706,3.3553,4.2416,2.1182,2.4961,3.344,3.627,3.3553,5.4535.005.8081-.2301,1.37-.6711,2.4238-.8647,2.0668-1.9217,3.0447-3.3553,4.8476-2.4717,3.1084-3.7075,4.6626-3.3553,6.0595.4356,1.7273,2.4793,1.5603,4.0263,3.6357.3609.4842,1.1983,1.7659.6711,7.8773-.435,5.0425-1.151,5.8609-1.3421,10.3011-.1657,3.8492.3624,3.4658,0,5.4535-.9804,5.3776-4.5127,6.3582-4.0263,9.6952.3775,2.5897,2.556,2.3491,4.0263,6.0595.7661,1.9332.4304,2.6438.6711,7.8773.2047,4.4518.4662,4.3428.6711,8.4833.1126,2.277.1963,5.5999,0,9.6952Z"/>
  <text class="cls-1" transform="translate(60.9976 73.2341)"><tspan x="0" y="0">Noteca</tspan><tspan class="cls-2" x="72.2227" y="0">r</tspan><tspan x="81.3633" y="0">d</tspan></text>
  <rect class="cls-3" x="175.1736" y="88.81" width="36" height="22" rx="3.0217" ry="3.0217"/>
  <g>
    <polygon class="cls-4" points="152.1736 98.4053 152.1736 131.1174 160.5196 121.778 169.567 137.2146 178.4038 132.9079 169.567 117.81 183.3803 117.81 152.1736 98.4053"/>
    <g id="cursor-click-svgrepo-com">
      <path class="cls-3" d="M162.9454,93.4958l7.5654-3.5667,1.206,2.4805-7.9981,3.773-.7733-2.6868ZM163.5121,81.6681l-2.6325-.9157-2.8698,8.0162,2.4343,1.4713,3.068-8.5717ZM137.7758,105.3621l1.206,2.4805,7.9981-3.7675-1.6387-2.2797-7.5654,3.5667ZM145.6538,83.3566l3.0206,6.2177,2.5181-1.1852-3.0206-6.2177-2.5181,1.1852ZM144.6991,95.0441l-8.1405-2.827-.9268,2.5932,8.7016,3.025.3657-2.7912ZM187.0682,119.06h-15.223l8.4643,16.6347-10.9992,5.4477-8.6709-16.918-9.3409,12.606v-43.483l35.7696,25.7125ZM167.292,116.255h11.1862l-24.4159-17.5505v29.6368l6.982-9.4242,9.4721,18.48,6.016-2.981-9.2404-18.161Z"/>
      <path class="cls-7" d="M126.1736,77.81h67v66h-67v-66Z"/>
    </g>
  </g>
  <text class="cls-6" transform="translate(182.4563 106.0057)"><tspan x="0" y="0">2X</tspan></text>
</svg>