<?xml version="1.0" encoding="UTF-8"?>
<svg id="Layer_1" xmlns="http://www.w3.org/2000/svg" xmlns:xlink="http://www.w3.org/1999/xlink" viewBox="0 0 854.75 154">
  <defs>
    <style>
      .cls-1 {
        font-family: GillSansMT, 'Gill Sans MT';
      }

      .cls-1, .cls-2 {
        font-size: 24px;
      }

      .cls-3 {
        stroke-width: .7407px;
      }

      .cls-3, .cls-4, .cls-5, .cls-6, .cls-7, .cls-8, .cls-9, .cls-10, .cls-11, .cls-12 {
        fill: none;
      }

      .cls-3, .cls-4, .cls-5, .cls-7, .cls-8, .cls-9, .cls-10, .cls-11, .cls-12 {
        stroke: #000;
        stroke-linecap: round;
        stroke-linejoin: round;
      }

      .cls-13 {
        letter-spacing: -.0151em;
      }

      .cls-14 {
        fill: #4d4d4d;
      }

      .cls-15, .cls-16, .cls-17 {
        fill: #fff;
      }

      .cls-16 {
        stroke: #fff;
        stroke-miterlimit: 10;
        stroke-width: 3px;
      }

      .cls-18 {
        letter-spacing: -.0298em;
      }

      .cls-19 {
        fill: #424242;
      }

      .cls-4 {
        stroke-width: .6481px;
      }

      .cls-20 {
        letter-spacing: -.0098em;
      }

      .cls-2 {
        font-family: CourierNewPS-BoldMT, 'Courier New';
        font-weight: 700;
      }

      .cls-5 {
        stroke-width: .5556px;
      }

      .cls-17 {
        font-family: FranklinGothic-Heavy, 'Franklin Gothic Heavy';
        font-size: 18px;
        font-weight: 800;
      }

      .cls-7 {
        stroke-width: .9259px;
      }

      .cls-8 {
        stroke-width: .8333px;
      }

      .cls-9 {
        stroke-width: 1.0185px;
      }

      .cls-10 {
        stroke-width: 1.5741px;
      }

      .cls-11 {
        stroke-width: 1.2037px;
      }

      .cls-12 {
        stroke-width: .2778px;
      }

      .cls-21 {
        clip-path: url(#clippath);
      }
    </style>
    <clipPath id="clippath">
      <rect class="cls-6" x="442" y="31" width="11" height="31"/>
    </clipPath>
  </defs>
  <path class="cls-16" d="M216.8043,136.1941c-1.6191-.8116-4.0696-1.7167-6.7105-1.2119-2.7517.526-3.4409,2.1488-6.0395,3.0297-3.0534,1.0351-4.6315-.348-10.0658-1.2119-7.4874-1.1903-14.4681-.1505-15.4342,0-4.8136.7501-7.0333,1.9163-9.3947.6059-2.3369-1.2968-1.7685-3.3297-4.0263-4.2416-1.8277-.7382-3.013.2657-9.3947,1.8178-3.5338.8595-5.3008,1.2892-6.7105,1.2119-2.087-.1145-4.2993-.8843-8.7237-2.4238-2.9692-1.0332-3.5231-1.3648-4.6974-1.2119-2.5304.3295-2.6523,2.2201-5.3684,3.0297-2.1068.628-2.9877-.225-7.3816-.6059-3.9872-.3457-3.6879.3199-6.7105,0-3.8422-.4066-4.6083-1.5118-11.4079-3.0297-2.5946-.5792-4.1861-.7985-5.3684,0-1.3226.8932-.8361,2.184-1.8853,3.1132-1.8425,1.6318-5.5893-.3592-10.8647-1.2954-6.8824-1.2214-6.7165,1.0649-14.7632,0-6.004-.7946-7.6998-2.2797-11.4079-1.2119-2.3598.6795-3.3309,1.7583-6.0395,1.8178-2.3401.0514-3.2283-.7184-6.0395-1.2119-1.6955-.2976-4.1795-.5104-7.3816,0,.3439-1.4484.8229-3.5361,1.3421-6.0595,1.5889-7.7222,2.376-11.6546,2.0132-15.1487-.5999-5.7768-2.7358-5.044-2.6842-9.6952.062-5.5887,3.1502-7.0424,2.6842-12.7249-.3172-3.8687-1.7596-3.3294-2.0132-7.2714-.3595-5.5896,2.5-7.3055,1.3421-12.1189-.7058-2.9343-1.9218-2.9343-2.0132-5.4535-.1199-3.3094,1.9358-4.4847,2.6842-7.8773.7119-3.2273-.6319-4.5052-1.3421-8.4833-1.159-6.4917,1.4416-8.5665,2.0132-16.3606.2304-3.1419.1662-7.6915-1.3421-13.3308,10.3152,1.7116,18.5189,1.6235,24.1579,1.2119,5.9874-.437,7.6771-1.136,14.0921-1.2119,8.29-.0981,9.7741,1.0183,18.7895,1.2119,10.6316.2283,9.9349-1.295,16.7763-.6059,10.7931,1.087,11.3553,4.7601,19.4605,4.2416,5.3637-.3431,5.891-2.0011,14.7632-3.0297,5.1484-.5969,4.4954.0166,10.7368-.6059,9.044-.902,10.8793-2.2363,15.4342-1.2119,3.886.874,3.8096,2.1284,7.3816,2.4238,4.0814.3375,5.1995-1.2161,10.0658-1.2119,3.9009.0034,4.4628,1.0028,8.0526,1.2119,2.6941.1569,6.5594-.1624,11.4079-2.4238-.4642,1.5232-1.0546,3.8241-1.3421,6.6654-.3775,3.7314.2052,4.069,0,7.8773-.3472,6.4433-2.1464,7.9092-.6711,10.9071.3371.685,1.3432,1.8706,3.3553,4.2416,2.1182,2.4961,3.344,3.627,3.3553,5.4535.005.8081-.2301,1.37-.6711,2.4238-.8647,2.0668-1.9217,3.0447-3.3553,4.8476-2.4717,3.1084-3.7075,4.6626-3.3553,6.0595.4356,1.7273,2.4793,1.5603,4.0263,3.6357.3609.4842,1.1983,1.7659.6711,7.8773-.435,5.0425-1.151,5.8609-1.3421,10.3011-.1657,3.8492.3624,3.4658,0,5.4535-.9804,5.3776-4.5127,6.3582-4.0263,9.6952.3775,2.5897,2.556,2.3491,4.0263,6.0595.7661,1.9332.4304,2.6438.6711,7.8773.2047,4.4518.4662,4.3428.6711,8.4833.1126,2.277.1963,5.5999,0,9.6952Z"/>
  <text class="cls-1" transform="translate(81.824 84.4242)"><tspan x="0" y="0">Noteca</tspan><tspan class="cls-13" x="72.2227" y="0">r</tspan><tspan x="81.3633" y="0">d</tspan></text>
  <rect class="cls-14" x="196" y="100" width="36" height="22" rx="3.0217" ry="3.0217"/>
  <g>
    <polygon class="cls-15" points="173 109.5953 173 142.3075 181.346 132.968 190.3934 148.4047 199.2302 144.0979 190.3934 129 204.2067 129 173 109.5953"/>
    <g id="cursor-click-svgrepo-com">
      <path class="cls-14" d="M183.7718,104.6859l7.5654-3.5667,1.206,2.4805-7.9981,3.773-.7733-2.6868ZM184.3385,92.8581l-2.6325-.9157-2.8698,8.0162,2.4343,1.4713,3.068-8.5717ZM158.6022,116.5521l1.206,2.4805,7.9981-3.7675-1.6387-2.2797-7.5654,3.5667ZM166.4803,94.5466l3.0206,6.2177,2.5181-1.1852-3.0206-6.2177-2.5181,1.1852ZM165.5255,106.2341l-8.1405-2.827-.9268,2.5932,8.7016,3.025.3657-2.7912ZM207.8946,130.25h-15.223l8.4643,16.6347-10.9992,5.4477-8.6709-16.918-9.3409,12.606v-43.483l35.7696,25.7125ZM188.1185,127.445h11.1862l-24.4159-17.5505v29.6368l6.982-9.4242,9.4721,18.48,6.016-2.981-9.2404-18.161Z"/>
      <path class="cls-6" d="M147,89h67v66h-67v-66Z"/>
    </g>
  </g>
  <text class="cls-17" transform="translate(203.2827 117.1958)"><tspan x="0" y="0">2X</tspan></text>
  <path class="cls-16" d="M289.9808,93.0877l-.0553-1.5945-.2214-6.378c-24.813,1.708-43.7267.7999-44.6674-2.5573-.1122-.4005-.4216-2.4522-.483-4.816-.0522-2.0087.0854-3.8329.1694-4.2194.7165-3.2986,19.4603-2.8388,44.0426.4129l-.2214-6.378-.1107-3.189c.2564.0809.8883.2843,1.6714.5868,2.6989,1.0425,6.8651,3.1345,17.5236,13.3278.7945.7598,1.419,1.3675,1.7083,1.6498-.2922.2878-.8652.8487-1.5976,1.5391-5.1403,4.8455-9.6808,9.0445-16.1239,11.1395-.7741.2517-1.3999.4159-1.6345.4762Z"/>
  <g>
    <path class="cls-16" d="M533.936,143.525c-1.8481-.9186-4.6453-1.943-7.6598-1.3717-3.1409.5953-3.9277,2.4321-6.8938,3.4292-3.4854,1.1716-5.2866-.3939-11.4897-1.3717-8.5465-1.3472-16.5148-.1704-17.6175,0-5.4946.849-8.0282,2.169-10.7237.6858-2.6675-1.4678-2.0186-3.7687-4.5959-4.8009-2.0863-.8356-3.4392.3007-10.7237,2.0575-4.0337.9728-6.0506,1.4592-7.6598,1.3717-2.3823-.1296-4.9074-1.0009-9.9577-2.7434-3.3892-1.1694-4.0214-1.5447-5.3619-1.3717-2.8883.3729-3.0275,2.5128-6.1278,3.4292-2.4048.7108-3.4103-.2547-8.4258-.6858-4.5512-.3912-4.2096.362-7.6598,0-4.3857-.4602-5.2602-1.7112-13.0216-3.4292-2.9617-.6556-4.7783-.9037-6.1278,0-1.5097,1.011-.9543,2.4719-2.152,3.5237-2.1031,1.8469-6.38-.4065-12.4016-1.4662-7.856-1.3824-7.6666,1.2053-16.8515,0-6.8533-.8994-8.789-2.5802-13.0216-1.3717-2.6936.7691-3.8021,1.9902-6.8938,2.0575-2.6711.0582-3.6849-.8131-6.8938-1.3717-1.9353-.3369-4.7707-.5777-8.4258,0,.3926-1.6394.9393-4.0023,1.532-6.8584,1.8137-8.7404,2.7121-13.1913,2.2979-17.146-.6847-6.5385-3.1228-5.7091-3.0639-10.9735.0708-6.3256,3.5958-7.9709,3.0639-14.4027-.3621-4.3788-2.0086-3.7684-2.2979-8.2301-.4103-6.3266,2.8537-8.2687,1.532-13.7168-.8057-3.3212-2.1937-3.3212-2.2979-6.1726-.1369-3.7457,2.2097-5.076,3.0639-8.9159.8126-3.6528-.7213-5.0992-1.532-9.6018-1.3229-7.3476,1.6455-9.696,2.2979-18.5177.263-3.5561.1897-8.7057-1.532-15.0885,11.7744,1.9373,21.1386,1.8375,27.5752,1.3717,6.8343-.4946,8.7631-1.2858,16.0856-1.3717,9.4627-.111,11.1568,1.1526,21.4474,1.3717,12.1355.2583,11.3403-1.4657,19.1495-.6858,12.3199,1.2303,12.9617,5.3878,22.2134,4.8009,6.1224-.3884,6.7243-2.265,16.8515-3.4292,5.8767-.6756,5.1314.0187,12.2557-.6858,10.3233-1.021,12.4183-2.5312,17.6175-1.3717,4.4357.9892,4.3485,2.4091,8.4258,2.7434,4.6588.382,5.935-1.3765,11.4897-1.3717,4.4527.0038,5.0942,1.135,9.1917,1.3717,3.0752.1776,7.4873-.1838,13.0216-2.7434-.5298,1.7241-1.2038,4.3284-1.532,7.5443-.4309,4.2234.2343,4.6055,0,8.9159-.3964,7.2929-2.45,8.952-.766,12.3452.3848.7753,1.5332,2.1172,3.8299,4.8009,2.4178,2.8252,3.817,4.1052,3.8299,6.1726.0057.9146-.2627,1.5506-.766,2.7434-.9871,2.3393-2.1935,3.4462-3.8299,5.4867-2.8213,3.5183-4.232,5.2774-3.8299,6.8584.4972,1.9551,2.8301,1.766,4.5959,4.1151.412.548,1.3678,1.9988.766,8.9159-.4965,5.7073-1.3138,6.6337-1.532,11.6593-.1891,4.3567.4137,3.9228,0,6.1726-1.1191,6.0866-5.1511,7.1966-4.5959,10.9735.4309,2.9311,2.9175,2.6589,4.5959,6.8584.8745,2.1881.4913,2.9924.766,8.9159.2337,5.0388.5322,4.9154.766,9.6018.1286,2.5772.2241,6.3382,0,10.9735Z"/>
    <text class="cls-2" transform="translate(359.3154 54.3687)"><tspan x="0" y="0">Noteca</tspan></text>
  </g>
  <g id="typing">
    <g class="cls-21">
      <polygon class="cls-19" points="442 31.0002 442 33.4776 446.3386 33.4776 446.3386 59.5229 442 59.5229 442 62.0002 453.0001 62.0002 453.0001 59.5229 448.6615 59.5229 448.6615 33.4776 453.0001 33.4776 453.0001 31.0002 442 31.0002"/>
    </g>
  </g>
  <g>
    <path class="cls-16" d="M842.9782,136.9984c-1.6191-.8116-4.0696-1.7167-6.7105-1.2119-2.7517.526-3.4409,2.1488-6.0395,3.0297-3.0534,1.0351-4.6315-.348-10.0658-1.2119-7.4874-1.1903-14.4681-.1505-15.4342,0-4.8136.7501-7.0333,1.9163-9.3947.6059-2.3369-1.2968-1.7685-3.3297-4.0263-4.2416-1.8277-.7382-3.013.2657-9.3947,1.8178-3.5338.8595-5.3008,1.2892-6.7105,1.2119-2.087-.1145-4.2993-.8843-8.7237-2.4238-2.9692-1.0332-3.5231-1.3648-4.6974-1.2119-2.5304.3295-2.6523,2.2201-5.3684,3.0297-2.1068.628-2.9877-.225-7.3816-.6059-3.9872-.3457-3.6879.3199-6.7105,0-3.8422-.4066-4.6083-1.5118-11.4079-3.0297-2.5946-.5792-4.1861-.7985-5.3684,0-1.3226.8932-.8361,2.184-1.8853,3.1132-1.8425,1.6318-5.5893-.3592-10.8647-1.2954-6.8824-1.2214-6.7165,1.0649-14.7632,0-6.004-.7946-7.6998-2.2797-11.4079-1.2119-2.3598.6795-3.3309,1.7583-6.0395,1.8178-2.3401.0514-3.2283-.7184-6.0395-1.2119-1.6955-.2976-4.1795-.5104-7.3816,0,.3439-1.4484.8229-3.5361,1.3421-6.0595,1.5889-7.7222,2.376-11.6546,2.0132-15.1487-.5999-5.7768-2.7358-5.044-2.6842-9.6952.062-5.5887,3.1502-7.0424,2.6842-12.7249-.3172-3.8687-1.7596-3.3294-2.0132-7.2714-.3595-5.5896,2.5-7.3055,1.3421-12.1189-.7058-2.9343-1.9218-2.9343-2.0132-5.4535-.1199-3.3094,1.9358-4.4847,2.6842-7.8773.7119-3.2273-.6319-4.5052-1.3421-8.4833-1.159-6.4917,1.4416-8.5665,2.0132-16.3606.2304-3.1419.1662-7.6915-1.3421-13.3308,10.3152,1.7116,18.5189,1.6235,24.1579,1.2119,5.9874-.437,7.6771-1.136,14.0921-1.2119,8.29-.0981,9.7741,1.0183,18.7895,1.2119,10.6316.2283,9.9349-1.295,16.7763-.6059,10.7931,1.087,11.3553,4.7601,19.4605,4.2416,5.3637-.3431,5.891-2.0011,14.7632-3.0297,5.1484-.5969,4.4954.0166,10.7368-.6059,9.044-.902,10.8793-2.2363,15.4342-1.2119,3.886.874,3.8096,2.1284,7.3816,2.4238,4.0814.3375,5.1995-1.2161,10.0658-1.2119,3.9009.0034,4.4628,1.0028,8.0526,1.2119,2.6941.1569,6.5594-.1624,11.4079-2.4238-.4642,1.5232-1.0546,3.8241-1.3421,6.6654-.3775,3.7314.2052,4.069,0,7.8773-.3472,6.4433-2.1464,7.9092-.6711,10.9071.3371.685,1.3432,1.8706,3.3553,4.2416,2.1182,2.4961,3.344,3.627,3.3553,5.4535.005.8081-.2301,1.37-.6711,2.4238-.8647,2.0668-1.9217,3.0447-3.3553,4.8476-2.4717,3.1084-3.7075,4.6626-3.3553,6.0595.4356,1.7273,2.4793,1.5603,4.0263,3.6357.3609.4842,1.1983,1.7659.6711,7.8773-.435,5.0425-1.151,5.8609-1.3421,10.3011-.1657,3.8492.3624,3.4658,0,5.4535-.9804,5.3776-4.5127,6.3582-4.0263,9.6952.3775,2.5897,2.556,2.3491,4.0263,6.0595.7661,1.9332.4304,2.6438.6711,7.8773.2047,4.4518.4662,4.3428.6711,8.4833.1126,2.277.1963,5.5999,0,9.6952Z"/>
    <text class="cls-1" transform="translate(710.998 84.2286)"><tspan x="0" y="0">Nabo</tspan><tspan class="cls-18" x="54.2227" y="0">k</tspan><tspan class="cls-20" x="65.0039" y="0">o</tspan><tspan x="78.0117" y="0">v</tspan></text>
  </g>
  <path class="cls-16" d="M614.8938,92.1094l-.0553-1.5945-.2214-6.378c-24.813,1.708-43.7267.7999-44.6674-2.5573-.1122-.4005-.4216-2.4522-.483-4.816-.0522-2.0087.0854-3.8329.1694-4.2194.7165-3.2986,19.4603-2.8388,44.0426.4129l-.2214-6.378-.1107-3.189c.2564.0809.8883.2843,1.6714.5868,2.6989,1.0425,6.8651,3.1345,17.5236,13.3278.7945.7598,1.419,1.3675,1.7083,1.6498-.2922.2878-.8652.8487-1.5976,1.5391-5.1403,4.8455-9.6808,9.0445-16.1239,11.1395-.7741.2517-1.3999.4159-1.6345.4762Z"/>
  <g>
    <path class="cls-4" d="M496.7332,132.3543c.3276.011.6543-.0077.9815-.0212.1991-.0082.3973-.0231.5959-.037.218-.0153.2851-.0888.2933-.3117.0217-.5847.0369-1.1695.0465-1.7546.0059-.3582.0312-.7162.0317-1.0742.0007-.4459.0201-.8914.0329-1.3366.0105-.366.0087-.7324.0257-1.0984.0205-.4412.0239-.8832.0376-1.3248.0136-.4377.035-.8752.0449-1.313.0073-.3218-.0161-.3406-.3257-.3702-.4827-.0461-.9655-.054-1.4488-.012-.0429.0037-.0879-.017-.1285.0122"/>
    <path class="cls-3" d="M500.0397,132.2111c.0243-.0697.0905-.0595.1405-.07.2763-.0578.5511-.1214.8168-.2185.0761-.0278.1528-.0568.2242-.103.1545-.1.2005-.2391.2128-.4198.0341-.501.0135-1.0043.0661-1.5042.0008-.0079,0-.0159.0001-.0239.0078-.3143.0082-.629.025-.9428.0273-.509.0342-1.0185.0511-1.5277.0068-.2067-.0044-.4158.0212-.6204.0269-.2157.0054-.4306.0208-.6449.0322-.4491.0394-.8988.0481-1.3488.0068-.3543.039-.7081.0546-1.0624.0065-.1472-.049-.2145-.1858-.2252-.1971-.0154-.3909.0242-.584.0587-.2536.0453-.5061.0967-.7598.1409-.0419.0073-.069.0549-.1165.0376"/>
    <path class="cls-8" d="M493.6021,131.9246c.3817.0793.7672.1249,1.1567.1308.1796.0027.2297-.0485.2581-.2261.0405-.2535.041-.5103.0417-.7641.0067-2.3673.0037-4.7345.0046-7.1018,0-.1562-.0109-.1772-.1751-.2182-.3045-.076-.6128-.1027-.9238-.1165-.1053-.0047-.2103-.0154-.3155-.0234"/>
    <path class="cls-4" d="M502.7386,120.7885c.0675.1344.0334.2781.0334.4178,0,.1313-.0243.263-.0195.3938.0092.2478-.0191.4934-.028.74-.014.3903-.0333.7804-.063,1.1702-.0124.1621-.0248.3255-.031.4889-.0139.3704-.0468.74-.0658,1.1102-.0086.167-.0161.3347-.0195.5013-.0046.2232-.0191.4462-.0333.668-.0212.3303-.0333.6612-.0605.9914-.0238.2893-.0346.5805-.0505.871-.0202.3697-.0291.7401-.0489,1.1099-.0139.2589-.0358.5175-.0585.7758-.0081.092.0137.1697.0712.2388"/>
    <path class="cls-5" d="M499.2802,123.6531c.0156.4341-.0183.8673-.0274,1.3009-.0114.549-.0306,1.0981-.0473,1.6471-.0115.3781-.0061.7564-.0212,1.134-.0227.5689-.0344,1.1378-.0477,1.7068-.0124.5292-.0334,1.0582-.0456,1.5875-.0075.3263-.038.6519-.0335.9788.0004.0318-.0072.0636-.0111.0955"/>
    <path class="cls-5" d="M495.5415,123.7485c.0256.2304.0085.4616.0082.6923,0,.0377-.0073.0798-.0074.1194-.0011.6525.0007,1.305-.0012,1.9575-.0024.8514.0009,1.703-.0143,2.5542-.0096.5412-.0013,1.0823-.0089,1.6233-.0067.4774-.0154.9549-.0231,1.4323"/>
    <path class="cls-10" d="M503.1241,130.3371c-.2157-.1696-.4549-.1619-.7008-.0948-.0576.0157-.0814.0635-.1077.1175-.078.1597-.0986.3295-.1016.5025-.0035.2042-.0492.404-.0525.6086-.0008.0522-.0121.1118.0075.1538.0856.183.0189.3575-.031.5251-.0467.157-.1899.2397-.3219.3246-.314.2018-.6659.3001-1.0163.4072-.3037.0928-.6126.1591-.9241.2093-.197.0317-.3973.0456-.5954.0743-.5308.0769-1.0656.1026-1.6005.0927-.4246-.0078-.85.0132-1.2733-.0135-.3194-.0201-.6396-.0393-.9588-.0737-.2838-.0306-.565-.0939-.8524-.0884-.0195.0004-.0444.0081-.0576-.0012-.1763-.124-.3956-.1756-.5404-.355-.1049-.13-.2718-.1035-.3348.0467-.045.1073-.1259.1725-.2114.2389-.0381.0296-.0783.0273-.1175.0217-.1484-.0211-.296-.0477-.4442-.07-.0555-.0084-.0996-.0356-.1401-.0721"/>
    <path class="cls-4" d="M502.2829,123.2234c.0331.1997-.0072.3979-.0128.5968-.0068.2428-.0207.4855-.0342.7281-.0235.4217-.035.844-.0661,1.2655-.0134.1821-.0166.3658-.026.5488-.019.3698-.0248.7405-.0501,1.1098-.0204.2983-.0356.5964-.0466.8953-.0195.5295-.0454,1.0589-.0825,1.5873-.019.2706-.0378.5415-.0618.8113-.0177.1996.0019.3996-.0288.5974"/>
    <path class="cls-8" d="M502.1193,117.8164c.0195.0199.0371.0422.0587.0593.1346.1062.1654.224.0925.3701-.013.0259-.0421.0287-.0689.0377-.3868.1302-.7818.2263-1.1804.3093-.3169.066-.6374.1045-.958.1437-.2499.0306-.4979.0778-.7481.1043-.2405.0255-.4825.0417-.7242.048-.401.0105-.803-.0054-1.2031.0175-.5045.0288-1.005-.0265-1.5073-.042-.0901-.0028-.1811-.014-.2712-.0513-.0575-.0238-.139.0045-.2077.0192-.1122.024-.2243.0392-.3391.0349-.0813-.0031-.1567.0241-.209.0845-.1472.1698-.3462.2515-.5391.3443-.0422.0203-.0599.046-.0724.0955-.0729.2894-.1996.5553-.3454.8138-.0539.0957-.1083.1045-.2018.0721-.1894-.0656-.3654-.1613-.5475-.243-.166-.0745-.3264-.1482-.5151-.1438-.1558.0036-.2404-.1359-.223-.3196.0248-.2619.0465-.5256.0099-.7872-.0181-.1297-.029-.2538.001-.3828.0193-.0829-.014-.1666-.0215-.2502-.0062-.0686-.0639-.0592-.1054-.071-.1107-.0313-.2288.0081-.3388-.036-.049-.0197-.102-.0299-.1401-.072-.2002-.2208-.4356-.1895-.6773-.0949-.1558.061-.2754.1754-.3843.2991-.0568.0645-.0837.1325-.0668.2385.0376.235.0397.4762.0531.715.0105.1868.0118.3743.0254.5608.0089.1219.0797.2257.1153.3403"/>
    <path class="cls-4" d="M500.5187,116.2767c-.0195-.0358-.0455-.0695-.0571-.1079-.0246-.0819-.026-.1588.0443-.2275.1079-.1055.1551-.2514.1443-.392-.0065-.0849-.0214-.1657-.0038-.2515.0414-.2024.0782-.4057.1177-.6085.0658-.3383.1334-.6762.1968-1.0149.0062-.0331.0123-.0715-.0094-.1075-.0904-.1502-.0381-.3124.0063-.4508.0758-.2361.0366-.4714.0511-.7066.0083-.1345-.0927-.1774-.1863-.2272-.1067-.0567-.2213-.0834-.3391-.0939-.0911-.0081-.1355.0601-.1752.1301-.0845.1492-.1421.3101-.1734.4778-.0495.265-.1488.5151-.2107.7758-.0497.2092-.0767.4243-.132.6317-.1192.4471-.2259.8956-.2432,1.3613"/>
    <path class="cls-8" d="M492.3987,127.6396c.0765-.0998.07-.2178.07-.3342.0001-.4416.0096-.8835-.0027-1.3248-.0116-.414.0051-.828-.0114-1.2413-.0138-.3462-.0078-.6932-.0413-1.0388-.0065-.0672-.0331-.0938-.0843-.1199-.1299-.0662-.271-.0933-.4094-.1303-.1362-.0364-.272-.0745-.4093-.1058-.0404-.0092-.0853.0023-.1281.0042"/>
    <path class="cls-8" d="M508.0195,129.1077c-.097-.1496-.2591-.1757-.4087-.2273-.2532-.0873-.4969-.1998-.7584-.2668-.1697-.0435-.3284.0081-.4918.0094-.1473.0012-.2961.0205-.4437.0341-.4628.0427-.9279.0267-1.3908.0664-.2053.0176-.4126.0106-.619.0141-.1359.0023-.2094.0488-.2437.1796-.0481.1834-.1237.3615-.0982.561.0083.065-.0063.1417-.0345.2012-.0846.1786-.0774.3628-.0558.5503"/>
    <path class="cls-5" d="M492.9011,123.6531c0,.736-.0076,1.4722.0031,2.2081.0057.3939-.0032.7881.0113,1.1816.0082.223.0033.4458.0093.6685.0026.0952-.0137.1862-.0471.2745"/>
    <path class="cls-3" d="M486.148,132.5094c.148.008.2959.0178.444.023.0635.0022.1172-.0286.1512-.0831.0685-.1099.1377-.2198.1981-.3344.0663-.126.1373-.1714.27-.1546.2038.0258.3808.096.4791.2985.0314.0648.0756.1236.1301.1649.0908.0688.1025.1663.1144.2649.0186.1544.0798.2026.2224.1537.1191-.0409.234-.0945.351-.1417.1403-.0566.2063-.0395.2667.0963.0843.1896.2222.336.3535.4876.1464.1691.324.2001.5374.1353.3323-.1009.6611-.2071.9693-.3722.0235-.0126.0497-.014.082-.003.326.1108.6508.2272.9816.3212.2904.0825.5835.1578.8869.1844.2608.0228.5199.0662.783.0576.2609-.0085.522-.0137.7828-.0249.1554-.0067.2289-.1159.2811-.2495.0316-.081.0695-.1594.1045-.239"/>
    <path class="cls-3" d="M507.003,130.8504c.1104-.0361.2161-.0021.3146.0379.2684.1089.5595.1489.8186.2844.1937-.0366.3267.1128.4902.1687.2009.0687.3985.1477.5962.2257.1699.0671.1995.1158.1986.3098-.0007.1612-.0309.3157-.117.4533-.1404.2244-.2323.2598-.4904.204-.0963-.0208-.1943-.0351-.292-.0479-.1049-.0138-.1984-.0425-.2821-.118-.1178-.1062-.1989-.0943-.302.0218-.0525.0591-.1058.1679-.1373.2764-.1575.1113-.3065.0276-.4588-.0007-.2895-.0537-.5716-.1412-.8641-.1825-.2496-.0352-.4922.0024-.7232.0785-.3685.1214-.7226.0676-1.0759-.0419-.416-.1289-.8201-.2947-1.2382-.4186-.2801-.083-.5552-.1844-.8295-.286-.1255-.0465-.2493-.0244-.3745-.022"/>
    <path class="cls-3" d="M499.0232,115.8589c.1126.1616.0988.355.128.5372.0514.3208.1293.6303.3268.8958.0551.0741.1081.0882.2007.0635.158-.0422.3153-.0881.4644-.1522.0878-.0378.1612-.0343.2348.0058.1851.1008.3771.1781.5848.2139.151.026.3051-.0009.4562.033.0501.0112.0732-.0504.1037-.0821.2251-.2335.4719-.4368.7615-.5916.099.0712.1183.1757.1264.2823.0088.1159-.0035.2314-.0223.3461-.0096.0583-.0341.1098-.0704.155-.063.0785-.1455.1371-.2021.2245-.0293.0453-.103.0448-.1599.0496-.0904.0077-.1784.0216-.257.0722-.0509.0327-.1081.0292-.1634.0225-.0321-.0038-.0655-.0271-.0931.0019-.1229.1289-.2913.1232-.4449.1524-.2935.0557-.5896.0972-.8876.1213-.2608.0212-.522.0376-.7827.0605-.3813.0335-.7654.0225-1.1454.0804-.087.0132-.1796.0135-.2683-.0093"/>
    <path class="cls-3" d="M508.7672,129.2032c-.2337-.0279-.4673-.0559-.701-.0833-.0364-.0043-.0632.0102-.0952.0331-.0757.0542-.1629.0586-.2557.0405-.0916-.0178-.1864-.0201-.28-.0255-.1089-.0063-.218-.0101-.3271-.0114-.0308-.0004-.0618-.0089-.094.0099-.1157.0677-.2186.0265-.3281-.0319-.1076-.0574-.2264-.0976-.34-.1382-.1122-.0401-.2466-.0213-.3711-.0189-.5063.0097-1.0129.0155-1.5187.0379-.2656.0117-.5298.0319-.7946-.003"/>
    <path class="cls-3" d="M490.8331,123.7485c.1342.1212.1391.2911.1633.4536.0059.0395.0059.0799.0124.1192.0144.0875.0605.1423.1514.1558.2145.0318.3721.1733.5362.2996.0281.0216.0186.0654.0159.1059-.0207.3113-.1475.5921-.2387.8824-.0836.2658-.1848.5259-.2783.7884-.029.0815-.0421.1645-.0205.2512.1342.0377.2573-.018.3827-.0601.3002-.1006.3652-.0688.5117.2635.0497.1126.0728.2375.1073.357.0319.1104.0748.2152.1879.2604.0448.0179.0598.0559.079.087.0897.1445.2286.219.3774.2684.0547.0182.104.0388.1372.0778.308.3622.695.6152,1.0988.8478.1378.0794.2672.1758.3741.2974.0705.0802.126.1733.0809.2851-.0467.1159-.2022.1936-.3256.1805-.0736-.0078-.1479.0038-.2222-.0111-.044-.0089-.0802.0119-.1058.0575-.1203.2139-.304.2233-.5137.1701-.0975-.0248-.1999-.0451-.3034-.0153-.0501.0144-.0881-.0228-.1284-.0466-.1036-.0612-.2132-.0844-.3263-.0344-.0394.0174-.0756.0139-.105-.0032-.112-.0652-.2298-.0665-.3514-.0462"/>
    <path class="cls-3" d="M506.6292,130.5997c-.1715.1365-.3693.2359-.5268.3928-.0363.0362-.0842.0437-.1396.0265-.1943-.0602-.3956-.0474-.5954-.0502-.0284-.0004-.0516.0098-.0695.0256-.1868.1655-.362.3432-.4898.5612-.0737.1257-.169.1667-.3055.1308-.5151-.1353-1.04-.2323-1.5426-.4167-.0856-.0314-.151-.1043-.2448-.1149"/>
    <path class="cls-8" d="M487.0243,130.6952c-.0935.1194-.1844.2409-.281.3576-.1394.1683-.2067.376-.2736.5756-.0851.2539-.2612.3117-.4852.3204-.1636.0064-.3271.0167-.4907.0229-.0524.002-.0952.0196-.1284.0604-.0549.0673-.1169.1303-.1617.2041-.0582.0958-.138.1577-.2356.2017"/>
    <path class="cls-3" d="M497.3174,114.0208c.1398-.1205.3102-.1276.4561-.0245.1195.0844.2125.1966.315.299.039.039.0758.0885.1399.0589.0634-.0293.0887-.0847.0819-.1544-.0114-.1173.0539-.2199.0604-.3341.0014-.0246.031-.0366.0559-.0494.0936-.0479.1925-.0487.2928-.0463.0705.0017.0975.0543.1293.107.1066.1765.1439.3761.1852.5736.0592.2831.0351.5731.059.8592.0023.0276-.0106.0631.002.0823.1051.1599.0019.2859-.06.419-.0052.0113-.0057.0327-.0122.0344-.1577.0426-.2464.2062-.4194.234-.11.0177-.1758.1398-.2182.235-.1312.294-.3597.5077-.5543.7493-.0698.0866-.0968.1983-.1806.2811-.0394.0389.0064.1392.0294.2087.0554.1668.1328.325.1666.5007.0169.0879.0088.1773.0318.2632"/>
    <path class="cls-3" d="M492.1007,130.8862c-.3057-.1989-.6104-.3995-.9177-.596-.127-.0812-.2581-.1551-.3958-.2177-.1022-.0465-.2022-.0398-.3046-.0212-.2397.0435-.4528.1645-.6768.2527-.1493.0588-.2876.0582-.4336-.0018-.3066-.126-.6164-.2441-.9222-.3721-.1901-.0796-.3866-.0838-.5845-.068-.0876.007-.1595.0799-.1817.1545-.0358.12-.1217.15-.2157.1833"/>
    <path class="cls-3" d="M495.4013,116.2409c.0006-.1925-.0626-.3739-.0934-.561-.0513-.3117-.1538-.6118-.1814-.9304-.0142-.1643-.0415-.337-.1522-.4822-.0328-.0431-.0063-.1368-.0642-.1862-.0681-.0581-.1379-.1146-.2103-.167-.0916-.0664-.1972-.1165-.2774-.1944-.111-.1078-.2256-.1116-.3526-.0557-.0563.0248-.0981.0147-.1536-.0103-.166-.0745-.3485-.0857-.5239-.125-.2545-.057-.5211-.0672-.7594-.1895-.0516-.0265-.0908-.0028-.1158.0266-.1864.219-.4044.4069-.5782.6399-.1207.1619-.0892.3249-.0644.4923.0531.3589.1131.7168.1755,1.0741.0113.0648.0033.1278.0098.1913"/>
    <path class="cls-4" d="M503.3578,117.6374c.035.1122.1162.1904.1998.2611.1812.1534.2256.3686.1347.5724-.051.1145-.0244.2124.0063.3117.1054.341.0833.6909.0767,1.039-.0018.0958-.0322.1974-.1488.2268"/>
    <path class="cls-7" d="M489.9451,126.3864c.109.008.219.0095.3269.0252.2134.031.3384.1872.4421.358.0879.1448.1589.3005.235.4526.0196.0391.0468.0719.0693.108.0574.0922.1146.1087.2138.0503.1079-.0636.237-.0604.3601-.0497.0559.0049.077.0466.0972.1045.0572.1638.0653.3341.0906.5025.0541.3603.0884.7245.1967,1.0747.0164.0529.0228.1109.0235.1667.0023.1825.0413.3572.1089.524.0176.0433.0014.0755-.0049.1081-.0481.249-.0211.4876.0844.7164.0714.1547.0676.2013-.0475.3342-.0775.0895-.0193.1855-.0067.2741.0094.0656.0869.0679.1471.0729.0625.0053.1247.0153.187.0233"/>
    <path class="cls-8" d="M506.1384,130.0984c-.3544.0199-.7093.0328-1.063.0618-.3036.0249-.6069.0453-.9115.0462-.1334.0004-.2669.0071-.3739.1068"/>
    <path class="cls-8" d="M487.994,132.8675c-.1501.2498-.3969.343-.6549.4032-.3179.0741-.644.0884-.9689.1135-.2575.0199-.4605-.0664-.6312-.2541"/>
    <path class="cls-3" d="M493.7773,121.433c0-.0318-.0037-.0642.0007-.0954.0127-.0886.0237-.1688-.0572-.2411-.0909-.0813-.1947-.1166-.3054-.1023-.2343.0302-.4752.0219-.7007.1065-.0688.0258-.1213-.0092-.1752-.0279-.376-.13-.7464-.2751-1.0989-.4636-.1786-.0955-.2843-.2555-.3479-.4424-.0326-.0959-.1016-.1183-.1783-.1281-.0777-.0099-.1099.0613-.1388.1177-.1274.2479-.1248.5189-.1144.787.0042.1067.0779.1982.1506.2724.0746.076.0808.1542.0708.2533-.0123.122-.0074.2466-.0021.3697.0136.3103.0449.6198.0338.931-.0013.0359.003.0777-.013.1065-.1251.2243-.0677.4687-.0798.7052-.0024.0476-.0004.0955-.0004.1432"/>
    <path class="cls-8" d="M494.2447,113.6031c.0006-.0971-.0099-.1918-.0336-.2868-.0506-.2029-.1363-.2903-.3404-.3088-.3024-.0274-.6018-.0708-.8999-.1304-.2533-.0507-.3443.0339-.362.3083-.0028.0438-.0076.0875-.0115.1313"/>
    <path class="cls-3" d="M500.2617,120.6691c.0299.119.1143.1494.222.1434.0856-.0047.1717.008.2571-.0117.1317-.0303.2077.0596.2536.1564.0904.1907.318.2153.5055.0934.0933-.0607.1065-.1401.0472-.2383-.1581-.2616-.263-.5499-.3976-.8234-.0454-.0922-.0881-.1864-.1412-.2739-.0787-.1298-.3121-.1491-.4067-.0357-.0301.0362-.0329.0838-.0129.1305.0645.1509.1527.2882.2334.4299.0262.046.0472.0952.0706.143"/>
    <path class="cls-8" d="M502.2829,118.2581c.1516.1055.3092.1811.5026.1718.0775-.0037.1418.0523.1663.1497.0339.1344.0562.2684.0552.4066-.0002.0294.0013.0554-.0212.085-.0869.1145-.0978.2537-.1073.3924-.0103.1513-.0209.3026-.0357.4535-.0071.0721-.0241.1432-.0691.203"/>
    <path class="cls-7" d="M484.968,132.4736c-.0022-.0188.0063-.0486-.0233-.0468-.1178.0072-.2346-.0138-.3532.0409-.071.0327-.113.0875-.1203.1381-.0175.1207-.0235.2495-.0002.368.0199.1009.11.1735.2166.1779.2686.0111.5354.0578.8063.0288.1458-.0156.2377-.0543.2999-.2142.0674-.1731.1577-.3537.3417-.4464.0093-.0047.0085-.0304.0124-.0463"/>
    <path class="cls-3" d="M501.8097,113.1734c.0338.1261.0096.2298-.0581.3498-.123.218-.2015.4615-.3115.6878-.1929.3968-.3739.7999-.5932,1.1831-.0434.0758-.0878.1437-.1763.1665"/>
    <path class="cls-8" d="M502.2829,119.4994c-.1399-.2505-.6429-.1654-.7595.0955-.0204.0457-.0244.0935-.0238.1433.0028.2454.189.5248.4101.5945.0933.0294.194.0342.2914.0498.0076.0012.0159-.0014.0233.0004.16.0381.1919.1402.0817.2622-.0261.0289-.0544.0559-.0816.0837"/>
    <path class="cls-4" d="M506.8862,129.2271c.0128.0733.0478.1282.1035.1808.3499.3307.7325.6205,1.0993.9299.0934.0788.175.1726.2704.2484.1312.1043.1188.2345.0795.3712-.0211.0735-.0534.1436-.0807.2152"/>
    <path class="cls-8" d="M490.8097,123.7485c-.1344.1134-.121.28-.1369.4301-.0192.1814-.0447.3576-.1441.5124-.1256.1957-.1419.3972-.0464.6093.0139.0308.0247.0632.0352.0954.0803.2465-.0003.3662-.2569.3819-.1766.0108-.3075.0899-.3356.2275-.0204.0999-.0231.2079-.0096.3089.0064.0482.0133.0806-.0162.1207-.062.0842-.0876.184-.1059.2859"/>
    <path class="cls-8" d="M491.9664,117.1361c-.0769-.0776-.1001-.1878-.1613-.2762-.0539-.0779-.1188-.0948-.2009-.0816-.1103.0177-.2136.0125-.292-.0839-.0245-.0301-.0601-.0422-.0937-.0463-.107-.0131-.1391-.0983-.149-.1808-.0327-.2721.0733-.522.3701-.6007.1938-.0513.3907-.059.5857-.0883.1064-.016.1429.0841.1729.1649.0283.0761.0376.1594.061.2378.0405.1357.0775.1631.2096.1673.1555.005.2551.0894.2535.2506-.0017.1734.0798.2574.2238.3262.1403.0669.2813.1087.4335.1313.0772.0115.1319-.0337.1992-.0396"/>
    <path class="cls-3" d="M490.9149,121.3494c.2222.0173.4177.1155.6206.1995.3645.151.7169.3341,1.0971.4445.0808.0235.1634.0403.2452.0602"/>
    <path class="cls-4" d="M493.5086,114.5818c.0538.4128.1726.8114.2585,1.2171.0464.2189.0645.4441.1388.6568.0112.032.0233.0637.035.0955"/>
    <path class="cls-5" d="M501.8506,113.4002c.1622.0624.2455.1842.2716.3576.0064.0423-.0047.077-.0167.107-.1293.3232-.2717.6402-.4406.9446-.0548.0988-.0923.2074-.1424.3091-.0289.0587-.0214.1189-.0224.1795"/>
    <path class="cls-3" d="M490.2139,127.3293c-.0932-.0015-.099-.0879-.1136-.1441-.0486-.1875-.1582-.3282-.2973-.4543-.207.0459-.3412.1771-.3932.3842-.0482.1918-.1428.3607-.2241.5366-.1279.2768-.148.5722-.1369.8712.0012.0331.0031.0573-.0148.0838-.0469.0697-.0772.1477-.1054.2266"/>
    <path class="cls-8" d="M492.8777,122.0895c-.0016-.0676.0485-.0474.0818-.0469.0985.0016.2028-.0307.2399-.1109.0859-.1857.244-.1631.3911-.1748.1435-.0114.2881-.0077.4321-.0141.118-.0052.2055-.0398.2506-.1767.0403-.1224.0994-.2347.0289-.3593-.0752-.1328-.3283-.1557-.4781-.0483"/>
    <path class="cls-5" d="M491.1135,127.4367c-.0353.3382-.0141.6773.0048,1.0143.0165.2948.0368.5914.088.8836.0012.007-.0071.0158-.011.0238"/>
    <path class="cls-3" d="M498.9297,120.8123c.0195-.1128.1143-.1841.1447-.2971.0642-.2385-.008-.4108-.2383-.4903-.2308-.0796-.4661-.0791-.7002-.0213-.0475.0117-.1013.0333-.1308.0917-.0536.1063-.0058.2017.1304.2261.1091.0195.2197.0284.3275.0589.0394.0111.0728.0276.1043.0504.0792.0575.0796.1125.0126.1793-.1085.1083-.2459.1535-.3865.1889-.1065.0268-.1904.0718-.2096.1924-.0147.0925.0478.1733.1391.1519.2963-.0694.5138.0923.7363.2427.1118.0755.1725.0789.2575-.0007.0997-.0934.099-.1792-.0126-.3095-.0659-.0769-.1355-.1493-.1626-.2515"/>
    <path class="cls-3" d="M492.9945,129.8836c-.0247.1313-.0017.2626-.0008.3939.0024.3581-.0017.7162.0024,1.0742.0012.1003-.0187.1872-.0834.2626"/>
    <path class="cls-3" d="M500.2032,119.7858c-.1367-.0651-.2298-.0404-.3164.0708-.0856.1099-.1007.2404-.1297.3703-.059.2643-.131.5255-.1957.7885-.0094.0384-.0144.0799-.0113.1191.0081.1021.093.1482.1855.1009.0703-.0359.1106-.0941.1439-.1709.0687-.1584.1275-.3266.2653-.4432"/>
    <path class="cls-8" d="M497.2707,120.1559c.0215.3864.0779.7701.0823,1.1578.0002.0199.003.0422.012.0593.0296.0563.0236.1451.1279.1332.0969-.0111.1299-.0665.1284-.1566-.004-.2427-.0038-.4856-.0133-.728-.0052-.1317.009-.2627.0093-.3939.0002-.1126-.0566-.1244-.125-.1408-.0315-.0076-.0689-.011-.1052.0083-.0809.043-.1681.0461-.2564.0251"/>
    <path class="cls-3" d="M489.4194,130.922c.0195.004.0403-.0081.0588.0116.1241.1321.2623.2507.3633.4052.0206.0315.0393.0685.0309.0957-.0336.1085.0367.1751.0846.2514.0379.0604.083.1167.1153.1799.0443.0865.1117.137.1998.1667.2313.0779.35.2476.3503.501.0002.1668.0046.3329.047.4953"/>
    <path class="cls-3" d="M494.1045,116.4677c.051-.1049.1316-.1666.2451-.1919.3294-.0736.6558-.149.9947-.0394.0812.0263.1271.0449.1156.1359-.0015.0117-.0049.027.0005.0353.1128.1741.112.3787.1532.5729.0666.314.1158.6326.22.9374"/>
    <path class="cls-3" d="M502.7736,131.1607c-.0039-.1507.0629-.2788.1294-.4053.066-.1256.1445-.2445.2065-.372.0212-.0435.0476-.0588.0848-.0697.0226-.0066.0511-.0014.0693-.0135.1713-.1136.3358.0013.5031.0135.008.0006.0177.0056.0231.0118.1743.201.4276.2065.655.2727.2395.0697.4889.1055.7126.2277.0657.0359.1224.0798.1632.1439"/>
    <path class="cls-8" d="M502.4698,119.4695c-.1741.0203-.3198.1278-.49.1644-.0939.0202-.1621.1467-.1525.2354.0115.1067.0924.1447.1756.1653.1874.0465.3808.0569.5721.0584.2251.0018.2341.045.2507.2543.0091.1153.0096.2439-.0501.3586-.0232.0446-.0398.0773-.0952.0844-.0594.0076-.1171.0298-.1755.0459-.0848.0234-.1664.0194-.2455-.0237-.1264-.0689-.2482-.0793-.3751.0097-.0808.0567-.1846.0538-.2791.0736"/>
    <path class="cls-3" d="M502.3063,116.7899c.0184-.1216-.0479-.1908-.1396-.2515-.2356-.156-.5027-.2463-.749-.3797-.0259-.014-.0616-.0093-.0928-.0133-.1488-.019-.2226-.1038-.1705-.2489.0734-.2043.1649-.4051.3222-.5629.0637-.0639.1217.0031.1737.0183.0465.0135.0827.0715.0974.1365.0365.1605.0292.1826.2432.2026.1359.0127.2728-.0128.4093.0227.14.0365.1774.0827.1514.2288-.0355.1994-.0268.2053.1748.2643.1444.0423.2925.0745.423.1625.0633.0427.107.0918.1383.1581"/>
    <path class="cls-8" d="M496.8501,120.3946c-.0044-.1488-.0219-.1631-.1635-.1678-.3074-.0102-.6082.0486-.9115.0829-.0335.0038-.0627.0131-.0936.0243-.1222.0441-.1604.0577-.1274.2258.1857.0716.3837.0507.5708.0295.155-.0176.3141-.0342.469-.0719.0941-.0228.1793-.0533.2562-.1109"/>
    <path class="cls-8" d="M490.8097,129.7403c-.0922-.1797-.1626-.3722-.2817-.5361-.092-.1267-.199-.1828-.3745-.1408-.1781.0426-.3727.0289-.5586.016-.1203-.0083-.2428-.0088-.3633-.0402-.1098-.0286-.2023-.0777-.2783-.1596-.0154-.0166-.0234-.0471-.048-.0454-.2172.015-.4069-.0923-.6062-.1494-.1727-.0496-.3366-.0119-.5036-.0035-.0737.0037-.1197.0734-.1513.1403-.0235.0497-.0397.1031-.0592.1548"/>
    <path class="cls-3" d="M488.6716,129.5732c-.2528-.1073-.4717-.2783-.7149-.4013-.1474-.0746-.2883-.1847-.4651-.1827-.2188.0024-.4428-.0324-.6536.0489-.2276.0879-.3922.2553-.5009.4766-.0139.0282-.0493.0679-.0136.106.1039.1107.0676.2302.0372.359-.0725.3077-.0505.296.2549.4523.123.0629.2707.0882.3699.1837.1214.117.2707.1846.3986.2855.1082.0853.2278.133.3528.1761"/>
    <path class="cls-8" d="M492.5389,129.8239c-.0039.4138.0009.828-.0184,1.241-.0043.0917.0037.1866-.011.2738-.0173.1028-.1117.1758-.1678.2646-.1326.2101-.2533.4274-.3286.6674"/>
    <path class="cls-3" d="M505.858,131.8172c.0735-.161.2247-.2272.3622-.3104.0459-.0277.0879-.0034.1283.0127.1319.053.2617.1124.4093.0955.015-.0017.0361.002.0459.0119.159.1614.38.1824.575.2569.1673.064.3319.1356.4996.1987.0876.0329.146.1129.1879.2001"/>
    <path class="cls-8" d="M495.413,116.4319c-.2567.1944-.5388.3376-.841.4423-.1549.0537-.2912.0161-.4208-.0723"/>
    <path class="cls-3" d="M496.7449,118.2342c-.0876-.1951-.2505-.2504-.444-.2509-.1465-.0004-.2943.0113-.4331-.0577-.0238-.0118-.0539.0088-.0819.0197-.1454.0566-.2926.1086-.4313.1817-.1349.0711-.2739.0605-.4085.0103-.2652-.0989-.5254-.155-.797-.0145-.0605.0313-.146.012-.22.0159"/>
    <path class="cls-3" d="M490.3599,117.1361c-.0732.1588-.1187.3239-.0987.5012.0122.1078.0232.2167.0477.322.0446.1915.1834.2815.3606.3227"/>
    <path class="cls-3" d="M492.1533,114.2237c.1725.0177.3356.077.5022.1203.2847.0741.5648.1662.8861.2171.1826-.2511.3294-.5514.4577-.8626"/>
    <path class="cls-8" d="M497.0604,113.985c.0428.004.0857.0109.1285.0113.0832.0008.1381.023.1678.1186.0267.0861.098.1567.1336.2411.0396.0939.0421.1901.0208.2988-.0261.1335-.0247.2795.0076.4157.0191.0807.1027.0952.1726.1072.1984.034.2286.0673.2334.2754.0007.0318-.0011.0637.0003.0955q.0061.1313-.1171.1313"/>
    <path class="cls-3" d="M503.4396,116.5393c-.057.0187-.1171-.0483-.1773.0221-.1063.1243-.1116.2192.015.3224.0802.0654.1635.1263.2322.2048.0966.1103.1012.231.0113.3455-.0396.0504-.0945.0904-.1257.145-.0436.0764-.1042.0525-.1402.0199-.1161-.1054-.2551-.1882-.3353-.3316"/>
    <path class="cls-7" d="M497.9133,118.3774c.0035-.0709-.0451-.0544-.0817-.0471-.2358.0473-.4688.0267-.7012-.0241-.05-.0109-.1073-.004-.1507-.0265-.1817-.0938-.3227-.0099-.4424.1123-.0932.0952-.1988.0879-.3062.0782-.0778-.0071-.1543-.0321-.2339-.0337-.0274-.0005-.0375-.0205-.0351-.0472"/>
    <path class="cls-8" d="M497.481,114.6892c-.0195-.008-.0428-.0113-.0578-.0246-.1923-.1691-.3632-.0675-.525.0504-.1068.0779-.1815.1826-.1663.3324.0074.0725-.0382.1349-.0571.2028"/>
    <path class="cls-3" d="M495.5649,116.217c.0701-.0875.1458-.1711.209-.2635.1067-.1559.2668-.2072.4337-.2493.0277-.007.0401.0156.0601.0332.1137.1005.1613.2414.2169.3736.0467.1111.1224.1383.2253.1424.1247.0051.2493.0152.3739.0232"/>
    <path class="cls-8" d="M503.0306,119.0578c.0785.066.1238.1483.1549.2497.0674.2199.1787.4209.2873.6226.0377.07.1237.0813.1536.1542"/>
    <path class="cls-3" d="M500.8809,113.424c-.1359.079-.1689.2253-.1941.359-.043.2282-.1102.4531-.1026.6915.0025.0786-.0516.1584-.0767.2387-.0526.1677-.0916.3385-.1189.5128-.0183.1169-.0985.2019-.1736.2867"/>
    <path class="cls-4" d="M487.9005,132.4975c.1606-.1468.142-.3366.1152-.5249-.012-.084-.0156-.1638.0256-.2386.0434-.0789.112-.0805.1752-.0128.0516.0552.0818.1217.1039.1918.0651.207.1711.394.2712.5837.0279.0528.0502.1021.045.1621"/>
    <path class="cls-7" d="M488.3912,130.4445c-.0506-.004-.1028-.0014-.1516-.0133-.0938-.023-.1819-.0331-.2699.0238-.0437.0283-.0988.0299-.151.0251-.1764-.0162-.3501.0232-.5257.0268-.0925.0019-.1696.0592-.2337.1286"/>
    <path class="cls-8" d="M496.1958,121.9104c.0078-.0769-.0091-.1457-.0452-.2157-.0975-.189-.0504-.3961-.0586-.596-.0016-.0394.014-.0796.0221-.1193.015-.0736.0297-.1489.1284-.143.1217.0073.162.0511.1762.1667.0226.183.0322.3665.0092.549-.0253.2012-.0172.2182-.2205.215"/>
    <path class="cls-3" d="M506.4773,129.0958c-.086.1495-.1026.3279-.1879.4769-.0768.1341-.1164.2782-.141.43-.0113.0696.0003.1134.0589.1573.1136.0852.2324.1694.3253.2756.1235.1412.2763.2432.4117.3676.0299.0274.0449.0527.04.1074-.0198.2222-.0769.4314-.169.6317-.0109.0237-.0261.0443-.0225.072"/>
    <path class="cls-7" d="M492.5389,131.3039c.072.0006.1184.0473.1635.0956.0627.0672.1305.1306.1855.204.0642.0857.073.1957.0931.2976.0304.1537.0471.3102.0726.465.0116.0703.0305.1394.0461.209"/>
    <path class="cls-8" d="M498.5676,116.0738c-.0309-.069-.021-.1425-.0237-.2148-.0045-.1206-.0441-.1282-.1487-.1847-.1485-.0803-.293.0057-.4352-.0301"/>
    <path class="cls-7" d="M491.1252,116.6348c-.0935.1313-.1901.2604-.2795.3945-.0842.1263-.193.1841-.3392.1407-.0492-.0146-.0941-.0011-.1408-.004"/>
    <path class="cls-5" d="M501.2431,116.1573c-.0186.0868-.0691.1525-.128.2154-.1669.1783-.3031.3825-.4562.5724"/>
    <path class="cls-3" d="M493.6488,117.1003c-.0119.1003.0219.1848.0813.263.0683.0899.1327.1828.1992.2741.045.0618.056.1246.0381.2037-.0193.0851-.0531.1703-.0386.2619.0072.0451-.0315.0668-.0588.082-.2643.1471-.3772.4081-.4899.6699"/>
    <path class="cls-3" d="M500.2266,119.7799c-.0054.227-.0662.4436-.1147.6629-.0223.1006.0414.1783.1397.211.2129-.1356.4759-.1192.676-.2652"/>
    <path class="cls-3" d="M489.0689,128.5587c.1471.0227.2643-.0659.3834-.1239.1755-.0854.3206-.0539.457.0651.1649.1437.3353.2859.3746.5243"/>
    <path class="cls-3" d="M494.9457,114.2595c-.2609.0875-.5219.1751-.7828.2626"/>
    <path class="cls-7" d="M493.1931,121.051c.0117.1751.0279.35.033.5252.0023.0795.0181.1497.0605.2148"/>
    <path class="cls-3" d="M491.7794,131.3397c-.2139.2013-.4214.4091-.6134.6326"/>
    <path class="cls-3" d="M496.8384,115.8112c-.0066-.062.0107-.1148.0585-.1551.0617-.0521.041-.1059-.0007-.1547-.0598-.0699-.1283-.1323-.1843-.2051-.0247-.0321-.0457-.0472-.0838-.0465-.2647.005-.3008.0085-.3482.2634-.0115.062-.0269.1207-.049.1786"/>
    <path class="cls-8" d="M499.1634,115.5844c.1161.0012.2262-.0222.3272-.0834.0149-.0091.0346-.0265.0461-.0225.1747.061.3513-.0161.5264.0097.155.0229.1502-.016.1992.1795.0285.1138.0539.2309.1512.3105"/>
    <path class="cls-5" d="M497.7497,117.2674c.1576.101.2562.2569.3622.4058.0508.0715.1013.1432.1519.2148"/>
    <path class="cls-3" d="M501.1379,116.0619c-.1131.0153-.207.0762-.3042.1306-.0365.0204-.0789.0297-.1161.0491-.0666.0347-.1709-.0029-.2065.0615-.1124.2037-.3099.3455-.3891.5708-.005.0141-.0006.0316-.0006.0475"/>
    <path class="cls-3" d="M494.0694,118.7116c.0245.215.0496.4299.1869.6087"/>
    <path class="cls-11" d="M494.1395,116.8138c-.0928.1846-.2526.2562-.444.2745-.0689.0066-.1001-.0405-.1157-.0958-.0331-.1166.0405-.2745.1509-.3336.0262-.014.055-.0228.0815-.0363.183-.0937.2929-.0337.3272.1793"/>
    <path class="cls-7" d="M508.3466,132.4736c-.0574.0879-.1142.175-.2099.2275-.1159.0636-.224.0623-.3275-.0246"/>
    <path class="cls-9" d="M492.6323,132.9272c.0599-.0206.1222-.036.1305-.1191.0017-.0174.0269-.0357.0451-.0474.1397-.0896.2633-.2083.456-.1716.1442.0275.3047-.0336.4316.0874"/>
    <path class="cls-3" d="M489.8517,131.5307c-.1453.0178-.2825-.0258-.4204-.0605-.0427-.0108-.0833-.0293-.1287-.023"/>
    <path class="cls-3" d="M496.815,115.8052c.1781.0914.3219.2293.4653.3663.0203.0194.0348.0322.0604.0336"/>
    <path class="cls-8" d="M487.6552,130.1223c.0537.0358.1103.0611.175.073.1178.0216.204.0911.2573.2016"/>
    <path class="cls-4" d="M492.831,117.6851c-.1478.1393-.2617.3143-.4323.4297"/>
    <path class="cls-7" d="M495.9621,118.4252c-.204.0328-.3139.1683-.3739.3581"/>
    <path class="cls-12" d="M494.5367,116.5632c-.1487-.0167-.2637.0836-.3972.1194"/>
    <path class="cls-12" d="M496.4061,121.7433c.0611.0308.1059.0995.1869.0836"/>
    <path class="cls-12" d="M501.909,120.5259c.0098.0554-.0223.1169.0234.1671"/>
    <path class="cls-12" d="M491.8729,124.8108c-.0467.008-.0935.0159-.1402.0239"/>
  </g>
  <g>
    <path d="M428.0067,136c-.3082-.5356-.5519-1.0824-.6897-1.6593-.1481-.6201-.0963-1.2408-.0469-1.8633.0647-.8151.2652-1.6161.3675-2.4275.1006-.7974.2351-1.592.3634-2.3869.1337-.8286.2513-1.6577.3231-2.4921.0717-.8328.3206-1.6378.7664-2.3919.1768-.2992.4993-.524.768-.7714.5283-.4864,1.0987-.9401,1.7048-1.3662.3233-.2273.5969-.5063.8822-.7686.3128-.2875.3054-.5814.0226-.8903-.2055-.2245-.4586-.4162-.7549-.5601-.2341-.1137-.3129-.0809-.3798.1285-.0702.2196-.1082.4412-.0336.6661.0166.0502.0551.1048-.0114.1467-.0739.0466-.1381.0029-.201-.0267-.6843-.3221-1.1436-.7976-1.4242-1.3924-.1672-.3544-.2956-.717-.3269-1.099-.0581-.7082.1968-1.3344.7472-1.8808.0739-.0734.1217-.151.1718-.2349.2735-.4573.4647-.9476.8777-1.3485.5591-.5426,1.2847-.8323,2.1044-1.0215.6232-.1438,1.2468-.2531,1.8946-.2712.2496-.0069.4939.0218.7202.0954.605.1968,1.2439.3363,1.8052.6078.6152.2976,1.0953.7048,1.4771,1.2161.5292.7088.7572,1.4864.9854,2.2731.1106.3813.3005.7433.4501,1.1152.2664.6622.5283,1.3217.9336,1.9436.2179.3343.2604.7348.374,1.1076.2306.7564.3473,1.5318.7076,2.2679.3557.7266.4905,1.511.6565,2.2812.0814.3776.1335.7631.1459,1.1462.0321.9915-.2258,1.9493-.5544,2.8982-.1166.3366-.2877.6412-.528.9329-.3083.3742-.4756.815-.792,1.1889-.2636.3116-.4826.6562-.795.9305-.4927.4326-.8564.9328-1.2628,1.4117-.0569.067-.1337.1311-.2445.0949-.1287-.042-.1009-.1309-.0808-.221.104-.4663.4625-.8419.6774-1.2686.0735-.1459.1732-.283.2699-.4386-.2232-.0318-.4061.0073-.5912.0546-.089.0228-.2096.0537-.2598-.0426-.0554-.1064.0738-.1287.1551-.1656.0847-.0385.1825-.0602.255-.1441-.1957-.0971-.1556-.2189-.0617-.361.236-.357.2922-.7349.1494-1.1269-.0276-.0758-.0063-.1456.0211-.2145.0938-.2356.2838-.2734.4949-.092.0308-.0176.0637-.0353.0952-.0546.0693-.0426.1446-.0739.2211-.0202.0673.0472.0333.108.0143.1665-.1667.5143-.3474,1.0235-.7362,1.4638-.0233.0264-.0389.0572-.066.0978.6221-.3322,1.4136-1.5262,1.5062-2.277-.2159.0312-.3898.133-.5853.1816-.1092.0272-.2344.1108-.328-.0109-.0818-.1064-.0257-.2046.0735-.2874.3568-.2979.6595-.6224.811-1.0289.0958-.257.0557-.3345-.2694-.4373-.1349.0924-.124.2377-.1887.3557-.0452.0823-.0356.2393-.2074.197-.1666-.0411-.0805-.1649-.0391-.2548.2253-.4889.3524-.9931.3698-1.5156.0023-.07-.021-.165.1002-.1784.1391-.0155.1402.085.1588.1623.0092.0382.019.0764.0339.1359.1419-.0898.1173-.2091.1433-.3101.0225-.0874-.0136-.2136.1374-.2248.1672-.0124.1323.1207.1608.2043.0077.0224.0354.0404.0597.0667.1185-.0381.125-.1181.1418-.1951.1516-.696.2404-1.3927.0558-2.0948-.0187-.071-.0344-.1714.0811-.1817.1879-.0166.1582-.1171.1699-.214.0536-.446-.1391-.8601-.3311-1.2526-.2348-.4802-.2915-.9739-.3657-1.4715-.0218-.1465-.047-.2936-.1338-.4212-.3306-.4862-.5541-1.0028-.7019-1.5439-.1069-.3914-.3132-.7527-.5303-1.1105-.2074-.3417-.3096-.7136-.4314-1.078-.1366-.4087-.4031-.766-.6153-1.1456-.3951-.7067-1.0441-1.2643-1.6028-1.8743-.2372-.259-.5131-.4979-.8113-.7164-.3247-.2379-.725-.3303-1.137-.3859-.995-.1343-1.9068.0534-2.742.5045-.0396.0214-.0735.0496-.1112.0754.0404.0713.0767.1355.1195.2112.2188-.0842.4355-.1728.6578-.2506.1011-.0354.2363-.0865.2987.0327.0636.1214-.0752.1556-.1795.193-.0872.0312-.1873.0457-.2369.1284.3175-.0918.352-.0813.3973.1353.3216-.1187.6465-.2209.987-.2853.1296-.0245.2561-.0381.3833.0092.0607.0226.126.0398.1298.1045.0045.0754-.065.1028-.1371.1202-.2045.0495-.3956.1222-.5849.2018-.2079.0874-.3548.2332-.5348.347-.0955.0603-.0834.1362.0287.2094.1878-.1118.3791-.2226.5661-.3379.125-.0771.2601-.1391.4058-.1827.0917-.0275.2052-.0499.2478.0549.0372.0915-.0563.1266-.1423.1561-.2897.0994-.5267.258-.7463.4368.459-.1925.8739-.4461,1.3628-.5957.4746-.1453.9399-.1857,1.3903.0268.2084.0983.4693.2107.5546.3704.0937.1754.2128.369.2332.5564.0107.0986-.0973.2747-.2728.3652.1923.1315.431.1902.6337.298.2195.1168.4324.2402.6116.3966.0695.0607.1664.138.0532.2214-.1073.079-.1709-.0108-.2386-.0662-.0376-.0307-.0668-.0753-.1825-.0316.1624.1166.3269.2313.4863.3506.0658.0492.126.1049.1792.1634.0554.061.1522.1302.049.2067-.1001.0742-.1807.0002-.2499-.0548-.1431-.1137-.266-.2473-.4965-.3207.094.235.334.3484.4793.5179.1258.1468.2639.2874.3704.4444.0513.0755.1616.176.0261.2446-.1476.0747-.1822-.0623-.2422-.1331-.1194-.1409-.1826-.3444-.4864-.2795-.0526.1133.0424.1876.1179.2614.1568.1534.3166.3052.4272.4844.0454.0735.1381.1498.0699.2385-.0748.0972-.2009.0618-.313.049-.0572.0693.0177.1279.0185.1912.0008.0627-.0014.1261-.0845.1509-.0833.0248-.1325-.0216-.1809-.0722-.1984-.207-.4007-.4115-.6195-.6353-.0412.152.2882.2436.0627.3759-.1399.082-.1947-.0846-.318-.1094-.0288.0981.0427.1666.0839.2414.0333.0605.0388.1186-.0431.1552-.0701.0314-.1265.0012-.1712-.042-.1032-.1-.1941-.2103-.3668-.2879.0655.1821.238.282.3033.4418.0438.1072.2327.0798.34.0102.2025-.1313.2638-.0592.3332.1063.0666.1587-.0304.2881-.0775.417-.0425.1165-.2231.0923-.3096.0193-.1547-.1306-.3308-.2442-.4192-.4307-.0589-.1242-.213-.2237-.3686-.2958-.0847.0549-.0423.1824-.174.1825-.1307.0001-.1604-.1005-.211-.1734-.2064-.2968-.2114-.2989-.5106-.1171.2467.2026.4646.4226.6628.6552.0154.0181.0617.039.0793.0325.1954-.071.2725.0553.3489.1485.2359.2878.4164.6013.6037.911.034.0562.0729.1244.0014.1862-.0743.0643-.1513.0295-.2231-.0015-.0687-.0296-.1438-.0201-.214-.0338-.2086-.0406-.2731-.2008-.1205-.3211.077-.0607.0712-.1106.0384-.1755-.0062-.0123-.0134-.0243-.0209-.036-.1288-.2005-.1889-.4651-.5863-.4015.0513.0653.1124.1404.1702.2172.0458.0608.1245.1309.0225.1917-.1142.0681-.1771-.0213-.2356-.0815-.233-.2397-.462-.482-.6938-.7225-.0284-.0295-.0453-.074-.1194-.0698-.0524.0918.0317.1462.0958.1984.2163.1763.3647.3911.5227.6002.0482.0638.133.1359.0392.2146-.0904.0758-.1863.0109-.2719-.0153-.1521-.0465-.2414-.1533-.3328-.2561-.0554-.0622-.1155-.1216-.188-.174.1313.2574.3156.489.5176.7102.0885.0969.2277.1191.3765.1026.2845-.0317.508.0464.6587.2516.0701.0955.1737.0766.2815.0504.2416-.0588.5839.0477.6945.2183.0608.0938-.005.1556-.1124.1398-.2281-.0336-.4498.0742-.6763.0063-.0545-.0164-.1128-.0034-.161.0288-.0841.0561-.1691.1162-.2771.0318-.1187-.0927-.0158-.1677.0402-.2517-.0763-.1037-.1812-.1144-.3254-.0755.0463.1153.0053.2259.0195.3363.0086.0673-.0127.1225-.0984.1402-.0845.0174-.1391-.0261-.1777-.081-.0405-.0575-.071-.1201-.1151-.1756-.0713-.0897-.1415-.1741-.3082-.1556-.165.0183-.2418-.1895-.4785-.1146.2136.3424.2221.7482.5511,1.0571.1059.0995.2106.2101.2694.3306.2252.4617.443.9231.5162,1.4263.0498.342.1406.6785.0984,1.0259-.0045.0366.008.0794.0652.0993.0751-.0686.0395-.1512.0436-.2279.0036-.066-.0108-.1404.0845-.1718.108-.0356.1747.028.2202.0888.1182.1576.2896.1915.4998.1749.1934-.0153.4567.1832.4604.3348.0011.0452-.0235.0768-.0734.0935-.0623.0208-.1084-.0077-.1553-.0365-.0781-.0478-.1175-.1562-.2744-.1066-.0084.1692.113.3079.1872.456.0955.1905.2104.3745.3113.5632.0287.0537.044.1136.054.1719.0094.0547-.0047.1086-.084.1272-.0782.0184-.1237-.0208-.1583-.0687-.0654-.0903-.115-.19-.2444-.2592-.0702.1019.0072.1805.0446.2589.0293.0614.0794.1159.1159.1753.0376.0611.0295.1189-.047.1557-.0883.0425-.1588.0158-.2026-.0535-.1121-.1774-.2668-.3319-.398-.4973-.155-.1956-.3513-.3209-.6006-.419-.0934.0851-.0827.1987-.1276.2955-.0229.0494-.0379.1085.0294.1447.0624.0336.126.0107.1831-.0188.0972-.0502.2082-.1235.2911-.0048.0729.1043.0147.1901-.1014.2741-.2279.1648-.4403.3393-.7698.3555-.0276.0014-.0625.0222-.0788.0422-.247.3041-.5426.6002-.4514.9987.0817.3571-.0589.6976-.0748,1.0466-.0236.5174-.2235,1.016-.2521,1.5601.0964-.0599.108-.1324.125-.1947.1338-.4898.2971-.9745.3007-1.4837.0013-.1829.0781-.3647.0695-.5524-.0032-.0693.0281-.1391.1238-.1527.1062-.0151.1257.0577.1587.121.0435.0836.0398.1684.0399.2545,0,.0547.0015.1103.0877.1233.0997.0151.1361-.0452.1471-.1034.0322-.1702.0578-.3416.0755-.5133.0141-.1363.0547-.2372.2472-.2766.2432-.0499.3434-.1909.398-.3974.0523-.1978.2137-.3703.2157-.5927.0009-.0952.1319-.0889.2235-.017.0922.0723.0967.1805.1694.2613.1012-.0005.1796-.1283.2867-.0356.1027.0889.021.1711-.025.2554-.0569.1044-.116.2043-.2393.2703-.0905.0485-.1029.1284-.1165.2098-.0626.3745-.1278.7488-.1976,1.1225-.0145.078-.0482.1542-.0802.2292-.0279.0653-.0723.1293-.1758.1009-.09-.0246-.1191-.094-.1045-.163.0318-.1501.0801-.2979.113-.4479.0314-.1433.0405-.2878-.0041-.4291-.3374-.0257-.3833.0035-.4353.2441-.0479.2219-.1024.4428-.1584.6635-.0308.1217-.1053.2019-.2807.2018-.1933-.0001-.2761.0861-.3079.2465-.063.3171-.1221.6328-.1402,1.0028.2454-.2662.3132-.534.4127-.7904.0334-.0859.0586-.1862.1975-.16.1707.0321.1025.1462.0745.2298-.1781.531-.3601,1.0612-.5449,1.5907-.0296.0848-.0477.1703-.0366.2556.0232.1778-.0206.3381-.1231.4974-.0668.1038-.0873.2268-.1338.3398-.0464.1128.0017.1917.1385.2643.1954-.2626.3903-.5193.4817-.8168.079-.2573.1423-.5178.2216-.7751.0242-.0786.044-.1972.1861-.1731.157.0267.1051.1386.0898.2303-.0212.127-.1413.2672.068.37.0223.011.0262.0621.021.0927-.1085.638-.2208,1.2847-.6621,1.8324-.3377.4191-.6678.8515-1.1222,1.2021-.0296.0229-.0566.0484-.0886.0688-.0779.0496-.1638.1105-.2578.0347-.0993-.0801-.0153-.1436.0532-.2026.2589-.223.4925-.4617.6798-.7287.0442-.063.0904-.1285.1121-.1977.0408-.1301.0901-.2532-.0945-.3651-.1268-.0769-.1707-.2231-.3125-.3154-.1395-.0908.0446-.2152.0481-.3468-.1364.0656-.2646.1277-.3935.1889-.0504.024-.1055.0457-.1605.015-.0649-.0363-.0547-.0915-.0399-.1448.0226-.0809.0968-.1533.0654-.27-.1209.0956-.2522.1637-.2195.3024.0335.1421.1409.2227.3265.2581.2993.0571.3991.2359.246.4483-.2348.3256-.4274.6716-.7032.9773-.0648.0718-.1333.182-.268.1181-.1338-.0634-.0609-.1695-.005-.2467.0826-.1138.1856-.2178.2794-.3263.0807-.0932.1259-.1776-.0097-.2751-.1424-.1023-.1611-.2376-.0395-.3913-.3917-.0249-.2386-.2008-.172-.3632-.2141.1176-.3516.2528-.4708.4148-.2037.2767-.3983.5667-.7499.7461-.0846.0432-.1892.1203-.2834.0322-.0912-.0853-.0001-.1667.0726-.2257.2162-.1756.295-.4122.4277-.6236.3076-.4901.6536-.9642.8721-1.4909.3225-.777.5622-1.564.5648-2.3898.0009-.3039.1515-.5968.0985-.9182-.2966.143-.6047.204-.9302.0686-.0326.029-.0662.0451-.0728.0666-.1304.4236-.5383.6883-.8645.9985-.2489.2367-.5848.3051-.9514.2828-.2189-.0133-.3205.0392-.2872.2336.0212.1235-.0028.2501.0627.3715.1297.2401.119.2555-.1665.3505-.0172.0871.0268.1683.0432.2526.0332.1707.0343.3332-.179.44-.0958.048-.1014.13-.101.2122.0011.2917.0353.5891-.2661.8189-.036.0275-.0255.1006-.0262.1526-.0025.1795-.005.3591.0012.5385.0052.1512-.0329.274-.2255.34-.1317.0451-.1279.1614-.1655.253-.0619.1509-.1127.3049-.1788.4545-.0269.061-.0677.1502-.1255.1645-.2685.0666-.2358.2533-.2876.4129-.0569.1755-.0818.3737-.3479.4455-.0254.0069-.0475.037-.0592.0603-.2069.4135-.6176.7228-.8603,1.1178-.0405.0659-.097.1123-.1924.0875-.085-.0221-.1032-.0869-.0887-.1476.0716-.3017.0073-.6088.3046-.891.4215-.4001.8008-.8391,1.0555-1.3369.3757-.7342.7533-1.4636.9616-2.2489.114-.4298.2292-.8527.2272-1.2929-.0004-.0978.0153-.2005-.0955-.295-.1313.1152-.2572.2307-.39.3407-.1081.0896-.2195.1774-.3382.2574-.157.1058-.2243.2409-.2278.4015-.0025.1129.0003.226-.0027.3389-.0073.2747-.0738.307-.3792.1807-.0196.1688.0021.3233.0881.483.15.2783.1371.5635-.0448.8365-.0154.0231-.0358.0459-.0418.0708-.1723.7119-.7074,1.2545-1.2585,1.7899-.0563.0547-.1203.1002-.2091.0664-.1102-.042-.0678-.1161-.0501-.1898.0302-.1258.1319-.2667-.1064-.392-.1252.7891-.0029,1.5435.0826,2.3151-.0561.0168-.1084.0168-.1803.0168M431.7035,128.1992c.5534-.0823,1.0327-.2284,1.3163-.6866.1784-.2882.413-.5542.5489-.8631.0448-.1018.1301-.1473.2651-.0662.3039.1825.6244.136.8106-.1272.3339-.4719.6319-.9617.8521-1.4744.3063-.7133.4139-1.4557.306-2.2097-.024-.1677.0199-.354-.1074-.5158-.1802.0717-.198.1953-.2284.3101-.126.475-.041.9657-.1618,1.4419-.0734.2896-.0191.5995-.2085.8708-.0359.0514-.0653.1179-.1599.0964-.1007-.0228-.1157-.0992-.0932-.1626.0958-.2703.0569-.5515.1102-.826.0366-.189.0965-.3885.0465-.5946-.0962.0275-.0924.0709-.1022.109-.1114.4323-.1331.8768-.2801,1.305-.1354.3945-.1985.8053-.398,1.1852-.041.078-.0543.2165-.2089.1773-.1596-.0404-.0687-.1536-.0404-.2381.1723-.5145.2915-1.0336.2281-1.571-.0193-.1637-.0779-.1963-.2391-.1087-.1949.1058-.3552.2486-.4114.4325-.1472.4817-.2622.9698-.4069,1.452-.124.4133-.2968.8145-.5372,1.1939-.0438.0692-.1.1573-.2229.1001-.1085-.0505-.0506-.1239-.0086-.1904.4566-.7245.5886-1.5095.645-2.3079.0083-.1172.0407-.2788-.1169-.3193-.1585-.0407-.2611.1035-.3534.1994-.2813.2922-.4345.6289-.5333.9899-.1792.6545-.4574,1.2857-.7147,1.9218-.1178.2913-.0698.3483.2977.451.0232.0065.0467.012.1063.0254M433.7406,116.4036c.1948-.3089.1997-.3112.488-.2392.3437.0858.505.2512.4698.4816-.0405.2649-.1317.3532-.3812.3641.0205.1712.0484.342.0589.5135.0071.1158.0902.3003-.1288.3067-.1983.0059-.1131-.1844-.1502-.2899-.0474-.1348-.0107-.3061-.2242-.3835-.0662.0817-.0339.1531-.015.2221.0289.1052.036.2113.0157.3166-.0128.0663-.0479.134-.1494.1354-.0935.0014-.1085-.0646-.1354-.1213-.0257-.0542-.0048-.1322-.1004-.1627-.0789.0922-.004.2146-.1191.2838-.1389.0836-.2018-.0503-.3137-.0964.1531.396.3373.4749.7944.359.0778-.0197.1457-.019.193.0426.0442.0574.0076.1008-.0438.1391-.03.0224-.0624.0428-.0929.0648-.0613.0443-.0591.0924-.0056.1382.0501.043.1028.0285.1519-.0042.1025-.0683.1747-.1568.2493-.2443.0445-.0522.1056-.0892.1869-.0521.0786.0359.0774.093.0497.1561-.0659.1506-.1397.2977-.252.4303-.0877.1035-.0572.1807.0865.2488.264-.2469.4472-.5158.5126-.8311.037-.1784.0684-.3493.3812-.3031-.0229-.2043-.0331-.3903-.0662-.5735-.1125-.6231-.4261-1.1732-.8736-1.6877-.5817-.6689-1.3248-1.1018-2.338-1.2041-.1708-.0173-.337-.0206-.4413.1056-.4595.5558-.6527,1.1794-.707,1.836.1713-.3234.3288-.6501.4928-.9746.0521-.1031.1574-.1722.2901-.1131.1219.0543.0326.139-.009.2076-.1722.2839-.2339.5918-.3026.8986.0313-.0328.0498-.0688.0674-.1051.2053-.4228.5505-.749,1.0292-.9811.0882-.0428.1971-.1117.2793-.0118.0745.0906-.0429.1397-.1133.1914-.1147.0843-.2427.159-.3436.2531-.2418.2255-.3791.4927-.4383.7903.0857-.038.1477-.0876.2042-.1411.231-.2189.5072-.3944.8052-.5467.0749-.0383.1869-.108.2513-.0019.0515.0849-.0363.146-.1303.1854-.2064.0866-.3707.2194-.5341.3472-.1355.106-.2538.2358-.2627.4084.1389.0117.1563-.0721.1964-.1322.0543-.0817.0982-.1681.1563-.2479.1003-.1378.2184-.205.3583-.0292.1973-.1124.3189-.2836.5477-.3425.1062-.0273.2304-.0995.3053.0099.0846.1235-.075.1575-.1672.1956-.4422.1826-.5162.5771-.7818.8639.3869-.1641.7089-.3826.9991-.6753M431.2269,124.7384c.2161-.1427.5054-.1982.6957-.3673.4392-.3903.8046-.8185.9616-1.3437.0375-.1256.1312-.1844.2916-.2015.2096-.0223.4165-.0628.6234-.0999.5012-.09.8249-.3961,1.1567-.6719.2256-.1875.3653-.436.3321-.7257-.0292-.2547-.1327-.4611-.4321-.577-.0206-.008-.0372-.0264-.0504-.0429-.1023-.1277-.2553-.1545-.4434-.1543.1429.0918.2726.1709.3961.256.0774.0534.1515.1279.0733.2055-.0866.0859-.1718.0184-.2486-.0352-.094-.0657-.1833-.1419-.363-.1556.1572.1783.2831.3295.4375.4654.062.0546.1513.1266.0584.2079-.0865.0757-.1801.0249-.2642-.0188-.1952-.1015-.4078-.154-.6366-.166-.0478.1007.0414.1436.0923.1989.0486.0529.1107.0998.1462.1578.0405.066.0603.1504-.0316.1976-.1042.0535-.1589-.018-.2118-.0809-.0815-.097-.1735-.1845-.3707-.2089.0853.1759.2443.2896.2566.4554.0054.0734.0987.1648-.0328.2088-.1408.0471-.1794-.0615-.2212-.137-.0918-.1659-.2472-.2618-.4681-.3203.0141.1738.1329.2879.2125.4165.0499.0807.1226.1866-.0003.2521-.1425.0759-.2037-.0455-.2534-.1203-.1042-.157-.2517-.2542-.4818-.288.123.1325.2365.2535.3482.3757.0456.0499.0764.1056.0335.1661-.0499.0704-.1231.0384-.195.0269-.1302-.021-.2596-.0808-.4126-.0175.0516.1453.1922.2512.2206.3967.0149.0764.0782.1652-.0431.2113-.1228.0467-.1711-.0378-.2153-.1118-.0606-.1013-.1505-.1736-.3006-.2216.0582.1822.1061.3361.1569.4894.018.0542.0313.1072-.0379.142-.0795.04-.1346.0013-.1912-.0431-.0873-.0684-.1808-.1316-.2717-.197.0204.13.0748.2336.1195.3398.0258.0612.0137.1235-.0713.1499-.0812.0252-.1431-.0045-.1796-.0668-.045-.0769-.0788-.1602-.1965-.2058.0094.1704.156.2958.1798.4532.0083.055.0279.1069-.0408.1419-.0655.0334-.1227.0107-.179-.0237-.0695-.0424-.1271-.1044-.244-.1041-.0029.1185.0305.2385-.0312.351-.0243.0443-.0483.0869-.1132.0936-.0792.0082-.1177-.0355-.1443-.0872-.0298-.058-.0279-.1347-.1474-.1482-.0169.1647-.0342.3271-.05.4896-.0076.0783.0094.1784-.1273.1823-.1152.0032-.1241-.0855-.1416-.159-.0192-.0809-.0246-.1677-.1165-.254-.1726.3676-.2233.7363-.3205,1.0954-.0203.075-.0641.1707.0479.2147.1231.0484.2248-.0193.2918-.0969.1671-.1937.3725-.3685.4335-.6151.036-.1459.1136-.2653.3534-.2027.1119.0292.2228-.0235.3617-.0717M429.6429,127.7155c.1118-.3483.2031-.6981.098-1.0596-.0265-.091-.0586-.1803-.1848-.204-.0743.0169-.0975.0624-.1159.1049-.1629.3753-.3283.7497-.4147,1.1438-.1128.5147-.2314,1.0255-.4629,1.52-.1714.3661-.3337.7458-.3357,1.1893.4175-.2863.55-.6758.7324-1.0383.1466.0581.1446.1595.2069.2262.0598.0641.1517.1237.2122.0302.1665-.2575.4498-.4486.572-.7348.1275-.2987.3149-.5804.4752-.8699.0265-.0479.068-.0781.1326-.0669.0742.0128.1089.0618.1059.1186-.003.059-.0202.118-.0364.1761-.0659.2355-.1124.4746-.1788.7112.4691-.6961.6518-1.4546.7556-2.2334-.0726.0157-.1118.0398-.1363.0714-.1953.253-.2753.5316-.2724.8284.0007.0722.0095.1614-.1182.1649-.1206.0034-.1351-.0816-.1436-.1551-.0225-.1933.0037-.3837.0521-.5735.0548-.215.0215-.4243-.0666-.6394-.1119.0555-.1289.1375-.1612.2096-.1728.3861-.3462.7717-.4803,1.1688-.0343.1017-.0507.2956-.2369.2473-.2094-.0544-.023-.1989.0019-.3359M436.0559,113.7515c-.4252.1516-.8163.3414-1.1041.6512.4321-.238.9089-.1935,1.3872-.1724.2095.0092.4242-.026.5788-.167.0992-.0905.106-.1796-.0296-.2512-.2514-.1328-.5156-.1921-.8323-.0606M436.0485,114.6053c.2924.0434.4769.1851.3933.3394-.1921.3549-.5034.1743-.8031.0545.003.1297-.0139.2247.0906.3031.1879.1408.4964.1297.7918-.0335.2582-.1426.3257-.2954.2366-.5052-.0895-.2106-.2961-.2953-.5384-.3266-.2603-.0336-.5066.0135-.6986.17-.065.053-.1008.132-.0359.214.1971-.0513.3057-.2214.5637-.2156M437.4293,116.4032c.0602.0405.1039.1037.1985.0981q.0442-.1441.4037-.1323c.0179-.0529-.0191-.0911-.0617-.1191-.1501-.0989-.3009-.1975-.4585-.2882-.0784-.0451-.162-.0862-.1051-.171.0572-.0854.154-.0549.2358-.0203.1264.0536.2495.1123.3741.1688-.1383-.2328-.425-.2835-.6699-.383-.0454-.0184-.0925.0151-.1301.0415-.1345.0942-.2687.1887-.4237.2976.2095.1664.4119.3271.637.5079M436.8019,116.8778c.0704.0832.1297.1768.2851.2135-.011-.1534-.1775-.2054-.2283-.3139-.0266-.0569-.0634-.1179.0109-.1625.0828-.0497.1514-.0157.2054.0458.0586.0666.1123.1404.2596.1434-.075-.2759-.3213-.4275-.5301-.5942-.3057-.2442-.3944-.2357-.6981.0239.2436.1931.4831.3903.6955.6441M435.3451,131.2842c.121-.2105.2015-.4321.2362-.6616.0297-.1967-.0523-.3666-.2499-.5169-.0995.1602-.1907.3013-.2143.4578-.0134.0893-.0792.218.0677.2664.214.0706.155.1693.0829.283-.0383.0604-.0737.1221-.1174.1948.0747-.0043.1229-.007.1948-.0235M428.8966,131.8514c.3334-.7408.3385-.7602.2579-.9691-.2356.3901-.3051.8237-.5322,1.216l.0664.0239c.0644-.0813.1289-.1626.2079-.2708M441.546,126.8303c.0137-.0681.0876-.1304.0256-.2147-.1576-.0145-.2342.1207-.3775.1426-.1479.0226-.122.1361-.0896.2103.0423.0968.1456.085.2431.0397.0794-.0369.1474-.0818.1984-.1779M436.2257,116.6441c-.1103-.0851-.1797-.2152-.3733-.2323-.0199.2278-.0025.4277.3318.5872-.1575-.1769.0282-.2356.0415-.3549M435.6148,119.6976c.0373.2536.1658.3278.3659.2092-.0645-.1261-.1382-.2422-.3659-.2092M437.5208,124.5031c-.0128.1137.0451.2157.0676.3305.0785-.0026.1623.0027.1509-.0709-.0173-.1123-.0257-.24-.2186-.2596M435.0422,118.8789c.1153-.1596.1601-.3334.1586-.5169-.0697.1999-.2216.3769-.2563.615.0424-.0388.0631-.0578.0977-.0981M428.5738,131.4058c.0311-.0663.0625-.1325.0343-.2054-.0634-.0232-.1136-.0023-.1598.0236-.0805.045-.0563.1047-.0145.1539.026.0307.0256.1409.1401.028Z"/>
    <path d="M436.9618,121.4693c.0438-.145.1598-.1249.2751-.1022.0903.0178.1761.0727.2893.0146-.0811-.1337-.2498-.1343-.3842-.1733-.1514-.044-.2869-.0949-.3524-.2241-.0229-.0451-.0348-.0904.0123-.1296.0466-.0388.1048-.0378.1577-.0134.2382.1097.511.1278.7648.1956.1679.0448.3384.08.4824.1818.1733.1225.4.0785.5827.0262.2063-.059.3665-.1016.4858.0908.0052.0084.0445.0029.0858.0046.0253-.14-.0536-.2549-.1138-.3717-.0331-.0642-.0705-.1276.0186-.1769.0887-.0491.1545-.0014.2098.0506.0853.0802.166.1637.2498.245.1676.1625.5225.152.6839-.0191.0678-.0719.0461-.1327-.025-.194-.059-.0509-.1071-.1166-.025-.173.0816-.0561.1553.0007.2132.0455.1692.1311.2594.3039.3241.4788.0423.1144-.0376.2191-.1652.2879-.2164.1166-.7478.1189-.9598.0043q-.2273.2614-.607.0048c-.1944.1886-.4879.134-.7377.1881-.0903.0195-.1711-.0658-.2262-.134-.0704-.0871-.1563-.1512-.3114-.1509-.0703.214-.2716.2708-.5197.2641-.066-.0018-.1305,0-.1811.0433-.0517.0443-.1091.0912-.1894.0509-.0772-.0387-.0524-.1023-.0417-.162.008-.0449.0034-.0913.0042-.1526Z"/>
    <path d="M431.9293,132.399c.1479-.0425.1971.0177.1938.1263-.0253.818-.2453,1.5733-.9824,2.1851-.3218.267-.6877.4881-1.0268.7362-.0577.0422-.1264.0759-.1978.0329-.0845-.0508-.0533-.1196-.0098-.1787.0374-.0508.0746-.1097.1316-.1417.2864-.1607.5041-.3703.711-.5956.5698-.6206,1.0008-1.2865,1.1143-2.0981.0313-.0402.0488-.0533.0662-.0664Z"/>
    <path d="M431.9284,132.3858c-.0166.0263-.0341.0394-.0633.0634-.3587.4832-.7058.9553-1.0521,1.4279-.049.0669-.0853.1678-.2097.1186-.1355-.0536-.0712-.1521-.0199-.2241.2166-.3039.4379-.6056.6632-.9053.619-.8238,1.1407-1.6826,1.4561-2.6186.0478-.1419.0615-.2867.1002-.4286.0177-.065.0471-.137.1579-.118.0917.0158.0949.0802.0933.1427-.0041.1671-.0531.327-.1045.4881-.2291.7175-.6516,1.3703-1.0211,2.0538Z"/>
    <path d="M433.5518,131.3102c-.1204.2492-.2322.4846-.3485.7185-.036.0725-.0755.1716-.1998.1351-.1493-.0438-.0769-.1399-.0344-.217.5627-1.0203.825-2.1073,1.0701-3.1979.0234-.1039.0166-.2122.0361-.3169.0129-.0696.0267-.1598.1533-.1457.1103.0123.0948.0941.0973.1591.0111.2889-.0804.5661-.1478.8459-.1631.677-.3202,1.3553-.6263,2.0189Z"/>
    <path d="M441.3495,123.2801c-.1332-.4317-.2355-.8556-.5314-1.2245-.0497-.062-.1354-.1453-.0304-.2117.1112-.0703.1923.0092.2646.0747.0158.0143.037.0247.0553.0367.2257-.1739.2903-.1635.3996.0638.1094.2275.2258.4531.3233.6839.0948.2244.0474.279-.2325.3152-.033.0812.0345.1549.028.2333-.0071.0852.0561.21-.109.2267-.1419.0144-.145-.0994-.1676-.1982Z"/>
    <path d="M438.3049,127.4527c-.0568.0715-.0927.1596-.2074.1196-.1076-.0375-.0761-.1211-.0541-.1921.0425-.1371.0411-.2759.0325-.4154-.0038-.0607-.0011-.122.0715-.1596.0805-.0417.1369.0014.1945.0399.0311.0208.0676.0583.097.0555.3306-.031.3069.1576.2973.3231-.0299.5166-.109,1.0284-.2672,1.5302-.0259.082-.0768.1607-.1291.2347-.0395.0559-.1088.0819-.1885.0458-.0789-.0357-.0921-.0943-.052-.1535.2775-.4102.2056-.8811.3469-1.3151.0423-.1298.0179-.1411-.1413-.1134Z"/>
    <path d="M439.51,119.835c-.0652-.068-.1232-.1235-.1793-.1803-.0438-.0444-.0673-.0947-.0195-.1448.0479-.0502.1198-.0478.1778-.021.2201.1018.3513.2705.4737.4421.0299.0419-.0013.0893-.0479.1238-.1439.1064-.131.2328-.0666.3645.0344.0703.0703.1431-.0386.1899-.0913.0392-.1485-.0138-.2095-.0614-.2645-.2061-.5319-.4097-.7981-.6143-.0665-.0511-.147-.1085-.0657-.1834.081-.0747.1728-.0212.2328.0303.112.0963.2558.1344.4006.1776.145.0433.1829.0005.1403-.1229Z"/>
    <path d="M438.3081,123.3566c-.2334.0854-.3766-.0173-.4942-.1405-.0789-.0826-.1265-.1851-.1864-.2795-.0367-.0578-.0514-.1179.0332-.1553.0974-.0431.1488.0116.1955.0713.0562.0719.0816.1602.17.2151.2465-.1603.2455-.1582.5877-.0548.1719.0519.3453.0741.5191-.0077.0866-.0408.1955-.074.2458.0338.044.0943-.0675.1193-.1412.1577-.2411.1256-.5254.0512-.7799.1133-.0457.0111-.09.0258-.1496.0466Z"/>
    <path d="M441.1141,125.2482c.0118.0565.024.096.0228.1352-.0026.0819.0441.1859-.089.2253-.131.0389-.1408-.0856-.2358-.1409-.2021.1889-.4667.0917-.7149.0814-.0948-.0039-.1986-.0516-.2007-.1466-.0026-.1171.1178-.1012.2136-.1093.0888-.0075.1766-.03.2651-.0314.2402-.0037.3606-.0882.3487-.2934-.0048-.0831.0052-.1879.1501-.1932.1229-.0045.1569.0828.1771.1622.0246.0969.0386.1956.0629.3106Z"/>
    <path d="M437.2744,129.6428c-.0292-.0772.0017-.1323.0427-.1819.287-.3471.4247-.7422.5566-1.1392.0127-.0382.0251-.0767.0429-.1134.0255-.0526.0677-.0962.1453-.0841.085.0132.1295.066.111.1321-.1355.4837-.2456.9758-.6502,1.3756-.0723.0714-.1457.109-.2483.011Z"/>
    <path d="M438.844,129.0445c.0257-.1238.0844-.2281-.0013-.3404-.0407-.0533.0068-.1196.0679-.1562.1109-.0664.1689-.1561.2112-.2587.0236-.0574.0663-.1135.1551-.1049.0962.0092.1354.071.14.1411.0149.2275-.0268.448-.1545.6528-.0769.1234-.1639.2426-.247.3634-.0414.0601-.0898.1194-.1892.084-.0856-.0305-.0726-.0962-.056-.155.0199-.0707.0461-.1402.0739-.226Z"/>
    <path d="M439.0544,119.3238c-.1266-.0232-.1715-.0823-.1171-.1623.093-.1366.0647-.2671-.0035-.3992-.0345-.0668-.0452-.1296.0391-.1754.0857-.0466.1637-.0121.2152.0398.1782.1794.3499.3631.5201.5476.0504.0547.0851.1218.0025.1766-.0915.0607-.1657.0179-.2285-.0423-.0417-.04-.0806-.0818-.1244-.1265-.1107.0546-.198.0975-.3034.1416Z"/>
    <path d="M439.9921,119.5627c.0771-.1227.1675-.084.2367-.0197.23.2135.4562.4299.6746.6512.056.0568.1342.1449.0147.2058-.1124.0572-.1652-.0294-.2279-.0931-.1825-.1856-.374-.3652-.5606-.5481-.0561-.055-.1316-.1009-.1374-.1959Z"/>
    <path d="M438.6216,126.4474c-.1909-.1403-.1006-.3122-.0873-.4634.0078-.0888.1319-.072.2-.0028.1093.1109.0554.372-.1127.4662Z"/>
    <path d="M429.5706,128.6186c-.0994.1832-.1952.351-.2944.5174-.0299.0501-.0792.0888-.1546.0739-.0718-.0142-.1242-.065-.1002-.1178.0979-.2156.0594-.4633.2361-.6593.0585-.0649.0873-.1785.2315-.1244.1233.0463.1441.1351.0987.236-.0083.0184-.0099.0388-.0169.0742Z"/>
  </g>
  <g>
    <path d="M363.0086,117.972c-.9353-.8944-2.186-1.1953-3.3894-1.5767-.1963-.0622-.3984-.1193-.5791-.2082-.26-.128-.4339-.3171-.0824-.5079.262-.1422.1986-.4083.2287-.5558.1078-.5285.6113-.4646.9565-.6332.0381-.0186.1357-.003.1367-.0106.0828-.5887.735-.371,1.0744-.5959.2791-.185,1.2165.1391,1.3225.4394.0239.0677.0658.1356.0662.2037.0037.6312.4755.8737,1.0663,1.0259.2772.0714.5517.1516.8245.2353.917.2814,1.5303.0751,2.0573-.6609.5915-.8259,1.4493-1.4034,2.3651-1.9211.1466-.0828.2894-.1709.4535-.2681-.154-.2544-.3048-.4135-.6466-.2736-.5542.2267-.7574.1823-1.0296-.2904-.2122-.3686-.3858-.7291-.9283-.7952-.1959-.0239-.3276-.1909-.2256-.3531.1716-.273.0949-.5823.241-.8626.1554-.2983-.1521-.5342-.2951-.7715-.5085-.8433-.063-2.0071.9603-2.2936.5386-.1508,1.0951-.0553,1.4963.3447,1.1035,1.1005,2.0309,2.276,2.4079,3.7636.3148,1.2422.8084,2.4477,1.1081,3.6962.2663,1.1096.5839,2.21.7782,3.3399.0502-1.5332.4405-3.0078,1.0248-4.4361.806-1.9702,1.7043-3.9037,3.387-5.46.3856-.3567.8278-.6377,1.2926-.8826.7962-.4195,1.4726-.0751,1.6587.7479.1372.6067-.0858,1.0984-.503,1.5334-.3798.3961-.39.8211-.2829,1.2841.1238.5352.0094.6546-.6221.659-.112.0008-.2246-.0083-.3358-.0202-.2265-.0243-.3639.0079-.4747.2387-.2606.543-.4447.5875-1.0807.3582-.2479-.0894-.4023-.0629-.4306.2153.6564.3431,1.3149.5503,2.1293.4772,1.2901-.1159,2.582-.265,3.8858-.2473.6304.0086,1.2445.1115,1.8636.18.2939.0325.5357-.004.7768-.1364.3352-.1841.7081-.2767,1.0928-.3189.277-.0304.5635-.0403.6078.3123.0284.2261.2716.1768.4167.196.63.0833.4008.5541.4562.8483.0604.3202-.3264.2441-.5376.2531-1.5848.067-3.1704-.0526-4.7581.0656-.8034.0598-1.5298.3174-2.2831.5132-.2161.0562-.3474.1962-.2384.3897.3383.6005.831,1.1402,1.8114.88.9221-.2447,1.8616-.4391,2.799-.6343.228-.0475.363-.175.511-.2998.3048-.2568.6117-.5116.9954-.6721.2979-.1246.5342-.0933.5871.2548.3145.0294.61-.1307.9453-.0216.2806.0913.4614.2641.4928.4647.0348.2224-.0711.4616-.3333.6201-.464.2804-1.0125.2571-1.521.3671-.4262.0923-.8133.2235-1.204.407-1.1586.5445-2.2685,1.2052-3.6191,1.3477-.3588.0379-.427.2676-.4003.533.0834.8294-.0415,1.6439-.2257,2.4547-.0285.1253-.0303.2747-.1109.3682-.4572.5302-.2206.9741.1771,1.4095.527.5768.8322,1.22.9031,1.9772.0366.3914-.0131.7337-.3104.9831-.8785.7369-1.0903,1.7537-1.5291,2.6766-.1081.2274.0297.3237.2417.3665.3429.0693.6926.1128,1.0351.1834.3315.0684.5443.2523.542.5674-.0023.2979-.2561.3914-.5302.476-.3445.1063-.6887.1293-1.0443.0813-.2157-.0291-.433-.0709-.6856-.0127.1144.3946.4876.4259.7801.5082.364.1024.7526.1356,1.1283.2078.3502.0673.6712.1993.6605.5672-.0101.3449-.3812.3962-.6573.4769-.4707.1375-.957-.0037-1.4381.0153-.5313.0209-1.0572.0592-1.5822.1357-.8167.1191-1.2234-.298-.9799-1.0135.3004-.8826.3553-1.7912.3371-2.6962-.0136-.6757-.2099-1.3412-.0092-2.0281.0877-.3003-.5516-.6114-.9608-.4931-.719.2079-1.4343.4243-2.1881.5159-1.492.1813-2.9426.002-4.375-.3559-.7144-.1785-1.3462-.5304-2.0418-.746-.5455-.1691-.7008-.1056-.8352.3779-.3486,1.2546-.21,2.4515.5773,3.5596.0682.096.1416.1899.1993.2908.2564.4487.1139.7567-.4428.9292-.332.1029-.673.1826-1.0199.2755-.0432.2942.1846.4919.2575.7312.1658.5443-.0823.9139-.7109.8869-1.0651-.0457-2.1077.1502-3.1639.1749-.0964.0023-.1926.0114-.289.0157-.3047.0138-.5139-.1234-.5508-.3748-.0377-.2563.1961-.3942.4446-.4275.4516-.0606.8799-.1724,1.2802-.3623.7863-.3731.85-.5497.5656-1.2956-.3228-.8464-.6458-1.6921-1.0947-2.4939-.3289-.5875-.2967-1.1714-.0245-1.7723.4798-1.0592,1.0528-2.0759,1.7343-3.0445.1773-.2519.2535-.5205.0781-.7645-.5511-.7664-.6914-1.5997-.5946-2.4862.0151-.1384-.0152-.2805-.0275-.4652-.8503.0582-1.3833-.4401-1.9958-.8676M370.8219,112.9461c.1417-.0195.3126-.0695.3747.0903.0671.1726-.1049.2528-.2398.3263-.2661.1449-.6541.1897-.5458.603-.3144-.0253-.3696-.2205-.4201-.3896-.0852-.2853-.2653-.2931-.5-.1593-.3656.2084-.7635.39-1.0748.6511-.4561.3827-1.0256.6894-1.3064,1.2937.2539-.0402.3977.0763.6372.2114.0701-.5687.6892-.5972.9947-.9363.1596-.1772.3631-.0631.5097.0483.162.123.0687.26-.0379.3746-.1975.2124-.4503.3703-.7157.5042-1.051.5303-2.0382,1.1446-3.01,1.7792-.535.3493-.7645.3627-1.2951.021-.5182-.3337-1.0198-.6935-1.6252-.8989-.5066-.1719-.8806-.4486-1.0793-.9035-.0389-.0892-.1213-.1633-.1802-.2398q-1.004.2129-1.4924.6907c.2877.1274.5794.3402.8921.2679.3769-.0872.6253.0429.8781.2174.7455.5145,1.4837,1.0372,2.2242,1.5573.2839.1993.5664.3778.947.1553.1036-.0606.2476-.1109.3256.0426.0818.1608.1841.0566.2697.0162.3687-.1738.7448-.3384,1.0976-.5354,1.06-.592,2.2549-.9005,3.4058-1.3005.1745-.0606.4093-.1046.4639.143.0577.2613-.1401.5292-.3675.5009-.2791-.0347-.4019.1196-.5995.1682-.4225.1039-.678.4448-1.0505.5767-.5764.204-1.2098.2737-1.7169.639-.1296.0933-.3183.1329-.4872.1707-.5153.1153-.6241.4433-.6769.8606-.0796.6291.2341,1.1617.4357,1.7224.175.4866.2565.4919.7717.2188.2038-.108.3999-.3564.7878-.1139-.928.6293-1.5246,1.4318-2.053,2.297-.5246.859-1.033,1.7051-1.1192,2.708.2698.0087.2661-.2854.4962-.2163.0891.0267.1066.0974.1023.1733-.018.3166-.2904.3864-.5896.4212.2434,1.0417.6631,1.9807,1.1412,2.9126.3937.7675.5794.958-.3176,1.6239-.0563.0418-.1362.0815-.0888.2184.5939-.0677,1.1961-.1364,1.8501-.211-.2248-.5719-.5635-1.0531-.5361-1.6288.0155-.327-.0771-.6262-.2486-.9336-.1629-.292-.3203-.5839-.5777-.8225.2977-.1843.3933.086.5982.1305-.1303-.2775-.2518-.5232-.3617-.7729-.3723-.8461-.2618-1.6073.5027-2.2679.2094-.1809.386-.3032.6025-.0552.3959-.2326.5549-.6568.9892-.7852.4887-.1445.8921-.3736,1.2014-.7411.1133-.1346.2574-.3294.4543-.2697.2916.0885.4134-.0711.5748-.2011.1126-.0907.2379-.1827.3733-.058.1111.1022.0258.2124-.0542.306-.2707.3166-.5376.6363-.8674.8559.4422.6429.9336-.1284,1.3833.0181.0888.3227-.3913.278-.3494.5192.0552.0702.1289.0869.1801.0554.3704-.2274.7221.0156,1.0815.027.1719.0055.1994.124.104.247-.0677.0872-.2443.0924-.239.2585.366.0335.6578-.3953.9984-.1955.1383.1862-.0958.2301-.0512.3751.3343-.107.6411-.1382.9978.0157.1678.0724.394.2817.6514.1505.4855-.2476,1.0695-.0095,1.5553-.2635.1054-.0551.2064.0178.3014.0819.2032.137.3948.2118.6282-.0054.2441-.2272.1563-.3975-.0215-.5914-.5935-.6471-1.127-1.3377-1.8096-1.9201-.1135-.0968-.3285-.2067-.2009-.3861.1069-.1504.2568-.2798.5063-.2789.4878.0017.795.2464,1.0504.5663.0985.1234.1243.329.337.322.2933-.0096.3211.1593.399.3382.0954.2188.0747.4671.2921.659.5964.5266.9244,1.2207,1.3845,1.8331.0605.0806.0388.2244.0206.3346-.12.7244-.0743,1.4609.0171,2.1685.1151.8914.0088,1.7157-.3593,2.5348-.0991.2204-.1372.4318.137.5873q.2576-.2685.2089-.5743c-.0382-.2398.044-.3119.3845-.3095-.1932.3877-.0464.5479.4241.5493.2242.0006.4855.0084.6852.2591.0875-.2682.3868-.2215.533-.4173-.1543-.069-.2907-.1396-.4353-.1929-.8505-.3135-1.0456-.6712-.8046-1.4569.1824-.5948.5194-1.1352.7584-1.7098.3379-.8125.6415-1.6758.3227-2.4995-.3819-.9869-.9744-1.9097-1.4897-2.8542-.0887-.1626-.2698-.2842-.3681-.4441-.1427-.2325-.0368-.4172.228-.5175.2806-.1063.2883.0955.3737.2524.1628.2993.3233.6067.5729.8486.2107-.0499.2715-.184.3548-.3068.4918-.7244.7456-1.515.7895-2.3487.0371-.7054.2663-1.5095-.8486-1.7966-.0221-.0057-.0338-.0463-.0477-.0718-.1825-.3367-.7131-.4907-.8997-.463-.6514.0968-1.0282-.3412-1.5549-.4471-.545-.1095-.7257-.5222-.9334-.8998.2163-.198.3874-.0805.5658-.0311.9974.2765,1.9257.7006,2.8934,1.039.3115.1089.6648.3097,1.0045.1536.5075-.2332,1.0597-.3322,1.586-.5047.1051-.0345.2578-.0707.3262.1132-.5156.2917-1.1865.2757-1.7303.6396.5175.2762.9607.1001,1.3816-.0439,1.5206-.5199,2.8489-1.4296,4.5326-1.7626-.2643-.1187-.3975-.267-.11-.5517-.4227.128-.7073.3577-1.0603.1434-.088-.0534-.2046.0574-.283.1291-.126.1154-.2738.1957-.4423.2532-1.0974.3748-2.2544.5534-3.3815.8298-.6468.1586-1.157.1052-1.7138-.2911-.7657-.5449-1.5599-1.093-2.5527-1.32-.1534-.0351-.3202-.1046-.2759-.2919.0328-.139.1027-.3439.2619-.3192.2822.0437.7011.0117.8204.1306.2916.2906.8317.3243.9667.7553.0121.0385.1145.0396.2379-.1011-1.2411-1.074-2.3766-2.2833-4.4994-1.9637-.1357.118-.1441.3753-.2456.5971-.9261,2.0238-1.3456,4.1183-1.1695,6.2988.0505.6249.0249,1.2496-.1522,1.8645-.0391.1358-.009.3155-.2371.3079-.2207-.0074-.2011-.1836-.2187-.3226-.0608-.4808-.0265-.9621-.0094-1.4438.0356-1.0061-.3246-1.9622-.5177-2.9347-.4204-2.1172-1.0087-4.2073-1.847-6.2271-.4189-1.0092-.9054-2.0101-1.7-2.8452-.4985-.5239-1.1947-.7539-1.8133-.1398.3422.1195.3299.2641.0482.4458-.1048.0676-.2921.1706-.1725.3044.185.2069-.0723.3223-.107.4845.2356-.0708.4402-.1509.6542-.1921.2779-.0535.4474.0535.4074.3196-.0461.3069-.4285.5126-.8268.4245.1929.4352-.0912.8418-.0711,1.2932.3817-.0527.5804.1137.6994.363.0759-.0148.1259-.0163.1669-.034.1627-.0704.3456-.1621.4783.0017.1626.2007-.0818.2448-.2042.3462-.1576.1306-.152.2723.0711.3745.3365-.1577.5757-.4089.8099-.6586.1811-.1931.2364-.4808.0465-.6277-.2844-.22-.2385-.39-.0169-.6164-.163-.0483-.2813-.0902-.4038-.1183-.332-.0763-.2881-.3465-.3499-.5512-.041-.1356.0663-.2504.216-.2976.2436-.0768.4798-.0688.6592.1222.3014.321.5021.6657.2561,1.0898-.1654.2851.0904.56.2504.5802.3079.0389.3849.2624.5859.3301.0071.1992-.2193.2872-.179.4613.4985.277.6001.5214.3074.9124-.3195-.0134-.3486-.2783-.4904-.4535.016.2225-.0129.4434.0956.6439.2136.0021.3563-.0689.5367-.2173M377.9027,112.024c-.1618-.0972-.4543-.1836-.2061-.3934.1423-.1203.2342-.2532.3506-.3809.1796-.1971.4273-.2221.6957-.1117.188.0773.2172.4017.5206.2796.3056-.1231.0285-.3973.163-.5758.037-.0491.0604-.1287-.0195-.194-.1034.1139-.1594.3147-.3887.2271-.2031-.0775-.1238-.2356-.0863-.3708.0287-.1034.0357-.2029-.0757-.2671-.1277-.0736-.3381-.1048-.2384-.2987.0806-.1567.2758-.1191.43-.1318.8812-.0727,1.0364-.2074,1.2185-.9697.0876-.3667-.184-.5492-.416-.7571-.2356-.2111-.4808-.082-.705.0254-.5583.2674-1.0157.6388-1.4222,1.1263.3163-.0033.4908.134.5292.3706.0401.2478-.2537.2088-.383.3133-.1274.1029-.3519.1073-.3948.2903-.0321.1372-.011.3075-.2281.327-.2472.0221-.204-.2148-.3855-.3166.0791.5624.0369,1.1196-.0049,1.726.3635-.0088.6711.2775,1.0466.0823M380.6053,113.3664c-.1284.0083-.257.014-.385.0256-.1407.0127-.3136-.007-.369.1448-.0516.1412.0779.2416.1725.3318.3154.3006.8045.4223,1.1701.3659.6232-.0962,1.2407-.2436,1.9529-.2855-.4507-.1304-.893-.0175-1.2304-.2966.5736-.0666,1.1987-.1234,1.6794.1111.2917.1422.5249.1903.8182.1861.6389-.0093,1.2785-.1513,1.9168.0074.1305.0324.2532-.0056.3551-.1207-.0183-.0579-.0399-.1246-.0603-.1916-.1605-.5268-.3226-.5933-.8707-.3304-.2868.1376-.5812.1629-.8877.1043-1.3847-.265-2.7769-.1919-4.2619-.0519M366.4257,125.7607c-.0694.0344-.201.0963-.1994.0992.1853.3302-.2229.795.2943,1.0497.0731.036.0715.1148.0701.1908-.0111.6072.0812,1.2079.1876,1.8038.0496.2779-.1004.6229.2336.8262.4051.2466.5957-.2303.9292-.2484.0145-.0008.0263-.0451.0628-.1121-.7084-.474-.7653-1.1806-.7805-1.9054-.0062-.2968-.0794-.5645-.3104-.8215-.1643-.1829-.2297-.4765-.1295-.7332.261-.0315.1646.2351.3425.2604q-.0309-.6196-.7003-.4095M362.9893,116.2108c.4594.287,1.0247.3907,1.575.5931.1212-.2665.5316-.2664.9019-.3266-.8448-.2788-1.6626-.5148-2.4757-.7627-.2874-.0876-.4952-.279-.5958-.5264-.1206-.2966-.2991-.5175-.6601-.5929-.2212.4531.3752,1.2453,1.2547,1.6155M380.6196,123.4107c.3798.5223.5633,1.1256.8343,1.742.5895-.9665.0827-1.6261-.8845-2.6559q-.316.3618-.3198.8395c.1069.0113.2138.0226.37.0744M376.0383,112.0221c-.0983-.0973-.207-.0937-.2688.0184-.1089.1976-.2439.3921-.2504.6401.2554.0706.478.0586.6987-.0298.033-.2216-.0432-.4027-.1794-.6288M380.2606,129.0591c-.2798.2294-.0322.2776.1509.3098.3984.0702.8136-.1821,1.2152.0621-.3626-.3582-.8659-.2703-1.3662-.3719Z"/>
    <path d="M378.9326,127.2233c.0223-.6502.045-.7203.3777-1.0317-.0416.6544-.0782,1.2289-.1221,1.9197-.3381-.3253-.2041-.6048-.2555-.8879Z"/>
    <path d="M363.8795,117.5713c-.3794-.1779-.7298-.3509-1.1286-.5477.4442-.131,1.1593.1734,1.2492.4771.005.0168-.0594.05-.1206.0706Z"/>
    <path d="M379.713,125.75c.4706-.0587.44.3516.7589.4917-.4566.1633-.6542.0191-.7589-.4917Z"/>
    <path d="M368.1099,111.0875c-.0749.138-.1591.2348-.3105.169-.1794-.078-.2234-.2242-.2009-.4103.2609-.083.4729-.1051.5114.2413Z"/>
    <path d="M366.9653,129.106c-.0659-.1458-.0857-.2662.1124-.2619.1595.0035.2481.114.2832.2462.0272.1024.0062.216-.1079.2548-.2141.0729-.2018-.1196-.2877-.2392Z"/>
  </g>
</svg>