<?xml version="1.0" encoding="UTF-8"?>
<svg id="Layer_1" xmlns="http://www.w3.org/2000/svg" viewBox="0 0 847 193">
  <defs>
    <style>
      .cls-1 {
        stroke: #b3b3b3;
      }

      .cls-1, .cls-2, .cls-3, .cls-4 {
        fill: #fff;
      }

      .cls-1, .cls-3, .cls-4 {
        stroke-miterlimit: 10;
      }

      .cls-1, .cls-4 {
        stroke-width: .75px;
      }

      .cls-5 {
        fill: #4d4d4d;
      }

      .cls-6 {
        letter-spacing: -.1001em;
      }

      .cls-3 {
        stroke: #fff;
        stroke-width: 3px;
      }

      .cls-7 {
        opacity: .25;
      }

      .cls-8 {
        letter-spacing: -.0098em;
      }

      .cls-9 {
        fill: none;
      }

      .cls-10 {
        letter-spacing: -.02em;
      }

      .cls-11 {
        fill: #666;
      }

      .cls-12 {
        letter-spacing: .02em;
      }

      .cls-13 {
        font-size: 21px;
      }

      .cls-13, .cls-14 {
        font-family: GillSansMT, 'Gill Sans MT';
      }

      .cls-15 {
        letter-spacing: -.02em;
      }

      .cls-16 {
        letter-spacing: -.0098em;
      }

      .cls-14 {
        font-size: 18px;
      }

      .cls-17 {
        letter-spacing: -.0249em;
      }

      .cls-4 {
        stroke: #999;
      }

      .cls-18 {
        opacity: .5;
      }
    </style>
  </defs>
  <g>
    <path class="cls-3" d="M123.5771,143.9094c-.8583-.4048-2.1572-.8562-3.5571-.6044-1.4586.2623-1.824,1.0717-3.2014,1.511-1.6186.5163-2.4551-.1736-5.3357-.6044-3.9689-.5936-7.6693-.0751-8.1814,0-2.5516.3741-3.7282.9558-4.98.3022-1.2388-.6467-.9374-1.6606-2.1343-2.1155-.9689-.3682-1.5971.1325-4.98.9066-1.8732.4287-2.8098.643-3.5571.6044-1.1063-.0571-2.279-.441-4.6243-1.2088-1.5739-.5153-1.8675-.6807-2.49-.6044-1.3413.1643-1.406,1.1072-2.8457,1.511-1.1168.3132-1.5837-.1122-3.9129-.3022-2.1136-.1724-1.9549.1595-3.5571,0-2.0367-.2028-2.4428-.754-6.0471-1.511-1.3754-.2889-2.219-.3982-2.8457,0-.7011.4455-.4432,1.0892-.9994,1.5527-.9767.8138-2.9628-.1791-5.7592-.646-3.6482-.6091-3.5603.5311-7.8257,0-3.1826-.3963-4.0815-1.137-6.0471-.6044-1.2509.3389-1.7656.8769-3.2014.9066-1.2405.0256-1.7112-.3583-3.2014-.6044-.8988-.1484-2.2155-.2546-3.9129,0,.1823-.7224.4362-1.7636.7114-3.0221.8423-3.8514,1.2595-5.8126,1.0671-7.5552-.318-2.8811-1.4502-2.5156-1.4229-4.8353.0329-2.7873,1.6699-3.5123,1.4229-6.3464-.1682-1.9294-.9328-1.6605-1.0671-3.6265-.1905-2.7877,1.3252-3.6435.7114-6.0442-.3742-1.4634-1.0187-1.4634-1.0671-2.7199-.0636-1.6505,1.0262-2.2367,1.4229-3.9287.3774-1.6096-.335-2.2469-.7114-4.2309-.6143-3.2376.7642-4.2724,1.0671-8.1596.1221-1.567.0881-3.836-.7114-6.6486,5.4679.8537,9.8166.8097,12.8057.6044,3.1738-.218,4.0695-.5666,7.47-.6044,4.3944-.0489,5.1811.5079,9.96.6044,5.6356.1138,5.2664-.6458,8.8929-.3022,5.7213.5421,6.0193,2.3741,10.3157,2.1155,2.8432-.1711,3.1227-.998,7.8257-1.511,2.7291-.2977,2.383.0083,5.6914-.3022,4.7941-.4499,5.7669-1.1153,8.1814-.6044,2.0599.4359,2.0194,1.0615,3.9129,1.2088,2.1635.1683,2.7562-.6065,5.3357-.6044,2.0678.0017,2.3657.5001,4.2686.6044,1.4281.0783,3.477-.081,6.0471-1.2088-.2461.7597-.559,1.9072-.7114,3.3243-.2001,1.861.1088,2.0293,0,3.9287-.1841,3.2135-1.1378,3.9446-.3557,5.4398.1787.3416.712.9329,1.7786,2.1155,1.1228,1.2449,1.7726,1.8089,1.7786,2.7199.0026.403-.122.6833-.3557,1.2088-.4584,1.0308-1.0187,1.5185-1.7786,2.4177-1.3102,1.5503-1.9653,2.3254-1.7786,3.0221.2309.8615,1.3143.7782,2.1343,1.8133.1913.2415.6352.8807.3557,3.9287-.2306,2.5149-.6101,2.923-.7114,5.1375-.0878,1.9197.1921,1.7285,0,2.7199-.5197,2.682-2.3921,3.1711-2.1343,4.8353.2001,1.2916,1.3549,1.1716,2.1343,3.0221.4061.9642.2282,1.3186.3557,3.9287.1085,2.2203.2471,2.1659.3557,4.2309.0597,1.1356.1041,2.7929,0,4.8353Z"/>
    <text class="cls-14" transform="translate(54.4844 119.0898) scale(1.0629 1)"><tspan class="cls-16" x="0" y="0">a</tspan><tspan x="7.5058" y="0">pple</tspan></text>
  </g>
  <g>
    <path class="cls-3" d="M211.5313,72.0726c-.8583-.4048-2.1572-.8562-3.5571-.6044-1.4586.2623-1.824,1.0717-3.2014,1.511-1.6186.5163-2.4551-.1736-5.3357-.6044-3.9689-.5936-7.6693-.0751-8.1814,0-2.5516.3741-3.7282.9558-4.98.3022-1.2388-.6467-.9374-1.6606-2.1343-2.1155-.9689-.3682-1.5971.1325-4.98.9066-1.8732.4287-2.8098.643-3.5571.6044-1.1063-.0571-2.279-.441-4.6243-1.2088-1.5739-.5153-1.8675-.6807-2.49-.6044-1.3413.1643-1.406,1.1072-2.8457,1.511-1.1168.3132-1.5837-.1122-3.9129-.3022-2.1136-.1724-1.9549.1595-3.5571,0-2.0367-.2028-2.4428-.754-6.0471-1.511-1.3754-.2889-2.219-.3982-2.8457,0-.7011.4455-.4432,1.0892-.9994,1.5527-.9767.8138-2.9628-.1791-5.7592-.646-3.6482-.6091-3.5603.5311-7.8257,0-3.1826-.3963-4.0815-1.137-6.0471-.6044-1.2509.3389-1.7656.8769-3.2014.9066-1.2405.0256-1.7112-.3583-3.2014-.6044-.8988-.1484-2.2155-.2546-3.9129,0,.1823-.7224.4362-1.7636.7114-3.0221.8423-3.8514,1.2595-5.8126,1.0671-7.5552-.318-2.8811-1.4502-2.5156-1.4229-4.8353.0329-2.7873,1.6699-3.5123,1.4229-6.3464-.1682-1.9294-.9328-1.6605-1.0671-3.6265-.1905-2.7877,1.3252-3.6435.7114-6.0442-.3742-1.4634-1.0187-1.4634-1.0671-2.7199-.0636-1.6505,1.0262-2.2367,1.4229-3.9287.3774-1.6096-.335-2.2469-.7114-4.2309-.6143-3.2376.7642-4.2724,1.0671-8.1596.1221-1.567.0881-3.836-.7114-6.6486,5.4679.8537,9.8166.8097,12.8057.6044,3.1738-.218,4.0695-.5666,7.47-.6044,4.3944-.0489,5.1811.5079,9.96.6044,5.6356.1138,5.2664-.6458,8.8929-.3022,5.7213.5421,6.0193,2.3741,10.3157,2.1155,2.8432-.1711,3.1227-.998,7.8257-1.511,2.7291-.2977,2.383.0083,5.6914-.3022,4.7941-.4499,5.7669-1.1153,8.1814-.6044,2.0599.4359,2.0194,1.0615,3.9129,1.2088,2.1635.1683,2.7562-.6065,5.3357-.6044,2.0678.0017,2.3657.5001,4.2686.6044,1.4281.0783,3.477-.081,6.0471-1.2088-.2461.7597-.559,1.9072-.7114,3.3243-.2001,1.861.1088,2.0293,0,3.9287-.1841,3.2135-1.1378,3.9446-.3557,5.4398.1787.3416.712.9329,1.7786,2.1155,1.1228,1.2449,1.7726,1.8089,1.7786,2.7199.0026.403-.122.6833-.3557,1.2088-.4584,1.0308-1.0187,1.5185-1.7786,2.4177-1.3102,1.5503-1.9653,2.3254-1.7786,3.0221.2309.8615,1.3143.7782,2.1343,1.8133.1913.2415.6352.8807.3557,3.9287-.2306,2.5149-.6101,2.923-.7114,5.1375-.0878,1.9197.1921,1.7285,0,2.7199-.5197,2.682-2.3921,3.1711-2.1343,4.8353.2001,1.2916,1.3549,1.1716,2.1343,3.0221.4061.9642.2282,1.3186.3557,3.9287.1085,2.2203.2471,2.1659.3557,4.2309.0597,1.1356.1041,2.7929,0,4.8353Z"/>
    <text class="cls-14" transform="translate(146.4386 47.2531) scale(1.0629 1)"><tspan x="0" y="0">t</tspan><tspan class="cls-10" x="5.9943" y="0">r</tspan><tspan x="12.7618" y="0">ee</tspan></text>
  </g>
  <g>
    <polygon class="cls-2" points="106.9783 136.3779 106.9783 169.0901 115.3242 159.7506 124.3717 175.1873 133.2085 170.8805 124.3717 155.7826 138.185 155.7826 106.9783 136.3779"/>
    <g id="cursor-click-svgrepo-com">
      <path class="cls-5" d="M117.7501,131.4685l7.5654-3.5667,1.206,2.4805-7.9981,3.773-.7733-2.6868ZM118.3168,119.6407l-2.6325-.9157-2.8698,8.0162,2.4343,1.4713,3.068-8.5717ZM92.5804,143.3347l1.206,2.4805,7.9981-3.7675-1.6387-2.2797-7.5654,3.5667ZM100.4585,121.3292l3.0206,6.2177,2.5181-1.1852-3.0206-6.2177-2.5181,1.1852ZM99.5038,133.0167l-8.1405-2.827-.9268,2.5932,8.7016,3.025.3657-2.7912ZM141.8729,157.0326h-15.223l8.4643,16.6347-10.9992,5.4477-8.6709-16.918-9.3409,12.606v-43.483l35.7696,25.7125ZM122.0967,154.2276h11.1862l-24.4159-17.5505v29.6368l6.982-9.4242,9.4721,18.48,6.016-2.981-9.2404-18.161Z"/>
      <path class="cls-9" d="M80.9783,115.7826h67v66h-67v-66Z"/>
    </g>
  </g>
  <g>
    <path class="cls-3" d="M528.4215,70.9911c-.8583-.4048-2.1572-.8562-3.5571-.6044-1.4586.2623-1.824,1.0717-3.2014,1.511-1.6186.5163-2.4551-.1736-5.3357-.6044-3.9689-.5936-7.6693-.0751-8.1814,0-2.5516.3741-3.7282.9558-4.98.3022-1.2388-.6467-.9374-1.6606-2.1343-2.1155-.9689-.3682-1.5971.1325-4.98.9066-1.8732.4287-2.8098.643-3.5571.6044-1.1063-.0571-2.279-.441-4.6243-1.2088-1.5739-.5153-1.8675-.6807-2.49-.6044-1.3413.1643-1.406,1.1072-2.8457,1.511-1.1168.3132-1.5837-.1122-3.9129-.3022-2.1136-.1724-1.9549.1595-3.5571,0-2.0367-.2028-2.4428-.754-6.0471-1.511-1.3754-.2889-2.219-.3982-2.8457,0-.7011.4455-.4432,1.0892-.9994,1.5527-.9767.8138-2.9628-.1791-5.7592-.646-3.6482-.6091-3.5603.5311-7.8257,0-3.1826-.3963-4.0815-1.137-6.0471-.6044-1.2509.3389-1.7656.8769-3.2014.9066-1.2405.0256-1.7112-.3583-3.2014-.6044-.8988-.1484-2.2155-.2546-3.9129,0,.1823-.7224.4362-1.7636.7114-3.0221.8423-3.8514,1.2595-5.8126,1.0671-7.5552-.318-2.8811-1.4502-2.5156-1.4229-4.8353.0329-2.7873,1.6699-3.5123,1.4229-6.3464-.1682-1.9294-.9328-1.6605-1.0671-3.6265-.1905-2.7877,1.3252-3.6435.7114-6.0442-.3742-1.4634-1.0187-1.4634-1.0671-2.7199-.0636-1.6505,1.0262-2.2367,1.4229-3.9287.3774-1.6096-.335-2.2469-.7114-4.2309-.6143-3.2376.7642-4.2724,1.0671-8.1596.1221-1.567.0881-3.836-.7114-6.6486,5.4679.8537,9.8166.8097,12.8057.6044,3.1738-.218,4.0695-.5666,7.47-.6044,4.3944-.0489,5.1811.5079,9.96.6044,5.6356.1138,5.2664-.6458,8.8929-.3022,5.7213.5421,6.0193,2.3741,10.3157,2.1155,2.8432-.1711,3.1227-.998,7.8257-1.511,2.7291-.2977,2.383.0083,5.6914-.3022,4.7941-.4499,5.7669-1.1153,8.1814-.6044,2.0599.4359,2.0194,1.0615,3.9129,1.2088,2.1635.1683,2.7562-.6065,5.3357-.6044,2.0678.0017,2.3657.5001,4.2686.6044,1.4281.0783,3.477-.081,6.0471-1.2088-.2461.7597-.559,1.9072-.7114,3.3243-.2001,1.861.1088,2.0293,0,3.9287-.1841,3.2135-1.1378,3.9446-.3557,5.4398.1787.3416.712.9329,1.7786,2.1155,1.1228,1.2449,1.7726,1.8089,1.7786,2.7199.0026.403-.122.6833-.3557,1.2088-.4584,1.0308-1.0187,1.5185-1.7786,2.4177-1.3102,1.5503-1.9653,2.3254-1.7786,3.0221.2309.8615,1.3143.7782,2.1343,1.8133.1913.2415.6352.8807.3557,3.9287-.2306,2.5149-.6101,2.923-.7114,5.1375-.0878,1.9197.1921,1.7285,0,2.7199-.5197,2.682-2.3921,3.1711-2.1343,4.8353.2001,1.2916,1.3549,1.1716,2.1343,3.0221.4061.9642.2282,1.3186.3557,3.9287.1085,2.2203.2471,2.1659.3557,4.2309.0597,1.1356.1041,2.7929,0,4.8353Z"/>
    <text class="cls-14" transform="translate(467.3287 45.1716) scale(1.0629 1)"><tspan x="0" y="0">t</tspan><tspan class="cls-10" x="5.9943" y="0">r</tspan><tspan x="12.7618" y="0">ee</tspan></text>
  </g>
  <g class="cls-18">
    <g>
      <path class="cls-4" d="M455.4673,125.828c-.8583-.4048-2.1572-.8562-3.5571-.6044-1.4586.2623-1.824,1.0717-3.2014,1.511-1.6186.5163-2.4551-.1736-5.3357-.6044-3.9689-.5936-7.6693-.0751-8.1814,0-2.5516.3741-3.7282.9558-4.98.3022-1.2388-.6467-.9374-1.6606-2.1343-2.1155-.9689-.3682-1.5971.1325-4.98.9066-1.8732.4287-2.8098.643-3.5571.6044-1.1063-.0571-2.279-.441-4.6243-1.2088-1.5739-.5153-1.8675-.6807-2.49-.6044-1.3413.1643-1.406,1.1072-2.8457,1.511-1.1168.3132-1.5837-.1122-3.9129-.3022-2.1136-.1724-1.9549.1595-3.5571,0-2.0367-.2028-2.4428-.754-6.0471-1.511-1.3754-.2889-2.219-.3982-2.8457,0-.7011.4455-.4432,1.0892-.9994,1.5527-.9767.8138-2.9628-.1791-5.7592-.646-3.6482-.6091-3.5603.5311-7.8257,0-3.1826-.3963-4.0815-1.137-6.0471-.6044-1.2509.3389-1.7656.8769-3.2014.9066-1.2405.0256-1.7112-.3583-3.2014-.6044-.8988-.1484-2.2155-.2546-3.9129,0,.1823-.7224.4362-1.7636.7114-3.0221.8423-3.8514,1.2595-5.8126,1.0671-7.5552-.318-2.8811-1.4502-2.5156-1.4229-4.8353.0329-2.7873,1.6699-3.5123,1.4229-6.3464-.1682-1.9294-.9328-1.6605-1.0671-3.6265-.1905-2.7877,1.3252-3.6435.7114-6.0442-.3742-1.4634-1.0187-1.4634-1.0671-2.7199-.0636-1.6505,1.0262-2.2367,1.4229-3.9287.3774-1.6096-.335-2.2469-.7114-4.2309-.6143-3.2376.7642-4.2724,1.0671-8.1596.1221-1.567.0881-3.836-.7114-6.6486,5.4679.8537,9.8166.8097,12.8057.6044,3.1738-.218,4.0695-.5666,7.47-.6044,4.3944-.0489,5.1811.5079,9.96.6044,5.6356.1138,5.2664-.6458,8.8929-.3022,5.7213.5421,6.0193,2.3741,10.3157,2.1155,2.8432-.1711,3.1227-.998,7.8257-1.511,2.7291-.2977,2.383.0083,5.6914-.3022,4.7941-.4499,5.7669-1.1153,8.1814-.6044,2.0599.4359,2.0194,1.0615,3.9129,1.2088,2.1635.1683,2.7562-.6065,5.3357-.6044,2.0678.0017,2.3657.5001,4.2686.6044,1.4281.0783,3.477-.081,6.0471-1.2088-.2461.7597-.559,1.9072-.7114,3.3243-.2001,1.861.1088,2.0293,0,3.9287-.1841,3.2135-1.1378,3.9446-.3557,5.4398.1787.3416.712.9329,1.7786,2.1155,1.1228,1.2449,1.7726,1.8089,1.7786,2.7199.0026.403-.122.6833-.3557,1.2088-.4584,1.0308-1.0187,1.5185-1.7786,2.4177-1.3102,1.5503-1.9653,2.3254-1.7786,3.0221.2309.8615,1.3143.7782,2.1343,1.8133.1913.2415.6352.8807.3557,3.9287-.2306,2.5149-.6101,2.923-.7114,5.1375-.0878,1.9197.1921,1.7285,0,2.7199-.5197,2.682-2.3921,3.1711-2.1343,4.8353.2001,1.2916,1.3549,1.1716,2.1343,3.0221.4061.9642.2282,1.3186.3557,3.9287.1085,2.2203.2471,2.1659.3557,4.2309.0597,1.1356.1041,2.7929,0,4.8353Z"/>
      <text class="cls-14" transform="translate(389.3745 101.0084) scale(1.0629 1)"><tspan class="cls-16" x="0" y="0">a</tspan><tspan x="7.5058" y="0">pple</tspan></text>
    </g>
    <g>
      <polygon class="cls-2" points="440.8261 106.438 440.8261 140.2826 449.2233 131.1398 458.82 146.8591 467.2172 143.4906 458.3262 126.6957 470.9799 126.6957 440.8261 106.438"/>
      <g id="cursor-svgrepo-com">
        <path class="cls-11" d="M464.5631,141.9597l-5.7467,2.6197-9.048-16.24-6.6693,8.2819v-26.0444l23.3227,15.4232h-10.6827l8.824,15.9597ZM474.5471,128.3925l-34.168-22.5958v38.2123l8.92-11.078,8.2827,14.8673,10.5067-4.7874-8.0853-14.6184h14.544Z"/>
        <path class="cls-9" d="M421.7391,97h64v58h-64v-58Z"/>
      </g>
    </g>
  </g>
  <g class="cls-7">
    <g>
      <path class="cls-4" d="M431.7264,146.6514c-.8583-.4048-2.1572-.8562-3.5571-.6044-1.4586.2623-1.824,1.0717-3.2014,1.511-1.6186.5163-2.4551-.1736-5.3357-.6044-3.9689-.5936-7.6693-.0751-8.1814,0-2.5516.3741-3.7282.9558-4.98.3022-1.2388-.6467-.9374-1.6606-2.1343-2.1155-.9689-.3682-1.5971.1325-4.98.9066-1.8732.4287-2.8098.643-3.5571.6044-1.1063-.0571-2.279-.441-4.6243-1.2088-1.5739-.5153-1.8675-.6807-2.49-.6044-1.3413.1643-1.406,1.1072-2.8457,1.511-1.1168.3132-1.5837-.1122-3.9129-.3022-2.1136-.1724-1.9549.1595-3.5571,0-2.0367-.2028-2.4428-.754-6.0471-1.511-1.3754-.2889-2.219-.3982-2.8457,0-.7011.4455-.4432,1.0892-.9994,1.5527-.9767.8138-2.9628-.1791-5.7592-.646-3.6482-.6091-3.5603.5311-7.8257,0-3.1826-.3963-4.0815-1.137-6.0471-.6044-1.2509.3389-1.7656.8769-3.2014.9066-1.2405.0256-1.7112-.3583-3.2014-.6044-.8988-.1484-2.2155-.2546-3.9129,0,.1823-.7224.4362-1.7636.7114-3.0221.8423-3.8514,1.2595-5.8126,1.0671-7.5552-.318-2.8811-1.4502-2.5156-1.4229-4.8353.0329-2.7873,1.6699-3.5123,1.4229-6.3464-.1682-1.9294-.9328-1.6605-1.0671-3.6265-.1905-2.7877,1.3252-3.6435.7114-6.0442-.3742-1.4634-1.0187-1.4634-1.0671-2.7199-.0636-1.6505,1.0262-2.2367,1.4229-3.9287.3774-1.6096-.335-2.2469-.7114-4.2309-.6143-3.2376.7642-4.2724,1.0671-8.1596.1221-1.567.0881-3.836-.7114-6.6486,5.4679.8537,9.8166.8097,12.8057.6044,3.1738-.218,4.0695-.5666,7.47-.6044,4.3944-.0489,5.1811.5079,9.96.6044,5.6356.1138,5.2664-.6458,8.8929-.3022,5.7213.5421,6.0193,2.3741,10.3157,2.1155,2.8432-.1711,3.1227-.998,7.8257-1.511,2.7291-.2977,2.383.0083,5.6914-.3022,4.7941-.4499,5.7669-1.1153,8.1814-.6044,2.0599.4359,2.0194,1.0615,3.9129,1.2088,2.1635.1683,2.7562-.6065,5.3357-.6044,2.0678.0017,2.3657.5001,4.2686.6044,1.4281.0783,3.477-.081,6.0471-1.2088-.2461.7597-.559,1.9072-.7114,3.3243-.2001,1.861.1088,2.0293,0,3.9287-.1841,3.2135-1.1378,3.9446-.3557,5.4398.1787.3416.712.9329,1.7786,2.1155,1.1228,1.2449,1.7726,1.8089,1.7786,2.7199.0026.403-.122.6833-.3557,1.2088-.4584,1.0308-1.0187,1.5185-1.7786,2.4177-1.3102,1.5503-1.9653,2.3254-1.7786,3.0221.2309.8615,1.3143.7782,2.1343,1.8133.1913.2415.6352.8807.3557,3.9287-.2306,2.5149-.6101,2.923-.7114,5.1375-.0878,1.9197.1921,1.7285,0,2.7199-.5197,2.682-2.3921,3.1711-2.1343,4.8353.2001,1.2916,1.3549,1.1716,2.1343,3.0221.4061.9642.2282,1.3186.3557,3.9287.1085,2.2203.2471,2.1659.3557,4.2309.0597,1.1356.1041,2.7929,0,4.8353Z"/>
      <text class="cls-14" transform="translate(365.6336 119.8319) scale(1.0629 1)"><tspan class="cls-16" x="0" y="0">a</tspan><tspan x="7.5058" y="0">pple</tspan></text>
    </g>
    <g>
      <polygon class="cls-2" points="415.0852 126.2615 415.0852 160.1061 423.4824 150.9632 433.0792 166.6825 441.4764 163.3141 432.5854 146.5191 445.2391 146.5191 415.0852 126.2615"/>
      <g id="cursor-svgrepo-com-2" data-name="cursor-svgrepo-com">
        <path class="cls-11" d="M438.8223,161.7831l-5.7467,2.6197-9.048-16.24-6.6693,8.2819v-26.0444l23.3227,15.4232h-10.6827l8.824,15.9597ZM448.8063,148.216l-34.168-22.5958v38.2123l8.92-11.078,8.2827,14.8673,10.5067-4.7874-8.0853-14.6184h14.544Z"/>
        <path class="cls-9" d="M395.9983,116.8235h64v58h-64v-58Z"/>
      </g>
    </g>
  </g>
  <g>
    <g>
      <path class="cls-1" d="M487.8133,103.3906c-.8583-.4048-2.1572-.8562-3.5571-.6044-1.4586.2623-1.824,1.0717-3.2014,1.511-1.6186.5163-2.4551-.1736-5.3357-.6044-3.9689-.5936-7.6693-.0751-8.1814,0-2.5516.3741-3.7282.9558-4.98.3022-1.2388-.6467-.9374-1.6606-2.1343-2.1155-.9689-.3682-1.5971.1325-4.98.9066-1.8732.4287-2.8098.643-3.5571.6044-1.1063-.0571-2.279-.441-4.6243-1.2088-1.5739-.5153-1.8675-.6807-2.49-.6044-1.3413.1643-1.406,1.1072-2.8457,1.511-1.1168.3132-1.5837-.1122-3.9129-.3022-2.1136-.1724-1.9549.1595-3.5571,0-2.0367-.2028-2.4428-.754-6.0471-1.511-1.3754-.2889-2.219-.3982-2.8457,0-.7011.4455-.4432,1.0892-.9994,1.5527-.9767.8138-2.9628-.1791-5.7592-.646-3.6482-.6091-3.5603.5311-7.8257,0-3.1826-.3963-4.0815-1.137-6.0471-.6044-1.2509.3389-1.7656.8769-3.2014.9066-1.2405.0256-1.7112-.3583-3.2014-.6044-.8988-.1484-2.2155-.2546-3.9129,0,.1823-.7224.4362-1.7636.7114-3.0221.8423-3.8514,1.2595-5.8126,1.0671-7.5552-.318-2.8811-1.4502-2.5156-1.4229-4.8353.0329-2.7873,1.6699-3.5123,1.4229-6.3464-.1682-1.9294-.9328-1.6605-1.0671-3.6265-.1905-2.7877,1.3252-3.6435.7114-6.0442-.3742-1.4634-1.0187-1.4634-1.0671-2.7199-.0636-1.6505,1.0262-2.2367,1.4229-3.9287.3774-1.6096-.335-2.2469-.7114-4.2309-.6143-3.2376.7642-4.2724,1.0671-8.1596.1221-1.567.0881-3.836-.7114-6.6486,5.4679.8537,9.8166.8097,12.8057.6044,3.1738-.218,4.0695-.5666,7.47-.6044,4.3944-.0489,5.1811.5079,9.96.6044,5.6356.1138,5.2664-.6458,8.8929-.3022,5.7213.5421,6.0193,2.3741,10.3157,2.1155,2.8432-.1711,3.1227-.998,7.8257-1.511,2.7291-.2977,2.383.0083,5.6914-.3022,4.7941-.4499,5.7669-1.1153,8.1814-.6044,2.0599.4359,2.0194,1.0615,3.9129,1.2088,2.1635.1683,2.7562-.6065,5.3357-.6044,2.0678.0017,2.3657.5001,4.2686.6044,1.4281.0783,3.477-.081,6.0471-1.2088-.2461.7597-.559,1.9072-.7114,3.3243-.2001,1.861.1088,2.0293,0,3.9287-.1841,3.2135-1.1378,3.9446-.3557,5.4398.1787.3416.712.9329,1.7786,2.1155,1.1228,1.2449,1.7726,1.8089,1.7786,2.7199.0026.403-.122.6833-.3557,1.2088-.4584,1.0308-1.0187,1.5185-1.7786,2.4177-1.3102,1.5503-1.9653,2.3254-1.7786,3.0221.2309.8615,1.3143.7782,2.1343,1.8133.1913.2415.6352.8807.3557,3.9287-.2306,2.5149-.6101,2.923-.7114,5.1375-.0878,1.9197.1921,1.7285,0,2.7199-.5197,2.682-2.3921,3.1711-2.1343,4.8353.2001,1.2916,1.3549,1.1716,2.1343,3.0221.4061.9642.2282,1.3186.3557,3.9287.1085,2.2203.2471,2.1659.3557,4.2309.0597,1.1356.1041,2.7929,0,4.8353Z"/>
      <text class="cls-14" transform="translate(419.7206 77.571) scale(1.0629 1)"><tspan class="cls-16" x="0" y="0">a</tspan><tspan x="7.5058" y="0">pple</tspan></text>
    </g>
    <g>
      <polygon class="cls-2" points="473.1722 84.0006 473.1722 117.8452 481.5694 108.7024 491.1661 124.4217 499.5633 121.0532 490.6723 104.2583 503.326 104.2583 473.1722 84.0006"/>
      <g id="cursor-svgrepo-com-3" data-name="cursor-svgrepo-com">
        <path class="cls-11" d="M496.9092,119.5223l-5.7467,2.6197-9.048-16.24-6.6693,8.2819v-26.0444l23.3227,15.4232h-10.6827l8.824,15.9597ZM506.8932,105.9551l-34.168-22.5958v38.2123l8.92-11.078,8.2827,14.8673,10.5067-4.7874-8.0853-14.6184h14.544Z"/>
        <path class="cls-9" d="M454.0852,74.5626h64v58h-64v-58Z"/>
      </g>
    </g>
  </g>
  <g>
    <path class="cls-3" d="M837.1956,140.7593c-1.6191-.8116-4.0696-1.7167-6.7105-1.2119-2.7517.526-3.4409,2.1488-6.0395,3.0297-3.0534,1.0351-4.6315-.348-10.0658-1.2119-7.4874-1.1903-14.4681-.1505-15.4342,0-4.8136.7501-7.0333,1.9163-9.3947.6059-2.3369-1.2968-1.7685-3.3297-4.0263-4.2416-1.8277-.7382-3.013.2657-9.3947,1.8178-3.5338.8595-5.3008,1.2892-6.7105,1.2119-2.087-.1145-4.2993-.8843-8.7237-2.4238-2.9692-1.0332-3.5231-1.3648-4.6974-1.2119-2.5304.3295-2.6523,2.2201-5.3684,3.0297-2.1068.628-2.9877-.225-7.3816-.6059-3.9872-.3457-3.6879.3199-6.7105,0-3.8422-.4066-4.6083-1.5118-11.4079-3.0297-2.5946-.5792-4.1861-.7985-5.3684,0-1.3226.8932-.8361,2.184-1.8853,3.1132-1.8425,1.6318-5.5893-.3592-10.8647-1.2954-6.8824-1.2214-6.7165,1.0649-14.7632,0-6.004-.7946-7.6998-2.2797-11.4079-1.2119-2.3598.6795-3.3309,1.7583-6.0395,1.8178-2.3401.0514-3.2283-.7184-6.0395-1.2119-1.6955-.2976-4.1795-.5104-7.3816,0,.3439-1.4484.8229-3.5361,1.3421-6.0595,1.5889-7.7222,2.376-11.6546,2.0132-15.1487-.5999-5.7768-2.7358-5.044-2.6842-9.6952.062-5.5887,3.1502-7.0424,2.6842-12.7249-.3172-3.8687-1.7596-3.3294-2.0132-7.2714-.3595-5.5896,2.5-7.3055,1.3421-12.1189-.7058-2.9343-1.9218-2.9343-2.0132-5.4535-.1199-3.3094,1.9358-4.4847,2.6842-7.8773.7119-3.2273-.6319-4.5052-1.3421-8.4833-1.159-6.4917,1.4416-8.5665,2.0132-16.3606.2304-3.1419.1662-7.6915-1.3421-13.3308,10.3152,1.7116,18.5189,1.6235,24.1579,1.2119,5.9874-.437,7.6771-1.136,14.0921-1.2119,8.29-.0981,9.7741,1.0183,18.7895,1.2119,10.6316.2283,9.9349-1.295,16.7763-.6059,10.7931,1.087,11.3553,4.7601,19.4605,4.2416,5.3637-.3431,5.891-2.0011,14.7632-3.0297,5.1484-.5969,4.4954.0166,10.7368-.6059,9.044-.902,10.8793-2.2363,15.4342-1.2119,3.886.874,3.8096,2.1284,7.3816,2.4238,4.0814.3375,5.1995-1.2161,10.0658-1.2119,3.9009.0034,4.4628,1.0028,8.0526,1.2119,2.6941.1569,6.5594-.1624,11.4079-2.4238-.4642,1.5232-1.0546,3.8241-1.3421,6.6654-.3775,3.7314.2052,4.069,0,7.8773-.3472,6.4433-2.1464,7.9092-.6711,10.9071.3371.685,1.3432,1.8706,3.3553,4.2416,2.1182,2.4961,3.344,3.627,3.3553,5.4535.005.8081-.2301,1.37-.6711,2.4238-.8647,2.0668-1.9217,3.0447-3.3553,4.8476-2.4717,3.1084-3.7075,4.6626-3.3553,6.0595.4356,1.7273,2.4793,1.5603,4.0263,3.6357.3609.4842,1.1983,1.7659.6711,7.8773-.435,5.0425-1.151,5.8609-1.3421,10.3011-.1657,3.8492.3624,3.4658,0,5.4535-.9804,5.3776-4.5127,6.3582-4.0263,9.6952.3775,2.5897,2.556,2.3491,4.0263,6.0595.7661,1.9332.4304,2.6438.6711,7.8773.2047,4.4518.4662,4.3428.6711,8.4833.1126,2.277.1963,5.5999,0,9.6952Z"/>
    <text class="cls-13" transform="translate(690.2153 74.9895)"><tspan x="0" y="0">An </tspan><tspan class="cls-8" x="30.3413" y="0">a</tspan><tspan x="39.0981" y="0">pple </tspan><tspan class="cls-8" x="80.5957" y="0">f</tspan><tspan x="85.6406" y="0">ell</tspan><tspan x="0" y="25.2002">f</tspan><tspan class="cls-17" x="5.25" y="25.2002">r</tspan><tspan x="13.043" y="25.2002">om the t</tspan><tspan class="cls-15" x="87.0352" y="25.2002">r</tspan><tspan x="94.9307" y="25.2002">e</tspan><tspan class="cls-12" x="104.9897" y="25.2002">e</tspan><tspan class="cls-6" x="115.4692" y="25.2002">.</tspan></text>
  </g>
  <path class="cls-3" d="M293.4373,96.4681l-.0553-1.5945-.2214-6.378c-24.813,1.708-43.7267.7999-44.6674-2.5573-.1122-.4005-.4216-2.4522-.483-4.816-.0522-2.0087.0854-3.8329.1694-4.2194.7165-3.2986,19.4603-2.8388,44.0426.4129l-.2214-6.378-.1107-3.189c.2564.0809.8883.2843,1.6714.5868,2.6989,1.0425,6.8651,3.1345,17.5236,13.3278.7945.7598,1.419,1.3675,1.7083,1.6498-.2922.2878-.8652.8487-1.5976,1.5391-5.1403,4.8455-9.6808,9.0445-16.1239,11.1395-.7741.2517-1.3999.4159-1.6345.4762Z"/>
  <path class="cls-3" d="M618.3503,95.4899l-.0553-1.5945-.2214-6.378c-24.813,1.708-43.7267.7999-44.6674-2.5573-.1122-.4005-.4216-2.4522-.483-4.816-.0522-2.0087.0854-3.8329.1694-4.2194.7165-3.2986,19.4603-2.8388,44.0426.4129l-.2214-6.378-.1107-3.189c.2564.0809.8883.2843,1.6714.5868,2.6989,1.0425,6.8651,3.1345,17.5236,13.3278.7945.7598,1.419,1.3675,1.7083,1.6498-.2922.2878-.8652.8487-1.5976,1.5391-5.1403,4.8455-9.6808,9.0445-16.1239,11.1395-.7741.2517-1.3999.4159-1.6345.4762Z"/>
</svg>