<?xml version="1.0" encoding="UTF-8"?>
<svg id="Layer_1" xmlns="http://www.w3.org/2000/svg" viewBox="0 0 625 174">
  <defs>
    <style>
      .cls-1 {
        stroke-width: .7407px;
      }

      .cls-1, .cls-2, .cls-3, .cls-4, .cls-5, .cls-6, .cls-7, .cls-8, .cls-9, .cls-10 {
        fill: none;
      }

      .cls-1, .cls-2, .cls-3, .cls-5, .cls-6, .cls-7, .cls-8, .cls-9, .cls-10 {
        stroke: #000;
        stroke-linecap: round;
        stroke-linejoin: round;
      }

      .cls-11 {
        fill: #4d4d4d;
      }

      .cls-12, .cls-13 {
        fill: #fff;
      }

      .cls-13 {
        stroke: #fff;
        stroke-miterlimit: 10;
        stroke-width: 3px;
      }

      .cls-2 {
        stroke-width: .6481px;
      }

      .cls-3 {
        stroke-width: .5556px;
      }

      .cls-5 {
        stroke-width: .9259px;
      }

      .cls-6 {
        stroke-width: .8333px;
      }

      .cls-7 {
        stroke-width: 1.0185px;
      }

      .cls-14 {
        letter-spacing: -.0098em;
      }

      .cls-8 {
        stroke-width: 1.5741px;
      }

      .cls-15 {
        font-family: GillSansMT, 'Gill Sans MT';
        font-size: 22.7129px;
      }

      .cls-9 {
        stroke-width: 1.2037px;
      }

      .cls-16 {
        font-family: CourierNewPS-BoldMT, 'Courier New';
        font-size: 20px;
        font-weight: 700;
      }

      .cls-10 {
        stroke-width: .2778px;
      }

      .cls-17 {
        letter-spacing: -.02em;
      }
    </style>
  </defs>
  <g>
    <path class="cls-13" d="M236.6978,152.2873c-1.9918-1.0068-5.0064-2.1296-8.2553-1.5034-3.3851.6525-4.233,2.6657-7.4298,3.7585-3.7564,1.2841-5.6976-.4317-12.383-1.5034-9.211-1.4765-17.7987-.1868-18.9872,0-5.9218.9305-8.6524,2.3773-11.5574.7517-2.8749-1.6087-2.1756-4.1305-4.9532-5.2619-2.2485-.9158-3.7066.3296-11.5574,2.2551-4.3473,1.0662-6.521,1.5993-8.2553,1.5034-2.5675-.1421-5.289-1.097-10.7319-3.0068-3.6527-1.2817-4.3341-1.6931-5.7787-1.5034-3.1129.4087-3.2629,2.7541-6.6042,3.7585-2.5918.7791-3.6755-.2792-9.0808-.7517-4.9051-.4288-4.5368.3968-8.2553,0-4.7266-.5044-5.6691-1.8755-14.034-3.7585-3.1919-.7185-5.1498-.9905-6.6042,0-1.6271,1.1081-1.0285,2.7093-2.3193,3.862-2.2666,2.0242-6.876-.4455-13.3658-1.6069-8.4667-1.5152-8.2626,1.3211-18.1617,0-7.3862-.9857-9.4723-2.828-14.034-1.5034-2.903.843-4.0976,2.1813-7.4298,2.2551-2.8788.0638-3.9714-.8912-7.4298-1.5034-2.0858-.3692-5.1416-.6332-9.0808,0,.4231-1.7968,1.0123-4.3866,1.6511-7.5169,1.9547-9.5796,2.9229-14.4578,2.4766-18.7923-.738-7.1663-3.3656-6.2572-3.3021-12.0271.0763-6.933,3.8754-8.7363,3.3021-15.7856-.3903-4.7992-2.1647-4.1302-2.4766-9.0203-.4422-6.934,3.0755-9.0626,1.6511-15.0339-.8683-3.64-2.3643-3.6401-2.4766-6.7652-.1476-4.1053,2.3815-5.5633,3.3021-9.772.8758-4.0036-.7774-5.5888-1.6511-10.5237-1.4258-8.0531,1.7734-10.6269,2.4766-20.2957.2834-3.8976.2045-9.5415-1.6511-16.5373,12.6898,2.1233,22.782,2.014,29.7191,1.5034,7.3657-.5421,9.4444-1.4093,17.3361-1.5034,10.1984-.1216,12.0242,1.2633,23.1149,1.5034,13.079.2832,12.222-1.6064,20.6383-.7517,13.2777,1.3485,13.9694,5.9051,23.9404,5.2619,6.5984-.4256,7.2471-2.4825,18.1617-3.7585,6.3336-.7404,5.5303.0205,13.2085-.7517,11.1259-1.119,13.3837-2.7742,18.9872-1.5034,4.7806,1.0842,4.6865,2.6404,9.0808,3.0068,5.021.4186,6.3964-1.5086,12.383-1.5034,4.7989.0042,5.4902,1.244,9.9064,1.5034,3.3143.1947,8.0694-.2014,14.034-3.0068-.571,1.8896-1.2974,4.744-1.6511,8.2686-.4644,4.6289.2525,5.0477,0,9.772-.4272,7.9931-2.6405,9.8115-.8255,13.5305.4147.8498,1.6524,2.3205,4.1277,5.2619,2.6058,3.0965,4.1138,4.4993,4.1277,6.7652.0061,1.0025-.2831,1.6995-.8255,3.0068-1.0638,2.5639-2.3641,3.777-4.1277,6.0135-3.0407,3.8561-4.561,5.7841-4.1277,7.5169.5359,2.1428,3.0501,1.9355,4.9532,4.5102.444.6006,1.4741,2.1907.8255,9.772-.5352,6.2553-1.4159,7.2706-1.6511,12.7788-.2038,4.775.4458,4.2994,0,6.7652-1.2061,6.671-5.5516,7.8876-4.9532,12.0271.4644,3.2126,3.1444,2.9142,4.9532,7.5169.9425,2.3982.5295,3.2797.8255,9.772.2518,5.5226.5735,5.3873.8255,10.5237.1386,2.8247.2415,6.9468,0,12.0271Z"/>
    <text class="cls-16" transform="translate(45.9858 42.0684)"><tspan x="0" y="0">The apple fell</tspan><tspan x="0" y="24">from the tree.</tspan></text>
  </g>
  <g>
    <path class="cls-2" d="M204.9629,135.4261c.3805.0138.7601-.0097,1.1401-.0266.2313-.0103.4615-.029.6921-.0465.2533-.0192.3311-.1114.3407-.3911.0252-.7336.0429-1.4673.054-2.2013.0068-.4494.0362-.8985.0368-1.3477.0008-.5594.0233-1.1184.0382-1.6769.0122-.4591.0101-.9189.0299-1.3781.0239-.5535.0278-1.1081.0437-1.662.0158-.5491.0407-1.098.0521-1.6473.0084-.4037-.0186-.4273-.3783-.4645-.5607-.0579-1.1215-.0677-1.6829-.015-.0498.0047-.1021-.0213-.1493.0153"/>
    <path class="cls-1" d="M208.8037,135.2464c.0282-.0874.1051-.0747.1632-.0878.3209-.0725.6402-.1523.9488-.2742.0885-.0349.1775-.0713.2604-.1292.1795-.1255.2329-.3.2471-.5267.0396-.6286.0157-1.26.0768-1.8872.001-.0099,0-.02.0001-.0299.009-.3943.0095-.7892.0291-1.1829.0317-.6386.0398-1.2778.0593-1.9166.0079-.2594-.0051-.5216.0246-.7783.0312-.2706.0063-.5403.0241-.8091.0374-.5635.0458-1.1276.0558-1.6922.0079-.4446.0453-.8884.0635-1.3329.0076-.1847-.0569-.2691-.2159-.2825-.229-.0193-.454.0304-.6783.0737-.2945.0569-.5879.1213-.8826.1767-.0487.0092-.0801.0689-.1354.0472"/>
    <path class="cls-6" d="M201.3258,134.8871c.4434.0995.8911.1567,1.3436.1641.2087.0034.2668-.0608.2998-.2837.047-.318.0476-.6402.0485-.9586.0078-2.9699.0043-5.9399.0054-8.9098,0-.196-.0127-.2223-.2034-.2737-.3537-.0954-.7118-.1288-1.0731-.1462-.1223-.0059-.2443-.0193-.3665-.0293"/>
    <path class="cls-2" d="M211.9387,120.9158c.0784.1686.0388.3489.0388.5241,0,.1647-.0282.3299-.0226.4941.0106.3109-.0222.6191-.0325.9284-.0163.4896-.0386.9791-.0732,1.4681-.0144.2033-.0289.4084-.036.6133-.0162.4647-.0543.9284-.0764,1.3929-.01.2095-.0187.42-.0227.629-.0053.2801-.0222.5598-.0387.838-.0246.4143-.0387.8295-.0702,1.2438-.0277.3629-.0402.7283-.0586,1.0927-.0235.4639-.0338.9286-.0568,1.3925-.0161.3248-.0415.6492-.0679.9733-.0094.1154.0159.2129.0827.2996"/>
    <path class="cls-3" d="M207.9215,124.5097c.0181.5446-.0213,1.0881-.0318,1.6321-.0133.6888-.0355,1.3777-.0549,2.0664-.0133.4744-.0071.949-.0246,1.4226-.0264.7137-.0399,1.4274-.0554,2.1414-.0144.6639-.0388,1.3276-.0529,1.9916-.0087.4093-.0441.8179-.0389,1.228.0005.0399-.0084.0799-.0129.1198"/>
    <path class="cls-3" d="M203.5786,124.6295c.0297.289.0099.5791.0095.8685,0,.0473-.0085.1001-.0086.1498-.0013.8186.0008,1.6372-.0014,2.4558-.0028,1.0682.001,2.1366-.0166,3.2045-.0112.679-.0015,1.3578-.0104,2.0366-.0078.599-.0178,1.198-.0269,1.7969"/>
    <path class="cls-8" d="M212.3866,132.8954c-.2505-.2128-.5284-.2031-.8141-.119-.0669.0197-.0945.0797-.1251.1474-.0906.2003-.1146.4134-.118.6305-.0041.2562-.0572.5069-.061.7636-.001.0655-.0141.1402.0087.193.0994.2296.022.4486-.036.6588-.0543.197-.2206.3007-.374.4072-.3647.2532-.7735.3765-1.1806.5108-.3528.1164-.7116.1996-1.0735.2626-.2288.0398-.4615.0572-.6917.0932-.6166.0964-1.2378.1287-1.8591.1163-.4932-.0098-.9874.0166-1.479-.0169-.371-.0253-.743-.0493-1.1138-.0925-.3297-.0384-.6563-.1178-.9902-.1109-.0226.0005-.0516.0102-.0669-.0015-.2047-.1556-.4596-.2203-.6278-.4454-.1219-.1631-.3157-.1298-.3889.0586-.0523.1347-.1462.2164-.2456.2998-.0442.0371-.0909.0343-.1364.0273-.1723-.0265-.3438-.0598-.516-.0878-.0644-.0105-.1157-.0446-.1628-.0905"/>
    <path class="cls-2" d="M211.4094,123.9706c.0384.2505-.0084.4992-.0149.7487-.008.3047-.0241.6091-.0398.9135-.0273.5291-.0407,1.0589-.0768,1.5877-.0156.2284-.0193.459-.0302.6885-.022.464-.0288.929-.0581,1.3924-.0237.3743-.0413.7483-.0541,1.1232-.0227.6642-.0527,1.3285-.0958,1.9914-.0221.3394-.0439.6794-.0717,1.0178-.0206.2504.0022.5013-.0335.7495"/>
    <path class="cls-6" d="M211.2194,117.1872c.0226.025.0431.053.0682.0744.1564.1333.1921.281.1074.4643-.015.0325-.0489.036-.0801.0473-.4493.1633-.9081.284-1.3712.3881-.3681.0827-.7404.1311-1.1129.1803-.2902.0384-.5783.0976-.869.1309-.2793.032-.5605.0524-.8412.0603-.4658.0131-.9328-.0067-1.3976.022-.5861.0362-1.1674-.0333-1.7509-.0527-.1047-.0035-.2104-.0176-.315-.0644-.0668-.0299-.1614.0056-.2412.024-.1303.0301-.2606.0492-.3939.0437-.0944-.0039-.182.0303-.2427.106-.171.2131-.4021.3156-.6262.4319-.049.0255-.0696.0577-.0841.1198-.0846.363-.2319.6966-.4012,1.021-.0627.1201-.1258.1311-.2345.0905-.22-.0823-.4245-.2024-.636-.3049-.1928-.0934-.3792-.1859-.5984-.1804-.1809.0046-.2792-.1705-.259-.4009.0288-.3286.054-.6594.0115-.9877-.021-.1627-.0337-.3184.0012-.4803.0224-.104-.0162-.2091-.0249-.3139-.0072-.086-.0743-.0743-.1224-.089-.1285-.0393-.2657.0102-.3936-.0452-.057-.0247-.1185-.0375-.1628-.0903-.2326-.277-.506-.2378-.7868-.1191-.181.0765-.3199.2201-.4464.3752-.066.0809-.0973.1662-.0776.2992.0437.2949.0461.5974.0616.8971.0122.2344.0138.4696.0295.7036.0103.1529.0926.2831.1339.4269"/>
    <path class="cls-2" d="M209.3601,115.2555c-.0226-.0449-.0529-.0873-.0663-.1353-.0286-.1027-.0302-.1992.0514-.2854.1253-.1324.1801-.3154.1676-.4918-.0075-.1065-.0248-.2079-.0044-.3155.0481-.2539.0909-.509.1367-.7635.0765-.4244.1549-.8483.2287-1.2733.0072-.0415.0143-.0897-.0109-.1349-.1051-.1885-.0443-.392.0073-.5656.0881-.2963.0425-.5915.0593-.8865.0096-.1688-.1076-.2226-.2165-.2851-.1239-.0712-.2571-.1047-.394-.1178-.1058-.0102-.1574.0754-.2035.1633-.0981.1872-.165.3891-.2014.5994-.0575.3325-.1728.6462-.2448.9733-.0577.2624-.0892.5323-.1534.7925-.1384.561-.2624,1.1236-.2825,1.7078"/>
    <path class="cls-6" d="M199.9279,129.5112c.0889-.1252.0813-.2732.0814-.4193.0002-.5541.0112-1.1085-.0032-1.6621-.0134-.5193.0059-1.0388-.0133-1.5573-.0161-.4343-.009-.8697-.048-1.3033-.0076-.0843-.0385-.1177-.0979-.1505-.1509-.0831-.3148-.1171-.4755-.1635-.1582-.0457-.3159-.0935-.4754-.1328-.0469-.0116-.0991.0028-.1488.0053"/>
    <path class="cls-6" d="M218.073,131.3531c-.1127-.1877-.301-.2205-.4748-.2852-.2941-.1095-.5772-.2507-.881-.3347-.1972-.0545-.3815.0101-.5713.0118-.1711.0015-.3439.0257-.5155.0428-.5376.0536-1.0778.0334-1.6155.0833-.2385.0221-.4793.0133-.7191.0177-.1578.0029-.2433.0612-.2831.2253-.0559.2301-.1437.4535-.1141.7038.0096.0815-.0074.1778-.0401.2524-.0982.224-.0899.4551-.0648.6904"/>
    <path class="cls-3" d="M200.5115,124.5097c0,.9234-.0088,1.847.0036,2.7702.0066.4942-.0037.9887.0132,1.4824.0096.2798.0038.5592.0108.8387.003.1194-.016.2336-.0547.3444"/>
    <path class="cls-1" d="M192.6671,135.6208c.1719.01.3437.0223.5158.0288.0738.0028.1361-.0359.1756-.1043.0796-.1379.16-.2758.2301-.4196.077-.158.1595-.215.3136-.1939.2367.0324.4423.1204.5565.3744.0365.0812.0878.1551.1511.2069.1055.0863.1191.2087.1329.3323.0216.1938.0927.2542.2583.1928.1383-.0513.2718-.1186.4077-.1778.163-.071.2397-.0496.3098.1208.0979.2379.2581.4215.4106.6117.17.2121.3764.2511.6242.1698.386-.1266.768-.2598,1.126-.4669.0273-.0158.0577-.0175.0952-.0038.3787.139.756.2851,1.1402.403.3373.1035.6778.198,1.0302.2313.303.0286.6039.083.9095.0723.3031-.0107.6063-.0172.9092-.0312.1805-.0084.2659-.1454.3265-.313.0367-.1016.0807-.2.1214-.2998"/>
    <path class="cls-1" d="M216.8923,133.5393c.1282-.0452.2511-.0026.3655.0475.3118.1366.6499.1868.9509.3568.225-.0459.3795.1416.5694.2117.2333.0862.4629.1852.6925.2832.1974.0842.2318.1452.2307.3886-.0009.2022-.0359.396-.136.5687-.1631.2816-.2699.326-.5697.2559-.1119-.0262-.2256-.044-.3392-.0601-.1219-.0173-.2304-.0533-.3277-.148-.1368-.1333-.2311-.1183-.3508.0274-.061.0742-.1228.2107-.1595.3467-.1829.1396-.356.0346-.5329-.0008-.3362-.0674-.664-.1772-1.0037-.229-.2899-.0442-.5717.003-.8401.0985-.4281.1522-.8394.0848-1.2498-.0526-.4832-.1618-.9526-.3697-1.4383-.5252-.3253-.1041-.6449-.2313-.9636-.3588-.1458-.0583-.2896-.0307-.4351-.0276"/>
    <path class="cls-1" d="M207.623,114.7314c.1308.2028.1147.4454.1486.674.0597.4025.1501.7907.3796,1.1238.064.093.1256.1107.2331.0797.1836-.0529.3662-.1105.5394-.1909.102-.0474.1873-.043.2727.0072.2151.1264.4381.2235.6793.2684.1754.0326.3544-.0011.53.0414.0582.0141.085-.0632.1205-.103.2615-.2929.5482-.548.8845-.7423.115.0894.1375.2204.1468.3542.0102.1454-.0041.2904-.0259.4342-.0111.0732-.0397.1377-.0818.1944-.0732.0985-.169.1719-.2347.2816-.034.0568-.1196.0562-.1858.0622-.105.0096-.2072.027-.2986.0905-.0591.0411-.1256.0366-.1898.0283-.0372-.0048-.076-.034-.1082.0024-.1428.1617-.3384.1546-.5168.1912-.3409.0699-.6849.1219-1.031.1522-.303.0266-.6064.0472-.9092.0759-.4429.0421-.8891.0283-1.3305.1008-.101.0166-.2086.0169-.3117-.0117"/>
    <path class="cls-1" d="M218.9416,131.4729c-.2714-.0349-.5428-.0701-.8143-.1046-.0423-.0054-.0734.0128-.1105.0415-.0879.0681-.1892.0735-.297.0508-.1064-.0224-.2165-.0252-.3253-.032-.1265-.0079-.2533-.0127-.38-.0143-.0358-.0005-.0718-.0112-.1092.0124-.1344.085-.2539.0332-.3811-.04-.125-.072-.263-.1225-.395-.1734-.1304-.0503-.2865-.0267-.4311-.0237-.5881.0121-1.1766.0195-1.7642.0475-.3085.0147-.6154.04-.923-.0038"/>
    <path class="cls-1" d="M198.1093,124.6295c.1559.152.1616.3653.1897.5691.0068.0495.0069.1002.0144.1496.0168.1098.0703.1786.1758.1955.2491.0399.4322.2175.6229.3759.0326.0271.0216.0821.0185.1328-.0241.3905-.1713.7428-.2772,1.107-.0971.3335-.2147.6598-.3233.9892-.0337.1023-.0489.2064-.0238.3152.1559.0473.2989-.0226.4446-.0754.3488-.1262.4243-.0863.5944.3305.0577.1413.0846.298.1247.4479.037.1385.0869.27.2182.3267.052.0225.0694.0702.0918.1091.1042.1813.2655.2748.4383.3367.0635.0228.1208.0487.1593.0976.3577.4545.8073.7718,1.2764,1.0636.16.0996.3104.2206.4345.3731.0819.1006.1463.2175.094.3577-.0542.1454-.2349.2429-.3783.2265-.0855-.0098-.1718.0048-.2581-.0139-.0511-.0111-.0931.0149-.1229.0721-.1397.2683-.3531.2802-.5967.2134-.1133-.0311-.2322-.0566-.3525-.0192-.0582.0181-.1023-.0286-.1491-.0585-.1204-.0768-.2477-.1059-.3791-.0431-.0457.0219-.0878.0175-.122-.004-.1301-.0818-.2669-.0835-.4081-.058"/>
    <path class="cls-1" d="M216.458,133.2249c-.1993.1712-.429.296-.6119.4928-.0422.0454-.0978.0548-.1622.0332-.2258-.0755-.4596-.0595-.6916-.063-.033-.0005-.06.0123-.0807.0321-.217.2076-.4205.4306-.5689.704-.0856.1578-.1963.2091-.3548.1642-.5984-.1697-1.2081-.2914-1.7919-.5228-.0994-.0394-.1754-.1308-.2844-.1442"/>
    <path class="cls-6" d="M193.685,133.3447c-.1086.1497-.2142.3022-.3264.4486-.1619.2112-.2401.4718-.3178.7222-.0988.3185-.3034.391-.5636.402-.1901.008-.38.0209-.57.0288-.0609.0025-.1106.0246-.1491.0758-.0637.0845-.1358.1634-.1879.256-.0676.1201-.1603.1979-.2737.253"/>
    <path class="cls-1" d="M205.6415,112.4253c.1624-.1512.3603-.16.5298-.0307.1388.1059.2469.2467.3659.3752.0453.0489.0881.1111.1625.0739.0737-.0367.103-.1063.0951-.1937-.0133-.1471.0626-.2758.0701-.4192.0016-.0309.0361-.0459.065-.0619.1087-.0601.2237-.0611.3402-.0581.0819.0021.1132.0681.1502.1342.1238.2214.1672.4718.2152.7197.0688.3552.0407.7189.0686,1.0779.0027.0347-.0123.0792.0024.1033.1221.2007.0022.3586-.0696.5257-.0061.0142-.0066.041-.0142.0432-.1832.0534-.2862.2587-.4871.2936-.1278.0222-.2042.1754-.2535.2948-.1524.3688-.4178.6369-.6439.9401-.0811.1087-.1124.2488-.2098.3526-.0458.0488.0074.1746.0342.2618.0643.2093.1543.4078.1936.6282.0196.1103.0102.2224.037.3302"/>
    <path class="cls-1" d="M199.5818,133.5843c-.3551-.2496-.709-.5013-1.0659-.7477-.1475-.1019-.2998-.1946-.4598-.2732-.1187-.0583-.2348-.05-.3538-.0266-.2785.0546-.5259.2063-.7861.317-.1734.0738-.3341.073-.5037-.0022-.3562-.1581-.716-.3062-1.0712-.4668-.2208-.0998-.4491-.1052-.6789-.0853-.1018.0088-.1852.1003-.2111.1938-.0416.1506-.1413.1882-.2506.23"/>
    <path class="cls-1" d="M203.4158,115.2105c.0007-.2415-.0728-.4691-.1085-.7038-.0596-.3911-.1786-.7676-.2107-1.1673-.0165-.2061-.0483-.4228-.1768-.605-.0381-.054-.0073-.1717-.0745-.2336-.0791-.0729-.1602-.1437-.2443-.2095-.1064-.0833-.229-.1461-.3222-.2439-.1289-.1353-.262-.14-.4096-.0699-.0654.0311-.114.0184-.1784-.0129-.1928-.0935-.4049-.1075-.6086-.1568-.2956-.0716-.6053-.0843-.8821-.2377-.0599-.0332-.1055-.0036-.1346.0333-.2166.2748-.4698.5105-.6716.8028-.1402.2031-.1036.4076-.0748.6176.0617.4503.1314.8993.2039,1.3476.0132.0813.0039.1604.0113.24"/>
    <path class="cls-2" d="M212.658,116.9626c.0407.1407.135.2388.2321.3276.2104.1925.2621.4625.1565.7181-.0593.1436-.0283.2665.0073.391.1224.4278.0968.8668.0891,1.3035-.0021.1202-.0374.2476-.1728.2846"/>
    <path class="cls-5" d="M197.0779,127.9389c.1267.01.2544.012.3798.0316.2478.0389.3931.2349.5135.4492.1021.1817.1845.377.273.5678.0228.0491.0544.0902.0805.1355.0666.1157.1331.1364.2483.0631.1254-.0798.2753-.0758.4183-.0623.0649.0061.0894.0584.1129.1312.0664.2055.0758.4192.1052.6304.0628.4521.1027.9089.2285,1.3483.019.0664.0264.1392.0273.2092.0026.2289.048.4481.1265.6574.0204.0544.0017.0948-.0057.1356-.0559.3124-.0245.6118.0981.8987.0829.1941.0786.2525-.0551.4192-.09.1123-.0225.2327-.0078.3438.0109.0823.101.0851.1709.0915.0726.0066.1448.0192.2172.0292"/>
    <path class="cls-6" d="M215.888,132.596c-.4117.025-.824.0411-1.2348.0775-.3527.0312-.7049.0568-1.0588.058-.155.0005-.31.0089-.4343.134"/>
    <path class="cls-6" d="M194.8114,136.07c-.1743.3133-.4611.4304-.7607.5058-.3692.093-.7481.1109-1.1255.1424-.2992.025-.535-.0832-.7332-.3188"/>
    <path class="cls-1" d="M201.5293,121.7245c0-.0399-.0043-.0806.0008-.1197.0147-.1112.0276-.2117-.0664-.3025-.1056-.102-.2262-.1463-.3547-.1284-.2721.0378-.552.0275-.8139.1336-.0799.0324-.1409-.0116-.2036-.035-.4368-.1631-.867-.3451-1.2764-.5816-.2074-.1198-.3302-.3206-.4041-.5551-.0379-.1203-.118-.1484-.2071-.1607-.0902-.0124-.1276.0769-.1613.1476-.1479.3111-.145.651-.1329.9874.0048.1339.0904.2487.1749.3417.0867.0954.0938.1935.0822.3177-.0143.1531-.0086.3093-.0024.4638.0158.3893.0522.7776.0393,1.168-.0015.045.0035.0975-.0151.1336-.1453.2814-.0787.588-.0927.8847-.0028.0597-.0004.1198-.0004.1797"/>
    <path class="cls-6" d="M202.0722,111.9012c.0007-.1218-.0115-.2406-.039-.3599-.0588-.2545-.1583-.3643-.3954-.3874-.3513-.0343-.6991-.0888-1.0453-.1636-.2942-.0636-.4.0425-.4204.3868-.0033.055-.0089.1098-.0134.1647"/>
    <path class="cls-1" d="M209.0615,120.7661c.0348.1493.1328.1874.2579.1799.0995-.006.1995.01.2987-.0146.153-.038.2413.0748.2945.1962.105.2393.3694.2701.5872.1171.1084-.0762.1237-.1758.0548-.299-.1836-.3282-.3055-.69-.4618-1.033-.0527-.1157-.1024-.2338-.164-.3436-.0914-.1628-.3625-.1871-.4724-.0447-.035.0454-.0382.1051-.015.1637.0749.1893.1774.3616.2712.5393.0305.0578.0548.1195.082.1794"/>
    <path class="cls-6" d="M211.4094,117.7412c.1761.1324.3592.2272.5838.2156.09-.0046.1647.0657.1932.1878.0393.1687.0653.3367.0641.5101-.0003.0369.0015.0695-.0246.1066-.101.1437-.1136.3183-.1246.4923-.012.1898-.0242.3797-.0415.5689-.0082.0904-.028.1796-.0803.2547"/>
    <path class="cls-5" d="M191.2964,135.5759c-.0025-.0236.0073-.061-.0271-.0587-.1368.0091-.2726-.0173-.4103.0513-.0825.0411-.1312.1097-.1397.1732-.0203.1514-.0273.313-.0002.4617.0231.1265.1278.2177.2516.2232.312.0139.6219.0726.9366.0361.1694-.0196.2761-.0682.3484-.2688.0783-.2172.1831-.4437.397-.56.0108-.0059.0099-.0381.0144-.0581"/>
    <path class="cls-1" d="M210.8598,111.3621c.0393.1582.0111.2883-.0675.4388-.1428.2735-.234.579-.3619.863-.2241.4978-.4343,1.0036-.6891,1.4843-.0504.0951-.102.1802-.2048.2089"/>
    <path class="cls-6" d="M211.4094,119.2986c-.1625-.3143-.7468-.2075-.8822.1198-.0237.0573-.0283.1173-.0276.1797.0033.3079.2196.6584.4763.7459.1084.0369.2254.0429.3385.0625.0088.0015.0185-.0017.0271.0005.1859.0479.2229.1759.0949.329-.0304.0363-.0631.0701-.0948.105"/>
    <path class="cls-2" d="M216.7566,131.5028c.0149.0919.0556.1608.1203.2268.4064.4149.8509.7784,1.2769,1.1667.1085.0989.2033.2165.3141.3117.1524.1309.138.2942.0924.4657-.0245.0922-.0621.1801-.0937.27"/>
    <path class="cls-6" d="M198.0822,124.6295c-.1561.1422-.1406.3513-.159.5395-.0223.2275-.052.4487-.1674.6429-.1459.2455-.1648.4983-.0539.7644.0161.0386.0287.0793.0409.1197.0933.3093-.0004.4594-.2984.4791-.2052.0136-.3572.1128-.3898.2854-.0237.1254-.0269.2608-.0112.3876.0075.0605.0154.1012-.0188.1514-.0721.1057-.1018.2308-.123.3587"/>
    <path class="cls-6" d="M199.4258,116.3336c-.0893-.0974-.1163-.2356-.1873-.3465-.0626-.0977-.138-.119-.2334-.1024-.1281.0222-.2481.0157-.3392-.1052-.0285-.0378-.0698-.0529-.1089-.0581-.1243-.0164-.1616-.1233-.1731-.2268-.0379-.3414.0851-.6549.4299-.7536.2252-.0644.4538-.074.6803-.1108.1236-.0201.1659.1056.2009.2069.0329.0955.0437.2.0709.2983.047.1703.09.2046.2435.2099.1807.0063.2963.1121.2944.3144-.002.2176.0927.323.26.4092.163.084.3268.1363.5036.1647.0896.0144.1532-.0423.2314-.0497"/>
    <path class="cls-1" d="M198.2043,121.6196c.2581.0216.4852.1449.7208.2503.4234.1894.8327.4192,1.2743.5576.0939.0294.1898.0506.2848.0755"/>
    <path class="cls-2" d="M201.2172,113.1291c.0625.5179.2004,1.0179.3003,1.527.0538.2746.0749.5572.1613.824.013.0402.0271.0799.0406.1198"/>
    <path class="cls-3" d="M210.9073,111.6466c.1885.0783.2851.2312.3155.4487.0074.053-.0055.0966-.0194.1342-.1502.4055-.3156.8032-.5118,1.185-.0637.1239-.1072.2602-.1654.3878-.0336.0737-.0248.1492-.0261.2252"/>
    <path class="cls-1" d="M197.39,129.1219c-.1083-.0019-.115-.1103-.1319-.1808-.0564-.2352-.1838-.4118-.3453-.57-.2404.0576-.3963.2222-.4568.482-.056.2406-.1659.4525-.2603.6732-.1485.3473-.1719.7179-.159,1.093.0014.0416.0036.0719-.0172.1052-.0545.0875-.0896.1853-.1224.2843"/>
    <path class="cls-6" d="M200.4843,122.5481c-.0019-.0848.0563-.0595.095-.0588.1145.002.2355-.0385.2787-.1392.0998-.233.2834-.2046.4544-.2193.1667-.0143.3347-.0097.502-.0177.1371-.0065.2387-.0499.2911-.2217.0468-.1536.1155-.2944.0335-.4508-.0873-.1666-.3813-.1953-.5553-.0606"/>
    <path class="cls-3" d="M198.435,129.2566c-.041.4243-.0163.8497.0056,1.2725.0191.3699.0427.742.1023,1.1086.0014.0088-.0083.0198-.0128.0298"/>
    <path class="cls-1" d="M207.5144,120.9458c.0227-.1415.1328-.231.1681-.3728.0746-.2992-.0093-.5154-.2768-.6151-.2681-.0999-.5414-.0992-.8133-.0267-.0551.0147-.1177.0418-.1519.1151-.0623.1333-.0068.2531.1514.2837.1268.0245.2552.0357.3804.0739.0458.014.0846.0347.1211.0633.092.0721.0924.1411.0146.2249-.1261.1358-.2857.1926-.449.237-.1237.0337-.2212.0901-.2434.2414-.0171.116.0555.2174.1616.1905.3442-.0871.5968.1157.8553.3044.1298.0948.2003.099.2991-.0009.1158-.1172.115-.2248-.0147-.3883-.0765-.0965-.1574-.1873-.1889-.3155"/>
    <path class="cls-1" d="M200.62,132.3264c-.0287.1647-.002.3294-.0009.4942.0027.4492-.002.8985.0028,1.3477.0013.1259-.0217.2349-.0969.3295"/>
    <path class="cls-1" d="M208.9937,119.658c-.1587-.0817-.2669-.0507-.3676.0889-.0994.1378-.1169.3016-.1506.4646-.0686.3315-.1521.6593-.2273.9892-.011.0481-.0168.1002-.0131.1494.0094.128.108.1859.2155.1266.0816-.045.1285-.118.1672-.2144.0798-.1987.1481-.4098.3082-.556"/>
    <path class="cls-6" d="M205.5872,120.1222c.0249.4847.0905.9662.0956,1.4525.0003.025.0035.0529.0139.0743.0344.0706.0274.1821.1486.1671.1126-.0139.1508-.0834.1491-.1965-.0046-.3045-.0044-.6092-.0155-.9134-.006-.1652.0105-.3296.0108-.4942.0002-.1412-.0658-.1561-.1452-.1767-.0366-.0095-.08-.0138-.1222.0104-.094.0539-.1953.0579-.2978.0315"/>
    <path class="cls-1" d="M196.4672,133.6292c.0226.005.0468-.0101.0683.0145.1442.1658.3046.3146.422.5083.0239.0395.0457.086.0359.12-.039.1361.0427.2197.0983.3154.044.0757.0964.1464.134.2257.0515.1085.1298.1719.2321.2091.2686.0977.4066.3106.407.6286.0002.2092.0054.4176.0546.6214"/>
    <path class="cls-1" d="M201.9093,115.4951c.0592-.1317.1529-.209.2848-.2408.3826-.0924.7617-.1869,1.1554-.0494.0944.0329.1476.0563.1343.1704-.0017.0147-.0057.0339.0006.0443.1311.2185.1302.4752.178.7188.0773.3939.1345.7936.2555,1.1761"/>
    <path class="cls-1" d="M211.9794,133.9287c-.0046-.1891.073-.3497.1503-.5085.0767-.1575.1679-.3068.2399-.4667.0246-.0546.0553-.0738.0985-.0874.0263-.0083.0593-.0018.0805-.0169.199-.1425.3901.0016.5843.0169.0093.0007.0206.007.0268.0148.2025.2521.4967.2591.7609.3421.2782.0875.5679.1323.8278.2856.0764.0451.1422.1001.1896.1805"/>
    <path class="cls-6" d="M211.6266,119.2611c-.2022.0255-.3715.1604-.5692.2063-.109.0253-.1883.1841-.1771.2954.0134.1338.1074.1815.204.2074.2177.0583.4424.0713.6645.0732.2614.0022.272.0565.2912.319.0106.1447.0112.306-.0582.4499-.027.0559-.0463.0969-.1106.1058-.069.0096-.136.0374-.2038.0576-.0985.0294-.1933.0244-.2852-.0297-.1468-.0864-.2883-.0995-.4357.0121-.0939.0711-.2144.0675-.3241.0924"/>
    <path class="cls-1" d="M211.4366,115.8994c.0213-.1525-.0557-.2394-.1622-.3156-.2736-.1958-.5839-.309-.8701-.4764-.0301-.0176-.0716-.0117-.1078-.0167-.1728-.0239-.2586-.1302-.1981-.3122.0853-.2563.1916-.5083.3743-.7062.0741-.0802.1414.004.2017.0229.054.017.096.0898.1132.1713.0424.2014.0339.2291.2825.2542.1578.0159.3169-.0161.4755.0285.1626.0458.206.1038.1759.287-.0412.2502-.0311.2576.203.3316.1678.0531.3397.0935.4913.2038.0736.0535.1243.1151.1607.1983"/>
    <path class="cls-6" d="M205.0987,120.4217c-.0052-.1867-.0255-.2046-.19-.2105-.3571-.0128-.7065.061-1.0588.1041-.0389.0048-.0728.0165-.1088.0305-.1419.0554-.1864.0723-.148.2832.2157.0899.4457.0636.663.037.1801-.022.3649-.043.5448-.0902.1093-.0287.2082-.0669.2976-.1392"/>
    <path class="cls-6" d="M198.0822,132.1467c-.1071-.2255-.1889-.4669-.3272-.6726-.1068-.1589-.2312-.2293-.4351-.1766-.2069.0534-.433.0362-.6488.0201-.1397-.0104-.282-.0111-.422-.0505-.1275-.0359-.2349-.0975-.3232-.2002-.0179-.0208-.0272-.0591-.0558-.0569-.2523.0189-.4727-.1157-.7042-.1875-.2006-.0622-.3911-.0149-.585-.0044-.0856.0047-.139.0921-.1757.176-.0273.0624-.0462.1293-.0688.1942"/>
    <path class="cls-1" d="M195.5986,131.9371c-.2937-.1346-.5479-.3491-.8304-.5034-.1713-.0935-.3348-.2317-.5403-.2293-.2542.003-.5144-.0407-.7592.0613-.2644.1102-.4556.3202-.5819.5979-.0161.0354-.0573.0852-.0158.133.1207.1389.0785.2888.0432.4504-.0842.386-.0587.3713.2961.5674.1429.079.3145.1106.4297.2304.141.1468.3145.2316.4631.3582.1256.107.2646.1668.4098.2209"/>
    <path class="cls-6" d="M200.0908,132.2515c-.0045.5191.001,1.0388-.0214,1.5569-.005.115.0043.2341-.0128.3435-.0201.129-.1297.2206-.1949.332-.1541.2635-.2943.5362-.3817.8374"/>
    <path class="cls-1" d="M215.5623,134.7523c.0853-.202.261-.2851.4207-.3894.0533-.0348.1022-.0043.149.016.1532.0664.304.141.4754.1198.0174-.0021.0419.0025.0533.015.1846.2025.4415.2288.668.3223.1943.0802.3855.1702.5803.2493.1018.0413.1696.1417.2183.2511"/>
    <path class="cls-6" d="M203.4294,115.4501c-.2982.2438-.6258.4236-.9769.555-.1799.0673-.3382.0202-.4889-.0908"/>
    <path class="cls-1" d="M204.9765,117.7113c-.1018-.2448-.291-.3141-.5157-.3148-.1702-.0005-.3419.0142-.5031-.0724-.0276-.0149-.0626.0111-.0951.0248-.1689.071-.3399.1362-.501.228-.1567.0892-.3182.0758-.4745.0129-.308-.124-.6103-.1944-.9258-.0182-.0702.0392-.1696.015-.2556.02"/>
    <path class="cls-1" d="M197.5597,116.3336c-.085.1992-.1379.4064-.1146.6288.0141.1353.027.2719.0554.4039.0518.2403.213.3531.4189.4048"/>
    <path class="cls-1" d="M199.6429,112.6798c.2004.0222.3898.0966.5833.1509.3307.0929.656.2086,1.0293.2723.2121-.315.3826-.6918.5317-1.0822"/>
    <path class="cls-6" d="M205.3429,112.3804c.0498.005.0995.0137.1493.0142.0967.001.1604.0288.1949.1488.0311.108.1138.1965.1552.3025.046.1178.0489.2384.0242.3748-.0303.1675-.0286.3506.0089.5215.0222.1013.1192.1194.2005.1345.2304.0426.2655.0844.2711.3456.0009.0399-.0013.0799.0004.1198q.007.1648-.136.1647"/>
    <path class="cls-1" d="M212.753,115.5849c-.0662.0235-.1361-.0605-.2059.0277-.1234.1559-.1296.2749.0174.4045.0931.0821.1899.1585.2697.2569.1122.1384.1175.2898.0132.4335-.0459.0633-.1098.1134-.146.1819-.0507.0959-.1211.0659-.1628.025-.1349-.1322-.2963-.2361-.3894-.416"/>
    <path class="cls-5" d="M206.3337,117.891c.0041-.089-.0524-.0682-.0948-.059-.2739.0593-.5445.0335-.8146-.0303-.0581-.0137-.1246-.005-.1751-.0332-.2111-.1176-.3749-.0124-.5139.1409-.1083.1194-.2309.1103-.3557.0981-.0904-.0089-.1792-.0403-.2717-.0423-.0318-.0007-.0435-.0257-.0407-.0592"/>
    <path class="cls-6" d="M205.8315,113.2639c-.0226-.01-.0497-.0142-.0672-.0308-.2234-.2122-.4219-.0847-.6098.0633-.1241.0978-.2108.2291-.1932.417.0086.091-.0444.1693-.0663.2544"/>
    <path class="cls-1" d="M203.6058,115.1806c.0814-.1098.1694-.2146.2428-.3306.1239-.1956.3099-.26.5037-.3127.0322-.0087.0466.0196.0698.0417.1321.1261.1874.3028.2519.4687.0542.1394.1422.1735.2617.1787.1449.0064.2896.0191.4343.0291"/>
    <path class="cls-6" d="M212.278,118.7445c.0911.0827.1438.1861.1799.3133.0783.2759.2076.5281.3338.7811.0438.0878.1437.102.1785.1934"/>
    <path class="cls-1" d="M209.7808,111.6766c-.1579.0991-.1963.2826-.2255.4503-.0499.2863-.128.5684-.1192.8676.0029.0986-.0599.1988-.0891.2994-.0611.2104-.1064.4247-.1381.6434-.0212.1466-.1144.2533-.2016.3597"/>
    <path class="cls-2" d="M194.7029,135.6058c.1866-.1842.165-.4223.1338-.6586-.0139-.1054-.0181-.2055.0298-.2993.0505-.099.1301-.101.2035-.0161.0599.0693.0951.1527.1207.2406.0756.2597.1988.4944.315.7322.0324.0663.0583.1281.0522.2034"/>
    <path class="cls-5" d="M195.2729,133.0302c-.0588-.005-.1194-.0017-.176-.0167-.1089-.0288-.2113-.0415-.3136.0299-.0507.0354-.1147.0375-.1754.0315-.2049-.0203-.4066.0291-.6107.0336-.1075.0024-.197.0743-.2715.1613"/>
    <path class="cls-6" d="M204.3386,122.3234c.0091-.0965-.0106-.1828-.0525-.2706-.1133-.2371-.0585-.497-.0681-.7477-.0019-.0494.0162-.0998.0256-.1497.0175-.0924.0345-.1868.1492-.1794.1413.0092.1881.0641.2047.2092.0262.2296.0374.4598.0107.6887-.0294.2525-.02.2738-.2561.2698"/>
    <path class="cls-1" d="M216.2816,131.3381c-.0999.1875-.1191.4114-.2182.5983-.0892.1683-.1352.349-.1638.5394-.0131.0874.0004.1423.0684.1974.1319.1069.2699.2125.3778.3458.1435.1772.3209.3051.4782.4611.0347.0344.0521.0661.0465.1347-.023.2787-.0893.5412-.1963.7926-.0127.0298-.0303.0556-.0261.0904"/>
    <path class="cls-5" d="M200.0908,134.1084c.0836.0007.1375.0593.1899.1199.0729.0844.1516.1639.2155.2559.0746.1075.0848.2455.1082.3734.0353.1928.0547.3892.0843.5834.0135.0882.0354.1748.0535.2622"/>
    <path class="cls-6" d="M207.0937,115.0009c-.0359-.0866-.0244-.1788-.0275-.2695-.0052-.1513-.0512-.1608-.1727-.2318-.1725-.1008-.3404.0072-.5056-.0378"/>
    <path class="cls-5" d="M198.4486,115.7047c-.1086.1647-.2208.3267-.3247.495-.0978.1585-.2242.231-.394.1765-.0572-.0184-.1093-.0013-.1635-.005"/>
    <path class="cls-3" d="M210.2015,115.1057c-.0216.1089-.0803.1914-.1486.2702-.1939.2237-.352.4798-.5299.7181"/>
    <path class="cls-1" d="M201.3801,116.2887c-.0138.1258.0254.2319.0944.3299.0793.1127.1541.2293.2314.3439.0523.0776.0651.1563.0443.2556-.0224.1068-.0617.2137-.0448.3286.0083.0566-.0366.0838-.0683.1028-.307.1846-.4382.512-.5691.8405"/>
    <path class="cls-1" d="M209.0208,119.6505c-.0063.2848-.0769.5565-.1332.8317-.0259.1263.0481.2237.1622.2647.2474-.1702.5528-.1495.7853-.3327"/>
    <path class="cls-1" d="M196.06,130.6642c.1708.0285.3071-.0827.4454-.1554.2038-.1071.3724-.0676.5309.0816.1916.1803.3895.3586.4351.6578"/>
    <path class="cls-1" d="M202.8865,112.7248c-.3031.1098-.6062.2196-.9093.3294"/>
    <path class="cls-5" d="M200.8508,121.2453c.0136.2196.0324.4391.0383.659.0027.0998.0211.1877.0702.2695"/>
    <path class="cls-1" d="M199.2086,134.1533c-.2485.2525-.4895.5132-.7125.7936"/>
    <path class="cls-1" d="M205.0851,114.6715c-.0077-.0777.0124-.144.0679-.1946.0717-.0653.0477-.1329-.0008-.1941-.0695-.0877-.1491-.166-.2141-.2573-.0287-.0403-.053-.0593-.0973-.0584-.3074.0063-.3495.0106-.4045.3305-.0134.0778-.0313.1514-.0569.2241"/>
    <path class="cls-6" d="M207.7858,114.3869c.1349.0015.2628-.0279.3801-.1046.0174-.0114.0401-.0332.0536-.0282.203.0765.408-.0202.6114.0122.1801.0287.1744-.0201.2314.2252.0332.1427.0626.2897.1756.3896"/>
    <path class="cls-3" d="M206.1437,116.4983c.183.1267.2976.3222.4207.5092.059.0897.1177.1797.1765.2695"/>
    <path class="cls-1" d="M210.0794,114.9859c-.1313.0191-.2405.0956-.3533.1638-.0424.0257-.0917.0373-.1349.0616-.0773.0435-.1985-.0036-.2398.0771-.1306.2555-.3599.4334-.4519.7161-.0058.0177-.0007.0396-.0007.0596"/>
    <path class="cls-1" d="M201.8686,118.3103c.0284.2698.0576.5393.2171.7637"/>
    <path class="cls-9" d="M201.9501,115.9293c-.1078.2316-.2935.3214-.5157.3444-.08.0083-.1162-.0508-.1344-.1202-.0384-.1462.047-.3444.1753-.4185.0304-.0176.0639-.0286.0947-.0456.2125-.1175.3403-.0422.3801.2249"/>
    <path class="cls-5" d="M218.453,135.5759c-.0666.1103-.1326.2195-.2438.2855-.1347.0798-.2602.0782-.3805-.0309"/>
    <path class="cls-7" d="M200.1993,136.1449c.0696-.0258.142-.0452.1516-.1495.002-.0218.0312-.0448.0524-.0594.1623-.1124.3058-.2614.5297-.2152.1675.0345.354-.0422.5013.1097"/>
    <path class="cls-1" d="M196.9693,134.3929c-.1688.0224-.3281-.0323-.4883-.0759-.0496-.0135-.0968-.0368-.1495-.0289"/>
    <path class="cls-1" d="M205.0579,114.664c.2069.1147.3739.2876.5405.4595.0236.0244.0404.0404.0702.0421"/>
    <path class="cls-6" d="M194.4179,132.6259c.0624.0449.1281.0766.2033.0915.1368.0271.2369.1144.2988.2529"/>
    <path class="cls-2" d="M200.43,117.0225c-.1717.1748-.304.3943-.5021.5391"/>
    <path class="cls-5" d="M204.0672,117.9509c-.237.0412-.3646.2112-.4343.4492"/>
    <path class="cls-10" d="M202.4115,115.6149c-.1727-.0209-.3063.1048-.4614.1497"/>
    <path class="cls-10" d="M204.5829,122.1138c.0709.0386.123.1249.2171.1048"/>
    <path class="cls-10" d="M210.9751,120.5864c.0113.0695-.0259.1467.0271.2096"/>
    <path class="cls-10" d="M199.3172,125.9622c-.0543.01-.1086.02-.1629.0299"/>
  </g>
  <g>
    <path d="M125.1302,140c-.3581-.672-.6411-1.358-.8012-2.0818-.172-.7779-.1118-1.5566-.0544-2.3376.0752-1.0226.308-2.0275.4269-3.0455.1168-1.0004.2731-1.9973.4221-2.9946.1553-1.0395.2919-2.0798.3753-3.1266.0833-1.0449.3724-2.0548.8902-3.0008.2054-.3753.58-.6574.8921-.9678.6137-.6103,1.2762-1.1794,1.9803-1.714.3755-.2852.6934-.6352,1.0248-.9643.3633-.3607.3548-.7294.0263-1.1169-.2387-.2817-.5327-.5221-.8769-.7027-.2719-.1427-.3635-.1015-.4412.1612-.0816.2756-.1256.5536-.039.8357.0193.063.064.1315-.0132.184-.0859.0584-.1604.0036-.2334-.0335-.7948-.4041-1.3284-1.0007-1.6543-1.7469-.1942-.4446-.3433-.8995-.3797-1.3787-.0675-.8885.2286-1.6741.868-2.3597.0859-.0921.1413-.1895.1996-.2947.3176-.5737.5398-1.1888,1.0195-1.6918.6494-.6808,1.4923-1.0442,2.4444-1.2815.7239-.1805,1.4483-.3176,2.2008-.3402.2899-.0087.5737.0274.8365.1197.7027.2469,1.445.4219,2.097.7626.7146.3733,1.2723.8842,1.7158,1.5257.6147.8892.8796,1.8648,1.1447,2.8518.1285.4784.349.9325.5228,1.3991.3094.8308.6137,1.6581,1.0844,2.4384.2531.4195.3024.9219.4345,1.3896.2679.9489.4034,1.9218.822,2.8453.4132.9116.5698,1.8957.7626,2.862.0946.4738.1551.9574.1695,1.438.0373,1.244-.2622,2.4456-.644,3.636-.1354.4223-.3342.8045-.6133,1.1705-.3581.4695-.5525,1.0225-.9199,1.4916-.3062.3909-.5605.8232-.9235,1.1674-.5723.5427-.9948,1.1703-1.4669,1.7711-.066.0841-.1553.1644-.284.1191-.1495-.0527-.1172-.1642-.0938-.2772.1208-.5851.5372-1.0563.7868-1.5915.0853-.1831.2012-.3551.3136-.5503-.2593-.0399-.4718.0091-.6868.0685-.1033.0286-.2435.0673-.3018-.0535-.0644-.1335.0857-.1614.1802-.2078.0984-.0483.212-.0756.2962-.1808-.2273-.1218-.1808-.2746-.0716-.4529.2741-.4479.3395-.922.1735-1.4137-.0321-.0951-.0074-.1826.0245-.2691.109-.2956.3297-.343.5749-.1154.0358-.0221.074-.0442.1105-.0684.0805-.0534.1679-.0927.2569-.0254.0781.0592.0386.1355.0166.2089-.1936.6452-.4035,1.2841-.8552,1.8365-.027.0331-.0452.0718-.0766.1227.7227-.4167,1.6421-1.9147,1.7496-2.8567-.2508.0392-.4528.1668-.6798.2278-.1269.0341-.2723.1391-.381-.0137-.095-.1335-.0299-.2567.0853-.3606.4144-.3737.7661-.7809.9421-1.2909.1113-.3224.0647-.4196-.3129-.5486-.1567.1159-.144.2982-.2192.4462-.0525.1033-.0414.3002-.2409.2471-.1935-.0515-.0936-.2068-.0454-.3196.2617-.6133.4094-1.246.4296-1.9014.0027-.0878-.0244-.207.1163-.2239.1616-.0194.1629.1067.1844.2037.0107.048.0221.0958.0393.1704.1649-.1127.1362-.2624.1665-.389.0262-.1097-.0158-.268.1596-.2821.1942-.0156.1536.1514.1868.2563.0089.0282.0411.0506.0694.0836.1377-.0478.1452-.1482.1647-.2448.1761-.8731.2792-1.7473.0648-2.6281-.0217-.0891-.0399-.2151.0942-.2279.2183-.0209.1838-.1469.1973-.2684.0623-.5595-.1616-1.0791-.3846-1.5714-.2728-.6025-.3387-1.2218-.4247-1.8461-.0253-.1838-.0546-.3683-.1554-.5285-.3841-.61-.6437-1.2581-.8153-1.937-.1241-.4911-.3638-.9443-.616-1.3932-.2409-.4287-.3596-.8953-.5011-1.3524-.1587-.5128-.4682-.961-.7148-1.4372-.459-.8866-1.2129-1.5862-1.8618-2.3515-.2755-.3249-.596-.6246-.9425-.8987-.3772-.2985-.8422-.4144-1.3207-.4841-1.1557-.1685-2.2149.067-3.1852.6329-.046.0268-.0854.0622-.1292.0946.0469.0895.0891.17.1388.2649.2542-.1056.5059-.2168.7642-.3144.1174-.0444.2744-.1085.3469.0411.0739.1523-.0874.1953-.2085.2421-.1012.0392-.2176.0574-.2751.1611.3689-.1152.4088-.1019.4615.1698.3736-.1489.7509-.2771,1.1465-.3579.1506-.0308.2975-.0478.4452.0116.0705.0283.1463.0499.1508.1311.0052.0947-.0755.1289-.1592.1508-.2375.0621-.4595.1532-.6794.2531-.2415.1097-.4122.2926-.6213.4353-.111.0757-.0969.1709.0334.2627.2182-.1402.4403-.2792.6576-.4239.1452-.0967.3022-.1745.4714-.2292.1065-.0345.2383-.0626.2878.0689.0433.1148-.0654.1588-.1653.1959-.3365.1248-.6118.3236-.8669.5481.5332-.2415,1.0151-.5596,1.583-.7474.5513-.1822,1.0918-.233,1.615.0336.2421.1233.5451.2644.6442.4647.1089.2201.2472.4629.2709.698.0124.1237-.113.3447-.3169.4581.2234.1649.5007.2386.7361.3739.255.1466.5023.3014.7104.4976.0807.0761.1933.1731.0618.2778-.1246.0991-.1985-.0136-.2772-.0831-.0436-.0385-.0776-.0945-.212-.0397.1887.1462.3797.2902.5649.4398.0764.0618.1463.1316.2081.205.0644.0765.1768.1633.0569.2594-.1162.0931-.2098.0002-.2903-.0688-.1663-.1427-.309-.3102-.5768-.4023.1091.2948.388.4371.5567.6497.1462.1842.3065.3606.4302.5575.0595.0948.1877.2209.0303.3068-.1715.0937-.2116-.0781-.2813-.167-.1387-.1768-.2121-.432-.5649-.3507-.0611.1421.0492.2353.1369.328.1822.1925.3677.3829.4962.6078.0527.0923.1605.1879.0812.2992-.0869.1219-.2333.0776-.3636.0615-.0664.087.0206.1604.0215.2399.0009.0786-.0016.1582-.0982.1893-.0967.0311-.1539-.0271-.2101-.0906-.2304-.2598-.4655-.5163-.7196-.797-.0479.1907.3348.3056.0728.4716-.1625.1029-.2262-.1062-.3693-.1373-.0334.1231.0496.209.0975.3029.0387.0758.045.1488-.05.1947-.0814.0393-.147.0015-.1988-.0527-.1199-.1254-.2255-.2638-.4261-.3612.076.2285.2765.3538.3524.5543.0509.1344.2703.1001.395.0127.2352-.1647.3064-.0743.3871.1333.0773.1991-.0353.3614-.09.5232-.0494.1461-.2592.1158-.3596.0243-.1797-.1638-.3843-.3063-.4869-.5403-.0684-.1558-.2474-.2806-.4282-.3711-.0984.0688-.0492.2288-.2021.229-.1519.0002-.1863-.1261-.2451-.2175-.2397-.3724-.2456-.3749-.5932-.1469.2865.2541.5397.5302.7699.8219.0179.0227.0716.0489.0922.0408.227-.0891.3165.0694.4052.1863.274.361.4837.7544.7012,1.143.0395.0705.0847.1561.0017.2336-.0863.0806-.1757.037-.2591-.0018-.0798-.0372-.1671-.0252-.2485-.0424-.2423-.0509-.3173-.2519-.1399-.4029.0895-.0762.0827-.1387.0446-.2202-.0072-.0154-.0155-.0305-.0243-.0452-.1496-.2516-.2194-.5835-.6811-.5037.0596.0819.1306.1762.1977.2725.0532.0763.1446.1642.0262.2405-.1326.0854-.2057-.0268-.2736-.1022-.2707-.3007-.5367-.6047-.8059-.9065-.033-.037-.0526-.0928-.1387-.0875-.0609.1151.0369.1835.1113.249.2513.2211.4236.4907.6071.753.056.08.1545.1705.0455.2693-.105.0951-.2164.0136-.3159-.0192-.1767-.0583-.2804-.1924-.3866-.3213-.0643-.078-.1341-.1526-.2184-.2184.1525.323.3666.6135.6013.8911.1028.1216.2645.1495.4373.1287.3305-.0397.5901.0582.7652.3157.0814.1198.2018.0961.327.0632.2806-.0738.6782.0598.8068.2739.0706.1176-.0058.1952-.1306.1754-.2649-.0421-.5225.0931-.7856.0078-.0634-.0205-.131-.0042-.187.0361-.0977.0704-.1964.1457-.3219.0399-.1379-.1163-.0183-.2104.0467-.3157-.0886-.1301-.2105-.1435-.378-.0947.0537.1446.0061.2834.0226.4219.01.0844-.0148.1537-.1143.1759-.0981.0219-.1616-.0328-.2064-.1016-.0471-.0722-.0825-.1506-.1337-.2203-.0828-.1126-.1644-.2184-.358-.1952-.1916.023-.2809-.2378-.5558-.1438.2481.4296.258.9387.6401,1.3262.123.1248.2447.2636.313.4148.2616.5792.5146,1.1581.5997,1.7894.0578.4291.1633.8512.1142,1.2871-.0052.046.0093.0996.0757.1246.0872-.086.0458-.1896.0506-.286.0041-.0828-.0125-.1761.0982-.2156.1255-.0447.2029.0352.2558.1114.1373.1978.3364.2402.5805.2194.2247-.0192.5305.2299.5348.42.0013.0568-.0273.0964-.0852.1173-.0724.0261-.1259-.0097-.1804-.0457-.0907-.06-.1365-.196-.3188-.1338-.0097.2123.1313.3863.2175.5721.1109.239.2444.4698.3616.7066.0333.0673.0512.1425.0628.2157.0109.0687-.0055.1362-.0976.1596-.0909.023-.1437-.0261-.1839-.0862-.0759-.1133-.1336-.2384-.2839-.3252-.0816.1279.0083.2265.0519.3249.0341.077.0922.1454.1346.2199.0437.0766.0343.1491-.0546.1953-.1026.0533-.1845.0199-.2354-.0672-.1302-.2226-.31-.4164-.4623-.6239-.1801-.2453-.408-.4026-.6976-.5257-.1085.1068-.0961.2493-.1482.3707-.0266.062-.044.1361.0341.1816.0725.0421.1464.0134.2127-.0236.1129-.063.2418-.155.3382-.0061.0846.1308.0171.2385-.1178.3439-.2647.2068-.5114.4257-.8942.446-.0321.0017-.0726.0279-.0915.053-.2869.3815-.6303.753-.5244,1.2529.0949.448-.0684.8752-.0869,1.3131-.0274.6491-.2596,1.2746-.2928,1.9573.112-.0752.1254-.1662.1452-.2442.1555-.6145.3451-1.2225.3493-1.8614.0015-.2294.0908-.4576.0807-.693-.0037-.0869.0326-.1745.1438-.1916.1234-.019.146.0723.1843.1518.0505.1048.0462.2112.0463.3193,0,.0686.0017.1384.1019.1547.1158.0189.1581-.0567.1709-.1297.0374-.2136.0671-.4286.0877-.644.0164-.171.0635-.2975.2872-.3471.2825-.0625.3988-.2394.4623-.4985.0607-.2481.2482-.4646.2506-.7436.001-.1195.1532-.1115.2597-.0214.1071.0907.1123.2265.1968.3278.1175-.0007.2086-.1609.333-.0446.1193.1116.0244.2147-.029.3205-.0661.131-.1347.2563-.278.3392-.1051.0608-.1196.1611-.1354.2632-.0728.4699-.1485.9394-.2295,1.4083-.0169.0978-.056.1935-.0932.2876-.0324.0819-.0839.1622-.2042.1266-.1045-.0309-.1383-.1179-.1214-.2045.0369-.1883.093-.3737.1313-.5619.0365-.1797.0471-.3611-.0048-.5383-.3919-.0323-.4452.0044-.5056.3062-.0557.2783-.119.5556-.1839.8324-.0358.1527-.1223.2534-.3261.2532-.2245-.0001-.3207.108-.3577.3093-.0732.3979-.1418.7939-.1628,1.2581.285-.334.3638-.6699.4794-.9916.0387-.1078.0681-.2336.2294-.2008.1983.0403.1191.1834.0865.2882-.2069.6662-.4183,1.3313-.633,1.9956-.0344.1064-.0554.2137-.0425.3207.027.2231-.0239.4241-.143.624-.0776.1302-.1014.2846-.1554.4264-.0539.1415.002.2406.1609.3316.227-.3295.4534-.6516.5595-1.0248.0918-.3228.1653-.6497.2575-.9724.0282-.0986.0511-.2475.2161-.2171.1824.0335.1221.1739.1043.2889-.0246.1593-.1642.3352.079.4642.0259.0138.0304.078.0244.1163-.1261.8004-.2564,1.6118-.7691,2.2988-.3923.5258-.7757,1.0682-1.3036,1.5082-.0344.0287-.0658.0607-.1029.0863-.0905.0622-.1903.1386-.2995.0435-.1154-.1005-.0178-.1802.0618-.2542.3007-.2797.5721-.5793.7896-.9142.0513-.079.105-.1612.1302-.2481.0474-.1632.1046-.3177-.1098-.4581-.1472-.0964-.1982-.2799-.363-.3957-.162-.1139.0518-.2699.0558-.4351-.1585.0823-.3074.1602-.4571.237-.0586.0301-.1225.0573-.1864.0188-.0754-.0455-.0636-.1147-.0463-.1816.0263-.1015.1125-.1923.0759-.3387-.1405.1199-.2929.2054-.2549.3794.039.1783.1636.2794.3793.3239.3477.0716.4636.296.2858.5624-.2727.4085-.4965.8426-.8169,1.2261-.0753.0901-.1548.2283-.3113.1482-.1554-.0796-.0708-.2127-.0058-.3094.0959-.1428.2156-.2733.3246-.4094.0937-.117.1463-.2228-.0113-.3451-.1655-.1284-.1871-.2981-.0459-.4909-.455-.0312-.2772-.2519-.1998-.4556-.2487.1475-.4085.3172-.5469.5204-.2366.3471-.4627.7109-.8711.936-.0983.0542-.2198.151-.3292.0404-.106-.107-.0002-.2091.0843-.2832.2512-.2203.3427-.5172.4968-.7824.3573-.6148.7592-1.2097,1.0131-1.8705.3746-.9749.6531-1.9621.656-2.9982.0011-.3812.1759-.7487.1145-1.152-.3445.1794-.7025.2559-1.0805.086-.0379.0363-.0769.0565-.0846.0836-.1514.5315-.6253.8635-1.0042,1.2528-.2891.297-.6793.3828-1.1051.3548-.2543-.0167-.3723.0492-.3336.293.0246.155-.0033.3138.0728.466.1506.3013.1382.3206-.1934.4398-.0199.1093.0311.2111.0501.3169.0386.2142.0399.418-.208.552-.1113.0602-.1177.163-.1174.2662.0013.366.041.7391-.3091,1.0274-.0419.0345-.0296.1262-.0305.1915-.0029.2252-.0058.4505.0014.6756.006.1897-.0383.3438-.2619.4265-.153.0566-.1486.2025-.1923.3174-.0719.1893-.131.3825-.2076.5702-.0313.0766-.0787.1884-.1458.2064-.3119.0836-.2739.3178-.3341.5181-.0661.2202-.0951.4688-.4041.5589-.0295.0086-.0552.0464-.0687.0756-.2403.5188-.7174.9069-.9994,1.4023-.047.0826-.1126.1409-.2235.1098-.0987-.0277-.1198-.109-.1031-.1852.0832-.3785.0085-.7638.3538-1.1178.4896-.5019.9302-1.0527,1.2261-1.6772.4364-.9211.875-1.8363,1.117-2.8215.1324-.5392.2662-1.0698.2639-1.6221-.0005-.1227.0178-.2515-.1109-.3701-.1525.1445-.2988.2894-.453.4274-.1256.1124-.2549.2226-.3928.323-.1824.1328-.2605.3023-.2646.5038-.0029.1417.0003.2835-.0031.4252-.0085.3447-.0857.3852-.4405.2267-.0227.2118.0024.4056.1024.606.1742.3491.1592.707-.052,1.0494-.0178.0289-.0416.0576-.0486.0888-.2002.8932-.8217,1.5738-1.4618,2.2456-.0654.0686-.1397.1257-.2428.0833-.1281-.0527-.0788-.1457-.0582-.2382.0351-.1578.1532-.3346-.1236-.4917-.1454.99-.0033,1.9364.0959,2.9045-.0651.0211-.1259.0211-.2094.0211M129.4244,130.2132c.6428-.1032,1.1996-.2866,1.529-.8615.2072-.3616.4798-.6952.6376-1.0829.052-.1278.1512-.1848.308-.0831.353.229.7253.1707.9416-.1595.3879-.5921.7341-1.2065.9898-1.8498.3558-.8949.4808-1.8262.3555-2.7723-.0279-.2104.0231-.4441-.1247-.6471-.2093.09-.2299.245-.2653.389-.1464.596-.0476,1.2116-.1879,1.8089-.0853.3633-.0221.7521-.2422,1.0926-.0417.0645-.0758.1479-.1857.121-.1169-.0286-.1343-.1244-.1082-.204.1113-.3391.0661-.6918.128-1.0363.0426-.2371.1121-.4874.054-.746-.1118.0346-.1073.0889-.1187.1368-.1294.5424-.1546,1.1-.3253,1.6373-.1573.4949-.2305,1.0103-.4623,1.487-.0476.0979-.0631.2716-.2427.2225-.1854-.0507-.0797-.1927-.0469-.2987.2001-.6455.3386-1.2968.265-1.971-.0224-.2054-.0904-.2462-.2778-.1364-.2264.1327-.4126.3119-.4779.5426-.1709.6043-.3045,1.2167-.4726,1.8216-.144.5185-.3448,1.0218-.624,1.4979-.0509.0868-.1161.1973-.2589.1255-.126-.0634-.0588-.1554-.01-.2389.5304-.9089.6837-1.8938.7492-2.8955.0096-.147.0473-.3498-.1358-.4006-.1841-.0511-.3033.1298-.4105.2502-.3267.3666-.5047.7891-.6195,1.242-.2082.8212-.5313,1.613-.8301,2.411-.1368.3654-.0811.437.3458.5658.0269.0081.0543.0151.1235.0319M131.7907,115.4147c.2263-.3875.2319-.3905.5668-.3001.3992.1077.5866.3152.5457.6042-.047.3323-.153.4431-.4428.4568.0238.2148.0562.4291.0684.6442.0082.1453.1048.3767-.1496.3848-.2304.0073-.1313-.2314-.1744-.3637-.0551-.1691-.0124-.384-.2604-.4811-.0769.1025-.0394.192-.0174.2787.0336.132.0418.2651.0182.3972-.0149.0832-.0556.1681-.1735.1699-.1086.0017-.126-.0811-.1572-.1522-.0298-.0679-.0056-.1659-.1167-.2041-.0916.1156-.0047.2692-.1384.3561-.1613.1049-.2344-.0631-.3644-.121.1778.4968.3918.5958.9227.4504.0903-.0247.1692-.0238.2242.0534.0513.072.0088.1264-.0508.1746-.0349.0281-.0724.0537-.1079.0813-.0712.0555-.0686.1159-.0065.1734.0582.0539.1194.0358.1764-.0052.1191-.0857.2029-.1968.2896-.3065.0517-.0655.1227-.1119.2171-.0653.0913.0451.0899.1167.0578.1958-.0766.1889-.1622.3735-.2927.5398-.1018.1298-.0665.2267.1005.3121.3067-.3097.5194-.6471.5955-1.0427.043-.2238.0795-.4382.4428-.3803-.0266-.2564-.0385-.4897-.0769-.7196-.1307-.7817-.495-1.4718-1.0148-2.1173-.6758-.8392-1.5389-1.3823-2.7158-1.5107-.1984-.0216-.3915-.0258-.5126.1324-.5338.6973-.7582,1.4796-.8212,2.3034.199-.4058.3819-.8156.5724-1.2228.0605-.1294.1828-.216.3369-.1418.1416.0682.0379.1744-.0104.2604-.2001.3562-.2717.7424-.3515,1.1273.0364-.0412.0578-.0863.0783-.1318.2384-.5305.6394-.9397,1.1956-1.2309.1024-.0536.229-.1401.3244-.0148.0865.1136-.0498.1753-.1316.2402-.1333.1058-.2819.1995-.3991.3175-.2809.2829-.4403.6182-.5091.9915.0996-.0476.1716-.1099.2372-.177.2684-.2746.5891-.4948.9353-.6859.087-.0481.2172-.1355.2919-.0024.0598.1065-.0422.1832-.1513.2326-.2397.1086-.4307.2753-.6204.4356-.1574.133-.2948.2959-.3051.5124.1613.0147.1816-.0904.2281-.1659.0631-.1024.1141-.2109.1816-.311.1165-.1729.2537-.2572.4162-.0366.2291-.141.3704-.3558.6362-.4297.1233-.0343.2676-.1248.3546.0124.0982.1549-.0871.1976-.1943.2454-.5137.2291-.5997.724-.9081,1.0839.4494-.2059.8235-.48,1.1606-.8472M128.8707,125.8714c.251-.1791.5871-.2486.8081-.4608.5101-.4897.9346-1.0269,1.117-1.6858.0436-.1575.1524-.2314.3387-.2528.2434-.0279.4838-.0787.7241-.1253.5822-.1129.9582-.497,1.3436-.843.262-.2352.4243-.5469.3857-.9104-.0339-.3196-.1541-.5785-.502-.7239-.0239-.01-.0432-.0332-.0585-.0538-.1189-.1602-.2965-.1938-.5151-.1935.166.1152.3167.2144.4601.3212.09.067.176.1605.0851.2578-.1006.1077-.1995.0231-.2888-.0442-.1092-.0824-.2129-.1781-.4216-.1952.1825.2237.3288.4133.5082.5838.072.0685.1757.1588.0679.2608-.1005.095-.2092.0312-.3068-.0236-.2267-.1273-.4736-.1932-.7394-.2082-.0556.1263.0481.1801.1072.2495.0565.0663.1286.1253.1698.1979.047.0828.0701.1887-.0367.2479-.121.0671-.1846-.0225-.246-.1015-.0947-.1217-.2015-.2315-.4306-.2621.0991.2207.2838.3633.2981.5714.0063.0921.1146.2068-.0381.262-.1635.0591-.2084-.0772-.2569-.1719-.1066-.2081-.2871-.3285-.5438-.4019.0164.2181.1544.3612.2469.5226.058.1012.1424.2341-.0004.3162-.1655.0952-.2366-.057-.2943-.1509-.1211-.197-.2924-.3189-.5597-.3613.1429.1662.2747.3181.4045.4713.053.0626.0888.1325.0389.2084-.058.0883-.143.0482-.2265.0337-.1512-.0263-.3016-.1014-.4793-.022.06.1822.2233.3152.2563.4976.0173.0959.0908.2073-.05.2651-.1426.0586-.1987-.0475-.2501-.1402-.0703-.1271-.1748-.2177-.3491-.278.0676.2286.1233.4217.1823.614.0209.068.0363.1345-.0441.1782-.0924.0502-.1563.0016-.2221-.0541-.1015-.0858-.2101-.1651-.3156-.2472.0237.1631.0869.293.1389.4263.0299.0767.0159.155-.0829.1881-.0943.0316-.1662-.0056-.2086-.0838-.0523-.0964-.0915-.201-.2282-.2582.0109.2138.1812.3711.2089.5686.0097.069.0325.1341-.0473.1781-.0761.042-.1425.0134-.208-.0297-.0807-.0532-.1476-.1309-.2835-.1306-.0034.1486.0354.2992-.0362.4403-.0282.0555-.0561.109-.1315.1174-.092.0103-.1367-.0445-.1676-.1094-.0347-.0727-.0325-.169-.1712-.186-.0196.2066-.0398.4104-.0581.6143-.0088.0982.011.2238-.1479.2286-.1338.0041-.1442-.1073-.1644-.1994-.0223-.1015-.0286-.2104-.1354-.3187-.2005.4611-.2594.9237-.3722,1.3743-.0236.0941-.0744.2141.0556.2693.1429.0607.2612-.0242.3389-.1216.1941-.243.4327-.4623.5035-.7717.0419-.183.1319-.3329.4105-.2543.13.0367.2588-.0295.4201-.09M127.0308,129.6064c.1299-.437.236-.8758.1138-1.3293-.0308-.1142-.0681-.2262-.2147-.2559-.0863.0211-.1132.0783-.1347.1317-.1892.4708-.3814.9406-.4817,1.435-.131.6457-.2687,1.2865-.5377,1.9069-.1991.4593-.3876.9356-.3899,1.492.485-.3592.6388-.8479.8508-1.3026.1702.0729.168.2001.2403.2838.0694.0804.1762.1552.2465.0379.1934-.323.5225-.5628.6644-.9219.1481-.3747.3658-.7281.552-1.0913.0308-.0601.079-.0979.154-.0839.0862.0161.1264.0775.123.1488-.0035.0741-.0235.1481-.0423.2209-.0766.2955-.1305.5954-.2077.8922.5449-.8733.7571-1.8249.8777-2.8019-.0844.0196-.1299.0499-.1583.0896-.2269.3174-.3197.6669-.3164,1.0393.0008.0906.011.2024-.1373.2069-.1401.0042-.1569-.1024-.1668-.1946-.0261-.2425.0043-.4814.0605-.7195.0636-.2698.025-.5323-.0774-.8022-.13.0696-.1498.1725-.1873.2629-.2008.4844-.4021.9682-.5579,1.4664-.0399.1275-.0589.3709-.2752.3102-.2433-.0683-.0268-.2496.0022-.4214M134.4801,112.0874c-.494.1902-.9483.4283-1.2826.817.5019-.2986,1.0558-.2427,1.6114-.2163.2434.0116.4928-.0326.6723-.2095.1152-.1135.1231-.2253-.0344-.3152-.2921-.1666-.5989-.241-.9668-.0761M134.4715,113.1585c.3396.0544.5539.2322.4569.4258-.2232.4453-.5848.2186-.9329.0684.0035.1628-.0162.282.1052.3802.2182.1766.5766.1627.9198-.0421.3-.1789.3784-.3706.2748-.6338-.104-.2643-.344-.3705-.6254-.4098-.3023-.0422-.5885.0169-.8115.2133-.0756.0665-.117.1657-.0417.2685.229-.0643.3551-.2778.6548-.2705M136.0755,115.4141c.0699.0507.1207.1301.2306.123q.0514-.1807.469-.166c.0208-.0664-.0222-.1143-.0716-.1495-.1744-.124-.3496-.2478-.5326-.3615-.0911-.0566-.1882-.1081-.1221-.2145.0665-.1071.1789-.0689.2739-.0255.1468.0672.2899.1409.4345.2118-.1606-.2921-.4937-.3556-.7781-.4804-.0527-.0231-.1074.0189-.1512.0521-.1562.1182-.3121.2367-.4922.3734.2434.2087.4784.4104.7399.6371M135.3467,116.0096c.0818.1044.1507.2218.3312.2678-.0127-.1924-.2062-.2578-.2652-.3938-.0309-.0713-.0736-.1479.0127-.2039.0962-.0624.1758-.0196.2386.0575.068.0835.1304.1762.3015.1799-.0871-.3461-.3732-.5363-.6157-.7455-.3551-.3064-.4581-.2957-.8109.03.2829.2423.5612.4896.8078.8081M133.6544,134.0836c.1406-.2642.2341-.5422.2744-.8301.0345-.2468-.0607-.46-.2903-.6485-.1156.201-.2216.378-.2489.5744-.0156.112-.092.2735.0787.3343.2486.0886.1801.2124.0963.355-.0445.0758-.0857.1532-.1364.2444.0868-.0054.1427-.0088.2263-.0295M126.1638,134.7952c.3872-.9293.3932-.9538.2996-1.2159-.2736.4894-.3544,1.0334-.6182,1.5256l.0771.03c.0749-.102.1497-.204.2415-.3397M140.8574,128.4959c.0159-.0854.1017-.1636.0297-.2693-.1831-.0182-.2721.1515-.4385.1789-.1718.0283-.1417.1707-.1041.2638.0491.1215.1691.1066.2823.0498.0923-.0463.1712-.1026.2305-.2232M134.6774,115.7163c-.1282-.1068-.2087-.27-.4336-.2914-.0231.2858-.0029.5366.3854.7367-.1829-.2219.0328-.2956.0482-.4453M133.9678,119.5472c.0433.3182.1926.4113.425.2625-.0749-.1582-.1606-.3039-.425-.2625M136.1818,125.5761c-.0148.1427.0524.2706.0786.4146.0912-.0033.1885.0034.1753-.089-.0201-.1409-.0298-.3011-.2539-.3257M133.3026,118.5202c.1339-.2002.186-.4182.1843-.6485-.081.2507-.2574.4729-.2977.7715.0493-.0487.0733-.0725.1135-.123M125.7889,134.2362c.0361-.0831.0726-.1662.0398-.2577-.0737-.0291-.132-.0029-.1856.0296-.0935.0565-.0654.1313-.0169.1931.0302.0385.0297.1767.1627.0351Z"/>
    <path d="M135.5324,121.77c.0509-.1819.1857-.1567.3196-.1282.1048.0223.2045.0912.336.0183-.0942-.1677-.2902-.1685-.4463-.2175-.1759-.0552-.3332-.1191-.4094-.2812-.0266-.0566-.0405-.1134.0143-.1626.0541-.0486.1217-.0474.1832-.0168.2767.1377.5936.1604.8883.2454.195.0563.393.1003.5604.2281.2013.1537.4646.0985.6769.0329.2397-.0741.4257-.1275.5643.1139.0061.0106.0517.0037.0997.0058.0294-.1757-.0623-.3197-.1322-.4663-.0384-.0806-.0819-.16.0216-.2219.103-.0616.1795-.0018.2437.0635.0991.1007.1928.2054.2902.3073.1947.2039.6069.1907.7944-.024.0788-.0902.0536-.1664-.029-.2434-.0685-.0638-.1244-.1463-.029-.2171.0948-.0704.1804.0009.2476.0571.1966.1645.3014.3813.3765.6007.0491.1435-.0437.2749-.1919.3612-.2513.1463-.8687.1492-1.1149.0054q-.264.3279-.7051.006c-.2258.2366-.5667.1681-.8569.236-.1049.0245-.1988-.0826-.2628-.1681-.0818-.1093-.1816-.1897-.3617-.1893-.0817.2685-.3155.3397-.6037.3313-.0767-.0022-.1515-.0001-.2103.0543-.06.0556-.1268.1144-.22.0639-.0897-.0486-.0608-.1283-.0484-.2032.0093-.0563.0039-.1145.0049-.1915Z"/>
    <path d="M129.6866,135.4823c.1718-.0534.229.0222.2251.1585-.0294,1.0263-.2849,1.9739-1.1412,2.7414-.3738.335-.7988.6124-1.1927.9237-.067.053-.1468.0952-.2298.0413-.0982-.0637-.0619-.1501-.0114-.2242.0435-.0638.0867-.1376.1529-.1778.3327-.2017.5856-.4645.8259-.7473.6618-.7787,1.1626-1.6141,1.2943-2.6322.0363-.0505.0566-.0669.0769-.0834Z"/>
    <path d="M129.6856,135.4657c-.0193.033-.0396.0495-.0736.0796-.4166.6062-.8199,1.1986-1.2222,1.7915-.0569.0839-.0991.2106-.2436.1488-.1574-.0673-.0827-.1908-.0231-.2811.2516-.3812.5087-.7597.7703-1.1357.7191-1.0335,1.3251-2.1109,1.6914-3.2852.0555-.178.0715-.3597.1164-.5377.0206-.0816.0547-.1719.1835-.148.1065.0198.1102.1006.1084.179-.0048.2097-.0617.4103-.1214.6123-.2662.9002-.7569,1.7192-1.1862,2.5767Z"/>
    <path d="M131.5714,134.1162c-.1399.3127-.2698.608-.4048.9014-.0419.091-.0877.2152-.2321.1694-.1735-.055-.0894-.1755-.04-.2722.6536-1.2801.9584-2.6438,1.2431-4.012.0271-.1304.0193-.2662.0419-.3976.015-.0873.031-.2005.178-.1828.1281.0155.1101.118.113.1996.013.3624-.0934.7102-.1717,1.0613-.1895.8493-.3719,1.7003-.7275,2.5329Z"/>
    <path d="M140.6292,124.0418c-.1547-.5416-.2736-1.0734-.6173-1.5362-.0577-.0778-.1572-.1823-.0353-.2655.1291-.0882.2233.0115.3074.0937.0184.018.0429.031.0643.0461.2622-.2182.3372-.2052.4642.0801.127.2854.2623.5684.3756.858.1102.2816.0551.35-.2701.3955-.0384.1018.0401.1943.0325.2926-.0082.1068.0652.2634-.1266.2844-.1648.018-.1685-.1247-.1947-.2486Z"/>
    <path d="M137.0926,129.2766c-.066.0897-.1077.2003-.2409.1501-.125-.0471-.0884-.152-.0628-.241.0494-.172.0478-.3461.0377-.5212-.0044-.0761-.0012-.153.083-.2002.0935-.0523.1591.0017.226.0501.0361.0261.0785.0732.1127.0697.384-.0389.3565.1977.3453.4054-.0348.6481-.1267,1.2903-.3104,1.9197-.03.1029-.0892.2016-.15.2945-.0459.0701-.1264.1028-.219.0575-.0917-.0448-.1069-.1183-.0605-.1925.3223-.5146.2389-1.1054.403-1.6499.0491-.1629.0208-.177-.1641-.1422Z"/>
    <path d="M138.4924,119.7196c-.0758-.0854-.1432-.155-.2083-.2262-.0509-.0557-.0782-.1188-.0226-.1817.0556-.063.1392-.06.2065-.0264.2557.1277.408.3393.5503.5546.0348.0526-.0015.112-.0556.1553-.1671.1335-.1522.292-.0773.4573.04.0882.0817.1795-.0448.2382-.1061.0492-.1724-.0173-.2433-.077-.3072-.2586-.6178-.514-.9271-.7707-.0772-.0641-.1707-.1361-.0764-.2301.0941-.0937.2007-.0266.2704.038.1301.1208.2972.1686.4653.2228.1685.0543.2125.0006.163-.1542Z"/>
    <path d="M137.0963,124.1378c-.2711.1071-.4374-.0217-.5741-.1763-.0916-.1036-.1469-.2323-.2165-.3506-.0427-.0725-.0597-.1479.0386-.1949.1132-.054.1729.0145.2271.0894.0653.0902.0948.201.1975.2699.2863-.2011.2852-.1984.6826-.0688.1997.0652.4011.093.603-.0097.1006-.0512.2271-.0928.2855.0424.0511.1183-.0784.1497-.164.1978-.2801.1575-.6103.0643-.906.1422-.053.014-.1045.0324-.1738.0584Z"/>
    <path d="M140.3558,126.511c.0137.0708.0279.1204.0265.1696-.0031.1028.0512.2332-.1034.2827-.1522.0488-.1635-.1074-.2739-.1768-.2347.2369-.5422.115-.8304.1022-.1101-.0049-.2307-.0647-.2331-.184-.003-.147.1368-.127.2481-.1372.1032-.0094.2051-.0377.308-.0394.279-.0046.4188-.1106.405-.368-.0056-.1043.006-.2357.1743-.2424.1427-.0057.1823.1039.2057.2035.0286.1216.0449.2454.0731.3897Z"/>
    <path d="M135.8955,132.0244c-.034-.0968.0019-.1659.0496-.2282.3333-.4355.4933-.9311.6466-1.4293.0147-.0479.0292-.0963.0499-.1423.0296-.0659.0786-.1207.1687-.1055.0987.0166.1504.0828.1289.1657-.1574.6068-.2853,1.2242-.7552,1.7258-.0839.0896-.1692.1368-.2885.0138Z"/>
    <path d="M137.7188,131.2738c.0298-.1553.098-.2862-.0015-.4271-.0473-.0669.0079-.15.0789-.1959.1289-.0833.1962-.1959.2453-.3246.0274-.072.077-.1423.1801-.1317.1117.0116.1573.089.1626.177.0174.2854-.0311.562-.1795.819-.0893.1548-.1904.3043-.2869.4559-.048.0754-.1043.1497-.2197.1054-.0994-.0382-.0844-.1206-.0651-.1944.0232-.0887.0536-.1759.0858-.2835Z"/>
    <path d="M137.9632,119.0783c-.1471-.0291-.1992-.1032-.136-.2036.108-.1714.0751-.3351-.0041-.5008-.0401-.0838-.0525-.1625.0454-.22.0995-.0584.1901-.0152.25.0499.2069.2251.4065.4556.6041.6871.0586.0686.0989.1528.0029.2215-.1063.0762-.1925.0225-.2654-.053-.0484-.0501-.0936-.1027-.1445-.1588-.1286.0684-.23.1224-.3524.1776Z"/>
    <path d="M139.0524,119.3781c.0895-.154.1945-.1053.2749-.0247.2671.2678.5299.5393.7836.8169.0651.0712.1559.1818.0171.2581-.1306.0718-.1919-.0368-.2648-.1169-.212-.2328-.4344-.4582-.6512-.6877-.0652-.069-.1529-.1266-.1597-.2458Z"/>
    <path d="M137.4604,128.0155c-.2218-.176-.1168-.3917-.1014-.5813.0091-.1115.1532-.0903.2323-.0036.1269.1391.0644.4667-.1309.5849Z"/>
    <path d="M126.9468,130.7395c-.1155.2298-.2267.4403-.342.6491-.0347.0629-.092.1114-.1796.0927-.0835-.0178-.1442-.0815-.1164-.1478.1137-.2705.069-.5813.2742-.8272.0679-.0814.1014-.2239.2689-.156.1432.058.1674.1695.1146.2961-.0096.0231-.0115.0487-.0197.0931Z"/>
  </g>
  <g>
    <path d="M48.0837,117.6637c-1.3067-1.3255-3.0554-1.77-4.7378-2.3338-.2744-.092-.557-.1763-.8096-.308-.3635-.1896-.6064-.4698-.1145-.7534.3666-.2114.2784-.6061.3208-.8251.1516-.7843.8556-.6904,1.3386-.941.0533-.0276.1897-.0047.1912-.0159.1167-.8737,1.0285-.5517,1.5035-.886.3907-.2749,1.7012.2044,1.8489.6498.0333.1004.0919.201.0923.3021.0043.9365.6637,1.2956,1.4897,1.5205.3876.1056.7714.224,1.1528.3478,1.2821.416,2.14.1089,2.8782-.984.8284-1.2265,2.0291-2.0848,3.3107-2.8544.2051-.1232.405-.2541.6346-.3986-.2149-.3772-.4256-.6131-.9039-.405-.7755.3374-1.0596.2718-1.4395-.4292-.2962-.5466-.5385-1.0813-1.2971-1.1784-.2739-.0351-.4578-.2827-.3149-.5236.2404-.4053.1337-.8641.3384-1.2803.2178-.4429-.2119-.7924-.4116-1.1443-.7098-1.2505-.085-2.978,1.3466-3.4048.7535-.2247,1.5317-.0839,2.0921.509,1.5416,1.631,2.8368,3.3737,3.3618,5.5803.4384,1.8426,1.1269,3.6304,1.544,5.4825.3708,1.646.8132,3.2782,1.0832,4.9544.0725-2.275.6207-4.4637,1.44-6.5838,1.1303-2.9246,2.3896-5.7951,4.7452-8.107.5399-.5299,1.1588-.9476,1.8091-1.3117,1.1141-.6238,2.0596-.1139,2.3186,1.1069.1909.9-.1217,1.6299-.7058,2.2761-.5318.5883-.5467,1.219-.3976,1.9058.1723.794.0121.9713-.871.9788-.1566.0013-.3141-.0119-.4696-.0295-.3167-.0357-.509.0123-.6643.355-.3653.8061-.6228.8725-1.5119.5333-.3466-.1322-.5625-.0927-.6026.3202.9175.508,1.8381.8144,2.9771.7045,1.8044-.1742,3.6115-.3974,5.4349-.3733.8816.0117,1.7403.1633,2.6061.264.411.0478.7492-.0068,1.0866-.2036.4691-.2737.9908-.4117,1.5289-.475.3875-.0456.7881-.0607.8496.4624.0394.3354.3796.262.5825.2902.881.1225.5596.8214.6368,1.2579.084.475-.4568.3628-.7523.3764-2.2166.1021-4.4339-.0728-6.6545.1052-1.1237.0901-2.1399.4734-3.1938.7652-.3024.0837-.4861.2917-.334.5786.4722.8904,1.1605,1.6904,2.532,1.3027,1.2899-.3646,2.6042-.6546,3.9154-.9458.3189-.0708.508-.2603.7152-.4456.4266-.3815.8563-.7601,1.3931-.9989.4169-.1854.7473-.1393.8207.3771.4398.0432.8533-.195,1.3221-.0336.3923.1351.6449.3911.6885.6887.0483.3299-.1001.685-.4671.9206-.6494.4168-1.4164.3831-2.1278.5473-.5962.1376-1.1378.3329-1.6845.606-1.6212.8098-3.1745,1.792-5.0635,2.0057-.5019.0568-.5976.3978-.5607.7915.1154,1.2304-.0605,2.4393-.3193,3.6425-.04.1859-.0428.4076-.1557.5465-.6402.7874-.3101,1.4458.2455,2.0911.7361.855,1.1621,1.8089,1.2599,2.9322.0506.5807-.0195,1.0887-.4356,1.4592-1.2297,1.0948-1.5276,2.604-2.1426,3.974-.1515.3375.041.4803.3374.5435.4794.1022.9685.1662,1.4473.2704.4635.1009.7609.3735.7571.8411-.0036.442-.3588.5812-.7423.7072-.4819.1583-.9634.193-1.4606.1224-.3017-.0428-.6054-.1044-.9589-.0178.1595.5853.6812.6311,1.0902.7528.5089.1513,1.0524.2,1.5777.3065.4897.0993.9384.2946.9228.8405-.0146.5118-.5337.5885-.92.7087-.6585.2049-1.3384-.0038-2.0113.025-.7431.0319-1.4786.0896-2.213.204-1.1424.1781-1.7106-.4402-1.3689-1.5022.4215-1.3101.4997-2.6583.4756-4.0011-.0179-1.0025-.2915-1.9897-.0098-3.0093.1231-.4457-.7706-.9063-1.343-.73-1.0058.3097-2.0066.6319-3.0609.769-2.0869.2714-4.1154.0078-6.1182-.5209-.9989-.2637-1.8819-.7848-2.8544-1.1036-.7626-.25-.9799-.1555-1.1686.5621-.4895,1.8621-.2975,3.6378.802,5.2807.0952.1423.1978.2815.2783.4311.358.6653.1582,1.1226-.6208,1.3794-.4645.1532-.9415.2721-1.4268.4104-.0608.4366.2574.7295.359,1.0845.231.8073-.1165,1.3562-.9956,1.3172-1.4895-.0661-2.9479.2263-4.4252.2648-.1348.0035-.2694.0172-.4043.0238-.4261.0209-.7185-.1822-.7698-.5553-.0523-.3802.2749-.5852.6225-.6351.6317-.0907,1.2309-.2572,1.7909-.5397,1.1002-.5549,1.1897-.817.793-1.9233-.4501-1.2553-.9006-2.5096-1.5272-3.6985-.4591-.8712-.4131-1.7376-.0315-2.6297.6726-1.5724,1.4756-3.082,2.4302-4.5202.2483-.3741.3553-.7728.1103-1.1345-.7695-1.1362-.9645-2.3725-.8278-3.688.0213-.2054-.0209-.4162-.0377-.6902-1.1892.0878-1.934-.6508-2.7899-1.284M59.0187,110.1935c.1982-.0292.4372-.1037.5239.1333.0936.2559-.147.3752-.3359.4845-.3724.2155-.9151.2825-.7642.8957-.4396-.037-.5166-.3266-.5869-.5774-.1187-.4233-.3706-.4345-.699-.2356-.5116.3098-1.0684.5799-1.5041.9679-.6385.5686-1.4355,1.0246-1.829,1.9217.3552-.0601.5561.1125.8908.3127.0989-.844.9648-.8873,1.3925-1.3909.2235-.2632.5079-.0942.7127.0708.2264.1823.0956.3857-.0536.556-.2765.3155-.6303.5501-1.0017.7493-1.4706.7885-2.8523,1.7017-4.2124,2.6449-.7487.5192-1.0698.5394-1.8112.0333-.7241-.4943-1.4251-1.0273-2.2715-1.3311-.7083-.2542-1.2309-.6641-1.508-1.3387-.0543-.1322-.1694-.2421-.2516-.3555q-1.4045.3175-2.0882,1.0273c.4022.1885.8098.5039,1.2472.396.5272-.13.8744.0627,1.2277.3211,1.0418.7622,2.0734,1.5365,3.1083,2.307.3967.2953.7915.5596,1.3241.2289.145-.0901.3464-.165.4553.0627.1141.2385.2573.0837.3772.0236.516-.2585,1.0422-.5033,1.5359-.7963,1.4833-.8802,3.1549-1.3398,4.7652-1.9353.2441-.0903.5726-.1559.6486.2114.0802.3877-.1967.7855-.5147.7439-.3903-.0511-.5622.1781-.8387.2505-.591.1549-.9489.6611-1.4701.8574-.8065.3037-1.6924.4081-2.4022.951-.1814.1387-.4453.1977-.6817.2541-.7209.172-.8735.6588-.948,1.2781-.1123.9335.3256,1.7234.6067,2.5549.244.7218.358.7294,1.079.3234.2853-.1606.5598-.5295,1.102-.1703-1.2988.9353-2.1345,2.127-2.8748,3.4117-.735,1.2755-1.4473,2.5316-1.5695,4.0199.3773.0125.3725-.4238.6942-.3218.1246.0395.149.1443.1428.257-.0257.4698-.4067.5738-.8252.6259.3388,1.5452.9244,2.9378,1.5915,4.3198.5494,1.1382.8088,1.4205-.4466,2.4101-.0788.0621-.1906.1212-.1246.3242.8306-.1015,1.673-.2044,2.5878-.3161-.3135-.8482-.7864-1.5617-.7473-2.416.0222-.4853-.1069-.9289-.3463-1.3848-.2274-.4331-.4471-.8659-.8066-1.2195.4166-.274.5499.1269.8364.1927-.1817-.4115-.3513-.7759-.5047-1.1462-.5194-1.2548-.3637-2.3844.7066-3.3659.2932-.2688.5403-.4505.8426-.0829.554-.3458.7771-.9755,1.3846-1.1667.6837-.2152,1.2482-.5559,1.6814-1.1016.1586-.1998.3605-.4892.6358-.4009.4077.1308.5782-.1062.8042-.2993.1576-.1347.333-.2714.5222-.0866.1552.1515.0358.3151-.0763.4541-.3791.4702-.7528.945-1.2144,1.2713.6174.9532,1.3059-.1921,1.9346.0246.1237.4787-.5477.4132-.4895.771.0771.104.1802.1287.2518.082.5183-.3379,1.0099.022,1.5126.0383.2404.0078.2787.1837.1451.3663-.0948.1296-.3418.1375-.3347.3839.5119.0492.9206-.5876,1.3967-.2918.1932.276-.1343.3416-.0722.5567.4677-.1594.8969-.2061,1.3955.0216.2345.1071.5506.4174.9108.2222.6794-.3682,1.4958-.0159,2.1756-.3935.1474-.0819.2886.026.4214.121.284.2029.5518.3137.8786-.009.3418-.3375.2192-.59-.0292-.8774-.829-.9591-1.5741-1.9831-2.5279-2.846-.1586-.1435-.4591-.3061-.2803-.5726.1498-.2233.3596-.4156.7085-.4147.6822.0018,1.1115.3642,1.4682.8386.1375.1829.1734.4879.4708.4772.4102-.0147.4488.2359.5576.5011.133.3245.1038.6929.4076.9774.8333.7804,1.291,1.8097,1.9335,2.7176.0846.1195.054.3329.0283.4964-.1689,1.0751-.1061,2.1678.0206,3.2176.1596,1.3225.0097,2.5457-.5064,3.7617-.1389.3272-.1926.6409.1907.8712q.3607-.3989.2931-.8525c-.053-.3558.0621-.4628.5382-.4599-.2707.5756-.0658.813.5923.8143.3136.0006.679.0117.9579.3833.1228-.3981.5413-.3292.7461-.6201-.2157-.1021-.4063-.2066-.6085-.2855-1.189-.4637-1.4612-.9941-1.123-2.1603.256-.8828.7282-1.6853,1.0632-2.5382.4738-1.2061.8997-2.4875.4551-3.7092-.5326-1.4637-1.3598-2.832-2.079-4.2326-.1238-.2411-.3769-.4212-.5141-.6584-.1993-.3447-.0508-.619.3196-.7682.3926-.1582.4031.1412.5222.3739.2273.4438.4512.8997.8,1.2583.2947-.0744.3799-.2734.4967-.4558.6889-1.0757,1.0451-2.2491,1.1077-3.4862.053-1.0468.3748-2.2402-1.1841-2.6643-.0308-.0084-.0472-.0686-.0665-.1064-.2547-.4992-.9966-.727-1.2576-.6855-.9111.1447-1.4375-.5046-2.1739-.6608-.762-.1616-1.0141-.7737-1.3041-1.3336.3028-.2941.5419-.1201.7914-.047,1.3946.4087,2.6921,1.0363,4.045,1.5368.4355.1611.9293.4584,1.4047.2262.7101-.3468,1.4825-.4946,2.2188-.7515.1471-.0513.3606-.1053.456.1675-.7215.4336-1.6597.4111-2.4209.9519.7233.409,1.3434.1469,1.9323-.0674,2.1274-.774,3.9865-2.1259,6.3418-2.6228-.3694-.1756-.5555-.3955-.153-.8184-.5914.1906-.9898.5318-1.4831.2145-.123-.0791-.2863.0855-.396.192-.1764.1714-.3832.2908-.6189.3765-1.5353.558-3.1537.8248-4.7305,1.2368-.9048.2364-1.6182.1581-2.3964-.429-1.07-.8072-2.18-1.6192-3.568-1.9544-.2145-.0518-.4476-.1546-.3855-.4326.0461-.2063.1442-.5104.3668-.4741.3946.0644.9805.0162,1.1472.1924.4073.4307,1.1627.4798,1.3508,1.1191.0168.0571.16.0586.3329-.1503-1.7341-1.5915-3.3202-3.3839-6.2896-2.9063-.1899.1753-.2021.5571-.3444.8864-1.2982,3.0045-1.8883,6.1128-1.6453,9.348.0696.9271.0329,1.8541-.2157,2.7668-.0549.2016-.0131.4682-.3321.4573-.3086-.0106-.281-.2721-.3054-.4783-.0843-.7133-.0355-1.4275-.011-2.1423.0513-1.4929-.451-2.911-.7196-4.3535-.5847-3.1408-1.4043-6.241-2.5736-9.2365-.5843-1.4967-1.2632-2.9811-2.3732-4.2189-.6963-.7765-1.6697-1.1167-2.5358-.2044.4783.1768.4609.3913.0667.6614-.1467.1005-.4088.2537-.2417.452.2585.3068-.1015.4784-.1504.7191.3296-.1055.6159-.2246.9152-.286.3888-.0798.6256.0787.5693.4736-.065.4554-.6.7613-1.1569.6313.2691.6454-.1288,1.2491-.1014,1.919.534-.0788.8116.1678.9776.5375.1062-.0221.1761-.0244.2335-.0508.2277-.1047.4836-.2411.6689.0018.2271.2976-.1148.3634-.2861.514-.2205.194-.213.4043.0989.5556.4708-.2346.8057-.6076,1.1337-.9786.2536-.2868.3313-.7138.066-.9315-.3974-.3259-.333-.5782-.0227-.9145-.2278-.0714-.3933-.1333-.5646-.1749-.4642-.1127-.4023-.5137-.4885-.8173-.0571-.2011.0931-.3717.3025-.442.3409-.1144.6712-.1029.9218.1802.421.4758.7013.987.3565,1.6167-.2317.4233.1256.8307.3494.8605.4305.0573.5378.3887.8189.4888.0096.2956-.3071.4265-.2511.6848.6968.4102.8384.7726.4286,1.3533-.4468-.0194-.4871-.4124-.6851-.672.0221.3301-.0188.6579.1327.9553.2988.0027.4984-.1028.7509-.3233M68.923,108.8136c-.2261-.1439-.635-.2717-.2877-.5833.1992-.1787.3279-.3761.4909-.5658.2515-.2927.598-.3302.9732-.1668.2628.1144.3031.5957.7276.4139.4276-.1831.0405-.5895.2289-.8547.0518-.0729.0847-.1911-.027-.2879-.1448.1692-.2234.4671-.544.3376-.2839-.1147-.1728-.3493-.1201-.5501.0403-.1535.0502-.3011-.1054-.3961-.1785-.109-.4727-.1549-.3329-.4428.113-.2327.3858-.1771.6016-.1963,1.2325-.1094,1.4498-.3094,1.7056-1.4409.1231-.5443-.2565-.8146-.5806-1.1227-.3291-.3129-.6723-.1208-.9861.0389-.7812.3976-1.4214.9494-1.9908,1.6735.4424-.0055.6862.198.7395.549.0557.3676-.3552.3103-.5361.4655-.1783.1529-.4923.1598-.5525.4313-.0452.2036-.0158.4563-.3195.4856-.3458.0333-.2849-.3184-.5387-.4691.1098.8343.0499,1.6612-.0095,2.561.5084-.0136.9382.4107,1.4636.1203M72.7006,110.801c-.1795.0125-.3595.0212-.5385.0386-.1968.019-.4385-.0099-.5163.2154-.0723.2095.1085.3584.2407.492.4407.4455,1.1244.6253,1.6358.541.8717-.1437,1.7355-.3636,2.7317-.4269-.6301-.1927-1.2489-.0245-1.7204-.4381.8023-.0998,1.6766-.185,2.3486.162.4077.2106.7339.2816,1.144.2747.8935-.0148,1.7883-.2266,2.6807.0078.1824.0479.3541-.0087.4968-.1797-.0254-.0859-.0556-.1848-.084-.2842-.2236-.7814-.4502-.8798-1.2172-.4888-.4013.2046-.813.2427-1.2416.1562-1.9362-.3909-3.8834-.2801-5.9604-.0699M52.8508,129.2148c-.0971.0511-.2813.1432-.279.1475.2587.4897-.3129,1.18.41,1.5571.1022.0533.0998.1702.0978.283-.0164.901.1117,1.7922.2596,2.6761.069.4122-.1413.9244.3255,1.2255.5661.3652.8335-.3428,1.2999-.3701.0203-.0012.0369-.0669.088-.1665-.99-.7022-1.0685-1.7505-1.0887-2.8259-.0083-.4403-.1102-.8374-.4328-1.2184-.2296-.2711-.3205-.7067-.18-1.0877.3651-.0472.2298.3486.4786.3858q-.0423-.9193-.9788-.6064M48.0594,115.0505c.642.4251,1.4326.5781,2.2018.8774.1699-.3956.7439-.3961,1.2619-.4861-1.181-.4122-2.3244-.7611-3.4612-1.1276-.4018-.1296-.6922-.4132-.8325-.7801-.1682-.4399-.4175-.7674-.9223-.8786-.3101.6726.5228,1.8472,1.7523,2.395M72.7053,125.7045c.5304.7744.786,1.6693,1.1641,2.5834.8259-1.4351.1182-2.4129-1.233-3.9394q-.4424.5373-.4486,1.2462c.1495.0166.299.0331.5174.1098M66.3155,108.8139c-.1374-.1442-.2894-.1388-.376.0278-.1526.2934-.3417.5822-.3512.9502.3571.1043.6684.0861.9772-.0453.0465-.3288-.0597-.5975-.2499-.9327M72.1946,134.086c-.3917.3408-.0454.4119.2106.4595.557.1035,1.1381-.2715,1.6995.0901-.5065-.5309-1.2106-.3997-1.9101-.5496Z"/>
    <path d="M70.3402,131.3644c.0321-.9648.064-1.0688.5298-1.5315-.0592.971-.1112,1.8235-.1737,2.8486-.4724-.482-.2845-.8971-.356-1.3171Z"/>
    <path d="M49.3024,117.0676c-.5304-.2634-1.0201-.5194-1.5776-.8109.6214-.1952,1.6211.2554,1.7464.7059.0069.0249-.0832.0743-.1688.105Z"/>
    <path d="M71.4338,129.177c.6582-.0878.6149.521,1.0606.7283-.6388.243-.915.0294-1.0606-.7283Z"/>
    <path d="M55.2287,107.4402c-.105.2049-.2229.3486-.4345.2512-.2508-.1154-.3121-.3323-.2804-.6085.365-.1236.6615-.1567.7149.3573Z"/>
    <path d="M53.6003,134.1776c-.0919-.2163-.1194-.3949.1576-.3888.223.0049.3468.1688.3957.3649.0379.1519.0083.3205-.1513.3783-.2996.1085-.282-.1771-.402-.3544Z"/>
  </g>
  <g>
    <polygon class="cls-12" points="69.8005 122.0359 69.8005 157.3125 78.1871 147.2409 87.2785 163.8877 96.1584 159.2433 87.2785 142.9618 101.1591 142.9618 69.8005 122.0359"/>
    <g id="cursor-click-svgrepo-com">
      <path class="cls-11" d="M80.6247,116.7416l7.6022-3.8464,1.2119,2.675-8.0371,4.0688-.7771-2.8974ZM81.1942,103.9867l-2.6454-.9875-2.8838,8.6447,2.4462,1.5866,3.083-9.2437ZM55.3325,129.5381l1.2119,2.675,8.0371-4.0628-1.6467-2.4585-7.6022,3.8464ZM63.249,105.8075l3.0353,6.7052,2.5303-1.2782-3.0353-6.7052-2.5303,1.2782ZM62.2896,118.4112l-8.1801-3.0486-.9313,2.7965,8.744,3.2621.3675-3.0101ZM104.8649,144.3098h-15.297l8.5055,17.9388-11.0527,5.8748-8.7131-18.2442-9.3864,13.5942v-46.8917l35.9437,27.7282ZM84.9925,141.2849h11.2407l-24.5347-18.9263v31.9601l7.0159-10.163,9.5182,19.9287,6.0453-3.2147-9.2854-19.5847Z"/>
      <path class="cls-4" d="M43.6739,99.8261h67.3261v71.1739H43.6739v-71.1739Z"/>
    </g>
  </g>
  <path class="cls-13" d="M299.9808,94.2833l-.0553-1.5945-.2214-6.378c-24.813,1.708-43.7267.7999-44.6674-2.5573-.1122-.4005-.4216-2.4522-.483-4.816-.0522-2.0087.0854-3.8329.1694-4.2194.7165-3.2986,19.4603-2.8388,44.0426.4129l-.2214-6.378-.1107-3.189c.2564.0809.8883.2843,1.6714.5868,2.6989,1.0425,6.8651,3.1345,17.5236,13.3278.7945.7598,1.419,1.3675,1.7083,1.6498-.2922.2878-.8652.8487-1.5976,1.5391-5.1403,4.8455-9.6808,9.0445-16.1239,11.1395-.7741.2517-1.3999.4159-1.6345.4762Z"/>
  <g>
    <path class="cls-13" d="M480.7516,135.8576c-1.0683-.5108-2.6851-1.0804-4.4276-.7627-1.8156.331-2.2703,1.3523-3.9848,1.9067-2.0147.6514-3.0558-.219-6.6414-.7627-4.9402-.749-9.5461-.0947-10.1835,0-3.176.4721-4.6406,1.206-6.1986.3813-1.5419-.8161-1.1668-2.0954-2.6566-2.6693-1.2059-.4646-1.988.1672-6.1986,1.144-2.3316.5409-3.4974.8114-4.4276.7627-1.377-.0721-2.8367-.5565-5.7559-1.5253-1.9591-.6502-2.3245-.8589-3.0993-.7627-1.6695.2073-1.75,1.3971-3.5421,1.9067-1.3901.3952-1.9713-.1416-4.8704-.3813-2.6308-.2175-2.4333.2013-4.4276,0-2.5351-.2559-3.0405-.9514-7.5269-1.9067-1.7119-.3645-2.762-.5025-3.5421,0-.8727.5621-.5516,1.3744-1.2439,1.9592-1.2157,1.0269-3.6878-.226-7.1685-.8152-4.541-.7686-4.4315.6702-9.7407,0-3.9615-.5001-5.0803-1.4346-7.5269-.7627-1.557.4276-2.1977,1.1066-3.9848,1.144-1.544.0324-2.13-.4521-3.9848-.7627-1.1187-.1873-2.7576-.3212-4.8704,0,.2269-.9115.5429-2.2253.8855-3.8134,1.0484-4.8597,1.5677-7.3345,1.3283-9.5334-.3958-3.6355-1.8051-3.1743-1.771-6.1014.0409-3.5171,2.0785-4.4319,1.771-8.008-.2093-2.4346-1.161-2.0953-1.3283-4.576-.2372-3.5176,1.6495-4.5975.8855-7.6267-.4657-1.8466-1.268-1.8466-1.3283-3.432-.0791-2.0826,1.2773-2.8223,1.771-4.9574.4697-2.031-.4169-2.8352-.8855-5.3387-.7647-4.0854.9511-5.3911,1.3283-10.2961.152-1.9772.1097-4.8404-.8855-8.3894,6.806,1.0772,12.2188,1.0217,15.9394.7627,3.9505-.275,5.0653-.7149,9.298-.7627,5.4698-.0617,6.449.6409,12.3973.7627,7.0147.1436,6.5551-.8149,11.069-.3813,7.1213.6841,7.4923,2.9957,12.8401,2.6693,3.539-.2159,3.8869-1.2594,9.7407-1.9067,3.3969-.3756,2.9661.0104,7.0842-.3813,5.9672-.5677,7.1782-1.4074,10.1835-.7627,2.564.55,2.5136,1.3395,4.8704,1.5253,2.6929.2124,3.4306-.7653,6.6414-.7627,2.5738.0021,2.9446.6311,5.3131.7627,1.7776.0988,4.3279-.1022,7.5269-1.5253-.3063.9586-.6958,2.4066-.8855,4.1947-.2491,2.3482.1354,2.5607,0,4.9574-.2291,4.0549-1.4162,4.9774-.4428,6.864.2224.4311.8862,1.1772,2.2138,2.6693,1.3976,1.5708,2.2064,2.2825,2.2138,3.432.0033.5085-.1518.8622-.4428,1.5253-.5706,1.3006-1.2679,1.9161-2.2138,3.0507-1.6308,1.9562-2.4462,2.9343-2.2138,3.8134.2874,1.087,1.6359.9819,2.6566,2.288.2381.3047.7906,1.1113.4428,4.9574-.287,3.1733-.7594,3.6884-.8855,6.4827-.1093,2.4224.2391,2.1811,0,3.432-.6469,3.3842-2.9775,4.0014-2.6566,6.1014.2491,1.6297,1.6864,1.4784,2.6566,3.8134.5055,1.2166.284,1.6638.4428,4.9574.1351,2.8016.3076,2.733.4428,5.3387.0743,1.433.1295,3.5241,0,6.1014Z"/>
    <text class="cls-15" transform="translate(394.751 104.5391) scale(1.0484 1)"><tspan class="cls-14" x="0" y="0">a</tspan><tspan x="9.471" y="0">pple</tspan></text>
  </g>
  <g>
    <path class="cls-13" d="M611.2289,102.2118c-1.0683-.5108-2.6851-1.0804-4.4276-.7627-1.8156.331-2.2703,1.3523-3.9848,1.9067-2.0147.6514-3.0558-.219-6.6414-.7627-4.9402-.749-9.5461-.0947-10.1835,0-3.176.4721-4.6406,1.206-6.1986.3813-1.5419-.8161-1.1668-2.0954-2.6566-2.6693-1.2059-.4646-1.988.1672-6.1986,1.144-2.3316.5409-3.4974.8114-4.4276.7627-1.377-.0721-2.8367-.5565-5.7559-1.5253-1.9591-.6502-2.3245-.8589-3.0993-.7627-1.6695.2073-1.75,1.3971-3.5421,1.9067-1.3901.3952-1.9713-.1416-4.8704-.3813-2.6308-.2175-2.4333.2013-4.4276,0-2.5351-.2559-3.0405-.9514-7.5269-1.9067-1.7119-.3645-2.762-.5025-3.5421,0-.8727.5621-.5516,1.3744-1.2439,1.9592-1.2157,1.0269-3.6878-.226-7.1685-.8152-4.541-.7686-4.4315.6702-9.7407,0-3.9615-.5001-5.0803-1.4346-7.5269-.7627-1.557.4276-2.1977,1.1066-3.9848,1.144-1.544.0324-2.13-.4521-3.9848-.7627-1.1187-.1873-2.7576-.3212-4.8704,0,.2269-.9115.5429-2.2253.8855-3.8134,1.0484-4.8597,1.5677-7.3345,1.3283-9.5334-.3958-3.6355-1.8051-3.1743-1.771-6.1014.0409-3.5171,2.0785-4.4319,1.771-8.008-.2093-2.4346-1.161-2.0953-1.3283-4.576-.2372-3.5176,1.6495-4.5975.8855-7.6267-.4657-1.8466-1.268-1.8466-1.3283-3.432-.0791-2.0826,1.2773-2.8223,1.771-4.9574.4697-2.031-.4169-2.8352-.8855-5.3387-.7647-4.0854.9511-5.3911,1.3283-10.2961.152-1.9772.1097-4.8404-.8855-8.3894,6.806,1.0772,12.2188,1.0217,15.9394.7627,3.9505-.275,5.0653-.7149,9.298-.7627,5.4698-.0617,6.449.6409,12.3973.7627,7.0147.1436,6.5551-.8149,11.069-.3813,7.1213.6841,7.4923,2.9957,12.8401,2.6693,3.539-.2159,3.8869-1.2594,9.7407-1.9067,3.3969-.3756,2.9661.0104,7.0842-.3813,5.9672-.5677,7.1782-1.4074,10.1835-.7627,2.564.55,2.5136,1.3395,4.8704,1.5253,2.6929.2124,3.4306-.7653,6.6414-.7627,2.5738.0021,2.9446.6311,5.3131.7627,1.7776.0988,4.3279-.1022,7.5269-1.5253-.3063.9586-.6958,2.4066-.8855,4.1947-.2491,2.3482.1354,2.5607,0,4.9574-.2291,4.0549-1.4162,4.9774-.4428,6.864.2224.4311.8862,1.1772,2.2138,2.6693,1.3976,1.5708,2.2064,2.2825,2.2138,3.432.0033.5085-.1518.8622-.4428,1.5253-.5706,1.3006-1.2679,1.9161-2.2138,3.0507-1.6308,1.9562-2.4462,2.9343-2.2138,3.8134.2874,1.087,1.6359.9819,2.6566,2.288.2381.3047.7906,1.1113.4428,4.9574-.287,3.1733-.7594,3.6884-.8855,6.4827-.1093,2.4224.2391,2.1811,0,3.432-.6469,3.3842-2.9775,4.0014-2.6566,6.1014.2491,1.6297,1.6864,1.4784,2.6566,3.8134.5055,1.2166.284,1.6638.4428,4.9574.1351,2.8016.3076,2.733.4428,5.3387.0743,1.433.1295,3.5241,0,6.1014Z"/>
    <text class="cls-15" transform="translate(530.207 70.8931) scale(1.0484 1)"><tspan x="0" y="0">t</tspan><tspan class="cls-17" x="7.5634" y="0">r</tspan><tspan x="16.1029" y="0">ee</tspan></text>
  </g>
</svg>