<?xml version="1.0" encoding="UTF-8"?>
<svg id="Layer_1" xmlns="http://www.w3.org/2000/svg" xmlns:xlink="http://www.w3.org/1999/xlink" viewBox="0 0 856.125 143.5">
  <defs>
    <style>
      .cls-1 {
        font-family: GillSansMT, 'Gill Sans MT';
        font-size: 24px;
      }

      .cls-2 {
        letter-spacing: -.0151em;
      }

      .cls-3 {
        fill: #4d4d4d;
      }

      .cls-4, .cls-5 {
        fill: #fff;
      }

      .cls-5 {
        stroke: #fff;
        stroke-miterlimit: 10;
        stroke-width: 3px;
      }

      .cls-6 {
        fill: none;
      }

      .cls-7 {
        clip-path: url(#clippath-1);
      }

      .cls-8 {
        fill: #666;
      }

      .cls-9 {
        clip-path: url(#clippath-3);
      }

      .cls-10 {
        clip-path: url(#clippath-2);
      }

      .cls-11 {
        clip-path: url(#clippath);
      }
    </style>
    <clipPath id="clippath">
      <rect class="cls-6" x="70" y="48.5" width="97.1893" height="41.6519"/>
    </clipPath>
    <clipPath id="clippath-1">
      <rect class="cls-6" x="70" y="48.4999" width="97.189" height="41.652"/>
    </clipPath>
    <clipPath id="clippath-2">
      <rect class="cls-6" x="376" y="36.5" width="114.197" height="61.9056"/>
    </clipPath>
    <clipPath id="clippath-3">
      <rect class="cls-6" x="376" y="36.4996" width="114.197" height="61.906"/>
    </clipPath>
  </defs>
  <g id="paper_x5F_stack">
    <g class="cls-11">
      <g class="cls-7">
        <path class="cls-4" d="M73.3362,88.9015l19.146-9.041c1.649-.778,4.13-1.437,5.418-1.437l66.154.251-19.144,9.041c-1.647.779-4.127,1.436-5.415,1.436l-66.159-.25Z"/>
        <path d="M97.899,77.4241l.009,2,61.724.234-15.149,7.153c-1.673.79-3.972,1.341-4.999,1.341l-61.724-.234,15.149-7.153c1.673-.79,3.973-1.341,4.99-1.341v-2ZM97.899,77.4241c-1.437,0-4.048.684-5.844,1.532l-19.878,9.387c-1.803.851-2.103,1.546-.669,1.552l67.969.257h.017c1.437,0,4.047-.684,5.843-1.532l19.878-9.387c1.804-.852,2.103-1.546.67-1.552l-67.969-.257h-.017"/>
        <path class="cls-4" d="M73.7346,83.9776l19.146-9.041c1.649-.778,4.129-1.437,5.416-1.437l66.158.25-19.146,9.041c-1.648.779-4.129,1.437-5.415,1.437l-66.159-.25Z"/>
        <path d="M98.2973,72.5l.009,2,61.724.234-15.149,7.153c-1.673.79-3.972,1.341-4.999,1.341l-61.724-.234,15.149-7.153c1.673-.79,3.973-1.341,4.99-1.341v-2ZM98.2973,72.5c-1.437,0-4.048.684-5.844,1.532l-19.878,9.387c-1.803.851-2.103,1.546-.669,1.552l67.969.257h.017c1.437,0,4.047-.684,5.843-1.532l19.878-9.387c1.804-.852,2.103-1.546.67-1.552l-67.969-.257h-.017"/>
        <path class="cls-4" d="M73.7346,78.9776l19.146-9.041c1.649-.778,4.129-1.437,5.416-1.437l66.158.25-19.146,9.041c-1.648.779-4.129,1.437-5.415,1.437l-66.159-.25Z"/>
        <path d="M98.2973,67.5l.009,2,61.724.234-15.149,7.153c-1.673.79-3.972,1.341-4.999,1.341l-61.724-.234,15.149-7.153c1.673-.79,3.973-1.341,4.99-1.341v-2ZM98.2973,67.5c-1.437,0-4.048.684-5.844,1.532l-19.878,9.387c-1.803.851-2.103,1.546-.669,1.552l67.969.257h.017c1.437,0,4.047-.684,5.843-1.532l19.878-9.387c1.804-.852,2.103-1.546.67-1.552l-67.969-.257h-.017"/>
        <path class="cls-4" d="M72.7346,73.9776l19.146-9.041c1.649-.778,4.129-1.437,5.416-1.437l66.158.25-19.146,9.041c-1.648.779-4.129,1.437-5.415,1.437l-66.159-.25Z"/>
        <path d="M97.2973,62.5l.009,2,61.724.234-15.149,7.153c-1.673.79-3.972,1.341-4.999,1.341l-61.724-.234,15.149-7.153c1.673-.79,3.973-1.341,4.99-1.341v-2ZM97.2973,62.5c-1.437,0-4.048.684-5.844,1.532l-19.878,9.387c-1.803.851-2.103,1.546-.669,1.552l67.969.257h.017c1.437,0,4.047-.684,5.843-1.532l19.878-9.387c1.804-.852,2.103-1.546.67-1.552l-67.969-.257h-.017"/>
        <path class="cls-4" d="M72.7346,59.9776l19.146-9.041c1.649-.778,4.129-1.437,5.416-1.437l66.158.25-19.146,9.041c-1.648.779-4.129,1.437-5.415,1.437l-66.159-.25Z"/>
        <path d="M97.2973,48.5l.009,2,61.724.234-15.149,7.153c-1.673.79-3.972,1.341-4.999,1.341l-61.724-.234,15.149-7.153c1.673-.79,3.973-1.341,4.99-1.341v-2ZM97.2973,48.5c-1.437,0-4.048.684-5.844,1.532l-19.878,9.387c-1.803.851-2.103,1.546-.669,1.552l67.969.257h.017c1.437,0,4.047-.684,5.843-1.532l19.878-9.387c1.804-.852,2.103-1.546.67-1.552l-67.969-.257h-.017"/>
      </g>
    </g>
  </g>
  <path class="cls-5" d="M605.1319,83.9747l-.0553-1.5945-.2214-6.378c-24.813,1.708-43.7267.7999-44.6674-2.5573-.1122-.4005-.4216-2.4522-.483-4.816-.0522-2.0087.0854-3.8329.1694-4.2194.7165-3.2986,19.4603-2.8388,44.0426.4129l-.2214-6.378-.1107-3.189c.2564.0809.8883.2843,1.6714.5868,2.6989,1.0425,6.8651,3.1345,17.5236,13.3278.7945.7598,1.419,1.3675,1.7083,1.6498-.2922.2878-.8652.8487-1.5976,1.5391-5.1403,4.8455-9.6808,9.0445-16.1239,11.1395-.7741.2517-1.3999.4159-1.6345.4762Z"/>
  <g id="paper_x5F_stack_x5F_lift">
    <g class="cls-10">
      <g class="cls-9">
        <path class="cls-4" d="M379.3368,97.1552l19.146-9.041c1.648-.778,4.129-1.437,5.417-1.437l66.155.251-19.144,9.041c-1.648.779-4.129,1.436-5.416,1.436l-66.158-.25Z"/>
        <path d="M403.899,85.6778l.009,2,61.724.234-15.149,7.153c-1.673.79-3.972,1.341-4.999,1.341l-61.724-.234,15.149-7.153c1.673-.79,3.973-1.341,4.99-1.341v-2ZM403.899,85.6778c-1.437,0-4.048.684-5.844,1.532l-19.878,9.387c-1.803.851-2.103,1.546-.669,1.552l67.969.257h.017c1.437,0,4.047-.684,5.843-1.532l19.878-9.387c1.804-.852,2.103-1.546.67-1.552l-67.969-.257h-.017"/>
        <path class="cls-4" d="M379.7352,92.2314l19.146-9.041c1.648-.778,4.128-1.437,5.415-1.437l66.158.25-19.146,9.041c-1.648.779-4.129,1.437-5.415,1.437l-66.158-.25Z"/>
        <path d="M404.2973,80.7537l.009,2,61.724.234-15.149,7.153c-1.673.79-3.972,1.341-4.999,1.341l-61.724-.234,15.149-7.153c1.673-.79,3.973-1.341,4.99-1.341v-2ZM404.2973,80.7537c-1.437,0-4.048.684-5.844,1.532l-19.878,9.387c-1.803.851-2.103,1.546-.669,1.552l67.969.257h.017c1.437,0,4.047-.684,5.843-1.532l19.878-9.387c1.804-.852,2.103-1.546.67-1.552l-67.969-.257h-.017"/>
        <path class="cls-4" d="M379.7352,87.2314l19.146-9.041c1.648-.778,4.128-1.437,5.415-1.437l66.158.25-19.146,9.041c-1.648.779-4.129,1.437-5.415,1.437l-66.158-.25Z"/>
        <path d="M404.2973,75.7537l.009,2,61.724.234-15.149,7.153c-1.673.79-3.972,1.341-4.999,1.341l-61.724-.234,15.149-7.153c1.673-.79,3.973-1.341,4.99-1.341v-2ZM404.2973,75.7537c-1.437,0-4.048.684-5.844,1.532l-19.878,9.387c-1.803.851-2.103,1.546-.669,1.552l67.969.257h.017c1.437,0,4.047-.684,5.843-1.532l19.878-9.387c1.804-.852,2.103-1.546.67-1.552l-67.969-.257h-.017"/>
        <path class="cls-4" d="M378.7352,82.2314l19.146-9.041c1.648-.778,4.128-1.437,5.415-1.437l66.158.25-19.146,9.041c-1.648.779-4.129,1.437-5.415,1.437l-66.158-.25Z"/>
        <path d="M403.2973,70.7537l.009,2,61.724.234-15.149,7.153c-1.673.79-3.972,1.341-4.999,1.341l-61.724-.234,15.149-7.153c1.673-.79,3.973-1.341,4.99-1.341v-2ZM403.2973,70.7537c-1.437,0-4.048.684-5.844,1.532l-19.878,9.387c-1.803.851-2.103,1.546-.669,1.552l67.969.257h.017c1.437,0,4.047-.684,5.843-1.532l19.878-9.387c1.804-.852,2.103-1.546.67-1.552l-67.969-.257h-.017"/>
        <path class="cls-4" d="M378.7684,68.2314c1.272-.55,2.724-1.073,4.244-1.622,3.965-1.43,8.457-3.051,11.236-5.765,5.378-5.253,5.197-15.583,4.939-17.4-.057-.395-.167-1.431.001-2.73.14-1.067.249-1.908.747-2.455.573-.628,1.518-.759,2.208-.759.297,0,.612.025.888.071l.083.014h.085c12.981-.019,24.527-.026,33.848-.026,13.996,0,22.544.015,24.143.026.438.003,1.603.012,2.3.708.479.479.716,1.247.707,2.283.088,1.359.088,2.66.002,3.943-.19,2.837-.86,5.85-1.938,8.714-1.094,2.903-2.441,6.482-5.753,9.627-.708.672-2.852,2.706-5.671,3.792-.651.251-1.828.643-2.929.976-1.04.315-2.099.602-3.149.853l-65.991-.25Z"/>
        <path d="M402.1431,38.4999c.328,0,.593.036.721.058l.167.028h.169c12.956-.02,24.483-.027,33.794-.027,14.006,0,22.577.016,24.189.027.327.002,1.194.008,1.6.414.274.275.421.831.414,1.566l-.001.076.005.077c.083,1.238.083,2.495,0,3.734-.182,2.738-.83,5.652-1.887,8.457-1.101,2.925-2.35,6.24-5.494,9.225-.669.635-2.704,2.568-5.342,3.585-.617.238-1.793.629-2.86.952-.983.297-1.983.569-2.975.809l-60.466-.229c3.845-1.395,8.033-3.018,10.771-5.692,5.677-5.545,5.499-16.357,5.227-18.268-.038-.269-.152-1.241.005-2.448.129-.99.222-1.611.494-1.91.358-.392,1.146-.434,1.469-.434M402.1431,36.4999c-.89,0-2.126.187-2.946,1.086-.711.779-.844,1.801-1,3-.208,1.6-.023,2.836,0,3,.295,2.072.219,11.791-4.646,16.543-3.852,3.762-11.322,5.346-15.975,7.544-1.804.851-2.104,1.546-.67,1.551l67.969.258c.821-.195,1.967-.486,3.322-.896,1.083-.328,2.309-.734,3-1,3.008-1.16,5.241-3.279,6-4,3.489-3.312,4.875-7.013,6-10,1.599-4.246,1.913-7.699,2-9,.107-1.615.067-2.987,0-4,.008-.813-.11-2.11-1-3-.967-.967-2.387-.996-3-1-1.719-.012-10.597-.027-24.203-.027-9.312,0-20.84.007-33.797.027-.135-.023-.536-.086-1.054-.086"/>
      </g>
    </g>
  </g>
  <g>
    <polygon class="cls-4" points="430.9231 54.4178 430.9231 88.2624 439.3203 79.1195 448.917 94.8388 457.3142 91.4704 448.4232 74.6754 461.0769 74.6754 430.9231 54.4178"/>
    <g id="cursor-click-svgrepo-com">
      <path class="cls-3" d="M442.4412,51.7443l7.9042-3.4587,1.26,2.4053-8.3562,3.6587-.8079-2.6053ZM443.0332,40.275l-2.7504-.888-2.9983,7.7733,2.5433,1.4267,3.2054-8.312ZM416.1445,63.251l1.26,2.4053,8.3562-3.6533-1.7121-2.2107-7.9042,3.4587ZM424.3753,41.9123l3.1558,6.0293,2.6308-1.1493-3.1558-6.0293-2.6308,1.1493ZM423.3778,53.2457l-8.505-2.7413-.9683,2.5147,9.0912,2.9333.3821-2.7067ZM467.6212,76.5h-15.9046l8.8433,16.1307-11.4917,5.2827-9.0592-16.4053-9.7592,12.224v-42.1653l37.3712,24.9333ZM447.0471,73.86h11.6871l-25.5092-17.0187v28.7387l7.2946-9.1387,9.8962,17.92,6.2854-2.8907-9.6542-17.6107Z"/>
      <path class="cls-6" d="M404,36.5h70v64h-70V36.5Z"/>
    </g>
  </g>
  <g>
    <path class="cls-5" d="M837.3157,132.3133c-1.6191-.8116-4.0696-1.7167-6.7105-1.2119-2.7517.526-3.4409,2.1488-6.0395,3.0297-3.0534,1.0351-4.6315-.348-10.0658-1.2119-7.4874-1.1903-14.4681-.1505-15.4342,0-4.8136.7501-7.0333,1.9163-9.3947.6059-2.3369-1.2968-1.7685-3.3297-4.0263-4.2416-1.8277-.7382-3.013.2657-9.3947,1.8178-3.5338.8595-5.3008,1.2892-6.7105,1.2119-2.087-.1145-4.2993-.8843-8.7237-2.4238-2.9692-1.0332-3.5231-1.3648-4.6974-1.2119-2.5304.3295-2.6523,2.2201-5.3684,3.0297-2.1068.628-2.9877-.225-7.3816-.6059-3.9872-.3457-3.6879.3199-6.7105,0-3.8422-.4066-4.6083-1.5118-11.4079-3.0297-2.5946-.5792-4.1861-.7985-5.3684,0-1.3226.8932-.8361,2.184-1.8853,3.1132-1.8425,1.6318-5.5893-.3592-10.8647-1.2954-6.8824-1.2214-6.7165,1.0649-14.7632,0-6.004-.7946-7.6998-2.2797-11.4079-1.2119-2.3598.6795-3.3309,1.7583-6.0395,1.8178-2.3401.0514-3.2283-.7184-6.0395-1.2119-1.6955-.2976-4.1795-.5104-7.3816,0,.3439-1.4484.8229-3.5361,1.3421-6.0595,1.5889-7.7222,2.376-11.6546,2.0132-15.1487-.5999-5.7768-2.7358-5.044-2.6842-9.6952.062-5.5887,3.1502-7.0424,2.6842-12.7249-.3172-3.8687-1.7596-3.3294-2.0132-7.2714-.3595-5.5896,2.5-7.3055,1.3421-12.1189-.7058-2.9343-1.9218-2.9343-2.0132-5.4535-.1199-3.3094,1.9358-4.4847,2.6842-7.8773.7119-3.2273-.6319-4.5052-1.3421-8.4833-1.159-6.4917,1.4416-8.5665,2.0132-16.3606.2304-3.1419.1662-7.6915-1.3421-13.3308,10.3152,1.7116,18.5189,1.6235,24.1579,1.2119,5.9874-.437,7.6771-1.136,14.0921-1.2119,8.29-.0981,9.7741,1.0183,18.7895,1.2119,10.6316.2283,9.9349-1.295,16.7763-.6059,10.7931,1.087,11.3553,4.7601,19.4605,4.2416,5.3637-.3431,5.891-2.0011,14.7632-3.0297,5.1484-.5969,4.4954.0166,10.7368-.6059,9.044-.902,10.8793-2.2363,15.4342-1.2119,3.886.874,3.8096,2.1284,7.3816,2.4238,4.0814.3375,5.1995-1.2161,10.0658-1.2119,3.9009.0034,4.4628,1.0028,8.0526,1.2119,2.6941.1569,6.5594-.1624,11.4079-2.4238-.4642,1.5232-1.0546,3.8241-1.3421,6.6654-.3775,3.7314.2052,4.069,0,7.8773-.3472,6.4433-2.1464,7.9092-.6711,10.9071.3371.685,1.3432,1.8706,3.3553,4.2416,2.1182,2.4961,3.344,3.627,3.3553,5.4535.005.8081-.2301,1.37-.6711,2.4238-.8647,2.0668-1.9217,3.0447-3.3553,4.8476-2.4717,3.1084-3.7075,4.6626-3.3553,6.0595.4356,1.7273,2.4793,1.5603,4.0263,3.6357.3609.4842,1.1983,1.7659.6711,7.8773-.435,5.0425-1.151,5.8609-1.3421,10.3011-.1657,3.8492.3624,3.4658,0,5.4535-.9804,5.3776-4.5127,6.3582-4.0263,9.6952.3775,2.5897,2.556,2.3491,4.0263,6.0595.7661,1.9332.4304,2.6438.6711,7.8773.2047,4.4518.4662,4.3428.6711,8.4833.1126,2.277.1963,5.5999,0,9.6952Z"/>
    <text class="cls-1" transform="translate(701.3354 80.5435)"><tspan x="0" y="0">Noteca</tspan><tspan class="cls-2" x="72.2227" y="0">r</tspan><tspan x="81.3633" y="0">d</tspan></text>
  </g>
  <path class="cls-5" d="M285.782,85.8051l-.0553-1.5945-.2214-6.378c-24.813,1.708-43.7267.7999-44.6674-2.5573-.1122-.4005-.4216-2.4522-.483-4.816-.0522-2.0087.0854-3.8329.1694-4.2194.7165-3.2986,19.4603-2.8388,44.0426.4129l-.2214-6.378-.1107-3.189c.2564.0809.8883.2843,1.6714.5868,2.6989,1.0425,6.8651,3.1345,17.5236,13.3278.7945.7598,1.419,1.3675,1.7083,1.6498-.2922.2878-.8652.8487-1.5976,1.5391-5.1403,4.8455-9.6808,9.0445-16.1239,11.1395-.7741.2517-1.3999.4159-1.6345.4762Z"/>
  <g>
    <polygon class="cls-4" points="156 85.2424 156 119.087 164.3972 109.9441 173.994 125.6634 182.3911 122.295 173.5001 105.5 186.1538 105.5 156 85.2424"/>
    <g id="cursor-svgrepo-com">
      <path class="cls-8" d="M179.737,120.764l-5.7467,2.6197-9.048-16.24-6.6693,8.2819v-26.0444l23.3227,15.4232h-10.6827l8.824,15.9597ZM189.721,107.1968l-34.168-22.5958v38.2123l8.92-11.078,8.2827,14.8673,10.5067-4.7874-8.0853-14.6184h14.544Z"/>
      <path class="cls-6" d="M136.913,75.8043h64v58h-64v-58Z"/>
    </g>
  </g>
</svg>